<svg xmlns="http://www.w3.org/2000/svg" width="200.306" height="353.068" viewBox="0 0 200.306 353.068">
  <g id="GTX-logo-desktop" transform="translate(0 0.001)">
    <g id="Group_20" data-name="Group 20" transform="translate(0 278.86)">
      <g id="Group_19" data-name="Group 19" transform="translate(0 0.533)">
        <path id="Path_22" data-name="Path 22" d="M20.372,197.023H50.151v34.154h4.94V192.083H20.372Z" transform="translate(12.928 -157.502)" fill="#fff"/>
        <path id="Path_23" data-name="Path 23" d="M34.514,239.452A31.783,31.783,0,1,1,61.7,187.9l1.42,2.03,4.016-3.21-1.628-1.829A36.7,36.7,0,0,0,0,207.818a36.937,36.937,0,0,0,34.359,36.675l1.213.083h0l15.089.026v-5.079H35.572Z" transform="translate(0 -170.927)" fill="#fff"/>
        <path id="Path_24" data-name="Path 24" d="M43.826,171.188v4.94h26.9v67.988h4.94V176.128h26.79v-4.94Z" transform="translate(27.811 -170.761)" fill="#fff"/>
      </g>
      <path id="Path_25" data-name="Path 25" d="M109.01,193.792h-6.156L85.343,170.6H91.5ZM146.149,243.1H140l-24.3-32.124L91.5,243.1H85.346l27.84-36.933,1.582-2.218L140,170.6h6.151l-27.325,36.25Z" transform="translate(54.157 -170.601)" fill="#fff"/>
    </g>
    <g id="Group_21" data-name="Group 21" transform="translate(10.549 -0.001)">
      <path id="Path_26" data-name="Path 26" d="M81.14,72.077,33.645,135.13,78.79,161.2l48.562-28.035Z" transform="translate(10.801 45.738)" fill="#fff"/>
      <path id="Path_27" data-name="Path 27" d="M91.717,104l4.34-6.074,51.558-68.155L96.044,0,46.82,28.422l41.3,54.7H72.537L35.969,34.687,6.454,51.729V155.2l32.513,18.776Z" transform="translate(-6.454)" fill="#fff"/>
      <path id="Path_28" data-name="Path 28" d="M120.828,22.442,67.548,93.128l49.181,65.246,30.165-17.413V37.487Z" transform="translate(32.315 14.241)" fill="#fff"/>
    </g>
    <g id="Group_22" data-name="Group 22" transform="translate(182.56 164.838)">
      <path id="Path_29" data-name="Path 29" d="M115.341,100.845a3.626,3.626,0,1,1-3.655,3.608A3.607,3.607,0,0,1,115.341,100.845Zm0,6.718a3.093,3.093,0,1,0-3-3.111A2.989,2.989,0,0,0,115.341,107.563Zm-1.416-5.214h1.638c1.009,0,1.483.4,1.483,1.211a1.09,1.09,0,0,1-1.115,1.154l1.213,1.87h-.708l-1.154-1.821h-.7v1.821h-.659Zm.659,1.881h.688c.582,0,1.115-.029,1.115-.7,0-.562-.485-.649-.93-.649h-.873Z" transform="translate(-111.686 -100.845)" fill="#fff"/>
    </g>
  </g>
</svg>
