<svg id="GTX-logo-mobile" xmlns="http://www.w3.org/2000/svg" width="102.68" height="180.989" viewBox="0 0 102.68 180.989">
  <g id="Group_20" data-name="Group 20" transform="translate(0 142.949)">
    <g id="Group_19" data-name="Group 19" transform="translate(0 0.273)">
      <path id="Path_22" data-name="Path 22" d="M20.372,194.615H35.637v17.508H38.17v-20.04h-17.8Z" transform="translate(-3.302 -174.356)" fill="#fff"/>
      <path id="Path_23" data-name="Path 23" d="M17.693,206.054A16.293,16.293,0,1,1,31.63,179.627l.728,1.041,2.059-1.646-.835-.938A18.815,18.815,0,0,0,0,189.838a18.934,18.934,0,0,0,17.613,18.8l.622.043h0l7.735.013v-2.6H18.235Z" transform="translate(0 -170.927)" fill="#fff"/>
      <path id="Path_24" data-name="Path 24" d="M43.826,171.188v2.532H57.613v34.852h2.532V173.721H73.878v-2.532Z" transform="translate(-7.104 -170.969)" fill="#fff"/>
    </g>
    <path id="Path_25" data-name="Path 25" d="M97.475,182.489H94.32L85.343,170.6H88.5Zm19.038,25.276H113.36L100.9,191.3,88.5,207.766H85.345l14.271-18.933.811-1.137,12.933-17.1h3.153l-14.007,18.582Z" transform="translate(-13.833 -170.601)" fill="#fff"/>
  </g>
  <g id="Group_21" data-name="Group 21" transform="translate(5.408)">
    <path id="Path_26" data-name="Path 26" d="M57.992,72.077,33.645,104.4l23.142,13.363,24.894-14.371Z" transform="translate(-10.861 -11.683)" fill="#fff"/>
    <path id="Path_27" data-name="Path 27" d="M50.161,53.311,52.386,50.2,78.815,15.26,52.379,0,27.146,14.57l21.17,28.038H40.329L21.584,17.781,6.454,26.517V79.558l16.667,9.625Z" transform="translate(-6.454)" fill="#fff"/>
    <path id="Path_28" data-name="Path 28" d="M94.86,22.442,67.548,58.677,92.758,92.123,108.221,83.2V30.155Z" transform="translate(-16.356 -3.638)" fill="#fff"/>
  </g>
  <g id="Group_22" data-name="Group 22" transform="translate(93.583 84.499)">
    <path id="Path_29" data-name="Path 29" d="M113.56,100.845a1.859,1.859,0,1,1-1.874,1.849A1.849,1.849,0,0,1,113.56,100.845Zm0,3.444a1.586,1.586,0,1,0-1.536-1.595A1.532,1.532,0,0,0,113.56,104.289Zm-.726-2.673h.84c.517,0,.76.2.76.621a.559.559,0,0,1-.571.592l.622.959h-.363l-.592-.933h-.358v.933h-.338Zm.338.964h.353c.3,0,.571-.015.571-.359,0-.288-.249-.333-.477-.333h-.447Z" transform="translate(-111.686 -100.845)" fill="#fff"/>
  </g>
</svg>
