<svg id="club-information" data-name="club-information" aria-labelledby="title-club-information" xmlns="http://www.w3.org/2000/svg" width="148" height="69" viewBox="0 0 148 69" role="img"><title id="title-club-information">Need more club information?</title><path d="M1.67,2.88h0l4.55,7.35H8.11V.24H6.44V7.6h0L1.85.24H0v10H1.67ZM25.55,8.72H20V5.8h5V4.37H20V1.75h5.45V.24h-7.2v10h7.29Zm16.9,0H36.9V5.8h5V4.37h-5V1.75h5.45V.24h-7.2v10h7.29ZM58.18,9.84a3.69,3.69,0,0,0,1.37-1.07,4.58,4.58,0,0,0,.79-1.59,7.07,7.07,0,0,0,.26-1.95,7.07,7.07,0,0,0-.26-1.95,4.59,4.59,0,0,0-.79-1.59A3.7,3.7,0,0,0,58.18.63a4.66,4.66,0,0,0-2-.39H52.05v10H56.2A4.66,4.66,0,0,0,58.18,9.84Zm-4.38-1V1.67h1.72a4.36,4.36,0,0,1,1.67.27,2.45,2.45,0,0,1,1,.76,2.74,2.74,0,0,1,.5,1.13,7,7,0,0,1,.13,1.41,7,7,0,0,1-.13,1.41,2.74,2.74,0,0,1-.5,1.13,2.44,2.44,0,0,1-1,.76,4.36,4.36,0,0,1-1.67.27Zm30-6.29h0l2.77,7.71h1.44l2.77-7.71h0v7.71h1.67V.24H90.12L87.43,8.06h0L84.64.24H82.18v10h1.67Zm27.93,2.72a6.15,6.15,0,0,0-.33-2,5.06,5.06,0,0,0-.95-1.67A4.5,4.5,0,0,0,109,.42a5,5,0,0,0-4,0,4.5,4.5,0,0,0-1.5,1.13,5,5,0,0,0-.94,1.67,6.12,6.12,0,0,0-.33,2,6.16,6.16,0,0,0,.33,2,5,5,0,0,0,.94,1.67,4.43,4.43,0,0,0,1.5,1.13,5.1,5.1,0,0,0,4,0,4.43,4.43,0,0,0,1.5-1.13,5.06,5.06,0,0,0,.95-1.67A6.19,6.19,0,0,0,111.78,5.24Zm-1.93,1.4a3.86,3.86,0,0,1-.54,1.23,2.7,2.7,0,0,1-.94.86,3.11,3.11,0,0,1-2.76,0,2.69,2.69,0,0,1-.95-.86,3.86,3.86,0,0,1-.54-1.23,5.69,5.69,0,0,1,0-2.8,3.87,3.87,0,0,1,.54-1.23,2.7,2.7,0,0,1,.95-.86,3.11,3.11,0,0,1,2.76,0,2.7,2.7,0,0,1,.94.86,3.87,3.87,0,0,1,.54,1.23,5.66,5.66,0,0,1,0,2.8Zm13.35-.52h2.58a2.69,2.69,0,0,1,1,.15,1.3,1.3,0,0,1,.61.48,2.07,2.07,0,0,1,.31.83,7.24,7.24,0,0,1,.08,1.18q0,.36,0,.76a1.64,1.64,0,0,0,.23.71h1.88a2.1,2.1,0,0,1-.41-1,8.85,8.85,0,0,1-.13-1.6,2.82,2.82,0,0,0-.15-1,2,2,0,0,0-.37-.64,1.43,1.43,0,0,0-.48-.36,1.8,1.8,0,0,0-.48-.14v0l.4-.17a1.92,1.92,0,0,0,.55-.41,2.58,2.58,0,0,0,.49-.76,2.89,2.89,0,0,0,.21-1.18,2.49,2.49,0,0,0-.83-2,3.71,3.71,0,0,0-2.48-.71h-4.77v10h1.75Zm0-4.45H126a3.73,3.73,0,0,1,.65.06,1.43,1.43,0,0,1,.56.22,1.14,1.14,0,0,1,.38.47,1.86,1.86,0,0,1,.14.78,1.55,1.55,0,0,1-.43,1.2,1.82,1.82,0,0,1-1.27.4H123.2Zm23.48,7.06h-5.54V5.8h5V4.37h-5V1.75h5.45V.24h-7.2v10h7.29ZM22.25,48.27a7,7,0,0,1-5.4,2.11,8.79,8.79,0,0,1-4.32-1,8.22,8.22,0,0,1-2.88-2.62A11.33,11.33,0,0,1,8,43.11a17.44,17.44,0,0,1-.5-4.2A18.76,18.76,0,0,1,8,34.54a11.56,11.56,0,0,1,1.61-3.77,8.15,8.15,0,0,1,2.88-2.64,8.8,8.8,0,0,1,4.32-1,7.84,7.84,0,0,1,2.66.46,7.76,7.76,0,0,1,2.28,1.27,7.58,7.58,0,0,1,1.68,1.9,6.16,6.16,0,0,1,.86,2.38h7.3A13.82,13.82,0,0,0,30,27.87,12.86,12.86,0,0,0,26.72,24a14.51,14.51,0,0,0-4.51-2.38,17.27,17.27,0,0,0-5.35-.82,17.31,17.31,0,0,0-7.08,1.39A15.14,15.14,0,0,0,4.47,26a17.13,17.13,0,0,0-3.31,5.74A21.41,21.41,0,0,0,0,38.91a20.7,20.7,0,0,0,1.15,7,16.68,16.68,0,0,0,3.31,5.64,15.16,15.16,0,0,0,5.3,3.77,17.57,17.57,0,0,0,7.08,1.37,16.89,16.89,0,0,0,5.81-1,13.46,13.46,0,0,0,4.61-2.78,13.92,13.92,0,0,0,3.17-4.42,17.44,17.44,0,0,0,1.49-5.81h-7.3A9.76,9.76,0,0,1,22.25,48.27Zm44.86,1.3H50.4V21.63H42.87V55.9H67.11Zm31.58-6.62q0,3.84-1.54,5.64t-5.57,1.8a8.67,8.67,0,0,1-3.67-.65,5.32,5.32,0,0,1-3.14-4.06,15.42,15.42,0,0,1-.24-2.74V21.63H77V42.94q0,7,3.82,10.37t10.78,3.36q6.86,0,10.75-3.38t3.89-10.34V21.63H98.69Zm47.52,7.51a9.43,9.43,0,0,0,1-4.49,9.51,9.51,0,0,0-1.56-5.5,8.24,8.24,0,0,0-4.73-3.19,8.54,8.54,0,0,0,3.48-2.83,7.5,7.5,0,0,0,1.18-4.32,9.19,9.19,0,0,0-.79-4,6.58,6.58,0,0,0-2.23-2.62,9.65,9.65,0,0,0-3.46-1.42,21.34,21.34,0,0,0-4.46-.43H118.52V55.9h16.61a17.5,17.5,0,0,0,4.49-.58,12,12,0,0,0,3.89-1.78A8.74,8.74,0,0,0,146.21,50.45Zm-20.16-23h7.06a11,11,0,0,1,1.94.17,4.86,4.86,0,0,1,1.66.6,3.2,3.2,0,0,1,1.15,1.2,4,4,0,0,1,.43,2,3.63,3.63,0,0,1-1.3,3.12,5.42,5.42,0,0,1-3.31,1h-7.63Zm13.18,20.26A3.63,3.63,0,0,1,138,49.11a5.19,5.19,0,0,1-1.78.72,10.1,10.1,0,0,1-2.11.22h-8.06V40.64h8.21a6.35,6.35,0,0,1,3.94,1.13,4.43,4.43,0,0,1,1.49,3.77A4.71,4.71,0,0,1,139.23,47.74ZM.6,68.57h.62v-10H.6Zm14.32-.83h0L8.58,58.57H7.81v10h.62V59.33h0l6.36,9.24h.73v-10h-.62Zm7.21.83h.62V63.64h5.1v-.53h-5.1v-4H28.4v-.53H22.13ZM42,59.85a4.35,4.35,0,0,0-1.49-1.11,4.74,4.74,0,0,0-2-.41,4.79,4.79,0,0,0-2,.41A4.33,4.33,0,0,0,35,59.85,4.93,4.93,0,0,0,34,61.52a6.7,6.7,0,0,0,0,4.1A4.93,4.93,0,0,0,35,67.29a4.31,4.31,0,0,0,1.5,1.11,4.79,4.79,0,0,0,2,.41,4.74,4.74,0,0,0,2-.41A4.33,4.33,0,0,0,42,67.29a4.94,4.94,0,0,0,.93-1.67,6.7,6.7,0,0,0,0-4.1A4.94,4.94,0,0,0,42,59.85Zm.36,5.54a4.47,4.47,0,0,1-.81,1.49,4,4,0,0,1-1.29,1,3.88,3.88,0,0,1-1.74.38,3.86,3.86,0,0,1-3.05-1.39,4.47,4.47,0,0,1-.81-1.49,6,6,0,0,1,0-3.64,4.47,4.47,0,0,1,.81-1.49,3.86,3.86,0,0,1,3.05-1.39,3.88,3.88,0,0,1,1.74.38,4,4,0,0,1,1.29,1,4.47,4.47,0,0,1,.81,1.49,6,6,0,0,1,0,3.64Zm14.25,2.37a4.65,4.65,0,0,1,0-.53v-.57a8.57,8.57,0,0,0-.06-1,2.76,2.76,0,0,0-.25-.9,1.78,1.78,0,0,0-.59-.69,2.39,2.39,0,0,0-1.08-.36v0a2.48,2.48,0,0,0,1.57-.86,2.6,2.6,0,0,0,.57-1.7,2.71,2.71,0,0,0-.24-1.22,2.08,2.08,0,0,0-.68-.79,2.89,2.89,0,0,0-1-.43,5.44,5.44,0,0,0-1.23-.13H49.36v10H50V64h3.56a3.15,3.15,0,0,1,1.36.24,1.59,1.59,0,0,1,.71.63,2.13,2.13,0,0,1,.27.89c0,.33,0,.67,0,1s0,.66,0,1a1.82,1.82,0,0,0,.22.82h.69a1,1,0,0,1-.17-.35A2.62,2.62,0,0,1,56.57,67.76Zm-3-4.28H50V59.1h3.56a4.06,4.06,0,0,1,1,.11,2.29,2.29,0,0,1,.81.36,1.85,1.85,0,0,1,.56.65,2,2,0,0,1,.21,1,2.5,2.5,0,0,1-.2,1,2,2,0,0,1-.53.71,2.16,2.16,0,0,1-.81.41A3.7,3.7,0,0,1,53.53,63.49Zm14.29,4.4h0l-3.91-9.31H63v10h.62V59.33h0l3.85,9.24h.62l3.81-9.24h0v9.24h.62v-10h-.88Zm14.31-9.31-4,10h.66L80,65.36h4.79l1.26,3.21h.66l-3.95-10Zm-1.89,6.26,2.23-5.66h0l2.14,5.66Zm11-5.73h3.51v9.46h.62V59.1h3.53v-.53H91.22Zm13.17,9.46H105v-10h-.62Zm15-8.71a4.34,4.34,0,0,0-1.49-1.11,4.74,4.74,0,0,0-2-.41,4.79,4.79,0,0,0-2,.41,4.33,4.33,0,0,0-1.5,1.11,5,5,0,0,0-.93,1.67,6.69,6.69,0,0,0,0,4.1,5,5,0,0,0,.93,1.67,4.32,4.32,0,0,0,1.5,1.11,4.79,4.79,0,0,0,2,.41,4.74,4.74,0,0,0,2-.41,4.32,4.32,0,0,0,1.49-1.11,4.93,4.93,0,0,0,.93-1.67,6.69,6.69,0,0,0,0-4.1A4.93,4.93,0,0,0,119.41,59.85Zm.36,5.54a4.47,4.47,0,0,1-.81,1.49,4,4,0,0,1-1.3,1,3.87,3.87,0,0,1-1.74.38,3.86,3.86,0,0,1-3.05-1.39,4.47,4.47,0,0,1-.81-1.49,6,6,0,0,1,0-3.64,4.47,4.47,0,0,1,.81-1.49,3.86,3.86,0,0,1,3.05-1.39,3.87,3.87,0,0,1,1.74.38,4,4,0,0,1,1.3,1,4.47,4.47,0,0,1,.81,1.49,6,6,0,0,1,0,3.64Zm14.15,2.35h0l-6.31-9.17h-.77v10h.62V59.33h0l6.36,9.24h.73v-10h-.62Zm9.56.83h.71V67.13h-.71Zm2.41-9.62a2.59,2.59,0,0,0-.87-.46,3.55,3.55,0,0,0-1.06-.15,3.51,3.51,0,0,0-1.34.24,2.6,2.6,0,0,0-1,.68,3,3,0,0,0-.6,1.06,4.34,4.34,0,0,0-.2,1.36h.53a3.69,3.69,0,0,1,.16-1.11,2.57,2.57,0,0,1,.48-.89,2.14,2.14,0,0,1,.79-.59,2.73,2.73,0,0,1,1.11-.21,3.16,3.16,0,0,1,.84.11,2.06,2.06,0,0,1,.72.36,1.8,1.8,0,0,1,.5.62,1.94,1.94,0,0,1,.19.89,2,2,0,0,1-.12.69,2.66,2.66,0,0,1-.31.6,4.4,4.4,0,0,1-.45.54l-.5.5a5.39,5.39,0,0,0-.48.51,3.24,3.24,0,0,0-.39.61,3.36,3.36,0,0,0-.27.76,4.43,4.43,0,0,0-.1,1h.53a3.88,3.88,0,0,1,.13-1.06,3.1,3.1,0,0,1,.32-.76,2.66,2.66,0,0,1,.44-.55l.48-.44.46-.46a3.11,3.11,0,0,0,.4-.51,2.6,2.6,0,0,0,.28-.62,2.69,2.69,0,0,0,.11-.79,2.65,2.65,0,0,0-.22-1.11A2.15,2.15,0,0,0,145.89,58.95Z" fill="#444"/></svg>