<svg xmlns="http://www.w3.org/2000/svg" width="141" height="65" viewBox="0 0 141 65">
    <path fill="#444" fill-rule="evenodd" d="M0 64.874V21h27.76v3.604H4.02v15.875h21.535v3.604H4.02v20.79H0zM38.661 41.64h11.646c4.09 0 7.034-.695 8.831-2.085 1.797-1.39 2.696-3.644 2.696-6.761 0-1.43-.283-2.72-.849-3.872a6.906 6.906 0 0 0-2.427-2.77c-.815-.556-1.787-.953-2.92-1.192-1.131-.238-2.988-.357-5.57-.357H38.662v17.037zm-4.02 23.233V21h14.624c3.395 0 5.852.139 7.371.417 1.52.278 2.845.735 3.977 1.37 1.727.973 3.058 2.318 3.991 4.036.933 1.718 1.4 3.669 1.4 5.853 0 2.7-.606 4.974-1.817 6.82-1.211 1.847-2.969 3.168-5.272 3.962 1.787.596 3.068 1.51 3.842 2.74.775 1.231 1.32 3.713 1.639 7.447l.565 6.582c.08 1.033.239 1.886.477 2.562.238.675.546 1.171.923 1.489v.596h-4.467c-.239-.457-.437-1.053-.596-1.788-.159-.734-.278-1.638-.358-2.71l-.506-5.808c-.298-4.011-1.013-6.568-2.144-7.67-1.132-1.102-3.406-1.653-6.821-1.653H38.66v19.629h-4.02zm39.464 0V21h28.713v3.604H78.126v15.995h22.578v3.484H78.126V61.27h25.437v3.604H74.105zm36.904 0V21h28.713v3.604H115.03v15.995h22.577v3.484H115.03V61.27h25.437v3.604h-29.458zM0 .14v1.512h.798v6.51H0V9.66h3.528V8.162H2.73v-2.38h3.738V4.27H2.73V1.652h2.94v.84h1.498V.14H0zm9.394 8.022V9.66h3.528V8.162h-.798v-6.51h.798V.14H9.394v1.512h.798v6.51h-.798zM15.092.14v1.512h.798v6.51h-.798V9.66h3.528V8.162h-.798v-2.1h1.372l1.512 2.1h-.602V9.66h3.668V8.162h-.63L21.308 5.74c1.134-.322 1.792-1.344 1.792-2.646C23.1 1.246 21.952.14 19.95.14h-4.858zm2.73 1.512h1.918c.812 0 1.386.49 1.386 1.442 0 1.008-.616 1.456-1.414 1.456h-1.89V1.652zm8.204 5.278v2.352c1.302.378 2.52.518 3.612.518 2.03 0 3.598-.91 3.598-2.94 0-1.666-1.316-2.45-2.968-2.828-1.162-.28-2.17-.63-2.17-1.428 0-.574.448-.994 1.428-.994.532 0 1.036.042 1.862.21v1.05h1.498V.532C31.598.14 30.618 0 29.526 0c-1.89 0-3.458.742-3.458 2.66 0 1.61 1.288 2.52 2.94 2.982 1.106.308 2.198.532 2.198 1.428 0 .63-.49 1.12-1.568 1.12-.546 0-1.204-.07-2.1-.266V6.93h-1.512zM35.294.14v2.352h1.498v-.84h1.246v6.51h-.798V9.66h3.528V8.162h-.798v-6.51h1.232v.84h1.512V.14h-7.42zm19.53 0v1.512h1.008l-1.792 6.09h-.014l-1.932-6.09h1.008V.14h-3.808v1.512h.686l2.716 8.078h2.464l2.632-8.078h.742V.14h-3.71zm5.754 8.022V9.66h3.528V8.162h-.798v-6.51h.798V.14h-3.528v1.512h.798v6.51h-.798zM66.43 6.93v2.352c1.302.378 2.52.518 3.612.518 2.03 0 3.598-.91 3.598-2.94 0-1.666-1.316-2.45-2.968-2.828-1.162-.28-2.17-.63-2.17-1.428 0-.574.448-.994 1.428-.994.532 0 1.036.042 1.862.21v1.05h1.498V.532C72.002.14 71.022 0 69.93 0c-1.89 0-3.458.742-3.458 2.66 0 1.61 1.288 2.52 2.94 2.982 1.106.308 2.198.532 2.198 1.428 0 .63-.49 1.12-1.568 1.12-.546 0-1.204-.07-2.1-.266V6.93H66.43zm9.492 1.232V9.66h3.528V8.162h-.798v-6.51h.798V.14h-3.528v1.512h.798v6.51h-.798zM81.634.14v2.352h1.498v-.84h1.246v6.51h-.798V9.66h3.528V8.162h-.798v-6.51h1.232v.84h1.512V.14h-7.42zm18.48 1.372c1.876 0 2.198 1.428 2.198 3.318 0 1.89-.322 3.472-2.198 3.472S97.902 6.72 97.902 4.83s.336-3.318 2.212-3.318zm0 8.288c3.346 0 4.228-2.254 4.228-4.97 0-2.688-.882-4.83-4.228-4.83-3.346 0-4.242 2.142-4.242 4.83 0 2.716.896 4.97 4.242 4.97zM112.392.14v1.512h.854V6.44h-.028l-3.962-6.3h-2.674v1.512h.798v6.51h-.798V9.66h3.43V8.162h-.854V3.626h.028l3.85 6.034h1.974V1.652h.812V.14h-3.43zm15.428 0v1.512h.812V6.3c0 1.022-.336 2.002-1.806 2.002-1.526 0-1.834-.98-1.834-2.002V1.652h.798V.14h-3.528v1.512h.798V6.3c0 2.492 1.498 3.5 3.752 3.5 2.254 0 3.738-1.008 3.738-3.5V1.652h.812V.14h-3.542zm5.81 6.79v2.352c1.302.378 2.52.518 3.612.518 2.03 0 3.598-.91 3.598-2.94 0-1.666-1.316-2.45-2.968-2.828-1.162-.28-2.17-.63-2.17-1.428 0-.574.448-.994 1.428-.994.532 0 1.036.042 1.862.21v1.05h1.498V.532C139.202.14 138.222 0 137.13 0c-1.89 0-3.458.742-3.458 2.66 0 1.61 1.288 2.52 2.94 2.982 1.106.308 2.198.532 2.198 1.428 0 .63-.49 1.12-1.568 1.12-.546 0-1.204-.07-2.1-.266V6.93h-1.512z"/>
</svg>
