<svg xmlns="http://www.w3.org/2000/svg" width="26" height="28" viewBox="0 0 26 28">
    <g fill="none" fill-rule="evenodd">
        <path stroke="#444" stroke-width="2" d="M10.899 2.368c1.128-.651 3.074-.652 4.202 0l6.922 3.996c1.128.651 2.101 2.336 2.101 3.64v7.993c0 1.302-.972 2.987-2.1 3.639L15.1 25.632c-1.128.651-3.074.652-4.202 0l-6.922-3.996c-1.128-.651-2.101-2.336-2.101-3.64v-7.993c0-1.302.972-2.987 2.1-3.639L10.9 2.368z"/>
        <path fill="#444" d="M14.36 17.288V8.04h-.976l-2.832.624v1.472l1.728-.08v7.232h-1.76V19h5.6v-1.712z"/>
    </g>
</svg>
