<svg xmlns="http://www.w3.org/2000/svg" width="26" height="28" viewBox="0 0 26 28">
    <g fill="none" fill-rule="evenodd">
        <path stroke="#444" stroke-width="2" d="M10.899 2.368c1.128-.651 3.074-.652 4.202 0l6.922 3.996c1.128.651 2.101 2.336 2.101 3.64v7.993c0 1.302-.972 2.987-2.1 3.639L15.1 25.632c-1.128.651-3.074.652-4.202 0l-6.922-3.996c-1.128-.651-2.101-2.336-2.101-3.64v-7.993c0-1.302.972-2.987 2.1-3.639L10.9 2.368z"/>
        <path fill="#444" d="M15.512 16.328v.832h-3.056v-.032c2.72-1.904 4.336-3.632 4.336-5.872 0-1.84-1.168-3.296-3.632-3.296-1.392 0-2.336.272-3.648.8v2.16h1.728v-.816c.544-.192.976-.24 1.44-.24.672 0 1.92.192 1.92 1.84 0 1.152-.864 2.624-5.088 5.312V19h7.728v-2.672h-1.728z"/>
    </g>
</svg>
