<svg xmlns="http://www.w3.org/2000/svg" width="26" height="28" viewBox="0 0 26 28">
    <g fill="none" fill-rule="evenodd">
        <path stroke="#444" stroke-width="2" d="M10.899 2.368c1.128-.651 3.074-.652 4.202 0l6.922 3.996c1.128.651 2.101 2.336 2.101 3.64v7.993c0 1.302-.972 2.987-2.1 3.639L15.1 25.632c-1.128.651-3.074.652-4.202 0l-6.922-3.996c-1.128-.651-2.101-2.336-2.101-3.64v-7.993c0-1.302.972-2.987 2.1-3.639L10.9 2.368z"/>
        <path fill="#444" d="M10.32 14.28h2.8v-4.016h-.032c-.88 1.6-1.664 2.72-2.768 4.016zm2.8 3.008v-1.28H8.192V14.28c1.76-1.92 3.296-3.68 4.432-6.24H15.2v6.24h1.392v1.728H15.2v1.28h.912V19h-3.92v-1.712h.928z"/>
    </g>
</svg>
