<svg xmlns="http://www.w3.org/2000/svg" width="26" height="28" viewBox="0 0 26 28">
    <g fill="none" fill-rule="evenodd">
        <path stroke="#444" stroke-width="2" d="M10.899 2.368c1.128-.651 3.074-.652 4.202 0l6.922 3.996c1.128.651 2.101 2.336 2.101 3.64v7.993c0 1.302-.972 2.987-2.1 3.639L15.1 25.632c-1.128.651-3.074.652-4.202 0l-6.922-3.996c-1.128-.651-2.101-2.336-2.101-3.64v-7.993c0-1.302.972-2.987 2.1-3.639L10.9 2.368z"/>
        <path fill="#444" d="M16.84 8.12H9.992l-.208 6.176 1.488.128c.544-.496 1.008-.768 1.84-.768 1.472 0 1.888 1.024 1.888 1.872 0 1.088-.656 1.92-2.048 1.92-.56 0-1.088-.064-1.68-.272v-.848H9.56v2.032c1.296.592 2.304.8 3.52.8 2.56 0 4.112-1.28 4.112-3.76 0-2.304-1.296-3.52-3.328-3.52-1.008 0-1.664.32-2.176.752l-.032-.016.144-2.656h3.312v.848h1.728V8.12z"/>
    </g>
</svg>
