<svg xmlns="http://www.w3.org/2000/svg" width="26" height="28" viewBox="0 0 26 28">
    <g fill="none" fill-rule="evenodd">
        <path stroke="#444" stroke-width="2" d="M10.899 2.368c1.128-.651 3.074-.652 4.202 0l6.922 3.996c1.128.651 2.101 2.336 2.101 3.64v7.993c0 1.302-.972 2.987-2.1 3.639L15.1 25.632c-1.128.651-3.074.652-4.202 0l-6.922-3.996c-1.128-.651-2.101-2.336-2.101-3.64v-7.993c0-1.302.972-2.987 2.1-3.639L10.9 2.368z"/>
        <path fill="#444" d="M9.56 18.376c1.264.608 2.304.784 3.664.784 2.512 0 3.968-1.104 3.968-3.12 0-1.216-.704-2.32-2.208-2.688v-.032c1.168-.432 1.888-1.28 1.888-2.48 0-1.904-1.52-2.88-3.408-2.88-1.216 0-2.48.192-3.76.784v2.176h1.712v-.96a5.137 5.137 0 0 1 1.68-.272c1.264 0 1.712.736 1.712 1.376 0 .768-.4 1.632-1.984 1.632H11.48v1.728h1.44c1.408 0 2.144.496 2.144 1.504 0 .608-.4 1.52-1.968 1.52-.64 0-1.248-.08-1.824-.272V16.2H9.56v2.176z"/>
    </g>
</svg>
