<?xml version="1.0" encoding="utf-8"?>
<!-- Generator: Adobe Illustrator 23.0.3, SVG Export Plug-In . SVG Version: 6.00 Build 0)  -->
<svg version="1.1" id="history_1_" xmlns="http://www.w3.org/2000/svg" xmlns:xlink="http://www.w3.org/1999/xlink" x="0px" y="0px"
	 viewBox="0 0 16 16" style="enable-background:new 0 0 16 16;" xml:space="preserve">
<style type="text/css">
	.st0{fill:#444444;}
</style>
<path id="history" class="st0" d="M13.7,2.3C12.1,0.8,10.1,0,8,0h0C5.8,0,3.7,0.9,2.2,2.5l-0.1-1C2.1,1.2,1.9,1,1.6,1
	C1.3,1,1.1,1.3,1.1,1.5l0.2,2.7c0,0.2,0.1,0.3,0.2,0.4c0.1,0,0.2,0.1,0.2,0.1c0.1,0,0.2,0,0.2-0.1l2.4-1.2C4.7,3.3,4.8,3,4.7,2.8
	C4.6,2.5,4.3,2.4,4,2.6L3.1,3c1.3-1.3,3-2,4.9-2h0c1.9,0,3.6,0.7,4.9,2C14.3,4.4,15,6.1,15,8c0,1.9-0.7,3.6-2,5
	C11.6,14.3,9.9,15,8,15h0c-1.9,0-3.6-0.7-4.9-2C1.7,11.6,1,9.9,1,8c0-0.3-0.2-0.5-0.5-0.5C0.2,7.5,0,7.7,0,8c0,2.1,0.8,4.1,2.3,5.7
	C3.9,15.2,5.9,16,8,16h0c2.1,0,4.1-0.8,5.7-2.3S16,10.1,16,8C16,5.9,15.2,3.9,13.7,2.3z M7.5,3.5v5h4v-1h-3v-4H7.5z"/>
</svg>
