<?xml version="1.0" encoding="utf-8"?>
<!-- Generator: Adobe Illustrator 19.1.0, SVG Export Plug-In . SVG Version: 6.00 Build 0)  -->
<svg version="1.1" id="Layer_1" xmlns="http://www.w3.org/2000/svg" xmlns:xlink="http://www.w3.org/1999/xlink" x="0px" y="0px"
	 width="48px" height="43px" viewBox="0 0 48 43" enable-background="new 0 0 48 43" xml:space="preserve">
<path fill="#999999" d="M11.562,14.042c0.432,1.24,1.035,2.536,1.771,3.868v19.424L1.828,42.569C0.953,42.92,0,42.274,0,41.332
	V20.472c0-0.997,0.752-2.106,1.677-2.476L11.562,14.042z M34.5,10.5c0,4.688-6.863,13.233-9.491,16.335
	c-0.531,0.628-1.484,0.628-2.017,0C20.363,23.733,13.5,15.188,13.5,10.5C13.5,4.701,18.201,0,24,0S34.5,4.701,34.5,10.5z
	 M27.042,28.561c1.641-1.934,3.382-4.137,4.958-6.394v20.5l-16-5.333V22.167c1.576,2.257,3.319,4.458,4.958,6.392
	c0.76,0.899,1.87,1.413,3.042,1.413S26.281,29.458,27.042,28.561z M27.5,10.5C27.5,8.566,25.934,7,24,7s-3.5,1.566-3.5,3.5
	S22.066,14,24,14S27.5,12.434,27.5,10.5z M48,14.668v20.859c0,0.997-0.752,2.106-1.677,2.476l-11.656,4.663v-24l11.505-5.236
	C47.047,13.08,48,13.726,48,14.668z"/>
</svg>
