<svg xmlns="http://www.w3.org/2000/svg" width="660px" height="792px" viewBox="0 0 330 396">
	<rect fill="#FBFBFB" width="330" height="396"/>
	<path fill="#999999" d="M320.438,344.23c-4.918-26.672-14.725-36.874-34.191-47.074 c-10.045-5.263-54.741-24.484-54.741-24.484s-2.974-6.494-4.32-9.1c-3.169-6.132-6.11-7.308-14.63-7.914 c-1.579-8.884-0.808-17.7,0.035-24.545c3.144-4.942,5.265-9.411,5.66-12.448c0.471-3.622,1.367-16.744,1.367-16.744 c0.871,0.971,2.113,1.526,3.417,1.526c5.5-0.212,5.257-5.658,7.112-9.438c2.783-5.672,5.908-13.475,5.907-22.632 c0-10.259,0.542-19.825-5.938-17.31c5.041-17.565,2.826-27.368,2.172-52.584c-0.439-16.889-19.785-35.008-19.785-35.008 l7.962,16.138c-6.54-7.786-4.9-10.827-20.7-20.825c-16.166-10.233-22.645-14.383-22.645-14.383l9.892,14.8l-21.354-21.159 c0.159,6.009,0.612,20.452,0.469,16.239c-0.977-5.126-2.845-10.512-4.412-16.109c-4.339,14.132-6.039,18.871-6.039,17.681 c0-1.323,0-4.343-0.143-11.887l-10.869,14.422l10.4-18.869c-8.1,10.589-15.9,13.419-26.173,21.457 c-7.9,6.182-7.284,9.252-13.731,14.166l14.433-19.039c0,0-24.416,14.519-30.363,34.052c-1.4,4.582-2.826,14.039-1.026,36.106 c1.4,17.163-0.395,17.117,2.8,27.445c-8.105-4.562-7.807,5.624-7.807,16.6c0,9.158,3.579,15.027,6.362,20.7 c1.854,3.78,1.816,9.225,7.321,9.437c1.304-0.001,2.546-0.555,3.417-1.526c0,0,0.9,13.122,1.367,16.744 c0.136,0.924,0.361,1.833,0.673,2.714c1.157,3.565,2.781,6.961,4.828,10.1c1.117,9.2,1.049,14.265-0.1,24.179 c-8.563,0.6-10.252,1.773-13.428,7.918c-1.347,2.606-4.32,9.1-4.32,9.1s-46.159,19.306-56.042,24.484 c-17.748,9.3-27.466,18.6-32.771,40.38c-3.1,12.719-4.691,34.676-5.5,58.392L164.852,396l159.667-0.068 C323.841,376.148,322.622,356.073,320.438,344.23z"/>
	<path fill="#E8E8E8" d="M213.815,351.874v2.908H208v-11.63h2.907v8.722H213.815z M214.4,343.152v11.63h2.9v-11.63 H214.4z M223.7,346.059v-2.907h-5.815v11.63h2.907v-4.652h2.326v-2.326h-2.325v-1.745H223.7z M230.1,346.059v-2.907h-5.818v11.63 h5.818v-2.908h-2.911v-1.744h2.326v-2.326h-2.326v-1.745H230.1z M259.175,346.059v-2.907h-5.819v11.63h5.815v-2.908h-2.907v-1.744 h2.326v-2.326h-2.326v-1.745H259.175z M231.841,343.152v2.907h1.744v8.723h2.907v-8.723h1.744v-2.907H231.841z M238.819,343.152 v11.63h2.907v-11.63H238.819z M249.867,343.152h-1.453l-0.872,5.815l-0.873-5.815h-4.361v11.63h2.907v-6.4l1.163,6.4h2.322 l1.163-6.4v6.4h2.907v-11.63H249.867z M261.206,343.152c-0.795-0.008-1.446,0.631-1.454,1.426c0,0.009,0,0.019,0,0.028 c0.021,0.803,0.689,1.436,1.492,1.415c0.773-0.02,1.395-0.642,1.415-1.415c0.008-0.795-0.631-1.446-1.426-1.454 C261.224,343.152,261.215,343.152,261.206,343.152z M261.206,345.827c-0.673-0.004-1.217-0.548-1.221-1.221 c0-0.674,0.547-1.221,1.221-1.221c0.674,0,1.221,0.547,1.221,1.221C262.423,345.279,261.879,345.823,261.206,345.827z M261.439,344.727c0.108-0.002,0.211-0.043,0.291-0.116c0.082-0.097,0.124-0.222,0.116-0.349c0.018-0.141-0.051-0.278-0.174-0.349 c0-0.116-0.174-0.174-0.349-0.174h-0.64v1.739h0.233v-0.756h0.291l0.465,0.756h0.291L261.439,344.727z M261.206,344.494h-0.291 v-0.528h0.465c0.058,0,0.058,0,0.116,0.058c0.031-0.001,0.057,0.025,0.058,0.056c0,0.001,0,0.001,0,0.002 c0,0.058,0.058,0.058,0.058,0.116c0.008,0.064-0.014,0.128-0.058,0.174c0,0.058-0.058,0.058-0.116,0.058 c-0.044,0.006-0.085,0.026-0.116,0.058L261.206,344.494z"/>
</svg>