<svg xmlns="http://www.w3.org/2000/svg" width="660px" height="792px" viewBox="0 0 330 396">
	<rect fill="#FBFBFB" width="330" height="396"/>
	<path fill="#999999" d="M110.118,190.798l0.757,11.126c0,0,0.3,6.257,6.5,19.263l-0.092,0.071v22.68 c-5.111,0.923-7.045,2.893-9.67,8.355c-1.158,2.408-3.464,7.764-4.252,9.609c-21.461,8.4-48.434,20.275-60.095,26.484 C12.109,304.974,7.266,323.55,4.837,396h320.781c-2.442-72.452-7.282-91.027-38.439-107.619 c-19.078-9.88-38.661-18.754-58.668-26.584c-0.828-1.93-3.071-7.142-4.21-9.509c-2.361-4.914-4.162-7-8.215-8.043l0.356-17.407 l0.9-8.083c4.935-10.381,5.189-14.377,5.189-14.377l1.1-16.119c3.248-2.233,6.883-9.479,9.015-14.278 c2.286-5.15,5.149-16.885,6.517-22.79c0.706-2.954,0.161-6.07-1.508-8.608c-1.295-1.934-3.043-3.211-5.009-1.062 c-0.348,0.387-0.672,0.796-0.971,1.223c0.025-0.282,0.043-0.565,0.043-0.849v-40.814c0,0,1.027-18.256-24.887-39.121 c-4.271-3.45-9.571-5.377-15.062-5.477l-4.6-0.077c-3.748-0.062-7.455-0.792-10.947-2.153l-9.693-3.779 c-1.891-0.737-3.924-1.033-5.945-0.867l-5.73-0.01c-12.863-0.022-25.311,4.559-35.09,12.916l-3.416,2.921 c-7.871,6.726-14.006,15.25-17.885,24.849L93.04,103.71c-0.51,1.26-0.771,2.607-0.771,3.966l0.946,21.787 c0.233,5.394,3.3,13.963,3.689,14.789l1.4,2.7c-0.446-0.626-0.927-1.227-1.439-1.8c-1.967-2.149-3.716-0.871-5.01,1.062 c-1.668,2.539-2.214,5.653-1.509,8.608c1.368,5.905,4.23,17.64,6.519,22.791C99.984,184.642,106.486,196.708,110.118,190.798z"/>
	<path fill="#E8E8E8" d="M212.815,348.674v2.908H207v-11.63h2.907v8.722H212.815z M213.4,339.952v11.63h2.9v-11.63 H213.4z M222.7,342.859v-2.907h-5.815v11.63h2.907v-4.652h2.326v-2.326h-2.325v-1.745H222.7z M229.1,342.859v-2.907h-5.818v11.63 h5.818v-2.908h-2.911v-1.744h2.326v-2.326h-2.326v-1.745H229.1z M258.175,342.859v-2.907h-5.819v11.63h5.815v-2.908h-2.907v-1.744 h2.326v-2.326h-2.326v-1.745H258.175z M230.841,339.952v2.907h1.744v8.723h2.907v-8.723h1.744v-2.907H230.841z M237.819,339.952 v11.63h2.907v-11.63H237.819z M248.867,339.952h-1.453l-0.872,5.815l-0.873-5.815h-4.361v11.63h2.907v-6.4l1.163,6.4h2.322 l1.163-6.4v6.4h2.907v-11.63H248.867z M260.206,339.952c-0.795-0.008-1.446,0.631-1.454,1.426c0,0.009,0,0.019,0,0.028 c0.021,0.803,0.689,1.436,1.492,1.415c0.773-0.02,1.395-0.642,1.415-1.415c0.008-0.795-0.631-1.446-1.426-1.454 C260.224,339.952,260.215,339.952,260.206,339.952z M260.206,342.627c-0.673-0.004-1.217-0.548-1.221-1.221 c0-0.674,0.547-1.221,1.221-1.221c0.674,0,1.221,0.547,1.221,1.221C261.423,342.078,260.879,342.623,260.206,342.627z M260.439,341.527c0.108-0.002,0.211-0.043,0.291-0.116c0.082-0.097,0.124-0.222,0.116-0.349c0.018-0.141-0.051-0.278-0.174-0.349 c0-0.116-0.174-0.174-0.349-0.174h-0.64v1.739h0.233v-0.756h0.291l0.465,0.756h0.291L260.439,341.527z M260.206,341.294h-0.291 v-0.528h0.465c0.058,0,0.058,0,0.116,0.058c0.031-0.001,0.057,0.025,0.058,0.056c0,0,0,0.001,0,0.002 c0,0.058,0.058,0.058,0.058,0.116c0.008,0.064-0.014,0.128-0.058,0.174c0,0.058-0.058,0.058-0.116,0.058 c-0.044,0.006-0.085,0.026-0.116,0.058L260.206,341.294z"/>
</svg>