<svg xmlns="http://www.w3.org/2000/svg" width="660px" height="792px" viewBox="0 0 330 396">
	<rect fill="#FBFBFB" width="330" height="396"/>
	<path fill="#999999" d="M99.351,176.457c0.364,3.016,0.709,5.865,1.206,8.529c1.384,7.422,3.1,13.093,3.114,13.149 c0.013,0.089,0.945,6.869,5.955,6.869c0.837-0.014,1.666-0.17,2.451-0.459l0.132-0.046h0.01l0.029,0.147 c2.033,10.217,6.284,19.864,12.453,28.258c1.407,1.911,2.917,3.745,4.523,5.492l-0.655,25.809h72.837l-0.678-26.692 c1.146-1.292,2.414-2.83,3.726-4.609c6.169-8.395,10.42-18.041,12.453-28.258l0.029-0.147h0.009l0,0l0.132,0.046 c0.786,0.29,1.614,0.445,2.451,0.459c5.009,0,5.941-6.78,5.955-6.869c0.017-0.057,1.73-5.728,3.114-13.149 c0.5-2.663,0.842-5.512,1.207-8.529c0.262-2.173,0.534-4.419,0.87-6.616c0.376-3.535,0.045-5.908-0.982-7.051 c-0.459-0.513-1.122-0.797-1.81-0.775c-0.655,0.023-1.298,0.176-1.893,0.45l0.067-2.07c0.029-1.562-0.055-3.123-0.249-4.673 c-0.1-0.52-0.794-0.667-1.074-0.706c-0.152-19.774-4.4-46.765-13.908-59.214c-9.557-12.516-20.421-15.739-22.717-16.3 c1.435-3.4,6.29-16.456,0.938-26.236c-3.414-6.237-10.311-10.023-20.5-11.253c-1.311-0.206-2.634-0.32-3.961-0.341 c-0.11-0.005-0.214-0.008-0.325-0.008c-1.221,0.048-2.438,0.164-3.646,0.348c-10.194,1.23-17.092,5.016-20.5,11.253 c-5.346,9.769-0.507,22.808,0.933,26.225c-1.86,0.424-12.858,3.406-22.713,16.311c-9.505,12.448-13.754,39.436-13.908,59.21 c-0.275,0.038-0.976,0.185-1.075,0.707c-0.194,1.55-0.277,3.112-0.248,4.673l0.067,2.073c-0.595-0.274-1.239-0.427-1.894-0.45 c-0.688-0.022-1.351,0.262-1.81,0.775c-1.028,1.143-1.359,3.516-0.982,7.051C98.818,172.038,99.09,174.284,99.351,176.457z"/>
	<path fill="#999999" d="M277.419,301.521c-10.234-5.448-39.134-16.077-58.1-23.339c-0.726-1.7-2.7-6.271-3.7-8.349 c-2.9-6.025-4.829-7.211-12.542-7.814h-77.385c-7.7,0.6-9.636,1.792-12.532,7.813c-1.017,2.115-3.04,6.817-3.733,8.436 c-18.841,7.377-47.464,17.8-57.7,23.251c-27.355,14.564-31.6,30.873-33.738,94.481H311.15 C309.026,332.394,304.777,316.086,277.419,301.521z"/>
	<path fill="#E8E8E8" d="M197.815,351.494v2.908H192v-11.63h2.907v8.722H197.815z M198.4,342.772v11.63h2.9v-11.63 H198.4z M207.7,345.679v-2.907h-5.815v11.63h2.907v-4.652h2.326v-2.326h-2.325v-1.745H207.7z M214.1,345.679v-2.907h-5.818v11.63 h5.818v-2.908h-2.911v-1.744h2.326v-2.326h-2.326v-1.745H214.1z M243.175,345.679v-2.907h-5.819v11.63h5.815v-2.908h-2.907v-1.744 h2.326v-2.326h-2.326v-1.745H243.175z M215.841,342.772v2.907h1.744v8.723h2.907v-8.723h1.744v-2.907H215.841z M222.819,342.772 v11.63h2.907v-11.63H222.819z M233.867,342.772h-1.453l-0.872,5.815l-0.873-5.815h-4.361v11.63h2.907v-6.4l1.163,6.4h2.322 l1.163-6.4v6.4h2.907v-11.63H233.867z M245.206,342.772c-0.795-0.008-1.446,0.631-1.454,1.426c0,0.009,0,0.019,0,0.028 c0.021,0.803,0.689,1.436,1.492,1.415c0.773-0.02,1.395-0.642,1.415-1.415c0.008-0.795-0.631-1.446-1.426-1.454 C245.224,342.772,245.215,342.772,245.206,342.772z M245.206,345.447c-0.673-0.004-1.217-0.548-1.221-1.221 c0-0.674,0.547-1.221,1.221-1.221c0.674,0,1.221,0.547,1.221,1.221C246.423,344.899,245.879,345.443,245.206,345.447z M245.439,344.347c0.108-0.002,0.211-0.043,0.291-0.116c0.082-0.097,0.124-0.222,0.116-0.349c0.018-0.141-0.051-0.278-0.174-0.349 c0-0.116-0.174-0.174-0.349-0.174h-0.64v1.739h0.233v-0.756h0.291l0.465,0.756h0.291L245.439,344.347z M245.206,344.114h-0.291 v-0.528h0.465c0.058,0,0.058,0,0.116,0.058c0.031-0.001,0.057,0.025,0.058,0.056c0,0.001,0,0.001,0,0.002 c0,0.058,0.058,0.058,0.058,0.116c0.008,0.064-0.014,0.128-0.058,0.174c0,0.058-0.058,0.058-0.116,0.058 c-0.044,0.006-0.085,0.026-0.116,0.058L245.206,344.114z"/>
</svg>