<svg xmlns="http://www.w3.org/2000/svg" width="660px" height="792px" viewBox="0 0 330 396">
	<rect fill="#FBFBFB" width="330" height="396"/>
	<path fill="#999999" d="M283.124,297.259c-10.7-5.694-40.9-16.8-60.715-24.392c-0.759-1.771-2.819-6.554-3.863-8.725 c-3.044-6.333-5.067-7.551-13.241-8.178h-1.631l-0.293-11.547c2.673-2.073,5.167-4,7.188-5.55c4.419-3.387,7.948-7.799,10.28-12.855 c-0.347,5.19-0.852,10.186-1.312,14.4c0,0,30.018-21.69,33.7-39.531s0.7-40.3,0.7-40.3s3.964-119.5-95.151-111.008 c-29.451-4.814-47.008,19.54-47.008,19.54s-34.482,49.981-36.436,109.842c-0.408,11.319,2.51,22.51,8.393,32.189 c15.278,24.917,36.64,32.327,44.657,34.306l-0.267,10.507h-3.345c-8.234,0.626-10.259,1.833-13.312,8.184 c-1.062,2.209-3.177,7.124-3.9,8.815c-0.571,0.223-52.819,20.584-58.451,23.355l-0.25,0.123c-0.117,0.058-1.439,0.734-1.6,0.823 C18.678,312.479,14.239,329.523,12.007,396H318.39C316.152,329.525,311.712,312.481,283.124,297.259z"/>
	<path fill="#E8E8E8" d="M203.815,342.061v2.908H198v-11.63h2.907v8.722H203.815z M204.4,333.339v11.63h2.9v-11.63 H204.4z M213.7,336.246v-2.907h-5.815v11.63h2.907v-4.652h2.326v-2.326h-2.325v-1.745H213.7z M220.1,336.246v-2.907h-5.818v11.63 h5.818v-2.908h-2.911v-1.744h2.326v-2.326h-2.326v-1.745H220.1z M249.175,336.246v-2.907h-5.819v11.63h5.815v-2.908h-2.907v-1.744 h2.326v-2.326h-2.326v-1.745H249.175z M221.841,333.339v2.907h1.744v8.723h2.907v-8.723h1.744v-2.907H221.841z M228.819,333.339 v11.63h2.907v-11.63H228.819z M239.867,333.339h-1.453l-0.872,5.815l-0.873-5.815h-4.361v11.63h2.907v-6.4l1.163,6.4h2.322 l1.163-6.4v6.4h2.907v-11.63H239.867z M251.206,333.339c-0.795-0.008-1.446,0.631-1.454,1.426c0,0.009,0,0.019,0,0.028 c0.021,0.803,0.689,1.436,1.492,1.415c0.773-0.02,1.395-0.642,1.415-1.415c0.008-0.795-0.631-1.446-1.426-1.454 C251.224,333.339,251.215,333.339,251.206,333.339z M251.206,336.014c-0.673-0.004-1.217-0.548-1.221-1.221 c0-0.674,0.547-1.221,1.221-1.221c0.674,0,1.221,0.547,1.221,1.221C252.423,335.466,251.879,336.011,251.206,336.014z M251.439,334.914c0.108-0.002,0.211-0.043,0.291-0.116c0.082-0.097,0.124-0.222,0.116-0.349c0.018-0.141-0.051-0.278-0.174-0.349 c0-0.116-0.174-0.174-0.349-0.174h-0.64v1.739h0.233v-0.756h0.291l0.465,0.756h0.291L251.439,334.914z M251.206,334.681h-0.291 v-0.528h0.465c0.058,0,0.058,0,0.116,0.058c0.031-0.001,0.057,0.025,0.058,0.056c0,0.001,0,0.001,0,0.001 c0,0.059,0.058,0.059,0.058,0.117c0.008,0.064-0.014,0.128-0.058,0.174c0,0.058-0.058,0.058-0.116,0.058 c-0.044,0.006-0.085,0.026-0.116,0.058L251.206,334.681z"/>
</svg>