<svg xmlns="http://www.w3.org/2000/svg" width="660px" height="792px" viewBox="0 0 330 396">
	<rect fill="#FBFBFB" width="330" height="396"/>
	<path fill="#999999" d="M297.719,311.702c-2.137-1.738-13.326-8.1-16.967-9.849 c-11.04-5.293-49.427-21.361-49.427-21.361s-3.184-6.954-4.625-9.744c-0.582-1.161-1.264-2.269-2.037-3.311l3.53-4.714 c12.854-17.944,19.089-51.923,19.089-51.923s1.018,11.962-1.654,18.071c2.435-5.112,3.686-10.708,3.659-16.37 c0,0,1.805,10.982-0.223,19.424c3.106-9.972,3.632-20.569,1.527-30.8l-3.5-21.317c0,0-3.824-4.963-5.157-33.12 s-5.47-39.738-5.47-39.738c-28.125-71.649-80.176-55.869-80.176-55.869c-11.135-1.368-15.24,1.782-15.24,1.782 c-38.274,3.054-52.21,73.113-52.21,73.113s-9.672,43.97-9.736,52.306c4.029-24.953,5.727-23.48,5.727-23.48l-2.482,30.162 c0,0,0,51.669,17.372,77.758c-0.047,0.065-0.023,0.033,0,0c0.006,0.012,0.558,1.06,4.294,4.976c-0.689,0.968-1.305,1.987-1.84,3.048 c-1.442,2.79-4.625,9.744-4.625,9.744s-38.382,16.3-49.427,21.361c-3.671,1.683-14.83,8.111-16.968,9.849 C15.237,324.493,10.819,342.607,8.998,396h310.876C318.053,342.609,313.635,324.495,297.719,311.702z"/>
	<path fill="#E8E8E8" d="M213.815,360.723v2.908H208v-11.63h2.907v8.722H213.815z M214.4,352.001v11.63h2.9v-11.63 H214.4z M223.7,354.908v-2.907h-5.815v11.63h2.907v-4.652h2.326v-2.326h-2.325v-1.745H223.7z M230.1,354.908v-2.907h-5.818v11.63 h5.818v-2.908h-2.911v-1.744h2.326v-2.326h-2.326v-1.745H230.1z M259.175,354.908v-2.907h-5.819v11.63h5.815v-2.908h-2.907v-1.744 h2.326v-2.326h-2.326v-1.745H259.175z M231.841,352.001v2.907h1.744v8.723h2.907v-8.723h1.744v-2.907H231.841z M238.819,352.001 v11.63h2.907v-11.63H238.819z M249.867,352.001h-1.453l-0.872,5.815l-0.873-5.815h-4.361v11.63h2.907v-6.4l1.163,6.4h2.322 l1.163-6.4v6.4h2.907v-11.63H249.867z M261.206,352.001c-0.795-0.008-1.446,0.631-1.454,1.426c0,0.009,0,0.019,0,0.028 c0.021,0.803,0.689,1.436,1.492,1.415c0.773-0.02,1.395-0.642,1.415-1.415c0.008-0.795-0.631-1.446-1.426-1.454 C261.224,352.001,261.215,352.001,261.206,352.001z M261.206,354.676c-0.673-0.004-1.217-0.548-1.221-1.221 c0-0.674,0.547-1.221,1.221-1.221c0.674,0,1.221,0.547,1.221,1.221C262.423,354.128,261.879,354.673,261.206,354.676z M261.439,353.576c0.108-0.002,0.211-0.043,0.291-0.116c0.082-0.097,0.124-0.222,0.116-0.349c0.018-0.141-0.051-0.278-0.174-0.349 c0-0.116-0.174-0.174-0.349-0.174h-0.64v1.739h0.233v-0.756h0.291l0.465,0.756h0.291L261.439,353.576z M261.206,353.343h-0.291 v-0.528h0.465c0.058,0,0.058,0,0.116,0.058c0.031-0.001,0.057,0.025,0.058,0.056c0,0.001,0,0.001,0,0.001 c0,0.059,0.058,0.059,0.058,0.117c0.008,0.064-0.014,0.128-0.058,0.174c0,0.058-0.058,0.058-0.116,0.058 c-0.044,0.006-0.085,0.026-0.116,0.058L261.206,353.343z"/>
</svg>