<svg xmlns="http://www.w3.org/2000/svg" width="660px" height="792px" viewBox="0 0 330 396">
	<rect fill="#FBFBFB" width="330" height="396"/>
	<path fill="#999999" d="M273.746,299.242c-10.378-5.565-34.041-12.718-53.256-20.111 c-0.618-1.453-2.8-6.565-3.871-8.815c-2.952-6.182-4.917-7.386-12.807-8c-1.845-6.902-1.685-14.187,0.464-21 c2.752-0.029,5.487-0.43,8.131-1.194c14.163,0.167,42.414-5.981,38.873-34.651c-0.965-7.813-2.5-16.333-3.253-24.186 c-1.033-10.765,0.05-19.93,0.95-31.023c1.878-23.168-2.379-35.953-5.758-47.23c-7.953-26.553-39.792-54.9-73.6-50.644 c-9.924,1.249-18.783,4.256-25.109,8.084c-0.118,0.052-0.241,0.091-0.368,0.116c-1.657-0.6-18.572-6.1-36.557,12.763 c-20.874,21.891-28.328,52.178-26.468,81.547c1.067,16.859-2.695,30.652-4.772,46.964c-3.522,27.644,22.861,34.744,38.323,35.287 c3.141,1.042,6.348,1.872,9.6,2.483c2.676,7.273,3.037,15.196,1.033,22.683c-7.878,0.615-9.844,1.819-12.8,8 c-1.1,2.3-3.349,7.584-3.909,8.9c-19.093,7.51-42.66,15.237-53.043,20.8c-27.8,14.9-33.754,30.894-35.924,95.978h290.163 C307.62,330.916,301.545,314.145,273.746,299.242z M241.899,210.613c8.188,18.087-19.283,26.943-27.686,28.857 c10.233-4.723,21.572-13.2,26.738-30.8c0.323,0.618,0.642,1.262,0.948,1.944V210.613z M86.199,207.104 c0.323-0.693,0.657-1.351,1-1.979c5.242,17.321,15.1,25.956,23.526,30.26c-12.065-3.878-31.606-13.11-24.523-28.281H86.199z"/>
	<path fill="#E8E8E8" d="M202.815,350.821v2.908H197v-11.63h2.907v8.722H202.815z M203.4,342.099v11.63h2.9v-11.63 H203.4z M212.7,345.006v-2.907h-5.815v11.63h2.907v-4.652h2.326v-2.326h-2.325v-1.745H212.7z M219.1,345.006v-2.907h-5.818v11.63 h5.818v-2.908h-2.911v-1.744h2.326v-2.326h-2.326v-1.745H219.1z M248.175,345.006v-2.907h-5.819v11.63h5.815v-2.908h-2.907v-1.744 h2.326v-2.326h-2.326v-1.745H248.175z M220.841,342.099v2.907h1.744v8.723h2.907v-8.723h1.744v-2.907H220.841z M227.819,342.099 v11.63h2.907v-11.63H227.819z M238.867,342.099h-1.453l-0.872,5.815l-0.873-5.815h-4.361v11.63h2.907v-6.4l1.163,6.4h2.322 l1.163-6.4v6.4h2.907v-11.63H238.867z M250.206,342.099c-0.795-0.008-1.446,0.631-1.454,1.426c0,0.009,0,0.019,0,0.028 c0.021,0.803,0.689,1.436,1.492,1.415c0.773-0.02,1.395-0.642,1.415-1.415c0.008-0.795-0.631-1.446-1.426-1.454 C250.224,342.099,250.215,342.099,250.206,342.099z M250.206,344.774c-0.673-0.004-1.217-0.548-1.221-1.221 c0-0.674,0.547-1.221,1.221-1.221c0.674,0,1.221,0.547,1.221,1.221C251.423,344.226,250.879,344.77,250.206,344.774z M250.439,343.674c0.108-0.002,0.211-0.043,0.291-0.116c0.082-0.097,0.124-0.222,0.116-0.349c0.018-0.141-0.051-0.278-0.174-0.349 c0-0.116-0.174-0.174-0.349-0.174h-0.64v1.739h0.233v-0.756h0.291l0.465,0.756h0.291L250.439,343.674z M250.206,343.441h-0.291 v-0.528h0.465c0.058,0,0.058,0,0.116,0.058c0.031-0.001,0.057,0.025,0.058,0.056c0,0.001,0,0.001,0,0.002 c0,0.058,0.058,0.058,0.058,0.116c0.008,0.064-0.014,0.128-0.058,0.174c0,0.058-0.058,0.058-0.116,0.058 c-0.044,0.006-0.085,0.026-0.116,0.058L250.206,343.441z"/>
</svg>