<svg xmlns="http://www.w3.org/2000/svg" width="660px" height="792px" viewBox="0 0 330 396">
	<rect fill="#FBFBFB" width="330" height="396"/>
	<path fill="#999999" d="M109.633,249.022c-0.3,0.578-0.6,1.2-0.908,1.883c-1.088,2.391-3.237,7.651-4.028,9.6 c-0.026,0.065-0.078,0.117-0.143,0.144c-2.684,1.1-55.1,22.67-60.857,25.658l-0.261,0.136c-0.121,0.063-1.5,0.808-1.672,0.9 C11.985,304.072,7.33,322.801,5,395.727c-0.005,0.146,0.109,0.268,0.255,0.273c0.003,0,0.006,0,0.009,0h318.988 c0.146,0,0.265-0.119,0.264-0.266c0-0.002,0-0.005,0-0.007c-2.33-72.926-6.986-91.655-36.765-108.384 c-11.135-6.255-42.55-18.448-63.219-26.8c-0.066-0.026-0.118-0.078-0.144-0.144c-0.822-2.024-2.917-7.15-3.986-9.5 c-1.949-4.276-3.5-6.432-6.373-7.619c-0.035-0.014-0.066-0.036-0.092-0.063l-1.841-1.994c-0.045-0.049-0.07-0.113-0.07-0.179 v-21.472c0-0.052,0.015-0.104,0.044-0.147c1.379-2.061,2.851-4.21,4.511-6.48c3.689-5.041,6.354-15.149,8.228-25.517 c0.021-0.121,0.125-0.211,0.247-0.216c0.604-0.034,1.206-0.108,1.8-0.221c4.384-0.812,7.769-11.084,7.769-11.084 c2.23-7.257,3.651-14.738,4.237-22.307c0,0,0.608-16.961-5.187-16.672c-1.781,0.094-3.553,0.321-5.3,0.679 c-0.142,0.029-0.28-0.062-0.31-0.204c-0.004-0.021-0.006-0.042-0.005-0.063l0.01-0.306c0.015-0.579,0.008-1.146-0.009-1.68 c-0.001-0.014-0.001-0.028,0-0.042c5.783-43.32-0.614-56.115-0.614-56.115s-16.992-37.992-62.684-37.856l0,0c-0.052,0-0.1,0-0.155,0 s-0.1,0-0.156,0l0,0c-45.691-0.135-62.684,37.856-62.684,37.856s-6,12.013-1.118,52.164c0.012,0.107-0.044,0.211-0.141,0.26 c-0.225,0.099-0.39,0.296-0.447,0.535c-0.202,1.616-0.288,3.245-0.258,4.874l0.011,0.33c-1.311-0.219-2.633-0.364-3.961-0.432 c-5.8-0.289-5.189,16.672-5.189,16.672c0.586,7.569,2.007,15.05,4.238,22.307c0,0,3.384,10.272,7.768,11.084 c0.492,0.093,0.989,0.16,1.489,0.2c0.12,0.009,0.218,0.098,0.24,0.216c1.874,10.375,4.54,20.5,8.231,25.539 c1.179,1.612,2.262,3.162,3.286,4.664c0.029,0.044,0.045,0.095,0.045,0.148v23.241c0,0.065-0.024,0.128-0.069,0.177l-3.588,3.943"/>
	<path fill="#E8E8E8" d="M208.815,348.716v2.908H203v-11.63h2.907v8.722H208.815z M209.4,339.994v11.63h2.9v-11.63 H209.4z M218.7,342.901v-2.907h-5.815v11.63h2.907v-4.652h2.326v-2.326h-2.325v-1.745H218.7z M225.1,342.901v-2.907h-5.818v11.63 h5.818v-2.908h-2.911v-1.744h2.326v-2.326h-2.326v-1.745H225.1z M254.175,342.901v-2.907h-5.819v11.63h5.815v-2.908h-2.907v-1.744 h2.326v-2.326h-2.326v-1.745H254.175z M226.841,339.994v2.907h1.744v8.723h2.907v-8.723h1.744v-2.907H226.841z M233.819,339.994 v11.63h2.907v-11.63H233.819z M244.867,339.994h-1.453l-0.872,5.815l-0.873-5.815h-4.361v11.63h2.907v-6.4l1.163,6.4h2.322 l1.163-6.4v6.4h2.907v-11.63H244.867z M256.206,339.994c-0.795-0.008-1.446,0.631-1.454,1.426c0,0.009,0,0.019,0,0.028 c0.021,0.803,0.689,1.436,1.492,1.415c0.773-0.02,1.395-0.642,1.415-1.415c0.008-0.795-0.631-1.446-1.426-1.454 C256.224,339.994,256.215,339.994,256.206,339.994z M256.206,342.669c-0.673-0.004-1.217-0.548-1.221-1.221 c0-0.674,0.547-1.221,1.221-1.221c0.674,0,1.221,0.547,1.221,1.221C257.423,342.121,256.879,342.665,256.206,342.669z M256.439,341.569c0.108-0.002,0.211-0.043,0.291-0.116c0.082-0.097,0.124-0.222,0.116-0.349c0.018-0.141-0.051-0.278-0.174-0.349 c0-0.116-0.174-0.174-0.349-0.174h-0.64v1.739h0.233v-0.756h0.291l0.465,0.756h0.291L256.439,341.569z M256.206,341.336h-0.291 v-0.528h0.465c0.058,0,0.058,0,0.116,0.058c0.031-0.001,0.057,0.025,0.058,0.056c0,0.001,0,0.001,0,0.002 c0,0.058,0.058,0.058,0.058,0.116c0.008,0.064-0.014,0.128-0.058,0.174c0,0.058-0.058,0.058-0.116,0.058 c-0.044,0.006-0.085,0.026-0.116,0.058L256.206,341.336z"/>
</svg>