<svg xmlns="http://www.w3.org/2000/svg" width="660px" height="792px" viewBox="0 0 330 396">
	<rect fill="#FBFBFB" width="330" height="396"/>
	<path fill="#999999" d="M321.28,341.788c-4.937-27.463-14.78-37.967-34.324-48.471 c-10.084-5.419-54.953-25.21-54.953-25.21s-2.985-6.687-4.336-9.37c-3.187-6.327-6.145-7.53-14.739-8.153 c-1.37-8.453-0.776-16.808-0.009-23.534c2.352-4.088,3.9-7.727,4.234-10.324c0.46-3.638,1.337-16.819,1.337-16.819 c0.841,0.968,2.059,1.527,3.342,1.533c5.387-0.215,5.145-5.685,6.96-9.482c3.595-7.824,5.562-16.298,5.78-24.906 c0-9.726,1.582-18.832-3.2-17.7c3.262-11.8,6.187-24.342,7.238-34c0.87-7.99-0.348-19.621-5.953-34.2 c-8.685-22.6-18.06-17.3-18.06-17.3s-3.575-16.766-39.4-19.112c-3.953-0.259-8.443,1.626-12.253-8.608 c-1.417-3.8-4.1-16.672-4.1-16.672l-6.692,24.488l2.3-27.259c0,0-17.845,3.928-33.408,25.242 c-9.964,13.645-6.979,26.793-6.979,26.793l-5.33-23.04c0,0-4.036,12.724-4.395,17.055c-0.88,10.574,1.11,15.7,1.11,15.7 s-4.541,0.841-9.863,8.188c-4.248,5.863-4.177,19.27-4.177,19.27l6.747-10.057c0.438-0.748,0.921-1.469,1.447-2.158l-1.447,2.158 c-3.927,6.612-5.565,14.334-4.659,21.97c1.008,8.328,3.7,20.587,6.651,32.388c-7.182-4.112-5.359,5.987-5.359,16.86 c0,9.2,3.5,19.209,6.226,24.906c1.814,3.8,1.777,9.267,7.164,9.482c1.283-0.006,2.501-0.564,3.343-1.533 c0,0,0.876,13.181,1.338,16.819c0.623,3.096,1.761,6.066,3.367,8.786c0.187,0.357,0.4,0.737,0.634,1.136 c0.189,1.633,0.371,3.365,0.518,5.176c0.064,0.958,0.126,2.008,0.185,3.173c0.011,0.029,0.022,0.057,0.032,0.086 c0.314,5.183,0.079,10.384-0.7,15.518c-8.4,0.628-10.1,1.864-13.258,8.136c-1.351,2.683-4.335,9.37-4.335,9.37 s-46.337,19.878-56.258,25.21c-17.817,9.575-27.573,19.152-32.9,41.578c-3.109,13.1-4.709,36.615-5.521,61.033l160.466,0.071 l160.285-0.071C324.698,375.562,323.472,353.988,321.28,341.788z"/>
	<path fill="#E8E8E8" d="M210.815,350.821v2.908H205v-11.63h2.907v8.722H210.815z M211.4,342.099v11.63h2.9v-11.63 H211.4z M220.7,345.006v-2.907h-5.815v11.63h2.907v-4.652h2.326v-2.326h-2.325v-1.745H220.7z M227.1,345.006v-2.907h-5.818v11.63 h5.818v-2.908h-2.911v-1.744h2.326v-2.326h-2.326v-1.745H227.1z M256.175,345.006v-2.907h-5.819v11.63h5.815v-2.908h-2.907v-1.744 h2.326v-2.326h-2.326v-1.745H256.175z M228.841,342.099v2.907h1.744v8.723h2.907v-8.723h1.744v-2.907H228.841z M235.819,342.099 v11.63h2.907v-11.63H235.819z M246.867,342.099h-1.453l-0.872,5.815l-0.873-5.815h-4.361v11.63h2.907v-6.4l1.163,6.4h2.322 l1.163-6.4v6.4h2.907v-11.63H246.867z M258.206,342.099c-0.795-0.008-1.446,0.631-1.454,1.426c0,0.009,0,0.019,0,0.028 c0.021,0.803,0.689,1.436,1.492,1.415c0.773-0.02,1.395-0.642,1.415-1.415c0.008-0.795-0.631-1.446-1.426-1.454 C258.224,342.099,258.215,342.099,258.206,342.099z M258.206,344.774c-0.673-0.004-1.217-0.548-1.221-1.221 c0-0.674,0.547-1.221,1.221-1.221c0.674,0,1.221,0.547,1.221,1.221C259.423,344.226,258.879,344.77,258.206,344.774z M258.439,343.674c0.108-0.002,0.211-0.043,0.291-0.116c0.082-0.097,0.124-0.222,0.116-0.349c0.018-0.141-0.051-0.278-0.174-0.349 c0-0.116-0.174-0.174-0.349-0.174h-0.64v1.739h0.233v-0.756h0.291l0.465,0.756h0.291L258.439,343.674z M258.206,343.441h-0.291 v-0.528h0.465c0.058,0,0.058,0,0.116,0.058c0.031-0.001,0.057,0.025,0.058,0.056c0,0.001,0,0.001,0,0.002 c0,0.058,0.058,0.058,0.058,0.116c0.008,0.064-0.014,0.128-0.058,0.174c0,0.058-0.058,0.058-0.116,0.058 c-0.044,0.006-0.085,0.026-0.116,0.058L258.206,343.441z"/>
</svg>