<svg xmlns="http://www.w3.org/2000/svg" width="660px" height="792px" viewBox="0 0 330 396">
	<rect fill="#FBFBFB" width="330" height="396"/>
	<path fill="#999999" d="M278.038,293.958c-12.605-6.605-23.939-8.905-48.02-17.942c-1-2.288-3.141-7.182-4.264-9.49 c-3.522-7.228-6.106-8.608-15.585-9.322c-1.738-6.698-1.548-13.751,0.549-20.346c0.739-0.915,1.453-1.813,2.126-2.679l2.848-4.209 c4-5.357,7.058-30.195,7.376-30.316c1.017-0.389,7.927-1.986,8.665-3.781c0.354-0.86,8.609-20.652,8.981-22.238 c0.057-0.242,0.114-0.483,0.171-0.726c0.163-0.681,0.333-1.361,0.5-2.041c0.605-2.231,1.078-4.497,1.416-6.784 c0.531-4.16-0.584-8.134-2.025-11.849l4.063,2.931c0,0-2.6-46.632-7.275-59.506c-2.109-5.976-4.942-11.671-8.436-16.958l8.807,7.761 c0,0-9.857-17.146-21.953-26.69c-3.3-2.6-6.1-6.292-9.083-7.6l4.4,0.348c0,0-12.665-9.189-38.1-11.946 c-11.624-1.26-29.316-1.658-42.707,5.355c-3.748,2.106-6.616,5.487-8.084,9.528c-6.065,0.964-11.753,3.56-16.457,7.507 c-8.95,7.8-17.505,23.5-17.505,23.5l8.946-7.218c0,0-6,6.529-9.767,19.522c-3.58,12.343-4.593,55.709-4.593,55.709l4.409-3.713 c-0.014,0.03-0.03,0.06-0.042,0.088c-1.685,4.1-3.162,8.532-2.566,13.2c0.339,2.291,0.813,4.559,1.419,6.794 c0.17,0.677,0.339,1.354,0.5,2.031c0.058,0.241,8.8,22.1,9.152,22.964c0.737,1.794,7.647,3.39,8.666,3.78 c0.318,0.122,3.349,24.928,7.086,30.13c1.136,1.582,1.981,2.688,3.943,5.21c0.462,0.594,0.929,1.188,1.4,1.782 c2.008,6.809,2.9,14.86,0.447,20.458c-9.51,0.712-11.85,2.088-15.376,9.324c-1.269,2.6-3.838,8.5-4.587,10.23 c-23.275,8.644-34.106,10.751-46.415,17.2C17.968,311.3,8.585,320.256,6.002,396h317.1 C320.521,320.254,311.141,311.302,278.038,293.958z"/>
	<path fill="#E8E8E8" d="M202.815,354.908v2.908H197v-11.63h2.907v8.722H202.815z M203.4,346.186v11.63h2.9v-11.63 H203.4z M212.7,349.093v-2.907h-5.815v11.63h2.907v-4.652h2.326v-2.326h-2.325v-1.745H212.7z M219.1,349.093v-2.907h-5.818v11.63 h5.818v-2.908h-2.911v-1.744h2.326v-2.326h-2.326v-1.745H219.1z M248.175,349.093v-2.907h-5.819v11.63h5.815v-2.908h-2.907v-1.744 h2.326v-2.326h-2.326v-1.745H248.175z M220.841,346.186v2.907h1.744v8.723h2.907v-8.723h1.744v-2.907H220.841z M227.819,346.186 v11.63h2.907v-11.63H227.819z M238.867,346.186h-1.453l-0.872,5.815l-0.873-5.815h-4.361v11.63h2.907v-6.4l1.163,6.4h2.322 l1.163-6.4v6.4h2.907v-11.63H238.867z M250.206,346.186c-0.795-0.008-1.446,0.631-1.454,1.426c0,0.009,0,0.019,0,0.028 c0.021,0.803,0.689,1.436,1.492,1.415c0.773-0.02,1.395-0.642,1.415-1.415c0.008-0.795-0.631-1.446-1.426-1.454 C250.224,346.186,250.215,346.186,250.206,346.186z M250.206,348.861c-0.673-0.004-1.217-0.548-1.221-1.221 c0-0.674,0.547-1.221,1.221-1.221c0.674,0,1.221,0.547,1.221,1.221C251.423,348.312,250.879,348.857,250.206,348.861z M250.439,347.761c0.108-0.002,0.211-0.043,0.291-0.116c0.082-0.097,0.124-0.222,0.116-0.349c0.018-0.141-0.051-0.278-0.174-0.349 c0-0.116-0.174-0.174-0.349-0.174h-0.64v1.739h0.233v-0.756h0.291l0.465,0.756h0.291L250.439,347.761z M250.206,347.528h-0.291V347 h0.465c0.058,0,0.058,0,0.116,0.058c0.031-0.001,0.057,0.025,0.058,0.056c0,0,0,0.001,0,0.002c0,0.058,0.058,0.058,0.058,0.116 c0.008,0.064-0.014,0.128-0.058,0.174c0,0.058-0.058,0.058-0.116,0.058c-0.044,0.006-0.085,0.026-0.116,0.058L250.206,347.528z"/>
</svg>