<svg xmlns="http://www.w3.org/2000/svg" xmlns:xlink="http://www.w3.org/1999/xlink"><symbol class="bi bi-location" viewBox="0 0 16 16" id="location"><path d="M8 9.5c-1.24 0-2.25-1.01-2.25-2.25S6.76 5 8 5s2.25 1.01 2.25 2.25S9.24 9.5 8 9.5M8 6a1.25 1.25 0 1 0 0 2.5A1.25 1.25 0 0 0 8 6m0 8.5-3.62-3.62c-2-2-2-5.25 0-7.25s5.25-2 7.25 0 2 5.25 0 7.25L8.01 14.5ZM8 3.13c-1.06 0-2.11.4-2.92 1.21S3.87 6.15 3.87 7.26s.43 2.14 1.21 2.92L8 13.1l2.92-2.92c1.61-1.61 1.61-4.23 0-5.83-.8-.8-1.86-1.21-2.92-1.21Z"/></symbol><symbol class="bi bi-yin-yang" viewBox="0 0 16 16" id="yin-yang"><path d="M9.167 4.5a1.167 1.167 0 1 1-2.334 0 1.167 1.167 0 0 1 2.334 0"/><path d="M8 0a8 8 0 1 0 0 16A8 8 0 0 0 8 0M1 8a7 7 0 0 1 7-7 3.5 3.5 0 1 1 0 7 3.5 3.5 0 1 0 0 7 7 7 0 0 1-7-7m7 4.667a1.167 1.167 0 1 1 0-2.334 1.167 1.167 0 0 1 0 2.334"/></symbol></svg>