<svg xmlns="http://www.w3.org/2000/svg" xmlns:xlink="http://www.w3.org/1999/xlink"><symbol class="lti lti-arrow-down" viewBox="0 0 16 16" id="arrow-down"><path d="m15.17 8.03-.7-.7-5.87 5.86V.9h-1v12.29L1.74 7.33l-.71.7L8.1 15.1z"/></symbol><symbol class="lti lti-arrow-left" viewBox="0 0 16 16" id="arrow-left"><path d="m8.07 15.07.71-.71L2.91 8.5h12.3v-1H2.91l5.87-5.86-.71-.71L1 8z"/></symbol><symbol class="lti lti-arrow-lowerleft" viewBox="0 0 16 16" id="arrow-lowerleft"><path d="M13.08 13.37v-1H4.79l8.68-8.68-.71-.71-8.68 8.69V3.38h-1v10h10Z"/></symbol><symbol class="lti lti-arrow-lowerright" viewBox="0 0 16 16" id="arrow-lowerright"><path d="M13.47 3.38h-1v8.29L3.79 2.98l-.71.71 8.69 8.69H3.48v1h10v-10Z"/></symbol><symbol class="lti lti-arrow-right" viewBox="0 0 16 16" id="arrow-right"><path d="m8.14.93-.71.71 5.86 5.86H1v1h12.29l-5.86 5.86.71.71L15.21 8z"/></symbol><symbol class="lti lti-arrow-up" viewBox="0 0 16 16" id="arrow-up"><path d="m1.03 7.97.71.7L7.6 2.81V15.1h1V2.81l5.87 5.86.7-.7L8.1.9z"/></symbol><symbol class="lti lti-arrow-upperleft" viewBox="0 0 16 16" id="arrow-upperleft"><path d="M3.08 12.98h1V4.69l8.69 8.69.71-.71-8.7-8.69h8.29v-1h-10v10Z"/></symbol><symbol class="lti lti-arrow-upperright" viewBox="0 0 16 16" id="arrow-upperright"><path d="M3.48 2.98v1h8.29l-8.69 8.69.71.71 8.69-8.7v8.29h1v-10h-10Z"/></symbol><symbol class="lti lti-bar-chart" viewBox="0 0 16 16" id="bar-chart"><path d="M13.5 0h-2.33c-.83 0-1.5.67-1.5 1.5v3.43c-.16-.06-.32-.09-.5-.09H6.84c-.83 0-1.5.67-1.5 1.5v2.59c-.16-.06-.32-.09-.5-.09H2.51c-.83 0-1.5.67-1.5 1.5v2.67c0 1.65 1.35 3 3 3h8c1.65 0 3-1.35 3-3V1.5c0-.83-.67-1.5-1.5-1.5ZM5.33 15H4c-1.1 0-2-.9-2-2v-2.67c0-.28.22-.5.5-.5h2.33c.28 0 .5.22.5.5zm1-4.67v-4c0-.28.22-.5.5-.5h2.33c.28 0 .5.22.5.5V15H6.33zM12 15h-1.33V1.5c0-.28.22-.5.5-.5h2.33c.28 0 .5.22.5.5V13c0 1.1-.9 2-2 2"/></symbol><symbol class="lti lti-bar-chart-fill" viewBox="0 0 16 16" id="bar-chart-fill"><path d="M5 10.83c0-1.1-.83-2-1.85-2h-.3c-1.02 0-1.85.9-1.85 2V13c0 1.65 1.35 3 3 3h1zm5-4c0-1.1-.83-2-1.85-2h-.3c-1.02 0-1.85.9-1.85 2V16h4zM13.15 0h-.3C11.83 0 11 .9 11 2v14h1c1.65 0 3-1.35 3-3V2c0-1.1-.83-2-1.85-2"/></symbol><symbol class="lti lti-bookmark" viewBox="0 0 16 16" id="bookmark"><path d="M10.5 0h-5C3.41 0 2 1.42 2 3.54V16l6-4.77L14 16V3.54C14 1.42 12.59 0 10.5 0M3 13.93V3.54C3 2.31 3.66 1 5.5 1h5C12.34 1 13 2.31 13 3.54v10.38L8 9.94l-5 3.98Z"/></symbol><symbol class="lti lti-bookmark-fill" viewBox="0 0 16 16" id="bookmark-fill"><path d="M10.5 0h-5C3.41 0 2 1.42 2 3.54V16l6-4.77L14 16V3.54C14 1.42 12.59 0 10.5 0"/></symbol><symbol class="lti lti-calendar" viewBox="0 0 16 16" id="calendar"><path d="M13 2h-1V0h-1v2H5V0H4v2H3C1.35 2 0 3.35 0 5v8c0 1.65 1.35 3 3 3h10c1.65 0 3-1.35 3-3V5c0-1.65-1.35-3-3-3m2 11c0 1.1-.9 2-2 2H3c-1.1 0-2-.9-2-2V7h14zM1 6V5c0-1.1.9-2 2-2h10c1.1 0 2 .9 2 2v1z"/></symbol><symbol class="lti lti-calendar-check" viewBox="0 0 16 16" id="calendar-check"><path d="M13 2h-1V0h-1v2H5V0H4v2H3C1.35 2 0 3.35 0 5v8c0 1.65 1.35 3 3 3h10c1.65 0 3-1.35 3-3V5c0-1.65-1.35-3-3-3m2 11c0 1.1-.9 2-2 2H3c-1.1 0-2-.9-2-2V7h14zM1 6V5c0-1.1.9-2 2-2h10c1.1 0 2 .9 2 2v1zm6.29 6.81-2.2-2.2.71-.71 1.49 1.49 2.91-2.91.71.71z"/></symbol><symbol class="lti lti-calendar-check-fill" viewBox="0 0 16 16" id="calendar-check-fill"><path d="M0 13c0 1.65 1.35 3 3 3h10c1.65 0 3-1.35 3-3V7H0zm5.8-3.09 1.49 1.49 2.91-2.91.71.71-3.62 3.62-2.2-2.2zM13 2h-1V0h-1v2H5V0H4v2H3C1.35 2 0 3.35 0 5v1h16V5c0-1.65-1.35-3-3-3"/></symbol><symbol class="lti lti-calendar-fill" viewBox="0 0 16 16" id="calendar-fill"><path d="M13 2h-1V0h-1v2H5V0H4v2H3C1.35 2 0 3.35 0 5v1h16V5c0-1.65-1.35-3-3-3M0 13c0 1.65 1.35 3 3 3h10c1.65 0 3-1.35 3-3V7H0z"/></symbol><symbol class="lti lti-calendar-x" viewBox="0 0 16 16" id="calendar-x"><path d="M13 2h-1V0h-1v2H5V0H4v2H3C1.35 2 0 3.35 0 5v8c0 1.65 1.35 3 3 3h10c1.65 0 3-1.35 3-3V5c0-1.65-1.35-3-3-3m2 11c0 1.1-.9 2-2 2H3c-1.1 0-2-.9-2-2V7h14zM1 6V5c0-1.1.9-2 2-2h10c1.1 0 2 .9 2 2v1zm7.71 4.95 1.58 1.6-.71.71-1.59-1.6-1.6 1.58-.7-.71 1.6-1.58-1.59-1.6.71-.71L8 10.24l1.6-1.58.71.71-1.6 1.59Z"/></symbol><symbol class="lti lti-calendar-x-fill" viewBox="0 0 16 16" id="calendar-x-fill"><path d="M0 13c0 1.65 1.35 3 3 3h10c1.65 0 3-1.35 3-3V7H0zm5.71-3.65.71-.71 1.59 1.6 1.6-1.58.71.71-1.6 1.59 1.58 1.6-.71.71L8 11.67l-1.6 1.58-.7-.71 1.6-1.58-1.59-1.6ZM13 2h-1V0h-1v2H5V0H4v2H3C1.35 2 0 3.35 0 5v1h16V5c0-1.65-1.35-3-3-3"/></symbol><symbol class="lti lti-card" viewBox="0 0 16 16" id="card"><path d="M13 14H3c-1.65 0-3-1.35-3-3V5c0-1.65 1.35-3 3-3h10c1.65 0 3 1.35 3 3v6c0 1.65-1.35 3-3 3M3 3c-1.1 0-2 .9-2 2v6c0 1.1.9 2 2 2h10c1.1 0 2-.9 2-2V5c0-1.1-.9-2-2-2zm2.5 2H3v2.5h2.5zM9 5H6.5v2.5H9zM3 8.5h2.5V11H3zM8 9c0-.28.22-.5.5-.5s.5.22.5.5-.22.5-.5.5S8 9.28 8 9M6.5 9c0-.28.22-.5.5-.5s.5.22.5.5-.22.5-.5.5-.5-.22-.5-.5M8 10.5c0-.28.22-.5.5-.5s.5.22.5.5-.22.5-.5.5-.5-.22-.5-.5m-1.5 0c0-.28.22-.5.5-.5s.5.22.5.5-.22.5-.5.5-.5-.22-.5-.5"/></symbol><symbol class="lti lti-card-fill" viewBox="0 0 16 16" id="card-fill"><path d="M13 2H3C1.35 2 0 3.35 0 5v6c0 1.65 1.35 3 3 3h10c1.65 0 3-1.35 3-3V5c0-1.65-1.35-3-3-3m-7.5 9H3V8.5h2.5zm0-3.5H3V5h2.5zM7 11c-.28 0-.5-.22-.5-.5s.22-.5.5-.5.5.22.5.5-.22.5-.5.5m0-1.5c-.28 0-.5-.22-.5-.5s.22-.5.5-.5.5.22.5.5-.22.5-.5.5M8.5 11c-.28 0-.5-.22-.5-.5s.22-.5.5-.5.5.22.5.5-.22.5-.5.5m0-1.5c-.28 0-.5-.22-.5-.5s.22-.5.5-.5.5.22.5.5-.22.5-.5.5m.5-2H6.5V5H9z"/></symbol><symbol class="lti lti-check" viewBox="0 0 16 16" id="check"><path fill-rule="evenodd" d="M14 4.74 6.46 12 2 7.7l.74-.74 3.72 3.59L13.26 4z"/></symbol><symbol class="lti lti-chevron-down" viewBox="0 0 16 16" id="chevron-down"><path d="M1.85 4.22 8 10.37l6.15-6.15.7.71L8 11.78 1.15 4.93z"/></symbol><symbol class="lti lti-chevron-left" viewBox="0 0 16 16" id="chevron-left"><path d="M11.78 1.85 5.63 8l6.15 6.15-.71.7L4.22 8l6.85-6.85z"/></symbol><symbol class="lti lti-chevron-right" viewBox="0 0 16 16" id="chevron-right"><path d="M4.22 14.15 10.37 8 4.22 1.85l.71-.7L11.78 8l-6.85 6.85z"/></symbol><symbol class="lti lti-chevron-up" viewBox="0 0 16 16" id="chevron-up"><path d="M14.15 11.78 8 5.63l-6.15 6.15-.7-.71L8 4.22l6.85 6.85z"/></symbol><symbol class="lti lti-clipboard" viewBox="0 0 16 16" id="clipboard"><path d="M12 1h-1.09c-.21-.58-.76-1-1.41-1h-3c-.65 0-1.2.42-1.41 1H4C2.35 1 1 2.35 1 4v9c0 1.65 1.35 3 3 3h8c1.65 0 3-1.35 3-3V4c0-1.65-1.35-3-3-3M6.5 1h3c.28 0 .5.22.5.5s-.22.5-.5.5h-3c-.28 0-.5-.22-.5-.5s.22-.5.5-.5M14 13c0 1.1-.9 2-2 2H4c-1.1 0-2-.9-2-2V4c0-1.1.9-2 2-2h1.09c.21.58.76 1 1.41 1h3c.65 0 1.2-.42 1.41-1H12c1.1 0 2 .9 2 2z"/></symbol><symbol class="lti lti-clipboard-data" viewBox="0 0 16 16" id="clipboard-data"><path d="M12 1h-1.09c-.21-.58-.76-1-1.41-1h-3c-.65 0-1.2.42-1.41 1H4C2.35 1 1 2.35 1 4v9c0 1.65 1.35 3 3 3h8c1.65 0 3-1.35 3-3V4c0-1.65-1.35-3-3-3M6.5 1h3c.28 0 .5.22.5.5s-.22.5-.5.5h-3c-.28 0-.5-.22-.5-.5s.22-.5.5-.5M14 13c0 1.1-.9 2-2 2H4c-1.1 0-2-.9-2-2V4c0-1.1.9-2 2-2h1.09c.21.58.76 1 1.41 1h3c.65 0 1.2-.42 1.41-1H12c1.1 0 2 .9 2 2zm-1.75-2.5h-8.5c-.28 0-.5-.22-.5-.5s.22-.5.5-.5h8.5c.28 0 .5.22.5.5s-.22.5-.5.5m-3 2.5h-5.5c-.28 0-.5-.22-.5-.5s.22-.5.5-.5h5.5c.28 0 .5.22.5.5s-.22.5-.5.5m3.5-7.89c0 .55-.45 1-1 1-.18 0-.35-.06-.49-.15L9 7.23c0 .55-.45.99-1 .99-.47 0-.84-.33-.95-.76l-2.11-.62c-.18.17-.42.28-.68.28-.55 0-1-.45-1-1s.45-1 1-1c.47 0 .84.33.95.76l2.11.62c.18-.17.42-.28.68-.28.18 0 .35.06.49.15l2.26-1.27c0-.55.45-.99 1-.99s1 .45 1 1"/></symbol><symbol class="lti lti-court" viewBox="0 0 16 16" id="court"><path d="M13 3H3C1.63 3 0 4.63 0 6v4c0 1.37 1.63 3 3 3h10c1.37 0 3-1.63 3-3V6c0-1.37-1.63-3-3-3M3 4h1v3.5H1V6c0-.82 1.18-2 2-2m0 8c-.82 0-2-1.18-2-2V8.5h3V12zm4.5 0H5V4h2.5zm3.5 0H8.5V4H11zm4-2c0 .82-1.18 2-2 2h-1V8.5h3zm0-2.5h-3V4h1c.82 0 2 1.18 2 2z"/></symbol><symbol class="lti lti-download" viewBox="0 0 16 16" id="download"><path d="M14.5 14v1h-13v-1zm-1.4-7.9-.71-.71-3.9 3.9V1h-1v8.29l-3.9-3.9-.71.71 5.1 5.1 5.1-5.1Z"/></symbol><symbol class="lti lti-facebook" viewBox="0 0 16 16" id="facebook"><path d="M16 8.049c0-4.446-3.582-8.05-8-8.05C3.58 0-.002 3.603-.002 8.05c0 4.017 2.926 7.347 6.75 7.951v-5.625h-2.03V8.05H6.75V6.275c0-2.017 1.195-3.131 3.022-3.131.876 0 1.791.157 1.791.157v1.98h-1.009c-.993 0-1.303.621-1.303 1.258v1.51h2.218l-.354 2.326H9.25V16c3.824-.604 6.75-3.934 6.75-7.951"/></symbol><symbol class="lti lti-heart" viewBox="0 0 16 16" id="heart"><path d="M8 14.16 1.28 7.44c-1.7-1.7-1.7-4.47 0-6.16 1.69-1.7 4.46-1.7 6.16 0l.56.56.56-.56c1.7-1.7 4.46-1.7 6.16 0C15.54 2.1 16 3.2 16 4.36s-.45 2.26-1.28 3.08zM4.36 1c-.86 0-1.72.33-2.37.98a3.36 3.36 0 0 0 0 4.75l6.02 6.02 6.02-6.02c.63-.63.98-1.48.98-2.37s-.35-1.74-.98-2.37c-1.27-1.27-3.48-1.27-4.75 0L8.01 3.26 6.74 1.99c-.65-.65-1.51-.98-2.37-.98Z"/></symbol><symbol class="lti lti-heart-fill" viewBox="0 0 16 16" id="heart-fill"><path d="M8 14.16 1.28 7.44c-1.7-1.7-1.7-4.47 0-6.16 1.69-1.7 4.46-1.7 6.16 0l.56.56.56-.56c1.7-1.7 4.46-1.7 6.16 0C15.54 2.1 16 3.2 16 4.36s-.45 2.26-1.28 3.08z"/></symbol><symbol class="lti lti-home" viewBox="0 0 16 16" id="home"><path d="M13 16H3c-1.65 0-3-1.35-3-3V8c0-.8.31-1.55.88-2.12l5-5c1.13-1.13 3.11-1.13 4.24 0l5 5c.57.57.88 1.32.88 2.12v5c0 1.65-1.35 3-3 3M8 1c-.53 0-1.04.21-1.41.59l-5 5C1.21 6.97 1 7.47 1 8v5c0 1.1.9 2 2 2h10c1.1 0 2-.9 2-2V8c0-.53-.21-1.04-.59-1.41l-5-5C9.03 1.21 8.53 1 8 1"/></symbol><symbol class="lti lti-home-fill" viewBox="0 0 16 16" id="home-fill"><path d="M13 16H3c-1.65 0-3-1.35-3-3V8c0-.8.31-1.55.88-2.12l5-5c1.13-1.13 3.11-1.13 4.24 0l5 5c.57.57.88 1.32.88 2.12v5c0 1.65-1.35 3-3 3"/></symbol><symbol class="lti lti-instagram" viewBox="0 0 16 16" id="instagram"><path d="M8 0C5.829 0 5.556.01 4.703.048 3.85.088 3.269.222 2.76.42a3.9 3.9 0 0 0-1.417.923A3.9 3.9 0 0 0 .42 2.76C.222 3.268.087 3.85.048 4.7.01 5.555 0 5.827 0 8.001c0 2.172.01 2.444.048 3.297.04.852.174 1.433.372 1.942.205.526.478.972.923 1.417.444.445.89.719 1.416.923.51.198 1.09.333 1.942.372C5.555 15.99 5.827 16 8 16s2.444-.01 3.298-.048c.851-.04 1.434-.174 1.943-.372a3.9 3.9 0 0 0 1.416-.923c.445-.445.718-.891.923-1.417.197-.509.332-1.09.372-1.942C15.99 10.445 16 10.173 16 8s-.01-2.445-.048-3.299c-.04-.851-.175-1.433-.372-1.941a3.9 3.9 0 0 0-.923-1.417A3.9 3.9 0 0 0 13.24.42c-.51-.198-1.092-.333-1.943-.372C10.443.01 10.172 0 7.998 0zm-.717 1.442h.718c2.136 0 2.389.007 3.232.046.78.035 1.204.166 1.486.275.373.145.64.319.92.599s.453.546.598.92c.11.281.24.705.275 1.485.039.843.047 1.096.047 3.231s-.008 2.389-.047 3.232c-.035.78-.166 1.203-.275 1.485a2.5 2.5 0 0 1-.599.919c-.28.28-.546.453-.92.598-.28.11-.704.24-1.485.276-.843.038-1.096.047-3.232.047s-2.39-.009-3.233-.047c-.78-.036-1.203-.166-1.485-.276a2.5 2.5 0 0 1-.92-.598 2.5 2.5 0 0 1-.6-.92c-.109-.281-.24-.705-.275-1.485-.038-.843-.046-1.096-.046-3.233s.008-2.388.046-3.231c.036-.78.166-1.204.276-1.486.145-.373.319-.64.599-.92s.546-.453.92-.598c.282-.11.705-.24 1.485-.276.738-.034 1.024-.044 2.515-.045zm4.988 1.328a.96.96 0 1 0 0 1.92.96.96 0 0 0 0-1.92m-4.27 1.122a4.109 4.109 0 1 0 0 8.217 4.109 4.109 0 0 0 0-8.217m0 1.441a2.667 2.667 0 1 1 0 5.334 2.667 2.667 0 0 1 0-5.334"/></symbol><symbol class="lti lti-laic" viewBox="0 0 16 16" id="laic"><path d="M4.5 8c0 1.24-1.01 2.25-2.25 2.25S0 9.24 0 8s1.01-2.25 2.25-2.25S4.5 6.76 4.5 8m9.25-2.25c-1.24 0-2.25 1.01-2.25 2.25s1.01 2.25 2.25 2.25S16 9.24 16 8s-1.01-2.25-2.25-2.25m-8.62-5C3.89.75 2.88 1.76 2.88 3s1.01 2.25 2.25 2.25S7.38 4.24 7.38 3 6.37.75 5.13.75m0 10c-1.24 0-2.25 1.01-2.25 2.25s1.01 2.25 2.25 2.25S7.38 14.24 7.38 13s-1.01-2.25-2.25-2.25m5.74-10C9.63.75 8.62 1.76 8.62 3s1.01 2.25 2.25 2.25S13.12 4.24 13.12 3 12.11.75 10.87.75m0 10c-1.24 0-2.25 1.01-2.25 2.25s1.01 2.25 2.25 2.25 2.25-1.01 2.25-2.25-1.01-2.25-2.25-2.25"/></symbol><symbol class="lti lti-laic-circle" viewBox="0 0 16 16" id="laic-circle"><path d="M8 16c-4.41 0-8-3.59-8-8s3.59-8 8-8 8 3.59 8 8-3.59 8-8 8M8 1C4.14 1 1 4.14 1 8s3.14 7 7 7 7-3.14 7-7-3.14-7-7-7m3.75 5.5c-.83 0-1.5.67-1.5 1.5s.67 1.5 1.5 1.5 1.5-.67 1.5-1.5-.67-1.5-1.5-1.5M9.88 9.75c-.83 0-1.5.67-1.5 1.5s.67 1.5 1.5 1.5 1.5-.67 1.5-1.5-.67-1.5-1.5-1.5m-3.75 0c-.83 0-1.5.67-1.5 1.5s.67 1.5 1.5 1.5 1.5-.67 1.5-1.5-.67-1.5-1.5-1.5M4.25 6.5c-.83 0-1.5.67-1.5 1.5s.67 1.5 1.5 1.5 1.5-.67 1.5-1.5-.67-1.5-1.5-1.5m5.63-3.25c-.83 0-1.5.67-1.5 1.5s.67 1.5 1.5 1.5 1.5-.67 1.5-1.5-.67-1.5-1.5-1.5m-3.75 0c-.83 0-1.5.67-1.5 1.5s.67 1.5 1.5 1.5 1.5-.67 1.5-1.5-.67-1.5-1.5-1.5"/></symbol><symbol class="lti lti-laic-circle-fill" viewBox="0 0 16 16" id="laic-circle-fill"><path d="M8 0C3.59 0 0 3.59 0 8s3.59 8 8 8 8-3.59 8-8-3.59-8-8-8M2.75 8c0-.83.67-1.5 1.5-1.5s1.5.67 1.5 1.5-.67 1.5-1.5 1.5-1.5-.67-1.5-1.5m3.37 4.75c-.83 0-1.5-.67-1.5-1.5s.67-1.5 1.5-1.5 1.5.67 1.5 1.5-.67 1.5-1.5 1.5m0-6.5c-.83 0-1.5-.67-1.5-1.5s.67-1.5 1.5-1.5 1.5.67 1.5 1.5-.67 1.5-1.5 1.5m3.76-3c.83 0 1.5.67 1.5 1.5s-.67 1.5-1.5 1.5-1.5-.67-1.5-1.5.67-1.5 1.5-1.5m0 9.5c-.83 0-1.5-.67-1.5-1.5s.67-1.5 1.5-1.5 1.5.67 1.5 1.5-.67 1.5-1.5 1.5m1.87-3.25c-.83 0-1.5-.67-1.5-1.5s.67-1.5 1.5-1.5 1.5.67 1.5 1.5-.67 1.5-1.5 1.5"/></symbol><symbol class="lti lti-list" viewBox="0 0 16 16" id="list"><path d="M13 4.5H3v-1h10zm0 3H3v1h10zm0 4H3v1h10z"/></symbol><symbol class="lti lti-location" viewBox="0 0 16 16" id="location"><path d="M8 9.33c-1.56 0-2.83-1.27-2.83-2.83S6.44 3.67 8 3.67s2.83 1.27 2.83 2.83S9.56 9.33 8 9.33m0-4.66a1.83 1.83 0 1 0 .002 3.662A1.83 1.83 0 0 0 8 4.67m0 11.02-4.6-4.6c-1.23-1.23-1.9-2.86-1.9-4.6s.68-3.37 1.9-4.6S6.26-.01 8-.01s3.37.68 4.6 1.9 1.9 2.86 1.9 4.6-.68 3.37-1.9 4.6zM8 1c-1.47 0-2.85.57-3.89 1.61S2.5 5.03 2.5 6.5s.57 2.85 1.61 3.89L8 14.28l3.89-3.89c1.04-1.04 1.61-2.42 1.61-3.89s-.57-2.85-1.61-3.89S9.47 1 8 1"/></symbol><symbol class="lti lti-lt-mark" viewBox="0 0 16 16" id="lt-mark"><path d="M11.27 8.26c-.75 0-1.39.6-1.39 1.35S10.52 11 11.27 11s1.39-.6 1.39-1.39-.6-1.35-1.39-1.35m0-3.26c-.75 0-1.39.6-1.39 1.35s.64 1.39 1.39 1.39 1.39-.64 1.39-1.39S12.06 5 11.27 5m3.34 0c-.75 0-1.39.6-1.39 1.35s.64 1.39 1.39 1.39S16 7.1 16 6.35 15.4 5 14.61 5M7.92 5c-.75 0-1.39.6-1.39 1.35s.64 1.39 1.39 1.39 1.39-.64 1.39-1.39S8.67 5 7.92 5m-5.22.11H0v5.78h9.13V8.41H2.7V5.1Z"/></symbol><symbol class="lti lti-minus" viewBox="0 0 16 16" id="minus"><path d="M3 7.5h10v1H3z"/></symbol><symbol class="lti lti-placeholder" viewBox="0 0 16 16" id="placeholder"><path d="M6.5 16H3c-1.65 0-3-1.35-3-3V9.5h1V13c0 1.1.9 2 2 2h3.5zM1 6.5H0V3c0-1.65 1.35-3 3-3h3.5v1H3c-1.1 0-2 .9-2 2zm15 0h-1V3c0-1.1-.9-2-2-2H9.5V0H13c1.65 0 3 1.35 3 3zM13 16H9.5v-1H13c1.1 0 2-.9 2-2V9.5h1V13c0 1.65-1.35 3-3 3"/></symbol><symbol class="lti lti-play" viewBox="0 0 16 16" id="play"><path d="M4.5 12.54c-.09 0-.17-.02-.25-.07a.5.5 0 0 1-.25-.43V3.96c0-.18.1-.34.25-.43s.35-.09.5 0l7 4.04c.15.09.25.25.25.43s-.1.34-.25.43l-7 4.04c-.08.04-.16.07-.25.07M5 4.82v6.35L10.5 8z"/></symbol><symbol class="lti lti-play-fill" viewBox="0 0 16 16" id="play-fill"><path d="M4.5 12.54c-.09 0-.17-.02-.25-.07a.5.5 0 0 1-.25-.43V3.96c0-.18.1-.34.25-.43s.35-.09.5 0l7 4.04c.15.09.25.25.25.43s-.1.34-.25.43l-7 4.04c-.08.04-.16.07-.25.07"/></symbol><symbol class="lti lti-plus" viewBox="0 0 16 16" id="plus"><path d="M8.5 7.5V3h-1v4.5H3v1h4.5V13h1V8.5H13v-1z"/></symbol><symbol class="lti lti-search" viewBox="0 0 16 16" id="search"><path d="m16 15.29-3.71-3.71c2.38-2.75 2.27-6.92-.34-9.53-2.73-2.73-7.17-2.73-9.9 0s-2.73 7.17 0 9.9a7 7 0 0 0 9.53.34L15.29 16zM2.76 11.24a6 6 0 0 1 0-8.48C3.93 1.59 5.47 1.01 7 1.01s3.07.58 4.24 1.75a6.01 6.01 0 0 1 0 8.49 6.01 6.01 0 0 1-8.49 0Z"/></symbol><symbol class="lti lti-sliders" viewBox="0 0 16 16" id="sliders"><path d="M16 3.5H8.2C7.96 2.08 6.73 1 5.25 1S2.54 2.08 2.3 3.5H0v1h2.3C2.54 5.92 3.77 7 5.25 7S7.96 5.92 8.2 4.5H16zM5.25 6c-1.1 0-2-.9-2-2s.9-2 2-2 2 .9 2 2-.9 2-2 2M16 11.5h-1.8c-.24-1.42-1.47-2.5-2.95-2.5s-2.71 1.08-2.95 2.5H0v1h8.3c.24 1.42 1.47 2.5 2.95 2.5s2.71-1.08 2.95-2.5H16zM11.25 14c-1.1 0-2-.9-2-2s.9-2 2-2 2 .9 2 2-.9 2-2 2"/></symbol><symbol class="lti lti-spotify" viewBox="0 0 16 16" id="spotify"><path d="M8 0a8 8 0 1 0 0 16A8 8 0 0 0 8 0m3.669 11.538a.5.5 0 0 1-.686.165c-1.879-1.147-4.243-1.407-7.028-.77a.499.499 0 0 1-.222-.973c3.048-.696 5.662-.397 7.77.892a.5.5 0 0 1 .166.686m.979-2.178a.624.624 0 0 1-.858.205c-2.15-1.321-5.428-1.704-7.972-.932a.625.625 0 0 1-.362-1.194c2.905-.881 6.517-.454 8.986 1.063a.624.624 0 0 1 .206.858m.084-2.268C10.154 5.56 5.9 5.419 3.438 6.166a.748.748 0 1 1-.434-1.432c2.825-.857 7.523-.692 10.492 1.07a.747.747 0 1 1-.764 1.288"/></symbol><symbol class="lti lti-three-dots" viewBox="0 0 16 16" id="three-dots"><path d="M3 9.5a1.5 1.5 0 1 1 0-3 1.5 1.5 0 0 1 0 3m5 0a1.5 1.5 0 1 1 0-3 1.5 1.5 0 0 1 0 3m5 0a1.5 1.5 0 1 1 0-3 1.5 1.5 0 0 1 0 3"/></symbol><symbol class="lti lti-tiktok" viewBox="0 0 16 16" id="tiktok"><path d="M9 0h1.98c.144.715.54 1.617 1.235 2.512C12.895 3.389 13.797 4 15 4v2c-1.753 0-3.07-.814-4-1.829V11a5 5 0 1 1-5-5v2a3 3 0 1 0 3 3z"/></symbol><symbol class="lti lti-twitter-x" viewBox="0 0 16 16" id="twitter-x"><path d="M12.6.75h2.454l-5.36 6.142L16 15.25h-4.937l-3.867-5.07-4.425 5.07H.316l5.733-6.57L0 .75h5.063l3.495 4.633L12.601.75Zm-.86 13.028h1.36L4.323 2.145H2.865z"/></symbol><symbol class="lti lti-x" viewBox="0 0 16 16" id="x"><path d="m11.89 4.82-.71-.71L8 7.29 4.82 4.11l-.71.71L7.29 8l-3.18 3.18.71.71L8 8.71l3.18 3.18.71-.71L8.71 8z"/></symbol><symbol class="lti lti-x-lg" viewBox="0 0 16 16" id="x-lg"><path d="m13.85 2.85-.7-.7L8 7.29 2.85 2.15l-.7.7L7.29 8l-5.14 5.15.7.7L8 8.71l5.15 5.14.7-.7L8.71 8z"/></symbol><symbol class="lti lti-yin-yang" viewBox="0 0 16 16" id="yin-yang"><path d="M9.167 4.5a1.167 1.167 0 1 1-2.334 0 1.167 1.167 0 0 1 2.334 0"/><path d="M8 0a8 8 0 1 0 0 16A8 8 0 0 0 8 0M1 8a7 7 0 0 1 7-7 3.5 3.5 0 1 1 0 7 3.5 3.5 0 1 0 0 7 7 7 0 0 1-7-7m7 4.667a1.167 1.167 0 1 1 0-2.334 1.167 1.167 0 0 1 0 2.334"/></symbol><symbol class="lti lti-youtube" viewBox="0 0 16 16" id="youtube"><path d="M8.051 1.999h.089c.822.003 4.987.033 6.11.335a2.01 2.01 0 0 1 1.415 1.42c.101.38.172.883.22 1.402l.01.104.022.26.008.104c.065.914.073 1.77.074 1.957v.075c-.001.194-.01 1.108-.082 2.06l-.008.105-.009.104c-.05.572-.124 1.14-.235 1.558a2.01 2.01 0 0 1-1.415 1.42c-1.16.312-5.569.334-6.18.335h-.142c-.309 0-1.587-.006-2.927-.052l-.17-.006-.087-.004-.171-.007-.171-.007c-1.11-.049-2.167-.128-2.654-.26a2.01 2.01 0 0 1-1.415-1.419c-.111-.417-.185-.986-.235-1.558L.09 9.82l-.008-.104A31 31 0 0 1 0 7.68v-.123c.002-.215.01-.958.064-1.778l.007-.103.003-.052.008-.104.022-.26.01-.104c.048-.519.119-1.023.22-1.402a2.01 2.01 0 0 1 1.415-1.42c.487-.13 1.544-.21 2.654-.26l.17-.007.172-.006.086-.003.171-.007A100 100 0 0 1 7.858 2zM6.4 5.209v4.818l4.157-2.408z"/></symbol></svg>