<svg version="1.1" xmlns="http://www.w3.org/2000/svg" x="0px" y="0px" width="600px" height="149px" viewBox="0 0 600 149">
<path fill="#ee7623" d="M69.26,36.66c-1.85-3.43-4.89-3.45-6.76-0.03l-6.88,12.56c-1.87,3.42-0.22,6.22,3.68,6.22h4.35
	c3.89,0,6,0.9,7.85,4.33L79,73.8c1.85,3.44,0.16,6.25-3.73,6.25H45.83c-3.91,0-8.59,2.82-10.42,6.26l-4.06,7.64
	c-1.83,3.45-6.51,6.26-10.42,6.26H4.41c-3.9,0-5.52-2.77-3.6-6.17l49.68-87.8c1.92-3.39,6.68-6.17,10.58-6.17h11.2
	c3.91,0,8.68,2.77,10.62,6.15l50.38,87.84c1.95,3.38,0.34,6.15-3.55,6.15h-19.23c-3.9,0-8.6-2.81-10.45-6.24L69.26,36.66z
	 M535.16,36.66c-1.84-3.43-4.88-3.45-6.76-0.03l-6.88,12.56c-1.87,3.42-0.22,6.22,3.68,6.22h4.35c3.9,0,6,0.9,7.85,4.33l7.49,14.06
	c1.85,3.44,0.16,6.25-3.73,6.25h-29.43c-3.91,0-8.58,2.82-10.41,6.26l-4.06,7.64c-1.83,3.45-6.51,6.26-10.42,6.26h-16.53
	c-3.9,0-5.52-2.77-3.6-6.17l49.68-87.8c1.92-3.39,6.69-6.17,10.58-6.17h11.2c3.9,0,8.68,2.77,10.62,6.15l50.38,87.84
	c1.94,3.38,0.34,6.15-3.56,6.15h-19.23c-3.9,0-8.6-2.81-10.45-6.24L535.16,36.66z M228.07,100.22c2.31,0,4-2.77,2.61-5.23
	l-7.93-13.74c-1.84-3.31-6-6.38-11.04-6.38h-41.38c-3.89,0-7.09-3.19-7.09-7.09V7.17c0-3.9-3.2-7.1-7.09-7.1h-15.28
	c-3.89,0-7.08,3.19-7.08,7.1v66.02c0,2.38,0.3,4.54,1.54,6.69c4.61,8.08,5.54,9.62,8.26,14.41c2.84,5,8.27,5.92,10.46,5.92H228.07z
	 M435.58,93.12c0,3.9,3.2,7.09,7.09,7.09h2.42c2.7,0,7.69-1.25,10.46-6.1c1.88-3.29,4.69-8.39,8-13.93c1.19-1.98,1.65-3.99,1.65-6.3
	V7.17c0-3.9-3.19-7.1-7.09-7.1h-15.44c-3.9,0-7.09,3.19-7.09,7.1V93.12z M426.92,42.87c0-3.9-3.19-7.09-7.09-7.09h-35.79
	c-3.9,0-7.09-3.19-7.09-7.09V7.17c0-3.9-3.19-7.1-7.09-7.1h-15.27c-3.91,0-7.1,3.19-7.1,7.1v85.95c0,3.9,3.19,7.09,7.1,7.09h15.27
	c3.89,0,7.09-3.19,7.09-7.09V67.69c0-3.9,3.2-7.1,7.09-7.1h35.79c3.89,0,7.09-3.19,7.09-7.09V42.87z M337.94,20.52
	c0-10.79-7.58-19.7-21.63-20.32c-0.34-0.07-0.75-0.13-1.37-0.13h-77.38c-3.9,0-7.09,3.19-7.09,7.1v66.72c0,3.08,0.57,3.83,1.72,5.91
	c1.33,2.39,7.72,13.71,8.16,14.46c3.08,5.23,8.23,5.95,11,5.95h1.13c3.9,0,7.09-3.19,7.09-7.09V30.91c0-3.9,3.19-7.09,7.09-7.09
	c0,0,32.34,0,35.72,0c4.39,0,6.97,3.46,6.97,6.85c0,0.77,0.02,1.54,0.02,1.54s-0.01,0.93-0.01,1.54c0,3.38-2.59,6.85-6.67,6.85
	h-27.14c-3.9,0-7.09,3.19-7.09,7.09v9.56c0,3.9,3.2,7.09,7.09,7.09h39.25v0.01c0.05,0,0.08-0.01,0.12-0.01h0.01
	c0.57,0,0.97-0.04,1.29-0.1c14.1-0.59,21.71-9.52,21.71-20.34c0-0.05,0-0.1,0-0.14l0-0.01v-23l0-0.01
	C337.93,20.66,337.94,20.59,337.94,20.52z M582.07,5.8c0,3.26-2.52,5.8-5.8,5.8c-3.27,0-5.8-2.54-5.8-5.8c0-3.26,2.52-5.8,5.8-5.8
	C579.55,0,582.07,2.54,582.07,5.8z M571.38,5.8c0,2.77,2.09,4.97,4.89,4.97c2.8,0,4.89-2.2,4.89-4.97c0-2.77-2.09-4.97-4.89-4.97
	C573.47,0.83,571.38,3.02,571.38,5.8z M575,9.15h-0.83v-6.7h2.57c1.51,0,2.18,0.65,2.18,1.85c0,1.18-0.78,1.71-1.68,1.87l1.99,2.98
	h-0.97l-1.89-2.98H575V9.15z M576.09,5.47c1.01,0,2.01-0.03,2.01-1.17c0-0.93-0.78-1.15-1.59-1.15H575v2.32H576.09z"/>
<path fill="#ffffff" d="M414.85,139.81c0.14,2.99,1.99,3.96,4.81,3.96c2,0,4.06-0.71,4.06-2.6c0-2.25-3.64-2.67-7.31-3.71
	c-3.64-1.03-7.45-2.67-7.45-7.34c0-5.56,5.59-7.74,10.37-7.74c5.06,0,10.16,2.46,10.19,8.2h-6.63c0.11-2.32-2.07-3.07-4.1-3.07
	c-1.43,0-3.21,0.5-3.21,2.18c0,1.96,3.67,2.32,7.38,3.35c3.67,1.03,7.38,2.74,7.38,7.34c0,6.45-5.49,8.52-11.09,8.52
	c-5.84,0-11.01-2.57-11.05-9.09H414.85z M461.65,128.62h-7.59v19.75h-6.63v-19.75h-7.59v-5.7h21.81V128.62z M472.59,122.92h12.98
	c4.49,0,8.91,2.03,8.91,7.16c0,2.75-1.32,5.35-3.99,6.38v0.07c2.71,0.64,3.49,3.67,3.71,6.09c0.07,1.07,0.18,4.81,1.07,5.74h-6.56
	c-0.57-0.86-0.68-3.35-0.75-4.06c-0.18-2.57-0.6-5.2-3.71-5.2h-5.03v9.27h-6.63V122.92z M479.22,133.97h5.56
	c2,0,3.07-1.07,3.07-2.99c0-1.89-1.5-2.74-3.35-2.74h-5.28V133.97z M517.94,122.38c8.02,0,12.55,5.88,12.55,13.26
	c0,7.38-4.53,13.26-12.55,13.26c-8.02,0-12.55-5.88-12.55-13.26C505.39,128.26,509.92,122.38,517.94,122.38z M517.94,143.2
	c4.28,0,5.92-3.78,5.92-7.56c0-3.78-1.64-7.56-5.92-7.56c-4.28,0-5.92,3.78-5.92,7.56C512.02,139.42,513.66,143.2,517.94,143.2z
	 M542.04,122.92h6.81l8.84,15.68h0.07v-15.68h6.24v25.45h-6.81l-8.84-15.86h-0.07v15.86h-6.24V122.92z M600,148.37h-4.28l-0.39-2.78
	c-1.75,2.46-4.74,3.32-7.09,3.32c-7.7,0-12.69-5.88-12.69-13.26c0-7.38,4.99-13.26,12.69-13.26c5.28,0,10.91,2.82,11.51,9.2h-6.63
	c-0.21-2.18-2.35-3.49-5.03-3.49c-4.28,0-5.92,3.78-5.92,7.56c0,3.78,1.64,7.56,5.92,7.56c3.28,0,5.49-1.53,5.85-3.85h-4.63v-4.92
	H600V148.37z"/>
</svg>
