<svg version="1.1" xmlns="http://www.w3.org/2000/svg" x="0px" y="0px" width="600px" height="149px" viewBox="0 0 600 149">
<path fill="#ffffff" d="M402.9,122.92h9.77l4.38,16.96h0.07l4.38-16.96h9.77v25.45h-6.24v-19.32h-0.07l-5.35,19.32h-5.06
	l-5.35-19.32h-0.07v19.32h-6.24V122.92z M443.86,122.92h20.28v5.31h-13.65v4.45h12.47v5.13h-12.47v4.85h14.01v5.7h-20.63V122.92z
	 M496.42,128.62h-7.59v19.74h-6.63v-19.74h-7.59v-5.7h21.81V128.62z M524.23,132.01c-0.36-2.57-2.35-3.92-5.13-3.92
	c-4.28,0-5.92,3.78-5.92,7.55s1.64,7.55,5.92,7.55c3.1,0,4.88-1.78,5.13-4.7h6.63c-0.35,6.56-5.17,10.41-11.62,10.41
	c-7.7,0-12.69-5.88-12.69-13.26s4.99-13.26,12.69-13.26c5.49,0,11.44,3.49,11.62,9.62H524.23z M553.99,122.39
	c8.02,0,12.55,5.88,12.55,13.26s-4.53,13.26-12.55,13.26c-8.02,0-12.54-5.88-12.54-13.26S545.97,122.39,553.99,122.39z
	 M553.99,143.2c4.28,0,5.92-3.78,5.92-7.55s-1.64-7.55-5.92-7.55c-4.28,0-5.92,3.78-5.92,7.55S549.71,143.2,553.99,143.2z
	 M578.05,122.92h6.81l8.84,15.68h0.07v-15.68H600v25.45h-6.81l-8.84-15.86h-0.07v15.86h-6.24V122.92z"/>
<path fill="#ee7623" d="M69.26,36.66c-1.85-3.43-4.89-3.45-6.76-0.03l-6.88,12.56c-1.87,3.42-0.22,6.22,3.68,6.22h4.35
	c3.89,0,6,0.9,7.85,4.33L79,73.8c1.85,3.44,0.16,6.25-3.73,6.25H45.83c-3.91,0-8.59,2.82-10.42,6.26l-4.06,7.64
	c-1.83,3.45-6.51,6.26-10.42,6.26H4.41c-3.9,0-5.52-2.77-3.6-6.17l49.68-87.8c1.92-3.39,6.68-6.17,10.58-6.17h11.2
	c3.91,0,8.68,2.77,10.62,6.15l50.38,87.84c1.95,3.38,0.34,6.15-3.55,6.15h-19.23c-3.9,0-8.6-2.81-10.45-6.24L69.26,36.66z
	 M535.16,36.66c-1.84-3.43-4.88-3.45-6.76-0.03l-6.88,12.56c-1.87,3.42-0.22,6.22,3.68,6.22h4.35c3.9,0,6,0.9,7.85,4.33l7.49,14.06
	c1.85,3.44,0.16,6.25-3.73,6.25h-29.43c-3.91,0-8.58,2.82-10.41,6.26l-4.06,7.64c-1.83,3.45-6.51,6.26-10.42,6.26h-16.53
	c-3.9,0-5.52-2.77-3.6-6.17l49.68-87.8c1.92-3.39,6.69-6.17,10.58-6.17h11.2c3.9,0,8.68,2.77,10.62,6.15l50.38,87.84
	c1.94,3.38,0.34,6.15-3.56,6.15h-19.23c-3.9,0-8.6-2.81-10.45-6.24L535.16,36.66z M228.07,100.22c2.31,0,4-2.77,2.61-5.23
	l-7.93-13.74c-1.84-3.31-6-6.38-11.04-6.38h-41.38c-3.89,0-7.09-3.19-7.09-7.09V7.17c0-3.9-3.2-7.1-7.09-7.1h-15.28
	c-3.89,0-7.08,3.19-7.08,7.1v66.02c0,2.38,0.3,4.54,1.54,6.69c4.61,8.08,5.54,9.62,8.26,14.41c2.84,5,8.27,5.92,10.46,5.92H228.07z
	 M435.58,93.12c0,3.9,3.2,7.09,7.09,7.09h2.42c2.7,0,7.69-1.25,10.46-6.1c1.88-3.29,4.69-8.39,8-13.93c1.19-1.98,1.65-3.99,1.65-6.3
	V7.17c0-3.9-3.19-7.1-7.09-7.1h-15.44c-3.9,0-7.09,3.19-7.09,7.1V93.12z M426.92,42.87c0-3.9-3.19-7.09-7.09-7.09h-35.79
	c-3.9,0-7.09-3.19-7.09-7.09V7.17c0-3.9-3.19-7.1-7.09-7.1h-15.27c-3.91,0-7.1,3.19-7.1,7.1v85.95c0,3.9,3.19,7.09,7.1,7.09h15.27
	c3.89,0,7.09-3.19,7.09-7.09V67.69c0-3.9,3.2-7.1,7.09-7.1h35.79c3.89,0,7.09-3.19,7.09-7.09V42.87z M337.94,20.52
	c0-10.79-7.58-19.7-21.63-20.32c-0.34-0.07-0.75-0.13-1.37-0.13h-77.38c-3.9,0-7.09,3.19-7.09,7.1v66.72c0,3.08,0.57,3.83,1.72,5.91
	c1.33,2.39,7.72,13.71,8.16,14.46c3.08,5.23,8.23,5.95,11,5.95h1.13c3.9,0,7.09-3.19,7.09-7.09V30.91c0-3.9,3.19-7.09,7.09-7.09
	c0,0,32.34,0,35.72,0c4.39,0,6.97,3.46,6.97,6.85c0,0.77,0.02,1.54,0.02,1.54s-0.01,0.93-0.01,1.54c0,3.38-2.59,6.85-6.67,6.85
	h-27.14c-3.9,0-7.09,3.19-7.09,7.09v9.56c0,3.9,3.2,7.09,7.09,7.09h39.25v0.01c0.05,0,0.08-0.01,0.12-0.01h0.01
	c0.57,0,0.97-0.04,1.29-0.1c14.1-0.59,21.71-9.52,21.71-20.34c0-0.05,0-0.1,0-0.14l0-0.01v-23l0-0.01
	C337.93,20.66,337.94,20.59,337.94,20.52z M582.07,5.8c0,3.26-2.52,5.8-5.8,5.8c-3.27,0-5.8-2.54-5.8-5.8c0-3.26,2.52-5.8,5.8-5.8
	C579.55,0,582.07,2.54,582.07,5.8z M571.38,5.8c0,2.77,2.09,4.97,4.89,4.97c2.8,0,4.89-2.2,4.89-4.97c0-2.77-2.09-4.97-4.89-4.97
	C573.47,0.83,571.38,3.02,571.38,5.8z M575,9.15h-0.83v-6.7h2.57c1.51,0,2.18,0.65,2.18,1.85c0,1.18-0.78,1.71-1.68,1.87l1.99,2.98
	h-0.97l-1.89-2.98H575V9.15z M576.09,5.47c1.01,0,2.01-0.03,2.01-1.17c0-0.93-0.78-1.15-1.59-1.15H575v2.32H576.09z"/>
</svg>
