<svg xmlns="http://www.w3.org/2000/svg" width="1036" height="302" viewBox="0 0 1036 302">
    <g fill="#A454B9" fill-rule="evenodd">
        <path d="M984 80V68c5.006-1.878 8.642-6.824 8-14 .642-8.293-7.865-15.473-18-16-10.21.527-18.72 7.707-18 16-.72 7.097 3.072 12.122 8 14v12c-10.96-3.59-18-12.92-18-26 0-14.276 12.298-26 28-26s28 11.724 28 26c0 13.32-6.882 22.57-18 26zm18 36v12l-34-18h-20v-10h20l34-18v12l-24 10 24 12zm-18 66v-12c5.006-1.875 8.642-6.821 8-14 .642-8.295-7.865-15.472-18-16-10.21.528-18.72 7.705-18 16-.72 7.099 3.072 12.125 8 14v12c-10.96-3.587-18-12.918-18-26 0-14.276 12.298-26 28-26s28 11.724 28 26c0 13.322-6.882 22.573-18 26zm18 18h-44v28h-10v-38h54v10zm0 76h-10v-30h-12v26h-8v-26h-14v30h-10v-40h54v40zm-88 24h122V4H914v296zM718 180h76c54.212-.536 92-37.397 92-90 0-53.061-37.788-90-92-90H678v152l22-16V22h94c41.946-.058 70.061 27.226 70 68 .061 40.95-27.4 67.52-70 68h-78c-20.735-.434-37.975 16.808-38 38v106h22V196c-.058-9.07 7.403-16.533 16-16h2zM610 0L466 232h-2L320 0h-20v10l164 264h2L630 10V0h-20zm0 302h22V48l-22 36v218zm-310 0h22V84l-22-36v254zm-48 0l-34-80H72c-12.485-.52-15.28 1.8-18 10l-30 70H0l32-76c8.047-19.305 19.27-26.462 40-26h138L140 36 80 178H56L132 0h16l128 302h-24z"/>
    </g>
</svg>
