<svg xmlns="http://www.w3.org/2000/svg" width="485px" height="100px" viewBox="0 0 485 100">
	<path fill="#EACE4E" d="M46.9,27.8c3.2-2.8,5-6.8,5-11c0.2-4.1-1.4-8.2-4.3-11.1C43.8,1.9,37.5,0.1,29,0.2H0v61.6h29.7 c20.3,0,24.5-10.9,24.5-20.1C54.3,36.1,51.6,30.9,46.9,27.8 M34.6,41.1c0,1.4,0,3.9-5.5,3.9h-9.4v-8.2h9.4 C34.6,36.9,34.6,39.7,34.6,41.1 M19.6,22.5v-6.1h9c3.6,0,3.6,2.1,3.6,3.1c0,2.8-2.8,3-3.6,3L19.6,22.5L19.6,22.5z M109.9,0.2H91.5 l-23,61.6h20.4l3.6-10.2h16.4l3.5,10.2h20.6L109.9,0.2z M100.6,18.3l5.7,17.5H94.9L100.6,18.3z M204,57.7c-0.4-0.5-1.2-2.5-1.7-10.3 l-0.1-1.1c-0.6-7.4-3-11.4-5.7-13.6c4.2-3.5,6.5-8.7,6.4-14.2c0-11.2-8.8-18.4-22.3-18.4h-31.3v61.6h19.6V41.1h8.8 c4,0,5.4,2.2,5.9,9.4l0.1,0.9c0.3,3.6,0.7,7.3,2,9.2l0.7,1.1h15.9l5.3-0.1L204,57.7z M168.9,16.8h9.4c2.3,0,5.1,0.6,5.1,3.7 s-1.3,4.3-4.4,4.3h-10L168.9,16.8L168.9,16.8z M271.4,27.8c3.2-2.8,5-6.8,5-11c0-4.6-1.4-8.3-4.3-11.1c-3.9-3.8-10.1-5.6-18.6-5.5 h-29v61.6h29.7c20.3,0,24.5-10.9,24.5-20.1C278.9,36.1,276.1,30.9,271.4,27.8 M259.1,41.1c0,1.4,0,3.9-5.5,3.9h-9.4v-8.2h9.4 C259.1,36.9,259.1,39.7,259.1,41.1 M244.1,22.5v-6.1h9c3.6,0,3.6,2.1,3.6,3.1c0,2.8-2.8,3-3.6,3L244.1,22.5L244.1,22.5z M319.5,44.2 v-6h27.8V21.9h-27.8v-5.1H350V0.2h-50.1v61.6h50.9V44.2H319.5z M391.9,44.2v-44h-19.6v61.6h46.1V44.2H391.9z M458.4,44.2v-44h-19.6 v61.6h46.1V44.2H458.4z M6,92.3c0.1,2.4,1.6,3.2,3.8,3.2c1.6,0,3.2-0.6,3.2-2.1c0-1.8-2.9-2.1-5.8-3s-6-2.1-6-5.9 c0-4.4,4.5-6.2,8.3-6.2c4.1,0,8.1,2,8.2,6.6h-5.3c0.1-1.9-1.7-2.4-3.3-2.4c-1.1,0-2.6,0.4-2.6,1.7c0,1.6,2.9,1.9,5.9,2.7 s5.9,2.2,5.9,5.9c0,5.2-4.4,6.8-8.9,6.8c-4.7,0-8.8-2.1-8.8-7.3L6,92.3L6,92.3z M43.5,83.3h-6.1v15.8h-5.3V83.3H26v-4.6h17.5V83.3z M52.2,78.7h10.4c3.6,0,7.1,1.6,7.1,5.7c0.1,2.2-1.2,4.3-3.2,5.1v0.1c2.2,0.5,2.8,2.9,3,4.9c0.1,0.9,0.1,3.9,0.9,4.6h-5.3 c-0.4-1-0.6-2.1-0.6-3.2c-0.1-2.1-0.5-4.2-3-4.2h-4v7.4h-5.3V78.7z M57.5,87.6H62c1.2,0.2,2.3-0.7,2.4-1.9c0-0.2,0-0.3,0-0.5 c0-1.5-1.2-2.2-2.7-2.2h-4.2L57.5,87.6L57.5,87.6z M79.3,78.7h16.2V83H84.6v3.6h10v4.1h-10v3.9h11.2v4.6H79.3V78.7z M105.2,78.7h5.4 l7.1,12.6h0.1V78.7h5v20.4h-5.4l-7.1-12.7h-0.1v12.7h-5V78.7z M151.6,99.1h-3.4l-0.3-2.2c-1.4,1.7-3.5,2.7-5.7,2.7 c-6.2,0-10.2-4.7-10.2-10.6s4-10.6,10.2-10.6c4.2,0,8.7,2.3,9.2,7.4h-5.3c-0.2-1.7-1.9-2.8-4-2.8c-3.4,0-4.7,3-4.7,6.1 s1.3,6.1,4.7,6.1c2.6,0,4.4-1.2,4.7-3.1H143V88h8.6L151.6,99.1L151.6,99.1z M177.5,83.3h-6.1v15.8h-5.3V83.3H160v-4.6h17.5 L177.5,83.3L177.5,83.3z M186.2,78.7h5.3v7.4h7v-7.4h5.3v20.4h-5.3v-8.4h-7v8.4h-5.3V78.7z M471.6,1.8c0-0.7-0.6-1.2-1.3-1.1 c0,0-0.1,0-0.1,0c-0.5-0.1-1.1,0.2-1.2,0.7c0,0.1,0,0.1,0,0.2c0,0.7,0.9,0.8,1.8,1c0.9,0.2,1.8,0.5,1.8,1.6s-1.1,1.6-2.1,1.6 c-1.2,0-2.3-0.6-2.3-1.9h0.7c0,0.8,0.7,1.4,1.5,1.3c0,0,0.1,0,0.1,0c0.6,0.1,1.2-0.2,1.4-0.9c0,0,0-0.1,0-0.1c0-0.8-0.9-0.9-1.8-1.1 s-1.8-0.4-1.8-1.5c0.1-1,0.9-1.7,1.9-1.6c0,0,0.1,0,0.1,0c1-0.1,1.9,0.6,2,1.5c0,0.1,0,0.1,0,0.2H471.6L471.6,1.8z M473.5,0.1h1 l1.7,4.6l1.8-4.6h1v5.5h-0.7V1.1h0l-1.7,4.6h-0.6l-1.7-4.6h0v4.6h-0.7V0.1z"/>
</svg>