<svg xmlns="http://www.w3.org/2000/svg" width="278px" height="108px" viewBox="0 0 278 108">
	<path fill="#23879F" d="M12,28.1l6.2-8l6.3,8l2.2-2l-8.5-10.8L9.7,26.1L12,28.1z M35.5,37c1.8,2,1.5,5-0.5,6.8l-16.8,15l-16.8-15 C-0.3,42-0.5,39,1,37l1.5-1.8l2.2,2L3.5,39c-0.8,0.8-0.5,1.8,0,2.5l14.8,13l14.7-13c0.8-0.8,0.8-1.8,0.3-2.5l-1.5-1.8l2.3-2L35.5,37 z M18.2,43.5l-16.8-15C-0.3,26.8-0.5,24,1,22L18.2,0l17.2,22c1.8,2,1.5,4.8-0.5,6.5L18.2,43.5z M18.2,5L3.5,23.8 c-0.8,0.7-0.5,2,0,2.5l14.8,13.2L33,26.3c0.8-0.5,0.8-1.8,0.3-2.5L18.2,5z M63.7,2.5H89c9.3-0.2,19.5,2.2,19.5,13.8 c0,4.8-3,8.8-7.2,10.8c5.8,1.8,9.5,6.8,9.5,13c0,13-9.5,17-21.2,17H63.7V2.5z M77.7,24h10.8c2.5,0,5.8-1.5,5.8-5.2 c0-4-2.8-5.2-5.8-5.2H77.7V24z M77.7,45.5H89c4.5,0,7.5-1.5,7.5-6c0-4.8-3.2-6.5-7.5-6.5H77.7V45.5z M142.7,2.5h43v11.3h-29v9.7 h26.5v10.7h-26.5v10.6h29.8V57h-43.8V2.5z M63.7,90.8H70l3,11.2l0,0l3-11.2h6.2v16.7h-4V94.8l0,0l-3.5,12.7h-3.5l-3.5-12.7l0,0v12.7 h-4V90.8z M93,90.8h13.2v3.4h-9v3h8.3v3.3h-8.3v3.3h9.3v3.7H93V90.8z M121,103.8h2c3.2,0,4.5-1.2,4.5-4.8c0-3-1.5-4.5-4.5-4.5h-2 V103.8z M116.5,90.8h7.3c5.2,0,8.2,3.2,8.2,8.2c0,5.5-3.2,8.5-8.2,8.5h-7.3V90.8z M142,107.5h4.2V90.8H142V107.5z M170.2,94.5h-5v13 h-4.5v-13h-5v-3.7h14.5V94.5z M182.5,101.2h3.8l-2-5.8l0,0L182.5,101.2z M182,90.8h4.5l6.2,16.7h-4.5l-1-3h-6l-1,3h-4.5L182,90.8z M212.7,94.5h-5v13h-4.2v-13h-5v-3.7h14.2V94.5z M222.2,107.5h4.5V90.8h-4.5V107.5z M244.7,104.2c3,0,4-2.5,4-5s-1-5-4-5 c-2.8,0-3.8,2.5-3.8,5S242,104.2,244.7,104.2 M244.7,90.5c5.5,0,8.2,3.8,8.2,8.8c0,4.8-2.8,8.8-8.2,8.8c-5.2,0-8.3-4-8.3-8.8 C236.5,94.2,239.5,90.5,244.7,90.5 M263,90.8h4.5l5.7,10.2l0,0V90.8h4.3v16.7H273L267.2,97l0,0v10.5H263V90.8z M192.1,3.9 c0-0.5-0.5-1-1-0.9c0,0,0,0-0.1,0c-0.5-0.1-0.9,0.2-1,0.7v0.1c0,0.6,0.7,0.6,1.4,0.8s1.4,0.4,1.4,1.3c-0.1,0.8-0.8,1.4-1.7,1.4H191 c-0.9,0.1-1.7-0.5-1.8-1.4c0-0.1,0-0.1,0-0.2h0.6c0,0.6,0.5,1.1,1.2,1.1h0.1c0.5,0.1,1-0.2,1.1-0.7V6c0-0.6-0.7-0.7-1.4-0.9 c-0.7-0.2-1.4-0.4-1.4-1.2c0.1-0.8,0.7-1.4,1.5-1.3h0.1c0.8-0.1,1.5,0.4,1.6,1.2c0,0.1,0,0.1,0,0.2L192.1,3.9L192.1,3.9z M197.2,2.6 l-1.4,3.7l-1.4-3.7h-0.8v4.5h0.5V3.3l0,0l1.4,3.8h0.5l1.4-3.8l0,0v3.8h0.6V2.6H197.2z"/>
</svg>