<svg version="1.1" xmlns="http://www.w3.org/2000/svg" width="552px" height="124px" viewBox="0 0 552 124">
<path fill="#ee2631" d="M8.8,113.2h67.5v8.8H0V72.5c0-8.4,6.8-15.2,15.2-15.2l0,0h44.9V66H15.2c-3.6,0-6.5,2.9-6.5,6.5v0.6 L8.8,113.2L8.8,113.2z M282.1,13.3l1.9,0.9c7.5,3.7,14.1,9.1,19.1,15.9l0.7,1h10.5l-2.5-3.9c-6.2-9-14.5-16.2-24.3-21L285.1,5 L282.1,13.3z M0,54.7l8.8-6.2V10.1h67.5V1.3H0V54.7z M130,1.2h-20.2V10H130c28.5,0,51.6,23.1,51.6,51.6s-23.1,51.6-51.6,51.6l0,0 h-20.2v8.8H130c33.3,0,60.4-27,60.4-60.4S163.4,1.2,130,1.2z M93,122h8.8V1.2H93V122z M322.2,59.7l-0.1-2.3h-55.7v8.8h46.9 c-2.2,27.5-25.2,48.6-52.7,48.5c-4.3,0-8.5-0.5-12.6-1.5l-2.1-0.5l-2.3,6.4l-0.6,1.8l2.6,0.7c33,8.4,66.5-11.6,74.9-44.6 c1.3-5,1.9-10,1.9-15.2C322.3,61,322.2,59.7,322.2,59.7z M234.9,117.8l3-8.2l-0.8-0.4c-26.2-13-36.9-44.8-23.9-71 c11-22.2,35.9-33.8,60-27.9l0.9,0.2l3-8.2L275.7,2c-4.9-1.3-10-2-15.1-2c-34.1,0-61.7,27.7-61.7,61.8c0,23.6,13.5,45.1,34.8,55.4 L234.9,117.8z M312.8,3.6c-0.1-0.8-0.8-1.5-1.7-1.4c0,0,0,0-0.1,0c-0.7-0.1-1.4,0.4-1.6,1.1c0,0,0,0,0,0.1c0,0.9,1.1,1,2.2,1.2 c1.1,0.3,2.2,0.6,2.2,2c-0.1,1.3-1.3,2.2-2.6,2.1h-0.1c-1.4,0.2-2.6-0.7-2.8-2.1c0-0.1,0-0.2,0-0.4h0.9c0,1,0.9,1.7,1.8,1.7 c0.1,0,0.1,0,0.2,0c0.8,0.2,1.6-0.3,1.7-1.1c0-0.1,0-0.1,0-0.2c0-1-1.1-1.1-2.2-1.4c-1.1-0.2-2.2-0.6-2.2-1.8s1-2.2,2.2-2.2 c0.1,0,0.2,0,0.3,0c1.2-0.2,2.4,0.7,2.5,1.9c0,0.1,0,0.2,0,0.3L312.8,3.6L312.8,3.6z M315.1,1.6h1.3l2.2,5.9l2.2-5.9h1.3v7h-0.8V2.7 l0,0l-2.2,5.8h-0.8L316,2.7l0,0v5.8h-0.9V1.6L315.1,1.6z"/>
<path fill="#707070" d="M380.9,65.2c0.1,2.5,1.7,3.4,4.1,3.4c1.7,0,3.4-0.6,3.4-2.2c0-1.9-3.1-2.3-6.2-3.1c-3.1-0.9-6.3-2.3-6.3-6.2 c0-4.7,4.7-6.6,8.8-6.6c4.3,0,8.6,2.1,8.6,7h-5.6c0.1-2-1.8-2.6-3.5-2.6c-1.2,0-2.7,0.4-2.7,1.8c0,1.7,3.1,2,6.3,2.8 c3.1,0.9,6.3,2.3,6.3,6.2c0,5.5-4.7,7.2-9.4,7.2c-5,0-9.3-2.2-9.4-7.7C375.3,65.2,380.9,65.2,380.9,65.2z M421.6,58.6 c-0.3-2.2-2-3.3-4.4-3.3c-3.6,0-5,3.2-5,6.4s1.4,6.4,5,6.4c2.6,0,4.1-1.5,4.4-4h5.6c-0.3,5.6-4.4,8.8-9.9,8.8 c-6.5,0-10.8-5-10.8-11.2s4.2-11.2,10.8-11.2c4.7,0,9.7,3,9.9,8.2h-5.6V58.6z M459.5,63.6c0,6.3-2.9,9.4-9.4,9.4s-9.4-3.1-9.4-9.4 V50.9h5.6v13c0,2.8,1,4.2,3.8,4.2s3.8-1.4,3.8-4.2v-13h5.6V63.6z M473.8,50.9h5.6v16.8h10.1v4.8h-15.7V50.9z M502.8,50.9h10.3 c4,0,7.8,1.8,7.8,7c0,5.4-3.1,7.4-7.8,7.4h-4.6v7.2h-5.6L502.8,50.9L502.8,50.9z M508.5,60.9h3.8c1.8,0,3-0.7,3-2.7s-1.3-2.8-3-2.8 h-3.8V60.9z M551.3,55.7h-6.4v16.8h-5.6V55.7h-6.4v-4.8h18.5L551.3,55.7L551.3,55.7z"/>
</svg>
