<svg xmlns="http://www.w3.org/2000/svg" width="938" height="300" viewBox="0 0 938 300">
    <g fill="#ee2631" fill-rule="evenodd">
        <path d="M886 76V66c5.005-3.344 8.641-8.096 8-14 .641-8.974-7.866-15.878-18-16-10.211.122-18.719 7.026-18 16-.719 5.827 3.07 10.656 8 14v10c-10.962-3.452-18-12.423-18-24 0-14.727 12.296-26 28-26 15.701 0 28 11.273 28 26 0 11.807-6.883 20.702-18 24zm18 38v12l-34-18h-20V98h20l34-18v12l-24 10 24 12zm-18 64v-10c5.005-3.344 8.641-8.1 8-14 .641-8.974-7.866-15.878-18-16-10.211.122-18.719 7.026-18 16-.719 5.824 3.07 10.656 8 14v10c-10.962-3.452-18-12.423-18-24 0-14.727 12.296-26 28-26 15.701 0 28 11.273 28 26 0 11.807-6.883 20.702-18 24zm18 20h-44v26h-10v-36h54v10zm0 76h-10v-30h-12v26h-8v-26h-14v30h-10v-40h54v40zm-88 22h122V4H816v292zM570 286l6-20h-2c-43.295-22.606-70.678-66.788-70-116-.678-81.008 74.408-144.722 158-126l2 2 8-20-4-2c-10.847-2.448-23.219-4-36-4-82.775 0-150 67.205-150 150 0 57.677 32.366 109.314 84 134l4 2zm212-140v-6H646v22h114c-5.093 65.617-59.924 116.745-128 116-10.008.745-20.276-.477-30-2l-4-2-6 16-2 4 6 2c12.7 2.497 24.622 4 36 4 83.076 0 150-67.008 150-150 0-1.125-.219-4.39 0-4zM226 300h22V6h-22v294zM316 6h-50v22h50c68.383-.649 124.682 55.767 124 126 .682 68.32-55.617 124.633-124 124h-50v22h50c80.14 0 146-65.9 146-146C462 71.987 396.14 6 316 6zM0 136l22-16V28h164V6H0v130zM684 32l4 2c18.824 9.64 34.804 23.111 46 40l2 2h26l-6-10c-15.136-21.415-35.367-39.244-58-52l-6-2-8 20zM22 278h164v22H0V180c.019-21.34 16.66-38 38-38h108v22H38c-9.497-.524-16.532 6.52-16 16v98z"/>
    </g>
</svg>
