<svg version="1.1" xmlns="http://www.w3.org/2000/svg" width="1025px" height="119px" viewBox="0 0 1025 119">
<path fill="#c1197f" d="M308.2,117.6V0.7h65.9c11,0,19.4,3,25.2,8.9c5.7,5.5,8.8,13,8.8,20.9c0,7-1.9,12.9-5.6,17.7 c-3.4,4.6-8.4,7.8-14,9.1c6.2,0.9,11.4,4.1,15.6,9.5c4.2,5.4,6.4,12.1,6.3,19c0,9-3,16.6-8.9,22.6c-5.9,6.1-14.3,9.1-25.2,9.2H308.2 z M338.3,45.2h29.3c2.7,0.1,5.4-0.7,7.5-2.4c3.7-3.5,3.8-9.3,0.3-13c-0.1-0.1-0.2-0.2-0.4-0.4c-2.1-1.7-4.7-2.6-7.5-2.5h-29.3V45.2z M338.3,91.4h30.3c3.6,0,6.4-0.9,8.5-2.6c4-3.8,4.1-10.1,0.3-14.1c-0.1-0.1-0.2-0.2-0.3-0.3c-2-1.8-4.9-2.7-8.6-2.7h-30.3 L338.3,91.4z M454.2,117.6L498.3,0.7h38l44,116.9h-34.2l-5.8-16.9h-46.1l-5.7,16.9L454.2,117.6z M502.5,74.5h29.6l-14.7-44 L502.5,74.5z M628.3,117.6V0.7h58.2c12.6,0,22.4,3.7,29.6,11c7.2,7.3,10.8,16.6,10.8,27.9c0,9.3-2.2,17-6.7,22.9 c-4.1,5.6-9.7,9.8-16.2,12.1l23.4,43h-34l-19.7-39.3h-15.4v39.3L628.3,117.6z M658.4,52.1h23.9c3.8,0.2,7.5-1,10.4-3.3 c2.8-2.3,4.3-5.7,4.1-9.2c0.2-3.5-1.4-6.9-4.2-9.1c-3-2.3-6.6-3.5-10.4-3.3h-23.9V52.1z M783.5,117.6V0.7h58.2 c12.6,0,22.4,3.7,29.6,11c7.2,7.3,10.8,16.7,10.8,27.9c0,9.3-2.2,16.9-6.7,22.9c-4.1,5.6-9.7,9.8-16.2,12.1l23.4,43h-34l-19.7-39.3 h-15.4v39.3L783.5,117.6z M813.7,52.1h23.9c3.8,0.1,7.5-1,10.4-3.3c2.8-2.3,4.3-5.7,4.1-9.2c0.2-3.5-1.4-6.9-4.2-9.1 c-3-2.3-6.6-3.5-10.4-3.3h-23.9V52.1z M938.8,117.6V0.7h85.7V27h-55.6v18.2h54.3v26.3h-54.3v19.9h55.6v26.3L938.8,117.6z M152.9,0 h12.6l69,100.1h0.3V0h11.3v118.4h-12.6l-69-100.1h-0.3v100.1h-11.3V0z M28.8,31V9.6H100V0H17.5v31H28.8z M0,52.3v9.6h100v-9.5 L0,52.3z M28.8,108.7V83.2H17.5v35.1H100v-9.6H28.8z"/>
</svg>
