<svg xmlns="http://www.w3.org/2000/svg" width="361px" height="108px" viewBox="0 0 361 108">
	<path fill="#23879F" d="M8.3,55.8c-0.9,0-1.6-0.7-1.6-1.5c0-2.7-1.3-3.9-2.9-5.5C2,47,0,45,0,41.1s2-5.9,3.8-7.7 c1.6-1.6,2.9-2.9,2.9-5.5S5.4,24,3.8,22.4C2,20.6,0,18.6,0,14.7S2,8.8,3.8,7c1.6-1.6,2.9-2.8,2.9-5.5C6.8,0.6,7.5,0,8.4,0.1 c0.8,0.1,1.4,0.7,1.4,1.4c0,3.9-2,5.9-3.8,7.7c-1.6,1.6-2.8,2.8-2.8,5.5s1.3,3.9,2.9,5.5C7.8,22,9.8,24,9.8,27.9s-2,5.9-3.8,7.7 c-1.6,1.6-2.8,2.8-2.8,5.5s1.3,3.9,2.9,5.5c1.8,1.8,3.8,3.8,3.8,7.7C9.9,55.1,9.2,55.8,8.3,55.8L8.3,55.8 M21.2,55.8 c-0.9,0-1.5-0.7-1.5-1.5c0-2.7-1.3-3.9-2.9-5.5C15,47,13,45,13,41.1c0-4,2-5.9,3.8-7.7c1.6-1.6,2.9-2.9,2.9-5.5s-1.3-3.9-2.9-5.5 C15,20.6,13,18.6,13,14.7s2-5.9,3.8-7.7c1.6-1.6,2.9-2.9,2.9-5.5c0.1-0.9,0.8-1.5,1.7-1.4c0.8,0.1,1.4,0.7,1.4,1.4 c0,3.9-2,5.9-3.8,7.7c-1.6,1.6-2.9,2.9-2.9,5.5s1.3,3.9,2.9,5.5c1.8,1.8,3.8,3.8,3.8,7.7s-2,5.9-3.8,7.7c-1.6,1.6-2.9,2.8-2.9,5.5 s1.3,3.9,2.9,5.5c1.8,1.8,3.8,3.8,3.8,7.7C22.7,55.1,22,55.8,21.2,55.8 M34.1,55.8c-0.9,0-1.6-0.7-1.6-1.5c0-2.7-1.3-3.9-2.9-5.5 c-1.8-1.8-3.8-3.8-3.8-7.7c0-4,2-5.9,3.8-7.7c1.6-1.6,2.9-2.9,2.9-5.5s-1.3-3.9-2.9-5.5c-1.8-1.8-3.8-3.8-3.8-7.7s2-5.9,3.8-7.7 c1.6-1.6,2.9-2.9,2.9-5.5c0.1-0.9,0.8-1.5,1.7-1.4c0.8,0.1,1.4,0.7,1.4,1.4c0,3.9-2,5.9-3.8,7.7c-1.6,1.6-2.9,2.9-2.9,5.5 c0,2.7,1.3,3.9,2.9,5.5c1.8,1.8,3.8,3.8,3.8,7.7s-2,5.9-3.8,7.7c-1.6,1.6-2.9,2.8-2.9,5.5s1.3,3.9,2.9,5.5c1.8,1.8,3.8,3.8,3.8,7.7 C35.6,55.1,34.9,55.8,34.1,55.8 M63.1,1.2h39.4v11.2H77.1v10.9h22v10.8h-22v20.6h-14V1.2z M132.7,1.2h14v41.5h24.9v12h-38.9V1.2z M225.5,43.8c9,0,12.4-7.9,12.4-15.9S234.5,12,225.5,12s-12.4,8-12.4,15.9S216.5,43.8,225.5,43.8 M225.5,0 c16.9,0,26.4,12.4,26.4,27.9s-9.5,27.9-26.4,27.9s-26.4-12.4-26.4-27.9S208.6,0.1,225.5,0 M334.7,54.7h-14l-7.3-36.9h-0.2l-7.3,36.9 h-14.2L277.3,1.2h13.9l7.6,39.1h0.1l7.9-39.1h13.1l7.9,39.1h0.1l7.6-39.1h13.9L334.7,54.7z M354.7,2.6c0-0.6-0.5-1-1.1-0.9 c0,0,0,0-0.1,0c-0.5-0.1-0.9,0.2-1,0.7v0.1c0,0.6,0.7,0.6,1.5,0.8s1.4,0.4,1.4,1.3c-0.1,0.8-0.8,1.5-1.7,1.4h-0.1 c-0.9,0.1-1.7-0.5-1.9-1.4c0-0.1,0-0.2,0-0.2h0.6c0,0.6,0.5,1.1,1.2,1.1h0.1c0.5,0.1,1-0.2,1.1-0.7V4.7c0-0.6-0.7-0.7-1.4-0.9 s-1.5-0.4-1.5-1.2c0.1-0.8,0.7-1.4,1.5-1.3h0.1c0.8-0.1,1.5,0.4,1.6,1.2c0,0.1,0,0.1,0,0.2L354.7,2.6L354.7,2.6z M359.9,1.3L358.5,5 L357,1.3h-0.8v4.5h0.6V2l0,0l1.4,3.8h0.5l1.4-3.8l0,0v3.8h0.6V1.3H359.9z M73.4,107.5h-5l-5.3-16.7h4.6l3.3,12.4l0,0l3.3-12.4h4.6 L73.4,107.5z M87.7,90.8h4.4v16.7h-4.4V90.8z M102.6,90.8h4.5l5.8,10.3h0.1V90.8h4.1v16.7h-4.5l-5.8-10.4h-0.1v10.4h-4.1V90.8 L102.6,90.8z M136.1,101.3v6.2h-4.4v-6.2l-6.1-10.5h4.9l3.3,6.8l3.3-6.8h4.9L136.1,101.3z M153.7,90.8h4.4l6.3,16.7h-4.6l-1-3H153 l-1.1,3h-4.5L153.7,90.8z M153.9,101.3h3.8l-1.9-5.8l0,0L153.9,101.3z M176.6,101.9c0.1,2,1.3,2.6,3.2,2.6c1.3,0,2.7-0.5,2.7-1.7 c0-1.5-2.4-1.8-4.8-2.4c-2.4-0.7-4.9-1.8-4.9-4.8c0-3.7,3.7-5.1,6.8-5.1c3.3,0,6.7,1.6,6.7,5.4h-4.4c0.1-1.5-1.4-2-2.7-2 c-0.9,0-2.1,0.3-2.1,1.4c0,1.3,2.4,1.5,4.9,2.2c2.4,0.7,4.9,1.8,4.9,4.8c0,4.2-3.6,5.6-7.3,5.6c-3.8,0-7.2-1.7-7.3-6H176.6 L176.6,101.9z M201,90.8h4.4l6.3,16.7h-4.6l-1-3h-5.8l-1.1,3h-4.5L201,90.8z M201.3,101.3h3.8l-1.9-5.8l0,0L201.3,101.3z"/>
</svg>