<svg version="1.1" xmlns="http://www.w3.org/2000/svg" x="0px" y="0px" width="500px" height="236px" viewBox="0 0 500 236">
<path fill="#4f748b" d="M390.16,60.46L345.73,1.62h15.62l44.43,58.84H390.16z M500,1.62h-15.61l-64,84.61l-4.02,5.63l-70.63,93.71
	h15.61l61.39-81.5l61.65,81.5H500l-69.32-91.97L500,1.62z"/>
<polygon fill="#ffffff" points="84.47,100.26 160.02,100.26 160.02,186.91 172.56,186.91 172.56,87.73 84.47,87.73 "/>
<path fill="#ffffff" d="M181.73,1.08h148.74v12.53H262.5V186.1h-12.53V13.61h-68.24V1.08z M166.21,35.42
	C148.44,12.9,121.78,0,93.03,0C41.74,0,0,41.98,0,93.6c0,48.8,35.04,90.98,87.17,93.03l41.35,0.28v-12.88l-35.83-0.17
	c-5.18-0.02-10.37-0.38-15.45-1.4c-37.03-7.41-64.71-40.26-64.71-78.86c0-44.55,36.12-80.8,80.5-80.8c25,0,48.13,11.03,63.5,30.26
	l3.62,5.17l10.18-8.15L166.21,35.42z"/>
<path fill="#ffffff" d="M404.5,212.88c-0.47-3.37-3.09-5.15-6.74-5.15c-5.61,0-7.77,4.96-7.77,9.92c0,4.96,2.15,9.92,7.77,9.92
	c4.07,0,6.41-2.34,6.74-6.18h8.7c-0.47,8.61-6.78,13.66-15.25,13.66c-10.1,0-16.65-7.72-16.65-17.4c0-9.68,6.55-17.4,16.65-17.4
	c7.2,0,15.02,4.58,15.25,12.63H404.5z M457.24,220.55c0,9.68-4.45,14.5-14.55,14.5c-10.11,0-14.55-4.82-14.55-14.5v-19.6h8.7v20.12
	c0,4.3,1.59,6.5,5.85,6.5c4.26,0,5.85-2.2,5.85-6.5v-20.12h8.7V220.55z M500,208.43h-9.96v25.92h-8.7v-25.92h-9.96v-7.49H500V208.43
	z"/>
</svg>
