<svg version="1.1" xmlns="http://www.w3.org/2000/svg" x="0px" y="0px" width="500px" height="236px" viewBox="0 0 500 236">
<path fill="#4f748b" d="M390.16,60.46L345.73,1.62h15.62l44.43,58.84H390.16z M500,1.62h-15.61l-64,84.61l-4.02,5.63l-70.63,93.71
	h15.61l61.39-81.5l61.65,81.5H500l-69.32-91.97L500,1.62z"/>
<polygon fill="#ffffff" points="84.47,100.26 160.02,100.26 160.02,186.91 172.56,186.91 172.56,87.73 84.47,87.73 "/>
<path fill="#ffffff" d="M181.73,1.08h148.74v12.53H262.5V186.1h-12.53V13.61h-68.24V1.08z M166.21,35.42
	C148.44,12.9,121.78,0,93.03,0C41.74,0,0,41.98,0,93.6c0,48.8,35.04,90.98,87.17,93.03l41.35,0.28v-12.88l-35.83-0.17
	c-5.18-0.02-10.37-0.38-15.45-1.4c-37.03-7.41-64.71-40.26-64.71-78.86c0-44.55,36.12-80.8,80.5-80.8c25,0,48.13,11.03,63.5,30.26
	l3.62,5.17l10.18-8.15L166.21,35.42z"/>
<path fill="#ffffff" d="M345.37,202.6h14.87c5.48-0.09,11.49,1.34,11.49,7.97c0,2.85-1.69,5.16-4.18,6.41
	c3.38,0.98,5.48,3.92,5.48,7.52c0,7.57-5.57,9.88-12.38,9.88h-15.27V202.6z M353.65,215.11h6.41c1.42,0,3.38-0.76,3.38-3.03
	c0-2.32-1.65-3.07-3.38-3.07h-6.41V215.11z M353.65,227.75h6.63c2.63,0,4.45-0.93,4.45-3.56c0-2.81-1.96-3.74-4.45-3.74h-6.63
	V227.75z M415,221.25c0,9.22-4.23,13.8-13.85,13.8c-9.62,0-13.85-4.58-13.85-13.8V202.6h8.28v19.15c0,4.09,1.51,6.19,5.57,6.19
	c4.05,0,5.56-2.09,5.56-6.19V202.6H415V221.25z M430.5,202.6h16.2c5.61,0,11.13,2.54,11.13,8.95c0,3.43-1.65,6.68-4.99,7.97v0.09
	c3.38,0.8,4.36,4.58,4.63,7.61c0.09,1.34,0.22,6.01,1.34,7.17h-8.19c-0.71-1.07-0.85-4.18-0.93-5.07c-0.22-3.21-0.76-6.5-4.63-6.5
	h-6.28v11.57h-8.28V202.6z M438.78,216.4h6.95c2.49,0,3.83-1.34,3.83-3.74c0-2.36-1.87-3.43-4.18-3.43h-6.59V216.4z M472.58,202.6
	h8.5l11.04,19.59h0.09V202.6H500v31.79h-8.5l-11.04-19.81h-0.09v19.81h-7.79V202.6z"/>
</svg>
