<svg xmlns="http://www.w3.org/2000/svg" width="484px" height="96px" viewBox="0 0 484 96">
	<path fill="#3874A6" d="M32.5,38.3L14.4,59.4V38.3H0v55.2h14.4v-17l5.9-6.2l14.8,23.2h17.8L30,60l20.4-21.7H32.5z M99.8,82.2 c-9.3,0-12.8-8.2-12.8-16.4s3.6-16.4,12.8-16.4s12.8,8.2,12.8,16.4S109,82.2,99.8,82.2 M99.8,37.1c-17.4,0-27.2,12.7-27.2,28.7 s9.8,28.7,27.2,28.7S127,81.8,127,65.9S117.1,37.1,99.8,37.1 M266.9,81.9h-11.5V69.2h11.5c4.3,0,7.7,1.6,7.7,6.5 C274.6,80.3,271.5,81.9,266.9,81.9 M255.4,49.4h11.1c3,0,5.9,1.3,5.9,5.3S269,60,266.5,60h-11.1V49.4z M279.5,63.2 c4.4-2,7.2-6.3,7.3-11.1c0-11.5-10.4-14-19.9-13.8H241v55.1h26.5c11.8,0,21.5-4,21.5-17.1C289,70,285.4,64.9,279.5,63.2 M314.2,38.3 h14.4v55.2h-14.4V38.3z M389.8,72.3h-0.2l-19.1-34h-14.8v55.2h13.5V59h0.2l19.2,34.4h14.8V38.3h-13.5V72.3z M421.6,38.3h43.6v10.4 h-43.6V38.3z M421.6,59.1h43.6v10.4h-43.6V59.1z M421.6,83h43.6v10.4h-43.6V83z M200.5,38.3h13.2v55.2h-13.2V38.3z M187.8,50.7 l-4.9,4.9l-17.4-17.4l0,0.1v-0.1h-13.2v55.2h13.2V54.6L182.9,72l8.2-8.2l0,0l4.9-4.9L187.8,50.7z M0,0h5.5v8.1l7-8.1h6.9l-7.8,8.4 l8.8,12.9h-6.9l-5.7-8.9l-2.3,2.4v6.5H0V0z M28.8,0h16.9v4.4H34.3v3.7h10.4v4.3H34.3v4H46v4.8H28.8V0z M72.7,4.8h-6.3v16.5h-5.5V4.8 h-6.3V0h18.2V4.8z M98.7,4.8h-6.3v16.5h-5.5V4.8h-6.3V0h18.2V4.8z M107.8,0h5.5v16.5h9.9v4.8h-15.4V0z M132.7,0h16.9v4.4h-11.4v3.7 h10.4v4.3h-10.4v4h11.7v4.8h-17.2V0z M165.3,16.8h4.4c1.8,0,3-0.6,3-2.4s-1.3-2.5-3-2.5h-4.4V16.8z M165.3,8.4h4.3 c1.1,0.1,2.1-0.7,2.3-1.8c0-0.1,0-0.1,0-0.2c0-1.1-0.8-2-1.9-2.1c-0.1,0-0.2,0-0.3,0h-4.3V8.4L165.3,8.4z M159.8,0h9.9 c3.7-0.1,7.7,0.9,7.7,5.3c0,1.9-1.1,3.5-2.8,4.3c2.2,0.6,3.7,2.7,3.7,5c0,5.1-3.7,6.6-8.3,6.6h-10.2L159.8,0L159.8,0z M187.9,0h16.9 v4.4h-11.4v3.7h10.4v4.3h-10.4v4h11.7v4.8h-17.2V0z M215,0h5.5v16.5h9.9v4.8H215V0z M239.9,0h5.5v16.5h9.9v4.8h-15.4V0z M476.4,39.9 c0-0.7-0.6-1.2-1.3-1.1c0,0-0.1,0-0.1,0c-0.5-0.1-1.1,0.2-1.2,0.7c0,0.1,0,0.1,0,0.2c0,0.7,0.9,0.8,1.8,1s1.8,0.5,1.8,1.6 s-1.2,1.6-2.2,1.6c-1.2,0-2.3-0.6-2.3-1.9h0.7c0,0.8,0.7,1.4,1.5,1.3c0,0,0.1,0,0.1,0c0.6,0.1,1.2-0.2,1.4-0.9c0,0,0-0.1,0-0.1 c0-0.8-0.9-0.9-1.8-1.1s-1.8-0.4-1.8-1.5c0.1-1,0.9-1.7,1.9-1.6c0,0,0.1,0,0.1,0c1-0.1,1.9,0.6,2,1.5c0,0.1,0,0.1,0,0.2L476.4,39.9 L476.4,39.9z M478.3,38.3h1l1.7,4.6l1.8-4.6h1v5.5h-0.7v-4.6h0l-1.7,4.6h-0.6l-1.7-4.6h0v4.6h-0.7V38.3z"/>
</svg>