<svg xmlns="http://www.w3.org/2000/svg" width="1046" height="304" viewBox="0 0 1046 304">
    <g fill="#F8B138" fill-rule="evenodd">
        <path d="M854 90c-.02 41.184-28.233 68.562-70 68h-20l22 22c53.51-.811 90-37.473 90-90 0-52.812-37.925-90-92-90H666v304h22V22h96c41.767.085 69.98 27.553 70 68zM526 240l10 34L642 0h-24l-92 240zm236-60c-18.545-18.331-27.003-22-50-22h-6v22h6c17.167.17 19.483 1.21 36 16l114 108h32L762 180zM208 0l116 304h24L232 0h-24zm-92 0H0v154l22-16V22h94c41.943.086 70.06 27.55 70 68 .06 41.818-27.401 68.562-70 68H38c-20.736.61-37.975 17.965-38 40v106h22V198c-.056-9.831 7.405-17.343 16-18h78c54.212.651 92-36.452 92-90 0-52.817-37.788-90-92-90zm318 0l92 304h-24L424 44l-70 230-12-34L414 0h20zM994 80V68c4.544-1.877 8.308-6.821 8-14 .308-8.295-8.504-15.472-18-16-11.577.528-20.386 7.705-20 16-.386 7.097 3.538 12.123 8 14v12c-10.71-3.588-18-12.92-18-26 0-14.274 12.736-26 30-26 15.264 0 28 11.726 28 26 0 13.32-7.13 22.57-18 26zm16 38v12l-34-18h-20v-12h20l34-18v12l-24 12 24 12zm-16 64v-12c4.544-1.877 8.308-6.821 8-14 .308-8.295-8.504-15.472-18-16-11.577.528-20.386 7.705-20 16-.386 7.097 3.538 12.123 8 14v12c-10.71-3.588-18-12.92-18-26 0-14.278 12.736-26 30-26 15.264 0 28 11.722 28 26 0 13.32-7.13 22.57-18 26zm16 20h-44v28h-10v-38h54v10zm0 76h-10v-30h-12v26h-8v-26h-14v30h-10v-40h54v40zm-90 26h126V2H920v302z"/>
    </g>
</svg>
