<svg version="1.1" xmlns="http://www.w3.org/2000/svg" x="0px" y="0px" width="769px" height="89px" viewBox="0 0 769 89">
<path fill="#ff4713" d="M236.08,2.66h20.71v84.49h-22.6l-29.35-52.66h-0.24v52.66H183.9V2.66h22.6l29.35,52.07h0.24V2.66z
	 M340.36,57.21h15.39c-1.18,7.69-8.52,12.78-19.41,12.78c-14.2,0-19.64-12.54-19.64-25.09s5.44-25.09,19.64-25.09
	c8.88,0,15.98,4.38,16.68,11.6h22.01c-2.01-21.18-20.71-30.53-38.22-30.53c-25.56,0-42.13,19.53-42.13,44.02
	s16.57,44.02,42.13,44.02c7.81,0,17.75-2.84,23.55-11.01l1.3,9.23h14.2V40.88h-35.5V57.21z M79.99,47.49
	c3.23-4.23,4.85-9.72,4.85-16.46c0-8.1-2.6-14.8-7.79-20.1c-5.19-5.3-12.31-7.95-21.35-7.95H-0.32L6.5,22.02h46.15
	c3,0,5.5,0.69,7.49,2.29c1.99,1.6,2.99,3.8,2.99,6.6c0,2.84-0.99,5.06-2.96,6.66c-1.97,1.6-4.48,2.41-7.52,2.41H12.82l6.9,18.93
	h26.84l14.18,28.3h24.48L68.35,56.24C72.88,54.64,76.76,51.72,79.99,47.49z M120.82,87.15h22.01V2.66h-22.01V87.15z M768.68,20.29
	V2.66h-68.52v84.49h68.52V68.22h-46.51V52.12h46.51V35.08h-46.51V20.29H768.68z M620.62,2.66H580.7l7.14,18.93h28.88
	c15.03,0,23.31,7.46,23.31,22.84c0,16.92-6.63,23.43-23.31,23.79H606.3V39.67h-22.01v47.49h36.33c25.68,0,41.42-14.91,41.42-42.6
	C662.04,18.4,646.54,2.66,620.62,2.66z M460.13,36.26c-12.31-3.43-24.5-4.61-24.5-11.12c0-5.56,5.92-7.22,10.65-7.22
	c6.75,0,13.96,2.49,13.61,10.18h22.01c-0.12-19.05-17.04-27.22-33.84-27.22c-15.86,0-34.44,7.22-34.44,25.68
	c0,15.5,12.66,20.95,24.73,24.38c12.19,3.43,24.26,4.85,24.26,12.31c0,6.27-6.86,8.64-13.49,8.64c-9.35,0-15.5-3.19-15.98-13.14
	h-22.01c0.12,21.66,17.28,30.18,36.68,30.18c18.58,0,36.8-6.86,36.8-28.28C484.63,45.38,472.32,39.7,460.13,36.26z M520.97,87.15
	h22.01V2.66h-22.01V87.15z"/>
</svg>
