<svg xmlns="http://www.w3.org/2000/svg" width="378px" height="108px" viewBox="0 0 378 108">
	<path fill="#23879F" d="M46,0c4.5,0,8.5,2.8,10,7c1.7,4.6-0.7,9.7-5.3,11.4c-3.8,1.4-8-0.6-9.5-4.4c-0.3-0.8,0.1-1.7,1-2 s1.7,0.1,2,1l0,0c0.8,2.2,3.2,3.3,5.4,2.5l0,0c3-1.1,4.5-4.3,3.4-7.3c-1.4-3.9-5.7-5.9-9.6-4.5l0,0c-1.5,0.6-2.9,1.5-4,2.8l-0.1,0.1 c-4.3,4.1-6.6,12.6-5.4,19.8c1.5,8.8,7.7,16,16.1,18.8c0.8,0.3,1.3,1.2,1,2s-1.2,1.3-2,1C39.5,45,32.5,36.8,30.7,26.9 c-1.4-8.2,1.2-17.7,6.2-22.6c1.4-1.6,3.2-2.8,5.3-3.6C43.5,0.2,44.7,0,46,0 M10.4,0c1.3,0,2.5,0.2,3.7,0.6c2,0.7,3.8,2,5.3,3.6 c5,4.8,7.7,14.3,6.2,22.6c-1.7,9.9-8.7,18.1-18.2,21.3c-0.8,0.3-1.7-0.2-2-1s0.2-1.7,1-2C14.8,42.2,21,35,22.5,26.2 c1.2-7.2-1.1-15.7-5.3-19.8l-0.1-0.1c-1.1-1.2-2.5-2.2-4-2.8C9.2,2.1,4.9,4.1,3.5,7.9l0,0c-1.1,3,0.4,6.2,3.4,7.3 c2.2,0.8,4.6-0.3,5.4-2.5c0.3-0.8,1.2-1.3,2-1s1.3,1.2,1,2l0,0c-1.4,3.8-5.7,5.8-9.5,4.4c-4.6-1.7-7-6.8-5.3-11.4l0,0 C1.9,2.8,5.9,0,10.4,0 M28.2,40.5c0.9,0,1.6,0.7,1.6,1.5l0,0v11.6c0,0.9-0.7,1.6-1.6,1.6s-1.6-0.7-1.6-1.6V42 C26.6,41.2,27.3,40.5,28.2,40.5 M96.6,24.2h11.6c4.2,0,6.4-2.2,6.4-6.2s-3.1-5.7-7-5.7h-11V24.2L96.6,24.2z M82.8,1.3h27 c9.3,0,18.5,4.2,18.5,14.9c0,5.7-2.7,11.1-8.3,13.3v0.1c5.6,1.3,7.3,7.6,7.7,12.7c0.2,2.2,0.4,10,2.2,11.9h-13.6 c-1.2-1.8-1.4-7-1.6-8.4c-0.4-5.3-1.3-10.8-7.7-10.8H96.6v19.3H82.8V1.3z M183.7,43.4c8.9,0,12.3-7.8,12.3-15.7S192.6,12,183.7,12 c-8.9,0-12.3,7.9-12.3,15.7C171.4,35.5,174.8,43.4,183.7,43.4 M183.7,0.1c16.7,0,26.1,12.2,26.1,27.6s-9.4,27.6-26.1,27.6 s-26.1-12.2-26.1-27.6S167,0.2,183.7,0.1 M264.8,43.4c8.9,0,12.3-7.8,12.3-15.7S273.7,12,264.8,12s-12.3,7.9-12.3,15.7 C252.5,35.5,255.9,43.4,264.8,43.4 M264.8,0.1c16.7,0,26.1,12.2,26.1,27.6c0,15.3-9.4,27.6-26.1,27.6s-26.1-12.2-26.1-27.6 S248.1,0.2,264.8,0.1 M363,13.1h-15.8v41.1h-13.7V13.1h-15.8V1.3H363V13.1z M371.1,2.6c0-0.6-0.5-1-1.1-0.9l0,0 c-0.5-0.1-0.9,0.2-1,0.7v0.1c0,0.6,0.7,0.6,1.4,0.8c0.7,0.2,1.4,0.4,1.4,1.3c-0.1,0.8-0.8,1.4-1.7,1.3c0,0,0,0-0.1,0 c-0.9,0.1-1.7-0.5-1.8-1.4c0-0.1,0-0.2,0-0.2h0.5c0,0.6,0.5,1.1,1.2,1.1h0.1c0.5,0.1,1-0.2,1.1-0.7V4.6c0-0.6-0.7-0.7-1.4-0.9 c-0.7-0.2-1.4-0.4-1.4-1.2c0.1-0.8,0.7-1.4,1.5-1.3h0.1c0.8-0.1,1.5,0.4,1.6,1.2c0,0.1,0,0.1,0,0.2H371.1L371.1,2.6z M376.2,1.3 l-1.4,3.8l-1.4-3.8h-0.8v4.5h0.6V2.1l0,0l1.4,3.7h0.5l1.4-3.7l0,0v3.7h0.5V1.3H376.2z M82.8,91.1H95v3.5h-7.9V98h6.8v3.3h-6.8v6.4 h-4.3V91.1z M118.7,100.8c0,4.8-2.2,7.2-7.2,7.2s-7.2-2.4-7.2-7.2v-9.7h4.3v10c0,2.1,0.8,3.2,2.9,3.2s2.9-1.1,2.9-3.2v-10h4.3 C118.7,91.1,118.7,100.8,118.7,100.8z M129.1,91.1h4.4l5.7,10.2h0.1V91.1h4.1v16.5H139l-5.7-10.3h-0.1v10.3h-4L129.1,91.1 L129.1,91.1z M153.8,91.1h7.1c5.1,0,8.1,3.1,8.1,8.2c0,5.4-3.1,8.3-8.1,8.3h-7.1V91.1z M158.1,104h2c3.3-0.1,4.6-1.3,4.6-4.7 c0-3-1.6-4.5-4.6-4.5h-2V104L158.1,104z M183.4,91.1h4.4l6.2,16.5h-4.5l-1-3h-5.8l-1,3h-4.4L183.4,91.1z M183.7,101.5h3.8l-1.8-5.8 l0,0L183.7,101.5z M202.8,91.1h6.4l2.9,11l0,0l2.9-11h6.4v16.5h-4.1V95l0,0l-3.5,12.5h-3.3L207,95l0,0v12.5h-4.2V91.1z M231.7,91.1 h13.2v3.5H236v2.9h8.1v3.3H236v3.2h9.1v3.7h-13.4V91.1z M255.1,91.1h4.4l5.7,10.2l0,0V91.1h4v16.5h-4.4l-5.7-10.3l0,0v10.3H255 L255.1,91.1L255.1,91.1z M292.9,94.8H288v12.8h-4.3V94.8h-4.9v-3.7H293v3.7H292.9z M304.7,91.1h4.4l6.2,16.5h-4.5l-1-3H304l-1,3 h-4.5L304.7,91.1z M305,101.5h3.8l-1.8-5.8l0,0L305,101.5z M324,91.1h4.3V104h7.7v3.7h-12V91.1L324,91.1z M349,102.1 c0.1,1.9,1.3,2.6,3.1,2.6c1.3,0,2.6-0.5,2.6-1.7c0-1.5-2.4-1.7-4.8-2.4c-2.4-0.7-4.8-1.7-4.8-4.8c0-3.6,3.6-5,6.7-5 c3.3,0,6.6,1.6,6.6,5.3h-4.3c0.1-1.5-1.3-2-2.7-2c-0.9,0-2.1,0.3-2.1,1.4c0,1.3,2.4,1.5,4.8,2.2c2.4,0.7,4.8,1.8,4.8,4.8 c0,4.2-3.6,5.5-7.2,5.5c-3.8,0-7.2-1.7-7.2-5.9H349L349,102.1z"/>
</svg>