<svg version="1.1" xmlns="http://www.w3.org/2000/svg" x="0px" y="0px" width="108px" height="43px" viewBox="0 0 108 43">
<path fill="#23879f" d="M11.8,17.4l-0.4-0.3c-1.8-1.5-4-2.3-6.3-2.3c-1.6,0-3.2,0.4-4.6,1.2l-0.6-1c1.6-0.9,3.4-1.3,5.2-1.3
	c2.4,0,4.7,0.8,6.6,2.3c1.9-1.5,4.2-2.3,6.7-2.3c1.8,0,3.6,0.5,5.2,1.3L23,16c-1.4-0.8-3-1.2-4.6-1.2c-2.3,0-4.5,0.8-6.3,2.3
	L11.8,17.4z M11.8,22.3l-2.2-1.9c-1.2-1-2.8-1.6-4.4-1.6c-1.1,0-2.3,0.3-3.3,0.8l-0.6-1c1.2-0.6,2.5-1,3.8-1c1.9,0,3.8,0.7,5.2,1.9
	l1.4,1.3l1.4-1.3c1.4-1.2,3.3-1.9,5.2-1.9c1.3,0,2.6,0.3,3.8,1l-0.6,1c-1-0.5-2.1-0.8-3.3-0.8c-1.6,0-3.2,0.6-4.5,1.6L11.8,22.3z
	 M11.8,6.8c-0.3,0-0.6-0.3-0.6-0.6V0.9c0-0.3,0.3-0.6,0.6-0.6s0.6,0.3,0.6,0.6v5.3C12.4,6.6,12.2,6.8,11.8,6.8 M7.4,9.2
	C7.2,9.2,7.1,9.1,7,9L3.2,5.3C3,5,3,4.7,3.2,4.5s0.6-0.2,0.8,0l3.8,3.8C8,8.4,8,8.8,7.8,9C7.7,9.1,7.5,9.2,7.4,9.2 M16.3,9.2
	c-0.1,0-0.3-0.1-0.4-0.2c-0.2-0.2-0.2-0.6,0-0.8l3.8-3.8c0.2-0.2,0.6-0.2,0.8,0c0.2,0.2,0.2,0.6,0,0.8L16.7,9
	C16.6,9.1,16.5,9.2,16.3,9.2 M29.8,14.7c0,5.5,4.4,7.7,9.3,7.7c4.7,0,9.3-1.7,9.3-7.2c0-3.9-3.1-5.3-6.2-6.2C39.1,8.1,36,7.8,36,6.2
	c0-1.4,1.5-1.8,2.7-1.8c1.7,0,3.5,0.6,3.4,2.6h5.6c0-4.8-4.3-6.9-8.5-6.9c-4,0-8.7,1.8-8.7,6.5c0,3.9,3.2,5.3,6.2,6.2
	c3.1,0.9,6.1,1.2,6.1,3.1c0,1.6-1.7,2.2-3.4,2.2c-2.4,0-3.9-0.8-4-3.3h-5.6V14.7z M69.3,0c-6.7,0-10.5,5-10.5,11.2
	s3.8,11.2,10.5,11.2s10.5-5,10.5-11.2S76,0,69.3,0z M69.3,17.5c-3.6,0-5-3.2-5-6.4s1.4-6.4,5-6.4s5,3.2,5,6.4S72.9,17.5,69.3,17.5z
	 M91.5,21.9H107v-4.8h-9.9V0.4h-5.6V21.9z M37.3,39.2h-2.8v1.3h1.2c-0.1,0.6-0.7,1-1.5,1c-1.1,0-1.6-1-1.6-2s0.4-2,1.6-2
	c0.7,0,1.3,0.3,1.3,0.9h1.7c-0.2-1.7-1.6-2.4-3-2.4c-2,0-3.3,1.6-3.3,3.5s1.3,3.5,3.3,3.5c0.6,0,1.4-0.2,1.9-0.9l0.1,0.7h1.1V39.2z
	 M47.5,36.1h-1.7v4c0,0.9-0.3,1.3-1.2,1.3s-1.2-0.4-1.2-1.3v-4h-1.7V40c0,1.9,0.9,2.9,2.9,2.9s2.9-1,2.9-2.9V36.1z M52,36.1h1.7v6.7
	H52V36.1z M61.2,36.1h-2.9v6.7h2.9c2,0,3.3-1.2,3.3-3.4C64.5,37.4,63.3,36.1,61.2,36.1z M60.9,41.4h-0.8v-3.7h0.8
	c1.2,0,1.9,0.6,1.9,1.8C62.7,40.8,62.2,41.3,60.9,41.4z M68.7,42.9h5.5v-1.5h-3.7v-1.3h3.3v-1.4h-3.3v-1.2h3.6v-1.4h-5.4V42.9z
	 M81.4,36.1h-2.9v6.7h2.9c2,0,3.3-1.2,3.3-3.4C84.7,37.4,83.5,36.1,81.4,36.1z M81.1,41.4h-0.8v-3.7h0.8c1.2,0,1.9,0.6,1.9,1.8
	C83,40.8,82.5,41.3,81.1,41.4z"/>
</svg>
