<svg xmlns="http://www.w3.org/2000/svg" width="397px" height="59px" viewBox="0 0 397 59">
	<path fill="#C7222E" d="M48.9,41.4H34.3c0,0,0,0.1,0,0.1c0,1.6-0.8,3.2-2.2,4.1h16.1C48.5,44.2,48.8,42.8,48.9,41.4 M33.8,39.7h15.1 c0-1.4-0.2-2.8-0.6-4.2H26.6C30.1,36.6,32.8,37.7,33.8,39.7 M18.1,45.6c-1.5-1-2.5-2.5-2.9-4.2H0.2c0.2,1.4,0.5,2.8,0.9,4.2H18.1z M1.7,16.2h14.6c0,0,0,0,0-0.1c0-1.9,1.2-3.5,3-4.1H2.5C2,13.4,1.7,14.8,1.7,16.2 M26.8,22.1c-4.6-1.1-8.5-2.2-9.9-4.2H1.7 c0.1,1.4,0.3,2.8,0.8,4.2H26.8z M32.3,16.2H47c-0.1-1.4-0.4-2.8-0.9-4.2h-18C30.1,12.6,31.7,14.2,32.3,16.2 M44.9,29.7H9 c2.9,1.6,5.9,2.8,9.1,3.6l1.9,0.5h27.8C47.1,32.3,46.1,30.9,44.9,29.7 M14.7,38.5H0c0,0.4,0,0.8,0,1.2h14.8 C14.8,39.3,14.7,38.9,14.7,38.5 M33.5,23.8H3.2c0.8,1.6,2,3,3.4,4.2h36.2C39.9,26.1,36.8,24.7,33.5,23.8 M1.8,47.3 c0.7,1.5,1.6,2.9,2.7,4.2H45c1.1-1.2,1.9-2.6,2.6-4.2H1.8z M3.2,10.3h42.2c-0.8-1.5-1.8-2.9-3-4.2H6.2C5,7.4,3.9,8.8,3.2,10.3 M32.5,18.1h14.7c0-0.1,0-0.1,0-0.2H32.5C32.5,18,32.5,18,32.5,18.1 M6.4,53.2c4.6,3.8,11.1,5.4,18.1,5.4s14.1-1.5,18.8-5.4H6.4z M40.2,4.5C36,1.4,30.2,0,24.6,0S12.9,1.3,8.4,4.5H40.2z M333.1,41.4v4.2h45.6v-0.8h-31v-3.4H333.1z M333.1,12.1v4.2h14.7v-3.3h30.2 v-0.9H333.1z M333.1,6.2h44.8v4.1h-44.8V6.2z M333.1,1.2h44.8v3.3h-44.8V1.2z M333.1,47.3h45.6v4.2h-45.6V47.3z M333.1,53.2h45.6 v4.3h-45.6V53.2z M333.1,35.6h14.7v4.2h-14.7V35.6z M333.1,29.7h42.2v4.2h-42.2V29.7z M333.1,17.9h14.7v4.2h-14.7V17.9z M333.1,23.8 h42.2V28h-42.2V23.8z M85.8,29.7h14.7v4.2H85.8V29.7z M85.8,23.8h14.7V28H85.8V23.8z M85.8,35.6h14.7v4.2H85.8V35.6z M69.1,13.8 h16.8v2.4h14.7v-2.4h16.8v-1.7H69.1V13.8z M85.8,17.9h14.7v4.2H85.8V17.9z M69.1,1.2h48.2v3.3H69.1V1.2z M85.8,41.4h14.7v4.2H85.8 V41.4z M85.8,53.2h14.7v4.3H85.8V53.2z M85.8,47.3h14.7v4.2H85.8V47.3z M69.1,6.2h48.2v4.1H69.1V6.2z M139.8,16.2h14.7v-3.3h11.7 c3,0,5.6,1,6.8,3.3h15.3c0-1.4-0.3-2.8-0.7-4.2h-47.7V16.2z M139.8,17.9h14.7v4.2h-14.7V17.9z M183.7,33.8c-1.2-1.3-2.7-2.2-4.3-2.6 v-0.2c1-0.4,1.9-0.9,2.7-1.4h-42.3v4.2H183.7L183.7,33.8z M184.9,35.6h-45.2v4.2h14.7v-2.8h11.1c2.9,0,4.8,1.1,6,2.8h15.1 C186.3,38.2,185.8,36.8,184.9,35.6 M139.8,23.8V28h44.3c1.1-1.2,2.1-2.6,2.7-4.2h-15c-1.4,1.3-3.2,1.9-5.1,1.8h-12.2v-1.8H139.8z M173.4,19c0,1.1-0.2,2.1-0.6,3.1h14.6c0.4-1.4,0.6-2.7,0.7-4.2h-14.7C173.5,18.3,173.5,18.6,173.4,19 M181.4,4.5 c-3.9-2.3-8.4-3.4-13-3.3h-28.7v3.3H181.4z M174.2,53.2c0.1,1.5,0.5,2.9,1.2,4.3h14.5c-0.9-1.3-1.4-2.7-1.6-4.3H174.2z M139.8,53.2 h14.7v4.3h-14.7V53.2z M139.8,41.4h14.7v4.2h-14.7V41.4z M187.5,44.8c-0.1-1.1-0.2-2.2-0.5-3.3h-14.6c0.5,1.3,0.8,2.7,1,4.2h14.1 C187.6,45.3,187.6,45,187.5,44.8 M139.8,47.3h14.7v4.2h-14.7V47.3z M187.7,47.3h-14c0,0.4,0.1,0.8,0.1,1.2c0.1,0.6,0.1,1.7,0.3,3h14 C187.9,50,187.7,48.6,187.7,47.3 M139.8,10.3h47c-0.7-1.6-1.8-3-3.1-4.2h-43.9V10.3z M295.9,35.6h-17.2l2.7,4.2h17.4L295.9,35.6z M257,29.7v4.2h20.6l0,0l0,0h17.1l-2.9-4.2H257z M257,23.8V28h33.8l-2.9-4.2H257z M280.8,12.1l-3.5,4.2h17l3.9-4.2H280.8z M275.8,17.9l-3.6,4.1h16.5l3.9-4.1H275.8z M257,12.1h14.7v4.2H257V12.1z M257,35.6v4.2h15l4-4.2H257z M257,17.9h14.7v4.2H257V17.9z M305.2,4.5l3.1-3.3h-18.2l-2.8,3.3H305.2z M257,1.2h14.7v3.3H257V1.2z M304,47.3h-17.7l2.7,4.1h17.9L304,47.3z M257,53.2h14.7v4.3 H257V53.2z M290,53.2l2.7,4.3h18.2l-2.9-4.3H290z M257,47.3h14.7v4.2H257V47.3z M300,41.4h-17.5l2.7,4.2h17.7L300,41.4z M257,41.4 h14.7v4.2H257V41.4z M282.3,10.3h17.5l3.9-4.1h-17.8L282.3,10.3z M257,6.2h14.7v4.1H257V6.2z M215.2,35.6h14.7v4.2h-14.7V35.6z M215.2,12.1h14.7v4.2h-14.7V12.1z M215.2,29.7h14.7v4.2h-14.7V29.7z M215.2,23.8h14.7V28h-14.7V23.8z M215.2,17.9h14.7v4.2h-14.7 V17.9z M215.2,1.2h14.7v3.3h-14.7V1.2z M215.2,53.2h14.7v4.3h-14.7V53.2z M215.2,41.4h14.7v4.2h-14.7V41.4z M215.2,47.3h14.7v4.2 h-14.7V47.3z M215.2,6.2h14.7v4.1h-14.7V6.2z M389.2,2.8c0-0.7-0.6-1.2-1.3-1.1c0,0-0.1,0-0.1,0c-0.5-0.1-1.1,0.2-1.2,0.7 c0,0.1,0,0.1,0,0.2c0,0.7,0.9,0.8,1.8,1s1.8,0.5,1.8,1.6s-1.1,1.7-2.2,1.7c-1.2,0-2.3-0.6-2.3-2h0.7c0,0.8,0.7,1.4,1.5,1.3 c0.1,0,0.1,0,0.2,0c0.6,0.1,1.2-0.2,1.4-0.9c0,0,0-0.1,0-0.1c0-0.8-0.9-0.9-1.8-1.1s-1.8-0.5-1.8-1.5c0.1-1,0.9-1.7,1.9-1.6 c0,0,0.1,0,0.1,0c1-0.1,1.9,0.6,2,1.5c0,0.1,0,0.1,0,0.2L389.2,2.8L389.2,2.8z M391,1.2h1l1.7,4.6l1.8-4.6h1v5.5h-0.7V2.1h0 l-1.7,4.6h-0.6l-1.7-4.6h0v4.6H391V1.2z"/>
</svg>