<svg xmlns="http://www.w3.org/2000/svg" width="212px" height="59px" viewBox="0 0 212 59">
	<path fill="#D8882F" d="M19.1,54.3h10.6V13h15.8V4.4H3.3V13h15.8V54.3L19.1,54.3z M33,57.5H15.8V16.3H0V1.1h48.8v15.2H33V57.5z M175.6,54.3h12.8L170.8,28l16.1-23.6h-11.7l-10.4,18.2l-9.9-18.2h-12.2L158.8,28L141,54.2h11.9l11.8-19.3L175.6,54.3z M194.5,57.5 h-20.8l-9.1-16.1l-9.9,16.1h-19.9l20-29.5L136.4,1.1h20.4l8,14.8l8.5-14.8H193L174.7,28L194.5,57.5z M94.9,3.3 c-14.4,0-24.9,11-24.9,26s10.5,26,24.9,26c12.5,0,21.1-7.2,22.5-18.5h-10.6c-1.1,6.2-5.5,9.8-12.1,9.8c-8.5,0-14-6.8-14-17.4 s5.5-17.4,14-17.4c6.3,0,10.7,3,12.1,8.2h10.7C116.1,9.5,105.2,3.3,94.9,3.3 M94.9,58.6c-16.3,0-28.1-12.3-28.1-29.3S78.6,0,94.9,0 c12.4,0,25.5,8.1,25.9,21.7v1.7h-16.9l-0.2-1.4c-0.8-5.9-6.1-6.8-9.1-6.8c-9.9,0-10.7,10.8-10.7,14.1s0.7,14.2,10.7,14.2 c5.5,0,8.6-2.9,9.1-8.3l0.1-1.5h17.1l-0.1,1.7C120,49.5,109.9,58.6,94.9,58.6 M204,2.7c0-0.7-0.6-1.2-1.3-1.1c0,0-0.1,0-0.1,0 c-0.5-0.1-1.1,0.2-1.2,0.7c0,0.1,0,0.1,0,0.2c0,0.7,0.9,0.8,1.8,1S205,4,205,5.1s-1.1,1.6-2.1,1.6c-1.2,0-2.3-0.6-2.3-2h0.7 c0,0.8,0.7,1.4,1.5,1.3c0.1,0,0.1,0,0.2,0c0.6,0.1,1.2-0.2,1.4-0.9c0,0,0-0.1,0-0.1c0-0.8-0.9-0.9-1.8-1.1s-1.8-0.5-1.8-1.5 c0.1-1,0.9-1.7,1.9-1.6c0,0,0.1,0,0.1,0c1-0.1,1.9,0.6,2,1.5c0,0.1,0,0.1,0,0.2L204,2.7L204,2.7z M205.9,1.1h1l1.7,4.6l1.8-4.6h1 v5.5h-0.7V2h0l-1.7,4.6h-0.6L206.6,2h0v4.6h-0.7V1.1z"/>
</svg>