<svg xmlns="http://www.w3.org/2000/svg" width="213px" height="18px" viewBox="0 0 213 18">
	<path fill="#B5B7B7" d="M13.6,14h3.6c1.4,0,2.4-0.5,2.4-1.9c0-1.5-1.1-2-2.4-2h-3.6V14z M13.6,7.2h3.5c0.8,0,1.9-0.4,1.9-1.6 c0-1.3-0.9-1.7-1.9-1.7h-3.5V7.2z M9,0.4h8.2c3,0,6.3,0.7,6.3,4.3c0,1.5-0.9,2.8-2.3,3.5c1.9,0.5,3,2.1,3,4.1c0,4.1-3.1,5.4-6.8,5.4 H9V0.4L9,0.4z M41.5,14.1c2.9,0,4.1-2.6,4.1-5.1s-1.1-5.1-4.1-5.1c-2.9,0-4.1,2.6-4.1,5.1S38.6,14.1,41.5,14.1z M41.5,0 c5.5,0,8.6,4,8.6,9s-3.1,9-8.6,9c-5.5,0-8.6-4-8.6-9S36,0,41.5,0L41.5,0z M68.1,14.1c2.9,0,4.1-2.6,4.1-5.1S71,3.9,68.1,3.9 c-2.9,0-4.1,2.6-4.1,5.1S65.2,14.1,68.1,14.1z M68.1,0c5.5,0,8.6,4,8.6,9s-3.1,9-8.6,9c-5.5,0-8.6-4-8.6-9S62.6,0,68.1,0L68.1,0z M100.6,4.2h-5.2v13.4h-4.6V4.2h-5.2V0.4h15V4.2 M122.1,6.5c-0.2-1.7-1.6-2.7-3.5-2.7c-2.9,0-4.1,2.6-4.1,5.1s1.1,5.1,4.1,5.1 c2.1,0,3.4-1.2,3.5-3.2h4.6c-0.2,4.5-3.5,7.1-8,7.1c-5.3,0-8.7-4-8.7-9s3.4-9,8.7-9c3.8,0,7.9,2.4,8,6.5H122.1 M142.1,11.2h4l-1.9-6 h0L142.1,11.2z M141.9,0.4h4.6l6.5,17.3h-4.7l-1.1-3.1h-6.1l-1.1,3.1h-4.7L141.9,0.4L141.9,0.4z M162.2,0.4h6.7l3,11.5h0l3-11.5h6.7 v17.3h-4.3V4.5h0l-3.7,13.1h-3.5l-3.7-13.1h0v13.1h-4.3V0.4 M197.1,8.4h3.1c1.4,0,2.4-0.6,2.4-2.2c0-1.6-1.1-2.3-2.4-2.3h-3.1V8.4z M192.5,0.4h8.3c3.3,0,6.3,1.5,6.3,5.6c0,4.3-2.5,6-6.3,6h-3.7v5.8h-4.6V0.4L192.5,0.4z M209.9,1c0-0.3-0.3-0.5-0.6-0.5 c-0.3,0-0.5,0.1-0.5,0.4c0,0.3,0.4,0.3,0.7,0.4c0.4,0.1,0.7,0.2,0.7,0.7c0,0.5-0.5,0.7-0.9,0.7c-0.5,0-1-0.2-1-0.8h0.3 c0,0.4,0.3,0.5,0.7,0.5c0.3,0,0.6-0.1,0.6-0.4c0-0.3-0.4-0.4-0.7-0.4c-0.4-0.1-0.7-0.2-0.7-0.6c0-0.5,0.4-0.7,0.8-0.7 c0.5,0,0.8,0.2,0.8,0.7H209.9 M210.7,0.4h0.4l0.7,1.9l0.7-1.9h0.4v2.3h-0.3V0.7h0L212,2.6h-0.3L211,0.7h0v1.9h-0.3V0.4 M0.7,14.9v1 h2.5v0.8H0.7v1H0l0-2.8H0.7 M0,13.1l0-2.6h0.7v1.7h0.6v-1.6h0.6v1.6h0.6v-1.8h0.7v2.6H0 M2,7.7V6.9L0.9,7.3v0L2,7.7z M0,7.7l0-0.9 l3.2-1.2v0.9L2.6,6.7v1.1l0.6,0.2v0.9L0,7.7L0,7.7z M0,4l0-1.2l2.1-0.6v0L0,1.6l0-1.2h3.2v0.8H0.8v0l2.4,0.7v0.6L0.8,3.2v0h2.4V4H0"/>
</svg>