<svg xmlns="http://www.w3.org/2000/svg" width="142px" height="22px" viewBox="0 0 142 22">
	<path fill="#EE7623" d="M24.9,8c-0.4-0.8-1.1-0.8-1.5,0l-1.5,2.8c-0.4,0.8,0,1.4,0.8,1.4h1c0.9,0,1.3,0.2,1.7,1l1.6,3.1 c0.4,0.8,0,1.4-0.8,1.4h-6.5c-0.9,0-1.9,0.6-2.3,1.4l-0.9,1.7c-0.4,0.8-1.4,1.4-2.3,1.4h-3.6c-0.9,0-1.2-0.6-0.8-1.4L20.8,1.4 C21.2,0.6,22.3,0,23.1,0h2.5c0.9,0,1.9,0.6,2.3,1.4L39,20.6c0.4,0.7,0.1,1.4-0.8,1.4H34c-0.9,0-1.9-0.6-2.3-1.4L24.9,8 M127.3,8 l6.8,12.6c0.4,0.8,1.4,1.4,2.3,1.4h4.2c0.9,0,1.2-0.6,0.8-1.4L130.3,1.4C129.9,0.6,128.8,0,128,0h-2.5c-0.9,0-1.9,0.6-2.3,1.4 l-10.9,19.3c-0.4,0.7-0.1,1.4,0.8,1.4h3.6c0.9,0,1.9-0.6,2.3-1.4l0.9-1.7c0.4-0.8,1.4-1.4,2.3-1.4h6.5c0.9,0,1.2-0.6,0.8-1.4 l-1.6-3.1c-0.4-0.8-0.9-1-1.7-1h-1c-0.9,0-1.2-0.6-0.8-1.4l1.5-2.8C126.2,7.3,126.9,7.3,127.3,8 M43.6,22h16.3 c0.5,0,0.9-0.6,0.6-1.1l-1.7-3c-0.4-0.7-1.3-1.4-2.4-1.4h-9.1c-0.9,0-1.6-0.7-1.6-1.6V1.6C45.6,0.7,44.9,0,44,0h-3.4 c-0.9,0-1.6,0.7-1.6,1.6v14.5c0,0.5,0.1,1,0.3,1.5c1,1.8,1.2,2.1,1.8,3.2C41.9,21.8,43.1,22,43.6,22 M105.4,20.4 c0,0.9,0.7,1.6,1.6,1.6h0.5c0.6,0,1.7-0.3,2.3-1.3c0.4-0.7,1-1.8,1.8-3.1c0.3-0.4,0.4-0.9,0.4-1.4V1.6c0-0.9-0.7-1.6-1.6-1.6H107 c-0.9,0-1.6,0.7-1.6,1.6V20.4 M103.5,11.7V9.4c0-0.9-0.7-1.6-1.6-1.6h-7.9c-0.9,0-1.6-0.7-1.6-1.6V1.6C92.5,0.7,91.8,0,91,0h-3.4 c-0.9,0-1.6,0.7-1.6,1.6v18.9c0,0.9,0.7,1.6,1.6,1.6H91c0.9,0,1.6-0.7,1.6-1.6v-5.6c0-0.9,0.7-1.6,1.6-1.6h7.9 C102.8,13.3,103.5,12.6,103.5,11.7 M84,4.5c0-2.4-1.7-4.3-4.8-4.5c-0.1,0-0.2,0-0.3,0h-17c-0.9,0-1.6,0.7-1.6,1.6v14.7 c0,0.7,0.1,0.8,0.4,1.3c0.3,0.5,1.7,3,1.8,3.2c0.7,1.1,1.8,1.3,2.4,1.3h0.2c0.9,0,1.6-0.7,1.6-1.6V6.8c0-0.9,0.7-1.6,1.6-1.6h7.9 c1,0,1.5,0.8,1.5,1.5c0,0.2,0,0.3,0,0.3s0,0.2,0,0.3c0,0.7-0.6,1.5-1.5,1.5h-6c-0.9,0-1.6,0.7-1.6,1.6v2.1c0,0.9,0.7,1.6,1.6,1.6 h8.6v0c0,0,0,0,0,0h0c0.1,0,0.2,0,0.3,0C82.3,14,84,12,84,9.6c0,0,0,0,0,0l0,0L84,4.5L84,4.5C84,4.5,84,4.5,84,4.5 M137,0.9h0.4 c0-0.6-0.5-0.9-1.1-0.9c-0.5,0-1,0.3-1,0.8c0,0.5,0.5,0.7,0.9,0.8c0.5,0.1,0.9,0.2,0.9,0.6c0,0.4-0.4,0.5-0.7,0.5 c-0.4,0-0.8-0.2-0.8-0.7h-0.4c0,0.7,0.5,1,1.2,1c0.5,0,1.1-0.2,1.1-0.9c0-0.6-0.5-0.7-0.9-0.8c-0.5-0.1-0.9-0.2-0.9-0.5 c0-0.4,0.3-0.5,0.6-0.5C136.7,0.3,137,0.5,137,0.9 M138,0.1V3h0.4V0.6h0l0.9,2.4h0.3l0.9-2.4h0V3h0.4V0.1h-0.5l-0.9,2.4l-0.9-2.4 H138"/>
	<path fill="#B5B7B7" d="M0.9,18.5v1.2h3.2v1.1H0.9V22H0l0-3.5H0.9 M0,16.3h4.1v-3.3H3.2v2.3H2.4v-2H1.6v2H0.9V13H0L0,16.3 M1.1,8.8 L1.1,8.8l1.4-0.5v0.9L1.1,8.8z M0,9.4l4.1,1.5V9.8L3.4,9.5V8.1l0.7-0.3V6.7L0,8.3L0,9.4L0,9.4z M0,4.6h4.1v-1H1v0l3.1-0.9V1.9L1,1v0 h3.1V0L0,0l0,1.6l2.7,0.7v0L0,3L0,4.6"/>
</svg>