<svg xmlns="http://www.w3.org/2000/svg" width="99px" height="22px" viewBox="0 0 99 22">
	<path fill="#B5B7B7" d="M0.9,18.5v1.2h3.2v1.1H0.9V22H0l0-3.5H0.9 M0,16.3L0,13h0.9v2.2h0.7v-2h0.8v2h0.8v-2.3h0.9v3.3H0 M0,8.3 l0,1.1l4.1,1.5V9.8L3.4,9.5V8.1l0.7-0.3V6.7L0,8.3z M2.6,9.3L1.1,8.8v0l1.4-0.5V9.3z M0,4.6L0,3l2.7-0.7v0L0,1.6L0,0l4.1,0v1H1v0 l3.1,0.9v0.8L1,3.6v0h3.1v1H0 M24.4,8c-0.3-2.1-2-3.3-4.3-3.3c-3.6,0-4.9,3.1-4.9,6.3s1.4,6.3,4.9,6.3c2.6,0,4.1-1.5,4.3-3.9h5.5 c-0.3,5.4-4.3,8.6-9.7,8.6c-6.4,0-10.6-4.9-10.6-11S13.9,0,20.3,0c4.6,0,9.5,2.9,9.7,8H24.4 M60.3,12.8c0,6.1-2.8,9.2-9.2,9.2 c-6.4,0-9.2-3-9.2-9.2V0.4h5.5v12.7c0,2.7,1,4.1,3.7,4.1c2.7,0,3.7-1.4,3.7-4.1V0.4h5.5V12.8 M89.9,5.2h-6.3v16.4h-5.5V5.2h-6.3V0.4 h18.1V5.2 M94.7,1.3c0-0.4-0.3-0.6-0.7-0.6c-0.3,0-0.6,0.1-0.6,0.5c0,0.3,0.4,0.4,0.9,0.5c0.4,0.1,0.9,0.3,0.9,0.8 c0,0.6-0.6,0.8-1.1,0.8c-0.6,0-1.2-0.3-1.2-1h0.4c0,0.5,0.4,0.7,0.8,0.7c0.3,0,0.7-0.1,0.7-0.5c0-0.4-0.4-0.4-0.9-0.5 C93.5,1.8,93,1.7,93,1.2c0-0.6,0.5-0.8,1-0.8c0.6,0,1,0.3,1,0.9H94.7 M95.6,0.4h0.5L97,2.8l0.9-2.3h0.5v2.8h-0.4V0.9h0l-0.9,2.3 h-0.3L96,0.9h0v2.3h-0.4V0.4"/>
</svg>