<svg xmlns="http://www.w3.org/2000/svg" width="131px" height="22px" viewBox="0 0 131 22">
	<path fill="#B5B7B7" d="M15.3,17.1h4.5c1.8,0,3-0.6,3-2.4c0-1.9-1.3-2.5-3-2.5h-4.5V17.1z M15.3,8.5h4.3c1,0,2.3-0.5,2.3-2 c0-1.6-1.1-2.1-2.3-2.1h-4.3V8.5z M9.7,0.1h10C23.4,0,27.5,1,27.5,5.5c0,1.9-1.1,3.5-2.8,4.3c2.3,0.7,3.7,2.6,3.7,5.1 c0,5.1-3.8,6.7-8.4,6.7H9.7V0.1L9.7,0.1z M58.7,12.7c0,6.2-2.9,9.3-9.3,9.3S40,18.9,40,12.7V0.1h5.6V13c0,2.8,1,4.2,3.8,4.2 c2.7,0,3.8-1.4,3.8-4.2V0.1h5.6V12.7 M77.6,9.4h4.7c1.7,0,2.6-0.9,2.6-2.5c0-1.6-1.3-2.3-2.8-2.3h-4.4V9.4z M72,0.1h10.9 c3.8,0,7.5,1.7,7.5,6c0,2.3-1.1,4.5-3.4,5.4v0.1c2.3,0.5,2.9,3.1,3.1,5.1c0.1,0.9,0.2,4.1,0.9,4.8h-5.5c-0.5-0.7-0.6-2.8-0.6-3.4 c-0.2-2.2-0.5-4.4-3.1-4.4h-4.2v7.8H72V0.1L72,0.1z M103.5,0.1h5.7l7.5,13.2h0.1V0.1h5.3v21.5h-5.7l-7.5-13.4h-0.1v13.4h-5.3V0.1 M126.8,0.9c0-0.4-0.3-0.6-0.7-0.6c-0.3,0-0.6,0.1-0.6,0.5c0,0.3,0.5,0.4,0.9,0.5c0.5,0.1,0.9,0.3,0.9,0.8c0,0.6-0.6,0.8-1.1,0.8 c-0.6,0-1.2-0.3-1.2-1h0.4c0,0.5,0.4,0.7,0.8,0.7c0.3,0,0.7-0.1,0.7-0.5c0-0.4-0.5-0.5-0.9-0.6c-0.5-0.1-0.9-0.2-0.9-0.7 c0-0.6,0.5-0.8,1-0.8c0.6,0,1,0.3,1,0.9H126.8 M127.8,0.1h0.5l0.9,2.4l0.9-2.4h0.5v2.8h-0.4V0.5h0l-0.9,2.4H129l-0.9-2.4h0v2.4h-0.4 V0.1 M0.9,18.5v1.2h3.2v1.1H0.9V22H0l0-3.5H0.9 M0,16.3L0,13h0.9v2.2h0.7v-2h0.8v2h0.8v-2.3h0.9v3.3H0 M4.1,7.9V6.7L0,8.3v1.1 l4.1,1.5V9.8L3.4,9.5V8.1L4.1,7.9z M2.6,9.3L1.1,8.8v0l1.4-0.5V9.3z M0,4.6L0,3l2.7-0.7v0L0,1.6L0,0l4.1,0v1H1v0l3.1,0.9v0.8L1,3.6 v0h3.1v1H0"/>
</svg>