<svg version="1.1" xmlns="http://www.w3.org/2000/svg" width="712px" height="100px" viewBox="0 0 712 100">
<path fill="#0087d1" d="M647.92,26.91c1.95-2.54,2.92-5.84,2.92-9.86c0-4.87-1.57-8.89-4.66-12.07c-3.09-3.18-7.37-4.78-12.79-4.78 h-25.19v50.55h13V33.77h6.65l8.51,16.98h14.69l-10.12-18.59C643.65,31.19,645.97,29.45,647.92,26.91z M636.02,20.95 c-1.19,0.97-2.71,1.44-4.53,1.44h-10.33V11.55h10.33c1.78,0,3.3,0.47,4.49,1.44c1.19,0.97,1.78,2.29,1.78,3.94 C637.8,18.66,637.21,19.97,636.02,20.95z M693.43,24.76L709.86,0.2h-15.45l-9.78,15.83L674.76,0.2h-15.37l16.47,24.64l-17.57,25.91 h15.37l11.01-16.98l10.97,16.98h15.41L693.43,24.76z M189.58,0.37h-24.89v22.06h21.38c3.47,0,6.39,0.97,8.72,2.88 c2.33,1.91,3.47,4.49,3.47,7.71s-1.14,5.76-3.43,7.66c-2.29,1.86-5.21,2.79-8.76,2.79h-48.14v55h25.28V65.53h26.46 c10.5,0,18.76-3.09,24.81-9.31c6.05-6.18,9.06-13.93,9.06-23.16c0-9.31-3.01-17.1-9.06-23.33C208.38,3.46,200.08,0.37,189.58,0.37z M308.89,0.37h-24.89v22.06h21.34c3.47,0,6.39,0.97,8.72,2.88c2.33,1.91,3.47,4.49,3.47,7.71s-1.14,5.76-3.43,7.66 c-2.29,1.86-5.21,2.79-8.76,2.79h-48.09v55h25.28V65.53h26.46c10.5,0,18.76-3.09,24.81-9.31c6.05-6.18,9.06-13.93,9.06-23.16 c0-9.31-3.01-17.1-9.06-23.33C327.68,3.46,319.43,0.37,308.89,0.37z M66.8,58.12c0,6.01-1.78,10.84-5.38,14.52s-8.68,5.5-15.24,5.5 c-5.33,0-9.7-1.19-13.04-3.56v24.47c4.02,0.72,8.34,1.14,13.04,1.14c15.16,0,26.63-3.77,34.34-11.26 c7.71-7.49,11.56-17.61,11.56-30.36V0.37H66.8L66.8,58.12L66.8,58.12z M-0.05,61.5h25.57V0.2H-0.05V61.5z M574.34,52.23 c3.77-4.95,5.67-11.35,5.67-19.22c0-9.44-3.05-17.27-9.1-23.45c-6.05-6.18-14.35-9.27-24.89-9.27h-25.95v22.06h22.4 c3.51,0,6.39,0.93,8.72,2.79c2.33,1.86,3.47,4.45,3.47,7.71c0,3.3-1.14,5.88-3.47,7.75c-2.29,1.86-5.21,2.79-8.76,2.79h-24.43v-0.04 h-23.75v0.13v22.06v33.07h23.75V65.53h17.32l16.55,33.02h28.54l-19.64-36.11C566.04,60.57,570.57,57.14,574.34,52.23z M402.49,22.43 h48.39V0.37h-48.39L402.49,22.43L402.49,22.43z M402.49,76.41V59.77h47.38V37.71h-72.65v38.7v22.1h25.28h48.39V76.45L402.49,76.41 L402.49,76.41z"/>
</svg>
