<svg xmlns="http://www.w3.org/2000/svg" width="506px" height="96px" viewBox="0 0 506 96">
	<path fill="#D35F43" d="M211,29.9c4.3-2.8,6.5-7.7,6.5-12.9c0-11.3-9.8-15.8-19.7-15.8h-12v11.7h9.6c4.1,0,7.4,1.9,7.4,6.1 s-2.4,6.6-6.8,6.6h-12.4V1.2H169v28.8H211L211,29.9z M109.6,47.4h17.2L138.2,34L126,1.2h-6.4V20l5.2,16.5H112l5.4-16.6V1.2h-6.3 L98.6,34.5L109.6,47.4z M64.5,7.5L64.5,7.5l11.3-6.4H61.2l-8,41.2h-0.2L44.8,1.2H31l-8.3,41.2h-0.2l-8-41.2H0l11.3,6.4l0,0.1 l9.8,49.9h9l7.7-38.8h0.2l7.7,38.8h9L64.5,7.5z M66.4,8.9l-9.5,48.5h3.4L75.1,4L66.4,8.9z M482,29.9c4.3-2.8,6.5-7.7,6.5-12.9 c0-11.3-9.8-15.8-19.8-15.8h-12v11.7h9.6c4.1,0,7.4,1.9,7.4,6.1s-2.4,6.6-6.8,6.6h-12.4V1.2H440v28.8H482L482,29.9z M333,16.6V1.2 h-14.7v35.1L333,16.6z M285.6,29.9c4.3-2.8,6.5-7.7,6.5-12.9c0-11.3-9.8-15.8-19.7-15.8h-12v11.7h9.6c4.1,0,7.4,1.9,7.4,6.1 s-2.4,6.6-6.8,6.6h-12.4V1.2h-14.5v28.8H285.6L285.6,29.9z M9.4,8.9L0.7,4.1l14.4,53.4h3.7L9.4,8.9z M387.1,0v12.6 c9,0.3,12.5,8.5,12.5,16.7s-3.5,16.4-12.5,16.7v12.6c17.4-0.3,27.2-13.2,27.2-29.3S404.5,0.3,387.1,0 M385,46 c-8.3-0.9-11.5-8.8-11.5-16.6s3.2-15.7,11.5-16.6V0c-16.7,0.8-26.1,13.5-26.1,29.3s9.4,28.5,26.1,29.3V46z M318.4,40.1v17.4H333v-37 L318.4,40.1z M487.8,44.8c-0.4-4.7-1.8-10.4-6.1-12.7H440v25.4h14.7V37h11.1c6.9,0,7.8,5.8,8.2,11.5c0.2,1.6,0.4,7.1,1.7,9h14.5 C488.2,55.4,488,47.1,487.8,44.8 M285.4,32.1h-41.7v25.4h14.7V37h11.1c6.9,0,7.8,5.8,8.2,11.5c0.2,1.6,0.4,7.1,1.7,9h14.5 c-2-2.1-2.2-10.3-2.4-12.7C291.1,40.1,289.7,34.4,285.4,32.1 M128.6,48.6l3.1,8.9H147l-7.9-21.2L128.6,48.6z M210.7,32.1H169v25.4 h14.7V37h11.1c6.9,0,7.8,5.8,8.2,11.5c0.2,1.6,0.4,7.1,1.7,9h14.5c-2-2.1-2.2-10.3-2.4-12.7C216.4,40.1,215,34.4,210.7,32.1 M97.7,36.8L90,57.5h15.1l3-8.6L97.7,36.8z M19.2,88c0.1,2.4,1.6,3.2,3.8,3.2c1.6,0,3.2-0.6,3.2-2.1c0-1.8-2.9-2.1-5.8-3 s-6-2.1-6-5.9c0-4.4,4.5-6.2,8.3-6.2c4.1,0,8.1,2,8.2,6.6h-5.2c0.1-1.9-1.7-2.5-3.3-2.5c-1.1,0-2.6,0.4-2.6,1.7 c0,1.6,2.9,1.9,5.9,2.7s5.9,2.2,5.9,5.9c0,5.2-4.4,6.8-8.9,6.8c-4.7,0-8.8-2.1-8.8-7.3L19.2,88L19.2,88z M54.1,81.7 c-0.3-2.1-1.9-3.1-4.1-3.1c-3.4,0-4.7,3-4.7,6.1s1.3,6.1,4.7,6.1c2.1,0.2,3.9-1.4,4.1-3.4c0-0.1,0-0.2,0-0.3h5.3 c-0.3,5.2-4.1,8.3-9.3,8.3c-6.2,0-10.2-4.7-10.2-10.6S43.9,74,50.1,74c4.4,0,9.2,2.8,9.3,7.7L54.1,81.7L54.1,81.7z M86.3,86.4 c0,5.9-2.7,8.9-8.9,8.9s-8.9-2.9-8.9-8.9v-12h5.3v12.3c0,2.6,1,4,3.6,4s3.6-1.3,3.6-4V74.5h5.3L86.3,86.4L86.3,86.4z M96.2,74.5h5.3 v15.8h9.5v4.6H96.2V74.5z M120,74.5h9.7c3.8,0,7.4,1.7,7.4,6.6c0,5.1-2.9,7-7.4,7h-4.4v6.8H120L120,74.5L120,74.5z M125.4,83.9h3.6 c1.7,0,2.9-0.7,2.9-2.5s-1.2-2.7-2.9-2.7h-3.6V83.9L125.4,83.9z M162.2,79h-6.1v15.8h-5.3V79h-6.1v-4.6h17.5L162.2,79L162.2,79z M497.8,2.8c0-0.7-0.6-1.2-1.3-1.1c0,0-0.1,0-0.1,0c-0.5-0.1-1.1,0.2-1.2,0.7c0,0.1,0,0.1,0,0.2c0,0.7,0.9,0.8,1.8,1 s1.8,0.5,1.8,1.6s-1.2,1.7-2.2,1.7c-1.2,0-2.3-0.6-2.3-2h0.7c0,0.8,0.7,1.4,1.5,1.3c0.1,0,0.1,0,0.2,0c0.6,0.1,1.2-0.2,1.4-0.9 c0,0,0-0.1,0-0.1c0-0.8-0.9-0.9-1.8-1.1s-1.8-0.5-1.8-1.5c0.1-1,0.9-1.7,1.9-1.6c0,0,0.1,0,0.1,0c1-0.1,1.9,0.6,2,1.5 c0,0.1,0,0.1,0,0.2L497.8,2.8L497.8,2.8z M499.7,1.2h1l1.7,4.6l1.8-4.6h1v5.5h-0.7V2.1h0l-1.7,4.6h-0.6l-1.7-4.6h0v4.6h-0.7V1.2z"/>
</svg>