<svg xmlns="http://www.w3.org/2000/svg" width="1245px" height="190px" viewBox="0 0 1245 190">
	<path fill="#F28420" d="M791.3,46V35.2H688.5v48h101V72.4h-90.2V46H791.3z M1010,187.8v-127l-63.5,96.3l-62.8-95.4v126.1h10.8V97.6 l48.6,73.8h6.9l49.2-74.7v91.1H1010z M688.5,156.2h102.8v-10.8h-92v-29.2h90.2v-10.7h-101V156.2z M549,84.9 c5.1-4.3,7.7-10.3,7.7-17.9s-2.6-13.5-7.7-17.9s-11.5-6.5-19.2-6.5H480v48.6h49.8C537.6,91.4,543.9,89.2,549,84.9z M490.7,53.5h39 c5.2,0,9.1,1.2,12.3,3.9c2.7,2.3,3.9,5.2,3.9,9.6s-1.2,7.4-3.9,9.6c-3.2,2.7-7.1,3.9-12.3,3.9h-39V53.5z M1141.5,156.2h102.8v-10.8 h-92v-29.2h90.1v-10.7h-100.9V156.2z M386.1,52.3v-11h-63.2v147.5h11V52.3H386.1z M118.7,147.3l-6.7,10.1l18.9,31h12.5L118.7,147.3z M480,189.7h10.7v-55.5h21.1l31,55.5h12.3l-36.9-66.3H480V189.7z M1244.3,46V35.2h-102.8v48h100.9V72.4h-90.1V46H1244.3z M137.3,120.4l45.7,68h13.3l-52.5-77.6L137.3,120.4z M1244.3,178.4h-129.6V12.9h129.6V2.1H1104v187.1h140.3V178.4z M136.5,3.1h-12 L98.1,52L71.8,3.1H59.7L98.1,74L136.5,3.1z M13.2,188.4l65.4-96.9L18,3.1H5.1l60.6,88.4L0,188.4H13.2z M277.1,188.8h11V41.3h-63.2 v11h52.2V188.8z M65.4,188.4L191.2,3.1h-12.9L52.9,188.4H65.4z M224.9,1.9h161.2v11H224.9V1.9z M850.4,13.3h40.1l56.6,91.1 l56.7-91.1h40v174.5h10.8V2.5h-56.8L947.1,84L896.4,2.5h-56.8v185.3h10.8V13.3z M791.3,178.4H661.8V12.9h129.5V2.1H651v187.1h140.3 V178.4z M440.8,189.7v-179h94.7c8.4-0.1,16.7,1.3,24.6,4.2c6.9,2.6,13.2,6.6,18.5,11.8c5.1,5.1,9.1,11.2,11.7,17.9 c2.8,7.2,4.1,14.8,4.1,22.4c0.1,7-1,13.9-3.3,20.5c-3.8,10.8-11.3,19.9-21.2,25.8c-2.6,1.6-5.4,2.9-8.3,4l-6.1,2.2l41.8,70.3h12.5 l-38.6-64.9c1.4-0.7,2.8-1.5,4.2-2.3c12-7.1,21.1-18.2,25.8-31.3c2.8-7.8,4.1-16,4-24.2c0.1-9-1.6-18-4.8-26.4 C594,24.1,580.8,11,564.1,4.9C555,1.5,545.3-0.2,535.6,0H430.1v189.8h10.7V189.7z"/>
</svg>