<svg xmlns="http://www.w3.org/2000/svg" width="284" height="418" viewBox="0 0 284 418" preserveAspectRatio="none">
	<rect x="0" y="0" width="100%" height="100%" clip-path="url(#clip-path3)" style='fill: url("#fill4");'></rect>
	<defs>
		<linearGradient id="fill4">
			<stop offset="0.599964" stop-color="#e8e8e8" stop-opacity="1">
				<animate attributeName="offset" values="-2; -2; 1" keyTimes="0; 0.25; 1" dur="2s" repeatCount="indefinite"></animate>
			</stop>
			<stop offset="1.59996" stop-color="#cccccc" stop-opacity="1">
				<animate attributeName="offset" values="-1; -1; 2" keyTimes="0; 0.25; 1" dur="2s" repeatCount="indefinite"></animate>
			</stop>
			<stop offset="2.59996" stop-color="#e8e8e8" stop-opacity="1">
				<animate attributeName="offset" values="0; 0; 3" keyTimes="0; 0.25; 1" dur="2s" repeatCount="indefinite"></animate>
			</stop>
		</linearGradient>
		<clipPath id="clip-path3">
			<rect x="92" y="40" width="100" height="20"/>
			<rect x="42" y="95" width="200" height="12"/>
			<rect x="67" y="119" width="150" height="12"/>
			<rect x="62" y="190.5" width="160" height="1"/>
			<rect x="62" y="283.5" width="160" height="1"/>
			<rect x="109" y="208.5" width="66" height="11"/>
			<rect x="85" y="303.5" width="114" height="11"/>
			<rect x="79" y="402.5" width="126" height="11"/>
			<path d="M222,377.5c0,1.65-1.35,3-3,3H65c-1.65,0-3-1.35-3-3v-27c0-1.65,1.35-3,3-3h154c1.65,0,3,1.35,3,3V377.5z"/>
			<rect x="90" y="231" width="104" height="36"/>
		</clipPath>
	</defs>
</svg>