<?xml version="1.0" encoding="utf-8"?>
<!-- Generator: Adobe Illustrator 19.1.0, SVG Export Plug-In . SVG Version: 6.00 Build 0)  -->
<svg version="1.1" id="Layer_1" xmlns="http://www.w3.org/2000/svg" xmlns:xlink="http://www.w3.org/1999/xlink" x="0px" y="0px"
	 width="212px" height="20px" viewBox="0 0 212 20" enable-background="new 0 0 212 20" xml:space="preserve">
<path fill="#A5B94A" d="M100,2.2h4.8v5.4h4.5V2.2h4.8v15.6h-4.8v-6.2h-4.5v6.2H100V2.2 M123,10.9c0-1-0.8-1.9-1.9-1.9
	c-1.3,0-2,0.7-2.2,1.9H123L123,10.9z M118.8,13.2c0.1,1.3,0.9,2.2,2.2,2.2c0.7,0,1.5-0.3,1.8-0.8h4c-0.9,2.4-3.2,3.6-5.8,3.6
	c-3.6,0-6.3-2.1-6.3-5.9c0-3.3,2.4-6,6-6c4.5,0,6.4,2.5,6.4,6.9L118.8,13.2L118.8,13.2z M135.3,12.8c-0.5,0.3-1.1,0.4-1.7,0.5
	c-1,0.2-1.5,0.5-1.5,1.2c0,0.5,0.6,1,1.4,1c1,0,1.7-0.6,1.8-1.8L135.3,12.8L135.3,12.8z M139.5,15.3c0,0.9,0,1.8,0.5,2.5h-4.4
	c-0.1-0.3-0.2-0.8-0.2-1.1h0c-0.9,1-2.2,1.4-3.6,1.4c-2.2,0-4-1-4-3.4c0-3.6,4.2-3.4,6.4-3.9c0.6-0.1,1.2-0.3,1.2-1
	c0-0.8-0.7-1-1.4-1c-1.3,0-1.6,0.7-1.6,1.2h-4c0.1-1.6,0.9-2.5,2-3.1c1.1-0.5,2.5-0.7,3.9-0.7c5.4,0,5.4,2.3,5.4,4.4L139.5,15.3
	L139.5,15.3z M140.9,17.8h4.3V2.2h-4.3 M152.3,6.5h2.3v2.7h-2.3v3.9c0,1,0.2,1.5,1.3,1.5c0.3,0,0.7,0,1-0.1v3.3
	c-0.9,0-1.9,0.1-2.8,0.1c-1.8,0-3.9-0.3-3.9-3.4V9.2H146V6.5h1.9V3.1h4.3V6.5 M155.9,2.2h4.3v5.5h0c0.7-0.9,1.7-1.5,3.5-1.5
	c2,0,3.9,1.2,3.9,3.8v7.8h-4.3v-5.9c0-1.3-0.2-2.2-1.4-2.2c-0.7,0-1.7,0.4-1.7,2.2v6h-4.3L155.9,2.2 M178.8,6.7c-0.1-2.6-2.1-4-5-4
	c-1.8,0-4.3,0.7-4.3,3.3c0,2.5,2.6,2.9,5.3,3.4c2.6,0.5,5.3,1.2,5.3,4.3c0,3.2-3.1,4.4-5.4,4.4c-3.6,0-6.6-1.5-6.5-5.5h1
	c-0.2,3.4,2.5,4.7,5.6,4.7c1.9,0,4.5-0.8,4.5-3.5c0-2.6-2.6-3.1-5.3-3.6c-2.6-0.5-5.3-1.2-5.3-4.1c0-3,2.8-4.1,5.2-4.1
	c3.2,0,5.8,1.4,5.9,4.8L178.8,6.7 M185.7,7.3h-2.4v7.8c0,1.8,0.8,2,2.4,1.9v0.7c-1.7,0.1-3.3-0.1-3.2-2.6V7.3h-2.1V6.6h2.1V3.1h0.8
	v3.5h2.4L185.7,7.3 M191.1,17.3c2.8,0,4.3-2.5,4.3-5.1S193.9,7,191.1,7c-2.8,0-4.3,2.5-4.3,5.1C186.8,14.8,188.3,17.3,191.1,17.3
	L191.1,17.3z M191.1,6.3c3.3,0,5.1,2.7,5.1,5.8s-1.8,5.8-5.1,5.8s-5.1-2.7-5.1-5.8S187.8,6.3,191.1,6.3L191.1,6.3z M197.9,9.1
	L197.9,9.1c0.5-1.5,2.3-2.6,4.3-2.5v0.8c-0.9-0.1-2.1,0.1-3.1,1.1c-0.8,0.8-1.2,1.5-1.3,3.2v6.1h-0.8V6.6h0.8L197.9,9.1 M211,11.5
	c0-2.3-1.5-4.5-4.1-4.5c-2.5,0-3.9,2.3-4.1,4.5L211,11.5L211,11.5z M202.8,12.3c0,2.6,1.3,5,4.1,5c2.1,0,3.6-1.3,4-3.3h0.8
	c-0.4,2.6-2.2,4-4.8,4c-3.3,0-5-2.6-4.9-5.6c0-3.1,1.6-6,4.9-6c3.5,0,5.1,2.8,4.9,5.9L202.8,12.3L202.8,12.3z"/>
<path fill="#A2AAAD" d="M10,15v5H0V0h5v15H10z M11,0v20h5V0H11z M27,5V0H17v20h5v-8h4V8h-4V5H27z M38,5V0H28v20h10v-5h-5v-3h4V8h-4
	V5H38z M88,5V0H78v20h10v-5h-5v-3h4V8h-4V5H88z M41,0v5h3v15h5V5h3V0H41z M53,0v20h5V0H53z M72,0h-2.5L68,10L66.5,0H64h-5v20h5V9
	l2,11h4l2-11v11h5V0H72z M91.5,0C90.1,0,89,1.1,89,2.5S90.1,5,91.5,5S94,3.9,94,2.5S92.9,0,91.5,0z M91.5,4.6c-1.2,0-2.1-1-2.1-2.1
	s1-2.1,2.1-2.1s2.1,1,2.1,2.1S92.7,4.6,91.5,4.6z M91.9,2.7c0.2,0,0.4-0.1,0.5-0.2c0.1-0.1,0.2-0.3,0.2-0.6s-0.1-0.5-0.3-0.6
	C92.3,1.1,92,1,91.7,1h-1.1v3H91V2.7h0.5L92.3,4h0.5L91.9,2.7z M91.5,2.3H91V1.4h0.6c0.1,0,0.2,0,0.2,0c0.1,0,0.1,0,0.2,0.1
	c0.1,0,0.1,0.1,0.1,0.1c0,0.1,0.1,0.1,0.1,0.2s0,0.2-0.1,0.3c0,0.1-0.1,0.1-0.2,0.1s-0.2,0.1-0.2,0.1S91.6,2.3,91.5,2.3z"/>
</svg>
