<?xml version="1.0" encoding="utf-8"?>
<!-- Generator: Adobe Illustrator 19.1.0, SVG Export Plug-In . SVG Version: 6.00 Build 0)  -->
<svg version="1.1" id="Layer_1" xmlns="http://www.w3.org/2000/svg" xmlns:xlink="http://www.w3.org/1999/xlink" x="0px" y="0px"
	 width="94px" height="36px" viewBox="0 0 94 36" enable-background="new 0 0 94 36" xml:space="preserve">
<path fill="#A5B94A" d="M0,23.3h3.8v4.3h3.5v-4.3h3.8v12.3H7.3v-4.9H3.8v4.9H0V23.3 M18.1,30.1c0-0.8-0.6-1.5-1.5-1.5
	c-1,0-1.6,0.5-1.7,1.5H18.1L18.1,30.1z M14.8,31.9c0.1,1,0.7,1.7,1.7,1.7c0.6,0,1.2-0.2,1.4-0.6h3.2c-0.7,1.9-2.6,2.8-4.6,2.8
	c-2.8,0-5-1.7-5-4.7c0-2.6,1.9-4.7,4.7-4.7c3.5,0,5.1,2,5.1,5.4L14.8,31.9L14.8,31.9z M27.8,31.6c-0.4,0.2-0.9,0.3-1.3,0.4
	c-0.8,0.2-1.2,0.4-1.2,1c0,0.4,0.4,0.8,1.1,0.8c0.8,0,1.4-0.5,1.4-1.4L27.8,31.6L27.8,31.6z M31,33.6c0,0.7,0,1.4,0.4,2H28
	c-0.1-0.2-0.1-0.6-0.1-0.8h0c-0.7,0.8-1.8,1.1-2.9,1.1c-1.7,0-3.1-0.8-3.1-2.7c0-2.8,3.3-2.7,5-3c0.5-0.1,0.9-0.2,0.9-0.8
	c0-0.6-0.6-0.8-1.1-0.8c-1,0-1.3,0.5-1.3,0.9h-3.2c0.1-1.3,0.7-2,1.5-2.4c0.9-0.4,2-0.5,3-0.5c4.3,0,4.2,1.8,4.2,3.5L31,33.6
	L31,33.6z M32.2,35.5h3.4V23.3h-3.4 M41.1,26.7H43v2.1h-1.8v3.1c0,0.8,0.2,1.2,1,1.2c0.3,0,0.5,0,0.8-0.1v2.6
	c-0.7,0-1.5,0.1-2.2,0.1c-1.4,0-3-0.2-3-2.7v-4.3h-1.5v-2.1h1.5V24h3.4V26.7 M44,23.3h3.4v4.3h0c0.6-0.7,1.3-1.2,2.8-1.2
	c1.6,0,3.1,1,3.1,3v6.1h-3.4v-4.7c0-1-0.1-1.8-1.1-1.8c-0.6,0-1.4,0.3-1.4,1.7v4.7H44L44,23.3 M62,26.8c-0.1-2.1-1.7-3.1-3.9-3.1
	c-1.4,0-3.3,0.6-3.3,2.6c0,2,2.1,2.3,4.1,2.7c2.1,0.4,4.2,1,4.2,3.4c0,2.5-2.4,3.4-4.3,3.4c-2.9,0-5.2-1.2-5.1-4.3h0.8
	c-0.2,2.7,2,3.7,4.4,3.7c1.5,0,3.5-0.7,3.5-2.8c0-2.1-2.1-2.4-4.2-2.9c-2.1-0.4-4.1-0.9-4.1-3.2c0-2.3,2.2-3.2,4.1-3.2
	c2.5,0,4.5,1.1,4.7,3.8L62,26.8 M67.4,27.3h-1.9v6.1c0,1.4,0.7,1.6,1.9,1.5v0.6c-1.3,0.1-2.6-0.1-2.5-2.1v-6.1h-1.6v-0.6h1.6V24h0.6
	v2.7h1.9L67.4,27.3 M71.7,35.1c2.2,0,3.4-1.9,3.4-4c0-2.1-1.2-4-3.4-4c-2.2,0-3.4,1.9-3.4,4C68.3,33.2,69.5,35.1,71.7,35.1
	L71.7,35.1z M71.7,26.5c2.6,0,4,2.1,4,4.6s-1.5,4.6-4,4.6c-2.6,0-4-2.1-4-4.6S69.1,26.5,71.7,26.5L71.7,26.5z M77,28.6L77,28.6
	c0.4-1.1,1.8-2.1,3.4-2v0.6c-0.7-0.1-1.6,0.1-2.4,0.9c-0.6,0.7-0.9,1.2-1,2.5v4.8h-0.6v-8.8H77L77,28.6 M87.3,30.6
	c0-1.8-1.2-3.6-3.2-3.6c-1.9,0-3.1,1.8-3.2,3.6L87.3,30.6L87.3,30.6z M80.9,31.2c0,2.1,1.1,3.9,3.2,3.9c1.7,0,2.8-1,3.1-2.6h0.6
	c-0.3,2-1.7,3.2-3.8,3.2c-2.6,0-3.9-2-3.9-4.4c0-2.4,1.2-4.7,3.9-4.7c2.7,0,4,2.2,3.9,4.7L80.9,31.2L80.9,31.2z"/>
<path fill="#A2AAAD" d="M10,15v5H0V0h5v15H10z M11,0v20h5V0H11z M27,5V0H17v20h5v-8h4V8h-4V5H27z M38,5V0H28v20h10v-5h-5v-3h4V8h-4
	V5H38z M88,5V0H78v20h10v-5h-5v-3h4V8h-4V5H88z M41,0v5h3v15h5V5h3V0H41z M53,0v20h5V0H53z M72,0h-2.5L68,10L66.5,0H64h-5v20h5V9
	l2,11h4l2-11v11h5V0H72z M91.5,0C90.1,0,89,1.1,89,2.5S90.1,5,91.5,5S94,3.9,94,2.5S92.9,0,91.5,0z M91.5,4.6c-1.2,0-2.1-1-2.1-2.1
	s1-2.1,2.1-2.1s2.1,1,2.1,2.1S92.7,4.6,91.5,4.6z M91.9,2.7c0.2,0,0.4-0.1,0.5-0.2c0.1-0.1,0.2-0.3,0.2-0.6s-0.1-0.5-0.3-0.6
	C92.3,1.1,92,1,91.7,1h-1.1v3H91V2.7h0.5L92.3,4h0.5L91.9,2.7z M91.5,2.3H91V1.4h0.6c0.1,0,0.2,0,0.2,0c0.1,0,0.1,0,0.2,0.1
	c0.1,0,0.1,0.1,0.1,0.1c0,0.1,0.1,0.1,0.1,0.2s0,0.2-0.1,0.3c0,0.1-0.1,0.1-0.2,0.1s-0.2,0.1-0.2,0.1S91.6,2.3,91.5,2.3z"/>
</svg>
