<svg xmlns="http://www.w3.org/2000/svg" width="58px" height="58px" viewBox="0 0 58 58">
    <path class="unit-icon-frame" fill="none" stroke="#FFFFFF" d="M29,0.5c15.735,0,28.5,12.765,28.5,28.5S44.735,57.5,29,57.5S0.5,44.735,0.5,29 S13.265,0.5,29,0.5z"></path>
    <path class="unit-icon-stroke" fill="none" stroke="#FFFFFF" stroke-linecap="round" stroke-linejoin="round" d="M30.5,36.5V32c0-0.833-0.667-1.5-1.5-1.5 s-1.5,0.667-1.5,1.5v4.5 M10.5,39.5h37 M19.5,18.5h19 M22.5,26.5h13 M12.5,36.5v-12h10 M35.5,24.5h10v12 M22.5,36.5v-18h13v18 M18.5,24.5v12 M39.5,24.5v12"></path>
</svg>