<?xml version="1.0" encoding="UTF-8"?>
<svg id="Layer_1" xmlns="http://www.w3.org/2000/svg" version="1.1" viewBox="0 0 192 192">
  <!-- Generator: Adobe Illustrator 29.5.1, SVG Export Plug-In . SVG Version: 2.1.0 Build 141)  -->
  <path d="M135.23,99.81c-9.18,0-16.7,7.51-16.7,15.86,0,9.18,7.51,16.7,16.7,16.7s16.7-7.51,16.7-16.7-7.51-15.86-16.7-15.86ZM135.23,60.58c-9.18,0-16.7,7.51-16.7,15.86s7.51,16.7,16.7,16.7,16.7-7.51,16.7-16.7-7.51-15.86-16.7-15.86ZM175.3,60.58c-9.18,0-16.7,7.51-16.7,15.86s7.51,16.7,16.7,16.7,16.7-7.51,16.7-16.7-7.51-15.86-16.7-15.86ZM95.17,60.58c-9.18,0-16.7,7.51-16.7,15.86s7.51,16.7,16.7,16.7,16.7-7.51,16.7-16.7-7.51-15.86-16.7-15.86ZM32.56,61.41H0v68.45h109.36v-29.22H32.56v-39.23ZM32.56,61.41H0v68.45h109.36v-29.22H32.56v-39.23ZM32.56,61.41H0v68.45h109.36v-29.22H32.56v-39.23ZM32.56,61.41H0v68.45h109.36v-29.22H32.56v-39.23Z"/>
</svg>