<?xml version="1.0" encoding="utf-8"?>
<!-- Generator: Adobe Illustrator 19.1.0, SVG Export Plug-In . SVG Version: 6.00 Build 0)  -->
<svg version="1.1" id="Layer_1" xmlns="http://www.w3.org/2000/svg" xmlns:xlink="http://www.w3.org/1999/xlink" x="0px" y="0px"
	 width="30px" height="30px" viewBox="0 0 30 30" enable-background="new 0 0 30 30" xml:space="preserve">
<path fill="#98694C" d="M15,0C6.7,0,0,6.7,0,15c0,8.3,6.7,15,15,15c8.3,0,15-6.7,15-15C30,6.7,23.3,0,15,0z M15,28.3
	c-7.3,0-13.3-6-13.3-13.3c0-7.3,6-13.3,13.3-13.3c7.3,0,13.3,6,13.3,13.3C28.3,22.3,22.3,28.3,15,28.3z M7.4,10.1
	c0,0,5.3-0.4,7.6,1.2c2.2-1.7,7.8-1.2,7.8-1.2c-4.3,0.6-7.7,5.5-7.7,5.5C15.1,15.6,11.7,10.7,7.4,10.1z M12.7,7.6
	c0-0.9,1.1-1.7,2.4-1.7c1.3,0,2.4,0.8,2.4,1.7c0,0.9-1.1,1.7-2.4,1.7C13.7,9.3,12.7,8.6,12.7,7.6z M26,10.1c0,0-8.8,1.5-11,9.3
	c-2.1-7.8-11-9.3-11-9.3c-2.9,15,10.6,17,10.9,17v0h0h0.1h0v0C15.4,27.1,29,25.1,26,10.1z M14.1,24.6c-0.5-0.4-1.6-1.2-2.8-2.6
	c0.7-0.7,1.3-1.7,1.6-2.8c0.2-0.5,0.3-1.1,0.3-1.7C14.2,19.2,14.7,21.4,14.1,24.6z M12.4,16.5c0.1,0.8,0,1.6-0.3,2.5
	c-0.3,0.9-0.8,1.8-1.3,2.4c-0.3-0.4-0.6-0.8-0.9-1.3c0.6-0.7,1.1-1.6,1.4-2.5c0.2-0.6,0.3-1.3,0.3-1.9
	C11.8,15.9,12.1,16.2,12.4,16.5z M7.1,13.7c0.5,0.1,1.2,0.3,2,0.6c0,0.5-0.1,1-0.3,1.4c-0.1,0.5-0.4,0.9-0.6,1.4
	C7.5,15.6,7.2,14.4,7.1,13.7z M9.5,16c0.1-0.4,0.2-0.9,0.3-1.3c0.3,0.1,0.6,0.3,0.9,0.5c0,0.7-0.1,1.5-0.3,2.2
	c-0.2,0.8-0.6,1.5-1,2.1c-0.3-0.5-0.6-1-0.8-1.4C9,17.4,9.3,16.7,9.5,16z M6.2,14.2c0.3,1.3,1,3.7,2.6,6.1c1.5,2.3,3.1,3.8,4.1,4.6
	C10.6,24,4.8,20.9,6.2,14.2z M16.2,25.3c-2.7-10.6,7.5-11.7,7.5-11.7C26.2,22.5,16.2,25.3,16.2,25.3z"/>
</svg>
