<?xml version="1.0" encoding="utf-8"?>
<!-- Generator: Adobe Illustrator 19.1.0, SVG Export Plug-In . SVG Version: 6.00 Build 0)  -->
<svg version="1.1" id="Layer_1" xmlns="http://www.w3.org/2000/svg" xmlns:xlink="http://www.w3.org/1999/xlink" x="0px" y="0px"
	 width="60px" height="60px" viewBox="0 0 60 60" enable-background="new 0 0 60 60" xml:space="preserve">
<path fill="#98694C" d="M30,0C13.5,0,0,13.5,0,30c0,16.5,13.5,30,30,30c16.5,0,30-13.5,30-30C60,13.5,46.5,0,30,0z M30,56.6
	C15.4,56.6,3.4,44.7,3.4,30C3.4,15.4,15.4,3.4,30,3.4c14.7,0,26.6,11.9,26.6,26.6C56.6,44.7,44.7,56.6,30,56.6z M14.8,20.2
	c0,0,10.7-0.8,15.2,2.4c4.3-3.4,15.6-2.4,15.6-2.4c-8.6,1.3-15.3,11-15.3,11C30.2,31.3,23.3,21.4,14.8,20.2z M25.3,15.2
	c0-1.9,2.2-3.4,4.9-3.4c2.7,0,4.9,1.5,4.9,3.4c0,1.9-2.2,3.4-4.9,3.4C27.5,18.6,25.3,17.1,25.3,15.2z M52,20.3c0,0-17.6,3-21.9,18.5
	C25.8,23.3,8.2,20.3,8.2,20.3c-5.9,30,21.2,33.9,21.8,34v0h0h0.1h0v0C30.9,54.2,57.9,50.3,52,20.3z M28.1,49.2
	c-1-0.7-3.2-2.4-5.6-5.1c1.4-1.4,2.5-3.4,3.2-5.6c0.3-1.1,0.5-2.2,0.6-3.3C28.4,38.4,29.4,42.9,28.1,49.2z M24.7,33
	c0.2,1.6,0,3.3-0.5,5c-0.6,1.9-1.5,3.5-2.7,4.8c-0.6-0.8-1.3-1.7-1.9-2.6c1.2-1.4,2.1-3.1,2.7-5c0.4-1.2,0.6-2.5,0.7-3.8
	C23.6,31.9,24.2,32.4,24.7,33z M14.1,27.3c1,0.2,2.4,0.6,3.9,1.2c-0.1,1-0.2,1.9-0.5,2.9c-0.3,1-0.7,1.9-1.2,2.7
	C15.1,31.2,14.4,28.7,14.1,27.3z M19.1,31.9c0.3-0.9,0.4-1.8,0.5-2.6c0.6,0.3,1.2,0.6,1.8,1c0.1,1.4-0.1,2.9-0.6,4.4
	c-0.5,1.5-1.2,3-2.1,4.1c-0.6-1-1.1-1.9-1.6-2.9C18,34.7,18.6,33.4,19.1,31.9z M12.5,28.4c0.6,2.6,2.1,7.3,5.2,12.3
	c3,4.6,6.3,7.6,8.3,9.2C21.2,48,9.6,41.9,12.5,28.4z M32.5,50.5c-5.4-21.2,15.1-23.4,15.1-23.4C52.4,44.9,32.5,50.5,32.5,50.5z"/>
</svg>
