<?xml version="1.0" encoding="UTF-8" standalone="no"?>
<svg
   viewBox="0 0 924.13 259.35999"
   version="1.1"
   id="svg61"
   sodipodi:docname="ultrafit.svg"
   width="924.13"
   height="259.35999"
   inkscape:version="1.1.2 (b8e25be833, 2022-02-05)"
   xmlns:inkscape="http://www.inkscape.org/namespaces/inkscape"
   xmlns:sodipodi="http://sodipodi.sourceforge.net/DTD/sodipodi-0.dtd"
   xmlns="http://www.w3.org/2000/svg"
   xmlns:svg="http://www.w3.org/2000/svg">
  <sodipodi:namedview
     id="namedview63"
     pagecolor="#505050"
     bordercolor="#ffffff"
     borderopacity="1"
     inkscape:pageshadow="0"
     inkscape:pageopacity="0"
     inkscape:pagecheckerboard="1"
     showgrid="false"
     inkscape:zoom="0.82962963"
     inkscape:cx="461.04911"
     inkscape:cy="130.17857"
     inkscape:window-width="1920"
     inkscape:window-height="1147"
     inkscape:window-x="-8"
     inkscape:window-y="-8"
     inkscape:window-maximized="1"
     inkscape:current-layer="svg61" />
  <defs
     id="defs39">
    <style
       id="style37">.cls-1{fill:#20303d;}.cls-2{fill:#fff;}.cls-3{fill:#6bdad5;}</style>
  </defs>
  <g
     id="Ultrafit"
     transform="translate(-77.91,-410.34)">
    <g
       id="trin20345051-small-group-training-web-updates-2020-proslanding-gtmembership-ultra-logo">
      <g
         id="Group_3472"
         data-name="Group 3472">
        <g
           id="Group_3470"
           data-name="Group 3470">
          <path
             id="Path_1171"
             data-name="Path 1171"
             class="cls-2"
             d="M 659.92,500.18 H 616.2 l -2.36,11.1 20.79,16.15 2.62,-12.34 h 15.81 c 9.18,0 12.61,3.06 10.9,11.09 -1.87,8.78 -6.78,11 -16.76,11 h -14.64 v -0.07 h -24.23 l -8.82,41.49 h 24.22 l 5.86,-27.52 h 8.95 c 5.35,0 6.89,1.78 8.51,6.75 l 5.78,20.78 h 25 l -6,-20.39 a 13.59,13.59 0 0 0 -6.28,-9.44 29.25,29.25 0 0 0 21.94,-22.94 c 3.59,-16.83 -3.85,-25.63 -27.57,-25.63" />
          <path
             id="Path_1172"
             data-name="Path 1172"
             class="cls-2"
             d="m 420,544 c -3.19,14.92 -6.74,19.12 -17.83,19.12 -11.09,0 -12.82,-4.46 -9.7,-19.12 l 9.32,-43.85 h -24.21 l -9.86,46.4 c -5,23.72 5.54,33.28 30.28,33.28 25.74,0 40.66,-9.58 45.69,-33.28 l 9.87,-46.4 h -24.22 z" />
        </g>
        <path
           id="Path_1173"
           data-name="Path 1173"
           class="cls-2"
           d="M 472.65,500.18 456,578.58 h 60.43 L 520,561.5 h -36.2 l 13,-61.32 z" />
        <path
           id="Path_1174"
           data-name="Path 1174"
           class="cls-2"
           d="m 531.31,500.18 -3.63,17.08 h 23.72 l -13,61.32 h 24.22 l 13,-61.32 h 23.71 L 603,500.17 Z" />
        <g
           id="Group_3471"
           data-name="Group 3471">
          <path
             id="Path_1175"
             data-name="Path 1175"
             class="cls-2"
             d="m 734.74,500.18 -46.24,78.4 H 712 l 8.35,-15.3 H 749 l 1.85,15.3 h 25.62 l -12.4,-78.4 z m -6.08,47.82 8.51,-15.42 c 3.46,-6.12 7.27,-14.42 7.27,-14.42 0,0 0.27,8.3 1,14.42 l 1.83,15.42 z" />
        </g>
      </g>
      <g
         id="Group_3473"
         data-name="Group 3473">
        <path
           id="Path_1176"
           data-name="Path 1176"
           class="cls-3"
           d="m 930.44,500.18 -3.63,17.08 h 23.7 l -13,61.32 h 24.19 l 13,-61.32 h 23.71 l 3.63,-17.09 z" />
        <path
           id="Path_1177"
           data-name="Path 1177"
           class="cls-3"
           d="m 892.74,500.18 -16.67,78.4 h 24.33 l 16.67,-78.4 z" />
        <path
           id="Path_1178"
           data-name="Path 1178"
           class="cls-3"
           d="m 812,500.18 -2.16,10.14 20.9,16.23 2,-9.42 h 40.92 l 3.59,-16.95 z" />
        <path
           id="Path_1179"
           data-name="Path 1179"
           class="cls-3"
           d="m 840.15,533.84 h -35.29 l -9.51,44.74 h 24.34 l 6.42,-30.22 h 36.33 l 3.1,-14.53 z" />
      </g>
      <g
         id="Group_3475"
         data-name="Group 3475">
        <path
           id="Path_1180"
           data-name="Path 1180"
           class="cls-3"
           d="M 190.17,410.34 77.91,475.18 v 129.66 l 17.7,10.22 -0.92,-10 h 9.21 l 45.45,-50.06 2.34,-6.51 A 12.45,12.45 0 0 1 157,542 l 11.65,-5.76 22.63,-27.85 -12.13,-15.46 -26.15,-12.37 -5.42,-1 a 8.11,8.11 0 0 1 -3,-1.2 l -8.18,-5.44 a 8.35,8.35 0 0 1 6.83,-4.71 l 3.32,-0.27 7.88,6.9 26.79,10.64 28.46,17.67 9.2,-11.63 a 7.6,7.6 0 0 1 10.67,-1.25 7.07,7.07 0 0 1 1.17,1.15 l 5.85,7.13 -10.18,12.61 -4,-1.43 -9.54,4.68 11.43,-0.68 10.42,5 13.21,-16 2.63,-12 a 11.27,11.27 0 0 1 1.65,-4.21 l 0.54,-0.83 8.59,8.06 -7.42,11.25 -13.68,24.3 -21.59,-4.89 -26,17.78 -10.37,0.73 30,16.6 a 5.54,5.54 0 0 1 2.18,7.53 5.63,5.63 0 0 1 -0.67,1 l -28,32.36 8.18,6.19 a 5.23,5.23 0 0 1 1,7.34 4.45,4.45 0 0 1 -0.54,0.61 l -24.33,-11.37 27,-35.11 -39.54,-9.87 7.11,8.15 -56.42,46.65 -2.83,7.75 84.78,48.95 112.3,-64.83 v -129.7 z" />
        <g
           id="Group_3474"
           data-name="Group 3474">
          <path
             id="Path_1181"
             data-name="Path 1181"
             class="cls-3"
             d="m 292.81,617.79 a 1.6,1.6 0 0 0 -1.66,-1.53 h -0.18 c -0.83,0 -1.66,0.3 -1.66,1.26 0,0.96 1.19,1.05 2.39,1.32 1.2,0.27 2.37,0.69 2.37,2.14 0,1.45 -1.55,2.21 -2.9,2.21 -1.66,0 -3.06,-0.8 -3.06,-2.62 H 289 c 0,1.25 1,1.79 2.16,1.79 0.9,0 1.88,-0.28 1.88,-1.35 0,-1.07 -1.2,-1.2 -2.37,-1.45 -1.17,-0.25 -2.39,-0.6 -2.39,-2 0,-1.4 1.34,-2.17 2.69,-2.17 a 2.41,2.41 0 0 1 2.71,2 c 0,0.1 0,0.21 0,0.31 z" />
          <path
             id="Path_1182"
             data-name="Path 1182"
             class="cls-3"
             d="m 295.1,615.64 h 1.34 l 2.34,6.23 2.35,-6.23 h 1.35 v 7.42 h -0.94 v -6.17 0 l -2.32,6.17 h -0.83 l -2.32,-6.17 v 0 6.17 h -0.93 z" />
        </g>
      </g>
    </g>
  </g>
</svg>
