<?xml version="1.0" standalone="no"?>
<!DOCTYPE svg PUBLIC "-//W3C//DTD SVG 1.1//EN" "http://www.w3.org/Graphics/SVG/1.1/DTD/svg11.dtd" >
<svg xmlns="http://www.w3.org/2000/svg">
<metadata>Generated by IcoMoon</metadata>
<defs>
<font id="mylt-icons" horiz-adv-x="1024">
<font-face units-per-em="1024" ascent="960" descent="-64" />
<missing-glyph horiz-adv-x="1024" />
<glyph unicode="&#x20;" horiz-adv-x="512" d="" />
<glyph unicode="&#xe600;" glyph-name="club" horiz-adv-x="1216" d="M921.6 665.6v-51.2h-153.6v51.2h204.8v-614.4h-972.8v614.4h204.8v-51.2h-153.6v-512h870.4v563.2zM256 742.4c55.013 43.327 140.002 75.248 230.4 76.8 90.398-1.552 175.387-33.473 230.4-76.8v-640h51.2v665.6c-86.362 66.81-181.119 102.4-281.6 102.4s-195.238-35.59-281.6-102.4v-665.6h51.2v640zM614.4 460.8c0 95.287-57.109 153.6-128 153.6s-128-58.313-128-153.6v-358.4h51.2v358.4c-3.913 67.996 31.852 104.516 76.8 102.4 44.948 2.116 80.713-34.404 76.8-102.4v-358.4h51.2v358.4z" />
<glyph unicode="&#xe601;" glyph-name="user" d="M512 972.8c-282.738 0-512-229.205-512-512s229.205-512 512-512 512 229.205 512 512c0 282.795-229.205 512-512 512zM215.609 111.844v46.876c0 74.069 64.455 133.632 145.92 133.632h300.999c81.522 0 145.92-59.563 145.92-133.632v-46.82c-79.929-67.982-183.353-109.227-296.448-109.227s-216.519 41.244-296.391 109.17zM861.639 165.205c-3.641 101.66-91.136 181.077-199.168 181.077h-300.999c-108.032 0-195.47-79.417-199.111-181.134-67.527 79.815-108.487 182.955-108.487 295.652 0 252.985 205.084 458.069 458.126 458.069s458.126-205.084 458.126-458.069c0-112.697-40.903-215.836-108.487-295.595zM512 790.926c-79.417 0-148.196-64.398-148.196-142.45v-92.388c0-78.052 68.836-142.45 148.196-142.45s148.196 64.398 148.196 142.45v92.388c0 78.052-68.779 142.45-148.196 142.45zM606.322 556.089c0-47.445-43.918-88.576-94.322-88.576s-94.322 41.131-94.322 88.576v92.388c0 47.445 43.918 88.576 94.322 88.576s94.322-41.131 94.322-88.576v-92.388z" />
<glyph unicode="&#xe602;" glyph-name="search" d="M997.325 118.835l-241.818 241.869-17.203-17.306-35.379-35.379-73.626 73.626c121.088 140.698 115.251 352.922-18.125 486.349-139.827 139.776-366.49 139.776-506.368-0.051-139.776-139.776-139.776-366.49 0-506.317 133.376-133.325 345.651-139.213 486.349-18.125l73.626-73.574-52.634-52.634 17.254-17.203 224.614-224.614c35.686-35.738 94.106-35.584 129.894 0.307l13.107 13.005c35.84 35.942 36.045 94.362 0.307 130.048zM139.366 396.083c-120.781 120.73-120.781 316.57 0 437.35s316.621 120.832 437.35 0c120.781-120.781 120.781-316.621 0-437.402-120.781-120.73-316.57-120.73-437.35 0.051zM962.509 23.296l-13.005-13.005c-16.896-16.896-44.39-16.998-60.979-0.358l-207.411 207.411 74.394 74.394 207.36-207.411c16.64-16.589 16.538-44.134-0.358-61.030z" />
<glyph unicode="&#xe603;" glyph-name="key" d="M307.2 716.8c108.339 0 205.363-68.557 241.408-170.65l12.083-34.15h360.602c28.416 0 51.507-22.989 51.507-51.2 0-28.262-23.091-51.2-51.507-51.2h-360.602l-12.083-34.15c-36.045-102.042-133.069-170.65-241.408-170.65-141.158 0-256 114.842-256 256s114.842 256 256 256v0zM256 358.4c56.474 0 102.4 45.875 102.4 102.4 0 56.474-45.926 102.4-102.4 102.4s-102.4-45.926-102.4-102.4c0-56.525 45.926-102.4 102.4-102.4v0zM307.2 768c-169.626 0-307.2-137.574-307.2-307.2 0-169.574 137.574-307.2 307.2-307.2 133.734 0 247.552 85.504 289.69 204.8h324.403c56.832 0 102.707 45.875 102.707 102.4 0 56.934-45.978 102.4-102.707 102.4h-324.403c-42.138 119.347-155.955 204.8-289.69 204.8v0 0zM256 409.6c-28.262 0-51.2 22.886-51.2 51.2 0 28.262 22.938 51.2 51.2 51.2s51.2-22.938 51.2-51.2c0-28.314-22.938-51.2-51.2-51.2v0 0z" />
<glyph unicode="&#xe604;" glyph-name="help" d="M512 51.2c226.216 0 409.6 183.384 409.6 409.6s-183.384 409.6-409.6 409.6c-226.216 0-409.6-183.384-409.6-409.6s183.384-409.6 409.6-409.6v0zM512 99.388c-199.602 0-361.412 161.81-361.412 361.412s161.81 361.412 361.412 361.412c199.602 0 361.412-161.81 361.412-361.412s-161.81-361.412-361.412-361.412v0zM386.355 561.050h65.229v52.326c25.805 8.602 48.026 11.469 62.362 11.469 26.522 0 67.379-4.301 75.981-43.008 2.15-10.035 2.15-20.070-0.717-31.539-14.336-68.813-112.538-76.698-112.538-173.466v-21.504h69.53v21.504c0 70.246 128.307 70.963 128.307 194.253 0 55.91-27.238 128.307-143.36 128.307-49.459 0-103.936-11.469-144.794-27.955v-110.387zM472.371 303.002v-98.202h78.848v98.202h-78.848z" />
<glyph unicode="&#xe605;" glyph-name="crosshairs" d="M972.8 512h-103.68c-12.595 191.59-165.478 344.422-357.12 357.12v103.68h-51.2v-103.68c-191.59-12.698-344.422-165.53-357.12-357.12h-103.68v-51.2h103.68c12.698-191.59 165.53-344.525 357.12-357.12v-103.68h51.2v103.68c191.59 12.595 344.525 165.478 357.12 357.12h103.68v51.2zM512 151.706v53.094h-51.2v-53.094c-165.12 12.442-296.602 143.974-309.094 309.094h53.094v51.2h-53.094c12.493 165.12 143.974 296.602 309.094 309.094v-53.094h51.2v53.094c165.12-12.493 296.653-143.974 309.094-309.094h-53.094v-51.2h53.094c-12.442-165.12-143.974-296.653-309.094-309.094v0z" />
<glyph unicode="&#xe606;" glyph-name="close" d="M553.919 443.173h3.58l-385.335-405.83c-9.735-10.253-25.939-10.673-36.192-0.938s-10.673 25.939-0.938 36.192l370.388 390.088-370.388 390.088c-9.735 10.253-9.315 26.457 0.938 36.192s26.457 9.315 36.192-0.938l385.335-405.83h-3.58l-14.985 15.782-14.985-15.782h-3.58l382.665 403.019c9.735 10.253 25.939 10.673 36.192 0.938s10.673-25.939 0.938-36.192l-367.718-387.277 367.718-387.277c9.735-10.253 9.315-26.457-0.938-36.192s-26.457-9.315-36.192 0.938l-382.665 403.019h3.58l14.985-15.782 14.985 15.782z" />
<glyph unicode="&#xe607;" glyph-name="gear" d="M781.935 177.844c-35.979 25.729-84.7 29.842-125.318 6.011-40.512-23.756-61.341-68.459-57.546-112.843-27.997-6.77-57.049-10.777-87.079-10.777-30.015 0-59.067 4.007-87.094 10.777 3.886 44.384-16.958 89.118-57.455 112.888-40.663 23.892-89.414 19.733-125.408-6.057-40.121 42.684-70.648 94.704-87.772 152.764 40.407 18.564 68.63 59.67 68.6 107.621 0.030 48.27-28.494 89.588-69.263 108.016 16.732 58.243 46.883 110.475 86.793 153.463 36.1-26.852 85.769-31.315 127.035-7.104 41.416 24.272 62.486 70.462 57.44 115.757 27.997 6.816 57.064 10.838 87.124 10.838 30.076 0 59.187-4.023 87.14-10.838-4.985-45.295 16.085-91.425 57.501-115.727 41.22-24.165 90.874-19.733 126.959 7.074 39.895-42.942 70.076-95.22 86.808-153.493-40.738-18.458-69.188-59.715-69.188-107.985-0.015-47.951 28.178-89.057 68.525-107.591-17.124-58.091-47.651-110.111-87.802-152.795zM701.741 439.725c0 104.8-84.975 189.734-189.756 189.734-104.796 0-189.727-84.934-189.727-189.734 0-104.785 84.931-189.748 189.727-189.748 104.781 0 189.756 84.964 189.756 189.748v0z" />
<glyph unicode="&#xe608;" glyph-name="check" d="M270.996 424.596l196.337-196.337 291.13 407.582c16.436 23.010 11.106 54.987-11.904 71.423s-54.987 11.106-71.423-11.904l-256-358.4 77.867 6.444-153.6 153.6c-19.995 19.995-52.413 19.995-72.408 0s-19.995-52.413 0-72.408v0z" />
<glyph unicode="&#xe609;" glyph-name="facebook" d="M398.333 405.759v-354.559h172.553v352.875h117.794l28.495 147.114h-145.049v107.908c0 14.91 7.954 34.822 32.087 34.822h83.873v149.813h-156.596c-54.016 0-133.776-66.523-133.776-137.207v-151.176h-90.513v-148.971l91.133-0.619z" />
<glyph unicode="&#xe60a;" glyph-name="instagram" d="M512.001 819.2c-97.336 0-109.541-0.413-147.769-2.157-38.148-1.74-64.201-7.799-86.998-16.659-23.568-9.158-43.555-21.413-63.481-41.337-19.925-19.926-32.179-39.913-41.337-63.481-8.86-22.797-14.92-48.85-16.659-86.998-1.744-38.227-2.157-50.432-2.157-147.769 0-97.335 0.413-109.54 2.157-147.767 1.74-38.148 7.799-64.201 16.659-86.998 9.158-23.568 21.413-43.555 41.337-63.481 19.926-19.925 39.913-32.179 63.481-41.339 22.797-8.859 48.85-14.918 86.998-16.658 38.227-1.744 50.432-2.157 147.769-2.157 97.335 0 109.54 0.413 147.767 2.157 38.148 1.74 64.201 7.799 86.998 16.658 23.568 9.159 43.555 21.414 63.481 41.339 19.925 19.926 32.179 39.913 41.339 63.481 8.859 22.797 14.918 48.85 16.658 86.998 1.744 38.227 2.157 50.432 2.157 147.767s-0.413 109.541-2.157 147.769c-1.74 38.148-7.799 64.201-16.658 86.998-9.159 23.568-21.414 43.555-41.339 63.481-19.926 19.925-39.913 32.179-63.481 41.337-22.797 8.86-48.85 14.92-86.998 16.659-38.227 1.744-50.432 2.157-147.767 2.157v0 0zM512.001 754.624c95.696 0 107.032-0.366 144.824-2.090 34.944-1.593 53.921-7.432 66.55-12.34 16.729-6.502 28.668-14.268 41.209-26.81s20.309-24.48 26.81-41.209c4.908-12.629 10.747-31.606 12.34-66.55 1.724-37.792 2.090-49.128 2.090-144.825s-0.366-107.032-2.090-144.824c-1.593-34.944-7.432-53.921-12.34-66.55-6.502-16.729-14.268-28.668-26.81-41.209s-24.48-20.309-41.209-26.81c-12.629-4.908-31.606-10.747-66.55-12.34-37.786-1.724-49.121-2.090-144.824-2.090-95.705 0-107.038 0.366-144.825 2.090-34.944 1.593-53.921 7.432-66.55 12.34-16.729 6.502-28.668 14.268-41.209 26.81s-20.309 24.48-26.81 41.209c-4.908 12.629-10.747 31.606-12.34 66.55-1.724 37.792-2.090 49.128-2.090 144.824s0.366 107.033 2.090 144.825c1.593 34.944 7.432 53.921 12.34 66.55 6.502 16.729 14.268 28.668 26.81 41.209s24.48 20.309 41.209 26.81c12.629 4.908 31.606 10.747 66.55 12.34 37.792 1.724 49.128 2.090 144.825 2.090v0 0zM512.001 341.333c-65.981 0-119.467 53.487-119.467 119.466 0 65.981 53.487 119.467 119.467 119.467s119.466-53.487 119.466-119.467c0-65.979-53.487-119.466-119.466-119.466v0 0zM512.001 644.843c-101.646 0-184.044-82.398-184.044-184.044 0-101.644 82.398-184.042 184.044-184.042 101.644 0 184.042 82.398 184.042 184.042 0 101.646-82.398 184.044-184.042 184.044v0 0zM746.323 652.114c0-23.753-19.256-43.007-43.009-43.007-23.751 0-43.007 19.254-43.007 43.007s19.256 43.009 43.007 43.009c23.753 0 43.009-19.256 43.009-43.009z" />
<glyph unicode="&#xe60b;" glyph-name="youtube" d="M888.911 691.205c-21.302 37.666-44.052 44.732-90.228 47.601-46.199 2.845-162.265 4.268-263.059 4.268v0c-100.818 0-216.836-1.423-263.059-4.268-46.175-2.845-68.925-9.935-90.228-47.601-21.302-37.642-32.689-102.943-32.689-217.147v0-0.241c0-114.204 11.411-179.505 32.689-217.147 21.302-37.666 44.052-44.732 90.228-47.601 46.224-2.821 162.265-4.268 263.059-4.268v0c100.818 0 216.86 1.447 263.059 4.268 46.175 2.845 68.925 9.935 90.228 47.601 21.302 37.642 32.689 102.943 32.689 217.147v0.241c0 114.204-11.411 179.505-32.689 217.147v0zM458.738 332.508v282.858l219.2-141.429-219.2-141.429z" />
<glyph unicode="&#xe60c;" glyph-name="twitter" d="M921.6 709.165c-28.531-12.648-59.196-21.201-91.412-25.054 32.846 19.675 58.081 50.858 69.983 88.003-30.762-18.221-64.82-31.45-101.060-38.598-29.016 30.917-70.371 50.228-116.162 50.228-87.873 0-159.141-71.211-159.141-159.069 0-12.478 1.406-24.617 4.121-36.272-132.282 6.639-249.534 69.976-328.026 166.216-13.696-23.503-21.55-50.834-21.55-79.983 0-55.195 28.095-103.873 70.783-132.392-26.083 0.824-50.615 7.972-72.068 19.893-0.024-0.654-0.024-1.333-0.024-2.011 0-77.075 54.857-141.357 127.676-155.991-13.357-3.634-27.416-5.573-41.912-5.573-10.254 0-20.217 0.993-29.937 2.859 20.241-63.191 79.025-109.179 148.669-110.464-54.469-42.669-123.095-68.11-197.635-68.11-12.848 0-25.526 0.751-37.961 2.229 70.419-45.14 154.074-71.478 243.935-71.478 292.731 0 452.817 242.395 452.817 452.613 0 6.905-0.145 13.738-0.461 20.571 31.052 22.485 58.032 50.495 79.364 82.381v0z" />
<glyph unicode="&#xe60d;" glyph-name="pinterest" d="M448.079 312.934c-21.264-106.409-47.212-208.445-124.169-261.734-23.745 160.833 34.884 281.614 62.072 409.86-46.402 74.619 5.595 224.654 103.537 187.67 120.498-45.486-104.322-277.242 46.579-306.181 157.609-30.244 221.934 260.888 124.219 355.533-141.18 136.749-411.010 3.189-377.822-192.526 8.050-47.83 59.869-62.372 20.707-128.367-90.374 19.083-117.334 87.108-113.866 177.766 5.595 148.392 139.737 252.265 274.285 266.662 170.216 18.19 329.902-59.618 351.875-212.358 24.834-172.38-76.754-359.084-258.767-345.653-49.262 3.575-69.97 26.886-108.651 49.327v0z" />
<glyph unicode="&#xe60e;" glyph-name="scroll-arrow" d="M952.95 596.762c34.67 38.018 22.662 68.838-26.183 68.838h-829.481c-49.13 0-60.798-30.88-26.183-68.838l378.148-414.67c34.67-38.018 90.936-37.958 125.551 0l378.148 414.67z" />
<glyph unicode="&#xe60f;" glyph-name="calendar" d="M716.8 768v51.2h-51.2v-51.2h-307.2v51.2h-51.2v-51.2h-153.6v-665.6h568.422c81.818 0 148.378 62.925 148.378 140.237v525.363h-153.6zM819.2 242.637c0-49.101-43.622-89.037-97.178-89.037h-5.222v102.4h102.4v-13.363zM819.2 307.2h-153.6v-153.6h-460.8v409.6h614.4v-256zM204.8 614.4v102.4h102.4v-51.2h51.2v51.2h307.2v-51.2h51.2v51.2h102.4v-102.4h-614.4z" />
<glyph unicode="&#xe610;" glyph-name="calendar-sm" d="M665.6 665.6v51.2h-51.2v-51.2h-204.8v51.2h-51.2v-51.2h-102.4v-460.8h422.656c49.28 0 89.344 41.498 89.344 92.467v368.333h-102.4zM358.4 563.2h51.2v51.2h204.8v-51.2h51.2v51.2h51.2v-51.2h-409.6v51.2h51.2v-51.2zM716.8 297.267c0-22.758-17.126-41.267-38.144-41.267h-13.056v51.2h51.2v-9.933zM614.4 358.4v-102.4h-307.2v307.2h409.6v-204.8h-102.4zM307.2 512h409.6v-51.2h-409.6v51.2z" />
<glyph unicode="&#xe611;" glyph-name="clock" d="M486.4 153.6v0c183.8 0 332.8 149 332.8 332.8s-149 332.8-332.8 332.8c-183.8 0-332.8-149-332.8-332.8s149-332.8 332.8-332.8v0zM486.4 102.4v0c-212.077 0-384 171.923-384 384s171.923 384 384 384c212.077 0 384-171.923 384-384s-171.923-384-384-384v0zM460.8 716.8h51.2v-256h-51.2v256zM512 512h153.6v-51.2h-153.6v51.2z" />
<glyph unicode="&#xe612;" glyph-name="clock-sm" d="M486.4 307.2v0c98.969 0 179.2 80.231 179.2 179.2s-80.231 179.2-179.2 179.2c-98.969 0-179.2-80.231-179.2-179.2s80.231-179.2 179.2-179.2v0zM486.4 256v0c-127.246 0-230.4 103.154-230.4 230.4s103.154 230.4 230.4 230.4c127.246 0 230.4-103.154 230.4-230.4s-103.154-230.4-230.4-230.4v0zM460.8 614.4h51.2v-153.6h-51.2v153.6zM512 512h102.4v-51.2h-102.4v51.2z" />
<glyph unicode="&#xe613;" glyph-name="map-marker" d="M542.831 148.339v0l-11.683-17.408h-38.296l-11.681 17.405 195.423 291.112c25.977 35.371 40.206 77.744 40.206 122.281 0 113.944-91.797 206.27-204.8 206.27-114.707 0-204.8-87.405-204.8-199.673 0-46.385 15.354-95.040 41.453-130.654l194.178-289.334zM512 102.4l-205.861 306.742c-31.342 42.676-50.139 101.937-50.139 159.185 0 142.152 114.651 250.873 256 250.873s256-115.317 256-257.47c0-57.211-18.798-109.913-50.139-152.588l-205.861-306.742zM512 435.2c70.692 0 128 57.308 128 128s-57.308 128-128 128c-70.692 0-128-57.308-128-128s57.308-128 128-128v0zM512 486.4c-42.415 0-76.8 34.385-76.8 76.8s34.385 76.8 76.8 76.8c42.415 0 76.8-34.385 76.8-76.8s-34.385-76.8-76.8-76.8v0z" />
<glyph unicode="&#xe614;" glyph-name="map-marker-sm" d="M512 204.723l-165.222 241.562c-24.55 32.742-39.578 79.36-39.578 123.802 0 110.976 89.958 197.914 204.8 197.914 112.922 0 204.8-90.803 204.8-202.445 0-43.469-13.901-85.018-40.192-120.166l-164.608-240.666zM512 716.8c-86.118 0-153.6-64.461-153.6-146.714 0-33.766 11.213-68.915 30.003-94.003l123.597-180.685 122.982 179.789c20.25 27.11 30.618 58.061 30.618 90.368 0 83.405-68.89 151.245-153.6 151.245v0zM563.2 563.226c0 28.237-22.886 51.174-51.2 51.174-28.288 0-51.2-22.938-51.2-51.174 0-28.288 22.912-51.226 51.2-51.226 28.314 0 51.2 22.938 51.2 51.226z" />
<glyph unicode="&#xe615;" glyph-name="person" d="M680.96 409.6h-337.92c-102.4 0-189.44-112.64-189.44-256h716.8c0 143.36-87.040 256-189.44 256zM680.96 358.4c66.56 0 117.76-66.56 138.24-153.6h-609.28c15.36 87.040 71.68 153.6 138.24 153.6h332.8zM358.4 665.126c0 85.093 68.942 154.074 153.6 154.074 84.831 0 153.6-69.103 153.6-154.074v-50.252c0-85.093-68.942-154.074-153.6-154.074-84.831 0-153.6 69.103-153.6 154.074v50.252zM409.6 665.126v0-50.252c0-56.777 45.93-102.874 102.4-102.874 56.415 0 102.4 46.092 102.4 102.874v50.252c0 56.777-45.93 102.874-102.4 102.874-56.415 0-102.4-46.092-102.4-102.874v0z" />
<glyph unicode="&#xe616;" glyph-name="person-sm" d="M768 204.8h-512v25.6c0 98.816 66.714 179.2 148.762 179.2h214.502c82.022 0 148.736-80.384 148.736-179.2v-25.6zM309.146 256h405.709c-9.088 58.342-48.512 102.4-95.59 102.4h-214.502c-47.104 0-86.528-44.058-95.616-102.4v0zM512 435.2c-70.579 0-128 57.421-128 128v25.6c0 70.579 57.421 128 128 128s128-57.421 128-128v-25.6c0-70.579-57.421-128-128-128v0zM512 665.6c-42.342 0-76.8-34.458-76.8-76.8v-25.6c0-42.342 34.458-76.8 76.8-76.8s76.8 34.458 76.8 76.8v25.6c0 42.342-34.458 76.8-76.8 76.8v0z" />
<glyph unicode="&#xe617;" glyph-name="cost-sm" d="M584.090 458.65c-4.403 0.922-44.646 12.442-72.090 20.326v135.424h51.2c28.262 0 51.2-22.989 51.2-51.2h51.2c0 56.32-46.080 102.4-102.4 102.4h-51.2v51.2h-51.2v-51.2h-51.2c-56.32 0-102.4-46.080-102.4-102.4 0-49.152 35.174-90.573 81.51-100.25 4.403-0.922 44.646-12.442 72.090-20.378v-135.373h-51.2c-28.262 0-51.2 22.989-51.2 51.2h-51.2c0-56.32 46.080-102.4 102.4-102.4h51.2v-51.2h51.2v51.2h51.2c56.32 0 102.4 46.080 102.4 102.4 0 49.152-35.174 90.573-81.51 100.25v0zM389.632 516.045c-18.33 7.731-31.232 25.958-31.232 47.155 0 28.211 22.938 51.2 51.2 51.2h51.2v-120.32c-27.29 8.192-67.123 20.275-71.168 21.965v0zM563.2 307.2h-51.2v120.32c27.29-8.192 67.123-20.275 71.168-21.965 18.33-7.782 31.232-25.958 31.232-47.155 0-28.211-22.938-51.2-51.2-51.2v0z" />
<glyph unicode="&#xe618;" glyph-name="daypart-morning" d="M51.2 307.2h153.6v-51.2h-153.6v51.2zM768 307.2h153.6v-51.2h-153.6v51.2zM460.8 716.8h51.2v-153.6h-51.2v153.6zM791.027 614.4l36.204-36.204-108.612-108.612-36.204 36.204 108.612 108.612zM290.385 505.788l-36.204-36.204-108.612 108.612 36.204 36.204 108.612-108.612zM486.4 460.8c90.112 0 164.915-66.867 177.408-153.6h-354.816c12.493 86.733 87.296 153.6 177.408 153.6zM486.4 512c-127.232 0-230.4-103.168-230.4-230.4 0-8.755 1.587-17.050 2.611-25.6h455.578c1.024 8.55 2.611 16.845 2.611 25.6 0 127.232-103.168 230.4-230.4 230.4z" />
<glyph unicode="&#xe619;" glyph-name="daypart-midday" d="M486.4 358.4v0c70.692 0 128 57.308 128 128s-57.308 128-128 128c-70.692 0-128-57.308-128-128s57.308-128 128-128v0zM486.4 307.2v0c-98.969 0-179.2 80.231-179.2 179.2s80.231 179.2 179.2 179.2c98.969 0 179.2-80.231 179.2-179.2s-80.231-179.2-179.2-179.2v0zM460.8 870.4h51.2v-153.6h-51.2v153.6zM716.8 512h153.6v-51.2h-153.6v51.2zM102.4 512h153.6v-51.2h-153.6v51.2zM460.8 256h51.2v-153.6h-51.2v153.6zM739.827 776.031l36.204-36.204-108.612-108.612-36.204 36.204 108.612 108.612zM667.419 341.585l108.612-108.612-36.204-36.204-108.612 108.612 36.204 36.204zM341.585 667.419l-36.204-36.204-108.612 108.612 36.204 36.204 108.612-108.612zM305.381 341.585l36.204-36.204-108.612-108.612-36.204 36.204 108.612 108.612z" />
<glyph unicode="&#xe61a;" glyph-name="daypart-evening" d="M358.4 677.478c0.205-169.216 137.933-306.842 307.2-306.842 29.389 0 58.368 4.25 86.17 12.595-36.454-96.973-130.202-166.195-239.77-166.195-141.158 0-256 114.842-256 256 0 81.664 39.526 156.979 102.4 204.442zM426.803 768c-128.205-36.966-222.003-154.88-222.003-294.963 0-169.677 137.574-307.2 307.2-307.2s307.2 137.523 307.2 307.2c0 0.358-0.051 0.768-0.051 1.126-42.906-32.41-95.693-52.326-153.549-52.326-141.363 0-256 114.586-256 256 0 31.846 6.554 62.003 17.203 90.163z" />
<glyph unicode="&#xe61b;" glyph-name="arrow-left" d="M194.196 460.8l512-512 36.742 36.742-476.113 475.258 476.113 475.258-36.742 36.742-512-512z" />
<glyph unicode="&#xe61c;" glyph-name="arrow-right" d="M705.444 460.8l-467.546-475.258 36.202-36.742 504.47 512-504.47 512-36.202-36.742 467.546-475.258z" />
<glyph unicode="&#xe61d;" glyph-name="arrow-up" d="M512 659.533l468.298-469.086 36.204 36.204-504.502 504.502-504.502-504.502 36.204-36.204 468.298 469.086z" />
<glyph unicode="&#xe61e;" glyph-name="arrow-down" d="M512 190.447l504.502 504.502-36.204 36.204-468.298-469.611-468.298 469.611-36.204-36.204 504.502-504.502z" />
<glyph unicode="&#xe61f;" glyph-name="arrow-left-sm" d="M347.796 486.4l248.502-248.502 36.204 36.204-214.793 212.298 214.793 212.298-36.204 36.204-248.502-248.502z" />
<glyph unicode="&#xe620;" glyph-name="arrow-right-sm" d="M602.812 486.4l-211.314-212.298 36.204-36.204 248.502 248.502-248.502 248.502-36.204-36.204 211.314-212.298z" />
<glyph unicode="&#xe621;" glyph-name="arrow-up-sm" d="M486.4 549.803l212.298-209.505 36.204 36.204-248.502 248.502-248.502-248.502 36.204-36.204 212.298 209.505z" />
<glyph unicode="&#xe622;" glyph-name="arrow-down-sm" d="M486.4 347.796l248.502 248.502-36.204 36.204-209.089-214.899-215.507 214.899-36.204-36.204 248.502-248.502z" />
<glyph unicode="&#xe623;" glyph-name="phone-sm" d="M652.837 153.6v0c-19.814 0-38.349 5.295-53.658 15.377-151.808 99.952-279.398 227.859-379.238 380.155-24.627 37.476-18.586 94.25 13.568 126.481l70.554 70.776c33.587 33.606 88.013 27.139 114.534-13.29 18.944-28.922 50.739-74.646 50.739-74.697l9.421-13.493-8.448-14.002c-27.392-45.674-51.405-96.184-53.811-112.784 41.626-59.625 92.723-110.9 152.115-152.551 18.278 2.699 71.066 29.125 112.026 53.871l14.285 8.605 13.722-9.522c0.051-0.051 45.722-31.875 74.598-50.918 20.275-13.391 33.229-33.555 35.43-55.399 2.202-21.487-5.734-42.364-22.221-58.861l-70.554-70.776c-18.381-18.381-45.005-28.972-73.062-28.972v0zM340.363 710.492l-70.502-70.725c-15.258-15.275-18.586-45.164-7.014-62.782 96-146.492 218.675-269.459 364.595-365.541 16.998-11.151 47.616-7.536 62.106 6.976l70.502 70.776c3.994 3.972 8.499 10.184 7.731 17.821-0.717 6.721-5.274 13.137-12.851 18.127-19.302 12.78-46.131 31.213-62.106 42.262-32.922-19.094-95.846-53.006-126.976-53.006-8.602 0-16.128 2.189-22.221 6.416-67.686 46.641-125.645 104.739-172.288 172.663-6.605 9.674-21.811 31.722 46.643 149.343-11.008 15.988-29.542 43.026-42.291 62.477-5.376 8.147-12.442 12.831-19.507 12.831-5.325 0-10.803-2.648-15.821-7.638z" />
<glyph unicode="&#xe624;" glyph-name="plus-sm" d="M460.8 512h-204.8v-51.2h204.8v-204.8h51.2v204.8h204.8v51.2h-204.8v204.8h-51.2v-204.8z" />
<glyph unicode="&#xe625;" glyph-name="minus-sm" d="M256 512h460.8v-51.2h-460.8v51.2z" />
<glyph unicode="&#xe626;" glyph-name="alert" d="M425.278 679.279v0l-223.18-375.585c-37.659-63.376-17.393-98.894 56.314-98.894h455.161c73.572 0 93.878 35.678 56.314 98.894l-223.18 375.585c-38.1 64.118-83.356 64.073-121.429 0v0zM381.263 705.434c57.841 97.339 151.441 97.639 209.46 0l223.18-375.585c57.841-97.339 12.949-176.248-100.329-176.248h-455.161c-113.251 0-158.348 78.609-100.329 176.248l223.18 375.585zM460.8 563.2h51.215v-153.644h-51.215v153.644zM460.8 358.4h51.215v-51.215h-51.215v51.215z" />
<glyph unicode="&#xe627;" glyph-name="alert-sm" d="M752.695 331.844l-193.003 335.508c-18.104 31.446-44.813 49.448-73.288 49.448s-55.184-18.002-73.288-49.448l-193.003-335.482c-18.079-31.42-20.255-63.609-5.967-88.294 14.289-24.711 43.276-38.898 79.511-38.898h385.493c36.234 0 65.222 14.186 79.511 38.898 14.289 24.686 12.087 56.874-5.967 88.269v0zM714.31 269.209c-4.865-8.476-17.695-13.316-35.159-13.316h-385.493c-17.464 0-30.294 4.84-35.159 13.316-4.917 8.45-2.714 21.971 6.018 37.105l193.003 335.482c8.707 15.134 19.231 23.789 28.885 23.789s20.179-8.655 28.885-23.764l193.003-335.508c8.732-15.134 10.934-28.655 6.018-37.105v0zM460.797 358.322h51.215v-51.215h-51.215v51.215zM460.797 563.181h51.215v-153.644h-51.215v153.644z" />
<glyph unicode="&#xe628;" glyph-name="edit-sm" d="M512 204.8h307.2v-48.128h-307.2v48.128zM736.819 658.022l-38.963 40.192c-36.506 37.325-102.195 36.454-139.11-1.536l-353.946-363.264 0.102-179.763 176.333-0.051 354.15 363.571c38.298 39.322 38.912 102.554 1.434 140.851v0zM359.629 204.8l-103.526 0.051-0.102 107.776 259.533 266.342 105.677-105.677-261.581-268.493zM698.726 552.858l-41.779-42.906-105.677 105.677 44.186 45.363c17.613 18.125 48.742 18.893 65.69 1.485l38.963-40.141c17.971-18.381 17.408-50.176-1.382-69.478v0z" />
<glyph unicode="&#xe629;" glyph-name="close-sm" d="M512 489.137l-227.663 227.663-28.337-28.337 227.663-227.663-227.663-227.663 28.337-28.337 227.663 227.663 227.663-227.663 28.337 28.337-227.663 227.663 227.663 227.663-28.337 28.337-227.663-227.663z" />
<glyph unicode="&#xe62a;" glyph-name="plus" d="M51.2 512v-51.2h409.6v-409.6h51.2v409.6h409.6v51.2h-409.6v409.6h-51.2v-409.6h-409.6z" />
<glyph unicode="&#xe62b;" glyph-name="minus" d="M51.2 512h870.4v-51.2h-870.4v51.2z" />
<glyph unicode="&#xe62c;" glyph-name="filters" d="M636.8 204.8h336v51.2h-358.4v-51.2h22.4zM22.4 204.8h336v51.2h-358.4v-51.2h22.4zM409.6 281.836v-102.872c0-14.317 11.356-25.364 25.364-25.364h102.872c14.317 0 25.364 11.356 25.364 25.364v102.872c0 14.317-11.356 25.364-25.364 25.364h-102.872c-14.317 0-25.364-11.356-25.364-25.364zM358.4 281.836c0 42.296 33.979 76.564 76.564 76.564h102.872c42.296 0 76.564-33.979 76.564-76.564v-102.872c0-42.296-33.979-76.564-76.564-76.564h-102.872c-42.296 0-76.564 33.979-76.564 76.564v102.872zM883.2 460.8h89.6v51.2h-102.4v-51.2h12.8zM25.6 460.8h588.8v51.2h-614.4v-51.2h25.6zM665.6 537.836v-102.872c0-14.317 11.356-25.364 25.364-25.364h102.872c14.317 0 25.364 11.356 25.364 25.364v102.872c0 14.317-11.356 25.364-25.364 25.364h-102.872c-14.317 0-25.364-11.356-25.364-25.364zM614.4 537.836c0 42.296 33.979 76.564 76.564 76.564h102.872c42.296 0 76.564-33.979 76.564-76.564v-102.872c0-42.296-33.979-76.564-76.564-76.564h-102.872c-42.296 0-76.564 33.979-76.564 76.564v102.872zM949.527 768h-488.727v-51.2h512v51.2h-23.273zM20.48 716.8h184.32v51.2h-204.8v-51.2h20.48zM256 793.836v-102.872c0-14.317 11.356-25.364 25.364-25.364h102.872c14.317 0 25.364 11.356 25.364 25.364v102.872c0 14.317-11.356 25.364-25.364 25.364h-102.872c-14.317 0-25.364-11.356-25.364-25.364zM204.8 793.836v0c0 42.296 33.979 76.564 76.564 76.564h102.872c42.296 0 76.564-33.979 76.564-76.564v-102.872c0-42.296-33.979-76.564-76.564-76.564h-102.872c-42.296 0-76.564 33.979-76.564 76.564v102.872z" />
<glyph unicode="&#xe900;" glyph-name="print" d="M665.6 563.2h153.651v51.2h-153.651v-51.2zM921.6 256h-102.4v204.8h-614.4v-204.8h-102.4v384.563c0 13.824 10.496 25.037 23.398 25.037h772.403c12.902 0 23.398-11.213 23.398-25.037v-384.563zM768 51.2h-512v358.4h512v-358.4zM256 870.4h512v-153.6h-512v153.6zM898.202 716.8h-79.002v204.8h-614.4v-204.8h-79.002c-41.216 0-74.598-34.15-74.598-76.237v-435.763h153.6v-204.8h614.4v204.8h153.6v435.763c0 42.086-33.434 76.237-74.598 76.237v0zM665.6 307.2h-307.2v-51.2h307.2v51.2zM665.6 204.8h-307.2v-51.2h307.2v51.2z" />
<glyph unicode="&#xe901;" glyph-name="download" d="M659.151 94.928l128.626 128.016 36.118-36.29-190.597-189.694-190.558 189.696 36.122 36.286 129.089-128.505c0.002 0.892 0.003 1.821 0.005 2.788 0.038 21.932 0.069 43.318 0.090 63.421 0.064 63.166 0.020 105.767-0.166 117.562-0.879 52.011-10.836 75.466-69.179 134.621l-29.57 29.997 36.463 35.943 29.565-29.993c67.529-68.469 82.812-104.468 83.915-169.733 0.193-12.265 0.238-54.775 0.173-118.451-0.021-20.117-0.051-41.515-0.090-63.459-0.001-0.76-0.003-1.495-0.004-2.208zM512 307.2h-281.6l25.6-25.6v614.4l-25.6-25.6h563.2l-25.6 25.6v-614.4h51.2v640h-614.4v-665.6h307.2v51.2z" />
<glyph unicode="&#xe902;" glyph-name="membership" d="M51.2 716.5v0-511.4c0-28.558 22.777-51.5 50.729-51.5h820.143c27.726 0 50.729 23.121 50.729 51.5v511.4c0 28.558-22.777 51.5-50.729 51.5h-820.143c-27.726 0-50.729-23.121-50.729-51.5v0zM0 716.5c0 56.72 45.988 102.7 101.929 102.7h820.143c56.294 0 101.929-45.929 101.929-102.7v-511.4c0-56.72-45.988-102.7-101.929-102.7h-820.143c-56.294 0-101.929 45.929-101.929 102.7v511.4zM153.6 460.8v0c0-28.47 22.858-51.2 51.503-51.2h152.994c28.819 0 51.503 22.707 51.503 51.2 0 28.47-22.858 51.2-51.503 51.2h-152.994c-28.819 0-51.503-22.707-51.503-51.2v0zM102.4 460.8c0 56.554 45.392 102.4 102.703 102.4h152.994c56.721 0 102.703-45.452 102.703-102.4 0-56.554-45.392-102.4-102.703-102.4h-152.994c-56.721 0-102.703 45.452-102.703 102.4v0z" />
<glyph unicode="&#xe903;" glyph-name="pay" d="M486.4 0c-266.24 0-486.4 220.16-486.4 486.4s220.16 486.4 486.4 486.4 486.4-220.16 486.4-486.4-220.16-486.4-486.4-486.4zM486.4 921.6c-240.64 0-435.2-194.56-435.2-435.2s194.56-435.2 435.2-435.2c240.64 0 435.2 194.56 435.2 435.2s-194.56 435.2-435.2 435.2zM614.4 445.44l-102.4 56.32v163.84h51.2c30.72 0 51.2-20.48 51.2-51.2h51.2c0 56.32-46.080 102.4-102.4 102.4h-51.2v51.2h-51.2v-51.2h-51.2c-35.84 0-71.68-20.48-87.040-51.2-15.36-25.6-20.48-51.2-10.24-76.8 5.12-25.6 20.48-51.2 46.080-61.44l102.4-56.32v-163.84h-51.2c-30.72 0-51.2 20.48-51.2 51.2h-51.2c0-56.32 46.080-102.4 102.4-102.4h51.2v-51.2h51.2v51.2h51.2c35.84 0 71.68 20.48 87.040 51.2 30.72 51.2 15.36 112.64-35.84 138.24zM384 568.32c-10.24 10.24-20.48 20.48-25.6 30.72 0 15.36 0 30.72 5.12 40.96 10.24 15.36 25.6 25.6 46.080 25.6h51.2v-138.24l-76.8 40.96zM609.28 332.8c-10.24-15.36-25.6-25.6-46.080-25.6h-51.2v138.24l76.8-40.96c25.6-15.36 30.72-46.080 20.48-71.68z" />
<glyph unicode="&#xe904;" glyph-name="preferences" d="M835.388 158.246c-50.348 36.004-116.948 39.879-171.066 8.126-53.81-31.553-83.602-91.439-78.319-153.224l19.49 27.064c-31.63-7.648-62.668-11.6-93.502-11.6-30.816 0-61.853 3.951-93.526 11.601l19.492-27.117c5.408 61.77-24.378 121.729-78.207 153.326-54.157 31.821-120.807 27.911-171.192-8.19l33.563-3.277c-43.833 46.633-76.266 102.778-94.41 164.296l-13.867-30.504c56.4 25.912 93.353 82.674 93.313 146.274 0.040 63.988-37.32 121.042-94.213 146.758l14.061-30.396c17.74 61.753 49.781 118.109 93.348 165.037l-34.040-3.123c50.439-37.518 118.354-41.964 173.416-9.658 55.106 32.294 85.146 94.26 78.134 157.208l-19.388-27.708c31.584 7.689 62.635 11.66 93.516 11.66 30.914 0 62.021-3.976 93.524-11.658l-19.382 27.672c-6.926-62.936 23.109-124.81 78.206-157.139 55.023-32.257 122.909-27.834 173.318 9.614l-34.021 3.126c43.551-46.877 75.621-103.284 93.359-165.061l14.041 30.383c-56.837-25.752-94.106-82.721-94.106-146.73-0.020-63.588 36.9-120.349 93.228-146.224l-13.869 30.501c-18.145-61.557-50.579-117.696-94.437-164.321l33.538 3.283zM805.606 116.599l18.204-13.018 15.334 16.301c49.32 52.431 85.823 115.615 106.254 184.925l6.265 21.252-20.134 9.249c-38.267 17.578-63.414 56.24-63.4 99.69 0 43.783 25.389 82.591 64.037 100.102l20.144 9.127-6.103 21.256c-19.971 69.555-56.070 133.048-105.060 185.78l-15.61 16.803-18.411-13.677c-34.090-25.324-79.78-28.301-116.883-6.549-37.446 21.972-57.963 64.239-53.216 107.374l2.459 22.346-21.841 5.326c-35.355 8.621-70.514 13.115-105.652 13.115-35.104 0-70.199-4.489-105.626-13.113l-21.881-5.326 2.493-22.381c4.803-43.119-15.711-85.434-53.147-107.373-37.147-21.795-82.844-18.803-116.96 6.573l-18.42 13.701-15.62-16.824c-48.998-52.777-85.063-116.212-105.036-185.735l-6.113-21.278 20.173-9.118c38.676-17.482 64.129-56.352 64.102-100.103 0.027-43.469-25.143-82.133-63.488-99.749l-20.135-9.251 6.268-21.253c20.428-69.264 56.926-132.444 106.212-184.879l15.348-16.328 18.216 13.051c34.145 24.465 78.965 27.094 115.445 5.66 36.523-21.438 56.839-62.336 53.13-104.711l-1.921-21.945 21.413-5.172c35.483-8.571 70.533-13.033 105.547-13.033 35.035 0 70.090 4.463 105.536 13.034l21.363 5.166-1.872 21.898c-3.628 42.428 16.7 83.291 53.209 104.699 36.461 21.393 81.264 18.786 115.38-5.61v0zM754.447 436.714c0 133.899-108.565 242.439-242.464 242.439-133.905 0-242.43-108.53-242.43-242.439 0-133.901 108.533-242.455 242.43-242.455 133.891 0 242.464 108.565 242.464 242.455v0zM703.247 436.714c0-105.612-85.649-191.255-191.264-191.255-105.618 0-191.23 85.63-191.23 191.255 0 105.633 85.603 191.239 191.23 191.239 105.625 0 191.264-85.62 191.264-191.239v0z" />
<glyph unicode="&#xe905;" glyph-name="lab" d="M307.2 921.6v0l51.2 51.2v-819.239c0-84.745 68.805-153.561 153.6-153.561 84.691 0 153.6 68.842 153.6 153.561v819.239l51.2-51.2h-409.6zM716.8 921.6v-768.039c0-113.086-91.922-204.761-204.8-204.761-113.108 0-204.8 91.774-204.8 204.761v768.039h-51.2v51.2h512v-51.2h-51.2zM358.4 716.8h307.2v-51.2h-307.2v51.2zM563.2 563.2h102.4v-51.2h-102.4v51.2zM563.2 409.6h102.4v-51.2h-102.4v51.2zM563.2 256h102.4v-51.2h-102.4v51.2z" />
<glyph unicode="&#xe906;" glyph-name="checkmark-solid" d="M512 51.2c226.216 0 409.6 183.384 409.6 409.6s-183.384 409.6-409.6 409.6c-226.216 0-409.6-183.384-409.6-409.6s183.384-409.6 409.6-409.6zM488.699 256.014l-166.397 155.363c-18.995 17.612-20.198 47.359-2.893 66.533 17.28 19.097 46.591 20.428 65.484 2.918l86.654-80.92 160.33 244.68c14.182 21.683 42.982 27.519 64.332 13.107 21.222-14.361 26.982-43.724 12.851-65.304l-220.361-336.377z" />
<glyph unicode="&#xe907;" glyph-name="alert-solid" d="M946.983 231.953l-329.17 562.33c-28.726 49.084-66.286 76.117-105.811 76.117-39.507 0-77.067-27.034-105.811-76.117l-329.153-562.33c-28.761-49.033-33.665-94.635-13.946-128.393 19.806-33.775 62.304-52.361 119.739-52.361h658.357c57.383 0 99.986 18.586 119.704 52.361 19.754 33.758 14.798 79.36-13.911 128.393v0zM564.76 631.552l-15.406-307.285h-74.685l-15.406 307.285h105.498zM512.333 153.6c-33.108 0-61.191 24.713-61.191 60.109 0 34.543 28.083 59.358 61.191 59.358 32.447 0 60.53-24.815 60.53-59.358 0-35.396-28.083-60.109-60.53-60.109v0z" />
<glyph unicode="&#xe908;" glyph-name="cart" d="M245.76 819.2l-25.6 102.4h-168.96v-51.2h128l112.64-491.52c-30.72-10.24-61.44-35.84-81.92-71.68-10.24-15.36-15.36-30.72-25.6-46.080-5.12-10.24-5.12-15.36-10.24-20.48l-5.12-25.6c-25.6-20.48-46.080-51.2-46.080-87.040 0-56.32 46.080-102.4 102.4-102.4s102.4 46.080 102.4 102.4c0 30.72-15.36 56.32-35.84 76.8h481.28c-20.48-20.48-35.84-46.080-35.84-76.8 0-56.32 46.080-102.4 102.4-102.4s102.4 46.080 102.4 102.4c0 46.080-35.84 87.040-76.8 97.28v30.72h-619.52c5.12 10.24 5.12 15.36 10.24 25.6 15.36 25.6 30.72 40.96 51.2 46.080v0l665.6 148.48v337.92l-727.040 5.12zM896 128c0-30.72-20.48-51.2-51.2-51.2s-51.2 20.48-51.2 51.2c0 30.72 20.48 51.2 51.2 51.2s51.2-20.48 51.2-51.2v0zM281.6 128c0-30.72-20.48-51.2-51.2-51.2s-51.2 20.48-51.2 51.2c0 30.72 20.48 51.2 51.2 51.2s51.2-20.48 51.2-51.2v0zM256 768h665.6v-245.76l-578.56-133.12-87.040 378.88z" />
<glyph unicode="&#xe909;" glyph-name="autoship" d="M389.191 376.919l-132.766-152.511v381.277c0 96.59 45.957 162.678 117.447 162.678h229.787v50.837h-229.787c-102.128 0-168.511-91.506-168.511-213.515v-381.277l-132.766 152.511-40.851-35.586 199.149-223.682 199.149 223.682-40.851 35.586zM991.744 580.267l-199.149 223.682-199.149-223.682 40.851-35.586 137.872 152.511v-381.277c0-96.59-45.957-162.678-117.447-162.678h-234.894v-50.837h229.787c102.128 0 168.511 91.506 168.511 213.515v381.277l132.766-152.511 40.851 35.586z" />
<glyph unicode="&#xe90a;" glyph-name="mail" d="M51.2 768v-614.4h824.32c56.32 0 97.28 40.96 97.28 97.28v517.12h-921.6zM921.6 716.8v-97.28l-363.52-199.68c-25.6-15.36-71.68-15.36-97.28 0l-358.4 199.68v97.28h819.2zM921.6 250.88c0-25.6-20.48-46.080-46.080-46.080h-773.12v353.28l337.92-184.32c40.96-20.48 102.4-20.48 143.36 0l337.92 184.32v-307.2z" />
<glyph unicode="&#xe90b;" glyph-name="gift" d="M972.8 614.4c0-30.618-18.995-51.2-47.258-51.2h-311.142v97.69l49.818-31.59c14.746-9.37 29.85-14.080 43.93-14.080 9.779 0 19.098 2.253 27.494 6.861 20.582 11.315 32.358 34.97 32.358 64.87v81.050h157.542c28.262 0 47.258-20.582 47.258-51.2v-102.4zM921.6 51.2h-307.2v460.8h307.2v-460.8zM102.4 512h307.2v-460.8h-307.2v460.8zM51.2 716.8c0 30.618 18.995 51.2 47.258 51.2h157.542v-83.354c0-29.901 11.776-53.555 32.358-64.768 8.294-4.506 17.51-6.758 27.136-6.758 14.182 0 29.389 4.813 44.186 14.285l49.92 32.051v-96.256h-311.142c-28.262 0-47.258 20.582-47.258 51.2v102.4zM307.2 849.050c0 13.261 3.84 18.893 5.837 20.019 0.717 0.358 1.69 0.563 2.97 0.563 3.635 0 9.37-1.741 16.384-6.144l120.32-76.339c9.37-5.99 14.746-13.056 14.797-19.456 0-6.451-5.376-13.568-14.694-19.558l-120.832-77.619c-10.65-6.861-17.203-6.707-19.098-5.734-2.304 1.28-5.683 7.578-5.683 19.866v164.403zM563.2 51.2h-102.4v460.8h102.4v-460.8zM480.512 705.024c14.95 9.626 25.395 22.17 31.642 35.891 6.4-13.517 16.845-25.856 31.744-35.277l19.302-12.288v-130.15h-102.4v129.178l19.712 12.646zM571.187 787.866l120.832 77.619c7.578 4.915 13.056 6.246 16.282 6.246 1.28 0 2.253-0.256 2.816-0.512 2.304-1.28 5.683-7.578 5.683-19.866v-164.403c0-13.261-3.84-18.893-5.837-20.019-2.816-1.536-9.984-0.358-19.354 5.581l-120.32 76.339c-9.37 5.99-14.746 13.056-14.797 19.456 0 6.451 5.376 13.568 14.694 19.558v0zM925.542 819.2h-157.542v32.154c0 29.901-11.776 53.555-32.358 64.768-20.429 11.162-46.438 8.397-71.322-7.526l-120.832-77.619c-14.95-9.626-25.395-22.17-31.642-35.891-6.4 13.517-16.845 25.856-31.744 35.277l-120.32 76.339c-24.934 15.821-50.944 18.432-71.424 7.219-20.582-11.315-32.358-34.97-32.358-64.87v-29.85h-157.542c-56.166 0-98.458-44.032-98.458-102.4v-102.4c0-41.062 0-74.65 51.2-91.187v-523.213h921.6v523.213c51.2 16.538 51.2 50.125 51.2 91.187v102.4c0 58.368-42.291 102.4-98.458 102.4v0z" />
<glyph unicode="&#xe90c;" glyph-name="locked" d="M742.4 512h-25.6v112.64c0 128-107.52 235.52-230.4 235.52-128 5.12-230.4-92.16-230.4-220.16v-128h-25.6c-40.96 0-76.8-35.84-76.8-76.8v-307.2c0-40.96 35.84-76.8 76.8-76.8h512c40.96 0 76.8 35.84 76.8 76.8v307.2c0 40.96-35.84 76.8-76.8 76.8zM307.2 640c0 97.28 76.8 174.080 179.2 174.080 97.28 0 179.2-87.040 179.2-184.32v-117.76h-358.4v128zM768 128c0-15.36-10.24-25.6-25.6-25.6h-512c-15.36 0-25.6 10.24-25.6 25.6v307.2c0 15.36 10.24 25.6 25.6 25.6h512c15.36 0 25.6-10.24 25.6-25.6v-307.2zM512 204.8h-51.2v204.8h51.2v-204.8z" />
<glyph unicode="&#xe90d;" glyph-name="double-arrow-left" d="M120.32 460.8l512-512 36.742 36.742-476.531 475.258 476.531 475.258-36.742 36.742-512-512zM376.32 460.8l512-512 36.742 36.742-476.531 475.258 476.531 475.258-36.742 36.742-512-512z" />
<glyph unicode="&#xe90e;" glyph-name="arrow-left-start" d="M325.12 460.8l512-512 36.742 36.742-476.531 475.258 476.531 475.258-36.742 36.742-512-512zM153.6 972.8h51.2v-1024h-51.2v1024z" />
<glyph unicode="&#xe90f;" glyph-name="double-arrow-right" d="M835.756 460.8l-477.356-475.258 36.742-36.742 512 512-512 512-36.742-36.742 477.356-475.258zM579.756 460.8l-477.356-475.258 36.742-36.742 512 512-512 512-36.742-36.742 477.356-475.258z" />
<glyph unicode="&#xe910;" glyph-name="arrow-right-end" d="M630.956 460.8l-477.356-475.258 36.742-36.742 512 512-512 512-36.742-36.742 477.356-475.258zM819.2 972.8h51.2v-1024h-51.2v1024z" />
<glyph unicode="&#xe911;" glyph-name="double-arrow-left-sm" d="M245.396 486.4l248.502-248.502 36.204 36.204-216.171 212.298 216.171 212.298-36.204 36.204-248.502-248.502zM450.196 486.4l248.502-248.502 36.204 36.204-216.171 212.298 216.171 212.298-36.204 36.204-248.502-248.502z" />
<glyph unicode="&#xe912;" glyph-name="arrow-left-start-sm" d="M450.196 486.4l248.502-248.502 36.204 36.204-216.171 212.298 216.171 212.298-36.204 36.204-248.502-248.502zM307.2 768h51.2v-563.2h-51.2v563.2z" />
<glyph unicode="&#xe913;" glyph-name="double-arrow-right-sm" d="M710.512 486.4l-216.614-212.298 36.204-36.204 248.502 248.502-248.502 248.502-36.204-36.204 216.614-212.298zM505.712 486.4l-216.614-212.298 36.204-36.204 248.502 248.502-248.502 248.502-36.204-36.204 216.614-212.298z" />
<glyph unicode="&#xe914;" glyph-name="arrow-right-end-sm" d="M505.712 486.4l-216.614-212.298 36.204-36.204 248.502 248.502-248.502 248.502-36.204-36.204 216.614-212.298zM665.6 768h51.2v-563.2h-51.2v563.2z" />
<glyph unicode="&#xe915;" glyph-name="club-sm" d="M768 614.4v112.64l-10.24 10.24c-71.68 56.32-158.72 87.040-245.76 87.040s-174.080-30.72-245.76-87.040l-10.24-10.24v-112.64h-153.6v-512h819.2v512h-153.6zM256 153.6h-102.4v409.6h102.4v-409.6zM614.4 153.6h-204.8v332.8c0 40.96 46.080 76.8 102.4 76.8s102.4-35.84 102.4-76.8v-332.8zM716.8 153.6h-51.2v332.8c0 71.68-66.56 128-153.6 128s-153.6-56.32-153.6-128v-332.8h-51.2v547.84c117.76 87.040 286.72 87.040 409.6 0v-547.84zM870.4 153.6h-102.4v409.6h102.4v-409.6z" />
<glyph unicode="&#xe916;" glyph-name="video-sm" d="M409.6 409.6l256 153.6-256 153.6zM819.2 870.4h-614.4c-56.32 0-102.4-46.080-102.4-102.4v-409.6c0-56.32 46.080-102.4 102.4-102.4h614.4c56.32 0 102.4 46.080 102.4 102.4v409.6c0 56.32-46.080 102.4-102.4 102.4zM870.4 358.4c0-30.72-20.48-51.2-51.2-51.2h-614.4c-30.72 0-51.2 20.48-51.2 51.2v409.6c0 30.72 20.48 51.2 51.2 51.2h614.4c30.72 0 51.2-20.48 51.2-51.2v-409.6zM896 153.6h-537.6v25.6c0 15.36-10.24 25.6-25.6 25.6s-25.6-10.24-25.6-25.6v-25.6h-179.2c-15.36 0-25.6-10.24-25.6-25.6s10.24-25.6 25.6-25.6h179.2v-25.6c0-15.36 10.24-25.6 25.6-25.6s25.6 10.24 25.6 25.6v25.6h537.6c15.36 0 25.6 10.24 25.6 25.6s-10.24 25.6-25.6 25.6z" />
<glyph unicode="&#xe917;" glyph-name="ltbucks-sm" d="M768 614.4v-399.36c0-5.12-5.12-10.24-10.24-10.24h-552.96v409.6h563.2zM819.2 665.6h-665.6v-512h604.16c35.84 0 61.44 25.6 61.44 61.44v450.56zM921.6 256h-51.2v460.8h-665.6v51.2h716.8zM573.44 256h-174.080l-40.96 40.96v61.44h51.2v-40.96l10.24-10.24h133.12l10.24 10.24v35.84l-15.36 30.72-148.48 25.6-40.96 40.96v71.68l40.96 40.96h174.080l40.96-40.96v-61.44h-51.2v40.96l-10.24 10.24h-133.12l-10.24-10.24v-30.72l10.24-10.24 163.84-25.6 30.72-76.8v-61.44zM460.8 614.4h51.2v-409.6h-51.2v409.6z" />
<glyph unicode="&#xe918;" glyph-name="cart-sm" d="M921.6 460.8v256h-645.12l-30.72 102.4h-148.48v-51.2h107.52l97.28-332.8-56.32-230.4h568.32c15.36 0 25.6 10.24 25.6 25.6s-10.24 25.6-25.6 25.6h-506.88l40.96 153.6 573.44 51.2zM291.84 665.6h578.56v-153.6l-517.12-46.080-61.44 199.68zM358.4 102.4c0-28.288-22.912-51.2-51.2-51.2s-51.2 22.912-51.2 51.2c0 28.288 22.912 51.2 51.2 51.2s51.2-22.912 51.2-51.2zM768 102.4c0-28.288-22.912-51.2-51.2-51.2s-51.2 22.912-51.2 51.2c0 28.288 22.912 51.2 51.2 51.2s51.2-22.912 51.2-51.2z" />
<glyph unicode="&#xe919;" glyph-name="whistle-sm" d="M834.56 609.28c-5.12 0-5.12 0-15.36 0h-5.12c-30.72 87.040-102.4 148.48-199.68 158.72v-51.2h-102.4v51.2h-409.6v-204.8h97.28c66.56 0 122.88-25.6 133.12-87.040 0-15.36 5.12-25.6 10.24-40.96 30.72-87.040 133.12-179.2 245.76-179.2 87.040 0 158.72 46.080 199.68 112.64 0 0 5.12-5.12 10.24-5.12 15.36-5.12 25.6-5.12 35.84-5.12 81.92 0 138.24 51.2 138.24 128s-51.2 122.88-138.24 122.88zM588.8 307.2c-87.040 0-174.080 71.68-194.56 138.24-5.12 10.24-5.12 20.48-10.24 30.72-15.36 81.92-76.8 138.24-179.2 138.24h-51.2v102.4h307.2v-51.2h204.8v30.72c66.56-30.72 102.4-102.4 102.4-184.32 0-117.76-71.68-204.8-179.2-204.8zM834.56 404.48c-5.12 0-25.6 5.12-25.6 5.12 15.36 30.72 20.48 66.56 20.48 102.4 0 15.36 0 30.72-5.12 46.080h5.12c61.44 0 92.16-20.48 92.16-76.8 0-46.080-30.72-76.8-87.040-76.8z" />
<glyph unicode="&#xe91a;" glyph-name="info" d="M512 51.2v0c226.216 0 409.6 183.384 409.6 409.6s-183.384 409.6-409.6 409.6c-226.216 0-409.6-183.384-409.6-409.6s183.384-409.6 409.6-409.6v0zM512 0v0c-254.493 0-460.8 206.307-460.8 460.8s206.307 460.8 460.8 460.8c254.493 0 460.8-206.307 460.8-460.8s-206.307-460.8-460.8-460.8v0zM437.094 497.971h43.725l-31.539-227.942h-43.725l-9.318-65.229h167.014l8.602 65.229h-43.725l41.574 293.171h-123.29l-9.318-65.229zM510.925 706.56l-13.619-93.901h78.848l13.619 93.901h-78.848z" />
<glyph unicode="&#xe91b;" glyph-name="play" d="M512 51.2v0c226.216 0 409.6 183.384 409.6 409.6s-183.384 409.6-409.6 409.6c-226.216 0-409.6-183.384-409.6-409.6s183.384-409.6 409.6-409.6v0zM512 0c-254.493 0-460.8 206.307-460.8 460.8s206.307 460.8 460.8 460.8c254.493 0 460.8-206.307 460.8-460.8s-206.307-460.8-460.8-460.8v0zM358.4 599.429v0c-0.038 66.133 64.435 80.774 112.855 52.534l216.114-126.045c53.688-31.313 53.459-99.124 0.024-130.29l-215.971-125.962c-48.573-28.329-112.827-13.372-112.864 52.49l-0.157 277.273zM409.6 599.458v0 0l0.157-277.273c0.009-16.043 16.068-19.84 35.869-8.291l215.971 125.962c19.562 11.409 19.79 30.279-0.024 41.835l-216.114 126.045c-19.575 11.417-35.869 7.85-35.86-8.277v0z" />
<glyph unicode="&#xe91c;" glyph-name="delete" d="M512 51.2c-226.216 0-409.6 183.384-409.6 409.6s183.384 409.6 409.6 409.6c226.216 0 409.6-183.384 409.6-409.6s-183.384-409.6-409.6-409.6zM557.255 460.8l158.392 158.392-45.255 45.255-158.392-158.392-158.392 158.392-45.255-45.255 158.392-158.392-158.392-158.392 45.255-45.255 158.392 158.392 158.392-158.392 45.255 45.255-158.392 158.392z" />
<glyph unicode="&#xe91d;" glyph-name="heart" d="M501.602 704.552l-5.647 7.245c-78.329 74.932-205.31 74.932-283.609-0.005-78.328-74.948-78.328-196.505 0.003-271.455l299.654-286.737 299.639 286.738c78.345 74.947 78.345 196.522-0.004 271.473-78.28 74.919-205.282 74.919-283.552-0.008l-5.633-7.227-10.45-20.358-10.401 20.334zM511.988 554.578l68.018 120.103-5.633-7.227c52.704 50.453 138.27 50.453 190.989-0.003 52.75-50.462 52.75-132.296 0.005-182.753l-253.378-242.524-253.363 242.521c-52.734 50.458-52.734 132.281-0.001 182.739 52.738 50.473 138.295 50.473 191.059-0.003l-5.647 7.245 67.953-120.099z" />
<glyph unicode="&#xe91e;" glyph-name="heart-solid" d="M501.602 704.552l-5.647 7.245c-78.329 74.932-205.31 74.932-283.609-0.005-78.328-74.948-78.328-196.505 0.003-271.455l299.654-286.737 299.639 286.738c78.345 74.947 78.345 196.522-0.004 271.473-78.28 74.919-205.282 74.919-283.552-0.008l-5.633-7.227-10.45-19.174-10.401 19.149z" />
<glyph unicode="&#xe91f;" glyph-name="trash" d="M563.2 716.8v102.4h-153.6v-102.4h-204.8v-153.6h51.2v-409.6h460.8v409.6h51.2v153.6h-204.8zM460.8 768h51.2v-51.2h-51.2v51.2zM665.6 204.8h-358.4v358.4h358.4v-358.4zM716.8 614.4h-460.8v51.2h460.8v-51.2zM358.4 512h51.2v-256h-51.2v256zM460.8 512h51.2v-256h-51.2v256zM563.2 512h51.2v-256h-51.2v256z" />
<glyph unicode="&#xe920;" glyph-name="search-sm" d="M384 409.6v0c98.969 0 179.2 80.231 179.2 179.2s-80.231 179.2-179.2 179.2c-98.969 0-179.2-80.231-179.2-179.2s80.231-179.2 179.2-179.2v0zM384 358.4v0c-127.246 0-230.4 103.154-230.4 230.4s103.154 230.4 230.4 230.4c127.246 0 230.4-103.154 230.4-230.4s-103.154-230.4-230.4-230.4v0zM512 424.596l36.204 36.204 58.698-58.698-36.204-36.204-58.698 58.698zM548.204 315.985v72.408l162.969-162.969c10.079-10.079 26.051-10.050 36.152 0.052 10.12 10.12 10.107 26.097 0.052 36.152l-162.969 162.969h72.408l-108.612-108.612zM620.612 460.8l162.969-162.969c29.964-29.964 30.15-78.359-0.052-108.56-29.992-29.992-78.382-30.229-108.56-0.052l-162.969 162.969 108.612 108.612z" />
<glyph unicode="&#xe921;" glyph-name="star" d="M511.68 817.76l78.24-238.24c6.88-20.96 26.56-35.2 48.64-35.2h251.68l-203.2-145.92c-18.080-12.96-25.76-36.32-18.72-57.6l77.92-237.12-204.64 147.040c-8.96 6.4-19.36 9.6-29.92 9.6s-20.96-3.2-29.92-9.6l-204.64-147.040 77.92 237.12c7.040 21.28-0.64 44.48-18.72 57.6l-203.36 145.92h251.68c22.080 0 41.76 14.24 48.64 35.2l78.4 238.24zM511.68 868.96c-22.080 0-41.76-14.24-48.64-35.2l-78.24-238.24h-251.84c-22.24 0-41.92-14.4-48.8-35.52s0.8-44.32 18.88-57.28l203.2-145.92-77.92-237.12c-6.88-21.12 0.48-44.16 18.4-57.28 8.96-6.56 19.68-9.92 30.24-9.92 10.4 0 20.96 3.2 29.92 9.6l204.64 147.040 204.64-147.040c8.96-6.4 19.36-9.6 29.92-9.6s21.28 3.36 30.24 9.92c17.92 13.12 25.28 36.16 18.4 57.28l-77.76 237.12 203.040 146.080c18.080 12.96 25.6 36.16 18.88 57.28-6.88 21.12-26.56 35.52-48.8 35.52h-251.52l-78.24 238.080c-7.040 21.12-26.56 35.2-48.64 35.2v0z" />
<glyph unicode="&#xe922;" glyph-name="star-solid" d="M511.68 868.96c-22.080 0-41.76-14.24-48.64-35.2l-78.24-238.24h-251.84c-22.24 0-41.92-14.4-48.8-35.52s0.8-44.32 18.88-57.28l203.2-145.92-77.92-237.12c-6.88-21.12 0.48-44.16 18.4-57.28 8.96-6.56 19.68-9.92 30.24-9.92 10.4 0 20.96 3.2 29.92 9.6l204.64 147.040 204.64-147.040c8.96-6.4 19.36-9.6 29.92-9.6s21.28 3.36 30.24 9.92c17.92 13.12 25.28 36.16 18.4 57.28l-77.76 237.12 203.040 146.080c18.080 12.96 25.6 36.16 18.88 57.28-6.88 21.12-26.56 35.52-48.8 35.52h-251.52l-78.24 238.080c-7.040 21.12-26.56 35.2-48.64 35.2v0z" />
<glyph unicode="&#xe923;" glyph-name="calendar-checked" d="M716.8 768v51.2h-51.2v-51.2h-307.2v51.2h-51.2v-51.2h-153.6v-665.6h568.422c81.818 0 148.378 62.925 148.378 140.237v525.363h-153.6zM819.2 242.637c0-49.101-43.622-89.037-97.178-89.037h-5.222v102.4h102.4v-13.363zM819.2 307.2h-153.6v-153.6h-460.8v409.6h614.4v-256zM204.8 614.4v102.4h102.4v-51.2h51.2v51.2h307.2v-51.2h51.2v51.2h102.4v-102.4h-614.4zM372.029 342.291l114.030-114.030 169.085 236.719c9.546 13.364 6.45 31.936-6.914 41.481s-31.936 6.45-41.481-6.914l-128.808-178.553-63.858 63.351c-11.613 11.613-30.441 11.613-42.054 0s-11.613-30.441 0-42.054v0z" />
<glyph unicode="&#xe924;" glyph-name="document" d="M204.8 870.4v-819.2h563.2c56.32 0 102.4 46.080 102.4 102.4v716.8h-665.6zM256 819.2h563.2v-563.2h-153.6v-153.6h-409.6v716.8zM768 102.4h-51.2v102.4h102.4v-51.2c0-30.72-20.48-51.2-51.2-51.2zM358.4 716.8h358.4v-51.2h-358.4v51.2zM358.4 563.2h358.4v-51.2h-358.4v51.2zM358.4 409.6h358.4v-51.2h-358.4v51.2zM358.4 256h256v-51.2h-256v51.2z" />
<glyph unicode="&#xe925;" glyph-name="document-blank" d="M204.8 870.4v-819.2h563.2c56.32 0 102.4 46.080 102.4 102.4v716.8h-665.6zM256 819.2h563.2v-563.2h-153.6v-153.6h-409.6v716.8zM768 102.4h-51.2v102.4h102.4v-51.2c0-30.72-20.48-51.2-51.2-51.2v0z" />
<glyph unicode="&#xe926;" glyph-name="home" d="M921.6 102.4h-51.2v-51.2l51.2 51.2zM358.272 102.4l-0.769 306.719h307.2l0.769-306.719h204.928v484.333l-316.873 176.297c-35.837 20.261-51.112 20.259-87.046-0.070l-312.881-176.060v-484.499h204.672zM408.831 357.919l0.769-306.719h-307.2v565.638l338.972 190.742c51.473 29.121 85.879 29.121 137.353 0.020l342.875-190.762v-565.638h-307.2l-0.769 306.719h-204.8z" />
<glyph unicode="&#xe927;" glyph-name="export" d="M665.659 824.938l129.938-129.322 36.118 36.29-190.597 189.694-190.558-189.696 36.122-36.286 127.782 127.204c0.001-0.592 0.002-1.2 0.003-1.825 0.038-21.932 0.069-43.318 0.090-63.421 0.064-63.166 0.020-105.767-0.166-117.562-0.879-52.011-10.836-75.466-69.179-134.621l-29.57-29.997 36.463-35.943 29.565 29.993c67.529 68.469 82.812 104.468 83.915 169.733 0.193 12.265 0.238 54.775 0.173 118.451-0.021 20.117-0.051 41.515-0.090 63.459-0.002 1.358-0.005 2.64-0.007 3.852zM255.322 614.4l0.447-563.2 512.534-0.006v563.206h51.2l-0.303-614.4h-614.4v665.6h307.2v-51.2h-256.678z" />
<glyph unicode="&#xe928;" glyph-name="info-solid" d="M512 51.2v0c-226.216 0-409.6 183.384-409.6 409.6s183.384 409.6 409.6 409.6c226.216 0 409.6-183.384 409.6-409.6s-183.384-409.6-409.6-409.6v0zM437.094 497.971h43.725l-31.539-227.942h-43.725l-9.318-65.229h167.014l8.602 65.229h-43.725l41.574 293.171h-123.29l-9.318-65.229zM510.925 706.56l-13.619-93.901h78.848l13.619 93.901h-78.848z" />
<glyph unicode="&#xe929;" glyph-name="refer" d="M512 51.2v0c226.216 0 409.6 183.384 409.6 409.6s-183.384 409.6-409.6 409.6c-226.216 0-409.6-183.384-409.6-409.6s183.384-409.6 409.6-409.6v0zM512 0c-254.493 0-460.8 206.307-460.8 460.8s206.307 460.8 460.8 460.8c254.493 0 460.8-206.307 460.8-460.8s-206.307-460.8-460.8-460.8v0zM640.334 460.919l-128.505-129.089 36.286-36.122 189.696 190.558-189.694 190.597-36.29-36.118 128.016-128.626c-114.568 0.076-175.941 0.050-184.117-0.079-65.265-1.103-101.264-16.385-169.733-83.915l-29.993-29.565 35.943-36.463 29.997 29.57c59.155 58.343 82.61 68.3 134.621 69.179 7.863 0.124 69.121 0.148 183.772 0.071z" />
<glyph unicode="&#xe92a;" glyph-name="knife" d="M901.12 46.080c-220.16 0-655.36 435.2-660.48 440.32l-15.36 15.36 81.92 81.92-245.76 240.64 97.28 97.28 599.040-599.040c122.88-122.88 163.84-174.080 189.44-240.64l10.24-25.6-30.72-5.12c-5.12-5.12-15.36-5.12-25.6-5.12zM296.96 501.76c122.88-122.88 435.2-389.12 593.92-404.48-25.6 46.080-71.68 97.28-163.84 189.44l-327.68 322.56-102.4-107.52zM133.12 824.32l204.8-204.8 25.6 25.6-204.8 204.8-25.6-25.6z" />
<glyph unicode="&#xe92b;" glyph-name="star-half" d="M938.88 559.84c-6.88 21.12-26.56 35.36-48.8 35.36h-251.52l-78.24 238.4c-6.88 20.96-26.56 35.36-48.64 35.36s-41.76-14.4-48.64-35.36l-78.24-238.4h-251.84c-22.24 0-41.92-14.080-48.8-35.36-6.88-21.12 0.8-44.16 18.88-57.12l203.2-145.92-77.92-236.96c-6.88-21.12 0.48-44.16 18.4-57.28 8.96-6.56 19.68-9.92 30.24-9.92 10.4 0 20.96 3.2 29.92 9.6l204.64 147.040 204.64-147.040c8.96-6.4 19.36-9.6 29.92-9.6s21.28 3.36 30.24 9.92c17.92 13.12 25.28 36.16 18.4 57.28l-77.76 236.96 203.040 145.92c18.080 12.96 25.76 36 18.88 57.12zM687.040 398.24c-18.080-12.96-25.76-36.16-18.72-57.44l77.92-236.96-204.48 147.040c-8.96 6.4-20 9.6-29.6 9.6v557.28l78.080-238.4c6.88-20.96 26.4-35.36 48.48-35.36h251.68l-203.36-145.76z" />
<glyph unicode="&#xe92c;" glyph-name="clipboard" d="M819.2 819.2h-153.6v51.2h-307.2v-51.2h-153.6v-768h614.4v768zM665.6 768h102.4v-665.6h-512v665.6h102.4v-51.2h307.2v51.2zM409.6 819.2h204.8v-51.2h-204.8v51.2zM460.8 614.4h204.8v-51.2h-204.8v51.2zM460.8 460.8h204.8v-51.2h-204.8v51.2zM460.8 307.2h204.8v-51.2h-204.8v51.2zM358.4 460.8h51.2v-51.2h-51.2v51.2zM358.4 307.2h51.2v-51.2h-51.2v51.2zM358.4 614.4h51.2v-51.2h-51.2v51.2z" />
<glyph unicode="&#xe92d;" glyph-name="mail-solid" d="M153.6 716.8v0h716.8l-358.4-225.28-358.4 225.28zM153.6 655.36v-399.36c0-25.6 25.6-51.2 51.2-51.2h614.4c25.6 0 51.2 25.6 51.2 51.2v399.36l-358.4-225.28-358.4 225.28z" />
<glyph unicode="&#xe92e;" glyph-name="history" d="M972.8 486.4c0-266.24-220.16-486.4-486.4-486.4s-486.4 220.16-486.4 486.4h51.2c0-240.64 194.56-435.2 435.2-435.2s435.2 194.56 435.2 435.2c0 240.64-194.56 435.2-435.2 435.2-153.6 0-286.72-76.8-368.64-204.8h189.44v-51.2h-256v256h51.2v-138.24c92.16 117.76 230.4 189.44 384 189.44 266.24 0 486.4-220.16 486.4-486.4zM716.8 512h-204.8v307.2h-51.2v-358.4h256v51.2z" />
<glyph unicode="&#xe92f;" glyph-name="flag" d="M854.835 803.84c-11.52 11.162-28.518 16.282-51.763 15.053-31.283-1.382-56.474-11.93-80.742-22.067-32.102-13.466-65.69-27.597-120.986-25.6-40.448 1.229-66.099 10.701-95.846 21.658-35.072 12.954-74.854 27.648-141.978 28.518-52.378 0.461-115.302-22.733-158.72-40.55v89.549h-51.2v-819.2h51.2v187.648c38.246 15.77 106.445 42.701 158.106 42.752 58.624-0.768 103.373-13.67 146.688-26.163 40.038-11.52 81.408-23.45 130.611-24.422 7.168-0.154 14.029-0.205 20.736-0.205 96.051 0 148.070 15.053 199.782 56.371l9.677 7.68v458.394c-0.051 22.323 0.614 34.97-15.565 50.586zM819.2 749.619c-0.717-107.418 0-429.722 0-429.722-42.189-30.157-88.218-39.578-178.022-37.632-42.496 0.87-78.95 11.315-117.453 22.426-44.339 12.749-94.669 27.238-160.154 28.109-52.429 0.512-115.558-21.606-158.771-38.758v431.309c38.451 16.282 106.906 45.517 158.106 44.851 58.317-0.768 90.675-12.698 124.877-25.344 31.078-11.469 63.232-23.347 111.974-24.832 67.174-1.792 108.698 15.514 142.336 29.542 22.067 9.216 41.114 17.152 63.283 18.176 1.485 0.051 2.867 0.102 4.096 0.102 5.53 0 8.397-0.563 9.062-0.307 0.922-3.43 0.717-12.134 0.666-17.92z" />
<glyph unicode="&#xe930;" glyph-name="flag-solid" d="M854.835 803.84c-11.52 11.162-28.518 16.282-51.763 15.053-31.283-1.382-56.474-11.93-80.742-22.067-32.102-13.466-65.69-27.597-120.986-25.6-40.448 1.229-66.099 10.701-95.846 21.658-35.072 12.954-74.854 27.648-141.978 28.518-52.378 0.461-115.302-22.733-158.72-40.55v89.549h-51.2v-819.2h51.2v187.648c38.246 15.77 106.445 42.701 158.106 42.752 58.624-0.768 103.373-13.67 146.688-26.163 40.038-11.52 81.408-23.45 130.611-24.422 7.168-0.154 14.029-0.205 20.736-0.205 96.051 0 148.070 15.053 199.782 56.371l9.677 7.68v458.394c-0.051 22.323 0.614 34.97-15.565 50.586z" />
<glyph unicode="&#xe931;" glyph-name="plus-sm-thick" d="M819.2 512h-256v256h-102.4v-256h-256v-102.4h256v-256h102.4v256h256z" />
<glyph unicode="&#xe932;" glyph-name="scan" d="M716.8 665.6v-409.6h-409.6v409.6h409.6zM768 716.8h-512v-512h512v512zM409.6 563.2h204.8v-204.8h-204.8v204.8zM972.8 819.2v-204.8h51.2v204.8c0 84.48-69.12 153.6-153.6 153.6h-204.8v-51.2h204.8c56.32 0 102.4-46.080 102.4-102.4zM972.8 307.2v-204.8c0-56.32-46.080-102.4-102.4-102.4h-204.8v-51.2h204.8c84.48 0 153.6 69.12 153.6 153.6v204.8h-51.2zM51.2 102.4v204.8h-51.2v-204.8c0-84.48 69.12-153.6 153.6-153.6h204.8v51.2h-204.8c-56.32 0-102.4 46.080-102.4 102.4zM153.6 972.8c-84.48 0-153.6-69.12-153.6-153.6v-204.8h51.2v204.8c0 56.32 46.080 102.4 102.4 102.4h204.8v51.2h-204.8z" />
<glyph unicode="&#xe933;" glyph-name="tiktok" d="M870.4 534.528c-70.656 0-139.264 22.016-196.608 62.976v-286.208c0-143.872-116.736-260.096-260.096-260.096s-260.096 116.736-260.096 260.096c0 143.872 116.736 260.096 260.096 260.096 11.776 0 24.064-1.024 35.84-2.56v-143.872c-62.976 19.968-130.048-15.36-149.504-78.336s15.36-130.048 78.336-149.504c62.976-19.968 130.048 15.36 149.504 78.336 3.584 11.776 5.632 23.552 5.632 35.84v559.104h140.8c0-11.776 1.024-23.552 3.072-35.328 9.728-52.736 40.96-99.328 86.528-128.512 31.744-20.992 69.12-32.256 107.008-32.256v-139.776z" />
<glyph unicode="&#xe934;" glyph-name="list" d="M819.2 665.6h-460.8v51.2h460.8v-51.2zM256 716.8h-51.2v-51.2h51.2v51.2zM819.2 512h-460.8v-51.2h460.8v51.2zM256 512h-51.2v-51.2h51.2v51.2zM819.2 307.2h-460.8v-51.2h460.8v51.2zM256 307.2h-51.2v-51.2h51.2v51.2z" />
<glyph unicode="&#xe935;" glyph-name="club-video" d="M921.6 338.842v403.558c0 70.554-57.395 128-128 128h-563.2c-70.554 0-128-57.446-128-128v-563.2c0-70.605 57.446-128 128-128h403.558c35.994-31.488 82.534-51.2 134.042-51.2 112.947 0 204.8 91.853 204.8 204.8 0 51.507-19.712 98.048-51.2 134.042zM768 512h102.4v-102.4h-102.4v102.4zM870.4 563.2h-102.4v102.4h102.4v-102.4zM716.8 512h-409.6v307.2h409.6v-307.2zM256 563.2h-102.4v102.4h102.4v-102.4zM256 512v-102.4h-102.4v102.4h102.4zM256 358.4v-102.4h-102.4v102.4h102.4zM307.2 409.6h409.6v-7.27c-88.115-22.886-153.6-102.349-153.6-197.53 0-37.478 10.854-72.141 28.467-102.4h-284.467v307.2zM870.4 742.4v-25.6h-102.4v102.4h25.6c42.342 0 76.8-34.458 76.8-76.8zM230.4 819.2h25.6v-102.4h-102.4v25.6c0 42.342 34.458 76.8 76.8 76.8zM153.6 179.2v25.6h102.4v-102.4h-25.6c-42.342 0-76.8 34.458-76.8 76.8zM768 51.2c-84.685 0-153.6 68.915-153.6 153.6s68.915 153.6 153.6 153.6 153.6-68.915 153.6-153.6-68.915-153.6-153.6-153.6zM716.8 115.2l153.6 89.6-153.6 89.6z" />
</font>
</defs>
</svg>
