<?xml version="1.0" encoding="utf-8"?>
<!-- Generator: Adobe Illustrator 26.3.1, SVG Export Plug-In . SVG Version: 6.00 Build 0)  -->
<svg version="1.1" id="Layer_1" xmlns="http://www.w3.org/2000/svg" xmlns:xlink="http://www.w3.org/1999/xlink" x="0px" y="0px"
	 width="350px" height="116px" viewBox="0 0 350 116" enable-background="new 0 0 350 116" xml:space="preserve">
<g>
	<g>
		<path fill="#0E203A" d="M124.1,68.5l-16.3-22.3l-9.8,9v13.2h-4V10h4v40.7l25.4-23.9h4.6l-17.4,16.9l17.9,24.7H124.1z"/>
		<path fill="#0E203A" d="M135.4,50.9v-24h4v23.4c0,5.2,0.9,9,2.6,11.5c1.7,2.5,4.4,3.8,7.9,3.8c2.3,0,4.6-0.5,6.8-1.6
			c2.2-1,4.1-2.5,5.7-4.4c1.7-1.9,2.9-4.1,3.7-6.6V26.9h4v36.3c0,0.6,0.1,1.1,0.4,1.4c0.3,0.3,0.7,0.5,1.2,0.6v3.3
			c-0.5,0.1-0.9,0.1-1.2,0.1c-0.3,0-0.5,0-0.8-0.1c-0.9-0.1-1.7-0.5-2.2-1.2c-0.6-0.7-0.9-1.5-1-2.4l-0.1-6.2
			c-1.8,3.3-4.3,5.9-7.5,7.8c-3.2,1.9-6.6,2.8-10.3,2.8c-4.4,0-7.7-1.5-9.9-4.6C136.5,61.6,135.4,57,135.4,50.9z"/>
		<path fill="#0E203A" d="M243.9,68.5h-4V45.4c0-5.3-0.8-9.1-2.4-11.6c-1.6-2.5-4.1-3.7-7.5-3.7c-3.4,0-6.4,1.2-9.1,3.6
			c-2.6,2.4-4.5,5.5-5.6,9.3v25.6h-4V45.4c0-5.3-0.8-9.2-2.4-11.7c-1.6-2.5-4.1-3.7-7.4-3.7c-3.4,0-6.4,1.2-9.1,3.5
			c-2.6,2.4-4.5,5.5-5.6,9.3v25.7h-4V26.9h3.8v10c1.8-3.4,4-6,6.8-7.9c2.8-1.8,5.8-2.8,9.1-2.8c3.5,0,6.3,1,8.5,3.1s3.5,4.8,4,8.2
			c2-3.7,4.3-6.5,7-8.4c2.7-1.9,5.8-2.8,9.3-2.8c2.3,0,4.2,0.4,5.8,1.2c1.6,0.8,2.9,2,3.9,3.6c1,1.6,1.8,3.5,2.2,5.8
			s0.7,4.9,0.7,7.7V68.5z"/>
		<path fill="#0E203A" d="M256,17.4V10h4v7.4H256z M256,68.5V26.9h4v41.6H256z"/>
		<path fill="#0E203A" d="M302.7,68.5l-16.3-22.3l-9.8,9v13.2h-4V10h4v40.7L302,26.9h4.6l-17.4,16.9l17.9,24.7H302.7z"/>
		<path fill="#0E203A" d="M329.7,69.3c-2.9,0-5.6-0.6-8.1-1.7c-2.5-1.1-4.6-2.7-6.4-4.7c-1.8-2-3.2-4.3-4.2-6.9
			c-1-2.6-1.5-5.3-1.5-8.2c0-3,0.5-5.8,1.5-8.3c1-2.6,2.4-4.9,4.3-6.9s4-3.6,6.5-4.7c2.5-1.1,5.2-1.7,8-1.7c2.9,0,5.6,0.6,8,1.7
			c2.5,1.1,4.6,2.7,6.5,4.7c1.9,2,3.3,4.3,4.3,6.9c1,2.6,1.5,5.4,1.5,8.3c0,2.9-0.5,5.6-1.5,8.2c-1,2.6-2.4,4.9-4.3,6.9
			c-1.8,2-4,3.6-6.5,4.7C335.2,68.7,332.5,69.3,329.7,69.3z M313.3,47.9c0,3.3,0.7,6.3,2.2,9c1.5,2.7,3.4,4.8,5.9,6.4
			c2.5,1.6,5.2,2.4,8.2,2.4c3,0,5.7-0.8,8.2-2.4c2.5-1.6,4.5-3.8,5.9-6.5c1.5-2.7,2.2-5.7,2.2-9c0-3.2-0.7-6.2-2.2-8.9
			c-1.5-2.7-3.4-4.9-5.9-6.5c-2.5-1.6-5.2-2.4-8.2-2.4s-5.7,0.8-8.2,2.5c-2.5,1.6-4.5,3.8-5.9,6.5C314.1,41.6,313.3,44.6,313.3,47.9
			z"/>
	</g>
</g>
<g>
	<path fill="#0078AA" d="M40,19.1L16.5,59.8L0,69.3L40,0V19.1z"/>
	<path fill="#99C9DD" d="M16.5,59.8l47,0L80,69.3l-80,0L16.5,59.8z"/>
	<path fill="#3393BB" d="M63.5,59.8L40,19.1L40,0l40,69.3L63.5,59.8z"/>
</g>
<g>
	<g>
		<path fill="#0E203A" d="M102.1,109.2c-1.4,0-2.7-0.4-3.8-1.1c-1.1-0.8-2-1.7-2.7-2.7v10.3H94V92.4h1.5v3.3
			c0.7-1.1,1.6-1.9,2.7-2.6c1.1-0.7,2.3-1,3.6-1c1.2,0,2.2,0.2,3.2,0.7c1,0.5,1.8,1.1,2.5,1.9c0.7,0.8,1.3,1.7,1.7,2.7
			c0.4,1,0.6,2.1,0.6,3.2c0,1.5-0.3,2.9-1,4.2c-0.6,1.3-1.5,2.3-2.7,3.1C104.9,108.8,103.6,109.2,102.1,109.2z M101.7,107.8
			c1,0,1.9-0.2,2.6-0.6c0.8-0.4,1.4-0.9,2-1.6c0.6-0.7,1-1.4,1.3-2.3c0.3-0.8,0.4-1.7,0.4-2.6c0-1-0.2-1.9-0.5-2.7
			c-0.3-0.9-0.8-1.6-1.4-2.3c-0.6-0.7-1.3-1.2-2.1-1.6c-0.8-0.4-1.7-0.6-2.6-0.6c-0.6,0-1.2,0.1-1.8,0.3c-0.6,0.2-1.3,0.6-1.8,1
			c-0.6,0.4-1.1,0.9-1.4,1.4s-0.6,1.1-0.7,1.7v5.4c0.4,0.8,0.9,1.5,1.5,2.2c0.6,0.7,1.3,1.2,2.1,1.6
			C100,107.6,100.8,107.8,101.7,107.8z"/>
		<path fill="#0E203A" d="M121.3,93.8c-1.5,0-2.8,0.5-3.9,1.3c-1.1,0.8-1.9,2-2.3,3.5v10.3h-1.6V92.4h1.5v4c0.6-1.2,1.3-2.1,2.3-2.8
			c1-0.7,2-1.2,3-1.3c0.2,0,0.4,0,0.6,0c0.2,0,0.3,0,0.4,0V93.8z"/>
		<path fill="#0E203A" d="M130.6,109.2c-1.2,0-2.2-0.2-3.2-0.7c-1-0.4-1.8-1.1-2.6-1.9c-0.7-0.8-1.3-1.7-1.7-2.7
			c-0.4-1-0.6-2.1-0.6-3.3c0-1.2,0.2-2.3,0.6-3.3c0.4-1,1-1.9,1.7-2.7c0.7-0.8,1.6-1.4,2.6-1.9c1-0.5,2.1-0.7,3.2-0.7
			c1.1,0,2.2,0.2,3.2,0.7c1,0.5,1.8,1.1,2.6,1.9s1.3,1.7,1.7,2.7c0.4,1,0.6,2.1,0.6,3.3c0,1.1-0.2,2.2-0.6,3.3c-0.4,1-1,1.9-1.7,2.7
			c-0.7,0.8-1.6,1.4-2.6,1.9C132.9,109,131.8,109.2,130.6,109.2z M124.1,100.7c0,1.3,0.3,2.5,0.9,3.6c0.6,1.1,1.4,1.9,2.3,2.6
			c1,0.6,2.1,1,3.2,1c1.2,0,2.3-0.3,3.3-1c1-0.6,1.8-1.5,2.4-2.6c0.6-1.1,0.9-2.3,0.9-3.6c0-1.3-0.3-2.5-0.9-3.5
			c-0.6-1.1-1.4-1.9-2.3-2.6c-1-0.6-2.1-1-3.2-1c-1.2,0-2.3,0.3-3.3,1c-1,0.7-1.8,1.5-2.4,2.6C124.4,98.2,124.1,99.4,124.1,100.7z"
			/>
		<path fill="#0E203A" d="M141.4,100.7c0-1.5,0.3-3,1-4.2c0.7-1.3,1.6-2.3,2.7-3.1c1.1-0.8,2.5-1.2,3.9-1.2c1.4,0,2.7,0.4,3.8,1.1
			c1.1,0.8,2,1.7,2.6,2.7V85.7h1.6v21.1c0,0.3,0.1,0.4,0.2,0.6c0.1,0.1,0.3,0.2,0.5,0.2v1.3c-0.3,0-0.6,0.1-0.8,0
			c-0.4-0.1-0.7-0.2-1-0.5c-0.3-0.3-0.4-0.6-0.4-1v-1.8c-0.7,1.1-1.6,2-2.7,2.6c-1.1,0.7-2.3,1-3.5,1c-1.1,0-2.2-0.2-3.2-0.7
			c-1-0.5-1.8-1.1-2.5-1.9c-0.7-0.8-1.3-1.7-1.7-2.7C141.6,102.8,141.4,101.8,141.4,100.7z M155.5,103.3v-5.4
			c-0.3-0.8-0.8-1.5-1.4-2.2c-0.7-0.7-1.4-1.2-2.2-1.6c-0.8-0.4-1.6-0.6-2.5-0.6c-1,0-1.8,0.2-2.6,0.6c-0.8,0.4-1.4,0.9-2,1.6
			s-1,1.4-1.3,2.3c-0.3,0.9-0.4,1.7-0.4,2.6c0,0.9,0.2,1.8,0.5,2.7c0.3,0.9,0.8,1.6,1.4,2.3c0.6,0.7,1.3,1.2,2.1,1.6
			c0.8,0.4,1.7,0.6,2.6,0.6c0.6,0,1.2-0.1,1.8-0.3c0.6-0.2,1.3-0.6,1.8-1c0.6-0.4,1.1-0.9,1.5-1.4
			C155.2,104.5,155.4,103.9,155.5,103.3z"/>
		<path fill="#0E203A" d="M162,101.9v-9.5h1.6v9.3c0,2.1,0.3,3.6,1,4.6c0.7,1,1.7,1.5,3.1,1.5c0.9,0,1.8-0.2,2.7-0.6
			c0.9-0.4,1.6-1,2.3-1.7c0.7-0.8,1.1-1.6,1.5-2.6V92.4h1.6v14.4c0,0.3,0.1,0.4,0.2,0.6s0.3,0.2,0.5,0.2v1.3c-0.2,0-0.4,0-0.5,0
			s-0.2,0-0.3,0c-0.4,0-0.7-0.2-0.9-0.5c-0.2-0.3-0.4-0.6-0.4-1l0-2.5c-0.7,1.3-1.7,2.3-3,3.1c-1.3,0.8-2.6,1.1-4.1,1.1
			c-1.7,0-3.1-0.6-3.9-1.8C162.4,106.1,162,104.3,162,101.9z"/>
		<path fill="#0E203A" d="M187.8,109.2c-1.1,0-2.2-0.2-3.2-0.7c-1-0.5-1.9-1.1-2.6-1.9s-1.3-1.7-1.7-2.7c-0.4-1-0.6-2.1-0.6-3.3
			c0-1.6,0.4-3,1.1-4.3c0.7-1.3,1.7-2.3,2.9-3c1.2-0.8,2.6-1.1,4.2-1.1c1.5,0,2.8,0.3,4,1s2,1.6,2.6,2.8l-1.6,0.5
			c-0.5-0.9-1.2-1.6-2.1-2.1c-0.9-0.5-1.9-0.8-3-0.8c-1.2,0-2.3,0.3-3.3,0.9c-1,0.6-1.8,1.5-2.3,2.5c-0.6,1.1-0.9,2.3-0.9,3.6
			c0,1.3,0.3,2.5,0.9,3.6c0.6,1.1,1.4,2,2.4,2.6c1,0.6,2.1,1,3.3,1c0.8,0,1.5-0.1,2.2-0.4c0.7-0.3,1.4-0.7,1.9-1.1
			c0.5-0.5,0.9-1,1.1-1.5l1.6,0.4c-0.3,0.8-0.8,1.5-1.4,2.1c-0.7,0.6-1.5,1.1-2.4,1.4C189.9,109,188.9,109.2,187.8,109.2z"/>
		<path fill="#0E203A" d="M205.5,108.2c-0.1,0-0.3,0.1-0.6,0.3c-0.3,0.2-0.7,0.3-1.2,0.5c-0.5,0.1-1,0.2-1.6,0.2
			c-0.6,0-1.1-0.1-1.6-0.3c-0.5-0.2-0.9-0.6-1.2-1c-0.3-0.4-0.4-1-0.4-1.6V93.7h-2.3v-1.3h2.3v-5.7h1.6v5.7h3.9v1.3h-3.9v12.2
			c0,0.6,0.3,1.1,0.7,1.4c0.4,0.3,0.9,0.5,1.4,0.5c0.7,0,1.2-0.1,1.7-0.3c0.5-0.2,0.8-0.4,0.9-0.4L205.5,108.2z"/>
		<path fill="#0E203A" d="M216.7,85.7h1.6v20.1c0,0.8,0.2,1.3,0.5,1.6c0.3,0.3,0.7,0.4,1.2,0.4c0.3,0,0.7,0,1.1-0.1
			c0.4-0.1,0.7-0.1,1-0.3l0.3,1.3c-0.4,0.1-0.8,0.2-1.3,0.3c-0.5,0.1-1,0.2-1.4,0.2c-0.9,0-1.6-0.3-2.1-0.8
			c-0.5-0.5-0.8-1.3-0.8-2.2V85.7z"/>
		<path fill="#0E203A" d="M223.4,104.1c0-1,0.3-1.9,0.9-2.6c0.6-0.7,1.4-1.3,2.5-1.7c1-0.4,2.2-0.6,3.6-0.6c0.8,0,1.7,0.1,2.6,0.2
			s1.7,0.3,2.5,0.6v-1.6c0-1.5-0.4-2.7-1.3-3.6c-0.9-0.9-2.1-1.4-3.6-1.4c-0.8,0-1.7,0.2-2.6,0.5c-0.9,0.3-1.8,0.8-2.7,1.5l-0.7-1.1
			c1.1-0.7,2.1-1.3,3.1-1.6c1-0.4,2-0.6,3-0.6c2,0,3.5,0.6,4.7,1.7s1.7,2.7,1.7,4.8v8.2c0,0.3,0.1,0.4,0.2,0.6
			c0.1,0.1,0.3,0.2,0.5,0.2v1.3c-0.2,0-0.3,0-0.5,0c-0.1,0-0.2,0-0.3,0c-0.4-0.1-0.7-0.2-0.9-0.5c-0.2-0.3-0.3-0.6-0.4-0.9v-1.3
			c-0.8,1-1.7,1.7-2.9,2.2c-1.2,0.5-2.5,0.8-3.8,0.8c-1,0-2-0.2-2.8-0.7c-0.8-0.4-1.5-1.1-2-1.8C223.6,106,223.4,105.1,223.4,104.1z
			 M234.8,105.5c0.2-0.3,0.4-0.5,0.5-0.8c0.1-0.3,0.2-0.5,0.2-0.7v-2.7c-0.8-0.3-1.6-0.5-2.4-0.7c-0.8-0.1-1.7-0.2-2.5-0.2
			c-1.7,0-3,0.3-4,1c-1,0.7-1.5,1.5-1.5,2.7c0,0.7,0.2,1.3,0.5,1.9c0.4,0.6,0.9,1.1,1.5,1.4c0.6,0.4,1.4,0.5,2.2,0.5
			c1.2,0,2.3-0.2,3.3-0.7C233.5,106.8,234.3,106.2,234.8,105.5z"/>
		<path fill="#0E203A" d="M255.4,108.9h-1.6v-9.2c0-2.1-0.3-3.7-0.9-4.6c-0.6-1-1.6-1.5-2.9-1.5c-0.9,0-1.9,0.2-2.8,0.7
			c-0.9,0.4-1.7,1-2.4,1.8c-0.7,0.8-1.2,1.6-1.4,2.6v10.2h-1.6V92.4h1.5v4c0.4-0.8,1-1.6,1.8-2.2c0.7-0.6,1.6-1.1,2.5-1.5
			c0.9-0.4,1.9-0.5,2.8-0.5c0.9,0,1.7,0.2,2.3,0.5c0.6,0.3,1.1,0.8,1.5,1.4c0.4,0.6,0.7,1.4,0.8,2.3c0.2,0.9,0.3,1.9,0.3,3.1V108.9z
			"/>
		<path fill="#0E203A" d="M266.9,109.2c-1.1,0-2.2-0.2-3.1-0.7c-1-0.5-1.8-1.1-2.5-1.9c-0.7-0.8-1.2-1.7-1.6-2.7
			c-0.4-1-0.6-2.1-0.6-3.1c0-1.1,0.2-2.2,0.6-3.2c0.4-1,0.9-2,1.6-2.8c0.7-0.8,1.5-1.4,2.4-1.9c0.9-0.5,2-0.7,3.1-0.7
			c1.4,0,2.7,0.4,3.8,1.1c1.1,0.7,2,1.7,2.7,2.7v-3.6h1.5v16.8c0,1.5-0.4,2.7-1.1,3.8c-0.7,1-1.7,1.8-2.9,2.3
			c-1.2,0.5-2.5,0.7-3.9,0.7c-1.9,0-3.5-0.4-4.6-1.1c-1.1-0.7-2.1-1.6-2.8-2.8l1.1-0.7c0.7,1.1,1.5,1.9,2.7,2.5s2.3,0.8,3.6,0.8
			c1.1,0,2.2-0.2,3.1-0.6c0.9-0.4,1.7-1,2.3-1.8c0.6-0.8,0.8-1.8,0.8-3v-3.6c-0.7,1.1-1.6,1.9-2.7,2.6
			C269.3,108.9,268.1,109.2,266.9,109.2z M267.3,107.8c0.7,0,1.4-0.1,2-0.4c0.7-0.3,1.3-0.6,1.8-1c0.6-0.4,1-0.9,1.4-1.4
			c0.4-0.5,0.6-1.1,0.6-1.6v-5.4c-0.3-0.8-0.8-1.6-1.4-2.3c-0.6-0.7-1.4-1.2-2.2-1.6c-0.8-0.4-1.6-0.6-2.5-0.6c-1,0-1.9,0.2-2.7,0.6
			c-0.8,0.4-1.4,1-2,1.7c-0.5,0.7-1,1.5-1.2,2.3c-0.3,0.9-0.4,1.7-0.4,2.6c0,1,0.2,1.9,0.5,2.7c0.3,0.8,0.8,1.6,1.4,2.3
			c0.6,0.7,1.3,1.2,2.1,1.6C265.5,107.7,266.4,107.8,267.3,107.8z"/>
		<path fill="#0E203A" d="M279.5,101.9v-9.5h1.6v9.3c0,2.1,0.3,3.6,1,4.6c0.7,1,1.7,1.5,3.1,1.5c0.9,0,1.8-0.2,2.7-0.6
			c0.9-0.4,1.6-1,2.3-1.7c0.7-0.8,1.1-1.6,1.5-2.6V92.4h1.6v14.4c0,0.3,0.1,0.4,0.2,0.6s0.3,0.2,0.5,0.2v1.3c-0.2,0-0.4,0-0.5,0
			s-0.2,0-0.3,0c-0.4,0-0.7-0.2-0.9-0.5c-0.2-0.3-0.4-0.6-0.4-1l0-2.5c-0.7,1.3-1.7,2.3-3,3.1c-1.3,0.8-2.6,1.1-4.1,1.1
			c-1.7,0-3.1-0.6-3.9-1.8C280,106.1,279.5,104.3,279.5,101.9z"/>
		<path fill="#0E203A" d="M297,104.1c0-1,0.3-1.9,0.9-2.6c0.6-0.7,1.4-1.3,2.5-1.7c1-0.4,2.2-0.6,3.6-0.6c0.8,0,1.7,0.1,2.6,0.2
			c0.9,0.1,1.7,0.3,2.5,0.6v-1.6c0-1.5-0.4-2.7-1.3-3.6c-0.9-0.9-2.1-1.4-3.6-1.4c-0.8,0-1.7,0.2-2.6,0.5c-0.9,0.3-1.8,0.8-2.7,1.5
			l-0.7-1.1c1.1-0.7,2.1-1.3,3.1-1.6c1-0.4,2-0.6,3-0.6c2,0,3.5,0.6,4.7,1.7s1.7,2.7,1.7,4.8v8.2c0,0.3,0.1,0.4,0.2,0.6
			c0.1,0.1,0.3,0.2,0.5,0.2v1.3c-0.2,0-0.3,0-0.5,0s-0.2,0-0.3,0c-0.4-0.1-0.7-0.2-0.9-0.5c-0.2-0.3-0.3-0.6-0.4-0.9v-1.3
			c-0.8,1-1.7,1.7-2.9,2.2c-1.2,0.5-2.5,0.8-3.8,0.8c-1,0-2-0.2-2.8-0.7c-0.8-0.4-1.5-1.1-2-1.8C297.2,106,297,105.1,297,104.1z
			 M308.4,105.5c0.2-0.3,0.4-0.5,0.5-0.8c0.1-0.3,0.2-0.5,0.2-0.7v-2.7c-0.8-0.3-1.6-0.5-2.4-0.7c-0.8-0.1-1.7-0.2-2.5-0.2
			c-1.7,0-3,0.3-4,1c-1,0.7-1.5,1.5-1.5,2.7c0,0.7,0.2,1.3,0.5,1.9c0.4,0.6,0.9,1.1,1.5,1.4c0.6,0.4,1.4,0.5,2.2,0.5
			c1.2,0,2.3-0.2,3.3-0.7C307.1,106.8,307.9,106.2,308.4,105.5z"/>
		<path fill="#0E203A" d="M322.1,109.2c-1.1,0-2.2-0.2-3.1-0.7c-1-0.5-1.8-1.1-2.5-1.9c-0.7-0.8-1.2-1.7-1.6-2.7s-0.6-2.1-0.6-3.1
			c0-1.1,0.2-2.2,0.6-3.2c0.4-1,0.9-2,1.6-2.8c0.7-0.8,1.5-1.4,2.4-1.9c0.9-0.5,2-0.7,3.1-0.7c1.4,0,2.7,0.4,3.8,1.1
			c1.1,0.7,2,1.7,2.7,2.7v-3.6h1.5v16.8c0,1.5-0.4,2.7-1.1,3.8c-0.7,1-1.7,1.8-2.9,2.3c-1.2,0.5-2.5,0.7-3.9,0.7
			c-1.9,0-3.5-0.4-4.6-1.1c-1.1-0.7-2.1-1.6-2.8-2.8l1.1-0.7c0.7,1.1,1.5,1.9,2.7,2.5c1.1,0.5,2.3,0.8,3.6,0.8
			c1.1,0,2.2-0.2,3.1-0.6s1.7-1,2.3-1.8c0.6-0.8,0.8-1.8,0.8-3v-3.6c-0.7,1.1-1.6,1.9-2.7,2.6C324.6,108.9,323.4,109.2,322.1,109.2z
			 M322.5,107.8c0.7,0,1.4-0.1,2-0.4c0.7-0.3,1.3-0.6,1.8-1s1-0.9,1.4-1.4c0.4-0.5,0.6-1.1,0.6-1.6v-5.4c-0.3-0.8-0.8-1.6-1.4-2.3
			c-0.6-0.7-1.4-1.2-2.2-1.6c-0.8-0.4-1.6-0.6-2.5-0.6c-1,0-1.9,0.2-2.7,0.6c-0.8,0.4-1.4,1-2,1.7c-0.5,0.7-1,1.5-1.2,2.3
			c-0.3,0.9-0.4,1.7-0.4,2.6c0,1,0.2,1.9,0.5,2.7c0.3,0.8,0.8,1.6,1.4,2.3c0.6,0.7,1.3,1.2,2.1,1.6
			C320.8,107.7,321.6,107.8,322.5,107.8z"/>
		<path fill="#0E203A" d="M342,109.2c-1.2,0-2.2-0.2-3.2-0.7c-1-0.5-1.9-1.1-2.6-1.9c-0.7-0.8-1.3-1.7-1.7-2.8
			c-0.4-1-0.6-2.2-0.6-3.3c0-1.6,0.4-3,1.1-4.2c0.7-1.3,1.7-2.3,2.9-3.1c1.2-0.8,2.6-1.2,4.1-1.2c1.6,0,3,0.4,4.2,1.2
			s2.2,1.8,2.9,3.1c0.7,1.3,1.1,2.7,1.1,4.2c0,0.1,0,0.3,0,0.4s0,0.2,0,0.3h-14.5c0.1,1.2,0.4,2.4,1.1,3.4c0.6,1,1.4,1.8,2.4,2.4
			c1,0.6,2,0.9,3.2,0.9c1.1,0,2.2-0.3,3.2-0.9c1-0.6,1.7-1.4,2.1-2.3l1.4,0.4c-0.3,0.8-0.8,1.5-1.5,2.1c-0.7,0.6-1.5,1.1-2.4,1.4
			C344,109,343,109.2,342,109.2z M335.4,100.1h13.1c-0.1-1.3-0.4-2.4-1-3.4c-0.6-1-1.4-1.8-2.3-2.3c-1-0.6-2-0.9-3.2-0.9
			c-1.2,0-2.2,0.3-3.2,0.9c-1,0.6-1.7,1.4-2.3,2.3S335.5,98.8,335.4,100.1z"/>
	</g>
</g>
</svg>
