<?xml version="1.0" encoding="utf-8"?>
<!-- Generator: Adobe Illustrator 26.3.1, SVG Export Plug-In . SVG Version: 6.00 Build 0)  -->
<svg version="1.1" id="Layer_1" xmlns="http://www.w3.org/2000/svg" xmlns:xlink="http://www.w3.org/1999/xlink" x="0px" y="0px"
	 width="122px" height="24px" viewBox="0 0 122 24" enable-background="new 0 0 122 24" xml:space="preserve">
<g>
	<g>
		<path fill="#FFFFFF" d="M43,23.7L37.4,16L34,19.1v4.6h-1.4V3.5H34v14.1l8.8-8.3h1.6l-6,5.9l6.2,8.5H43z"/>
		<path fill="#FFFFFF" d="M46.9,17.6V9.3h1.4v8.1c0,1.8,0.3,3.1,0.9,4c0.6,0.9,1.5,1.3,2.7,1.3c0.8,0,1.6-0.2,2.3-0.5
			c0.7-0.4,1.4-0.9,2-1.5s1-1.4,1.3-2.3V9.3h1.4v12.6c0,0.2,0.1,0.4,0.2,0.5c0.1,0.1,0.2,0.2,0.4,0.2v1.1c-0.2,0-0.3,0-0.4,0
			c-0.1,0-0.2,0-0.3,0c-0.3,0-0.6-0.2-0.8-0.4c-0.2-0.2-0.3-0.5-0.3-0.8l0-2.2c-0.6,1.1-1.5,2-2.6,2.7c-1.1,0.7-2.3,1-3.6,1
			c-1.5,0-2.7-0.5-3.4-1.6C47.3,21.3,46.9,19.7,46.9,17.6z"/>
		<path fill="#FFFFFF" d="M84.5,23.7h-1.4v-8c0-1.8-0.3-3.2-0.8-4c-0.6-0.9-1.4-1.3-2.6-1.3c-1.2,0-2.2,0.4-3.1,1.3
			c-0.9,0.8-1.6,1.9-1.9,3.2v8.9h-1.4v-8c0-1.8-0.3-3.2-0.8-4c-0.6-0.9-1.4-1.3-2.6-1.3c-1.2,0-2.2,0.4-3.1,1.2
			c-0.9,0.8-1.6,1.9-2,3.2v8.9h-1.4V9.3h1.3v3.5c0.6-1.2,1.4-2.1,2.4-2.7c1-0.6,2-1,3.2-1c1.2,0,2.2,0.4,3,1.1
			c0.8,0.7,1.2,1.7,1.4,2.8c0.7-1.3,1.5-2.3,2.4-2.9c0.9-0.7,2-1,3.2-1c0.8,0,1.5,0.1,2,0.4c0.5,0.3,1,0.7,1.4,1.2
			c0.4,0.5,0.6,1.2,0.8,2s0.2,1.7,0.2,2.7V23.7z"/>
		<path fill="#FFFFFF" d="M88.7,6V3.5h1.4V6H88.7z M88.7,23.7V9.3h1.4v14.4H88.7z"/>
		<path fill="#FFFFFF" d="M104.9,23.7L99.3,16l-3.4,3.1v4.6h-1.4V3.5h1.4v14.1l8.8-8.3h1.6l-6,5.9l6.2,8.5H104.9z"/>
		<path fill="#FFFFFF" d="M114.2,24c-1,0-2-0.2-2.8-0.6c-0.9-0.4-1.6-0.9-2.2-1.6c-0.6-0.7-1.1-1.5-1.5-2.4
			c-0.4-0.9-0.5-1.8-0.5-2.8c0-1,0.2-2,0.5-2.9c0.4-0.9,0.8-1.7,1.5-2.4c0.6-0.7,1.4-1.2,2.2-1.6c0.9-0.4,1.8-0.6,2.8-0.6
			c1,0,1.9,0.2,2.8,0.6c0.9,0.4,1.6,0.9,2.2,1.6c0.6,0.7,1.1,1.5,1.5,2.4c0.4,0.9,0.5,1.9,0.5,2.9c0,1-0.2,1.9-0.5,2.8
			c-0.4,0.9-0.8,1.7-1.5,2.4c-0.6,0.7-1.4,1.2-2.2,1.6C116.2,23.8,115.2,24,114.2,24z M108.6,16.6c0,1.1,0.3,2.2,0.8,3.1
			c0.5,0.9,1.2,1.7,2,2.2c0.9,0.6,1.8,0.8,2.8,0.8c1,0,2-0.3,2.8-0.8c0.9-0.6,1.5-1.3,2.1-2.3c0.5-0.9,0.8-2,0.8-3.1
			c0-1.1-0.3-2.2-0.8-3.1c-0.5-0.9-1.2-1.7-2-2.3c-0.9-0.6-1.8-0.8-2.8-0.8c-1,0-2,0.3-2.8,0.9c-0.9,0.6-1.5,1.3-2.1,2.3
			C108.8,14.4,108.6,15.5,108.6,16.6z"/>
	</g>
</g>
<g>
	<path fill="#0078AA" d="M13.9,6.6L5.7,20.7L0,24L13.9,0V6.6z"/>
	<path fill="#99C9DD" d="M5.7,20.7l16.3,0l5.7,3.3L0,24L5.7,20.7z"/>
	<path fill="#3393BB" d="M22,20.7L13.9,6.6l0-6.6l13.9,24L22,20.7z"/>
</g>
</svg>
