<svg version="1.1" xmlns="http://www.w3.org/2000/svg" width="171px" height="32px" viewBox="0 0 171 32">
	<path d="M17.5,5.8c1.1-1.3,1.7-3,1.5-4.8c-1.7,0.2-3.3,1-4.4,2.3c-1.1,1.3-1.7,2.9-1.6,4.6C14.8,7.9,16.5,7.1,17.5,5.8 M19.1,8.2 c-2.5-0.1-4.5,1.4-5.7,1.4s-3-1.3-4.9-1.3c-2.6,0.1-4.9,1.5-6.2,3.7c-2.6,4.6-0.7,11.3,1.9,15c1.2,1.8,2.7,3.9,4.7,3.8 c1.9-0.1,2.6-1.2,4.9-1.2s2.9,1.2,4.9,1.2c2.1,0,3.3-1.8,4.6-3.7c0.9-1.3,1.6-2.7,2.1-4.2c-2.4-1.1-4-3.4-4-6.1 c0-2.3,1.3-4.5,3.2-5.7C23.3,9.4,21.2,8.3,19.1,8.2 M30.6,30.6V3.1h17.2v3.7H34.9v8.7h11.8v3.6H34.9v11.5H30.6z M50.7,5.3 c0-1.3,1-2.4,2.4-2.4c1.3,0,2.4,1,2.4,2.4c0,1.3-1,2.4-2.4,2.4c0,0,0,0,0,0C51.7,7.6,50.7,6.6,50.7,5.3C50.7,5.3,50.7,5.3,50.7,5.3z M51,10.6h4.1v20.1H51V10.6z M65.3,5.8v4.7h3.8v3.3h-3.8v11.1c0,1.7,0.8,2.5,2.4,2.5c0.5,0,0.9,0,1.4-0.1v3.3 c-0.8,0.1-1.5,0.2-2.3,0.2c-4.1,0-5.6-1.5-5.6-5.4V13.8h-2.9v-3.3h2.9V5.8L65.3,5.8z M72.6,10.6h3.9v3.4h0.1 c1.1-2.4,3.6-3.9,6.3-3.7c4.4,0,7,2.8,7,7.4v13h-4.1V18.4c0-3-1.4-4.7-4.3-4.7c-2.9,0-4.8,2.1-4.8,5.2v11.7h-4.1L72.6,10.6z M110.9,21.6v-1.4c0-6.1-3.5-10-9-10c-5.7,0-9.3,4.2-9.3,10.5C92.5,27,96.1,31,102,31c4.6,0,8.1-2.6,8.6-6.3l-3.9,0 c-0.6,1.8-2.3,2.9-4.6,2.9c-3.3,0-5.4-2.3-5.4-5.8v-0.2H110.9z M101.8,13.5c2.9,0,4.8,2.2,4.9,5.2h-10C96.9,15.7,99,13.5,101.8,13.5 z M121.4,10.2c4.7,0,7.7,2.6,7.8,6.3h-3.9c-0.2-1.9-1.7-3.2-4-3.2c-2.2,0-3.7,1.1-3.7,2.7c0,1.3,0.9,2.1,3.1,2.6l3.3,0.7 c4.1,1,5.7,2.6,5.7,5.5c0,3.7-3.4,6.2-8.1,6.2c-5,0-8-2.5-8.4-6.3h4.1c0.4,2.1,1.8,3.1,4.3,3.1c2.5,0,4-1,4-2.7 c0-1.3-0.7-2.1-2.9-2.6l-3.3-0.8c-3.8-0.9-5.7-2.7-5.7-5.6C113.7,12.7,116.8,10.2,121.4,10.2z M140,10.2c4.7,0,7.7,2.6,7.8,6.3H144 c-0.2-1.9-1.7-3.2-4-3.2c-2.2,0-3.7,1.1-3.7,2.7c0,1.3,0.9,2.1,3.1,2.6l3.3,0.7c4.1,1,5.7,2.6,5.7,5.5c0,3.7-3.4,6.2-8.1,6.2 c-5,0-8-2.5-8.4-6.3h4.1c0.4,2.1,1.8,3.1,4.3,3.1c2.5,0,4-1,4-2.7c0-1.3-0.7-2.1-2.9-2.6l-3.3-0.8c-3.8-0.9-5.7-2.7-5.7-5.6 C132.3,12.7,135.4,10.2,140,10.2z M162.3,30.6h-3.8v-8.2h-7.8v-3.7h7.8v-8.2h3.8v8.2h7.8v3.7h-7.8V30.6z"/>
</svg>