<svg version="1.1" xmlns="http://www.w3.org/2000/svg" xmlns:xlink="http://www.w3.org/1999/xlink">
	<defs>
		<!-- 16x16 -->
		<symbol fill="currentColor" class="lti lti-chevron-down-short" viewBox="0 0 16 16" id="chevron-down-short" xmlns="http://www.w3.org/2000/svg">
			<path d="M8.1,11.4c-0.1,0-0.2-0.1-0.3-0.1l-4.1-4c-0.2-0.2-0.2-0.5,0-0.7s0.5-0.2,0.7,0l3.7,3.7l3.6-3.6c0.2-0.2,0.5-0.2,0.7,0 s0.2,0.5,0,0.7l-3.9,4C8.3,11.4,8.2,11.4,8.1,11.4L8.1,11.4z"/>
		</symbol>
		<!-- 20x20 -->
		<symbol fill="none" stroke="currentColor" class="lti lti-person-circle-outline" viewBox="0 0 20 20" id="person-circle-outline" xmlns="http://www.w3.org/2000/svg">
			<path d="M19.5,10c0,5.2-4.3,9.5-9.5,9.5S0.5,15.2,0.5,10S4.8,0.5,10,0.5 S19.5,4.8,19.5,10z M12.5,7c0-1.4-1.1-2.5-2.5-2.5S7.5,5.6,7.5,7v1c0,1.4,1.1,2.5,2.5,2.5s2.5-1.1,2.5-2.5V7z M16.5,16.9v-1.4 c0-1.7-1.3-3-3-3h-7c-1.7,0-3,1.3-3,3v1.4"/>
		</symbol>
	</defs>
</svg>


