<svg version="1.1" xmlns="http://www.w3.org/2000/svg" xmlns:xlink="http://www.w3.org/1999/xlink">
	<defs>
		<symbol fill="currentColor" class="svg-art svg-art-chart-line" viewBox="0 0 72 72" id="chart-line" xmlns="http://www.w3.org/2000/svg">
			<path d="M60.5,50.5h-42c-0.3,0-0.5-0.2-0.5-0.5V22c0-0.3,0.2-0.5,0.5-0.5h42c0.3,0,0.5,0.2,0.5,0.5v28 C61,50.3,60.8,50.5,60.5,50.5z M19,49.5h41v-27H19V49.5z M40,57v-3.8c0-0.3-0.2-0.5-0.5-0.5S39,52.9,39,53.2v3.3H12v-41h27v3.2 c0,0.3,0.2,0.5,0.5,0.5s0.5-0.2,0.5-0.5V15c0-0.3-0.2-0.5-0.5-0.5h-28c-0.3,0-0.5,0.2-0.5,0.5v42c0,0.3,0.2,0.5,0.5,0.5h28 C39.8,57.5,40,57.3,40,57z M28.1,40.3c-0.2-0.2-0.5-0.2-0.7-0.1l-0.8,0.7c-0.4-0.3-0.9-0.5-1.5-0.5c-1.4,0-2.5,1.1-2.5,2.5 s1.1,2.5,2.5,2.5s2.5-1.1,2.5-2.5c0-0.4-0.1-0.9-0.3-1.2L28,41C28.3,40.8,28.3,40.5,28.1,40.3z M25.1,44.4c-0.8,0-1.5-0.7-1.5-1.5 s0.7-1.5,1.5-1.5s1.5,0.7,1.5,1.5S25.9,44.4,25.1,44.4z M29.7,39.5c-0.1,0-0.3-0.1-0.4-0.2c-0.2-0.2-0.1-0.5,0.1-0.7l2-1.7 c0.2-0.2,0.5-0.1,0.7,0.1c0.2,0.2,0.1,0.5-0.1,0.7l-2,1.7C30,39.4,29.8,39.5,29.7,39.5z M33.8,36.1c-0.1,0-0.3-0.1-0.4-0.2 c-0.2-0.2-0.1-0.5,0.1-0.7l2-1.7c0.2-0.2,0.5-0.1,0.7,0.1c0.2,0.2,0.1,0.5-0.1,0.7l-2,1.7C34,36,33.9,36.1,33.8,36.1z M52.5,35.3 c-0.7,0-1.3,0.3-1.8,0.7l-0.9-0.6c-0.2-0.2-0.5-0.1-0.7,0.1c-0.2,0.2-0.1,0.5,0.1,0.7l0.9,0.6C50,37.2,50,37.5,50,37.8 c0,1.4,1.1,2.5,2.5,2.5s2.5-1.1,2.5-2.5C55,36.5,53.8,35.3,52.5,35.3z M52.5,39.3c-0.8,0-1.5-0.7-1.5-1.5c0-0.3,0.1-0.6,0.2-0.8 c0,0,0,0,0,0c0,0,0,0,0,0c0.3-0.4,0.7-0.7,1.2-0.7c0.8,0,1.5,0.7,1.5,1.5S53.3,39.3,52.5,39.3z M47.9,34.9c0.2-0.2,0.1-0.5-0.1-0.7 l-2-1.3c-0.2-0.1-0.5-0.1-0.7,0.1c-0.2,0.2-0.1,0.5,0.1,0.7l2,1.3c0.1,0.1,0.2,0.1,0.3,0.1C47.7,35.1,47.8,35,47.9,34.9z M43.7,31.5 l-0.9-0.6c0.1-0.3,0.2-0.6,0.2-0.9c0-1.4-1.1-2.5-2.5-2.5S38,28.6,38,30c0,0.4,0.1,0.8,0.3,1.2l-0.8,0.7c-0.2,0.2-0.2,0.5-0.1,0.7 c0.1,0.1,0.2,0.2,0.4,0.2c0.1,0,0.2,0,0.3-0.1l0.8-0.7c0.4,0.3,1,0.6,1.6,0.6c0.7,0,1.3-0.3,1.8-0.7l0.9,0.6 c0.1,0.1,0.2,0.1,0.3,0.1c0.2,0,0.3-0.1,0.4-0.2C44,32,43.9,31.6,43.7,31.5z M40.5,31.5c-0.8,0-1.5-0.7-1.5-1.5s0.7-1.5,1.5-1.5 S42,29.2,42,30c0,0.3-0.1,0.6-0.2,0.8c0,0,0,0,0,0c0,0,0,0,0,0C41.5,31.2,41,31.5,40.5,31.5z"/>
		</symbol>
		<symbol fill="currentColor" class="svg-art svg-art-club-exterior" viewBox="0 0 72 72" id="club-exterior" xmlns="http://www.w3.org/2000/svg">
			<path d="M7.1,50c0.3,0,0.5-0.2,0.5-0.5V29h9.2v20.5c0,0.3,0.2,0.5,0.5,0.5s0.5-0.2,0.5-0.5V29h5.9v20.5 c0,0.3,0.2,0.5,0.5,0.5s0.5-0.2,0.5-0.5V32h22v17.5c0,0.3,0.2,0.5,0.5,0.5s0.5-0.2,0.5-0.5V29h5.8v20.5c0,0.3,0.2,0.5,0.5,0.5 c0.3,0,0.5-0.2,0.5-0.5V29h9.2v20.5c0,0.3,0.2,0.5,0.5,0.5s0.5-0.2,0.5-0.5v-21c0-0.3-0.2-0.5-0.5-0.5H47.8v-8h3 c0.3,0,0.5-0.2,0.5-0.5S51,19,50.8,19h-3.5h-23h-3.5c-0.3,0-0.5,0.2-0.5,0.5s0.2,0.5,0.5,0.5h3v8H7.1c-0.3,0-0.5,0.2-0.5,0.5v21 C6.6,49.8,6.8,50,7.1,50z M46.8,20v11h-22V20H46.8z M38,49.5V42c0-1.1-0.9-2-2-2s-2,0.9-2,2v7.5c0,0.3-0.2,0.5-0.5,0.5 S33,49.8,33,49.5V42c0-1.7,1.3-3,3-3s3,1.3,3,3v7.5c0,0.3-0.2,0.5-0.5,0.5S38,49.8,38,49.5z M68,53.2c0,0.3-0.2,0.5-0.5,0.5h-63 c-0.3,0-0.5-0.2-0.5-0.5s0.2-0.5,0.5-0.5h63C67.8,52.7,68,53,68,53.2z"/>
		</symbol>
	</defs>
</svg>


