<svg version="1.1" xmlns="http://www.w3.org/2000/svg" xmlns:xlink="http://www.w3.org/1999/xlink">
	<defs>
		<symbol class="svg-art svg-art-chart-line" viewBox="0 0 72 72" id="chart-line" xmlns="http://www.w3.org/2000/svg">
			<path fill="none" stroke="currentColor" stroke-linecap="round" stroke-linejoin="round" vector-effect="non-scaling-stroke" d="M18.5,22.5h42v28h-42V22.5z M39.5,19.5v-4 h-28v42h28v-4 M25.1,41.4c1.1,0,2,0.9,2,2s-0.9,2-2,2s-2-0.9-2-2S24,41.4,25.1,41.4z M40.5,28.5c1.1,0,2,0.9,2,2s-0.9,2-2,2 s-2-0.9-2-2S39.4,28.5,40.5,28.5z M52.5,36.3c1.1,0,2,0.9,2,2s-0.9,2-2,2s-2-0.9-2-2S51.4,36.3,52.5,36.3z M26.6,42.1l1.2-1 M29.7,39.5l2-1.7 M33.8,36.1l2-1.7 M37.8,32.7l1.1-1 M50.8,37.2l-1.2-0.8 M47.5,35.1l-2-1.3 M43.4,32.4l-1.3-0.8"/>
		</symbol>
		<symbol class="svg-art svg-art-club-exterior" viewBox="0 0 72 72" id="club-exterior" xmlns="http://www.w3.org/2000/svg">
			<path fill="none" stroke="currentColor" stroke-linecap="round" stroke-linejoin="round" vector-effect="non-scaling-stroke" d="M7.5,49.5v-21 M17.5,28.5v21 M24.5,19.5v30 M47.5,19.5v30 M54.5,28.5v21 M64.5,28.5v21 M20.5,19.5h31 M4.5,53.5h63 M24.5,31.5h23 M38.5,49.5V42c0-1.4-1.1-2.5-2.5-2.5 s-2.5,1.1-2.5,2.5v7.5 M7.5,28.5h17 M47.5,28.5h17"/>
		</symbol>
		<symbol class="svg-art svg-art-cleaning" viewBox="0 0 72 72" id="cleaning" xmlns="http://www.w3.org/2000/svg">
			<path fill="none" stroke="currentColor" stroke-linecap="round" stroke-linejoin="round" vector-effect="non-scaling-stroke" d="M35.5,26.5h5 M40.5,23c0-1.4,1.1-2.5,2.5-2.5 h3.5l-3-5h-18v5H33c1.4,0,2.5,1.1,2.5,2.5v1.5h5V23z M24.5,27.5c3-1,5.1-3.8,5-7h0v-5 M46.5,41.5c0-1.3-0.3-2.6-1-3.7l-2.1-3.6 c-0.6-1.1-1-2.4-1-3.7v-2.1h-9v2.1c0,1.3-0.3,2.6-1,3.7l-2.1,3.6c-0.6,1.1-1,2.4-1,3.7v15h17V41.5z"/>
		</symbol>
		<symbol class="svg-art svg-art-member-card" viewBox="0 0 72 72" id="member-card" xmlns="http://www.w3.org/2000/svg">
			<path fill="none" stroke="currentColor" stroke-linecap="round" stroke-linejoin="round" vector-effect="non-scaling-stroke" d="M19.5,38.5h14 M19.5,43.5h5 M19.2,21.5h33.6 c2.6,0,4.7,2.1,4.7,4.7v19.6c0,2.6-2.1,4.7-4.7,4.7H19.2c-2.6,0-4.7-2.1-4.7-4.7V26.2C14.5,23.6,16.6,21.5,19.2,21.5z M47,25.5 c3.6,0,6.5,2.9,6.5,6.5s-2.9,6.5-6.5,6.5s-6.5-2.9-6.5-6.5S43.4,25.5,47,25.5z M47,29.5c1.1,0,2,0.9,2,2c0,1.1-0.9,2-2,2s-2-0.9-2-2 C45,30.4,45.9,29.5,47,29.5z M43.2,37.2c0.1-2.1,1.9-3.7,4-3.6c1.9,0.1,3.5,1.7,3.6,3.6"/>
		</symbol>
		<symbol class="svg-art svg-art-air-conditioning" viewBox="0 0 72 72" id="air-conditioning" xmlns="http://www.w3.org/2000/svg">
			<path fill="none" stroke="currentColor" stroke-linecap="round" stroke-linejoin="round" vector-effect="non-scaling-stroke" d="M13.5,24.7c1.3,0,1.3,1.6,2.7,1.6 c1.3,0,1.3-1.6,2.7-1.6c1.3,0,1.3,1.6,2.7,1.6s1.3-1.6,2.7-1.6s1.3,1.6,2.7,1.6s1.3-1.6,2.7-1.6 M13.5,31.7c1.3,0,1.3,1.6,2.7,1.6 c1.3,0,1.3-1.6,2.7-1.6c1.3,0,1.3,1.6,2.7,1.6s1.3-1.6,2.7-1.6s1.3,1.6,2.7,1.6s1.3-1.6,2.7-1.6 M13.5,45.7c1.3,0,1.3,1.6,2.7,1.6 c1.3,0,1.3-1.6,2.7-1.6c1.3,0,1.3,1.6,2.7,1.6s1.3-1.6,2.7-1.6s1.3,1.6,2.7,1.6s1.3-1.6,2.7-1.6 M13.5,38.7c1.3,0,1.3,1.6,2.7,1.6 c1.3,0,1.3-1.6,2.7-1.6c1.3,0,1.3,1.6,2.7,1.6s1.3-1.6,2.7-1.6s1.3,1.6,2.7,1.6s1.3-1.6,2.7-1.6 M44.5,51.5h-25v-31h25V51.5z M44.5,46.5h13 M44.5,25.5h13 M44.5,39.5h13 M44.5,32.5h13"/>
		</symbol>
		<symbol class="svg-art svg-art-social-distance" viewBox="0 0 72 72" id="social-distance" xmlns="http://www.w3.org/2000/svg">
			<path fill="none" stroke="currentColor" stroke-linecap="round" stroke-linejoin="round" vector-effect="non-scaling-stroke" d="M16.9,20.6c2.1,0,3.8,1.7,3.8,3.8 s-1.7,3.8-3.8,3.8s-3.8-1.7-3.8-3.8S14.8,20.6,16.9,20.6z M16.9,30.1c-3.9,0-5.9,0.8-5.6,4.7s4.2,15.7,4.2,15.7h2.9 c0,0,3.9-11.9,4.2-15.7S20.8,30.1,16.9,30.1z M55.1,20.6c2.1,0,3.8,1.7,3.8,3.8s-1.7,3.8-3.8,3.8s-3.8-1.7-3.8-3.8 S53,20.6,55.1,20.6z M55.1,30.1c-3.9,0-5.9,0.8-5.6,4.7s4.2,15.7,4.2,15.7h2.9c0,0,3.9-11.9,4.2-15.7C61,30.9,59,30.1,55.1,30.1z M28.5,31.5v8 M43.5,31.5v8 M28.5,35.5h15"/>
		</symbol>
		<symbol class="svg-art svg-art-member-online" viewBox="0 0 72 72" id="member-online" xmlns="http://www.w3.org/2000/svg">
			<path fill="none" stroke="currentColor" stroke-linecap="round" stroke-linejoin="round" vector-effect="non-scaling-stroke" d="M36,16.5c4.1,0,7.5,3.4,7.5,7.5 s-3.4,7.5-7.5,7.5s-7.5-3.4-7.5-7.5S31.9,16.5,36,16.5z M36,20.5c1.4,0,2.5,1.1,2.5,2.5s-1.1,2.5-2.5,2.5s-2.5-1.1-2.5-2.5 S34.6,20.5,36,20.5z M31.5,30c0-2.5,2-4.5,4.5-4.5s4.5,2,4.5,4.5 M25.5,48.5h-8.3c-1.5,0-2.7-1.2-2.7-2.7v-4.5 c0-1.5,1.2-2.7,2.7-2.7h37.5c1.5,0,2.7,1.2,2.7,2.7v4.5c0,1.5-1.2,2.7-2.7,2.7H44.5 M32.6,46.7l3.6,9.2l1.3-2.7l3.4,3.4l0.8-0.8 l0.8-0.8l-3.4-3.4l2.7-1.3L32.6,46.7z M30.9,44.9l-1.1-1.1 M34.5,44.9l1.1-1.1 M29.8,49.7l1.1-1.1 M28.5,46.5h2 M32.5,44.5v-2"/>
		</symbol>
		<symbol class="svg-art svg-art-mobile-video" viewBox="0 0 72 72" id="mobile-video" xmlns="http://www.w3.org/2000/svg">
			<path fill="none" stroke="currentColor" stroke-linecap="round" stroke-linejoin="round" vector-effect="non-scaling-stroke" d="M59.5,47.5 c0,2.2-1.8,4-4,4h-39c-2.2,0-4-1.8-4-4v-23c0-2.2,1.8-4,4-4h39c2.2,0,4,1.8,4,4V47.5z M54.5,20.5v31 M17.5,30.5v-10 M17.5,51.5v-10 M17.5,34.5c-0.8,0-1.5,0.7-1.5,1.5s0.7,1.5,1.5,1.5S19,36.8,19,36S18.3,34.5,17.5,34.5z M36,28.5c-4.1,0-7.5,3.4-7.5,7.5 s3.4,7.5,7.5,7.5s7.5-3.4,7.5-7.5S40.1,28.5,36,28.5z M39,36l-5-3v6L39,36z"/>
		</symbol>
		<symbol class="svg-art svg-art-member-card-motion" viewBox="0 0 72 72" id="member-card-motion" xmlns="http://www.w3.org/2000/svg">
			<path fill="none" stroke="currentColor" stroke-linecap="round" stroke-linejoin="round" vector-effect="non-scaling-stroke" d="M41.1,11.4 C41.1,11.4,41.1,11.4,41.1,11.4c0.9,0.3,1.8,0.7,2.6,1.2 M34.6,10.6C34.6,10.6,34.6,10.6,34.6,10.6c0.5,0,1-0.1,1.4-0.1l0,0 c0.5,0,0.9,0,1.4,0.1 M46.5,14.9C46.6,14.9,46.6,14.9,46.5,14.9c0.4,0.4,0.7,0.8,1.1,1.2 M28.4,12.6c0.8-0.5,1.7-0.9,2.6-1.2 c0,0,0,0,0,0 M24.4,16.1c0.3-0.4,0.6-0.8,1-1.2c0,0,0,0,0.1-0.1 M19.5,38.5h14 M19.5,43.5h5 M47,25.5c3.6,0,6.5,2.9,6.5,6.5 s-2.9,6.5-6.5,6.5s-6.5-2.9-6.5-6.5S43.4,25.5,47,25.5z M47,29.5c1.1,0,2,0.9,2,2c0,1.1-0.9,2-2,2s-2-0.9-2-2 C45,30.4,45.9,29.5,47,29.5z M43.2,37.2c0.1-2.1,1.9-3.7,4-3.6c1.9,0.1,3.5,1.7,3.6,3.6 M57.5,23.5c0-1.1-0.9-2-2-2h-39 c-1.1,0-2,0.9-2,2v25c0,1.1,0.9,2,2,2h39c1.1,0,2-0.9,2-2V23.5z M43.7,59.4c-0.8,0.5-1.7,0.9-2.6,1.2c0,0,0,0,0,0 M37.4,61.4 c-0.5,0.1-0.9,0.1-1.4,0.1l0,0c-0.5,0-1,0-1.4-0.1c0,0,0,0,0,0 M47.6,55.9c-0.3,0.4-0.6,0.8-1,1.2c0,0,0,0-0.1,0.1 M30.9,60.6 C30.9,60.6,30.9,60.6,30.9,60.6c-0.9-0.3-1.8-0.7-2.6-1.2 M25.5,57.1C25.5,57.1,25.5,57.1,25.5,57.1c-0.4-0.4-0.7-0.8-1.1-1.2"/>
		</symbol>
		<symbol class="svg-art svg-art-clipboard-checklist" viewBox="0 0 72 72" id="clipboard-checklist" xmlns="http://www.w3.org/2000/svg">
			<path fill="none" stroke="currentColor" stroke-linecap="round" stroke-linejoin="round" vector-effect="non-scaling-stroke" d="M50.5,13.5h5v47h-39 v-47h5 M21.5,19.5v36h29v-36 M45.5,11.5H40c0-2.2-1.8-4-4-4s-4,1.8-4,4h-5.5c-1.1,0-2,0.9-2,2v5h23v-5 C47.5,12.4,46.6,11.5,45.5,11.5z M36,10.5c-0.6,0-1,0.4-1,1s0.4,1,1,1s1-0.4,1-1S36.6,10.5,36,10.5z M34.5,28.5h10 M34.5,46.5h10 M34.5,37.5h10 M29,27c-0.8,0-1.5,0.7-1.5,1.5S28.2,30,29,30s1.5-0.7,1.5-1.5S29.8,27,29,27z M29,45c-0.8,0-1.5,0.7-1.5,1.5 S28.2,48,29,48s1.5-0.7,1.5-1.5S29.8,45,29,45z M29,36c-0.8,0-1.5,0.7-1.5,1.5S28.2,39,29,39s1.5-0.7,1.5-1.5S29.8,36,29,36z"/>
		</symbol>
		<symbol class="svg-art svg-art-female-profile" viewBox="0 0 72 72" id="female-profile" xmlns="http://www.w3.org/2000/svg">
			<path fill="none" stroke="currentColor" stroke-linecap="round" stroke-linejoin="round" d="M48,33c0.5,1.3,1.9,3.8,1.7,4.3 s-1,0.5-1.4,0.5 M46.9,26.2c0.7,2.2,1.1,4.6,1.2,6.9 M48.3,38c-0.1,2.1-0.5,4.2-1.1,6.3c-0.6,1.5-6.7-0.1-9.8-0.9 M42,53.5l-0.5-8.8 M31.4,49.5l0.5-7 M33.9,18.9c0-0.6-0.1-1.1-0.4-1.6c-1.2-1.9-4.6-1.9-7.6,0c-2.9,1.9-4.3,5-3.1,6.9c0.6,0.9,1.6,1.3,2.8,1.4 M46.9,26.1c-2.7,3.2-5.7,4.7-9.7,5.7c-0.3-0.7-0.9-1.1-1.6-1.2c-1.1,0-1.9,0.9-1.9,2v0.1c-0.1,1.1,0.5,2.2,1.5,2.7 c-0.4,1.6-0.7,4.7-3.5,7.2c-0.7,0.6-7.9-6.7-6.7-14.4s8.4-9.7,11.8-9.6C41.4,18.6,45.5,21.6,46.9,26.1z M25.7,56.2 c0,0,1.3-7.2,6.9-6.2c5.7,1,14.9,6.2,14.9,6.2"/>
		</symbol>
	</defs>
</svg>




