<?xml version="1.0" encoding="utf-8"?>
<!-- Generator: Adobe Illustrator 26.3.1, SVG Export Plug-In . SVG Version: 6.00 Build 0)  -->
<svg version="1.1" id="Layer_1" xmlns="http://www.w3.org/2000/svg" xmlns:xlink="http://www.w3.org/1999/xlink" x="0px" y="0px"
	 viewBox="0 0 366.68 210.42" style="enable-background:new 0 0 366.68 210.42;" xml:space="preserve">
<style type="text/css">
	.st0{fill:#FFFFFF;}
	.st1{fill:#A2AAAD;}
</style>
<g>
	<g>
		<g id="Group_84_00000168095104861646368880000008919435427903961533_">
			<path id="Path_107_00000023251743621178616310000004848222634719432882_" class="st0" d="M74.63,25.48h26.05
				c36.85,0,53.05,23.19,47.33,59.4c-8.74,55.27-44.31,60.36-64.01,60.36H55.74L74.63,25.48z M92.74,116.33
				c14.77-0.16,20.17-18.58,22.08-29.86c2.06-13.02,2.38-31.13-12.39-31.13L92.74,116.33z"/>
			<path id="Path_108_00000171693785699172632430000007431902802048182183_" class="st1" d="M147.08,145.24l18.9-119.76h29.54
				c28.27,0,48.6,9.21,43.68,40.65c-4.92,31.13-25.57,40.65-53.52,39.87l-6.2,39.24H147.08z M196.79,51.21l-2.38,0.16l-4.45,27.64
				c8.9,0.48,15.09-4.45,16.52-13.34C207.75,58.04,204.73,51.21,196.79,51.21"/>
			<path id="Path_109_00000165950333899901863750000014700425587358317443_" class="st1" d="M247.61,145.24l14.29-90.53h-17.79
				l4.61-29.23h68.78l-4.6,29.22H294.3l-14.29,90.53L247.61,145.24z"/>
		</g>
	</g>
	<g>
		<polygon class="st1" points="48.62,163.57 14.55,163.57 39.33,7.15 73.4,7.15 74.53,0 33.31,0 6.27,170.72 47.49,170.72 		"/>
		<polygon class="st1" points="325.46,0 324.33,7.15 358.4,7.15 333.62,163.57 299.55,163.57 298.42,170.72 339.64,170.72 366.68,0 
					"/>
	</g>
</g>
<g>
	<g>
		<path class="st0" d="M3.22,189.68h4.43c6.27,0,9.03,3.95,8.06,10.11c-1.49,9.41-7.54,10.27-10.9,10.27H0L3.22,189.68z M6.3,205.15
			c2.51-0.03,3.43-3.16,3.76-5.08c0.35-2.22,0.41-5.3-2.11-5.3L6.3,205.15z"/>
		<path class="st0" d="M16.74,210.07l1.38-8.65l-3.19-11.73h5.73l0.92,6.3h0.05l2.89-6.3h5.71l-6.6,11.73l-1.38,8.65H16.74z"/>
		<path class="st0" d="M30.78,189.68h5.25l2.49,12.27l0.05-0.05c0.16-2.35,0.11-4.68,0.49-7.03l0.81-5.19h5.3l-3.22,20.39h-5.3
			l-2.24-11.76l-0.05,0.05c-0.19,1.92-0.24,3.81-0.54,5.73l-0.95,5.97h-5.3L30.78,189.68z"/>
		<path class="st0" d="M52.91,210.07v-2.62h-3.7l-0.87,2.62h-5.68l8.11-20.39h6.73l1.11,20.39H52.91z M52.96,203.12l0.14-4.73
			c0.05-1.27,0.13-2.57,0.22-3.84h-0.05c-0.38,1.27-0.7,2.57-1.14,3.84l-1.49,4.73H52.96z"/>
		<path class="st0" d="M75.11,210.07l1.51-12.82h-0.05c-0.49,1.49-0.89,2.97-1.41,4.46l-2.89,8.35h-4.49l0.11-12.82h-0.05
			c-0.27,1.51-0.49,3-0.78,4.52l-1.78,8.3h-5.92l5.6-20.39h6.87l-0.13,10.84h0.05c0.35-1.27,0.7-2.51,1.14-3.79l2.43-7.06h6.79
			l-1.24,20.39H75.11z"/>
		<path class="st0" d="M81.85,210.07l3.22-20.39h5.52l-3.22,20.39H81.85z"/>
		<path class="st0" d="M102.53,195.66c-0.65-0.76-1.24-1.19-2.38-1.19c-2.87,0-4.06,3.16-4.41,5.41c-0.38,2.38-0.16,5.41,2.6,5.41
			c1.24,0,2.11-0.49,3.14-1.3l-1.24,5.71c-1.19,0.49-2.22,0.73-3.43,0.73c-4.51,0-7.81-3.43-6.7-10.41
			c1.43-9.14,7.95-10.68,10.63-10.68c0.97,0,1.92,0.13,2.76,0.49L102.53,195.66z"/>
		<path class="st1" d="M110.95,210.07l3.22-20.39h5.03c4.81,0,8.27,1.57,7.43,6.92c-0.84,5.3-4.35,6.92-9.11,6.79l-1.05,6.68H110.95
			z M119.41,194.06l-0.41,0.03l-0.76,4.7c1.51,0.08,2.57-0.76,2.81-2.27C121.28,195.22,120.77,194.06,119.41,194.06z"/>
		<path class="st1" d="M128.73,189.68h10.25l-0.76,4.81h-4.73l-0.43,2.84h4.24l-0.78,4.81h-4.24l-0.49,3.11h4.73l-0.76,4.81h-10.25
			L128.73,189.68z"/>
		<path class="st1" d="M145.62,210.07l-1.7-8.49l-0.08,0.05c-0.11,1-0.22,2-0.38,3l-0.87,5.43h-5.52l3.22-20.39h5.33
			c4.79,0,8.03,1.41,7.19,6.79c-0.35,2.24-1.65,4.24-3.97,5.11l2.76,8.49H145.62z M144.67,199.12c1.46,0,2.46-1.27,2.65-2.6
			c0.3-1.78-0.68-2.54-2.19-2.46l-0.81,5.03L144.67,199.12z"/>
		<path class="st1" d="M153.15,203.2c0.6,1.14,1.73,2.27,3.14,2.27c0.76,0,1.7-0.46,1.84-1.35c0.08-0.49-0.03-0.84-0.27-1.14
			c-0.19-0.3-0.46-0.54-0.78-0.78c-0.95-0.84-1.76-1.62-2.32-2.6c-0.51-0.95-0.78-2.08-0.54-3.57c0.38-2.38,2.57-6.7,7.27-6.7
			c1.32,0,2.7,0.41,3.76,1.03l-0.97,6.19c-0.49-1.03-1.62-2.19-2.89-2.19c-0.65,0-1.51,0.46-1.62,1.24
			c-0.08,0.43,0.11,0.81,0.35,1.13c0.24,0.32,0.62,0.6,0.87,0.84c1.03,0.81,1.84,1.57,2.32,2.49c0.49,0.92,0.68,2,0.43,3.54
			c-0.6,3.79-3.73,6.81-7.57,6.81c-1.41,0-2.79-0.3-4-0.84L153.15,203.2z"/>
		<path class="st1" d="M174.27,189.33c5.6,0,6.92,5.57,6.14,10.54c-0.78,4.97-3.87,10.54-9.46,10.54c-5.6,0-6.89-5.57-6.11-10.54
			C165.62,194.9,168.68,189.33,174.27,189.33z M171.76,205.28c2.08,0,2.81-4.14,3.03-5.41c0.19-1.27,0.76-5.41-1.32-5.41
			c-2.08,0-2.81,4.14-3,5.41C170.24,201.14,169.68,205.28,171.76,205.28z"/>
		<path class="st1" d="M183.2,189.68h5.25l2.49,12.27l0.05-0.05c0.16-2.35,0.11-4.68,0.49-7.03l0.81-5.19h5.3l-3.22,20.39h-5.3
			l-2.24-11.76l-0.05,0.05c-0.19,1.92-0.24,3.81-0.54,5.73l-0.95,5.97h-5.3L183.2,189.68z"/>
		<path class="st1" d="M205.33,210.07v-2.62h-3.7l-0.86,2.62h-5.68l8.11-20.39h6.73l1.11,20.39H205.33z M205.38,203.12l0.13-4.73
			c0.05-1.27,0.13-2.57,0.22-3.84h-0.05c-0.38,1.27-0.7,2.57-1.14,3.84l-1.49,4.73H205.38z"/>
		<path class="st1" d="M211.89,210.07l3.22-20.39h5.52l-2.46,15.57h4.14l-0.76,4.81H211.89z"/>
		<path class="st1" d="M231.82,210.07l2.43-15.41h-3.03l0.78-4.97h11.71l-0.78,4.97h-3.16l-2.43,15.41H231.82z"/>
		<path class="st1" d="M250.28,210.07l-1.7-8.49l-0.08,0.05c-0.11,1-0.22,2-0.38,3l-0.86,5.43h-5.52l3.22-20.39h5.33
			c4.79,0,8.03,1.41,7.19,6.79c-0.35,2.24-1.65,4.24-3.97,5.11l2.76,8.49H250.28z M249.34,199.12c1.46,0,2.46-1.27,2.65-2.6
			c0.3-1.78-0.68-2.54-2.19-2.46l-0.81,5.03L249.34,199.12z"/>
		<path class="st1" d="M266.32,210.07v-2.62h-3.7l-0.86,2.62h-5.68l8.11-20.39h6.73l1.11,20.39H266.32z M266.37,203.12l0.13-4.73
			c0.05-1.27,0.13-2.57,0.22-3.84h-0.05c-0.38,1.27-0.7,2.57-1.14,3.84l-1.49,4.73H266.37z"/>
		<path class="st1" d="M272.88,210.07l3.22-20.39h5.52l-3.22,20.39H272.88z"/>
		<path class="st1" d="M283.11,189.68h5.25l2.49,12.27l0.05-0.05c0.16-2.35,0.11-4.68,0.49-7.03l0.81-5.19h5.3l-3.22,20.39h-5.3
			l-2.24-11.76l-0.05,0.05c-0.19,1.92-0.24,3.81-0.54,5.73l-0.95,5.97h-5.3L283.11,189.68z"/>
		<path class="st1" d="M295.81,210.07l3.22-20.39h5.52l-3.22,20.39H295.81z"/>
		<path class="st1" d="M306.03,189.68h5.25l2.49,12.27l0.05-0.05c0.16-2.35,0.11-4.68,0.49-7.03l0.81-5.19h5.3l-3.22,20.39h-5.3
			l-2.24-11.76l-0.05,0.05c-0.19,1.92-0.24,3.81-0.54,5.73l-0.95,5.97h-5.3L306.03,189.68z"/>
		<path class="st1" d="M335.09,198.28l-0.11,0.87c-0.78,5.03-2.76,11.27-9.14,11.27c-6,0-7.11-5.27-6.3-10.44
			c0.81-5.06,3.6-10.65,9.57-10.65c3.3,0,5.44,2.08,6.16,5.03l-5.65,1.97c0.08-0.81-0.24-2.08-1.22-2.08
			c-2.54,0-3.08,4.68-3.33,6.22c-0.13,1.46-0.81,5.03,1.33,5.03c1.46,0,2.19-1.73,2.35-2.92h-2.03l0.67-4.3H335.09z"/>
	</g>
	<g>
		<g>
			<path class="st1" d="M339.38,190.66h-0.63c-0.01-0.12-0.05-0.21-0.12-0.28c-0.07-0.07-0.16-0.11-0.28-0.11
				c-0.11,0-0.19,0.03-0.26,0.09c-0.07,0.06-0.1,0.14-0.1,0.25c0,0.11,0.04,0.2,0.14,0.27c0.09,0.07,0.23,0.13,0.42,0.19
				c0.6,0.2,0.9,0.55,0.9,1.06c0,0.26-0.09,0.49-0.28,0.69c-0.19,0.2-0.45,0.3-0.8,0.3c-0.32,0-0.58-0.09-0.78-0.27
				c-0.2-0.18-0.31-0.43-0.34-0.76h0.66c0.04,0.33,0.19,0.49,0.47,0.49c0.13,0,0.23-0.04,0.31-0.12c0.08-0.08,0.11-0.18,0.11-0.29
				c0-0.13-0.04-0.24-0.13-0.32c-0.09-0.08-0.24-0.16-0.44-0.22c-0.58-0.19-0.87-0.53-0.87-1c0-0.26,0.1-0.48,0.29-0.64
				c0.19-0.16,0.43-0.25,0.72-0.25c0.3,0,0.54,0.08,0.73,0.25C339.27,190.15,339.37,190.38,339.38,190.66z"/>
			<path class="st1" d="M342.95,189.83l0.39,3.18h-0.64l-0.15-1.56c-0.03-0.24-0.05-0.47-0.07-0.7h-0.03c0,0-0.03,0.1-0.08,0.29
				c-0.05,0.19-0.09,0.33-0.11,0.42l-0.46,1.56h-0.47l-0.47-1.58c-0.09-0.3-0.15-0.53-0.18-0.68h-0.04
				c-0.01,0.14-0.02,0.36-0.05,0.67l-0.16,1.59h-0.6l0.38-3.18h0.74l0.47,1.5c0.07,0.24,0.13,0.43,0.17,0.58h0.02
				c0.03-0.11,0.08-0.3,0.17-0.58l0.46-1.5H342.95z"/>
		</g>
	</g>
</g>
</svg>
