<svg xmlns="http://www.w3.org/2000/svg" width="98" height="98" viewBox="0 0 98 98">
  <g fill="#523A76" fill-rule="evenodd">
    <path d="M19.000527,2 L78.999473,2 C88.3879594,2 96,9.61257318 96,19.000527 L96,78.999473 C96,88.3879594 88.3874268,96 78.999473,96 L19.000527,96 C9.61204056,96 2,88.3874268 2,78.999473 L2,19.000527 C2,9.61204056 9.61257318,2 19.000527,2 Z M0,78.999473 C0,89.491965 8.50743973,98 19.000527,98 L78.999473,98 C89.491965,98 98,89.4925603 98,78.999473 L98,19.000527 C98,8.508035 89.4925603,0 78.999473,0 L19.000527,0 C8.508035,0 0,8.50743973 0,19.000527 L0,78.999473 Z"/>
    <path d="M49.890625,45.1875 C52.8437648,45.1875 55.1406168,44.7773479 56.78125,43.9570312 C59.3593879,42.6679623 60.6484375,40.347673 60.6484375,36.9960938 C60.6484375,33.6210769 59.2773575,31.3476621 56.5351562,30.1757812 C54.9882735,29.519528 52.6914215,29.1914062 49.6445312,29.1914062 L37.1640625,29.1914062 L37.1640625,45.1875 L49.890625,45.1875 Z M52.2460938,69.0234375 C56.5351777,69.0234375 59.5937409,67.7812624 61.421875,65.296875 C62.5703182,63.7265546 63.1445312,61.8281361 63.1445312,59.6015625 C63.1445312,55.8515437 61.4687668,53.2968818 58.1171875,51.9375 C56.3359286,51.2109339 53.9804834,50.8476562 51.0507812,50.8476562 L37.1640625,50.8476562 L37.1640625,69.0234375 L52.2460938,69.0234375 Z M30.3085938,23.3554688 L52.4921875,23.3554688 C58.5390927,23.3554688 62.839831,25.1601382 65.3945312,28.7695312 C66.8945388,30.9023544 67.6445312,33.3632673 67.6445312,36.1523438 C67.6445312,39.4101725 66.7187593,42.0820208 64.8671875,44.1679688 C63.9062452,45.2695368 62.5234465,46.2773392 60.71875,47.1914062 C63.3672007,48.1992238 65.3476497,49.3359312 66.6601562,50.6015625 C68.9804804,52.8515738 70.140625,55.9570114 70.140625,59.9179688 C70.140625,63.2461104 69.0976667,66.257799 67.0117188,68.953125 C63.8945157,72.9843952 58.937534,75 52.140625,75 L30.3085938,75 L30.3085938,23.3554688 Z"/>
  </g>
</svg>
