<svg xmlns="http://www.w3.org/2000/svg" width="941" height="686" viewBox="0 0 941 686">
  <g fill="none" fill-rule="evenodd">
    <polygon stroke="#CCCCCC" stroke-width="2" points="639.523 550.646 441.962 407.11 517.424 174.864 761.622 174.864 837.083 407.11" stroke-dasharray="2 4" transform="scale(1 -1) rotate(90 1002.278 0)"/>
    <polygon stroke="#CCCCCC" stroke-width="2" points="295.559 550.207 97.998 406.671 173.46 174.424 417.658 174.424 493.119 406.671" stroke-dasharray="2 4" transform="rotate(-90 295.559 362.315)"/>
    <path stroke="#C6C2B5" d="M470,685.815448 L470,-0.251568367" stroke-linecap="square"/>
    <g stroke="#CCCCCC" stroke-width="2" transform="matrix(0 -1 -1 0 745.632 529.315)" stroke-dasharray="2 4">
      <path d="M15.7158488,45.2168108 C64.9989449,113.049173 124.038265,170.967831 207.995617,154.25088" transform="rotate(-145 111.856 101.187)"/>
      <path d="M126.716524,45.021464 C175.99962,112.853827 235.038941,170.772484 318.996292,154.055533" transform="scale(1 -1) rotate(35 543.161 0)"/>
    </g>
    <path fill="#FFFFFF" stroke="#CCCCCC" d="M820.61743,402.772332 L952.547107,359.905781 L1034.08413,472.131868 L952.547107,584.357954 L820.61743,541.491404 L820.61743,402.772332 Z M403.55468,472.131868 L485.091704,359.905781 L617.021382,402.772332 L617.021382,541.491404 L485.091704,584.357954 L403.55468,472.131868 Z M484.747809,251.520385 L566.284834,139.294298 L698.214511,182.160849 L698.214511,320.879921 L566.284834,363.746472 L484.747809,251.520385 Z M740.080508,182.160849 L872.010185,139.294298 L953.54721,251.520385 L872.010185,363.746472 L740.080508,320.879921 L740.080508,182.160849 Z" transform="scale(1 -1) rotate(90 1080.646 0)"/>
    <polygon fill="#EDEBE4" stroke="#CCCCCC" points="470.365 243.82 582.591 325.357 539.725 457.286 401.005 457.286 358.139 325.357"/>
    <g stroke="#CCCCCC" stroke-width="2" transform="rotate(-90 365.474 163.842)" stroke-dasharray="2 4">
      <path d="M15.7158488,45.2168108 C64.9989449,113.049173 124.038265,170.967831 207.995617,154.25088" transform="rotate(-145 111.856 101.187)"/>
      <path d="M126.716524,45.021464 C175.99962,112.853827 235.038941,170.772484 318.996292,154.055533" transform="scale(1 -1) rotate(35 543.161 0)"/>
    </g>
    <path fill="#FFFFFF" stroke="#CCCCCC" d="M324.221294,403.261654 L456.150971,360.395103 L537.687996,472.62119 L456.150971,584.847276 L324.221294,541.980725 L324.221294,403.261654 Z M-92.8414562,472.62119 L-11.3044315,360.395103 L120.625246,403.261654 L120.625246,541.980725 L-11.3044315,584.847276 L-92.8414562,472.62119 Z M-11.6483265,252.009707 L69.8886982,139.78362 L201.818376,182.650171 L201.818376,321.369243 L69.8886982,364.235794 L-11.6483265,252.009707 Z M243.684372,182.650171 L375.614049,139.78362 L457.151074,252.009707 L375.614049,364.235794 L243.684372,321.369243 L243.684372,182.650171 Z" transform="rotate(-90 222.423 362.315)"/>
    <polygon fill="#F4F3EF" stroke="#CCCCCC" points="470.365 220.82 582.591 302.357 539.725 434.286 401.005 434.286 358.139 302.357" transform="matrix(1 0 0 -1 0 700.179)"/>
    <text font-family="HelveticaNeue-Bold, Helvetica Neue" font-size="24" font-weight="bold">
      <tspan x="428.864" y="352.815" fill="#007FAA">Design</tspan> <tspan x="399.308" y="380.815" fill="#999999" font-family="HelveticaNeue, Helvetica Neue" font-weight="normal">[Eco]</tspan> <tspan x="453.068" y="380.815" fill="#007FAA">System</tspan>
    </text>
    <text fill="#444444" font-family="HelveticaNeue-Bold, Helvetica Neue" font-size="24" font-weight="bold">
      <tspan x="547.172" y="172.815">Prototypes</tspan>
    </text>
    <text fill="#444444" font-family="HelveticaNeue-Bold, Helvetica Neue" font-size="24" font-weight="bold">
      <tspan x="564.092" y="566.815">Themes</tspan>
    </text>
    <text fill="#444444" font-family="HelveticaNeue-Bold, Helvetica Neue" font-size="24" font-weight="bold">
      <tspan x="804.512" y="486.815">Prod</tspan>
    </text>
    <text fill="#444444" font-family="HelveticaNeue-Bold, Helvetica Neue" font-size="24" font-weight="bold">
      <tspan x="814.076" y="256.315">QA</tspan>
    </text>
    <text fill="#444444" font-family="HelveticaNeue-Bold, Helvetica Neue" font-size="24" font-weight="bold">
      <tspan x="57.636" y="487.315">Business</tspan>
    </text>
    <text fill="#444444" font-family="HelveticaNeue-Bold, Helvetica Neue" font-size="24" font-weight="bold">
      <tspan x="268.012" y="555.315">Application</tspan> <tspan x="295.54" y="583.315">Teams</tspan>
    </text>
    <text fill="#444444" font-family="HelveticaNeue-Bold, Helvetica Neue" font-size="24" font-weight="bold">
      <tspan x="290.864" y="174.315">Design</tspan>
    </text>
    <text fill="#444444" font-family="HelveticaNeue-Bold, Helvetica Neue" font-size="24" font-weight="bold">
      <tspan x="92.736" y="256.315">UX</tspan>
    </text>
    <text fill="#444444" font-family="HelveticaNeue, Helvetica Neue" font-size="18">
      <tspan x="365.33" y="34">Disciplines</tspan>
    </text>
    <text fill="#444444" font-family="HelveticaNeue, Helvetica Neue" font-size="18">
      <tspan x="492" y="34">Implementation</tspan>
    </text>
  </g>
</svg>
