<svg xmlns="http://www.w3.org/2000/svg" width="199" height="196" viewBox="0 0 199 196">
  <g fill="#FFFFFF" fill-rule="evenodd" transform="translate(-1)">
    <path d="M198.577901 72.9704972L198.577901 79.780221C198.577901 80.3332597 198.128177 80.7816575 197.574586 80.7816575L174.390055 80.7816575C173.836464 80.7816575 173.387845 81.2299448 173.387845 81.7829834L173.387845 89.9961326C173.387845 90.5491713 173.836464 90.9974586 174.390055 90.9974586L195.502762 90.9974586C196.056354 90.9974586 196.504972 91.4457459 196.504972 91.9987845L196.504972 98.1409945C196.504972 98.6940331 196.056354 99.1423204 195.502762 99.1423204L174.390055 99.1423204C173.836464 99.1423204 173.387845 99.5906077 173.387845 100.143757L173.387845 109.823536C173.387845 110.376575 173.836464 110.824862 174.390055 110.824862L198.109392 110.824862C198.662983 110.824862 199.111602 111.273149 199.111602 111.826298L199.111602 118.636022C199.111602 119.189061 198.662983 119.637348 198.109392 119.637348L163.899448 119.637348C163.345856 119.637348 162.897238 119.189061 162.897238 118.636022L162.897238 72.9704972C162.897238 72.4174586 163.345856 71.9691713 163.899448 71.9691713L197.574586 71.9691713C198.128177 71.9691713 198.577901 72.4174586 198.577901 72.9704972M67.3276243 93.1885083C68.3737017 86.9025414 73.4482873 81.8323757 79.741989 80.7847514 84.5337017 79.9880663 88.9887293 81.4596685 92.2490608 84.2809945 92.678232 84.6513812 92.678232 85.321326 92.2759116 85.7233149L72.2704972 105.714033C71.8680663 106.116022 71.1975691 106.116022 70.8244199 105.684862 68.0030939 102.429834 66.5302762 97.9760221 67.3276243 93.1885083M178.835359 1.75756906L178.283978 1.20696133C177.891713.817127072 177.257459.817127072 176.865193 1.20696133L100.898343 77.1107182C100.330166 77.6783425 99.4279558 77.6759116 98.8280663 77.1423204 93.5487293 72.4522652 86.3088398 69.9330387 78.4423204 71.1317127 67.8104972 72.7519337 59.2879558 81.2647514 57.6662983 91.8875138 56.4373481 99.9227624 59.1001105 107.305083 63.9966851 112.60663 64.3624309 113.003757 64.3648619 113.612928 63.981989 113.995359L4.26088398 173.665359C3.86828729 174.055182 3.86828729 174.691083 4.26088398 175.080906L4.8119337 175.631536C5.20209945 176.023801 5.83856354 176.023801 6.22872928 175.631536L73.0946961 108.822873C73.4287293 108.489171 73.9433149 108.445304 74.3456354 108.693812 77.3328177 110.547845 81.0027624 111.400663 84.8921547 110.757459 91.2054144 109.712155 96.2798895 104.641989 97.3235359 98.3341436 97.9672928 94.4481768 97.1138122 90.781326 95.2605525 87.7967956 95.0118232 87.3946961 95.0532597 86.8830939 95.3874033 86.5492818L178.835359 3.17558011C179.225414 2.78331492 179.225414 2.14983425 178.835359 1.75756906"/>
    <path d="M26.0520442 110.969171C17.0783425 110.969171 9.89458564 103.165304 10.940663 93.9946961 11.6965746 87.3750276 16.8759116 81.880884 23.4550276 80.7869613 30.0243094 79.6930387 35.9912707 82.8433149 39.0711602 87.9256354 39.2516022 88.2253039 39.5710497 88.4153591 39.9220994 88.4153591L48.5007735 88.4153591C49.1883978 88.4153591 49.6907182 87.7307182 49.4518232 87.0875138 45.7135912 77.0349171 35.6742541 70.0424309 24.1280663 70.9072928 12.3110497 71.7917127 2.55469613 81.159779 1.25248619 92.9275138-.410497238 107.972376 11.3332597 120.704972 26.0520442 120.704972 36.7618785 120.704972 45.8940331 113.963425 49.4346961 104.498011 49.6809945 103.835359 49.2079558 103.123867 48.5007735 103.123867L39.9196685 103.123867C39.5685083 103.123867 39.2540331 103.313923 39.0711602 103.613591 36.4034254 108.016243 31.5678453 110.969171 26.0520442 110.969171M125.144862 92.9127072L125.144862 81.6028729C125.144862 80.7794475 125.810497 80.1142541 126.634696 80.1142541L133.296685 80.1142541C134.498895 80.1142541 135.657127 80.2044199 136.771492 80.3798895 137.883536 80.5601105 138.863757 80.9036464 139.712376 81.4153591 140.556133 81.9269613 141.236464 82.6506077 141.748508 83.5861878 142.260552 84.519337 142.519116 85.7447514 142.519116 87.2577901 142.519116 88.7708287 142.260552 89.9939227 141.748508 90.9295028 141.236464 91.8650829 140.556133 92.5886188 139.712376 93.0979006 138.863757 93.6119337 137.883536 93.9579006 136.771492 94.1333702 135.657127 94.3135912 134.498895 94.401326 133.296685 94.401326L126.634696 94.401326C125.810497 94.401326 125.144862 93.7338122 125.144862 92.9127072M148.900663 97.8049724C150.212486 96.3820994 151.170829 94.7472928 151.773149 92.8981215 152.37547 91.0537017 152.675359 89.1728177 152.675359 87.2577901 152.675359 85.298895 152.37547 83.4082873 151.773149 81.5834254 151.170829 79.7585635 150.212486 78.1334807 148.900663 76.7106077 147.583867 75.2853039 145.879337 74.1377901 143.787072 73.2703867 141.692376 72.4030939 139.153923 71.9693923 136.169282 71.9693923L116.144309 71.9693923C115.32011 71.9693923 114.654365 72.6344751 114.654365 73.458011L114.654365 118.14895C114.654365 118.970055 115.32011 119.637569 116.144309 119.637569L123.654917 119.637569C124.479116 119.637569 125.144862 118.970055 125.144862 118.14895L125.144862 104.034917C125.144862 103.211381 125.810497 102.546298 126.634696 102.546298L134.83779 102.546298C135.474254 102.546298 136.04 102.948287 136.247293 103.550055L141.436354 118.633812C141.643646 119.233149 142.209392 119.637569 142.845856 119.637569L150.527072 119.637569C151.565856 119.637569 152.287624 118.599669 151.921878 117.627624L145.915912 101.581436C145.679337 100.945525 145.88663 100.209724 146.454807 99.8418785 147.381436 99.2424309 148.198343 98.5651934 148.900663 97.8049724"/>
    <polygon points="75.404 140.042 75.404 141.972 69.888 141.972 69.888 144.209 74.948 144.209 74.948 145.992 69.888 145.992 69.888 148.55 75.521 148.55 75.521 150.48 67.591 150.48 67.591 140.042"/>
    <polygon points="82.279 140.042 86.639 147.045 86.671 147.045 86.671 140.042 88.822 140.042 88.822 150.48 86.522 150.48 82.177 143.492 82.147 143.492 82.147 150.48 79.997 150.48 79.997 140.042"/>
    <polygon points="92.947 141.972 92.947 140.042 101.507 140.042 101.507 141.972 98.375 141.972 98.375 150.48 96.078 150.48 96.078 141.972"/>
    <polygon points="113.443 140.042 113.443 141.972 107.928 141.972 107.928 144.209 112.987 144.209 112.987 145.992 107.928 145.992 107.928 148.55 113.561 148.55 113.561 150.48 105.63 150.48 105.63 140.042"/>
    <path d="M122.849945 144.764254C123.376685 144.764254 123.771713 144.647304 124.035028 144.413403 124.300884 144.179514 124.430055 143.799436 124.430055 143.273171 124.430055 142.766398 124.300884 142.398497 124.035028 142.169481 123.771713 141.940453 123.376685 141.825945 122.849945 141.825945L120.335801 141.825945 120.335801 144.764254 122.849945 144.764254zM123.669282 140.042497C124.137459 140.042497 124.559337 140.118033 124.934807 140.269083 125.310387 140.420144 125.634696 140.627238 125.900442 140.890365 126.168729 141.153503 126.373591 141.458055 126.515028 141.804022 126.658895 142.149989 126.727182 142.522762 126.727182 142.922331 126.727182 143.536298 126.597901 144.067436 126.341878 144.515735 126.080994 144.964033 125.659116 145.305127 125.073812 145.539028L125.073812 145.568265C125.356685 145.646232 125.590829 145.765613 125.776133 145.92642 125.961436 146.087215 126.112597 146.27726 126.232155 146.49653 126.349171 146.715812 126.434475 146.957017 126.485746 147.220144 126.541768 147.483282 126.575912 147.746409 126.59547 148.009536 126.605193 148.175215 126.615028 148.370133 126.624751 148.594276 126.634475 148.818431 126.654033 149.047448 126.675912 149.281348 126.700331 149.515238 126.741768 149.73695 126.793039 149.946486 126.849061 150.156011 126.927072 150.333867 127.034365 150.480055L124.737348 150.480055C124.612928 150.148707 124.532486 149.754 124.505635 149.295967 124.474033 148.837923 124.430055 148.39937 124.371602 147.980298 124.293481 147.434552 124.127735 147.034983 123.874144 146.781591 123.620552 146.52821 123.205967 146.401514 122.630497 146.401514L120.335801 146.401514 120.335801 150.480055 118.036354 150.480055 118.036354 140.042497 123.669282 140.042497zM135.609061 144.95453C135.872486 144.95453 136.126077 144.935039 136.369945 144.896055 136.613812 144.857072 136.828398 144.781547 137.013702 144.66947 137.199006 144.557403 137.347735 144.399039 137.45989 144.194376 137.572155 143.989713 137.628177 143.721713 137.628177 143.390365 137.628177 143.059017 137.572155 142.791006 137.45989 142.586354 137.347735 142.381691 137.199006 142.223326 137.013702 142.111249 136.828398 141.999171 136.613812 141.923646 136.369945 141.884663 136.126077 141.84568 135.872486 141.826188 135.609061 141.826188L133.82663 141.826188 133.82663 144.95453 135.609061 144.95453zM136.238232 140.04274C136.891713 140.04274 137.447735 140.137768 137.906188 140.327801 138.364641 140.517845 138.73768 140.768796 139.025414 141.080652 139.31558 141.392508 139.522873 141.748221 139.654586 142.147801 139.786298 142.54737 139.852044 142.961558 139.852044 143.390365 139.852044 143.809425 139.786298 144.221171 139.654586 144.625624 139.522873 145.030066 139.31558 145.38821 139.025414 145.700077 138.73768 146.011934 138.364641 146.262884 137.906188 146.452917 137.447735 146.642961 136.891713 146.737978 136.238232 146.737978L133.82663 146.737978 133.82663 150.480298 131.527072 150.480298 131.527072 140.04274 136.238232 140.04274zM149.025414 144.764254C149.552155 144.764254 149.947182 144.647304 150.210608 144.413403 150.476354 144.179514 150.605635 143.799436 150.605635 143.273171 150.605635 142.766398 150.476354 142.398497 150.210608 142.169481 149.947182 141.940453 149.552155 141.825945 149.025414 141.825945L146.511381 141.825945 146.511381 144.764254 149.025414 144.764254zM149.844751 140.042497C150.313039 140.042497 150.734807 140.118033 151.110387 140.269083 151.485856 140.420144 151.810276 140.627238 152.076022 140.890365 152.344199 141.153503 152.549061 141.458055 152.690497 141.804022 152.834365 142.149989 152.902652 142.522762 152.902652 142.922331 152.902652 143.536298 152.773481 144.067436 152.517348 144.515735 152.256464 144.964033 151.834586 145.305127 151.249392 145.539028L151.249392 145.568265C151.532265 145.646232 151.766298 145.765613 151.951602 145.92642 152.137017 146.087215 152.288177 146.27726 152.407624 146.49653 152.524751 146.715812 152.610055 146.957017 152.661215 147.220144 152.717348 147.483282 152.751492 147.746409 152.770939 148.009536 152.780773 148.175215 152.790497 148.370133 152.800221 148.594276 152.810055 148.818431 152.829503 149.047448 152.851492 149.281348 152.875801 149.515238 152.917348 149.73695 152.968508 149.946486 153.024641 150.156011 153.102652 150.333867 153.209945 150.480055L150.912818 150.480055C150.788508 150.148707 150.708066 149.754 150.681215 149.295967 150.649503 148.837923 150.605635 148.39937 150.547072 147.980298 150.469061 147.434552 150.303204 147.034983 150.049613 146.781591 149.796022 146.52821 149.381436 146.401514 148.805967 146.401514L146.511381 146.401514 146.511381 150.480055 144.211823 150.480055 144.211823 140.042497 149.844751 140.042497z"/>
    <polygon points="160.002 150.482 157.705 150.482 157.705 140.044 160.002 140.044"/>
    <path d="M166.699448,147.907215 C166.826519,148.150851 166.994475,148.348199 167.20442,148.49926 C167.414365,148.650309 167.662983,148.762387 167.943646,148.835481 C168.226519,148.908575 168.519337,148.945116 168.820994,148.945116 C169.026519,148.945116 169.245304,148.928066 169.481768,148.893956 C169.713812,148.859845 169.933702,148.794066 170.138122,148.696608 C170.342541,148.599149 170.513812,148.465149 170.649724,148.294597 C170.78674,148.124055 170.855249,147.907215 170.855249,147.644077 C170.855249,147.361459 170.764641,147.132431 170.58453,146.957017 C170.40663,146.781591 170.167956,146.635403 169.875138,146.518464 C169.58453,146.401514 169.250829,146.299182 168.882873,146.21147 C168.509392,146.123768 168.133702,146.026309 167.755801,145.919105 C167.363536,145.821646 166.98232,145.702265 166.612155,145.56095 C166.244199,145.419646 165.909392,145.236917 165.61989,145.012762 C165.327072,144.788619 165.088398,144.508431 164.910497,144.172199 C164.727072,143.835978 164.636464,143.429105 164.636464,142.951569 C164.636464,142.415558 164.751381,141.950199 164.981215,141.555503 C165.209945,141.160807 165.509392,140.83189 165.880663,140.568762 C166.250829,140.305635 166.670718,140.110718 167.141436,139.984022 C167.60663,139.857337 168.075138,139.793989 168.543646,139.793989 C169.089503,139.793989 169.614365,139.854895 170.116022,139.976718 C170.618785,140.098541 171.065193,140.29589 171.455249,140.568762 C171.845304,140.841635 172.154696,141.190044 172.38453,141.613978 C172.61326,142.037912 172.730387,142.552 172.730387,143.156221 L170.506077,143.156221 C170.483978,142.844365 170.418785,142.58611 170.306077,142.381448 C170.196685,142.176785 170.045304,142.015989 169.859669,141.899039 C169.675138,141.782088 169.462983,141.69926 169.223204,141.65053 C168.98453,141.601801 168.723757,141.577436 168.440884,141.577436 C168.255249,141.577436 168.070718,141.596928 167.885083,141.635912 C167.699448,141.674895 167.531492,141.743105 167.38011,141.840564 C167.228729,141.938022 167.104972,142.059845 167.00663,142.206022 C166.909392,142.35221 166.860773,142.537381 166.860773,142.761525 C166.860773,142.966188 166.899448,143.131856 166.977901,143.258552 C167.056354,143.385249 167.209945,143.502188 167.438674,143.609392 C167.668508,143.716597 167.98453,143.823801 168.390055,143.931006 C168.794475,144.038199 169.323757,144.174641 169.976796,144.34032 C170.172376,144.379304 170.443094,144.449956 170.78895,144.552287 C171.135912,144.654608 171.479558,144.817856 171.823204,145.042 C172.162431,145.266155 172.457459,145.565823 172.706077,145.941039 C172.954696,146.316243 173.079558,146.79621 173.079558,147.38095 C173.079558,147.858486 172.98674,148.301912 172.801105,148.711227 C172.61547,149.120541 172.340331,149.473823 171.974586,149.771061 C171.61105,150.068298 171.154696,150.299757 170.61326,150.465436 C170.071823,150.631116 169.445304,150.713945 168.733702,150.713945 C168.160221,150.713945 167.6,150.643293 167.058564,150.501978 C166.517127,150.360674 166.038674,150.138961 165.626519,149.83684 C165.209945,149.534729 164.880663,149.149779 164.636464,148.681989 C164.39337,148.214199 164.276243,147.658696 164.286188,147.015492 L166.509392,147.015492 C166.509392,147.366331 166.573481,147.663569 166.699448,147.907215"/>
    <polygon points="185.179 140.042 185.179 141.972 179.663 141.972 179.663 144.209 184.723 144.209 184.723 145.992 179.663 145.992 179.663 148.55 185.296 148.55 185.296 150.48 177.366 150.48 177.366 140.042"/>
    <path d="M71.9369061,170.966309 C72.2685083,170.966309 72.5903867,170.912707 72.9025414,170.805514 C73.2122652,170.698309 73.4925967,170.520453 73.7340331,170.271934 C73.9803315,170.023425 74.1754696,169.699381 74.321768,169.299812 C74.4680663,168.900243 74.5387845,168.412961 74.5387845,167.837967 C74.5387845,167.311702 74.4899448,166.836608 74.3875138,166.412674 C74.2851934,165.98874 74.1169061,165.625713 73.8827624,165.323602 C73.6487293,165.021492 73.3365746,164.790033 72.9537017,164.629227 C72.5683978,164.46842 72.0904972,164.388022 71.5271823,164.388022 L69.8885083,164.388022 L69.8885083,170.966309 L71.9369061,170.966309 Z M72.0953591,162.458387 C72.7708287,162.458387 73.3975691,162.565591 73.9779006,162.78 C74.5558011,162.994398 75.0581215,163.316 75.4848619,163.744807 C75.9091713,164.173613 76.2407735,164.709624 76.4773481,165.35284 C76.7187845,165.996044 76.838232,166.751337 76.838232,167.618696 C76.838232,168.378851 76.740663,169.08053 76.5456354,169.723746 C76.3506077,170.366961 76.0530387,170.922453 75.658011,171.390243 C75.2629834,171.858033 74.7728177,172.225934 74.1827624,172.493934 C73.5925967,172.761945 72.8976796,172.895945 72.0953591,172.895945 L67.5914917,172.895945 L67.5914917,162.458387 L72.0953591,162.458387 Z"/>
    <polygon points="89.17 162.458 89.17 164.388 83.655 164.388 83.655 166.624 88.714 166.624 88.714 168.408 83.655 168.408 83.655 170.966 89.288 170.966 89.288 172.895 81.357 172.895 81.357 162.458"/>
    <path d="M95.521547,170.322619 C95.6482873,170.566254 95.8165746,170.763602 96.0262983,170.914663 C96.2360221,171.065713 96.4847514,171.17779 96.7650829,171.250884 C97.0479558,171.323978 97.340663,171.360519 97.6429834,171.360519 C97.8478453,171.360519 98.0672928,171.34347 98.3038674,171.309359 C98.5354696,171.275249 98.7549171,171.20947 98.959779,171.112011 C99.1646409,171.014552 99.3353591,170.880552 99.4718232,170.71 C99.6083978,170.539459 99.6766851,170.322619 99.6766851,170.059481 C99.6766851,169.776862 99.5865193,169.547834 99.4059669,169.37242 C99.2280663,169.196994 98.9890608,169.050807 98.6964641,168.933867 C98.4061878,168.816917 98.0721547,168.714586 97.7039779,168.626873 C97.3308287,168.539171 96.9553591,168.441713 96.5773481,168.334508 C96.1847514,168.23705 95.8044199,168.117669 95.4337017,167.976354 C95.0655249,167.83505 94.7313812,167.65232 94.4412155,167.428166 C94.1486188,167.204022 93.9096133,166.923834 93.7316022,166.587602 C93.5487293,166.251381 93.4585635,165.844508 93.4585635,165.366972 C93.4585635,164.830961 93.5731492,164.365602 93.8023204,163.970906 C94.0316022,163.57621 94.3314917,163.247293 94.7022099,162.984166 C95.0728177,162.721039 95.4922652,162.526122 95.9628729,162.399425 C96.4286188,162.27274 96.8967956,162.209392 97.3649724,162.209392 C97.9112707,162.209392 98.4354696,162.270298 98.9377901,162.392122 C99.4401105,162.513945 99.8864088,162.711293 100.276575,162.984166 C100.66674,163.257039 100.976464,163.605448 101.205635,164.029381 C101.434807,164.453315 101.551934,164.967403 101.551934,165.571624 L99.3279558,165.571624 C99.3060773,165.259768 99.240221,165.001503 99.1280663,164.796851 C99.0183425,164.592188 98.8670718,164.431392 98.681768,164.314442 C98.4964641,164.197492 98.2843094,164.114652 98.0453039,164.065934 C97.8064088,164.017204 97.5454144,163.99284 97.2625414,163.99284 C97.0772376,163.99284 96.8919337,164.012331 96.7066298,164.051315 C96.521326,164.090298 96.3530387,164.158508 96.2018785,164.255967 C96.0506077,164.353425 95.9262983,164.475249 95.8287293,164.621425 C95.7311602,164.767613 95.6824309,164.952785 95.6824309,165.176928 C95.6824309,165.381591 95.7214365,165.54726 95.7994475,165.673956 C95.8775691,165.800652 96.0311602,165.917591 96.2603315,166.024796 C96.4896133,166.132 96.8066298,166.239204 97.2113812,166.346398 C97.6161326,166.453602 98.1453039,166.590044 98.7987845,166.755724 C98.9939227,166.794696 99.2646409,166.865359 99.6108287,166.967691 C99.9571271,167.070011 100.300994,167.233249 100.644751,167.457403 C100.983757,167.681547 101.278785,167.981227 101.527514,168.356431 C101.776243,168.731646 101.900552,169.211613 101.900552,169.796354 C101.900552,170.27389 101.807956,170.717315 101.622652,171.12663 C101.437238,171.535945 101.161768,171.889227 100.795912,172.186464 C100.432597,172.483702 99.9765746,172.71516 99.4352486,172.88084 C98.8939227,173.046508 98.2672928,173.129348 97.5552486,173.129348 C96.9822099,173.129348 96.421326,173.058696 95.88,172.917381 C95.3385635,172.776077 94.860663,172.554365 94.4486188,172.252243 C94.0316022,171.950133 93.7024309,171.565182 93.4585635,171.097392 C93.2146961,170.629602 93.0976796,170.074099 93.1074033,169.430895 L95.3312707,169.430895 C95.3312707,169.781735 95.3946961,170.078972 95.521547,170.322619"/>
    <polygon points="108.486 172.896 106.189 172.896 106.189 162.459 108.486 162.459"/>
    <path d="M119.618453,172.81505 C119.120994,173.024586 118.618674,173.129348 118.111492,173.129348 C117.311602,173.129348 116.592265,172.990475 115.95337,172.712729 C115.312044,172.434972 114.77558,172.054895 114.336685,171.565182 C113.89779,171.077901 113.561215,170.505348 113.327182,169.847514 C113.093039,169.189691 112.973591,168.480696 112.973591,167.72053 C112.973591,166.940884 113.093039,166.217271 113.327182,165.549702 C113.561215,164.882122 113.89779,164.299823 114.336685,163.802796 C114.77558,163.305768 115.312044,162.918387 115.95337,162.633326 C116.592265,162.350696 117.311602,162.209392 118.111492,162.209392 C118.647956,162.209392 119.164862,162.28979 119.669613,162.450597 C120.171934,162.611392 120.625525,162.847724 121.030387,163.159591 C121.435138,163.471448 121.769171,163.856398 122.032597,164.314442 C122.295912,164.772486 122.456906,165.298751 122.512928,165.893227 L120.320773,165.893227 C120.181768,165.308497 119.920773,164.869945 119.530718,164.577569 C119.140552,164.285204 118.664972,164.139017 118.111492,164.139017 C117.594475,164.139017 117.15558,164.238917 116.794696,164.438696 C116.431381,164.638486 116.141105,164.906486 115.914365,165.242707 C115.692486,165.578939 115.529061,165.961448 115.42663,166.390254 C115.324309,166.819061 115.273039,167.262486 115.273039,167.72053 C115.273039,168.159083 115.324309,168.585459 115.42663,168.999646 C115.529061,169.413834 115.692486,169.786608 115.914365,170.117956 C116.141105,170.449304 116.431381,170.714873 116.794696,170.914663 C117.15558,171.114442 117.594475,171.214343 118.111492,171.214343 C118.872265,171.214343 119.46,171.021867 119.872044,170.636906 C120.28663,170.251956 120.530497,169.694022 120.596243,168.963105 L118.287072,168.963105 L118.287072,167.25274 L122.676354,167.25274 L122.676354,172.895459 L121.21326,172.895459 L120.979116,171.711359 C120.569503,172.237624 120.115912,172.605525 119.618453,172.81505"/>
    <polygon points="129.741 162.458 134.101 169.46 134.133 169.46 134.133 162.458 136.284 162.458 136.284 172.895 133.984 172.895 129.639 165.908 129.61 165.908 129.61 172.895 127.459 172.895 127.459 162.458"/>
    <path d="M69.3459669,192.736796 C69.4728177,192.980442 69.6409945,193.17779 69.8507182,193.32884 C70.060442,193.479901 70.3091713,193.591978 70.5896133,193.665072 C70.8724862,193.738166 71.1650829,193.774707 71.4675138,193.774707 C71.6722652,193.774707 71.8918232,193.757646 72.1282873,193.723547 C72.36,193.689436 72.5794475,193.623646 72.7843094,193.526199 C72.9890608,193.42874 73.159779,193.29474 73.2963536,193.124188 C73.4329282,192.953635 73.5012155,192.736796 73.5012155,192.473669 C73.5012155,192.191039 73.4109392,191.962022 73.2304972,191.786597 C73.0524862,191.611182 72.8134807,191.464994 72.520884,191.348044 C72.2307182,191.231105 71.8966851,191.128773 71.5283978,191.041061 C71.1553591,190.953348 70.779779,190.85589 70.4018785,190.748696 C70.0092818,190.651238 69.6288398,190.531856 69.258232,190.390541 C68.8899448,190.249227 68.5559116,190.066497 68.2657459,189.842354 C67.9731492,189.618199 67.7341436,189.338011 67.5561326,189.00179 C67.3732597,188.665569 67.2829834,188.258685 67.2829834,187.781149 C67.2829834,187.245149 67.3976796,186.77979 67.6268508,186.385094 C67.8560221,185.990398 68.1560221,185.661481 68.5266298,185.398354 C68.8973481,185.135215 69.3166851,184.940309 69.7874033,184.813613 C70.2531492,184.686917 70.721326,184.623569 71.1895028,184.623569 C71.7356906,184.623569 72.26,184.684486 72.7623204,184.806309 C73.2646409,184.928122 73.7109392,185.12547 74.1009945,185.398354 C74.4911602,185.671227 74.800884,186.019635 75.0300552,186.443569 C75.259337,186.867503 75.3763536,187.38158 75.3763536,187.985812 L73.1524862,187.985812 C73.1304972,187.673956 73.0646409,187.415691 72.9524862,187.211039 C72.8427624,187.006376 72.6916022,186.845569 72.5062983,186.72863 C72.3209945,186.61168 72.1088398,186.52884 71.8698343,186.48011 C71.6308287,186.431381 71.3699448,186.407017 71.0870718,186.407017 C70.901768,186.407017 70.7164641,186.426508 70.5310497,186.465492 C70.3457459,186.504475 70.1774586,186.572696 70.0262983,186.670155 C69.8751381,186.767613 69.7507182,186.889425 69.6532597,187.035613 C69.5556906,187.181801 69.5069613,187.366961 69.5069613,187.591116 C69.5069613,187.795768 69.5459669,187.961448 69.6239779,188.088144 C69.701989,188.214829 69.8555801,188.331779 70.0848619,188.438983 C70.3140331,188.546188 70.6310497,188.653381 71.0359116,188.760586 C71.440663,188.86779 71.9698343,189.004232 72.6233149,189.169901 C72.8183425,189.208884 73.0890608,189.279547 73.4353591,189.381867 C73.781547,189.484199 74.1254144,189.647436 74.4692818,189.871591 C74.8081768,190.095735 75.1033149,190.395414 75.3520442,190.770619 C75.600663,191.145823 75.7250829,191.625801 75.7250829,192.21053 C75.7250829,192.688066 75.6323757,193.131492 75.4470718,193.540807 C75.261768,193.950133 74.9861878,194.303403 74.620442,194.600652 C74.2571271,194.89789 73.801105,195.129348 73.259779,195.295028 C72.718453,195.460696 72.0917127,195.543536 71.3796685,195.543536 C70.8066298,195.543536 70.2457459,195.472884 69.7044199,195.331569 C69.1630939,195.190254 68.6851934,194.968541 68.2730387,194.666431 C67.8560221,194.36432 67.5268508,193.979359 67.2829834,193.51158 C67.039116,193.04379 66.9220994,192.488287 66.9318232,191.845072 L69.1558011,191.845072 C69.1558011,192.195912 69.2192265,192.49316 69.3459669,192.736796"/>
    <polygon points="78.886 184.872 81.461 184.872 83.904 188.994 86.333 184.872 88.893 184.872 85.016 191.304 85.016 195.31 82.719 195.31 82.719 191.246"/>
    <path d="M94.4524862,192.736796 C94.5792265,192.980442 94.7475138,193.17779 94.9572376,193.32884 C95.1669613,193.479901 95.4156906,193.591978 95.6961326,193.665072 C95.9790055,193.738166 96.2716022,193.774707 96.5739227,193.774707 C96.7787845,193.774707 96.998232,193.757646 97.2348066,193.723547 C97.4664088,193.689436 97.6858564,193.623646 97.8907182,193.526199 C98.0955801,193.42874 98.2662983,193.29474 98.4028729,193.124188 C98.539337,192.953635 98.6076243,192.736796 98.6076243,192.473669 C98.6076243,192.191039 98.5174586,191.962022 98.3370166,191.786597 C98.1590055,191.611182 97.92,191.464994 97.6274033,191.348044 C97.3372376,191.231105 97.0030939,191.128773 96.6349171,191.041061 C96.2618785,190.953348 95.8862983,190.85589 95.5082873,190.748696 C95.1156906,190.651238 94.7353591,190.531856 94.3646409,190.390541 C93.9964641,190.249227 93.6624309,190.066497 93.3722652,189.842354 C93.079558,189.618199 92.840663,189.338011 92.6626519,189.00179 C92.479779,188.665569 92.3895028,188.258685 92.3895028,187.781149 C92.3895028,187.245149 92.5040884,186.77979 92.7333702,186.385094 C92.9625414,185.990398 93.2624309,185.661481 93.6331492,185.398354 C94.0037569,185.135215 94.4232044,184.940309 94.8938122,184.813613 C95.359558,184.686917 95.8277348,184.623569 96.2960221,184.623569 C96.8422099,184.623569 97.3665193,184.684486 97.8688398,184.806309 C98.3711602,184.928122 98.8173481,185.12547 99.2075138,185.398354 C99.5976796,185.671227 99.9074033,186.019635 100.136575,186.443569 C100.365856,186.867503 100.482873,187.38158 100.482873,187.985812 L98.2590055,187.985812 C98.2370166,187.673956 98.1711602,187.415691 98.0590055,187.211039 C97.9492818,187.006376 97.7981215,186.845569 97.6127072,186.72863 C97.4274033,186.61168 97.2152486,186.52884 96.9763536,186.48011 C96.7373481,186.431381 96.4764641,186.407017 96.1935912,186.407017 C96.0081768,186.407017 95.8228729,186.426508 95.6375691,186.465492 C95.4522652,186.504475 95.2839779,186.572696 95.1328177,186.670155 C94.9816575,186.767613 94.8572376,186.889425 94.7596685,187.035613 C94.6622099,187.181801 94.6133702,187.366961 94.6133702,187.591116 C94.6133702,187.795768 94.6523757,187.961448 94.7304972,188.088144 C94.8085083,188.214829 94.9620994,188.331779 95.1913812,188.438983 C95.4205525,188.546188 95.7375691,188.653381 96.1423204,188.760586 C96.5471823,188.86779 97.0762431,189.004232 97.7298343,189.169901 C97.9248619,189.208884 98.1955801,189.279547 98.541768,189.381867 C98.8880663,189.484199 99.2319337,189.647436 99.5756906,189.871591 C99.9146961,190.095735 100.209724,190.395414 100.458453,190.770619 C100.707182,191.145823 100.831602,191.625801 100.831602,192.21053 C100.831602,192.688066 100.738895,193.131492 100.553591,193.540807 C100.368287,193.950133 100.092707,194.303403 99.7269613,194.600652 C99.3636464,194.89789 98.9076243,195.129348 98.3662983,195.295028 C97.8248619,195.460696 97.198232,195.543536 96.4861878,195.543536 C95.9131492,195.543536 95.3522652,195.472884 94.8109392,195.331569 C94.2696133,195.190254 93.7916022,194.968541 93.379558,194.666431 C92.9625414,194.36432 92.6333702,193.979359 92.3895028,193.51158 C92.1456354,193.04379 92.0286188,192.488287 92.0383425,191.845072 L94.2622099,191.845072 C94.2622099,192.195912 94.3256354,192.49316 94.4524862,192.736796"/>
    <polygon points="104.299 186.802 104.299 184.872 112.858 184.872 112.858 186.802 109.727 186.802 109.727 195.31 107.43 195.31 107.43 186.802"/>
    <polygon points="124.798 184.872 124.798 186.802 119.282 186.802 119.282 189.038 124.342 189.038 124.342 190.822 119.282 190.822 119.282 193.38 124.915 193.38 124.915 195.31 116.985 195.31 116.985 184.872"/>
    <polygon points="132.625 184.872 135.069 192.05 135.098 192.05 137.41 184.872 140.643 184.872 140.643 195.31 138.492 195.31 138.492 187.913 138.463 187.913 135.902 195.31 134.132 195.31 131.569 187.986 131.542 187.986 131.542 195.31 129.392 195.31 129.392 184.872"/>
    <polygon points="7.824 40.747 7.824 50.673 13.764 50.673 13.764 52.924 5.144 52.924 5.144 40.747"/>
    <polygon points="19.652 52.925 16.972 52.925 16.972 40.748 19.652 40.748"/>
    <polygon points="32.285 40.747 32.285 42.998 26.396 42.998 26.396 45.812 31.5 45.812 31.5 47.893 26.396 47.893 26.396 52.924 23.716 52.924 23.716 40.747"/>
    <polygon points="44.658 40.747 44.658 42.998 38.223 42.998 38.223 45.608 44.129 45.608 44.129 47.688 38.223 47.688 38.223 50.673 44.797 50.673 44.797 52.924 35.546 52.924 35.546 40.747"/>
    <polygon points="51.793 42.998 51.793 40.747 61.779 40.747 61.779 42.998 58.128 42.998 58.128 52.924 55.446 52.924 55.446 42.998"/>
    <polygon points="67.566 52.925 64.886 52.925 64.886 40.748 67.566 40.748"/>
    <polygon points="75.402 40.747 78.252 49.121 78.287 49.121 80.983 40.747 84.756 40.747 84.756 52.924 82.247 52.924 82.247 44.294 82.212 44.294 79.223 52.924 77.16 52.924 74.173 44.38 74.136 44.38 74.136 52.924 71.629 52.924 71.629 40.747"/>
    <polygon points="97.931 40.747 97.931 42.998 91.496 42.998 91.496 45.608 97.402 45.608 97.402 47.688 91.496 47.688 91.496 50.673 98.07 50.673 98.07 52.924 88.819 52.924 88.819 40.747"/>
  </g>
</svg>
