<svg xmlns="http://www.w3.org/2000/svg" width="104" height="104" viewBox="0 0 104 104">
  <g fill="none" fill-rule="evenodd">
    <path fill="#FFFFFF" d="M98.1632653,52 C98.1632653,26.5047326 77.4952674,5.83673469 52,5.83673469 C26.5047326,5.83673469 5.83673469,26.5047326 5.83673469,52 C5.83673469,77.4952674 26.5047326,98.1632653 52,98.1632653 C77.4952674,98.1632653 98.1632653,77.4952674 98.1632653,52 Z M0,52 C0,23.281193 23.281193,0 52,0 C80.718807,0 104,23.281193 104,52 C104,80.718807 80.718807,104 52,104 C23.281193,104 0,80.718807 0,52 Z"/>
    <circle cx="52" cy="52" r="28" fill="#ABABAB"/>
    <circle cx="92" cy="22" r="12" fill="#ABABAB"/>
  </g>
</svg>
