<svg xmlns="http://www.w3.org/2000/svg" width="600" height="574" viewBox="0 0 600 574" version="1.1"><title>style-guide-process</title><desc>Style Guide Process Graphic</desc><g stroke="none" stroke-width="1" fill="none" fill-rule="evenodd"><g transform="translate(-95.000000, -108.000000)"><g transform="translate(95.000000, 108.727273)"><path d="M218.2 161.14C267.48 228.97 304.32 303.02 262.48 377.7M234.76 149.1C284.04 216.93 343.08 274.85 427.04 258.13" stroke="#CCCCCC" stroke-width="2" stroke-dasharray="2"/><path d="M300 463.09L102.44 319.55 177.9 87.31 422.1 87.31 497.56 319.55 300 463.09 300 463.09Z" stroke="#CCCCCC" stroke-width="2" stroke-dasharray="2"/><path d="M230.64 358.79L369.36 358.79 412.23 490.72 300 572.25 187.77 490.72 230.64 358.79ZM417.9 220.9L556.62 220.9 599.49 352.83 487.26 434.37 375.04 352.83 417.9 220.9ZM43.38 220.9L182.1 220.9 224.96 352.83 112.74 434.37 0.51 352.83 43.38 220.9ZM114.57 0.29L253.29 0.29 296.16 132.22 183.93 213.76 71.7 132.22 114.57 0.29ZM347.37 0.29L486.09 0.29 528.95 132.22 416.73 213.76 304.5 132.22 347.37 0.29Z" stroke="#CCCCCC" fill="#FFFFFF"/><path d="M119.07 95.69L115.2 95.69C115.18 96.81 115.39 97.78 115.81 98.6 116.24 99.41 116.81 100.08 117.53 100.61 118.25 101.13 119.08 101.52 120.03 101.77 120.97 102.01 121.94 102.13 122.94 102.13 124.18 102.13 125.27 101.99 126.21 101.7 127.15 101.41 127.94 101.01 128.58 100.49 129.21 99.98 129.69 99.36 130.02 98.65 130.34 97.93 130.5 97.16 130.5 96.33 130.5 95.31 130.28 94.48 129.85 93.82 129.42 93.17 128.9 92.65 128.31 92.26 127.72 91.87 127.12 91.58 126.52 91.41 125.91 91.23 125.44 91.1 125.1 91.04 123.97 90.75 123.05 90.51 122.34 90.32 121.64 90.14 121.09 89.95 120.69 89.76 120.29 89.58 120.02 89.37 119.89 89.15 119.75 88.93 119.68 88.64 119.68 88.29 119.68 87.9 119.77 87.57 119.94 87.32 120.11 87.07 120.32 86.85 120.59 86.68 120.85 86.51 121.14 86.4 121.46 86.33 121.79 86.26 122.11 86.23 122.43 86.23 122.92 86.23 123.38 86.27 123.79 86.35 124.21 86.44 124.58 86.58 124.9 86.79 125.22 86.99 125.48 87.27 125.68 87.63 125.87 87.98 125.99 88.43 126.02 88.97L129.89 88.97C129.89 87.92 129.69 87.03 129.29 86.29 128.89 85.55 128.35 84.94 127.67 84.47 127 83.99 126.22 83.65 125.35 83.44 124.47 83.23 123.56 83.12 122.61 83.12 121.79 83.12 120.98 83.23 120.17 83.45 119.35 83.67 118.62 84.01 117.98 84.47 117.33 84.93 116.81 85.5 116.41 86.19 116.01 86.87 115.81 87.68 115.81 88.62 115.81 89.45 115.97 90.16 116.28 90.74 116.6 91.33 117.01 91.82 117.52 92.21 118.03 92.6 118.6 92.92 119.25 93.16 119.89 93.41 120.56 93.62 121.23 93.79 121.9 93.97 122.55 94.14 123.19 94.29 123.84 94.45 124.42 94.63 124.93 94.83 125.43 95.03 125.85 95.29 126.16 95.59 126.47 95.9 126.63 96.3 126.63 96.79 126.63 97.25 126.51 97.62 126.27 97.92 126.04 98.22 125.74 98.45 125.38 98.62 125.03 98.79 124.65 98.91 124.24 98.97 123.83 99.02 123.45 99.05 123.09 99.05 122.57 99.05 122.06 98.99 121.57 98.86 121.07 98.74 120.64 98.54 120.28 98.28 119.92 98.02 119.62 97.67 119.4 97.25 119.18 96.82 119.07 96.31 119.07 95.69L119.07 95.69ZM137.07 88.57L137.07 84.62 133.45 84.62 133.45 88.57 131.26 88.57 131.26 90.99 133.45 90.99 133.45 98.75C133.45 99.41 133.56 99.95 133.78 100.35 134 100.76 134.31 101.07 134.69 101.29 135.07 101.52 135.51 101.66 136.01 101.74 136.51 101.82 137.04 101.85 137.6 101.85 137.96 101.85 138.32 101.85 138.7 101.83 139.07 101.81 139.41 101.78 139.71 101.73L139.71 98.93C139.54 98.96 139.37 98.99 139.18 99 138.99 99.02 138.8 99.03 138.59 99.03 137.98 99.03 137.58 98.93 137.37 98.72 137.17 98.52 137.07 98.11 137.07 97.5L137.07 90.99 139.71 90.99 139.71 88.57 137.07 88.57ZM147.94 103.36L153.43 88.57 149.69 88.57 146.82 97.58 146.77 97.58 143.79 88.57 139.94 88.57 144.55 100.91C144.65 101.17 144.7 101.44 144.7 101.73 144.7 102.12 144.59 102.47 144.36 102.8 144.13 103.12 143.78 103.31 143.3 103.36 142.95 103.37 142.59 103.36 142.23 103.33 141.88 103.3 141.53 103.26 141.19 103.23L141.19 106.21C141.56 106.24 141.93 106.27 142.3 106.3 142.66 106.32 143.03 106.33 143.41 106.33 144.64 106.33 145.61 106.11 146.31 105.65 147 105.19 147.55 104.43 147.94 103.36L147.94 103.36ZM154.76 83.55L154.76 101.73 158.37 101.73 158.37 83.55 154.76 83.55ZM170.08 93.73L164.2 93.73C164.22 93.48 164.27 93.19 164.37 92.87 164.46 92.55 164.62 92.24 164.85 91.95 165.08 91.66 165.39 91.42 165.77 91.23 166.15 91.03 166.63 90.93 167.21 90.93 168.09 90.93 168.75 91.17 169.18 91.65 169.61 92.12 169.91 92.82 170.08 93.73L170.08 93.73ZM164.2 96.03L173.7 96.03C173.76 95.01 173.68 94.03 173.44 93.1 173.2 92.16 172.82 91.33 172.28 90.6 171.75 89.87 171.07 89.29 170.23 88.86 169.4 88.43 168.43 88.21 167.31 88.21 166.31 88.21 165.39 88.39 164.57 88.75 163.75 89.1 163.04 89.59 162.45 90.21 161.85 90.83 161.39 91.56 161.07 92.41 160.75 93.26 160.59 94.18 160.59 95.16 160.59 96.18 160.74 97.11 161.06 97.96 161.37 98.81 161.82 99.54 162.39 100.15 162.97 100.76 163.68 101.23 164.51 101.56 165.34 101.89 166.27 102.06 167.31 102.06 168.8 102.06 170.07 101.72 171.13 101.04 172.18 100.36 172.96 99.23 173.47 97.65L170.29 97.65C170.17 98.06 169.84 98.45 169.32 98.81 168.79 99.18 168.16 99.36 167.43 99.36 166.42 99.36 165.64 99.1 165.09 98.57 164.55 98.04 164.25 97.2 164.2 96.03L164.2 96.03ZM196.43 99.67L196.83 101.73 199.38 101.73 199.38 91.9 191.74 91.9 191.74 94.88 195.77 94.88C195.65 96.15 195.23 97.12 194.51 97.79 193.78 98.46 192.76 98.8 191.44 98.8 190.54 98.8 189.78 98.63 189.15 98.28 188.52 97.93 188.01 97.47 187.62 96.89 187.23 96.31 186.95 95.66 186.77 94.94 186.59 94.22 186.5 93.48 186.5 92.72 186.5 91.92 186.59 91.15 186.77 90.4 186.95 89.65 187.23 88.99 187.62 88.4 188.01 87.82 188.52 87.35 189.15 87 189.78 86.65 190.54 86.48 191.44 86.48 192.41 86.48 193.23 86.73 193.91 87.24 194.59 87.75 195.04 88.52 195.28 89.53L199.1 89.53C199 88.5 198.72 87.58 198.26 86.79 197.8 85.99 197.22 85.32 196.52 84.77 195.81 84.23 195.02 83.82 194.15 83.54 193.28 83.26 192.37 83.12 191.44 83.12 190.05 83.12 188.8 83.37 187.68 83.86 186.57 84.35 185.63 85.03 184.87 85.89 184.11 86.76 183.52 87.77 183.11 88.94 182.71 90.1 182.5 91.36 182.5 92.72 182.5 94.04 182.71 95.27 183.11 96.42 183.52 97.57 184.11 98.56 184.87 99.41 185.63 100.26 186.57 100.93 187.68 101.41 188.8 101.89 190.05 102.13 191.44 102.13 192.32 102.13 193.19 101.95 194.06 101.59 194.93 101.22 195.71 100.58 196.43 99.67L196.43 99.67ZM214.58 101.73L214.58 88.57 210.96 88.57 210.96 95.47C210.96 96.81 210.74 97.77 210.3 98.35 209.86 98.94 209.15 99.23 208.16 99.23 207.3 99.23 206.69 98.97 206.35 98.43 206.02 97.9 205.85 97.09 205.85 96L205.85 88.57 202.23 88.57 202.23 96.66C202.23 97.48 202.3 98.22 202.45 98.89 202.59 99.56 202.84 100.13 203.2 100.59 203.55 101.06 204.04 101.42 204.66 101.68 205.28 101.93 206.07 102.06 207.04 102.06 207.81 102.06 208.55 101.89 209.28 101.55 210.01 101.21 210.61 100.66 211.06 99.89L211.14 99.89 211.14 101.73 214.58 101.73ZM221.04 86.53L221.04 83.55 217.43 83.55 217.43 86.53 221.04 86.53ZM217.43 88.57L217.43 101.73 221.04 101.73 221.04 88.57 217.43 88.57ZM233.23 95.11C233.23 95.65 233.18 96.18 233.08 96.69 232.98 97.2 232.81 97.65 232.57 98.05 232.34 98.45 232.02 98.77 231.62 99 231.22 99.24 230.72 99.36 230.13 99.36 229.57 99.36 229.09 99.24 228.69 98.99 228.29 98.74 227.96 98.42 227.7 98.02 227.44 97.62 227.24 97.17 227.13 96.66 227.01 96.15 226.95 95.64 226.95 95.13 226.95 94.59 227 94.07 227.11 93.57 227.22 93.07 227.4 92.62 227.65 92.23 227.89 91.84 228.22 91.53 228.63 91.29 229.03 91.05 229.54 90.93 230.13 90.93 230.72 90.93 231.22 91.05 231.61 91.29 232 91.53 232.31 91.84 232.56 92.22 232.81 92.6 232.98 93.04 233.08 93.54 233.18 94.04 233.23 94.57 233.23 95.11L233.23 95.11ZM233.29 100.05L233.29 101.73 236.72 101.73 236.72 83.55 233.11 83.55 233.11 90.17 233.06 90.17C232.65 89.53 232.09 89.04 231.39 88.71 230.68 88.38 229.94 88.21 229.16 88.21 228.19 88.21 227.35 88.4 226.62 88.78 225.89 89.17 225.28 89.67 224.8 90.3 224.31 90.93 223.95 91.65 223.7 92.47 223.46 93.3 223.33 94.15 223.33 95.03 223.33 95.95 223.46 96.83 223.7 97.68 223.95 98.53 224.31 99.28 224.8 99.93 225.28 100.59 225.9 101.1 226.64 101.49 227.39 101.87 228.25 102.06 229.24 102.06 230.1 102.06 230.88 101.9 231.57 101.59 232.25 101.27 232.81 100.76 233.23 100.05L233.29 100.05ZM248.3 93.73L242.42 93.73C242.44 93.48 242.5 93.19 242.59 92.87 242.68 92.55 242.84 92.24 243.07 91.95 243.3 91.66 243.61 91.42 243.99 91.23 244.37 91.03 244.85 90.93 245.43 90.93 246.31 90.93 246.97 91.17 247.4 91.65 247.83 92.12 248.13 92.82 248.3 93.73L248.3 93.73ZM242.42 96.03L251.92 96.03C251.99 95.01 251.9 94.03 251.66 93.1 251.43 92.16 251.04 91.33 250.51 90.6 249.97 89.87 249.29 89.29 248.46 88.86 247.62 88.43 246.65 88.21 245.53 88.21 244.53 88.21 243.62 88.39 242.79 88.75 241.97 89.1 241.26 89.59 240.67 90.21 240.07 90.83 239.62 91.56 239.29 92.41 238.97 93.26 238.81 94.18 238.81 95.16 238.81 96.18 238.97 97.11 239.28 97.96 239.59 98.81 240.04 99.54 240.62 100.15 241.19 100.76 241.9 101.23 242.73 101.56 243.56 101.89 244.49 102.06 245.53 102.06 247.02 102.06 248.3 101.72 249.35 101.04 250.4 100.36 251.18 99.23 251.69 97.65L248.51 97.65C248.39 98.06 248.07 98.45 247.54 98.81 247.01 99.18 246.39 99.36 245.66 99.36 244.64 99.36 243.86 99.1 243.31 98.57 242.77 98.04 242.47 97.2 242.42 96.03L242.42 96.03Z" fill="#444444"/><path d="M111.99 320.31L111.99 309.01 107.99 309.01 107.99 320.31C107.99 321.67 107.72 322.66 107.18 323.3 106.64 323.94 105.65 324.25 104.23 324.25 103.41 324.25 102.76 324.14 102.28 323.91 101.79 323.68 101.42 323.38 101.15 323.02 100.87 322.66 100.7 322.24 100.61 321.76 100.53 321.28 100.48 320.8 100.48 320.31L100.48 309.01 96.49 309.01 96.49 320.31C96.49 322.79 97.16 324.62 98.51 325.81 99.86 327 101.76 327.59 104.23 327.59 106.65 327.59 108.55 326.99 109.93 325.79 111.3 324.6 111.99 322.77 111.99 320.31L111.99 320.31ZM119.88 317.66L113.54 327.18 118.02 327.18 122.07 320.89 126.04 327.18 130.8 327.18 124.46 317.69 130.29 309.01 125.91 309.01 122.22 314.81 118.66 309.01 114.03 309.01 119.88 317.66Z" fill="#FF5C36"/><path d="M379.03 98.37L379.03 86.91 381.88 86.91C382.86 86.91 383.69 87.05 384.36 87.33 385.03 87.61 385.57 88.02 385.98 88.54 386.39 89.07 386.68 89.7 386.86 90.44 387.03 91.18 387.12 92 387.12 92.92 387.12 93.92 387 94.77 386.74 95.47 386.49 96.16 386.15 96.73 385.72 97.16 385.3 97.59 384.82 97.9 384.27 98.09 383.73 98.27 383.17 98.37 382.59 98.37L379.03 98.37ZM375.03 83.55L375.03 101.73 382.87 101.73C384.26 101.73 385.47 101.49 386.5 101.03 387.53 100.56 388.38 99.92 389.07 99.11 389.76 98.29 390.27 97.32 390.61 96.2 390.95 95.08 391.12 93.86 391.12 92.54 391.12 91.03 390.91 89.71 390.5 88.59 390.08 87.47 389.5 86.54 388.77 85.79 388.03 85.05 387.15 84.49 386.14 84.11 385.13 83.74 384.04 83.55 382.87 83.55L375.03 83.55ZM402.37 93.73L396.49 93.73C396.51 93.48 396.56 93.19 396.66 92.87 396.75 92.55 396.91 92.24 397.14 91.95 397.37 91.66 397.67 91.42 398.06 91.23 398.44 91.03 398.92 90.93 399.49 90.93 400.38 90.93 401.03 91.17 401.47 91.65 401.9 92.12 402.2 92.82 402.37 93.73L402.37 93.73ZM396.49 96.03L405.99 96.03C406.05 95.01 405.97 94.03 405.73 93.1 405.49 92.16 405.11 91.33 404.57 90.6 404.04 89.87 403.36 89.29 402.52 88.86 401.69 88.43 400.72 88.21 399.6 88.21 398.6 88.21 397.68 88.39 396.86 88.75 396.04 89.1 395.33 89.59 394.73 90.21 394.14 90.83 393.68 91.56 393.36 92.41 393.04 93.26 392.88 94.18 392.88 95.16 392.88 96.18 393.03 97.11 393.35 97.96 393.66 98.81 394.11 99.54 394.68 100.15 395.26 100.76 395.96 101.23 396.8 101.56 397.63 101.89 398.56 102.06 399.6 102.06 401.09 102.06 402.36 101.72 403.41 101.04 404.47 100.36 405.25 99.23 405.76 97.65L402.57 97.65C402.46 98.06 402.13 98.45 401.61 98.81 401.08 99.18 400.45 99.36 399.72 99.36 398.71 99.36 397.92 99.1 397.38 98.57 396.84 98.04 396.54 97.2 396.49 96.03L396.49 96.03ZM410.92 97.45L407.49 97.45C407.52 98.33 407.72 99.07 408.09 99.65 408.45 100.24 408.92 100.71 409.49 101.07 410.05 101.42 410.7 101.68 411.43 101.83 412.16 101.98 412.91 102.06 413.67 102.06 414.42 102.06 415.15 101.99 415.87 101.84 416.6 101.7 417.24 101.45 417.8 101.09 418.36 100.73 418.81 100.26 419.16 99.68 419.51 99.09 419.68 98.37 419.68 97.5 419.68 96.89 419.56 96.38 419.32 95.96 419.09 95.55 418.77 95.2 418.38 94.92 417.99 94.64 417.55 94.41 417.05 94.24 416.54 94.07 416.03 93.93 415.51 93.81 415 93.69 414.5 93.58 414 93.48 413.51 93.38 413.07 93.26 412.69 93.14 412.31 93.01 412 92.84 411.76 92.64 411.53 92.44 411.41 92.17 411.41 91.85 411.41 91.58 411.48 91.36 411.61 91.2 411.75 91.04 411.91 90.92 412.11 90.83 412.3 90.75 412.52 90.69 412.76 90.67 412.99 90.64 413.21 90.63 413.42 90.63 414.06 90.63 414.62 90.75 415.1 91 415.57 91.24 415.84 91.72 415.89 92.41L419.32 92.41C419.26 91.6 419.05 90.92 418.7 90.39 418.35 89.85 417.92 89.42 417.39 89.1 416.86 88.78 416.26 88.55 415.59 88.41 414.92 88.28 414.23 88.21 413.52 88.21 412.81 88.21 412.11 88.27 411.43 88.4 410.75 88.53 410.14 88.75 409.6 89.06 409.06 89.38 408.62 89.81 408.29 90.35 407.96 90.89 407.79 91.59 407.79 92.44 407.79 93.01 407.91 93.5 408.15 93.9 408.39 94.3 408.7 94.63 409.09 94.89 409.48 95.16 409.93 95.37 410.43 95.53 410.93 95.69 411.44 95.83 411.97 95.95 413.26 96.22 414.26 96.49 414.98 96.76 415.7 97.04 416.07 97.44 416.07 97.99 416.07 98.31 415.99 98.58 415.84 98.79 415.68 99 415.49 99.17 415.26 99.3 415.03 99.42 414.78 99.52 414.5 99.58 414.22 99.64 413.95 99.67 413.7 99.67 413.34 99.67 413 99.62 412.67 99.54 412.34 99.45 412.04 99.32 411.79 99.14 411.53 98.97 411.33 98.74 411.17 98.46 411 98.18 410.92 97.84 410.92 97.45L410.92 97.45ZM425.51 86.53L425.51 83.55 421.89 83.55 421.89 86.53 425.51 86.53ZM421.89 88.57L421.89 101.73 425.51 101.73 425.51 88.57 421.89 88.57ZM434.49 98.62C433.93 98.62 433.47 98.5 433.09 98.27 432.72 98.03 432.42 97.72 432.19 97.35 431.96 96.98 431.8 96.56 431.71 96.09 431.61 95.62 431.57 95.15 431.57 94.68 431.57 94.18 431.62 93.71 431.73 93.26 431.84 92.81 432.02 92.42 432.27 92.07 432.51 91.72 432.82 91.44 433.18 91.24 433.55 91.04 433.99 90.93 434.49 90.93 435.09 90.93 435.58 91.04 435.97 91.27 436.36 91.49 436.68 91.78 436.91 92.16 437.15 92.53 437.32 92.96 437.42 93.44 437.52 93.93 437.57 94.44 437.57 94.98 437.57 95.46 437.51 95.91 437.38 96.34 437.26 96.78 437.07 97.16 436.81 97.5 436.56 97.84 436.23 98.11 435.84 98.32 435.45 98.52 435 98.62 434.49 98.62L434.49 98.62ZM441.01 100.89L441.01 88.57 437.57 88.57 437.57 90.32 437.52 90.32C437.08 89.56 436.54 89.02 435.88 88.69 435.23 88.37 434.47 88.21 433.6 88.21 432.69 88.21 431.88 88.39 431.17 88.75 430.47 89.1 429.88 89.58 429.4 90.18 428.93 90.79 428.57 91.48 428.32 92.27 428.08 93.06 427.95 93.88 427.95 94.73 427.95 95.63 428.06 96.48 428.27 97.29 428.48 98.09 428.82 98.8 429.28 99.4 429.73 100 430.32 100.48 431.03 100.82 431.75 101.17 432.59 101.35 433.58 101.35 434.38 101.35 435.14 101.18 435.86 100.85 436.58 100.52 437.13 100 437.52 99.31L437.57 99.31 437.57 101.04C437.59 101.97 437.37 102.75 436.9 103.36 436.43 103.97 435.69 104.27 434.67 104.27 434.03 104.27 433.46 104.14 432.97 103.88 432.48 103.62 432.14 103.14 431.97 102.47L428.39 102.47C428.44 103.21 428.64 103.85 429.01 104.39 429.37 104.92 429.83 105.36 430.38 105.7 430.94 106.04 431.55 106.29 432.22 106.45 432.89 106.61 433.54 106.69 434.19 106.69 435.7 106.69 436.9 106.49 437.8 106.08 438.7 105.67 439.39 105.18 439.87 104.59 440.34 104.01 440.65 103.37 440.79 102.69 440.94 102.02 441.01 101.41 441.01 100.89L441.01 100.89ZM443.91 88.57L443.91 101.73 447.53 101.73 447.53 94.83C447.53 93.49 447.75 92.53 448.19 91.94 448.63 91.35 449.34 91.06 450.33 91.06 451.19 91.06 451.8 91.33 452.13 91.86 452.47 92.4 452.64 93.21 452.64 94.29L452.64 101.73 456.26 101.73 456.26 93.63C456.26 92.82 456.19 92.08 456.04 91.41 455.9 90.74 455.65 90.17 455.29 89.7 454.93 89.23 454.45 88.87 453.83 88.61 453.21 88.34 452.41 88.21 451.45 88.21 450.68 88.21 449.94 88.38 449.21 88.73 448.48 89.08 447.88 89.64 447.43 90.4L447.35 90.4 447.35 88.57 443.91 88.57Z" fill="#00BFD7"/><path d="M469.67 323.82L469.67 312.37 472.52 312.37C473.51 312.37 474.33 312.51 475 312.79 475.67 313.07 476.21 313.47 476.62 314 477.03 314.52 477.32 315.15 477.5 315.89 477.68 316.63 477.77 317.46 477.77 318.37 477.77 319.38 477.64 320.22 477.38 320.92 477.13 321.62 476.79 322.18 476.37 322.61 475.94 323.05 475.46 323.36 474.91 323.54 474.37 323.73 473.81 323.82 473.23 323.82L469.67 323.82ZM465.67 309.01L465.67 327.18 473.51 327.18C474.91 327.18 476.12 326.95 477.14 326.48 478.17 326.02 479.03 325.37 479.71 324.56 480.4 323.75 480.91 322.78 481.25 321.66 481.59 320.54 481.76 319.32 481.76 317.99 481.76 316.48 481.55 315.17 481.14 314.05 480.72 312.93 480.15 311.99 479.41 311.25 478.67 310.5 477.8 309.94 476.79 309.57 475.78 309.19 474.69 309.01 473.51 309.01L465.67 309.01ZM493.01 319.19L487.13 319.19C487.15 318.93 487.2 318.65 487.3 318.32 487.39 318 487.55 317.7 487.78 317.41 488.01 317.12 488.32 316.88 488.7 316.68 489.08 316.49 489.56 316.39 490.14 316.39 491.02 316.39 491.68 316.63 492.11 317.1 492.54 317.58 492.84 318.27 493.01 319.19L493.01 319.19ZM487.13 321.48L496.63 321.48C496.7 320.46 496.61 319.49 496.37 318.55 496.14 317.62 495.75 316.79 495.21 316.06 494.68 315.33 494 314.75 493.17 314.31 492.33 313.88 491.36 313.67 490.24 313.67 489.24 313.67 488.32 313.84 487.5 314.2 486.68 314.56 485.97 315.04 485.38 315.66 484.78 316.28 484.32 317.02 484 317.87 483.68 318.71 483.52 319.63 483.52 320.61 483.52 321.63 483.68 322.57 483.99 323.41 484.3 324.26 484.75 324.99 485.33 325.6 485.9 326.21 486.61 326.69 487.44 327.02 488.27 327.35 489.2 327.51 490.24 327.51 491.73 327.51 493 327.17 494.06 326.49 495.11 325.82 495.89 324.69 496.4 323.11L493.22 323.11C493.1 323.52 492.78 323.9 492.25 324.27 491.72 324.63 491.1 324.81 490.37 324.81 489.35 324.81 488.57 324.55 488.02 324.03 487.48 323.5 487.18 322.65 487.13 321.48L487.13 321.48ZM506.05 327.18L510.5 314.02 506.91 314.02 504.14 323.01 504.09 323.01 501.31 314.02 497.52 314.02 502.02 327.18 506.05 327.18Z" fill="#777777"/><path d="M276.99 457.56L276.99 452.11 280.09 452.11C280.55 452.11 280.99 452.15 281.42 452.21 281.84 452.28 282.22 452.41 282.54 452.61 282.86 452.8 283.12 453.08 283.31 453.44 283.51 453.79 283.61 454.26 283.61 454.84 283.61 455.41 283.51 455.88 283.31 456.24 283.12 456.59 282.86 456.87 282.54 457.06 282.22 457.26 281.84 457.39 281.42 457.46 280.99 457.53 280.55 457.56 280.09 457.56L276.99 457.56ZM272.99 449.01L272.99 467.18 276.99 467.18 276.99 460.67 281.19 460.67C282.33 460.67 283.29 460.5 284.09 460.17 284.89 459.84 285.54 459.4 286.04 458.86 286.54 458.32 286.9 457.69 287.13 456.99 287.36 456.28 287.48 455.57 287.48 454.84 287.48 454.09 287.36 453.37 287.13 452.67 286.9 451.98 286.54 451.36 286.04 450.81 285.54 450.27 284.89 449.83 284.09 449.5 283.29 449.17 282.33 449.01 281.19 449.01L272.99 449.01ZM289.59 454.02L289.59 467.18 293.2 467.18 293.2 461.25C293.2 460.66 293.26 460.11 293.38 459.6 293.5 459.09 293.7 458.64 293.98 458.26 294.26 457.88 294.63 457.58 295.09 457.36 295.55 457.14 296.11 457.03 296.77 457.03 296.99 457.03 297.22 457.04 297.45 457.06 297.69 457.09 297.9 457.12 298.07 457.15L298.07 453.79C297.78 453.71 297.51 453.67 297.28 453.67 296.82 453.67 296.38 453.73 295.95 453.87 295.53 454 295.13 454.2 294.76 454.44 294.38 454.69 294.05 454.98 293.76 455.33 293.48 455.68 293.25 456.06 293.08 456.47L293.03 456.47 293.03 454.02 289.59 454.02ZM302.24 460.61C302.24 460.09 302.29 459.57 302.39 459.06 302.49 458.55 302.67 458.1 302.91 457.71 303.16 457.32 303.49 457 303.89 456.76 304.3 456.51 304.81 456.39 305.42 456.39 306.03 456.39 306.55 456.51 306.96 456.76 307.38 457 307.71 457.32 307.95 457.71 308.2 458.1 308.37 458.55 308.48 459.06 308.58 459.57 308.63 460.09 308.63 460.61 308.63 461.14 308.58 461.65 308.48 462.15 308.37 462.66 308.2 463.1 307.95 463.5 307.71 463.9 307.38 464.22 306.96 464.46 306.55 464.7 306.03 464.81 305.42 464.81 304.81 464.81 304.3 464.7 303.89 464.46 303.49 464.22 303.16 463.9 302.91 463.5 302.67 463.1 302.49 462.66 302.39 462.15 302.29 461.65 302.24 461.14 302.24 460.61L302.24 460.61ZM298.63 460.61C298.63 461.67 298.79 462.62 299.11 463.47 299.43 464.31 299.89 465.04 300.48 465.64 301.08 466.24 301.79 466.71 302.62 467.03 303.45 467.35 304.39 467.51 305.42 467.51 306.46 467.51 307.39 467.35 308.23 467.03 309.07 466.71 309.79 466.24 310.39 465.64 310.98 465.04 311.44 464.31 311.76 463.47 312.08 462.62 312.24 461.67 312.24 460.61 312.24 459.56 312.08 458.61 311.76 457.75 311.44 456.89 310.98 456.16 310.39 455.56 309.79 454.96 309.07 454.49 308.23 454.16 307.39 453.83 306.46 453.67 305.42 453.67 304.39 453.67 303.45 453.83 302.62 454.16 301.79 454.49 301.08 454.96 300.48 455.56 299.89 456.16 299.43 456.89 299.11 457.75 298.79 458.61 298.63 459.56 298.63 460.61L298.63 460.61ZM323.93 460.56C323.93 461.11 323.88 461.63 323.77 462.14 323.67 462.65 323.5 463.1 323.27 463.5 323.03 463.9 322.71 464.22 322.31 464.46 321.91 464.7 321.42 464.81 320.82 464.81 320.26 464.81 319.78 464.69 319.38 464.45 318.98 464.2 318.65 463.88 318.39 463.48 318.13 463.08 317.94 462.63 317.82 462.12 317.7 461.61 317.64 461.1 317.64 460.59 317.64 460.05 317.7 459.52 317.81 459.02 317.92 458.52 318.09 458.08 318.34 457.69 318.59 457.3 318.91 456.98 319.32 456.75 319.73 456.51 320.23 456.39 320.82 456.39 321.42 456.39 321.91 456.51 322.3 456.75 322.69 456.98 323.01 457.29 323.25 457.67 323.5 458.06 323.67 458.5 323.77 459 323.88 459.5 323.93 460.02 323.93 460.56L323.93 460.56ZM323.98 465.5L323.98 467.18 327.41 467.18 327.41 449.01 323.8 449.01 323.8 455.63 323.75 455.63C323.34 454.98 322.79 454.49 322.08 454.16 321.38 453.83 320.64 453.67 319.85 453.67 318.89 453.67 318.04 453.86 317.31 454.24 316.58 454.62 315.97 455.12 315.49 455.75 315.01 456.38 314.64 457.11 314.39 457.93 314.15 458.75 314.03 459.6 314.03 460.49 314.03 461.4 314.15 462.29 314.39 463.13 314.64 463.98 315.01 464.73 315.49 465.39 315.97 466.04 316.59 466.56 317.33 466.94 318.08 467.32 318.95 467.51 319.93 467.51 320.8 467.51 321.57 467.36 322.26 467.04 322.95 466.73 323.5 466.21 323.93 465.5L323.98 465.5Z" fill="#25A148"/></g></g></g></svg>