<svg xmlns="http://www.w3.org/2000/svg" xmlns:xlink="http://www.w3.org/1999/xlink" width="78px" height="78px" viewBox="0 0 78 78">
	<linearGradient id="SVGID_1_" gradientUnits="userSpaceOnUse" x1="39" y1="78" x2="39" y2="-9.094947e-13">
		<stop  offset="0" style="stop-color:#333333"/>
		<stop  offset="1" style="stop-color:#444444"/>
	</linearGradient>
	<path fill="url(#SVGID_1_)" d="M57.969,78H20.031C8.968,78,0,69.032,0,57.969V20.031C0,8.968,8.968,0,20.031,0h37.938 C69.032,0,78,8.968,78,20.031v37.938C78,69.032,69.032,78,57.969,78z"/>
	<path fill="#CCCCCC" d="M16.056,42.646v3.375h-6.75v-13.5h3.375v10.125H16.056z M16.731,32.521v13.5h3.375v-13.5H16.731z M27.531,35.896v-3.375h-6.75v13.5h3.375v-5.4h2.7v-2.7h-2.7v-2.025H27.531z M34.956,35.896v-3.375h-6.75v13.5h6.75v-3.375h-3.375 v-2.025h2.7v-2.7h-2.7v-2.025H34.956z M68.706,35.896v-3.375h-6.75v13.5h6.75v-3.375h-3.375v-2.025h2.7v-2.7h-2.7v-2.025H68.706z M36.981,32.521v3.375h2.025v10.125h3.375V35.896h2.025v-3.375H36.981z M45.081,32.521v13.5h3.375v-13.5H45.081z M57.906,32.521 h-1.688l-1.013,6.75l-1.013-6.75h-1.688h-3.375v13.5h3.375v-7.425l1.35,7.425h2.7l1.35-7.425v7.425h3.375v-13.5H57.906z M71.069,32.521c-0.945,0-1.688,0.743-1.688,1.688s0.743,1.688,1.688,1.688s1.688-0.743,1.688-1.688S72.014,32.521,71.069,32.521z M71.069,35.626c-0.81,0-1.417-0.675-1.417-1.417s0.675-1.417,1.417-1.417s1.418,0.675,1.418,1.417S71.879,35.626,71.069,35.626z M71.339,34.343c0.135,0,0.27-0.068,0.338-0.135c0.067-0.067,0.135-0.202,0.135-0.405s-0.067-0.338-0.202-0.405 c0-0.135-0.202-0.202-0.405-0.202h-0.743v2.025h0.27v-0.877h0.338l0.54,0.877h0.338L71.339,34.343z M71.069,34.073h-0.338v-0.608 h0.405c0.068,0,0.135,0,0.135,0c0.067,0,0.067,0,0.135,0.068c0.068,0,0.068,0.068,0.068,0.068c0,0.068,0.067,0.068,0.067,0.135 c0,0.068,0,0.135-0.067,0.202c0,0.068-0.068,0.068-0.135,0.068s-0.135,0.068-0.135,0.068S71.136,34.073,71.069,34.073z"/>
</svg>