<svg xmlns="http://www.w3.org/2000/svg" width="40px" height="40px" viewBox="0 0 40 40">
	<path fill="#707070" d="M34,40H6c-3.3,0-6-2.7-6-6V6c0-3.3,2.7-6,6-6h28c3.3,0,6,2.7,6,6v28C40,37.3,37.3,40,34,40z"/>
	<path fill="#FFFFFF" d="M8.4,21.7v1.7H5v-6.8h1.7v5.1H8.4z M8.8,16.6v6.8h1.7v-6.8H8.8z M14.2,18.3v-1.7h-3.4v6.8h1.7v-2.7h1.4v-1.4 h-1.4v-1H14.2z M18,18.3v-1.7h-3.4v6.8H18v-1.7h-1.7v-1h1.4v-1.4h-1.4v-1H18z M35,18.3v-1.7h-3.4v6.8H35v-1.7h-1.7v-1h1.4v-1.4h-1.4 v-1H35z M19,16.6v1.7h1v5.1h1.7v-5.1h1v-1.7H19z M23.1,16.6v6.8h1.7v-6.8H23.1z M29.5,16.6h-0.9L28.2,20l-0.5-3.4h-0.9h-1.7v6.8h1.7 v-3.7l0.7,3.7h1.4l0.7-3.7v3.7h1.7v-6.8H29.5z M37,17.4c0,0.5-0.4,0.9-0.9,0.9c-0.5,0-0.9-0.4-0.9-0.9c0-0.5,0.4-0.9,0.9-0.9 C36.6,16.6,37,17,37,17.4z M36.9,17.4c0-0.4-0.3-0.7-0.7-0.7c-0.4,0-0.7,0.3-0.7,0.7c0,0.4,0.3,0.7,0.7,0.7 C36.6,18.2,36.9,17.8,36.9,17.4z M36.6,17.9h-0.2l-0.3-0.4H36v0.4h-0.2v-1h0.4c0.1,0,0.2,0,0.3,0.1c0.1,0,0.1,0.1,0.1,0.2 c0,0.1,0,0.2-0.1,0.2c-0.1,0-0.1,0.1-0.2,0.1L36.6,17.9z M36.3,17.4C36.3,17.4,36.3,17.4,36.3,17.4c0.1,0,0.1,0,0.1-0.1 c0,0,0-0.1,0-0.1c0,0,0-0.1,0-0.1c0,0,0,0-0.1,0c0,0,0,0-0.1,0c0,0-0.1,0-0.1,0H36v0.3L36.3,17.4C36.2,17.4,36.2,17.4,36.3,17.4z"/>
</svg>