<?xml version="1.0" encoding="utf-8"?>
<!-- Generator: Adobe Illustrator 19.1.0, SVG Export Plug-In . SVG Version: 6.00 Build 0)  -->
<svg version="1.1" id="Layer_1" xmlns="http://www.w3.org/2000/svg" xmlns:xlink="http://www.w3.org/1999/xlink" x="0px" y="0px"
	 width="3200px" height="4570px" viewBox="0 0 3200 4570" enable-background="new 0 0 3200 4570" xml:space="preserve">
<g>
	<rect fill="#FAFAFC" width="3200" height="4570"/>
</g>
<path id="XMLID_38_" fill="#AAAAAA" d="M772.8,2049.7c-5.2,19.1-3.8,37.1,2.8,56.1c6.2,17.8,11.7,37,11.5,55.5
	c-0.5,57.8,14.1,113.4,21.1,170c2.5,19.8,5.8,39.6,10.1,59.1c4.9,22.2,15.6,41.2,36,53.6c20.4,12.4,38,29.2,63.6,33
	c12.1,1.8,23.2,5.5,35.2,0.5c3.6-1.5,8.2-3,11.7-2c28.6,8.2,59.4,9.1,85.6,24c-4.9,54.7-15.4,106.3-32.5,157
	c-11.1,33.1-16.3,68.1-23.8,102.4c-1.2,5.7-0.2,12-0.2,19.7c0,1.9,15,9.9,17.1,11.3c17.3,11.4,14,31.1,8.7,50.3
	c-2.9,10.7-6.4,21.2-7.2,30c-2.2,23.7-6.1,46.8-11,70.1c-3.7,17.4-0.7,36.2-2,54.3c-3.5,50-7.6,100-11.4,149.9c-0.1,1-0.2,2-0.2,3
	c-2,80.5-7.9,161.2-4.8,241.5c2.6,66.1,9.9,132.1,11.5,198.5c1.2,50,6.3,100.1,11.6,149.9c6.7,62.7,15.8,125.1,23.3,187.7
	c4.8,39.8,7.9,79.8,12.9,119.5c4.8,37.7,11.9,75.1,16.7,112.8c3.5,26.8,4.6,53.9,7.3,80.9c3.5,35.9,7.7,71.7,11.1,107.6
	c1.1,11,1.6,22.2,0.7,33.2c-1.5,17.5,6.8,29.2,20.7,37.2c13,7.5,27,13.3,45.5,22.2c15.2,39.7,32.1,83.7,48.9,127.8
	c2.1,5.6,1.9,12.4,4.9,17.3c17.7,28.4,18.2,61.4,25,92.6c10.1,47,16.5,95,28.7,141.5c25.3,96.4,58.7,190.3,95.1,283.1
	c22.8,58,44.4,116.6,65,175.5c24.9,71.2,48.6,142.9,71.7,214.7c5.8,18,9.6,37.2,10.4,56c2.3,54.7,18.2,109.9-3.5,164
	c-9.7,24.3-20.4,48.2-29.5,72.6c-21,56.2-33,114.1-74.1,159.4c-19.1,21.1-30.2,42.1-55,57.7c-45.5,28.7-93.9,51.3-146,64
	c-28.2,6.9-39.3,38.6-14.3,56.9c11.3,8.2,22.3,16.6,34.2,23.2c11,6.1,22.8,10.7,36.1,12.2c27,3,53.7-2.7,80.6-4.6
	c24-1.7,48-3.6,71.9-6.6c42.7-5.4,85.3-11.7,127.9-17.6c5-0.7,10.1-0.9,15.1-0.8c27.7,0.2,53.7-5.6,80.1-22.7c0,15-0.1,27.8,0,40.5
	c0.2,36.6,7.2,71.8,24.9,104.1c15.4,28.1,35,51.8,67.6,60.9c1,0.3,2,0.6,2.8,1.2c36.3,29.6,66.5,9.2,94.5-13.4
	c20.1-16.3,38.1-35.6,55-55.3c30.7-35.7,32.5-78.9,27.4-122.9c-4.8-41.7-11-83.3-16.5-125c-2.1-15.9-4-31.8-6.1-47.7
	c-3.9-29.8-6.3-59.9-12.4-89.2c-6.3-30.5-11.3-60.2-6.4-91.6c3.2-20.7,2.6-42.5,0.6-63.5c-5.1-53.5,7.8-103.9,24.2-153.8
	c13.8-42.1,29.5-83.6,41.6-126.2c27.4-95.6,53.1-191.7,79.5-287.5c26.2-94.9,41.7-192.1,59.5-288.8c4.3-23.6,5.6-47.9,6.6-71.9
	c2.6-60.3,6.1-120.7,5.8-181c-0.2-36.9-7.3-73.8-10.1-110.7c-1.4-18-0.2-36.2-0.2-57.8c12.8-5.4,26-12.6,40.1-16.5
	c17.7-4.9,27.5-16,38.6-30.3c22.4-28.6,25.2-59.5,24.1-93.4c-1.4-43.4-1.8-86.9,0-130.2c2.2-51.1,7-102,11.3-153
	c3.7-43.9,7.6-87.9,12.9-131.6c4.5-37.7,11.2-75.2,16.6-112.8c2.7-18.8,5.1-37.7,6.7-56.6c2.6-32,4.1-64.1,6.8-96.1
	c7.8-92.5,2-185.4,7.4-277.8c3.1-52.4,5.1-104.7,4-156.8c-1.1-53.1-8.9-106.1-10.6-159.1c-1.8-57.8-14.1-113.2-28.7-168.6
	c-2-7.7,1.7-16.9,3.2-25.4c1.7-9.6,6.9-19.6,5.4-28.5c-7.1-41.8-17.8-82.4-42.1-118.3c-15.4-22.9-23.2-47.9-24.4-76.4
	c-1.1-25.7-9.2-51.1-14.4-76.6c-6.2-30.6-10.2-62.9-21.7-92.1c-3.7-9.4-7.9-18.9-9.2-29c-0.6-4.9-0.1-9.1,0.8-13.2
	c1.1-4.6,2.9-9.1,4.3-14.2c1.9-6.6,1.4-13.8,0.1-20.5c-5.6-27.3,3.8-53,20.3-73.2c43.2-52.6,77.7-110.4,105.3-172
	c25-55.9,46.6-113.4,68.2-170.8c20.8-55,28.7-112.6,28.9-171.3c0.1-40.4-0.7-80.8,0.3-121.1c0.8-35.1,6.1-70.3,4.8-105.3
	c-1.3-34.9-4.2-70.7-13.7-104c-12.1-42.3-30.9-82.8-48.2-123.5c-10.6-25.1-29.3-38.5-58.6-39.3c-26.7-0.8-53.2-7.3-79.9-11.3
	c4.8-17.4,9.1-33.1,13.5-48.7c-19.6,12.6-37.3,25.6-60.1,22.4c-19.9-2.8-38.5-10.8-54.7-25.6c1.2-7.8,2.4-15.4,3.7-23.9
	c-7-7.9-14.3-16.1-20.5-23.1c13.5-21,7.6-48.6,30.3-61.6c-7.1-18.9-12.9-34.5,2.5-49.4c6.4-1,14.2-2.2,25.8-3.9
	c-13.3-14.7-24.4-27.1-35.5-39.4c0.7-1.1,1.3-2.2,2-3.2c2.6,1.3,5.2,2.7,7.9,3.9c2.6,1.2,5.2,2.1,8,3.3c0.3-2.5,1.2-4.6,0.6-5.9
	c-11.7-23.2-23.8-46.1-35.2-69.4c-2.1-4.3-2-9.8-2-14.8c-0.1-43.4-0.3-86.8,0.4-130.2c0.2-11.9,5.6-24,4.8-35.6
	c-5.7-76.9-4.9-154.8-33-228.6c-18.3-48.3-43.2-93.1-70.3-136.7c-5.3-8.6-12.1-16.3-16.6-25.2c-19.5-38.1-54.9-57.7-89.6-78.1
	c-19.7-11.6-42.2-12.9-62.2-3.1c-12.7,6.2-23,5-29-4c-16.2-24.8-41-22.2-62-17.2c-88.4,20.9-169.6,57.3-233,125
	c-55.5,59.2-101.1,124.8-125.6,203.5c-21.9,70.3-39.4,141.1-35.9,215.6c0.5,11-1.6,22.1-1.5,33.2c0.1,5.3,2.7,10.5,5,19.1
	c-4,8.6-9.4,20.4-15.3,33.1c3.4,1.3,5.9,2.3,9.6,3.7c-9.4,35.2-27.4,67.3-47.6,99.4c19.3,10.9,25-7.3,37.3-11.3
	c2.3,1.5,5.6,3.5,9.1,5.8c2.9-3.7,6.1-7.8,10.5-13.4c2.1,5,4.4,7.7,4,10c-1.6,10.4-10.6,21.3,4.5,29.2c-5.8,11.6-11,22.1-19.3,38.7
	c22.6-15.9,32.4-33.3,43.5-57c2.9,10.6,5.4,15.4,5.5,20.3c0.3,28.9-6.6,55.3-27.2,77.1c-11.7,12.4-21.8,26.2-34.9,42
	c20.1-0.6,37.1,10.2,57.1,2.4c-9.7,9.7-20.1,18.7-28.8,29.2c-8.5,10.3-22.3,17.7-21.5,36c-24.4,12.3-49.8,25.1-75.5,38
	c13.8,0.6,28.5,1.3,47,2.1c-5.8,6.4-9.2,12-14.1,15.2c-24.3,16-48.9,31.4-69.3,44.3c-39.4,8.7-74.5,16.5-109.7,24.2
	c-4.8,1.1-9.6,3-14.4,3.1c-21,0.5-36.3,10.1-46,28.6c-41,78.5-78.8,157.8-91.1,247.4c-8.1,58.4-22.5,115.9-34,173.8
	c-12.8,64.8-24.9,129.8-38.3,194.5C787.9,1997.6,780,2023.6,772.8,2049.7z M1557.4,4505.1c33.7,0,67.7,0,97.5,0
	c12.6,9.9,22.1,17.4,29.8,23.5c0,57.7,0.1,111.1-0.1,164.5c0,4.9,0,11.3-2.8,14.5c-11.4,12.9-9.1,28.2-9.1,43.1
	c-0.1,120,0,240-0.2,360c0,8.3-1,16.6-1.6,24.9c-6.9-6-9.6-12.1-9.8-18.4c-0.7-15.1,0.2-30.3-0.5-45.4c-0.4-7.8-0.4-17.2-4.5-23
	c-8-11-7.5-22.5-7.5-34.6c0-14.1,0-28.2,0-43.2c-20-19.7-18.3-19.5-15.3-43.7c3.7-29.5,10.5-61,4.1-88.8c-6.2-26.8-3.5-51-1.4-76.5
	c0.5-5.9,0.5-12.2-0.9-18c-7.6-31.8-14.9-63.8-24.1-95.1c-5.3-17.8-13.4-34.8-21.3-51.7c-10.9-23.4-22.8-46.4-34.3-69.5
	C1551.5,4519.9,1549.8,4512.4,1557.4,4505.1z"/>
</svg>
