<?xml version="1.0" encoding="utf-8"?>
<!-- Generator: Adobe Illustrator 19.1.0, SVG Export Plug-In . SVG Version: 6.00 Build 0)  -->
<svg version="1.1" id="Layer_1" xmlns="http://www.w3.org/2000/svg" xmlns:xlink="http://www.w3.org/1999/xlink" x="0px" y="0px"
	 width="2060px" height="1612px" viewBox="0 0 2060 1612" enable-background="new 0 0 2060 1612" xml:space="preserve">
<g>
	<rect fill="#FAFAFC" width="2060" height="1612"/>
</g>
<path id="XMLID_41_" fill="#AAAAAA" d="M2582.5,6141.2c-34.5-0.3-69.1-1-103.6-0.1c-44.1,1.1-86-8.3-127.1-23
	c-13.9-5-28.1-9.4-42.4-13.2c-45.6-12.2-92.6-20.7-131.5-52.9c1-13.7-2.6-26.3-14.9-35.8c-22-17.2-32.3-39.9-38.3-67.6
	c-13.3-61.6-30.9-122.4-46.2-183.6c-5.7-22.9-13.1-46.2-13.9-69.5c-2.9-85.2,0.7-170.4-5.8-255.7c-5-65,0.9-130.3,10.3-195.2
	c7-48.8,9.3-98.2,12.2-147.5c2.4-41.4-1.3-83.1,6.1-124.5c6.2-34.9,8.7-70.4,14.7-105.4c6-35.9,14.3-71.5,21.5-107.2
	c6.8-33.8,8.2-69.8,21.3-100.9c16.3-39.1,15.7-79.3,19.6-119.1c4.8-48.6-8.2-96-21.4-142.6c-3-10.4-5.4-21-7.6-31.6
	c-9.2-43.4-17.2-86.9-35-128.3c-9.2-21.4-13-45.3-18.6-68.1c-9.6-39.2-13.5-79.6-33-116.4c-10.4-19.6-17.1-41.2-9.9-65.5
	c4-13.6,2.2-29.8-0.3-44.3c-6.1-35.9-14.7-71.4-20.9-107.2c-2.3-13.5-3.5-28.4-0.3-41.4c11.4-46.4,2.4-88.1-21.1-122.2
	c-14.1-78.4-27.3-151.8-41.2-229.4c7.9-14.1,18.4-32.1,28.1-50.4c21.2-40.1,45.7-78.9,53.8-124.7c3.3-18.4,5.9-37,10.5-55.1
	c6.7-26,11.3-52,10.7-79c-0.2-9.6,1.3-19.8,4.6-28.8c16.3-44.3,20.3-88.6,1.9-133.1c-10.7-25.9-7.9-47.7,14-66.9
	c16.1-14.2,25-32.6,27.4-54.5c3.1-28.4,7.8-56.6,11.8-84.9c1.6-11.7,4.7-23.5,4.4-35.1c-0.7-27.6-4.3-55.2-4.6-82.8
	c-0.3-39.6-4.5-78.8-10.8-117.8c-1.4-8.4,0.7-17.6,2.2-26.3c7.4-44.8,17.3-89.1,15.1-135.1c-1-22.3-4.3-43.4-14.4-63
	c-18.6-36.2-38.3-71.8-56.5-108.1c-7.5-14.9-15.1-30.6-18.2-46.8c-7.7-39.7-11.1-80.2-19.3-119.7c-12.2-58.9-25.1-117.8-41.4-175.6
	c-20.3-72.3-44.7-143.4-66.3-215.3c-21.6-71.9-45.2-143.4-62.1-216.5c-14-60.5-38.7-116-63.5-172c-4.7-10.5-12.6-20.3-21.1-28.3
	c-8.6-8.1-20.5-15.5-32.4-10c-15.1,7-27.1,0.3-39.8-4.4c-13-4.8-25.3-11.5-38.4-15.9c-60-20.5-121.5-33.4-184.5-42.1
	c-62.4-8.6-124.2-22.7-185.7-36.7c-15.6-3.5-30.6-14.1-43.3-24.6c-11.9-9.9-20.3-24.1-30.2-36.3c-4.6-56.2,0-86.7,38.7-212.4
	c2.8-1.2,6.4-2.5,9.9-4.2c22.7-10.7,26-17.1,23.7-43.4c-0.4-4.7,1-9.5,1.7-14.3c2.2-15.6,6.9-31.4,6.2-46.8
	c-2.4-45.2-6-90.4-10.8-135.5c-4.1-38.2-10.1-76.2-15.9-114.1c-6.7-44.5-24-85.2-44.6-124.9c-11.2-21.6-26.4-39.8-46.1-53.2
	c-23.6-16-48.2-30.7-73.5-43.9c-29.6-15.3-59-34.3-95.2-20.7c-46.6-8.6-85.9,14-123,34.9c-37.7,21.2-75.1,44.5-105.9,77.4
	c-23.2,24.7-41,50.1-45.7,84c-3.5,25.3-5.8,51-12,75.7c-9.4,37.2-8.6,73.7,1,110.4c-7.2,1.5-13.5,2.8-22,4.5
	c-0.7,10.6-2.4,20.3-1.9,29.9c1.4,27.6,5.9,55.3,5.2,82.8c-1,40.4,18.5,71.3,39,103.2c9.3-1.1,16.7-2,24.4-2.9
	c17.3,63.1,26,126.3,19,189.5c-12.7,13.9-26.1,25.7-35.8,40.1c-8.7,12.9-14.4,28.2-19.6,43.1c-11.7,32.8-33.2,55.3-65.5,68.4
	c-29.4,11.9-58.2,25.2-87.3,37.6c-60.1,25.7-119.7,52.6-180.5,76.5c-58.4,22.9-113.2,51.7-164.8,89.4c-2.7,0.1-6.7,0.5-10.6,0.6
	c-30.9,0.8-47.9,16.4-56.8,46.3c-13.1,44-15.5,89.3-20.8,134.3c-1.1,9.5,2.9,19.5,2.9,29.3c0.2,14.5,1.6,29.8-2.3,43.4
	c-6.7,22.7-18.1,43.9-25.8,66.3c-14.2,41.5-24.5,83.5-10.2,127.6c2.3,6.9,1.8,15.2,0.8,22.6c-6.2,45.9-13.1,91.8-19.5,137.7
	c-2.8,19.5-5,39.1-7.8,58.7c-9.1,64.4-18.8,128.8-27.2,193.3c-5.4,41.1-6.9,82.8-13.7,123.6c-7.8,46.7-7.6,92.9,3.4,138.4
	c4.5,18.9,2.1,32.4-10.2,46.2c-15.7,17.8-22.2,38.5-22.4,62.8c-0.1,21.6,7,40.7,12.2,60.7c9.3,36.3,17.6,72.8,27.4,109
	c7.9,29.3,23.3,54.4,44.8,76c17.2,17.2,29.9,37.8,34.3,61.5c7.4,40.4,22.3,77.7,39.9,114.5c9.2,19.4,16.8,40.4,20.3,61.5
	c5.2,31.5,17,57.5,38.9,81.3c25.7,27.9,50.4,58,46.7,100.6c-0.4,5.3,4,11,6.4,16.4c2.9,6.3,8.6,12.6,8.5,18.8
	c-0.1,19.1,10.7,29.4,23.7,41.6c47.1,43.9,92.3,89.7,138.5,134.5c6,5.8,14,9.6,22.7,15.4c6.6-17.1,12.2-31.5,18.1-46.5
	c6.9,3.4,12,5.9,17.5,8.7c5.5-4.1,11-8,19-13.9c0.5,82,2.5,161.3-3.2,244.5c14.8-8.7,25.9-15.2,37.2-21.9c2.3,14.7,4.9,27.3,6.2,40
	c4.8,48.1,10,96.2,13.4,144.4c3.5,49.4,2.8,99,7.8,148.2c4.8,46.9,15.1,93.3,22,140.1c9.7,65.5,22.6,130.5,44.1,193.1
	c15.5,44.8,20.1,90.3,21.8,136.8c1.7,48.5,2.6,97,6.7,145.3c3.6,43.2,13,85.8,16.4,129c4.1,51.2,4.3,102.8,6.7,154.2
	c1.5,31.6,3.5,63.2,6.4,94.6c3.1,33.3,10.1,66.5,10.6,99.8c0.8,54.5,3.2,108.7,12.3,162.5c3.1,18.5,4.8,37.2,6.2,55.9
	c2.6,35.5,4.2,71.1,6.6,106.6c1.9,26.6,4.1,53.2,6.8,79.7c3.2,32.3,7.4,64.6,10.4,96.9c2.7,28.5,4.4,57.1,6.9,85.6
	c1.8,20.6,4.1,41.2,6.3,61.8c3.5,32.3,8.4,64.6,10.2,97c1.1,19,2.7,37.4,10.2,55c22.9,53.7,46.8,107,68.2,161.3
	c9.6,24.4,20.7,44.5,48.3,50.5c1.4,0.3,2.3,3,5.4,7.3c2.9,4.1-42.2,65.5-45.9,71.2c-9.7,14.9-19.8,29.6-29.2,44.7
	c-12.3,19.6-14,39.6-18.3,61.9c-3.1,16.3-5.5,32.7-5.8,49.3c-0.4,29.3,6.4,58.1,24.7,81.5c69.3,88.8,233.5,81.9,296.8-8.4
	c57.8-82.5,55.9-197.8,53.1-294.3c0.8,1,2.2,2.1,3.1,2.9c-2.4-19.7,7.2-34.4,16.9-50.5c9.3-15.5,15.3-33.1,25.6-47.9
	c19.3-27.7,27.7-58.8,31.5-91.5c2.8-24.5,1.6-49.8,7.3-73.5c9.9-40.9,4.7-81.1-2.9-120.7c-10.3-54.2-23.7-107.8-37.7-161.2
	c-21.7-82.4-51.9-162-83.9-240.8c-4.7-11.5-6.6-24.6-7.7-37.1c-3.5-37.2,6-74.1,0.9-112c-5.7-41.9-0.3-84.7-5.8-127.3
	c-4.3-33.3-7-66.7-15.6-99.1c-4.1-15.5-2.5-28.4,3.4-42.9c7-17.2,14.3-35.8,14.7-53.9c0.8-45.5-2.4-91-3.5-136.5
	c-0.2-8.8,0.1-18.1,2.5-26.5c13.2-46.2,9.2-94.1,14.6-141.1c4.8-42.1,4.7-84.8,6.7-127.3c0.1-2,0.4-4,0.6-5.9
	c3.7-37.3,8.6-74.5,10.8-111.9c3.2-54.3,4.2-108.8,6.4-163.2c0.3-6.8,2.1-13.6,3.8-20.3c10.5-41.2,16.2-83.3,19.2-125.6
	c3.4-48.3,4.4-96.6,22.2-142.6c2.1-5.3,0.8-12,2.6-17.5c5.8-17.2,1.1-37.1,12.9-55c11.6,29.9,23.2,57.1,32.9,85.1
	c30.1,86.9,59,174.1,89.4,260.8c43.8,125,81.5,251.7,113.4,380.2c18,72.7,35.1,145.6,52.2,218.5c1.8,7.5,2.8,16.4,0.6,23.5
	c-11.8,37.1-2.9,72.7,7.5,107.7c23.3,78.5,48.2,156.6,71.8,235c3.4,11.1,6.7,24,4.1,34.8c-5.8,24.8-3.2,48.4,0,73.2
	c4.9,39.1,4.8,78.9,6.9,118.4c0.3,4.9,0.5,9.9,1,14.8c3.6,35.3,9.4,70.6,10.3,105.9c1,41.6,5.6,82.5,11.1,123.7
	c3.7,28.2,5.3,58.7-1.6,85.8c-10.9,43.1-22.9,85.4-28.9,129.8c-5.5,40.9-18.2,80.7-25.9,121.3c-6,31.9-12,64.3-13.1,96.6
	c-2,62.5-0.6,125.1-0.4,187.7c0,8.8,1,17.5,1.4,24.3c15.3,16.7,33.2,23,51.8,25.6c63.7,9,127.7,14.2,192.2,13
	c4.8-0.1,11.2-0.2,14-3.1c12.9-13.2,30.3-11.1,44.7-10.4c60.9,3.2,121.9,8.7,181.6,21.7c56.9,12.5,113.5,26.3,171.7,30.9
	c24.4,2,49,2.5,73.5,2.1c22.7-0.4,45.2-3.4,67.9-4.3c8.7-0.3,17.7,3.6,26.3,3c48.2-3.3,95.6-11.8,142-25.3
	c9.7-2.8,18.4-9.3,29.1-14.8c51.4-34.1,47.9-83.2,22.9-122.1C2590,6143.1,2586.3,6141.2,2582.5,6141.2z M489.6,2711.6
	c-11.6,15.1-20.7,27-30.8,40.2c-0.8-1.7-2.8-5.2-4.3-8.9c-0.7-1.8-0.4-3.9-0.2-5.9c3.6-36.1,0.1-69.5-35.7-89.7
	c0-19.6-1.1-37.5,0.2-55.1c1.9-25.5-2.8-49.1-17.3-70c-7.8-11.3-6.1-20-1.6-32.6c7.4-20.7,19.3-40.5,18.5-63.8
	c-0.1-2.9-0.6-6.7,0.9-8.8c15.6-21.1,11-45.3,10.7-68.6c-0.2-15.1,5.1-26.5,18.9-36.5c-5.6,23.2,11.6,37.8,20.5,53.8
	c15.1,26.8,21.5,53.5,20.6,84c-1.5,51.5-3.3,103.2,0.2,154.5C492.9,2641.8,486.7,2678.5,489.6,2711.6z M2568.4,6264
	c0.3,0.3,0.7,0.8,1.1,1.2C2569,6264.7,2568.7,6264.3,2568.4,6264z"/>
</svg>
