<svg class="lt-brand-logo" xmlns="http://www.w3.org/2000/svg" width="234" height="4em" viewBox="0 0 234 64">
  <title>Alpha</title>
  <path d="M28.8,27.1L37,42.5c0.5,1,1.7,1.7,2.8,1.7h5.5c1.1,0,1.5-0.7,1-1.6L32.8,19c-0.5-0.9-1.8-1.7-2.9-1.7h-3.6 c-1,0-2.3,0.8-2.8,1.7L10.2,42.5c-0.5,0.9-0.1,1.6,0.9,1.6h4.8c1,0,2.5-0.7,3-1.7l1-1.9c0.5-0.9,1.7-1.7,2.8-1.7h7.9 c1,0,1.5-0.7,1-1.7l-2.1-4.1c-0.5-0.9-1-1.2-2.1-1.2h-1.2c-1,0-1.4-0.6-0.8-1.5l1.8-3.4C27.6,26.1,28.3,26.1,28.8,27.1L28.8,27.1z M228.1,20.3c0-1-0.7-1.7-1.7-1.7c-1,0-1.7,0.7-1.7,1.7c0,1,0.7,1.7,1.7,1.7C227.4,22,228.1,21.2,228.1,20.3z M225,20.3 c0-0.8,0.6-1.6,1.4-1.6c0.8,0,1.5,0.7,1.5,1.6c0,0.8-0.6,1.5-1.5,1.5C225.5,21.7,225,21.1,225,20.3z M226,21.2v-0.9h0.4l0.6,0.9h0.3 l-0.6-0.9c0.3,0,0.5-0.2,0.5-0.5c0-0.4-0.2-0.6-0.6-0.6h-0.8v2H226z M226.4,20.1H226v-0.7h0.5c0.2,0,0.5,0.1,0.5,0.4 S226.6,20.1,226.4,20.1L226.4,20.1z M55,15.3c0.6,0.3,0.9,0.9,0.9,1.6v30.2c0,0.6-0.3,1.2-0.9,1.6L28.9,63.8c-0.6,0.3-1.2,0.3-1.8,0 L0.9,48.7C0.3,48.3,0,47.7,0,47.1V16.9c0-0.6,0.3-1.2,0.9-1.6L27,0.2c0.6-0.3,1.2-0.3,1.8,0L55,15.3L55,15.3z M55.7,54.4 c0-1-0.8-1.7-1.7-1.7c-1,0-1.7,0.8-1.7,1.7c0,1,0.8,1.7,1.7,1.7C54.9,56.1,55.7,55.4,55.7,54.4z M52.5,54.4c0-0.8,0.6-1.5,1.5-1.5 c0.8,0,1.5,0.6,1.5,1.5c0,0.8-0.6,1.5-1.5,1.5C53.1,55.9,52.5,55.2,52.5,54.4z M53.6,55.4v-0.9H54l0.6,0.9h0.3l-0.6-0.9 c0.3-0.1,0.5-0.2,0.5-0.6c0-0.4-0.2-0.6-0.6-0.6h-0.8v2L53.6,55.4L53.6,55.4L53.6,55.4z M53.9,54.3h-0.3v-0.7H54 c0.3,0,0.5,0.1,0.5,0.4S54.2,54.3,53.9,54.3L53.9,54.3z M163.5,30.3c0,2.9-2.1,5.3-5.8,5.4c-0.1,0.1-0.2,0.1-0.3,0.1h-10.6 c-1,0-1.9-0.8-1.9-1.9v-2.5c0-1.1,0.8-1.9,1.9-1.9h7.3c1.1,0,1.8-0.9,1.8-1.8v-0.8c0-1-0.7-1.8-1.9-1.8h-9.6c-1,0-1.9,0.8-1.9,1.9 v16.7c0,1.1-0.8,1.9-1.9,1.9h-0.3c-0.8,0-2.1-0.2-3-1.6c-0.1-0.2-1.9-3.2-2.2-3.9c-0.3-0.6-0.4-0.7-0.4-1.6V20.4 c0-1,0.8-1.9,1.9-1.9h21.1c3.8,0.2,5.8,2.6,5.8,5.5L163.5,30.3L163.5,30.3z M187.4,32.9v-2.8c0-1-0.9-1.9-1.9-1.9h-9.6 c-1,0-1.9-0.8-1.9-1.9v-5.8c0-1-0.8-1.9-1.9-1.9H168c-1,0-1.9,0.8-1.9,1.9v23c0,1.1,0.8,1.9,1.9,1.9h4.1c1,0,1.9-0.8,1.9-1.9v-6.8 c0-1.1,0.9-1.9,1.9-1.9h9.6C186.5,34.8,187.4,33.9,187.4,32.9z M189.7,43.6V20.4c0-1,0.8-1.9,1.9-1.9h4.1c1,0,1.9,0.8,1.9,1.9v17.9 c0,0.6-0.1,1.1-0.5,1.7c-0.9,1.5-1.7,2.8-2.1,3.7c-0.8,1.3-2.1,1.6-2.8,1.6h-0.6C190.5,45.4,189.7,44.6,189.7,43.6L189.7,43.6z M114.2,45.4h19.8c0.6,0,1.1-0.8,0.7-1.4l-2.1-3.7c-0.5-0.9-1.6-1.7-3-1.7h-11.1c-1,0-1.9-0.9-1.9-1.9V20.5c0-1.1-0.8-1.9-1.9-1.9 h-4.1c-1.1,0-1.9,0.8-1.9,1.9v17.7c0.1,0.6,0.1,1.2,0.5,1.7c1.2,2.2,1.5,2.6,2.2,3.9C112.2,45.2,113.6,45.4,114.2,45.4L114.2,45.4 L114.2,45.4z M216.4,28.4l8.3,15.4c0.5,0.9,1.7,1.7,2.8,1.7h5.1c1.1,0,1.5-0.7,1-1.6L220,20.3c-0.5-0.9-1.8-1.7-2.8-1.7h-3 c-1,0-2.3,0.8-2.8,1.7L198,43.8c-0.5,0.9-0.1,1.6,1,1.6h4.5c1,0,2.3-0.8,2.8-1.7l1.1-2.1c0.5-0.9,1.7-1.7,2.8-1.7h7.9 c1.1,0,1.6-0.7,1-1.7l-2-3.7c-0.5-0.9-1.1-1.2-2.1-1.2h-1.2c-1,0-1.5-0.8-1-1.7l1.8-3.4C215.1,27.4,215.9,27.5,216.4,28.4 L216.4,28.4z M91.5,28.4l8.3,15.4c0.5,1,1.7,1.7,2.8,1.7h5.2c1.1,0,1.5-0.7,1-1.6L95.1,20.3c-0.5-0.9-1.8-1.7-2.9-1.7h-3 c-1,0-2.3,0.8-2.8,1.7L73.1,43.8c-0.5,0.9-0.1,1.6,0.9,1.6h4.5c1,0,2.3-0.7,2.8-1.7l1.1-2.1c0.5-0.9,1.7-1.7,2.8-1.7h7.9 c1,0,1.5-0.7,1-1.7l-2-3.7c-0.5-0.9-1-1.2-2.1-1.2h-1.2c-1,0-1.5-0.8-1-1.7l1.8-3.4C90.2,27.4,90.9,27.4,91.5,28.4L91.5,28.4z"/>
</svg>
