<svg class="lt-brand-logo" xmlns="http://www.w3.org/2000/svg" width="42" height="48" viewBox="0 0 42 48">
  <title>Alpha logomark</title>
  <path d="M21.6,20.3l6.2,11.5c0.4,0.7,1.3,1.3,2.1,1.3h4.2c0.8,0,1.1-0.5,0.7-1.2L24.7,14.2c-0.4-0.7-1.4-1.3-2.2-1.3h-2.7 c-0.8,0-1.7,0.6-2.1,1.3l-10,17.7c-0.4,0.7-0.1,1.2,0.7,1.2h3.6c0.8,0,1.8-0.5,2.2-1.3l0.8-1.4c0.4-0.7,1.3-1.3,2.1-1.3h5.9 c0.8,0,1.1-0.5,0.7-1.3l-1.6-3.1c-0.3-0.7-0.8-0.9-1.6-0.9h-0.9c-0.8,0-1-0.4-0.6-1.1l1.4-2.5C20.8,19.6,21.2,19.6,21.6,20.3 L21.6,20.3z M41.3,11.5c0.4,0.2,0.7,0.7,0.7,1.2v22.7c0,0.5-0.2,0.9-0.7,1.2L21.7,47.8c-0.4,0.2-0.9,0.2-1.4,0L0.7,36.5 C0.2,36.2,0,35.8,0,35.3V12.7c0-0.5,0.2-0.9,0.7-1.2L20.3,0.2c0.4-0.2,0.9-0.2,1.4,0L41.3,11.5L41.3,11.5z M41.9,40.8 c0-0.7-0.6-1.3-1.3-1.3c-0.7,0-1.3,0.6-1.3,1.3c0,0.7,0.6,1.3,1.3,1.3C41.3,42.1,41.9,41.5,41.9,40.8z M39.4,40.8 c0-0.6,0.5-1.1,1.1-1.1c0.6,0,1.1,0.5,1.1,1.1c0,0.6-0.5,1.1-1.1,1.1C39.9,41.9,39.4,41.4,39.4,40.8z M40.3,41.6v-0.7h0.3l0.4,0.7 h0.2l-0.5-0.7c0.3,0,0.4-0.1,0.4-0.4c0-0.3-0.1-0.4-0.5-0.4h-0.6v1.5L40.3,41.6L40.3,41.6L40.3,41.6z M40.5,40.7h-0.2v-0.5h0.3 c0.2,0,0.3,0,0.3,0.3C40.9,40.7,40.7,40.7,40.5,40.7L40.5,40.7z"/>
</svg>