<svg class="lt-brand-logo" xmlns="http://www.w3.org/2000/svg" width="107" height="36" viewBox="0 0 107 36">
	<title>Amp</title>
	<path d="M33.2,36l-5-15.1H5.1L0,36h4.4l3.6-11.2h17L28.6,36H33.2z M22.9,18.2h4.4L21.3,0l-4.2,0L22.9,18.2L22.9,18.2z M85.6,36V0 h-4.3V36L85.6,36L85.6,36z M42.2,0H38V36h4.2V0z M72.7,0h-4.2V36h4.2V0z M67.5,0h-4.5l-7.7,24.3h-0.1L47.6,0h-4.4L52,27.3h6.6 L67.5,0L67.5,0z M6,18.2l4.3,0.1l6-18.2h-4.1L6,18.2z M88.4,17.4v4h6.3c7.6,0,12.1-4,12.1-10.7C106.8,4,102.3,0,94.6,0h-6.3v4h6 c5.2,0,8,2.3,8,6.7c0,4.4-2.8,6.7-8,6.7L88.4,17.4L88.4,17.4z"/>
</svg>
