<svg class="lt-brand-logo" xmlns="http://www.w3.org/2000/svg" width="186" height="32" viewBox="0 0 186 32">
  <path d="M15.07.09L0,31.56h6.03l2.51-5.23h13.32l2.43,5.23h6.29L15.51.09h-.44ZM10.85,21.5l4.45-9.28,4.31,9.28h-8.76,0ZM93.03,0h-.04c-9.48,0-16.22,6.65-16.22,16s6.74,16,16.22,16h.04c9.48,0,16.22-6.65,16.22-16S102.52,0,93.03,0ZM93.03,26.59c-5.98,0-10.11-4.3-10.11-10.59s4.12-10.59,10.11-10.59,10.06,4.3,10.06,10.59-4.08,10.59-10.06,10.59ZM65.42,9.26c0-4.39-3.37-8.77-10.15-8.77h-13.21v31.02h5.89v-12.68h5.12l8.49,12.68h7.14l-9.45-13.82c4.12-1.43,6.17-4.98,6.17-8.42h0ZM47.96,5.45h6.38c2.97,0,5.01,1.73,5.01,4.26s-2.04,4.3-5.01,4.3h-6.38V5.45ZM179.55,31.51h6.25L170.73.04h-.44l-15.07,31.47h6.03l2.53-5.27h13.32l2.45,5.27ZM166.06,21.45l4.47-9.33,4.34,9.33h-8.81ZM145.29,9.26c0-4.39-3.37-8.77-10.15-8.77h-13.21v31.02h5.89v-12.68h5.12l8.49,12.68h7.14l-9.45-13.82c4.12-1.43,6.17-4.98,6.17-8.42h0ZM127.82,5.45h6.38c2.97,0,5.01,1.73,5.01,4.26s-2.04,4.3-5.01,4.3h-6.38V5.45h0Z"/>
</svg>