<svg class="lt-brand-logo" xmlns="http://www.w3.org/2000/svg" width="20.125em" height="36" viewBox="0 0 322 36">
  <title>Basketball</title>
  <path d="M305.2,0.5h7.4l-6.1,28.4h15l-1.5,6.6h-22.4L305.2,0.5z M278.3,0.5h7.4l-6.1,28.4h15l-1.5,6.6h-22.4L278.3,0.5z M250.8,0.5 h10.6l4.3,35h-7.6l-0.8-8.5h-13.5l-4.6,8.5h-8.2L250.8,0.5z M256.7,20.8l-1.5-14.9h-0.1l-8,14.9H256.7z M228.5,2.7 c2,1.5,3,3.7,3,6.5c0,2.2-0.8,4.2-2.2,5.7c-1.5,1.5-3.4,2.5-5.7,2.8l0,0.1c1.9,0.4,3.4,1.1,4.5,2.4c1.1,1.3,1.7,2.8,1.7,4.7 c0,2.1-0.6,3.9-1.7,5.5c-1.2,1.7-2.8,2.9-4.8,3.8c-2.1,0.9-4.5,1.4-7.2,1.4h-16.9l7.6-35h13.5C223.7,0.5,226.4,1.2,228.5,2.7z M220.5,28.5c1.1-1,1.7-2.2,1.7-3.7c0-1.3-0.5-2.4-1.4-3.1c-0.9-0.8-2.2-1.1-3.9-1.1h-7.1l-2,9.4h8.4 C218,29.9,219.4,29.4,220.5,28.5z M222.4,13.7c1-1,1.5-2.1,1.5-3.6c0-1.4-0.5-2.4-1.3-3.1c-0.9-0.7-2.1-1-3.6-1h-6.1l-2,9h7.6 C220.1,15.1,221.4,14.6,222.4,13.7L222.4,13.7z M182.6,7.1H172l1.5-6.6h28.7l-1.4,6.6h-10.7L184,35.5h-7.4L182.6,7.1z M145.3,0.5h24 l-1.4,6.6h-16.6l-1.6,7.5H165l-1.4,6.4h-15.3l-1.8,8.1h16.9l-1.4,6.6h-24.3L145.3,0.5z M109.4,0.5h7.4l-3,13.9h3.1l13.7-13.9h9 l-16.9,17.1l0,0.1l10.6,17.8h-8.4L116.3,21h-4l-3.1,14.5h-7.4L109.4,0.5L109.4,0.5z M76.6,34.7c-2-0.9-3.5-2.2-4.6-3.9 c-1.1-1.7-1.7-3.7-1.8-6H78c0.1,1.7,0.7,2.9,1.7,3.8c1,0.8,2.5,1.3,4.4,1.3c2,0,3.5-0.3,4.5-1.1c1-0.8,1.5-1.8,1.5-3.1 c0-1-0.4-1.8-1-2.4c-0.7-0.6-1.8-1.1-3.3-1.7l-3.5-1.1c-2.9-0.8-5-2.1-6.3-3.7c-1.4-1.6-2-3.6-2-5.9c0-2.1,0.6-3.9,1.7-5.6 c1.1-1.7,2.8-2.9,4.8-3.9c2.1-1,4.5-1.4,7.2-1.4C90,0,92.1,0.4,94,1.3c1.9,0.8,3.3,2.1,4.5,3.8c1.1,1.7,1.7,3.6,1.7,5.8h-7.5 c-0.1-1.5-0.8-2.6-1.8-3.5c-1.1-0.8-2.4-1.2-4-1.2c-1.6,0-3.1,0.3-4,1.1C81.9,8,81.4,9,81.4,10.2c0,1,0.3,1.7,0.9,2.2 c0.6,0.6,1.7,1.1,3.3,1.7l3.6,1.1c2.9,0.9,5,2.1,6.3,3.7c1.3,1.5,2,3.5,2,5.8c0,2.1-0.6,4-1.8,5.8c-1.2,1.8-2.8,3.1-5,4 c-2.1,1-4.6,1.5-7.5,1.5C80.8,36,78.6,35.6,76.6,34.7L76.6,34.7z M51.5,0.5h10.6l4.4,35h-7.6L58,27.1H44.4l-4.6,8.5h-8.2L51.5,0.5z M57.4,20.8L55.9,5.9h-0.1l-8,14.9H57.4z M29.1,2.8c2,1.5,3.1,3.6,3.1,6.4c0,2.2-0.7,4.2-2.2,5.7c-1.5,1.5-3.4,2.5-5.7,2.9l0,0.1 c1.9,0.4,3.4,1.1,4.5,2.4c1.1,1.3,1.7,2.8,1.7,4.7c0,2.1-0.6,3.9-1.7,5.5c-1.2,1.7-2.8,2.9-4.8,3.8c-2.1,0.9-4.5,1.4-7.3,1.4H0 l7.6-35h13.2C24.3,0.5,27.1,1.2,29.1,2.8L29.1,2.8z M21.2,28.5c1.1-1,1.7-2.2,1.7-3.7c0-1.3-0.4-2.4-1.4-3.1 c-0.9-0.8-2.2-1.1-3.9-1.1h-6.8l-2.1,9.4h8.2C18.6,29.9,20.1,29.4,21.2,28.5z M23.1,13.7c1-1,1.5-2.1,1.5-3.6c0-1.4-0.4-2.4-1.3-3.1 c-0.8-0.7-2.1-1-3.6-1h-5.9l-2,9h7.3C20.8,15.1,22,14.7,23.1,13.7L23.1,13.7z"/>
</svg>
