<svg class="lt-brand-logo" xmlns="http://www.w3.org/2000/svg" width="40" height="40" viewBox="0 0 40 40">
  <title>Basketball Mark</title>
  <path fill-rule="evenodd" clip-rule="evenodd" d="M15,0.6c2.1,0.4,4.3,1.2,6.4,2.4c1.5-1.1,1.8-2,1.9-2.4c0-0.1,0-0.2,0-0.3l-0.1,0 c-0.2,0-0.3-0.1-0.5-0.1C20.2-0.2,17.6,0,15,0.6L15,0.6z M23.2,4.1c1.3-1.2,1.9-2.2,2.1-3.2v0c0-0.1,0-0.1,0-0.1c0,0,0,0,0-0.1 c2.1,0.6,4.1,1.5,6,2.8c-1.3,0.4-3.1,1.2-5.4,2.7C25,5.4,24.1,4.8,23.2,4.1z M32.1,5.2C32.6,5.1,33,5.1,33.3,5v0 c1,0.9,1.9,1.8,2.7,2.9c0.7,1,1.4,2,1.9,3.1c-0.6-0.4-1.2-0.8-1.9-1.1c-1.6-0.6-3.7-0.6-5.8,0.6c-0.9-1.1-1.8-2.1-2.8-3.1 C29.5,6.1,31.1,5.5,32.1,5.2z M23.9,7.6c-1.9,1.4-4,3.3-6.5,5.7h0C13.5,17,10,20.9,7.5,24.5c-1.8,2.6-3.1,5-3.7,7.3 c-3.2-4.4-4.4-9.6-3.7-14.6c0,0,0-0.1,0-0.1c0,0,0,0,0-0.1c0.9-1.7,2.1-3,3.4-4.1c2.7-2,6.1-3,9.3-3.9l0,0c0.3-0.1,0.5-0.2,0.8-0.2 c4.5-1.3,6.9-2.9,7.2-3.1c0.2-0.1,0.4-0.2,0.6-0.4c0.9,0.6,1.8,1.2,2.7,2l-0.1,0.1l0,0C24,7.5,24,7.6,23.9,7.6z M22.4,30.7 c1-3.9,1.6-7.6,1.7-8.6l0-0.1l0-0.1c0,0,0-0.1,0-0.2l0,0c0.1-0.7,0.4-2.5,1.1-4.4c0.7-1.9,1.7-4.1,3.5-5.7c-0.9-1.1-1.9-2.2-2.9-3.1 c-0.2,0.2-0.5,0.3-0.7,0.5c-1.8,1.4-3.9,3.2-6.3,5.5c-3.8,3.7-7.2,7.5-9.6,10.9c-2.2,3.2-3.5,6.1-3.6,8.2c3.2,3.4,7.4,5.4,11.7,6 c0.5,0.1,0.9,0.1,1.4,0.1c0.6-0.6,1.3-1.8,1.9-3.3C21.2,34.9,21.8,32.8,22.4,30.7L22.4,30.7z M39.7,16.4c0.4,2.1,0.4,4.3,0.2,6.4v0 c-0.4,2.6-1.3,5.2-2.7,7.5c0.6-5.5-1.4-12.2-5.8-18.1c1.6-0.8,2.8-0.8,3.9-0.4c1.3,0.5,2.3,1.5,3.1,2.6c0.5,0.6,0.8,1.2,1.1,1.7 C39.6,16.1,39.6,16.3,39.7,16.4z M1.6,12.2L1.6,12.2L1.6,12.2L1.6,12.2z M1.6,12.2c0.3-0.3,0.6-0.5,0.9-0.7c0,0,0,0,0,0c0,0,0,0,0,0 c3-2.2,6.6-3.3,9.7-4.2c0.4-0.1,0.7-0.2,1.1-0.3c3.6-1.1,5.7-2.2,6.4-2.7c-3.1-1.6-6.2-2.3-8.9-2C9.7,2.8,8.8,3.4,7.9,4 C5.1,6.2,2.9,9,1.6,12.2z M29.8,13.3c5.3,7.3,6.7,15.6,4.4,20.8l0,0c-0.7,0.7-1.4,1.3-2.2,1.9c-3.3,2.5-7.2,3.8-11,4 c0.5-0.8,0.9-1.6,1.3-2.6c2.1-5.3,3.4-13.2,3.7-14.9c0-0.1,0-0.2,0-0.2c0,0,0-0.1,0-0.1c0.1-0.7,0.4-2.3,1-4.1 C27.6,16.3,28.5,14.5,29.8,13.3z"/>
</svg>
