<svg class="lt-brand-logo" xmlns="http://www.w3.org/2000/svg" width="262" height="24" viewBox="0 0 262 24">
  <title>Be Meditation</title>
  <path fill-rule="evenodd" clip-rule="evenodd" d="M0,23.7V24h11.1c5.6,0,9.3-2.1,9.3-6.7c0-4-3.4-5.6-6.9-5.8v-0.1 c3-0.2,5.9-2.2,5.9-5.5c0-4.4-3.6-6-9-6H0v0.3L2.1,2v20L0,23.7z M9.8,1.5c3.3,0,5.5,1.4,5.5,4.6c0,3.6-2.4,4.8-5.6,4.8H6.2V1.5H9.8z M10,12.4c3.8,0,6.2,1.4,6.2,5c0,3.6-2.4,5.1-5.9,5.1H6.2V12.4H10z M32,22l-2.1,1.7V24h18.9l0-6h-0.3l-3.2,4.5h-9.3V12.4h7.2 l2.1,2.6h0.3V8.3h-0.2l-2.1,2.6h-7.2V1.5h8.6l3.2,4.3h0.3V0H29.9v0.3L32,2V22z M76.2,12.2c0-3.2,2.3-5.8,4.6-7.4l0.8,0.7 c-1.5,1.6-2.7,3.8-2.7,6.7c0,2.9,1.2,5,2.7,6.6l-0.7,0.8C78.5,18,76.2,15.4,76.2,12.2z M95.5,7.7l0,8.7l-1.8,1.3v0.5h4.8v-0.5 l-1.9-1.3l0-8.3l4.3,8.1h0.9l4.1-7.7v8.2l-1.5,1v0.5h5.6v-0.5l-1.3-1V7.7l1.3-1V6.2h-4.3l-3.5,6.7h0l-3.5-6.7h-4.7v0.5L95.5,7.7z M116.1,16.7V7.7l-1.4-1V6.2h10v3.7h-0.5l-2-2.6h-3.3v4h2.6l1.2-1.6h0.5v4.3h-0.5l-1.2-1.6h-2.6v4.8h3.9l1.9-2.8h0.3l-0.1,3.6h-10.3 v-0.5L116.1,16.7z M131.6,16.7l-1.4,1v0.5h6c3.9,0,6.9-1.9,6.9-6.1c0-3.9-2.9-5.9-7.3-5.9h-5.6v0.5l1.4,1V16.7z M140,12.1 c0,3.5-1.6,4.9-4.1,4.9h-1.5V7.4h1.3C138.4,7.4,140,9,140,12.1z M149.4,16.7V7.7l-1.2-1V6.2h5.2v0.5l-1.2,1v9.1l1.2,1v0.5h-5.2v-0.5 L149.4,16.7z M162.5,7.4v9.4l-1.6,1v0.5h6.1v-0.5l-1.6-1V7.4h1.8l2,2.6h0.5V6.2h-11.4v3.7h0.5l2-2.6H162.5z M172.1,17.7l1.9-1.8 l4.6-9.7h0.6l4.6,9.6l1.6,1.9v0.5H180v-0.5l1.1-0.9l-0.9-1.9h-4.5l-0.7,1.6l1.8,1.2v0.5h-4.7V17.7z M179.7,13.7L178,10l-1.7,3.7 H179.7z M192.1,7.4v9.4l-1.6,1v0.5h6.1v-0.5l-1.6-1V7.4h1.8l2,2.6h0.5V6.2h-11.4v3.7h0.5l2-2.6H192.1z M205.3,16.7V7.7l-1.2-1V6.2 h5.2v0.5l-1.2,1v9.1l1.2,1v0.5h-5.2v-0.5L205.3,16.7z M220.6,6c-3.5,0-6.3,2.6-6.3,6.2c0,3.8,2.8,6.1,6.3,6.1c3.5,0,6.3-2.5,6.3-6.2 C226.9,8.4,224.1,6,220.6,6z M223.8,12.2c0,3.2-1,5-3.1,5c-2.1,0-3.1-1.8-3.1-5c0-3.2,1-5,3.1-5S223.8,9,223.8,12.2z M231.4,17.7 l1.7-1.3V7.7l-1.3-1V6.2h4.1l5.7,6.8V8L240,6.7V6.2h4.6v0.5L243,8v10.3h-0.6l-8-9.5v7.6l1.8,1.3v0.5h-4.7V17.7z M256.5,5.5 c1.5,1.6,2.7,3.8,2.7,6.7c0,2.8-1.2,5-2.7,6.6l0.7,0.8c2.2-1.5,4.6-4.1,4.6-7.4c0-3.2-2.3-5.8-4.6-7.4L256.5,5.5z"></path>
</svg>