<svg class="lt-brand-logo" xmlns="http://www.w3.org/2000/svg" width="138" height="40" viewBox="0 0 138 40">
  <title>Be Meditation</title>
  <path d="M75.1,15.6l0-13.9l-1.8-1.3V0l13.6,0v4.9h-0.4l-2.4-3.4l-5.8,0l0,6.1h4.8l1.5-2.2h0.4l0,5.8h-0.4l-1.5-2.1h-4.8l0,6.7l6.3,0 l2.4-3.6h0.4l0,5.1l-14,0v-0.4L75.1,15.6z M51.6,15.6L49.9,17v0.4l8.4,0c4.1,0,6.7-1.5,6.7-4.8c0-2.9-2.5-4-4.5-4.1v0 c1.7-0.2,3.8-1.6,3.8-4c0-3.1-2.6-4.3-6.5-4.3l-7.9,0v0.4l1.8,1.3L51.6,15.6z M61.1,4.5c0,2.3-1.7,3.2-3.9,3.2v0h-2.3l0-6.3h2.4 C59.5,1.5,61.1,2.4,61.1,4.5z M61.8,12.4c0,2.4-1.7,3.4-4.2,3.4v0h-2.7l0-6.8h2.5C60.6,9.1,61.8,10.1,61.8,12.4z M0,34.7 c0-2.3,1.7-4.2,3.3-5.3l0.5,0.5c-1.1,1.1-1.9,2.7-1.9,4.8c0,2,0.9,3.6,1.9,4.8L3.3,40C1.7,38.9,0,37,0,34.7z M14.5,31.4l0,6.3 l-1.3,0.9V39h3.5v-0.4l-1.3-0.9l0-6l3.1,5.9h0.7l2.9-5.5l0,5.9L21,38.6V39l4.1,0v-0.4l-1-0.7l0-6.5l1-0.7v-0.4H22l-2.5,4.8h0 l-2.5-4.8h-3.4v0.4L14.5,31.4z M29.7,37.9l0-6.5l-1-0.7v-0.4l7.2,0V33h-0.4l-1.4-1.9h-2.4v2.9h1.9l0.9-1.1h0.4v3.1h-0.4l-0.9-1.1 h-1.9v3.5h2.8l1.4-2h0.2l0,2.6l-7.4,0v-0.4L29.7,37.9L29.7,37.9z M41.2,37.9l-1,0.7V39h4.3c2.8,0,5-1.4,5-4.4c0-2.8-2.1-4.3-5.2-4.3 l-4.1,0v0.4l1,0.7L41.2,37.9z M47.2,34.6c0,2.5-1.1,3.5-3,3.5h-1.1l0-7h0.9C46.1,31.2,47.2,32.4,47.2,34.6z M54.3,37.9l0-6.5 l-0.9-0.7v-0.4l3.7,0v0.4l-0.9,0.7l0,6.5l0.9,0.7V39l-3.7,0v-0.4L54.3,37.9z M64.1,31.2l0,6.7l0,0l-1.2,0.7V39l4.4,0v-0.4l-1.2-0.7 l0-6.7h1.3l1.4,1.9h0.4v-2.7l-8.2,0V33h0.4l1.4-1.9H64.1z M71.3,38.6l1.4-1.3l3.3-7h0.4l3.3,6.9l1.2,1.3V39L77,39v-0.4l0.8-0.6 l-0.6-1.4h-3.2l-0.5,1.1l1.3,0.9V39h-3.4V38.6z M76.8,35.7l-1.2-2.7l-1.2,2.7H76.8z M86,31.1l0,6.7l-1.2,0.7V39l4.4,0v-0.4l-1.2-0.7 l0-6.7h1.3l1.4,1.9h0.4v-2.7l-8.2,0V33h0.4l1.4-1.9H86z M95.8,37.9l0-6.5L95,30.7v-0.4l3.7,0v0.4l-0.9,0.7l0,6.5l0.9,0.7v0.4l-3.7,0 v-0.4L95.8,37.9z M107.2,30.2c-2.5,0-4.5,1.9-4.5,4.5c0,2.7,2,4.4,4.5,4.4c2.5,0,4.5-1.9,4.5-4.5C111.7,31.8,109.7,30.2,107.2,30.2z M109.4,34.6c0,2.3-0.7,3.6-2.2,3.6c-1.5,0-2.2-1.3-2.3-3.6c0-2.3,0.7-3.6,2.2-3.6C108.7,31,109.4,32.3,109.4,34.6z M115.3,38.6 l1.2-0.9l0-6.3l-0.9-0.7v-0.4h3l4.1,4.9v-3.6l-1.2-0.9v-0.4h3.3v0.4l-1.2,1l0,7.4h-0.4l-5.8-6.9l0,5.5l1.3,0.9v0.4h-3.4L115.3,38.6 L115.3,38.6z M133.9,29.8c1.1,1.1,2,2.7,2,4.8l0,0c0,2-0.9,3.6-1.9,4.8l0.5,0.5c1.6-1.1,3.3-3,3.3-5.3c0-2.3-1.7-4.2-3.3-5.3 L133.9,29.8z"/>
</svg>
