<svg class="lt-brand-logo" xmlns="http://www.w3.org/2000/svg" width="413" height="36" viewBox="0 0 413 36">
  <title>Rock Climbing</title>
  <path d="M384.4,33.9c-2.1-1.4-3.9-3.2-5.1-5.6c-1.2-2.4-1.8-5.1-1.8-8c0-3.8,0.9-7.1,2.6-10.2c1.8-3.1,4.2-5.6,7.3-7.4 c3-1.8,6.4-2.7,10-2.7c2.9,0,5.4,0.5,7.6,1.5c2.2,1,4,2.4,5.3,4.3c1.4,1.8,2.1,4,2.4,6.6H405c-0.4-1.8-1.3-3.3-2.7-4.2 c-1.4-1-3.2-1.5-5.4-1.5s-4.3,0.6-6.1,1.8c-1.8,1.1-3.3,2.7-4.3,4.8c-1,2-1.5,4.3-1.5,6.8c0,2.9,0.8,5.2,2.4,6.9 c1.6,1.7,3.6,2.5,6.1,2.5c2.2,0,4.3-0.6,6.1-1.8c1.8-1.3,3.1-2.9,3.8-5h-8.3l1.2-5.8h16.2l-4.1,18.8H402l1-4.7 c-1.3,1.7-2.8,2.9-4.7,3.8c-1.9,0.9-4,1.4-6.4,1.4C389,36,386.6,35.3,384.4,33.9L384.4,33.9z M343.9,0.5h9.5l8.7,25.8h0.1l5.6-25.8 h6.9l-7.6,35h-9.3L349,9.2h-0.1l-5.6,26.3h-6.9L343.9,0.5z M328.3,0.5h7.4l-7.5,35h-7.4L328.3,0.5z M315.3,2.7c2,1.5,3,3.6,3,6.4 c0,2.2-0.7,4.2-2.2,5.6c-1.5,1.5-3.4,2.4-5.7,2.8l-0.1,0.1c1.9,0.3,3.4,1.1,4.5,2.4c1.1,1.2,1.6,2.7,1.6,4.6c0,2.1-0.6,3.9-1.7,5.5 c-1.1,1.7-2.7,2.9-4.8,3.8c-2.1,0.9-4.5,1.4-7.2,1.4h-16.8l7.6-35H307C310.5,0.5,313.2,1.2,315.3,2.7z M307.3,28.4 c1.1-0.9,1.6-2.1,1.6-3.6c0-1.4-0.4-2.4-1.3-3.1c-0.9-0.7-2.2-1.1-3.9-1.1h-7.1l-2,9.3h8.4C304.8,29.9,306.2,29.4,307.3,28.4z M309.2,13.7c1-1,1.5-2.1,1.5-3.5c0-1.3-0.5-2.4-1.3-3c-0.8-0.7-2.1-1-3.6-1h-6.1l-1.9,9h7.5C306.9,15.1,308.2,14.6,309.2,13.7 L309.2,13.7z M249.4,0.5h10.7l2.5,20.1h0.1L274,0.5h11.3l-7.5,35h-7l5.9-27.3h-0.1L265,28.3h-7.7l-2.4-20.1h-0.1l-5.9,27.3h-7 L249.4,0.5z M233.8,0.5h7.4l-7.5,35h-7.4L233.8,0.5z M206,0.5h7.4l-6.1,28.4h14.8l-1.4,6.6h-22.2L206,0.5z M169.3,34 c-2.3-1.3-4.1-3.2-5.3-5.6c-1.2-2.4-1.8-5.1-1.8-8.1c0-3.8,0.8-7.1,2.6-10.2c1.7-3.1,4.1-5.6,7-7.3c2.9-1.8,6.2-2.7,9.8-2.7 c2.7,0,5.1,0.6,7.2,1.7c2.1,1,3.8,2.6,5.1,4.6c1.3,2,2,4.2,2.2,6.9h-7.5c-0.2-2.1-1.1-3.6-2.4-4.8c-1.3-1.1-3.1-1.8-5.2-1.8 s-4.1,0.6-5.8,1.8c-1.7,1.1-3,2.7-4,4.7c-1,2-1.5,4.2-1.5,6.8c0,3,0.7,5.3,2.3,7c1.5,1.7,3.5,2.5,6.1,2.5c2,0,3.9-0.6,5.5-1.7 c1.6-1.1,2.9-2.8,3.7-4.9h7.5c-1.4,4.2-3.5,7.5-6.5,9.8c-3,2.2-6.6,3.4-10.8,3.4C174.4,36,171.7,35.3,169.3,34z M121.6,0.5h7.4 l-3,13.9h3l13.7-13.9h8.9l-16.8,17.1l-0.1,0.1l10.6,17.8h-8.4L128.5,21h-3.9l-3.1,14.5h-7.4L121.6,0.5z M85,34 c-2.3-1.3-4.1-3.2-5.3-5.6c-1.3-2.4-1.9-5.1-1.9-8.1c0-3.8,0.8-7.1,2.6-10.2c1.7-3.1,4.1-5.6,7-7.3C90.4,0.9,93.7,0,97.3,0 c2.7,0,5.1,0.6,7.2,1.7c2.1,1,3.8,2.6,5.1,4.6c1.3,2,2,4.2,2.2,6.9h-7.5c-0.2-2.1-1.1-3.6-2.4-4.8c-1.3-1.1-3.1-1.8-5.2-1.8 c-2.1,0-4.1,0.6-5.8,1.8c-1.7,1.1-3.1,2.7-4,4.7c-0.9,2-1.4,4.2-1.4,6.8c0,3,0.7,5.3,2.3,7c1.5,1.7,3.5,2.5,6.1,2.5 c2,0,3.9-0.6,5.5-1.7c1.6-1.1,2.9-2.8,3.7-4.9h7.5c-1.3,4.2-3.5,7.5-6.5,9.8c-3,2.3-6.6,3.4-10.8,3.4C90,36,87.3,35.3,85,34z M45.1,34c-2.4-1.4-4.4-3.2-5.7-5.6c-1.3-2.4-2-5.1-2-8.1c0-3.8,0.9-7.1,2.7-10.2c1.8-3.1,4.2-5.6,7.3-7.3C50.5,0.9,53.8,0,57.5,0 c3.1,0,6,0.6,8.4,2c2.4,1.3,4.3,3.2,5.7,5.6c1.3,2.4,2,5,2,8.1c0,3.8-0.9,7.1-2.7,10.2c-1.8,3.1-4.3,5.6-7.3,7.3 c-3,1.8-6.4,2.7-10.1,2.7C50.4,36,47.6,35.3,45.1,34L45.1,34z M60.2,27.6c1.8-1.1,3.3-2.8,4.3-4.8c1.1-2,1.5-4.3,1.5-6.8 c0-2.9-0.8-5.3-2.5-6.9c-1.7-1.7-3.9-2.5-6.6-2.5c-2.2,0-4.3,0.6-6.1,1.8c-1.8,1.1-3.3,2.7-4.3,4.8c-1,2-1.5,4.3-1.5,6.8 c0,2.9,0.8,5.3,2.5,7c1.6,1.7,3.9,2.5,6.6,2.5C56.3,29.4,58.4,28.8,60.2,27.6z M30.2,3.2c2.1,1.8,3.1,4.3,3.1,7.6 c0,1.9-0.4,3.6-1.2,5.2c-0.8,1.5-2,2.8-3.5,3.9c-1.5,1-3.2,1.7-5.1,2.1l6.2,13.3h-8L16,23.1h-5.9L7.4,35.5H0l7.5-35h13.9 C25.1,0.5,28,1.4,30.2,3.2z M24.2,15.2c1-1,1.6-2.2,1.6-3.8c0-1.4-0.5-2.5-1.3-3.2c-1-0.7-2.2-1.1-4-1.1h-6.9l-2,9.7H20 C21.7,16.7,23.1,16.2,24.2,15.2z"/>
</svg>
