<svg class="lt-brand-logo" xmlns="http://www.w3.org/2000/svg" width="265" height="152" viewBox="0 0 265 152">
  <title>Dynamic Personal Training</title>
  <path fill-rule="evenodd" clip-rule="evenodd" d="M235.2,0l-0.8,5.2H259l-17.9,113h-24.6l-0.8,5.2h29.8L264.9,0H235.2z M10.6,118.1 h24.6l-0.8,5.2H4.6L24.1,0h29.8l-0.8,5.2H28.5L10.6,118.1z M120,18.4l-13.7,86.5h23.4l4.5-28.3c20.2,0.6,35.1-6.3,38.7-28.8 c3.6-22.7-11.1-29.4-31.6-29.4H120z M140.5,37.1l1.7-0.1c5.7,0,7.9,4.9,7,10.4c-1,6.4-5.5,10-11.9,9.6L140.5,37.1z M72.8,18.4H54 l-13.6,86.5h20.4c14.2,0,39.9-3.7,46.2-43.6C111.1,35.2,99.4,18.4,72.8,18.4z M83,62.5c-1.4,8.1-5.3,21.5-15.9,21.6l7-44.1 C84.7,40,84.5,53.1,83,62.5z M178.9,104.9l10.3-65.4h-12.9l3.3-21.1h49.7l-3.3,21.1h-13.4l-10.3,65.4L178.9,104.9z M130.4,144.4 c0.6-3.6-0.4-7.6-4.4-7.6c-4,0-6.2,4-6.8,7.6c-0.6,3.6,0.4,7.6,4.4,7.6C127.6,152,129.8,148,130.4,144.4z M126.3,144.4 c-0.2,0.9-0.7,3.9-2.2,3.9c-1.5,0-1.1-3-0.9-3.9c0.1-0.9,0.7-3.9,2.2-3.9C126.9,140.5,126.5,143.5,126.3,144.4z M110.7,146.8 c0.4,0.8,1.2,1.6,2.3,1.6c0.5,0,1.2-0.3,1.3-1c0.1-0.4,0-0.6-0.2-0.8c-0.1-0.2-0.3-0.4-0.6-0.6c-0.7-0.6-1.3-1.2-1.7-1.9 c-0.4-0.7-0.6-1.5-0.4-2.6c0.3-1.7,1.9-4.8,5.3-4.8c1,0,1.9,0.3,2.7,0.7l-0.7,4.5c-0.4-0.7-1.2-1.6-2.1-1.6c-0.5,0-1.1,0.3-1.2,0.9 c-0.1,0.3,0.1,0.6,0.3,0.8c0.1,0.2,0.3,0.3,0.4,0.4c0.1,0.1,0.1,0.1,0.2,0.2c0.7,0.6,1.3,1.1,1.7,1.8c0.4,0.7,0.5,1.4,0.3,2.6 c-0.4,2.7-2.7,4.9-5.5,4.9c-1,0-2-0.2-2.9-0.6L110.7,146.8z M74.6,141.3c-0.5-0.5-0.9-0.9-1.7-0.9c-2.1,0-2.9,2.3-3.2,3.9 c-0.3,1.7-0.1,3.9,1.9,3.9c0.9,0,1.5-0.4,2.3-0.9l-0.9,4.1c-0.9,0.4-1.6,0.5-2.5,0.5c-3.3,0-5.6-2.5-4.8-7.5c1-6.6,5.7-7.7,7.7-7.7 c0.7,0,1.4,0.1,2,0.4L74.6,141.3z M54.8,151.7l1.1-9.3h0c-0.2,0.5-0.3,0.9-0.4,1.4l0,0c-0.2,0.6-0.4,1.2-0.6,1.8l-2.1,6h-3.2 l0.1-9.3h0c-0.1,0.5-0.2,0.9-0.2,1.4c-0.1,0.6-0.2,1.3-0.3,1.9l-1.3,6h-4.3l4-14.7h5l-0.1,7.8h0c0.3-0.9,0.5-1.8,0.8-2.7L55,137h4.9 L59,151.7H54.8z M5.6,137H2.4l-2.3,14.7h3.5c2.4,0,6.8-0.6,7.9-7.4C12.1,139.9,10.1,137,5.6,137z M7.3,144.5 c-0.2,1.4-0.9,3.6-2.7,3.7l1.2-7.5C7.6,140.7,7.6,142.9,7.3,144.5z M13.7,145.5l-1,6.2h4l1-6.2l4.8-8.5h-4.1l-2.1,4.6h0l-0.7-4.6 h-4.1L13.7,145.5z M22.8,137h3.8l1.8,8.9l0,0c0-0.6,0.1-1.1,0.1-1.7c0-1.1,0.1-2.3,0.3-3.4l0.6-3.7h3.8l-2.3,14.7H27l-1.6-8.5l0,0 c0,0.5-0.1,1-0.1,1.5c-0.1,0.9-0.1,1.8-0.3,2.7l-0.7,4.3h-3.8L22.8,137z M38.8,149.8v1.9h4.1L42.1,137h-4.9l-5.9,14.7h4.1l0.6-1.9 H38.8z M38.9,143.3l-0.1,3.4h-1.7l1.1-3.4c0.2-0.6,0.4-1.2,0.5-1.8l0,0h0h0c0.1-0.3,0.2-0.6,0.3-1h0C39,141.4,38.9,142.4,38.9,143.3 z M62,137l-2.3,14.7h4L66,137H62z M82.5,137l-2.3,14.7h4l0.8-4.8c3.4,0.1,6-1.1,6.6-4.9c0.6-3.9-1.9-5-5.4-5H82.5z M86,140.2l0.3,0 c1,0,1.4,0.8,1.2,1.8c-0.2,1.1-0.9,1.7-2,1.6L86,140.2z M93,137h7.4l-0.5,3.5h-3.4l-0.3,2.1h3.1l-0.6,3.5h-3.1l-0.4,2.2h3.4 l-0.5,3.5h-7.4L93,137z M104,145.6l1.2,6.1v0h4.3l-2-6.1c1.7-0.6,2.6-2.1,2.9-3.7c0.6-3.9-1.7-4.9-5.2-4.9h-3.9l-2.3,14.7h4l0.6-3.9 C103.8,147.1,103.9,146.4,104,145.6L104,145.6z M106.5,142c-0.1,1-0.9,1.9-1.9,1.9l-0.3,0l0.6-3.6C106,140.1,106.7,140.7,106.5,142z M132.4,137h3.8l1.8,8.9l0,0c0-0.6,0.1-1.1,0.1-1.7v0c0-1.1,0.1-2.3,0.3-3.4l0.6-3.7h3.8l-2.3,14.7h-3.8l-1.6-8.5l0,0 c0,0.5-0.1,1-0.1,1.5c-0.1,0.9-0.1,1.8-0.3,2.7l-0.7,4.3h-3.8L132.4,137z M148.4,149.8v1.9h4.1l-0.8-14.7h-4.9l-5.9,14.7h4.1 l0.6-1.9H148.4z M148.5,143.3l-0.1,3.4h-1.7l1.1-3.4c0.2-0.6,0.4-1.2,0.5-1.8l0,0c0.1-0.3,0.2-0.6,0.3-1h0 C148.6,141.4,148.5,142.4,148.5,143.3z M153.1,151.7L153.1,151.7l7,0l0.5-3.5h-3l1.8-11.2h-4L153.1,151.7L153.1,151.7L153.1,151.7z M169.3,140.6l-1.8,11.1h4l1.8-11.1h2.3l0.6-3.6h-8.5l-0.6,3.6H169.3z M180.8,151.7l-1.2-6.1l-0.1,0c-0.1,0.7-0.2,1.4-0.3,2.2 l-0.6,3.9h-4L177,137h3.8c3.5,0,5.8,1,5.2,4.9c-0.3,1.6-1.2,3.1-2.9,3.7l1.9,6l5.8-14.5h4.9l0.8,14.7h-4.1v-1.9h-2.7l-0.6,1.9H185 l0,0L180.8,151.7L180.8,151.7z M180.2,143.8c1.1,0,1.8-0.9,1.9-1.9c0.2-1.3-0.5-1.8-1.6-1.8l-0.6,3.6L180.2,143.8z M192.6,143.3 l-0.1,3.4h-1.7l1.1-3.4c0.2-0.6,0.4-1.2,0.5-1.8h0v0v0v0v0c0.1-0.3,0.2-0.6,0.3-1h0C192.7,141.4,192.6,142.4,192.6,143.3z M197.2,151.7l2.3-14.7h4l-2.3,14.7H197.2z M208.3,137h-3.8l-2.3,14.7h3.8l0.7-4.3c0.1-0.9,0.2-1.8,0.3-2.7c0-0.5,0.1-1,0.1-1.5l0,0 l1.6,8.5h3.8l2.3-14.7h-3.8l-0.6,3.7c-0.2,1.1-0.2,2.3-0.3,3.4l0,0c0,0.6,0,1.1-0.1,1.7l0,0L208.3,137z M213.7,151.7l2.3-14.7h4 l-2.3,14.7H213.7z M224.9,137h-3.8l-2.3,14.7h3.8l0.7-4.3c0.1-0.9,0.2-1.8,0.3-2.7l0,0v0l0,0l0,0c0-0.5,0.1-1,0.1-1.5l0,0l1.6,8.5 h3.8l2.3-14.7h-3.8l-0.6,3.7c-0.2,1.1-0.2,2.3-0.3,3.4v0c0,0.6,0,1.1-0.1,1.7l0,0L224.9,137z M242.1,143.2l-0.1,0.6 c-0.6,3.6-2,8.1-6.6,8.1c-4.3,0-5.1-3.8-4.6-7.5c0.6-3.7,2.6-7.7,6.9-7.7c2.4,0,3.9,1.5,4.4,3.6l-4.1,1.4c0.1-0.6-0.2-1.5-0.9-1.5 c-1.7,0-2.2,2.9-2.4,4.2l0,0l0,0c0,0.1,0,0.2,0,0.2c0,0.1,0,0.3,0,0.4c-0.1,1.2-0.4,3.2,1,3.2c1.1,0,1.6-1.2,1.7-2.1H236l0.5-3.1 H242.1z M244.8,137.7h0.5c0-0.2-0.1-0.4-0.2-0.5c-0.1-0.1-0.3-0.2-0.5-0.2c-0.2,0-0.4,0.1-0.5,0.2c-0.1,0.1-0.2,0.3-0.2,0.5 c0,0.3,0.2,0.6,0.6,0.7c0.1,0,0.3,0.1,0.3,0.2c0.1,0.1,0.1,0.1,0.1,0.2c0,0.1,0,0.2-0.1,0.2s-0.1,0.1-0.2,0.1 c-0.2,0-0.3-0.1-0.3-0.4h-0.5c0,0.2,0.1,0.4,0.2,0.5c0.1,0.1,0.3,0.2,0.6,0.2c0.3,0,0.4-0.1,0.6-0.2c0.1-0.1,0.2-0.3,0.2-0.5 c0-0.4-0.2-0.6-0.7-0.8c-0.1,0-0.2-0.1-0.3-0.1c-0.1-0.1-0.1-0.1-0.1-0.2c0-0.1,0-0.1,0.1-0.2c0.1,0,0.1-0.1,0.2-0.1 c0.1,0,0.2,0,0.2,0.1C244.7,137.6,244.8,137.6,244.8,137.7z M247.8,137.1l0.3,2.3h-0.5l-0.1-1.1c0-0.2,0-0.3,0-0.5h0c0,0,0,0,0,0.1 c0,0,0,0.1,0,0.1c0,0,0,0.1,0,0.1c0,0,0,0.1,0,0.1c0,0,0,0.1,0,0.1l-0.3,1.1h-0.3l-0.3-1.1c-0.1-0.2-0.1-0.4-0.1-0.5h0 c0,0,0,0,0,0.1l0,0c0,0.1,0,0.2,0,0.4l-0.1,1.1h-0.4l0.3-2.3h0.5l0.3,1.1c0,0.1,0,0.1,0.1,0.2c0,0.1,0,0.1,0.1,0.2c0,0,0,0,0,0h0 l0,0c0-0.1,0.1-0.2,0.1-0.4l0.3-1.1L247.8,137.1L247.8,137.1z"/>
</svg>
