<svg class="lt-brand-logo" xmlns="http://www.w3.org/2000/svg" width="97" height="36" viewBox="0 0 97 36">
	<title>Edge</title>
	<path d="M92.4,21.5v14h3.9V17.6H81.7v3.9H92.4z M90,32.5v-4.6c-2,2.6-5.2,4.2-9,4.2c-8,0-12.5-5.6-12.5-14.1S73.2,3.8,80.6,3.8 c5.5,0,9.8,2.7,11.1,7.8h4.5C94.6,4.3,88.8,0,80.6,0c-9.9,0-16.5,7.3-16.5,18s6.5,18,16.4,18C84.7,36,87.8,34.7,90,32.5L90,32.5z M29,35.5h4.2v-35l-4.2,0V35.5L29,35.5z M4.2,35.5v-35H0v35H4.2L4.2,35.5z M6.9,15.6v3.9h13.8v-3.9H6.9L6.9,15.6z M6.9,31.6v3.8 h15.8v-3.8H6.9L6.9,31.6z M6.9,0.5v3.8h15.4V0.5H6.9z M35.8,31.7v3.8h3.4c13,0,19.5-6.6,19.5-17.5S52.2,0.5,39.2,0.5h-3.4v3.8h3.2 c10.5,0,15.3,4.4,15.3,13.7s-4.9,13.7-15.3,13.7H35.8L35.8,31.7z"/>
</svg>
