<svg class="lt-brand-logo" xmlns="http://www.w3.org/2000/svg" width="209" height="24" viewBox="0 0 209 24">
  <title>Fire HIIT</title>
  <path d="M2.1,22L0,23.8v0.2l8.9,0v-0.3l-2.7-1.9v-9.2h7.3l2,2.6h0.3V8.6h-0.3l-2.1,2.6H6.2V1.6h8.5L17.9,6h0.3V0.1H0v0.3l2.1,1.7V22 z M29.5,22.1l-2.1,1.7v0.3h8.3v-0.3l-2.1-1.7v-20l2.1-1.7V0.1h-8.3v0.3l2.1,1.7V22.1z M45.2,23.8l2.1-1.7v-20l-2.1-1.7V0.1h11.2 c5.6,0,9.2,1.9,9.2,6.5c0,3.5-2.3,5.3-5.7,6.1l5.5,8.3l2.6,2.8v0.3h-8.5v-0.3l1.9-1.6l-5.9-8.8h-4.1V22l2.3,1.8v0.3h-8.5V23.8z M61.3,6.7c0-3.3-2-5.1-5.5-5.1h-4.5v10.3h4.5C59.3,11.9,61.3,10,61.3,6.7z M78.5,22.1l-2.1,1.7v0.3h18.9l0-6H95l-3.2,4.5h-9.3V12.5 h7.2l2.1,2.6h0.3V8.4h-0.2L89.8,11h-7.2V1.6h8.6l3.2,4.3h0.3V0.1H76.4v0.3l2.1,1.7V22.1z M122.7,12.3c0-3.2,2.3-5.8,4.6-7.4l0.8,0.7 c-1.5,1.6-2.7,3.8-2.7,6.7c0,2.9,1.2,5,2.7,6.6l-0.7,0.8C125,18.1,122.7,15.5,122.7,12.3z M141.6,7.8v9.1l-1.4,1v0.5h5.5v-0.5 l-1.4-1v-4.1h5.5v4.1l-1.4,1v0.5h5.5v-0.5l-1.4-1V7.8l1.4-1V6.3h-5.5v0.5l1.4,1v3.8h-5.5V7.8l1.4-1V6.3h-5.5v0.5L141.6,7.8z M160,16.8V7.8l-1.2-1V6.3h5.2v0.5l-1.2,1v9.1l1.2,1v0.5h-5.2v-0.5L160,16.8z M170.2,7.8v9.1l-1.2,1v0.5h5.2v-0.5l-1.2-1V7.8l1.2-1 V6.3H169v0.5L170.2,7.8z M183.3,16.8V7.5h-1.8l-2,2.6h-0.5V6.3h11.4V10h-0.5l-2-2.6h-1.8v9.4l1.6,1v0.5h-6.1v-0.5L183.3,16.8z M202.7,5.6c1.5,1.6,2.7,3.8,2.7,6.7c0,2.8-1.2,5-2.7,6.6l0.7,0.8c2.2-1.5,4.6-4.1,4.6-7.4c0-3.2-2.3-5.8-4.6-7.4L202.7,5.6z"/>
</svg>
