<svg class="lt-brand-logo" xmlns="http://www.w3.org/2000/svg" width="76" height="40" viewBox="0 0 76 40">
  <title>Fire HIIT</title>
  <path d="M62.8,1.7l0,13.9l-1.8,1.3v0.4l14,0l0-5.1h-0.4l-2.4,3.6l-6.3,0l0-6.7h4.8l1.5,2.1h0.4l0-5.8h-0.4l-1.5,2.2H66l0-6.1l5.8,0 l2.4,3.4h0.4V0L61.1,0v0.4L62.8,1.7z M38.3,15.6l0-13.9l-1.8-1.3V0L45,0c4.2,0,6.8,1.3,6.8,4.7c0,2.5-1.6,3.8-4,4.4l3.5,5.4l2.5,2.5 v0.4l-6.9,0v-0.4l1.5-1.1l-4-6.2h-2.9l0,6l1.9,1.3v0.4l-6.8,0V17L38.3,15.6L38.3,15.6z M44.5,8.1c2.4,0,3.9-1.2,3.9-3.3 c0-2.1-1.5-3.3-3.9-3.3h-3l0,6.6L44.5,8.1L44.5,8.1z M23.5,1.7l0,13.9L21.7,17v0.4l6.7,0V17l-1.7-1.3l0-13.9l1.7-1.3V0l-6.7,0v0.4 L23.5,1.7z M1.8,1.7l0,13.9l0,0L0,17v0.4l6.9,0V17l-2-1.4l0-6.2h4.8l1.5,2.1h0.4l0-5.8h-0.4L9.8,7.9H5l0-6.3l5.7,0L13.1,5h0.4V0 L0,0.1v0.4L1.8,1.7z M5.9,34.7c0-2.3,1.7-4.2,3.3-5.3l0.5,0.5c-1.1,1.1-2,2.7-2,4.8c0,2,0.9,3.6,1.9,4.8L9.2,40 C7.6,38.9,5.9,37,5.9,34.7L5.9,34.7z M20.2,31.4l0,6.5l-1,0.7V39l4,0v-0.4l-1-0.7v-3l3.9,0v3l-1,0.7V39l4,0v-0.4l-1-0.7l0-6.5l1-0.7 v-0.4l-4,0v0.4l1,0.7v2.7l-3.9,0v-2.7l1-0.7v-0.4l-4,0v0.4L20.2,31.4z M33.8,37.9l0-6.5l-0.9-0.7v-0.4l3.7,0v0.4l-0.9,0.7l0,6.5 l0.9,0.7V39l-3.7,0v-0.4L33.8,37.9z M41.4,31.4l0,6.5l-0.9,0.7V39l3.7,0v-0.4l-0.9-0.7l0-6.5l0.9-0.7v-0.4l-3.7,0v0.4L41.4,31.4z M51.2,31.2h-1.3L48.5,33h-0.4v-2.7l8.2,0V33H56l-1.4-1.9h-1.3l0,6.8l1.2,0.7V39l-4.4,0v-0.4l1.2-0.7L51.2,31.2z M65.8,29.8 c1.1,1.1,2,2.7,2,4.8v0c0,2-0.9,3.6-1.9,4.8l0.5,0.5c1.6-1.1,3.3-3,3.3-5.3c0-2.3-1.7-4.2-3.3-5.3L65.8,29.8z"/>
</svg>
