<svg class="lt-brand-logo" xmlns="http://www.w3.org/2000/svg" width="275" height="24" viewBox="0 0 275 24">
  <title>Flow Vinyasa</title>
  <path fill-rule="evenodd" clip-rule="evenodd" d="M64.5,0c-6.7,0-11.8,5.1-11.8,12.1c0,7.2,5.1,11.9,11.8,11.9 c6.7,0,11.8-4.9,11.8-12.1C76.4,4.7,71.2,0,64.5,0z M64.5,1.5c4.8,0,7.4,4,7.4,10.5c0,6.5-2.7,10.5-7.4,10.5c-4.7,0-7.4-4-7.4-10.5 C57.1,5.5,59.8,1.5,64.5,1.5z M0,23.4l2-1.7V2.3L0,0.6V0.3h17.7v5.7h-0.3l-3.1-4.3H6v9.3h7.1l2-2.5h0.3v6.5h-0.3l-2-2.5H6v9l2.7,1.8 v0.3l-8.7,0V23.4z M26.6,23.4l2-1.7V2.3l-2-1.7V0.3h8.7v0.3l-2.7,1.8v19.8h8.2l3.1-5.1h0.3v6.6H26.6V23.4z M84.9,2.9l-2-2.3V0.3h8.1 v0.2l-2.1,1.8l5.3,15.2h0.1l6-17.3h1l6.2,17.3h0.1l5.1-14.7l-2.5-2.3V0.3h6.3v0.3L114.2,3l-7.4,20.7h-1L99.6,6.9h-0.1l-5.9,16.8h-1 L84.9,2.9z M145,5c-2.2,1.5-4.4,4-4.4,7.2c0,3.2,2.2,5.7,4.4,7.2l0.7-0.7c-1.4-1.5-2.6-3.6-2.6-6.4c0-2.8,1.2-5,2.6-6.5L145,5z M157.2,6.4h5.2v0.5l-1.1,0.9l3.2,6.4l2.8-6.2L166,6.8V6.4h4.1v0.5l-1.8,1.8l-0.1,0.1L164,18h-0.6l-4.6-9.3l-1.6-1.9V6.4z M175.6,7.8v8.8l-1.1,1V18h5.1v-0.5l-1.2-1V7.8l1.2-0.9V6.4h-5.1v0.5L175.6,7.8z M183.8,17.5l1.6-1.3V7.8l-1.2-0.9V6.4h4l5.6,6.6 V8.1l-1.7-1.2V6.4h4.5v0.5L195,8.1v10h-0.6l-7.8-9.3v7.4l1.7,1.3V18h-4.6V17.5z M205.4,13.4v3.2l-1.4,1V18h5.6v-0.5l-1.4-1v-3.4 l3.2-5l1.7-1.4V6.4h-4v0.5l1.1,0.9l-2.5,4L205,7.6l0.9-0.8V6.4h-5.2v0.5l1.6,1.4L205.4,13.4z M214.7,17.5l1.9-1.7l4.4-9.5h0.6 l4.4,9.4l1.6,1.8V18h-5.2v-0.5l1.1-0.9l-0.9-1.9h-4.3l-0.7,1.5l1.7,1.2V18h-4.6V17.5z M222.1,13.7l-1.6-3.6l-1.6,3.6H222.1z M232.3,14.3v3.1c1.3,0.5,2.6,0.7,3.9,0.7c2.7,0,4.6-1.4,4.6-3.7c0-2.1-1.1-2.9-3.1-3.5l-1.4-0.4c-1.2-0.4-1.7-0.9-1.7-1.9 c0-0.8,0.7-1.4,1.9-1.4c1.5,0,2.3,0.8,3.3,2.6h0.5V6.8c-1.2-0.4-2.4-0.6-3.6-0.6c-2.6,0-4.4,1.3-4.4,3.6c0,1.9,1,2.8,2.9,3.3 l1.5,0.4c1.3,0.4,1.9,0.9,1.9,1.9c0,1.1-0.8,1.5-2.1,1.5c-1.5,0-2.6-0.9-3.6-2.7H232.3z M245.1,17.5l1.9-1.7l4.4-9.5h0.6l4.4,9.4 l1.6,1.8V18h-5.2v-0.5l1.1-0.9l-0.8-1.9h-4.3l-0.7,1.5l1.7,1.2V18h-4.6V17.5z M252.4,13.7l-1.6-3.6l-1.6,3.6H252.4z M269.5,5.7 c1.4,1.5,2.6,3.7,2.6,6.5c0,2.8-1.2,4.9-2.6,6.4l0.7,0.7c2.2-1.5,4.4-4,4.4-7.2c0-3.2-2.2-5.7-4.4-7.2L269.5,5.7z"/>
</svg>
