<svg class="lt-brand-logo" xmlns="http://www.w3.org/2000/svg" width="102" height="40" viewBox="0 0 102 40">
  <title>Flow Vinyasa</title>
  <path fill-rule="evenodd" clip-rule="evenodd" d="M57,0c-5,0-8.8,3.8-8.8,8.9h0c0,5.3,3.8,8.8,8.8,8.8c4.9,0,8.8-3.8,8.8-8.9 C65.8,3.5,62,0,57,0z M62.3,8.8c0,4.6-1.8,7.4-5.2,7.4c-3.4,0-5.2-2.8-5.2-7.4c0-4.6,1.8-7.4,5.2-7.4C60.4,1.5,62.3,4.2,62.3,8.8z M28.6,15.8l0-13.9l-1.7-1.3V0.3l7.2,0v0.4L31.8,2l0,14l5.7,0l2.4-4.1h0.4l0,5.6l-13.4,0v-0.4L28.6,15.8L28.6,15.8z M7,15.8L7,2 L5.3,0.7V0.3l13.4,0v5h-0.4l-2.4-3.5l-5.7,0l0,6.3H15l1.5-2.1h0.4l0,5.8h-0.4L15,9.5h-4.8l0,6.2l1.9,1.4v0.4l-6.9,0v-0.4L7,15.8z M78.6,0.2v0.3l-1.5,1.4l3.7,10.5L85,0.2h1.1l4.3,12.2l3.6-10.3l-1.6-1.5V0.2l4.8,0v0.4l-1.8,2l-5.3,14.9h-0.9L84.7,5.4l-4.2,12.1 h-0.9L74,2.5l-1.5-1.8V0.2L78.6,0.2z M3.3,29.4c-1.6,1.1-3.3,3-3.3,5.3s1.7,4.2,3.3,5.3l0.5-0.5c-1-1.1-1.9-2.7-1.9-4.7 c0-2.1,0.9-3.7,1.9-4.8L3.3,29.4z M12.9,30.4h3.8v0.4L16,31.4l2.3,4.7l2-4.6l-1-0.8v-0.4h3v0.4L21,32.1l0,0.1L17.9,39h-0.4l-3.4-6.9 l-1.2-1.4V30.4z M26.7,31.5l0,6.5l-0.8,0.7V39l3.7,0v-0.4l-0.8-0.7l0-6.5l0.8-0.7v-0.4l-3.7,0v0.4L26.7,31.5z M33.1,38.6l1.2-0.9 l0-6.2l-0.9-0.7v-0.4h3l4.1,4.9v-3.6l-1.2-0.9v-0.4h3.3v0.4l-1.2,0.9l0,7.4h-0.4l-5.8-6.8l0,5.4l1.3,0.9V39h-3.4V38.6z M49.4,35.5 v2.4l-1,0.7V39l4.1,0v-0.4l-1-0.7v-2.5l2.4-3.7l1.2-1v-0.3h-3v0.3l0.8,0.7l-1.9,3l-2-3.1l0.6-0.6v-0.3l-3.9,0v0.3l1.2,1L49.4,35.5z M56.5,38.6l1.4-1.3l3.3-7h0.4l3.3,6.9l1.2,1.3V39l-3.8,0v-0.4L63,38l-0.6-1.4h-3.2l-0.5,1.1l1.3,0.9V39l-3.4,0V38.6z M62,35.8 l-1.2-2.7l-1.2,2.7H62z M69.8,36.3v2.3c0.9,0.4,1.9,0.5,2.9,0.5c2,0,3.4-1,3.4-2.7c0-1.5-0.8-2.1-2.3-2.6l-1.1-0.3 c-0.9-0.3-1.2-0.7-1.2-1.4c0-0.6,0.5-1,1.4-1c1.1,0,1.7,0.6,2.4,1.9h0.3v-2.3c-0.8-0.3-1.8-0.4-2.6-0.4c-1.9,0-3.3,1-3.3,2.7 c0,1.4,0.7,2.1,2.2,2.5l1.1,0.3c0.9,0.3,1.4,0.7,1.4,1.4c0,0.8-0.6,1.1-1.5,1.1c-1.1,0-1.9-0.7-2.6-2H69.8z M79.5,38.6l1.4-1.3 l3.3-7h0.4l3.3,6.9l1.2,1.3V39l-3.8,0v-0.4L86,38l-0.6-1.4h-3.2l-0.5,1.1l1.3,0.9V39h-3.4V38.6z M84.9,35.8l-1.2-2.7l-1.2,2.7H84.9z M98.1,29.9c1,1.1,1.9,2.7,1.9,4.8l0,0c0,2-0.9,3.6-1.9,4.7l0.5,0.5c1.6-1.1,3.3-3,3.3-5.3c0-2.3-1.7-4.2-3.3-5.3L98.1,29.9z"/>
</svg>
