<svg class="lt-brand-logo" xmlns="http://www.w3.org/2000/svg" width="42" height="48" viewBox="0 0 42 48">
  <title>GTX logomark</title>
  <path fill-rule="evenodd" clip-rule="evenodd" d="M31.8,6L6.3,39.7v0l-5.6-3.2C0.2,36.2,0,35.8,0,35.3V12.7c0-0.5,0.2-0.9,0.7-1.2 l5.6-3.2l9.7,13l2.7-3.5L10,6.1l10.3-6c0.4-0.2,0.9-0.2,1.4,0L31.8,6z M35.4,8.1l5.9,3.4l0,0c0.4,0.2,0.7,0.7,0.7,1.2v22.7 c0,0.5-0.3,0.9-0.7,1.2l-5.6,3.2l-9.9-13.2L23,30.1L32,41.9l-10.3,5.9c-0.4,0.2-0.9,0.2-1.4,0L10,41.9L35.4,8.1z"/>
</svg>