<svg class="lt-brand-logo" xmlns="http://www.w3.org/2000/svg" width="159" height="64" viewBox="0 0 159 64">
  <title>GTX</title>
  <path fill-rule="evenodd" clip-rule="evenodd" d="M8.4,53L42.3,8L28.9,0.2c-0.6-0.3-1.2-0.3-1.8,0L13.3,8.2l11.6,15.4l-3.6,4.7 L8.4,11l-7.5,4.3C0.3,15.7,0,16.2,0,16.9v30.2c0,0.6,0.3,1.2,0.9,1.6L8.4,53L8.4,53z M55,15.3l-7.8-4.5L13.4,55.9L27,63.8 c0.6,0.3,1.2,0.3,1.8,0l13.7-7.9L30.7,40.1l3.6-4.7L47.5,53l7.5-4.3c0.6-0.3,0.9-0.9,0.9-1.6V16.9C55.9,16.2,55.6,15.7,55,15.3 L55,15.3z M131.7,46.6l21.9-29.2h4.8l-21.9,29.2H131.7z M129.2,17.3H105v3.4h24.2V17.3z M93.5,42.5c0.6-0.4,1.2-0.8,1.7-1.3v3.9 l-0.1,0.1c-1.7,1.2-3.9,1.7-6.6,1.7c-2.6,0-5-0.6-7.2-1.8c-2.1-1.3-3.7-3-4.8-5.3c-1.4-2.3-1.9-4.9-1.9-7.9c0-3,0.5-5.6,1.9-7.9 c1-2.3,2.6-4,4.8-5.3c2.1-1.2,4.5-1.9,7.3-1.9c2.3,0,4.2,0.5,6.1,1.2c1.7,0.8,3.3,1.9,4.5,3.4c1.3,1.5,2.1,3.3,2.5,5.4h-4.1 c-0.5-2.1-1.6-3.7-3.2-4.8c-1.6-1.1-3.4-1.6-5.7-1.6c-2.1,0-3.9,0.5-5.3,1.5c-1.5,0.9-2.6,2.2-3.4,3.9c-0.8,1.7-1.2,3.7-1.2,6.1 c0,2.4,0.4,4.5,1.2,6.1c0.8,1.7,1.9,3,3.5,3.9c1.4,1.1,3.4,1.5,5.4,1.5C90.6,43.6,92.1,43.3,93.5,42.5z M143.4,26.6l-6.9-9.2h-4.6 l9.2,12.2L143.4,26.6z M146.8,37.1l2.3-3.1l9.5,12.6h-4.8L146.8,37.1z M89.3,34.8H98v11.8h3.7v-15H89.3V34.8z M115.3,23.3h3.7v23.3 h-3.7V23.3z"/>
</svg>
