<svg class="lt-brand-logo" xmlns="http://www.w3.org/2000/svg" width="112" height="40" viewBox="0 0 112 40">
  <title>GTX</title>
  <path fill-rule="evenodd" clip-rule="evenodd" d="M25.1,34.1c0.8-0.5,1.6-1.1,2.2-1.7v5.2l-0.2,0.1c-2.3,1.6-5.2,2.2-8.8,2.2 s-6.7-0.8-9.5-2.4c-2.8-1.7-5-4-6.4-7.1C0.7,27.5,0,24,0,20c0-4,0.7-7.4,2.5-10.5c1.4-3,3.5-5.3,6.4-7.1c2.8-1.6,6-2.5,9.7-2.5 c3,0,5.6,0.6,8.1,1.5C29,2.6,31,4,32.6,6.1c1.7,2,2.8,4.4,3.4,7.1h-5.4c-0.6-2.8-2.2-4.9-4.3-6.4c-2.2-1.5-4.6-2.1-7.7-2.1 c-2.8,0-5.2,0.6-7.1,2c-2,1.2-3.4,2.9-4.6,5.2c-1.1,2.3-1.6,5-1.6,8.2c0,3.2,0.5,5.9,1.6,8.2c1.1,2.3,2.6,4,4.6,5.2 c1.9,1.5,4.5,2.1,7.2,2.1C21.2,35.5,23.2,35.2,25.1,34.1z M105.1,0.6l-29.2,39h6.3l29.2-39H105.1z M72.6,0.6H40.3v4.6h32.3V0.6z M91.5,12.9L82.4,0.6h-6.1l12.3,16.3L91.5,12.9z M96,26.9l3.1-4.2l12.7,16.8h-6.4L96,26.9z M19.5,23.8h11.5v15.7H36v-20H19.5V23.8z M54.1,8.5h5v31.1h-5V8.5z"/>
</svg>