<svg class="lt-brand-logo" xmlns="http://www.w3.org/2000/svg" width="160" height="36" viewBox="0 0 160 36">
  <path d="M107.11,4.67c-2.03,1.24-4.72,8.14-8.4,10.3-2.02,1.18-3.07-.56-1.24-7.24.6-2.2,1.22-3.56-1.21-3.26-2.75.34-4.02,6.64-8.07,9.86-3.41,2.7-2.55-3.56-1.08-6.48,1.66-3.31-.69-4.2-2.74-2.6-1.64,1.28-4.37,9.12-9.56,12.01-4.37-1.65-8.85-2.83-10.63-3.82-11.85-6.58,17.54-12.12,6.9-3.65,6.31-1.41,13.08-8.72,2.15-8.93-.87-.02-11.19.12-16.3,5.27-10.95,11,18.75,14.58,19.77,19.85.7,3.58-9.15,6.73-17.43,4.4-8.25-2.32-6.14-6.33-1.48-8.37-3.94-.11-16.87,6.84-3.79,12.29,1.86.78,8.78,1.95,13.4,1.67,7-.42,13.72-2.42,16.61-6.71,3.32-4.93-.81-8.31-6.22-10.76,1.47-.77,3.5-2.19,4.61-3.81,0,0-.09,4.66,2.8,4.47,2.9-.19,6.15-3.39,8.26-6.03-.34,2.82.94,5.88,3.74,5.71,5.09-.3,11.64-8.63,12.92-12.85.61-2.04-1.97-1.95-3.02-1.31h0ZM152.66,16.79c-2.49-2.99-.55-8.39-.4-10.02.13-1.55-1.46-2.76-3.93-2-2.47.76-8.2,6.74-8.38,7.08.02-.15.31-3.14.3-4.83-.03-1.69-1.77-2.47-3.43-1.62-2.69,1.36-4.72,4.93-7.13,6.86,0,0,2.04-4.32,2.69-6.08.66-1.76-3.3-3.41-4.95-1.29-5.59,7.22-9.86,13.55-9.27,2.21.14-2.7-2.26-3.69-4.14-.58-.9,1.49-3.04,8.37-8.56,11.54,0,0,5.57-.84,8.43-6.26-.56,2.02.82,13.3,12.12-.73-.32.82-1.79,4.42-2.05,5.26-.63,2.03,1.28,3.41,3.8,2.56,2.52-.86,4.68-5.76,7.67-8.06-.35,3.06.18,8.03,2.5,8.04,2.33.02,8.6-7.97,8.6-7.97-.2,4.27,2.46,9.05,6.44,9.26,3.49.18,6.04-2.44,6.04-2.44,0,0-3.88,2.07-6.37-.92ZM118.11.81c.09-1.01-1.85-1.3-2.42.5-.57,1.8,2.33.52,2.42-.5ZM9.68,7.51v11.33h2.99v-4.48h2.12v-2.52h-2.12v-1.57h2.36v-2.75h-5.35ZM15.5,7.51v11.33h5.35v-2.83h-2.36v-1.65h2.12v-2.52h-2.12v-1.57h2.36v-2.75h-5.35ZM0,18.84V7.51h2.99v8.5h2.67v2.83H0ZM9.13,7.51h-2.99v11.33h2.99V7.51ZM43.82,7.51v11.33h5.35v-2.83h-2.36v-1.65h2.12v-2.52h-2.12v-1.57h2.36v-2.75h-5.35ZM22.74,7.51v2.75h1.73v8.58h2.99v-8.58h1.73v-2.75h-6.45ZM32.65,7.51h-2.99v11.33h2.99V7.51ZM39.02,7.51l-.79,5.66-.79-5.66h-4.25v11.33h2.83v-6.29l1.1,6.29h2.2l1.1-6.29v6.29s2.83,0,2.83,0V7.51h-4.25ZM50.31,7.51c.39,0,.74.28.74.72s-.35.72-.74.72-.74-.28-.74-.72.35-.72.74-.72ZM50.31,8.79c.3,0,.54-.24.54-.57s-.25-.57-.54-.57-.54.24-.54.57.24.57.54.57ZM50.02,7.82h.3c.2,0,.32.06.32.24,0,.15-.09.21-.21.22l.22.35h-.17l-.2-.35h-.1v.35h-.16v-.81h0ZM50.18,8.16h.14c.09,0,.16-.01.16-.11,0-.09-.09-.1-.17-.1h-.14v.21Z"/>
</svg>