<svg class="lt-brand-logo" xmlns="http://www.w3.org/2000/svg" width="241" height="32" viewBox="0 0 241 32">
  <title>Life Barre</title>
  <path d="M223.9,28.5v-8.6H220V32h20.8v-3.5H223.9z M220,17.5h18.9v-3.4H220V17.5z M220,11.8h3.8V3.5h16.6V0H220V11.8z M66.7,28.5 v-8.6h-3.8V32h20.8v-3.5H66.7z M62.9,17.5h18.9v-3.4H62.9V17.5z M62.9,11.8h3.8V3.5h16.6V0H62.9V11.8z M190.4,32V0h12.3 c6.1,0,10.8,2.8,10.8,9.3c0,5.3-3.3,8.3-8,9.1L215,32h-4.5l-9.2-13.2h-7.1V32H190.4z M209.6,9.4c0-3.8-2.5-5.9-7.1-5.9h-8.2v11.8 h8.2C207.1,15.3,209.6,13.2,209.6,9.4L209.6,9.4z M160.7,32V0H173c6.1,0,10.8,2.8,10.8,9.3c0,5.3-3.3,8.3-8,9.1l9.5,13.6h-4.5 l-9.2-13.2h-7.1V32H160.7z M179.8,9.4c0-3.8-2.5-5.9-7.1-5.9h-8.2v11.8h8.2C177.4,15.3,179.8,13.2,179.8,9.4L179.8,9.4z M126.4,32 l12.2-32h5.2L156,32h-4.2l-3.7-10h-14l-3.7,10H126.4L126.4,32z M135.4,18.6h11.4l-5.7-15.2h-0.1L135.4,18.6L135.4,18.6z M100.3,32V0 h11.8c6.7,0,10.3,2.7,10.3,8.3c0,3.9-2.2,6.4-6,7v0.1c4.5,0.4,7.3,2.9,7.3,7.6c0,5.9-3.9,9-11,9H100.3z M118.4,8.6 c0-3.6-2.2-5.3-6.4-5.3h-7.9V14h7.9C116.2,14,118.4,12.2,118.4,8.6L118.4,8.6z M119.7,23c0-3.8-2.5-5.7-7.1-5.7h-8.5v11.5h8.5 C117.2,28.8,119.7,26.7,119.7,23z M57.4,0H37.1v32H41V17.6h14.9v-3.5H41V3.5h16.4L57.4,0L57.4,0z M25.1,0v32H29V0H25.1z M3.8,0H0v32 h19.9v-3.5H3.8V0z"/>
</svg>
