<svg class="lt-brand-logo" xmlns="http://www.w3.org/2000/svg" width="272" height="92" viewBox="0 0 272 92">
  <title>LT Open</title>
  <path d="M154.52,35.82c-2.51-15.96-21.16-17.53-31.92-8.68l-3.38,3.47,2.2-7.78h-10.65l-19.62,69.17h11.16l8.2-28.41c3.16,7.77,10.12,10.82,18.24,9.79,16.98-2.15,28.31-21.38,25.76-37.56ZM129.2,66.88c-3.75,1.84-8.18,1.73-11.27-1.33-7.84-7.76-2.81-24.34,3.74-31.57,5.12-5.64,14.91-9.78,19.62-1.35,5.67,10.14-1.9,29.23-12.1,34.25ZM255.28,72.72l.22-.29c2.5-9.9,5.99-19.71,8.45-29.61,2.12-8.54,1.63-17.5-8.24-20.25-8.85-2.47-17.94.84-23.25,8.2l2.28-7.95h-10.82l-14.21,49.89h11.08l.22-.29c2.96-9.46,5.23-19.16,8.28-28.59,2.08-6.42,5.5-13.65,12.69-15.38,8.92-2.15,12.46,4.14,11.15,12.16l-8.92,32.09h11.08ZM208.86,48.03c.89-5.84,1.2-12.06-1.83-17.36-5.9-10.32-21.39-10.66-31.04-5.95-24.3,11.86-23.22,52.58,8.92,49.17,7.72-.82,16.95-5.64,20.41-12.9.1-.21.22-.34.16-.6h-10.23c-2.21,3.53-5.1,6.73-9.31,7.77-8.01,1.97-13.15-2.77-14.73-10.27-.7-3.29-.58-6.49-.56-9.84h38.22ZM176.66,33.33c3.55-4.4,9.66-7.55,15.33-5.39,6.06,2.31,7.12,10.05,6.21,15.69h-26.38c.73-3.59,2.54-7.45,4.84-10.3ZM62.57,0c.1.54-.27.28-.59.33-10.22,1.54-19.46,6.51-26.13,14.38,2.7-.09,5.31.44,7.83,1.33.3-.07,1.84-2.25,2.23-2.68C58.82-.79,78.92,1.97,85.41,20.54c4.86,13.92,1.56,33.06-9.64,43.13-10.56,9.49-27.16,9.25-34.76-3.64h-12.6c.53,1.26,1.4,2.52,2.23,3.61,12.83,16.82,40.03,12.9,54.26-.14C105.32,44.79,105.69,4.31,72.97.33c-.32-.04-.69.21-.59-.33h-.51c-.11.27-.73.27-.85,0h-7.27c-.21.24-.47.23-.68,0h-.51ZM0,52.09h44.48v-12.51H13.19v-16.74H0v29.26ZM55.04,38.86c-3.81,0-6.9,3.09-6.9,6.9s3.09,6.9,6.9,6.9,6.9-3.09,6.9-6.9-3.09-6.9-6.9-6.9ZM55.05,22.37c-3.81,0-6.9,3.09-6.9,6.9s3.09,6.9,6.9,6.9,6.9-3.09,6.9-6.9-3.09-6.9-6.9-6.9ZM38.68,22.37c-3.81,0-6.89,3.09-6.89,6.89s3.09,6.89,6.89,6.89,6.89-3.09,6.89-6.89-3.09-6.89-6.89-6.89ZM71.36,22.39c-3.8,0-6.88,3.08-6.88,6.88s3.08,6.88,6.88,6.88,6.88-3.08,6.88-6.88-3.08-6.88-6.88-6.88ZM264.8,24.8h.66c.07.29.21.42.53.42.35,0,.5-.14.5-.34,0-.18-.1-.26-.42-.35l-.31-.08c-.62-.16-.89-.42-.89-.87,0-.5.45-.84,1.09-.84s1.05.35,1.13.9h-.64c-.05-.27-.23-.39-.51-.39-.3,0-.44.11-.44.3,0,.17.11.25.42.34l.32.08c.62.16.9.43.9.88,0,.52-.47.88-1.12.88-.69,0-1.11-.35-1.19-.94ZM267.55,22.78h.93l.59,1.66h.02l.59-1.66h.92v2.91h-.59v-2.25h-.01l-.61,1.65h-.64l-.59-1.65h-.01v2.25h-.59v-2.91Z"/>
</svg>
