<svg class="lt-brand-logo" xmlns="http://www.w3.org/2000/svg" width="190" height="32" viewBox="0 0 190 32">
  <title>Maxout</title>
  <path d="M48.8,4L38.4,31.6h-3.9L46.4,0.4h5.1l11.9,31.1h-4.1L48.8,4L48.8,4z M175.1,31.6V3.9H164V0.4h26v3.4h-11.1v27.7H175.1z M134,19.2V0.4h3.7v18.4c0,6.4,2.8,9.7,8.9,9.7c6.1,0,8.8-3.3,8.8-9.7V0.4h3.8v18.8c0,8.2-4.4,12.8-12.6,12.8 C138.4,32,134,27.4,134,19.2z M97.2,16c0-9.5,5.9-16,15.2-16c9.3,0,15.2,6.5,15.2,16s-5.9,16-15.2,16C103.1,32,97.2,25.5,97.2,16z M123.7,16c0-7.6-4.1-12.6-11.3-12.6S101,8.4,101,16s4.1,12.6,11.4,12.6C119.7,28.6,123.7,23.6,123.7,16z M66.3,31.6L78,15.4 l-10.8-15h4.5L80.8,13h0.1L90,0.4h4.4L83.5,15.4l11.8,16.2h-4.6l-10-13.8h-0.1l-9.9,13.8H66.3z M30,0.4h-5.8l-9.1,20.3H15L5.9,0.4H0 v31.1h3.6V4.2h0.1l9.1,20.3h4.3l9.2-20.3h0.1v27.4H30V0.4z"/>
</svg>
