<svg class="lt-brand-logo" xmlns="http://www.w3.org/2000/svg" width="215" height="36" viewBox="0 0 215 36">
  <title>MB 360</title>
  <path fill-rule="evenodd" clip-rule="evenodd" d="M160.5,14.4h-10.8c-3.8,0-6.2,0.5-7.7,1.7c1.1-6.3,5.5-9.4,10.2-9.4h9.2 c3.3,0,5.7-2.5,5.7-5.3V0h-14.9c-9.7,0-17.7,7.8-17.8,17.9l0,0v5c0,5.9,2.8,13,13,13h13.1c3,0,5.9-1.2,7.8-3.2 c2.1-2.5,3.2-5.1,3.2-7.7C171.4,19.2,166.6,14.4,160.5,14.4L160.5,14.4z M161.7,29.5h-15.3c-1.9,0-3.7-1.9-3.7-4.2s1.8-4.4,3.7-4.4 h14.9c1.9,0,3.7,1.9,3.7,4.4C165.1,27.6,163.6,29.5,161.7,29.5L161.7,29.5z M44.1,0.2V36h-2.6C39.1,36,37,34,37,31V17l-0.1-0.1 L25,34v-0.1c-0.5,1.5-1.8,2.1-3,2.1c0,0-0.1,0-0.1,0c-0.2,0-0.5,0.1-1.1-0.3c-0.6-0.3-0.9-0.6-1.7-1.8L7.2,16.8l-0.1,0.1V31 c0,2.9-2,4.9-4.5,4.9H0V0.2h3c1.4,0,3.5,0.5,5.1,2.9l14.1,22l14-22c1.2-1.9,3-2.9,5-2.9H44.1z M192.6,0h3.8c10.6,0,18.5,8,18.5,17.4 v1.2c0,9.4-8,17.4-18.5,17.4h-3.8c-10.6,0-18.5-8-18.5-17.4v-1.2C174.1,8,182,0,192.6,0z M196.4,29.4c6.3,0,11.2-4.8,11.2-10.8v-1.2 c0-6-4.9-10.9-11.2-10.9h-3.8c-6.4,0-11.3,4.9-11.3,10.9v1.2c0,6,4.9,10.8,11.3,10.8H196.4z M125.1,17.1V17c3-1.9,3.7-4,3.7-6.2 c0-5.7-4.6-10.7-11-10.7H96.3v1.2c0,2.9,2.5,5.3,5.7,5.3h15.7c2.5,0,3.9,2,3.9,4.1c0,2.1-1.3,4-3.8,4h-15.3V16 c0,2.9,2.6,5.3,5.9,5.3h11.4c2.5,0,3.8,2,3.8,4.1c0,2.1-1.3,4-3.7,4H102c-3.2,0-5.7,2.5-5.7,5.3V36h23.5c3.1,0,5.9-1.2,8-3.2 c2.1-2.2,3.2-4.7,3.2-7.3C130.9,22.2,129.4,19.3,125.1,17.1L125.1,17.1z M79.1,17v0.2l0,0c4.3,2.2,5.8,5.1,5.8,8.3 c0,2.6-1.1,5.2-3.2,7.3c-2,2-4.9,3.2-7.9,3.2H49.6V0.1h22.2c6.4,0,11,5,11,10.7C82.8,13,82.1,15.1,79.1,17z M56.7,29.4H74 c2.4,0,3.7-1.9,3.7-4c0-2.1-1.3-4.1-3.8-4.1h-5.8c-3.2,0-5.9-2.5-5.9-5.3v-1.2h9.7c2.5,0,3.8-1.9,3.8-4c0-2.1-1.3-4.1-3.9-4.1H56.7 V29.4z"/>
</svg>
