<svg class="lt-brand-logo" xmlns="http://www.w3.org/2000/svg" width="163" height="64" viewBox="0 0 163 64">
  <title>MB 360</title>
  <path d="M55,15.3c0.6,0.3,0.9,0.9,0.9,1.6v30.2c0,0.6-0.3,1.2-0.9,1.6L28.9,63.8c-0.6,0.3-1.2,0.3-1.8,0L0.9,48.7 C0.3,48.3,0,47.7,0,47.1V16.9c0-0.6,0.3-1.2,0.9-1.6L27,0.2c0.6-0.3,1.2-0.3,1.8,0L55,15.3L55,15.3z M36.4,26.3h6.8 c1.3,0,1.8,0.8,1.8,2c0,1-0.5,2-1.8,2h-4.7V31c0,1.7,1.6,3.2,3.7,3.2h2.1c1.2,0,1.7,1,1.7,2.1c0,1.2-0.5,2-1.7,2h-7.9V26.3 L36.4,26.3z M44.5,42.1c1.8,0,3.5-0.8,4.6-1.8c1.2-1.3,1.8-2.6,1.8-4.1c0-1.7-0.8-3.2-3.4-4.5c1.8-1.2,2.2-2.3,2.2-3.4 c0-3.2-2.6-5.9-6.3-5.9H31.9v19.7L44.5,42.1L44.5,42.1z M26.2,22.4c-1.3,0-2.5,0.7-2.9,1.5l-6.2,12.3L11,23.9 c-0.6-0.8-1.9-1.6-3.1-1.6H6v19.7h1.7c1.6,0,2.7-1.2,2.7-2.5v-7.5h0.1l4.6,8.9c0.3,0.4,0.6,0.6,1.1,0.9c0.1,0.1,0.6,0.1,0.7,0.1 c0.7,0,1.6-0.5,1.9-0.9l4.6-9h0.1v7.4c0,1.3,1.2,2.5,2.7,2.5H28V22.4L26.2,22.4L26.2,22.4z M102.5,31.9v3.7c0,4.5,2.1,9.7,9.8,9.7 h9.8c2.2,0,4.4-0.8,5.9-2.3c1.5-1.8,2.3-3.7,2.3-5.7c-0.1-4.3-3.7-8-8.3-8H114c-2.8,0-4.6,0.4-5.7,1.2c0.9-4.7,4.1-7,7.6-7h6.9 c2.5,0,4.3-1.9,4.3-4v-1h-11.2C108.5,18.5,102.5,24.4,102.5,31.9L102.5,31.9z M125.4,37.4c0,1.7-1.2,3.2-2.4,3.2h-11.4 c-1.4,0-2.7-1.4-2.7-3.2c0-1.8,1.4-3.3,2.7-3.3h11.2C124,34.1,125.4,35.6,125.4,37.4z M157.1,31.6v0.8c0,4.5-3.6,8.1-8.3,8.1H146 c-4.7,0-8.3-3.6-8.3-8.1v-0.8c0-4.5,3.6-8.1,8.3-8.1h2.8C153.5,23.5,157.1,27.1,157.1,31.6z M148.9,18.5H146c-8,0-13.9,6-13.9,13.1 v0.8c0,7,5.9,12.9,13.9,12.9h2.8c7.9,0,13.9-5.9,13.9-12.9v-0.8C162.7,24.5,156.8,18.5,148.9,18.5z M95.7,31.4v-0.1 c2.3-1.4,2.8-3,2.8-4.6c0-4.3-3.5-8.1-8.3-8.1H74.1v1c0,2.1,1.9,4,4.3,4h11.8c1.8,0,2.8,1.5,2.8,3c0,1.5-1,3-2.8,3H78.7v0.8 c0,2.2,2,4,4.5,4h8.5c1.7,0,2.8,1.6,2.8,3.1c0,1.5-1,3-2.7,3H78.4c-2.5,0-4.3,1.9-4.3,4v0.8h17.6c2.3,0,4.5-0.8,6-2.4 c1.6-1.6,2.4-3.5,2.4-5.4C100,35.2,98.9,33,95.7,31.4L95.7,31.4z"/>
</svg>
