<svg class="lt-brand-logo" xmlns="http://www.w3.org/2000/svg" width="42" height="48" viewBox="0 0 42 48">
  <title>MB360 logomark</title>
  <path d="M41.3,11.5c0.4,0.2,0.7,0.7,0.7,1.2v22.7c0,0.5-0.2,0.9-0.7,1.2L21.7,47.8c-0.4,0.2-0.9,0.2-1.4,0L0.7,36.5 C0.2,36.2,0,35.8,0,35.3V12.7c0-0.5,0.2-0.9,0.7-1.2L20.3,0.2c0.4-0.2,0.9-0.2,1.4,0L41.3,11.5L41.3,11.5z M27.4,19.7h5.1 c1,0,1.4,0.6,1.4,1.5c0,0.8-0.4,1.5-1.4,1.5H29v0.5c0,1.3,1.2,2.4,2.8,2.4h1.6c0.9,0,1.3,0.8,1.3,1.5c0,0.9-0.4,1.5-1.3,1.5h-6V19.7 L27.4,19.7z M33.4,31.6c1.4,0,2.6-0.6,3.4-1.4c0.9-1,1.4-2,1.4-3c0-1.3-0.6-2.4-2.5-3.4c1.4-0.9,1.7-1.7,1.7-2.5 c0-2.4-2-4.5-4.7-4.5H24v14.8L33.4,31.6L33.4,31.6z M19.7,16.8c-1,0-1.9,0.5-2.2,1.1l-4.7,9.2l-4.6-9.2c-0.4-0.6-1.4-1.2-2.3-1.2 H4.5v14.8h1.3c1.2,0,2-0.9,2-1.8v-5.6h0.1l3.5,6.7c0.2,0.3,0.5,0.5,0.8,0.7c0.1,0.1,0.4,0.1,0.5,0.1c0.5,0,1.2-0.3,1.4-0.7l3.5-6.7 h0.1v5.6c0,1,0.9,1.8,2,1.8h1.3V16.8L19.7,16.8L19.7,16.8z"/>
</svg>