<svg class="lt-brand-logo" xmlns="http://www.w3.org/2000/svg" width="157" height="32" viewBox="0 0 157 32">
  <path d="M0,.44h8.04l7.6,18.89h.09L23.38.44h7.96v31.11h-5.02V5.95h-.13l-7.73,18.89h-5.69L5.15,5.95h-.13v25.6H0V.44ZM41.89.44h5.24v31.11h-5.24V.44ZM112.72,18.84c4.27-.98,7.15-3.91,7.15-8.93,0-6.71-4.67-9.47-10.98-9.47h-12.76v31.11h5.24v-11.87h5.73l8.13,11.87h6.18l-8.71-12.71ZM101.38,15.07V5.11h7.2c3.78,0,5.87,1.69,5.87,4.98s-2.09,4.98-5.87,4.98h-7.2ZM144.97.44h-7.42l-11.38,31.11h5.51l2.98-8.53h12.98l2.93,8.53h5.69L144.97.44ZM136.26,18.49l4.84-13.91h.13l4.8,13.91h-9.78ZM74.2.18v4.83c4.88,1.03,7.65,5.13,7.65,10.98,0,6.8-3.73,11.25-10.18,11.25s-10.22-4.44-10.22-11.25c0-5.87,2.78-9.97,7.72-10.99V.18c-7.97,1.05-13.14,7.14-13.14,15.82,0,9.56,6.27,16,15.65,16s15.55-6.45,15.55-16c0-8.66-5.12-14.75-13.03-15.81ZM151.2,2.5h.66c.07.29.21.42.53.42.35,0,.5-.14.5-.34,0-.18-.1-.26-.42-.35l-.31-.08c-.62-.16-.89-.42-.89-.87,0-.5.45-.84,1.09-.84s1.05.35,1.13.9h-.64c-.05-.27-.23-.39-.51-.39-.3,0-.44.11-.44.3,0,.17.11.25.42.34l.32.08c.62.16.9.43.9.88,0,.52-.47.88-1.12.88-.69,0-1.11-.35-1.19-.94h-.03ZM153.95.48h.93l.59,1.66h.02l.59-1.66h.92v2.91h-.59V1.14h-.01l-.61,1.65h-.64l-.59-1.65h-.01v2.25h-.59V.48h0Z"/>
</svg>