<svg class="lt-brand-logo" xmlns="http://www.w3.org/2000/svg" width="40" height="40" viewBox="0 0 40 40">
  <title>Pickleball Mark</title>
  <path d="M34.1,5.9C26.3-2,13.7-2,5.9,5.9C-2,13.7-2,26.3,5.9,34.1c7.8,7.8,20.5,7.8,28.3,0C42,26.3,42,13.7,34.1,5.9z M3.3,22.8 c-1,0-1.9-1.2-1.9-2.8s0.8-2.8,1.9-2.8s1.9,1.2,1.9,2.8S4.4,22.8,3.3,22.8z M20,1.5c1.5,0,2.8,0.8,2.8,1.8S21.5,5.2,20,5.2 c-1.5,0-2.8-0.8-2.8-1.8S18.5,1.5,20,1.5z M8.2,8.2c1.3-1.3,3.2-1.6,4.1-0.6c1,1,0.7,2.8-0.6,4.1c-1.3,1.3-3.2,1.6-4.1,0.6 C6.7,11.4,6.9,9.5,8.2,8.2z M12.4,32.4c-1,1-2.8,0.7-4.1-0.6c-1.3-1.3-1.6-3.1-0.6-4.1c1-1,2.8-0.7,4.1,0.6 C13.1,29.5,13.3,31.4,12.4,32.4z M14.7,22.4c-1.3,1.3-3.4,1.3-4.7,0c-1.3-1.3-1.3-3.4,0-4.7c1.3-1.3,3.4-1.3,4.7,0 C16,18.9,16,21.1,14.7,22.4z M17.6,10c1.3-1.3,3.4-1.3,4.7,0c1.3,1.3,1.3,3.4,0,4.7c-1.3,1.3-3.4,1.3-4.7,0 C16.3,13.4,16.3,11.3,17.6,10z M20,38.5c-1.5,0-2.8-0.8-2.8-1.8c0-1,1.2-1.8,2.8-1.8c1.5,0,2.8,0.8,2.8,1.8 C22.8,37.7,21.5,38.5,20,38.5z M22.4,30c-1.3,1.3-3.4,1.3-4.7,0c-1.3-1.3-1.3-3.4,0-4.7c1.3-1.3,3.4-1.3,4.7,0 C23.7,26.6,23.7,28.7,22.4,30z M25.3,17.6c1.3-1.3,3.4-1.3,4.7,0c1.3,1.3,1.3,3.4,0,4.7c-1.3,1.3-3.4,1.3-4.7,0 C24,21.1,24,18.9,25.3,17.6z M31.8,31.8c-1.3,1.3-3.2,1.6-4.1,0.6c-1-1-0.7-2.8,0.6-4.1c1.3-1.3,3.2-1.6,4.1-0.6 C33.3,28.6,33.1,30.5,31.8,31.8z M32.4,12.4c-1,1-2.8,0.7-4.1-0.6c-1.3-1.3-1.6-3.1-0.6-4.1c1-1,2.8-0.7,4.1,0.6 C33.1,9.5,33.3,11.4,32.4,12.4z M36.7,22.8c-1,0-1.9-1.2-1.9-2.8s0.8-2.8,1.9-2.8s1.8,1.2,1.8,2.8S37.7,22.8,36.7,22.8z"/>
</svg>
