<svg class="lt-brand-logo" xmlns="http://www.w3.org/2000/svg" width="304" height="36" viewBox="0 0 304 36">
  <title>Pickleball</title>
  <path d="M287.6,0.5h7.4l-6.1,28.4h15l-1.4,6.6h-22.4L287.6,0.5z M260.7,0.5h7.4L262,28.9h15l-1.5,6.6h-22.4L260.7,0.5L260.7,0.5z M233.2,0.5h10.6l4.3,35h-7.6l-0.8-8.4h-13.6l-4.5,8.4h-8.1L233.2,0.5z M239.1,20.7l-1.5-14.8h-0.1l-8,14.8H239.1z M210.9,2.7 c2,1.5,3,3.6,3,6.4c0,2.2-0.7,4.2-2.2,5.6c-1.5,1.5-3.4,2.4-5.7,2.9l0,0.1c1.9,0.3,3.4,1.1,4.5,2.4c1.1,1.3,1.7,2.8,1.7,4.7 c0,2-0.6,3.9-1.7,5.5c-1.1,1.7-2.7,2.9-4.8,3.8c-2,0.9-4.5,1.3-7.2,1.3H182l7.6-35h13C206.1,0.5,208.9,1.2,210.9,2.7L210.9,2.7z M202.9,28.4c1.1-1,1.7-2.2,1.7-3.6c0-1.4-0.5-2.4-1.3-3.1c-0.9-0.8-2.2-1.1-3.9-1.1h-6.6l-2.1,9.3h7.9 C200.4,29.9,201.8,29.4,202.9,28.4L202.9,28.4z M204.9,13.7c1-1,1.5-2.2,1.5-3.6c0-1.4-0.4-2.4-1.2-3.1c-0.8-0.7-2-1-3.6-1h-5.7 l-2,9h7C202.5,15.1,203.9,14.6,204.9,13.7L204.9,13.7z M158.8,0.5h24l-1.4,6.6h-16.6l-1.6,7.4h15.3l-1.4,6.4h-15.3l-1.8,8.1h16.9 l-1.4,6.6h-24.2L158.8,0.5z M130.8,0.5h7.4l-6.1,28.4h15l-1.5,6.6h-22.4L130.8,0.5z M95,0.5h7.4l-3,13.9h3l13.8-13.9h9l-16.8,17.1 l0,0.1l10.6,17.8h-8.4L101.9,21h-4l-3.1,14.5h-7.4L95,0.5z M58.4,34c-2.3-1.3-4.1-3.1-5.3-5.6c-1.2-2.4-1.9-5.1-1.9-8.2 c0-3.8,0.9-7.1,2.6-10.3c1.8-3.1,4.1-5.6,7-7.4C63.8,0.9,67,0,70.6,0c2.7,0,5.2,0.6,7.2,1.6C80,2.7,81.8,4.2,83,6.2 c1.3,2,2,4.3,2.2,7h-7.6c-0.2-2.1-1-3.6-2.4-4.8c-1.4-1.2-3.1-1.8-5.2-1.8c-2.1,0-4.1,0.6-5.8,1.8c-1.7,1.1-3.1,2.8-4,4.7 c-0.9,2-1.4,4.2-1.4,6.8c0,3,0.8,5.3,2.3,7c1.5,1.7,3.6,2.5,6.1,2.5c2.1,0,4-0.6,5.5-1.7c1.6-1.1,2.9-2.8,3.7-4.9H84 c-1.3,4.2-3.5,7.4-6.6,9.8c-3,2.2-6.6,3.4-10.8,3.4C63.4,36,60.7,35.4,58.4,34L58.4,34z M41,0.5h7.4l-7.5,35h-7.4L41,0.5z M29.5,3.2 c2.1,1.8,3.1,4.3,3.1,7.8c0,2.3-0.6,4.4-1.8,6.3c-1.2,1.9-2.9,3.3-5,4.4c-2.1,1-4.5,1.6-7.1,1.6H10L7.4,35.5H0l7.5-35h13.1 C24.5,0.5,27.4,1.4,29.5,3.2z M23.3,15.2c1.2-1,1.7-2.2,1.7-3.9c0-1.4-0.4-2.5-1.3-3.2C22.8,7.4,21.6,7,19.9,7h-6.4l-2,9.7h7.1 C20.6,16.7,22.2,16.2,23.3,15.2L23.3,15.2z"/>
</svg>
