<svg class="lt-brand-logo" xmlns="http://www.w3.org/2000/svg" width="229" height="32" viewBox="0 0 229 32">
  <title>Pilates</title>
  <path fill-rule="evenodd" clip-rule="evenodd" d="M207.4,23.6v6.3c2.9,1.3,6.6,2.1,10.2,2.1c6.4,0,11.4-3.2,11.4-9.2 c0-5.2-3-7.6-8.1-9l-3.8-1c-3.6-1-5.1-2.7-5.1-5.6c0-3.4,2.4-5.2,5.8-5.2c4,0,6,1.9,9.1,6h0.4V1.7c-2.8-1-6-1.7-9.1-1.7 c-6.2,0-10.9,3.1-10.9,9c0,5,2.7,7.4,7.7,8.8l3.8,1.1c3.8,1,5.4,2.7,5.4,5.6c0,3.4-2.5,5.6-6.4,5.6c-4.3,0-7.1-2-10.1-6.5H207.4z M0,31.2l2.7-2.3V3.1L0,0.8V0.4h13.4c8.1,0,12.8,3.1,12.8,9.1s-4.7,9.2-12.8,9.2H8v10l3.6,2.4v0.4L0,31.5V31.2z M20.7,9.6 c0-4.9-2.5-7.2-7.8-7.2H8v14.5h4.8C18.2,16.8,20.7,14.5,20.7,9.6z M37.5,31.2l2.7-2.3V3.1l-2.7-2.3V0.4h10.8v0.4l-2.7,2.3v25.9 l2.7,2.3v0.4H37.5V31.2z M63.2,28.9l-2.7,2.3v0.4h23.6v-8.8h-0.4l-4.2,6.8h-11V3.2l3.6-2.4V0.4H60.5v0.4l2.7,2.3V28.9z M92.1,31.2 l3.2-3.1l12.8-27.6h1.2l13.1,27.9l2.6,2.8v0.4h-10.8v-0.3L117,29l-3.4-7.4h-13.2l-3,6.6l3.2,3v0.4h-8.6V31.2z M112.8,19.8l-5.7-12.5 H107l-5.7,12.5H112.8z M141.6,28.9l-3.3,2.3v0.4h12v-0.4l-3.4-2.3V2.4h6.9l4.1,5.7h0.4V0.4h-28.1v7.6h0.4l4.1-5.7h6.8V28.9z M169.9,31.2l2.7-2.3V3.1l-2.7-2.3V0.4h23.7v7.5h-0.4L189,2.4h-11.1v12.1h9.3l2.7-3.4h0.3v8.7h-0.4l-2.7-3.4h-9.3v13.1h12l4.1-5.9 h0.4l0,7.8h-24.5V31.2z"/>
</svg>
