<svg class="lt-brand-logo" xmlns="http://www.w3.org/2000/svg" width="108" height="36" viewBox="0 0 108 36">
	<title>Power</title>
	<path d="M57.8,36H62L55.2,0h-6.7l-7,36h4l6.3-33.1h0.1L57.8,36L57.8,36z M36.3,36h4.1l-7-36h-4.5L36.3,36L36.3,36z M63.1,36h4.2 l7.6-36h-4.4L63.1,36z M99,23.5h-5l8.5,12.5h5.3L99,23.5L99,23.5z M84.3,36V0H80v36H84.3z M87.1,17.4v4h6.3c7.7,0,12.1-4,12.1-10.7 C105.5,3.9,101,0,93.3,0h-6.3v4h6c5.2,0,8,2.3,8,6.7c0,4.4-2.8,6.7-8,6.7L87.1,17.4L87.1,17.4z M4.3,36V0H0v36H4.3z M7.1,17.4v4h6.3 c7.7,0,12.1-4,12.1-10.7C25.5,3.9,21,0,13.4,0H7.1v4h6c5.2,0,8,2.3,8,6.7c0,4.4-2.8,6.7-8,6.7L7.1,17.4L7.1,17.4z"/>
</svg>
