<svg class="lt-brand-logo" xmlns="http://www.w3.org/2000/svg" width="166" height="32" viewBox="0 0 166 32">
  <title>Remix</title>
  <path d="M135.7,32l12-16.6L136.5,0h4.7l9.4,12.9h0.1L160.1,0h4.5l-11.2,15.4L165.5,32h-4.7l-10.2-14.2h-0.1L140.3,32H135.7L135.7,32 z M104.2,32l12-16.6L105,0h4.7l9.4,12.9h0.1L128.5,0h4.5l-11.2,15.4L134,32h-4.7L119,17.8h-0.1L108.7,32H104.2L104.2,32z M95.6,0v32 h3.8V0H95.6z M56.6,32V0h6.1L72,20.8h0.1L81.5,0h6v32h-3.7V3.8h-0.1l-9.5,20.9h-4.4L60.4,3.8h-0.1V32H56.6L56.6,32z M29.7,32V0h20.4 v3.5H33.6v10.3h15.1v3.5H33.6v11.2h16.9V32L29.7,32L29.7,32z M11.1,18.2l4.3-0.5L24.6,32h-4.5L11.1,18.2z M6.9,18.8l2-3.5H12 c4.7,0,7.1-2.1,7.1-5.9c0-3.8-2.5-5.9-7.1-5.9H3.8V32H0V0h12.3c6.1,0,10.8,2.8,10.8,9.3c0,5.6-3.7,8.5-8.8,9.1l-2.7,0.4L6.9,18.8z"/>
</svg>
