<svg class="lt-brand-logo" xmlns="http://www.w3.org/2000/svg" width="254" height="24" viewBox="0 0 254 24">
  <title>Root Hatha</title>
  <path d="M0,23.4l2-1.7V2.3L0,0.6V0.3h10.9c5.4,0,8.9,1.8,8.9,6.3c0,3.4-2.2,5.2-5.5,5.9l5.4,8.1l2.5,2.7v0.3h-8.3v-0.3l1.8-1.6 l-5.7-8.6H6v8.4l2.2,1.8v0.3H0V23.4z M15.7,6.8c0-3.2-2-5-5.3-5H6v10h4.4C13.7,11.8,15.7,9.9,15.7,6.8z M29.9,12.1 C29.9,5.1,35,0,41.7,0s11.8,4.7,11.8,11.9S48.4,24,41.7,24S29.9,19.3,29.9,12.1z M49.1,12c0-6.5-2.6-10.5-7.4-10.5s-7.4,4-7.4,10.5 s2.7,10.5,7.4,10.5S49.1,18.5,49.1,12z M63,12.1C63,5.1,68.1,0,74.8,0c6.7,0,11.8,4.7,11.8,11.9S81.6,24,74.8,24 C68.1,24,63,19.3,63,12.1z M82.2,12c0-6.5-2.6-10.5-7.4-10.5c-4.8,0-7.4,4-7.4,10.5s2.7,10.5,7.4,10.5C79.6,22.5,82.2,18.5,82.2,12z M100.6,23.4l2.5-1.7V1.8H98l-3.1,4.3h-0.3V0.3h21.1v5.7h-0.3l-3.1-4.3h-5.2v19.9l2.5,1.7v0.3h-9L100.6,23.4L100.6,23.4z M141.4,12.2c0-3.1,2.2-5.7,4.4-7.2l0.7,0.7c-1.4,1.5-2.6,3.7-2.6,6.5s1.2,4.9,2.6,6.4l-0.7,0.7C143.7,17.9,141.4,15.3,141.4,12.2 L141.4,12.2z M159.8,16.6V7.8l-1.3-1V6.4h5.4v0.5l-1.3,1v3.6h5.3V7.8l-1.3-0.9V6.4h5.4v0.5l-1.3,0.9v8.8l1.3,1V18h-5.4v-0.5l1.3-1 v-4h-5.3v4l1.3,1V18h-5.4v-0.5L159.8,16.6L159.8,16.6z M176,17.5l1.8-1.7l4.4-9.5h0.6l4.4,9.4l1.6,1.8V18h-5.2v-0.5l1.1-0.9 l-0.9-1.9h-4.3l-0.7,1.5l1.7,1.2V18H176L176,17.5L176,17.5z M183.4,13.7l-1.6-3.6l-1.6,3.6H183.4L183.4,13.7z M195.5,16.6V7.5h-1.7 l-1.9,2.5h-0.5V6.4h11.1V10h-0.5L200,7.5h-1.7v9.1l1.6,0.9V18h-5.9v-0.5L195.5,16.6z M208.3,16.6V7.8l-1.3-1V6.4h5.4v0.5l-1.3,1v3.6 h5.3V7.8L215,6.8V6.4h5.4v0.5l-1.3,0.9v8.8l1.3,1V18H215v-0.5l1.3-1v-4H211v4l1.3,1V18H207v-0.5C207,17.5,208.3,16.6,208.3,16.6z M224.6,17.5l1.8-1.7l4.4-9.5h0.6l4.4,9.4l1.6,1.8V18h-5.2v-0.5l1.1-0.9l-0.8-1.9h-4.3l-0.7,1.5l1.7,1.2V18h-4.6L224.6,17.5 L224.6,17.5z M232,13.7l-1.6-3.6l-1.6,3.6H232L232,13.7z M250.6,12.2c0-2.8-1.2-5-2.6-6.5l0.7-0.7c2.2,1.5,4.4,4,4.4,7.2 s-2.2,5.7-4.4,7.2l-0.7-0.7C249.4,17.1,250.6,14.9,250.6,12.2z"/>
</svg>
