<svg class="lt-brand-logo" xmlns="http://www.w3.org/2000/svg" width="92" height="40" viewBox="0 0 92 40">
  <title>Root Hatha</title>
  <path d="M2.1,15.8L2.1,2L0.3,0.7V0.3l8.4,0c4.1,0,6.8,1.3,6.8,4.7c0,2.5-1.6,3.8-4,4.3l3.5,5.4l2.5,2.5v0.4l-6.9,0v-0.4l1.5-1.1 l-4-6.1H5.3l0,5.9l1.9,1.3v0.4l-6.8,0v-0.4L2.1,15.8L2.1,15.8z M8.3,8.3c2.4,0,3.9-1.2,3.9-3.3c0-2.1-1.5-3.3-3.9-3.3h-3l0,6.5 L8.3,8.3L8.3,8.3z M24.6,8.9c0-5.2,3.8-8.9,8.8-8.9c4.9,0,8.8,3.5,8.8,8.8c0,5.2-3.8,8.9-8.8,8.9C28.4,17.7,24.6,14.2,24.6,8.9 L24.6,8.9z M33.4,16.2c3.4,0,5.2-2.8,5.2-7.4c0-4.6-1.8-7.4-5.2-7.4c-3.4,0-5.2,2.8-5.2,7.4S29.9,16.2,33.4,16.2L33.4,16.2z M50.9,8.9c0-5.2,3.8-8.9,8.8-8.9c4.9,0,8.8,3.5,8.8,8.8c0,5.2-3.8,8.9-8.8,8.9C54.7,17.7,50.9,14.2,50.9,8.9L50.9,8.9z M59.7,16.2 c3.4,0,5.2-2.8,5.2-7.4s-1.8-7.4-5.2-7.4c-3.4,0-5.2,2.8-5.2,7.4C54.4,13.4,56.2,16.2,59.7,16.2z M82.2,15.8l0-14h-3.4l-2.4,3.5H76 l0-5l15.7,0v5h-0.4l-2.4-3.5h-3.5l0,14l2.1,1.3v0.4l-7.4,0v-0.4L82.2,15.8L82.2,15.8z M3.6,34.7c0-2.3,1.7-4.2,3.3-5.3l0.5,0.5 c-1,1.1-1.9,2.7-1.9,4.8c0,2,0.9,3.6,1.9,4.7L6.8,40C5.2,38.9,3.6,37,3.6,34.7L3.6,34.7z M17.7,38l0-6.5l-1-0.7v-0.4l4,0v0.4l-1,0.7 v2.7l3.9,0v-2.7l-1-0.7v-0.4l4,0v0.4l-1,0.7l0,6.5l1,0.7V39l-4,0v-0.4l1-0.7v-3l-3.9,0v3l1,0.7V39l-4,0v-0.4L17.7,38z M30,38.6 l1.4-1.3l3.3-7H35l3.3,6.9l1.2,1.3V39l-3.8,0v-0.4l0.8-0.6l-0.6-1.4h-3.2l-0.5,1.1l1.3,0.9V39H30L30,38.6L30,38.6z M35.4,35.8 l-1.2-2.7L33,35.8H35.4z M44.6,37.9l0-6.7h-1.3l-1.4,1.8h-0.4v-2.7l8.1,0v2.7h-0.4l-1.4-1.8h-1.3l0,6.7l1.2,0.7V39l-4.4,0v-0.4 L44.6,37.9L44.6,37.9z M54.4,37.9l0-6.5l-1-0.7v-0.4l4,0v0.4l-1,0.7v2.7l3.9,0v-2.7l-1-0.7v-0.4l4,0v0.4l-1,0.7l0,6.5l1,0.7V39l-4,0 v-0.4l1-0.7v-3l-3.9,0v3l1,0.7V39l-4,0v-0.4L54.4,37.9L54.4,37.9z M66.7,38.6l1.4-1.3l3.3-7h0.4l3.3,6.9l1.2,1.3V39l-3.8,0v-0.4 l0.8-0.6l-0.6-1.4h-3.2l-0.5,1.1l1.3,0.9V39h-3.4V38.6L66.7,38.6z M72.1,35.8l-1.2-2.7l-1.2,2.7H72.1z M86.5,34.7 c0-2.1-0.9-3.7-1.9-4.8l0.5-0.5c1.6,1.1,3.3,3,3.3,5.3s-1.7,4.2-3.3,5.3l-0.5-0.5C85.6,38.3,86.5,36.7,86.5,34.7L86.5,34.7z"/>
</svg>
