<svg class="lt-brand-logo" xmlns="http://www.w3.org/2000/svg" width="144" height="32" viewBox="0 0 144 32">
  <title>Shred</title>
  <path d="M108.8,13.9H91.1v3.5l17.7,0V13.9z M91.1,3.9H111V0.5H91.1V3.9z M111.3,28.2H91.1v3.4h20.2V28.2z M117.3,31.6V0.4h9.2 c11.6,0,17.3,5.9,17.3,15.6s-5.8,15.6-17.3,15.6H117.3z M139.9,16c0-8.2-4.3-12.1-13.6-12.1H121v24.3h5.3 C135.6,28.1,139.9,24.2,139.9,16z M62.2,31.6V0.4h12c6,0,10.5,2.8,10.5,9.1c0,5.2-3.2,8-7.8,8.8l9.2,13.2h-4.4l-8.9-12.8H66v12.8 H62.2z M80.8,9.6c0-3.7-2.4-5.7-6.9-5.7h-8v11.5h8C78.4,15.3,80.8,13.3,80.8,9.6z M28.5,31.6V0.4h3.7v13.4h18.4V0.4h3.7v31.1h-3.7 V17.3H32.2v14.3H28.5z M0,22.3h4c0.8,4.1,3.3,6.3,7.7,6.3s7.2-2.2,7.2-5.4c0-2.7-1.8-4.1-6.1-5.3l-3.6-1c-6-1.6-8.7-4.1-8.7-8.4 C0.6,3.4,4.9,0,11.2,0s10.2,3.5,11,9.4h-3.9c-0.7-3.9-3.2-6-7.2-6c-4.3,0-6.8,2-6.8,5.1c0,2.5,1.6,3.8,5.9,5l3.6,1 c6,1.7,8.9,4.3,8.9,8.7c0,5.3-4.5,8.9-10.9,8.9C5.4,32,1,28.4,0,22.3z"/>
</svg>
