<svg class="lt-brand-logo" xmlns="http://www.w3.org/2000/svg" width="337" height="24" viewBox="0 0 337 24">
  <title>Sol Guided Vinyasa</title>
  <path d="M0.1,22.4v-4.7h0.3c2.3,3.3,4.3,4.9,7.6,4.9c2.9,0,4.8-1.6,4.8-4.2c0-2.2-1.2-3.5-4.1-4.2l-2.9-0.8C2,12.3,0,10.5,0,6.8 C0,2.3,3.5,0,8.2,0c2.3,0,4.8,0.5,6.8,1.3V6h-0.3c-2.3-3.1-3.8-4.5-6.8-4.5c-2.5,0-4.3,1.4-4.3,3.9c0,2.2,1.1,3.4,3.8,4.2l2.9,0.8 c3.8,1.1,6.1,2.8,6.1,6.7c0,4.5-3.7,6.9-8.6,6.9C5.1,24,2.3,23.4,0.1,22.4z M25.3,12.1c0-7,5.1-12.1,11.8-12.1s11.8,4.7,11.8,11.9 S43.8,24,37.1,24S25.3,19.3,25.3,12.1z M44.5,12c0-6.5-2.6-10.5-7.4-10.5s-7.4,4-7.4,10.5s2.7,10.5,7.4,10.5S44.5,18.5,44.5,12z M58,23.4l2-1.7V2.3l-2-1.7V0.3h8.7v0.3l-2.7,1.8v19.8h8.2l3.1-5.1h0.3v6.6H58V23.4z M101.7,12.2c0-3.1,2.2-5.7,4.4-7.2l0.7,0.7 c-1.4,1.5-2.6,3.7-2.6,6.5s1.2,4.9,2.6,6.4l-0.7,0.7C104,17.9,101.7,15.3,101.7,12.2L101.7,12.2z M119,12.3c0-4.2,3.2-6.1,6.6-6.1 c1.5,0,2.8,0.2,4.1,0.7v3.4h-0.2c-1.4-2-2.7-2.9-4-2.9c-2.2,0-3.4,1.3-3.4,4.7c0,3.2,1.2,4.9,3.4,4.9c0.9,0,1.6-0.2,2.1-0.6v-3.2 h-1.7l-0.7-1.1h5.8v0.5l-0.6,0.9v2.8c-1.4,1.3-3.3,2-5.1,2C121.6,18.2,119,15.9,119,12.3z M136.7,13.7V7.9l-1.3-1.1V6.4h5.4v0.5 l-1.3,1.1v5.6c0,2.4,1.1,3.3,2.9,3.3s3-0.8,3-3.4V8.1l-1.8-1.2V6.4h4.5v0.5L146.7,8v5.5c0,3.2-1.9,4.7-4.9,4.7 S136.7,16.8,136.7,13.7L136.7,13.7z M153.8,16.6V7.8l-1.2-1V6.4h5.1v0.5l-1.2,1v8.8l1.2,0.9V18h-5.1v-0.5L153.8,16.6z M162.4,17.5 l1.3-0.9V7.8l-1.3-1V6.4h5.5c4.3,0,7.1,2,7.1,5.8c0,4-2.9,5.9-6.7,5.9h-5.8V17.5z M167.9,16.9c2.4,0,4-1.3,4-4.8 c0-3-1.6-4.7-4.2-4.7h-1.2v9.4H167.9L167.9,16.9z M181,16.6V7.8l-1.3-1V6.4h9.7V10h-0.5L187,7.5h-3.2v3.9h2.5l1.2-1.5h0.5v4.2h-0.5 l-1.2-1.5h-2.5v4.7h3.8l1.9-2.7h0.3l-0.1,3.5h-10v-0.5C179.7,17.5,181,16.6,181,16.6z M194.7,17.5l1.3-0.9V7.8l-1.3-1V6.4h5.5 c4.3,0,7.1,2,7.1,5.8c0,4-2.9,5.9-6.7,5.9h-5.8V17.5z M200.2,16.9c2.4,0,4-1.3,4-4.8c0-3-1.6-4.7-4.2-4.7h-1.2v9.4H200.2z M219.2,6.4h5.2v0.5l-1.1,0.9l3.2,6.4l2.8-6.2l-1.3-1.1V6.4h4.1v0.5l-1.8,1.8l-0.1,0.1l-4.2,9.3h-0.6l-4.6-9.3l-1.6-1.9L219.2,6.4 L219.2,6.4z M237.5,16.6V7.8l-1.2-1V6.4h5.1v0.5l-1.2,1v8.8l1.2,0.9V18h-5.1v-0.5L237.5,16.6z M245.7,17.5l1.6-1.3V7.8l-1.2-1V6.4h4 l5.6,6.6V8.1l-1.7-1.2V6.4h4.5v0.5l-1.6,1.3v10h-0.6l-7.8-9.3v7.4l1.7,1.3V18h-4.6C245.7,18,245.7,17.5,245.7,17.5z M267.4,16.6 v-3.2l-3.3-5.2l-1.6-1.4V6.4h5.2v0.5l-0.8,0.8l2.6,4.2l2.5-4.1L271,6.8V6.4h4v0.5l-1.7,1.4l-3.2,5v3.3l1.4,0.9V18H266v-0.5 L267.4,16.6L267.4,16.6z M276.7,17.5l1.8-1.7l4.5-9.5h0.6l4.4,9.4l1.6,1.8V18h-5.2v-0.5l1.1-0.9l-0.9-1.9h-4.3l-0.7,1.5l1.7,1.2V18 h-4.6V17.5L276.7,17.5z M284.1,13.7l-1.6-3.6l-1.6,3.6H284.1L284.1,13.7z M294.3,17.5v-3.1h0.5c1,1.8,2,2.7,3.6,2.7 c1.3,0,2.1-0.4,2.1-1.5c0-1-0.6-1.6-1.9-1.9l-1.4-0.4c-1.9-0.6-2.9-1.5-2.9-3.3c0-2.3,1.8-3.6,4.4-3.6c1.2,0,2.4,0.2,3.6,0.6v3.2 h-0.5c-1-1.8-1.8-2.6-3.3-2.6c-1.1,0-1.9,0.5-1.9,1.4c0,0.9,0.5,1.5,1.7,1.9l1.5,0.4c2,0.6,3.1,1.4,3.1,3.5c0,2.3-1.9,3.7-4.6,3.7 C296.9,18.2,295.6,17.9,294.3,17.5z M307,17.5l1.9-1.7l4.4-9.5h0.6l4.4,9.4l1.6,1.8V18h-5.2v-0.5l1.1-0.9l-0.9-1.9h-4.3l-0.7,1.5 l1.7,1.2V18H307L307,17.5L307,17.5z M314.4,13.7l-1.6-3.6l-1.6,3.6H314.4L314.4,13.7z M334.1,12.2c0-2.8-1.2-5-2.6-6.5l0.7-0.7 c2.2,1.5,4.4,4,4.4,7.2s-2.2,5.7-4.4,7.2l-0.7-0.7C332.9,17.1,334.1,14.9,334.1,12.2z"/>
</svg>
