<svg class="lt-brand-logo" xmlns="http://www.w3.org/2000/svg" width="179" height="40" viewBox="0 0 179 40">
  <title>Sol Guided Vinyasa</title>
  <path d="M59.9,16.5v-4h0.4c1.7,2.5,3.1,3.7,5.4,3.7c2.1,0,3.4-0.8,3.4-2.6c0-1.6-0.9-2.5-2.9-3.1L64,9.9c-2.8-0.8-4.3-2.1-4.3-4.8 c0-3.3,2.6-5.1,6.1-5.1c1.7,0,3.5,0.3,5.1,0.9v4h-0.3c-1.8-2.3-2.8-3.4-4.9-3.4c-1.9,0-3.2,0.6-3.2,2.4c0,1.5,0.8,2.5,2.8,3l2.1,0.6 c2.8,0.8,4.5,2.1,4.5,5c0,3.3-2.7,5.2-6.4,5.2C63.6,17.7,61.5,17.3,59.9,16.5L59.9,16.5z M80.3,8.9c0-5.2,3.8-8.9,8.8-8.9 c4.9,0,8.8,3.5,8.8,8.8c0,5.2-3.8,8.9-8.8,8.9C84.1,17.7,80.3,14.2,80.3,8.9z M89.1,16.2c3.4,0,5.2-2.8,5.2-7.4s-1.8-7.4-5.2-7.4 c-3.4,0-5.2,2.8-5.2,7.4C83.9,13.4,85.7,16.2,89.1,16.2z M107.8,15.8l0-13.8L106,0.6V0.2l7.1,0v0.4L111,2l0,14l5.7,0l2.4-4.1h0.4 l0,5.6l-13.4,0v-0.4L107.8,15.8L107.8,15.8z M0.4,34.7c0-2.3,1.7-4.2,3.3-5.3l0.5,0.5c-1,1.1-1.9,2.7-1.9,4.8c0,2,0.9,3.6,1.9,4.7 L3.7,40C2.1,38.9,0.4,37,0.4,34.7z M13.7,34.8c0-3.1,2.4-4.5,4.9-4.5c1.1,0,2.1,0.2,3,0.5v2.5h-0.1c-1.1-1.4-2-2.2-3-2.2 c-1.6,0-2.5,1-2.5,3.5c0,2.3,0.9,3.6,2.5,3.6c0.7,0,1.2-0.1,1.5-0.4v-2.4h-1.3l-0.5-0.8h4.3v0.4L22,35.6v2c-1,1-2.4,1.5-3.8,1.5 C15.6,39.1,13.7,37.4,13.7,34.8L13.7,34.8z M27.1,35.8v-4.2l-1-0.8v-0.4l4,0v0.4l-1,0.8v4.1c0,1.8,0.8,2.5,2.2,2.5 c1.4,0,2.2-0.6,2.2-2.5v-4l-1.3-0.9v-0.4h3.3v0.4l-1.1,0.9v4c0,2.3-1.4,3.5-3.6,3.5C28.4,39.1,27.1,38.1,27.1,35.8L27.1,35.8z M40,37.9l0-6.5l-0.8-0.7v-0.4l3.7,0v0.4L42,31.4l0,6.5l0.8,0.7V39l-3.7,0v-0.4L40,37.9z M46.6,38.6l1-0.7l0-6.5l-1-0.7v-0.4l4,0 c3.1,0,5.2,1.5,5.2,4.3c0,3-2.2,4.3-4.9,4.3h-4.3V38.6z M50.7,38.1c1.8,0,2.9-1,2.9-3.5c0-2.2-1.1-3.4-3.1-3.4h-0.9l0,6.9H50.7 L50.7,38.1z M60.6,37.9l0-6.5l-1-0.7v-0.4l7.2,0v2.7h-0.4L65,31.2h-2.4v2.9h1.9l0.9-1.1h0.4v3.1h-0.4l-0.8-1.1h-1.9v3.4h2.8l1.4-2 H67l0,2.6l-7.4,0v-0.4L60.6,37.9L60.6,37.9z M71,38.6l1-0.7l0-6.5l-1-0.7v-0.4l4,0c3.1,0,5.2,1.5,5.2,4.3c0,3-2.2,4.3-4.9,4.3H71 V38.6L71,38.6z M75.1,38.1c1.8,0,2.9-1,2.9-3.5c0-2.2-1.1-3.4-3.1-3.4H74l0,6.9H75.1z M89.7,30.4h3.8v0.4l-0.8,0.7l2.3,4.7l2-4.6 l-1-0.8v-0.4h3v0.4L97.8,32l0,0.1l-3.1,6.8h-0.4l-3.4-6.8l-1.2-1.4L89.7,30.4L89.7,30.4z M103.5,37.9l0-6.5l-0.8-0.7v-0.4l3.7,0v0.4 l-0.8,0.7l0,6.5l0.8,0.7v0.4l-3.7,0v-0.4L103.5,37.9L103.5,37.9z M109.8,38.6l1.2-0.9l0-6.2l-0.9-0.7v-0.4h3l4.1,4.9v-3.6l-1.2-0.9 v-0.4h3.3v0.4l-1.2,0.9l0,7.4h-0.4l-5.8-6.8l0,5.4l1.3,0.9v0.4h-3.4L109.8,38.6L109.8,38.6z M126.1,37.9v-2.4l-2.4-3.8l-1.2-1v-0.3 l3.9,0v0.3l-0.6,0.6l2,3.1l1.9-3l-0.8-0.7v-0.3h3v0.3l-1.2,1l-2.4,3.7v2.5l1,0.7v0.4l-4.1,0v-0.4L126.1,37.9L126.1,37.9z M133.3,38.6l1.4-1.3l3.3-7h0.4l3.3,6.9l1.2,1.3v0.4l-3.8,0v-0.4l0.8-0.6l-0.6-1.4h-3.2l-0.5,1.1l1.3,0.9v0.4h-3.4L133.3,38.6 L133.3,38.6z M138.7,35.7l-1.2-2.7l-1.2,2.7H138.7L138.7,35.7z M146.5,38.5v-2.3h0.3c0.7,1.3,1.5,2,2.6,2c0.9,0,1.5-0.3,1.5-1.1 c0-0.7-0.4-1.2-1.4-1.4l-1.1-0.3c-1.4-0.4-2.2-1.1-2.2-2.5c0-1.7,1.3-2.7,3.3-2.7c0.9,0,1.8,0.1,2.6,0.4V33H152 c-0.7-1.3-1.3-1.9-2.4-1.9c-0.8,0-1.4,0.4-1.4,1c0,0.7,0.4,1.1,1.2,1.4l1.1,0.3c1.5,0.4,2.3,1.1,2.3,2.6c0,1.7-1.4,2.7-3.4,2.7 C148.4,39,147.5,38.9,146.5,38.5L146.5,38.5z M156.2,38.5l1.4-1.3l3.3-7h0.4l3.3,6.9l1.2,1.3v0.4l-3.8,0v-0.4l0.8-0.6l-0.6-1.4h-3.2 l-0.5,1.1l1.3,0.9v0.4h-3.4L156.2,38.5L156.2,38.5z M161.6,35.7l-1.2-2.7l-1.2,2.7H161.6L161.6,35.7z M176.7,34.6 c0-2.1-0.9-3.7-1.9-4.8l0.5-0.5c1.6,1.1,3.3,3,3.3,5.3c0,2.3-1.7,4.2-3.3,5.3l-0.5-0.5C175.9,38.2,176.7,36.6,176.7,34.6L176.7,34.6 z"/>
</svg>
