<svg class="lt-brand-logo" xmlns="http://www.w3.org/2000/svg" width="212" height="41" viewBox="0 0 212 41">
  <path d="M181.7.5h7.3l-3,13.6h15.4l2.9-13.6h7.4l-7.5,34.8h-7.4l3.1-14.6h-15.3l-3.1,14.6h-7.4L181.7.5ZM149.1,34.4c-1.9-.9-3.4-2.2-4.5-3.8-1.1-1.7-1.7-3.7-1.8-6h7.7c.1,1.7.7,3,1.7,3.8s2.4,1.2,4.3,1.2c2,0,3.5-.3,4.5-1.1,1-.7,1.5-1.7,1.5-3,0-1-.3-1.8-.9-2.4-.6-.6-1.7-1.2-3.3-1.7l-3.5-1.1c-2.8-.8-4.9-2-6.2-3.6s-2-3.6-2-5.8c0-2,.6-3.9,1.7-5.5,1.1-1.7,2.7-3,4.8-3.9,2-.9,4.4-1.4,7.1-1.4,2.4,0,4.5.4,6.3,1.3,1.9.8,3.3,2.1,4.5,3.7,1,1.7,1.6,3.6,1.6,5.8h-7.6c-.1-1.5-.7-2.6-1.7-3.4-1-.8-2.3-1.2-4-1.2s-3,.4-3.9,1.1c-.9.7-1.4,1.7-1.4,2.9,0,.9.3,1.6.9,2.2.6.5,1.7,1.1,3.3,1.6l3.6,1.1c2.8.9,4.9,2.1,6.3,3.7,1.3,1.5,1.9,3.4,1.9,5.7,0,2.1-.5,4.1-1.7,5.8-1.1,1.7-2.8,3-4.9,4-2.1,1-4.7,1.5-7.5,1.5-2.7-.1-4.9-.5-6.8-1.5h0ZM124.1.5h10.5l4.3,34.8h-7.5l-.9-8.4h-13.4l-4.5,8.4h-8.1L124.1.5ZM129.9,20.6l-1.4-14.7h-.1l-8,14.7h9.5ZM87.7,35.8c-9.4,0-15-5.4-12.7-16.7L79.2.5h7.4l-4.2,18.3c-1.2,6.3.1,10.4,5.9,10.4,4.6,0,7.3-3.2,8.3-8.1L101,.5h7.4l-4.7,21.7c-2,8.9-7.4,13.6-16,13.6h0ZM49.3,35.8c-3.1,0-5.9-.6-8.4-2-2.4-1.3-4.4-3.2-5.7-5.5s-2-5.1-2-8.1c0-3.7.8-7.1,2.6-10.1,1.8-3.1,4.2-5.6,7.3-7.3C46.2,1,49.5.1,53.1.1c3.1,0,5.9.6,8.3,2,2.5,1.3,4.4,3.2,5.7,5.6,1.3,2.3,2,5,2,8.1,0,3.3-.7,6.4-2.2,9.3s-3.5,5.3-6.1,7.1l5.1,8h-8.1l-3.1-5c-1.7.3-3.6.6-5.4.6h0ZM55.9,27.5c1.8-1.2,3.2-2.8,4.3-4.8,1-2,1.6-4.3,1.6-6.8,0-2.9-.9-5.2-2.5-6.9-1.7-1.6-3.9-2.5-6.6-2.5-2.3,0-4.3.6-6.2,1.7-1.8,1.1-3.2,2.7-4.3,4.7-1,2.1-1.5,4.3-1.5,6.8,0,2.9.8,5.3,2.5,7,1.6,1.6,3.8,2.4,6.6,2.4,2.3.1,4.3-.4,6.1-1.6h0ZM6.4,34.4c-1.9-.9-3.4-2.2-4.5-3.8-1.1-1.7-1.7-3.7-1.8-6h7.7c.1,1.7.7,3,1.7,3.8s2.5,1.2,4.3,1.2c2,0,3.5-.3,4.5-1.1,1-.7,1.5-1.7,1.5-3,0-1-.3-1.8-.9-2.4s-1.7-1.2-3.3-1.7l-3.5-1.1c-2.8-.8-4.9-2-6.2-3.6-1.3-1.6-2-3.6-2-5.8,0-2,.6-3.9,1.7-5.5,1.1-1.7,2.7-3,4.7-3.9,2-1.1,4.3-1.5,7-1.5,2.3,0,4.5.4,6.3,1.3,1.9.8,3.4,2.1,4.5,3.7,1,1.7,1.6,3.6,1.6,5.8h-7.4c-.1-1.5-.7-2.6-1.8-3.4-1-.8-2.3-1.2-4-1.2-1.6,0-3,.4-3.9,1.1-1,.7-1.5,1.7-1.5,2.8,0,.9.3,1.6.9,2.2.6.5,1.7,1.1,3.3,1.6l3.5,1.1c2.9.9,5,2.1,6.3,3.7,1.3,1.5,1.9,3.4,1.9,5.7,0,2.1-.5,4.1-1.7,5.8-1.2,1.7-2.8,3-5,4-2.1,1-4.6,1.5-7.4,1.5-2.4.1-4.6-.3-6.5-1.3h0Z"/>
</svg>