<svg class="lt-brand-logo" xmlns="http://www.w3.org/2000/svg" width="146" height="32" viewBox="0 0 146 32">
  <title>Strike</title>
  <path d="M56.2,19.8v11.9h3.7V19.8H56.2z M22,19.8h-4.8c1.2,0.9,1.7,2,1.7,3.4c0,3.2-2.7,5.4-7.2,5.4c-4.5,0-6.9-2.2-7.7-6.3H0 C1,28.4,5.2,32,11.8,32c6.6,0,10.9-3.6,10.9-8.9C22.7,21.9,22.5,20.8,22,19.8z M36.4,19.8v11.8h3.7V19.8H36.4z M71.9,19.8h-4.4 l8.2,11.8h4.4L71.9,19.8z M36.4,14.1v3.4h3.7v-3.4H36.4z M110.7,19.8h-5L117,31.6h4.9L110.7,19.8z M129.6,28.1v-8.4h-3.7v11.8H146 v-3.4H129.6z M85.1,19.8v11.8h3.7V19.8H85.1z M85.1,14.1v3.4h3.7v-3.4H85.1z M96.7,19.8v11.8h3.7V19.8H96.7z M108.6,17.5l-1.6-1.7 l-1.6-1.7l-8.7,0v3.3H108.6z M96.7,0.4v11.5h3.7V0.4H96.7z M1.4,11.9h5c-1.4-0.8-2-1.9-2-3.5c0-3.1,2.5-5.1,6.8-5.1 c4,0,6.5,2.1,7.2,6h3.9C21.5,3.5,17.4,0,11.2,0S0.6,3.4,0.6,8.5C0.6,9.8,0.8,10.9,1.4,11.9z M125.8,17.5h18.4v-3.3h-18.4V17.5z M125.8,11.9h3.7v-8h16.1V0.4h-19.9V11.9z M105.8,11.9h4.5l10.1-11.5h-4.5L105.8,11.9z M9.3,16.9l2.3,0.5h8.8 c-1.5-1.3-3.6-2.1-7.6-3.2H3.2C4.6,15.4,6.6,16.2,9.3,16.9z M36.4,3.9v8h3.7v-8h11.1V0.4H25.3v3.4H36.4z M56.2,11.9h3.7v-8h8 c4.6,0,6.9,1.8,6.9,5.1c0,1.2-0.3,2.2-0.8,2.9h4.2c0.3-0.9,0.4-1.9,0.4-3c0-5.9-4.6-8.5-10.5-8.5h-12V11.9z M85.1,0.4v11.5h3.7V0.4 H85.1z M77.2,14.3h-21v3h13.5C73.2,17.3,75.7,16.3,77.2,14.3z"/>
</svg>
