<svg class="lt-brand-logo" xmlns="http://www.w3.org/2000/svg" width="358" height="24" viewBox="0 0 358 24">
  <title>Surrender Yin</title>
  <path d="M0.1,17.7v4.7c2.2,1,5,1.6,7.7,1.6c4.8,0,8.6-2.4,8.6-6.9c0-3.9-2.2-5.7-6.1-6.7L7.4,9.6c-2.7-0.8-3.8-2-3.8-4.2 c0-2.5,1.8-3.9,4.3-3.9c3,0,4.5,1.4,6.8,4.5H15V1.3C12.9,0.5,10.5,0,8.2,0C3.5,0,0,2.3,0,6.8c0,3.7,2,5.5,5.8,6.6l2.9,0.8 c2.8,0.8,4.1,2,4.1,4.2c0,2.6-1.9,4.2-4.8,4.2c-3.2,0-5.3-1.5-7.6-4.9H0.1z M27.1,2.3V15c0,5.9,3.2,9,9.8,9c5.7,0,9.3-3.2,9.3-9.3 v-12l2.6-2.1V0.3h-6.9v0.3l2.7,2.1v11.9c0,5.3-2.9,7.3-7,7.3s-6.4-2.1-6.4-7.1V2.3l2-1.7V0.3h-8.1v0.3L27.1,2.3z M57,23.4l2-1.7V2.3 l-2-1.7V0.3h10.9c5.4,0,8.9,1.8,8.9,6.3c0,3.4-2.2,5.2-5.5,5.9l5.4,8.1l2.5,2.7v0.3h-8.3v-0.3l1.8-1.6L67,13.2h-4v8.4l2.2,1.8v0.3 H57V23.4z M72.7,6.8c0-3.2-2-5-5.3-5H63v10h4.4C70.7,11.8,72.7,9.9,72.7,6.8z M89.4,21.7l-2,1.7v0.3h8.3v-0.3l-2.2-1.8v-8.4h4 l5.7,8.6l-1.8,1.6v0.3h8.3v-0.3l-2.5-2.7l-5.4-8.1c3.3-0.7,5.5-2.5,5.5-5.9c0-4.5-3.5-6.3-8.9-6.3H87.3v0.3l2,1.7V21.7z M97.7,1.8 c3.3,0,5.3,1.8,5.3,5s-2,5-5.3,5h-4.4v-10H97.7z M117.7,23.4l2-1.7V2.3l-2-1.7V0.3h17.8v5.6h-0.3l-3.1-4.1h-8.3v9.1h7l2-2.5h0.2v6.5 h-0.3l-2-2.5h-7v9.8h9l3.1-4.4h0.3l0,5.9h-18.4V23.4z M149.2,3.8L149.2,3.8l16.3,20h1V2.8l2.5-2.2V0.3h-6.8v0.3l2.7,2.1v13.9h-0.1 L151.7,0.3h-6.2v0.3l2,1.7v18.9l-2.6,2.2v0.3h6.9v-0.3l-2.8-2.2V3.8z M177.6,23.7v-0.3l2-1.7V2.3l-2-1.7V0.3h9.5 c8.3,0,13.6,4.3,13.6,11.6c0,7.3-5.4,11.7-13.2,11.7H177.6z M196.3,11.9c0-6.3-3.4-10.1-9.4-10.1h-3.2v20.4h3.4 C192.9,22.2,196.3,18.7,196.3,11.9z M211.8,21.7l-2,1.7v0.3h18.4l0-5.9h-0.3l-3.1,4.4h-9v-9.8h7l2,2.5h0.3V8.4h-0.2l-2,2.5h-7V1.8 h8.3l3.1,4.1h0.3V0.3h-17.8v0.3l2,1.7V21.7z M237.7,23.3l2-1.7V2.2l-2-1.7V0.2h10.9c5.4,0,8.9,1.8,8.9,6.3c0,3.4-2.2,5.2-5.5,5.9 l5.4,8.1l2.5,2.7v0.3h-8.3v-0.3l1.8-1.6l-5.7-8.6h-4v8.4l2.2,1.8v0.3h-8.3V23.3z M253.4,6.7c0-3.2-2-5-5.3-5h-4.4v10h4.4 C251.4,11.7,253.4,9.8,253.4,6.7z M289.6,5c-2.2,1.5-4.4,4-4.4,7.2c0,3.2,2.2,5.7,4.4,7.2l0.7-0.7c-1.4-1.6-2.6-3.6-2.6-6.4 c0-2.8,1.2-5,2.6-6.5L289.6,5z M306.7,16.6v-3.2l-3.3-5.2l-1.6-1.4V6.4h5.2v0.5l-0.9,0.8l2.7,4.2l2.5-4l-1.1-0.9V6.4h4v0.5l-1.7,1.4 l-3.2,5v3.4l1.4,1V18h-5.6v-0.5L306.7,16.6z M319.8,7.8v8.8l-1.1,1V18h5v-0.5l-1.1-1V7.8l1.1-0.9V6.4h-5v0.5L319.8,7.8z M328.1,17.5 l1.6-1.3V7.8l-1.2-0.9V6.4h4l5.6,6.6V8.1l-1.7-1.2V6.4h4.5v0.5l-1.6,1.3v10h-0.6l-7.8-9.3v7.4l1.7,1.3V18h-4.5V17.5z M352.4,5.7 c1.4,1.5,2.6,3.7,2.6,6.5c0,2.8-1.2,4.9-2.6,6.4l0.7,0.7c2.2-1.5,4.4-4,4.4-7.2c0-3.2-2.2-5.7-4.4-7.2L352.4,5.7z"/>
</svg>
