<svg class="lt-brand-logo" xmlns="http://www.w3.org/2000/svg" width="208" height="40" viewBox="0 0 208 40">
	<title>Surrender Yin</title>
	<path d="M0.1,12.6v4l0,0c1.7,0.7,3.7,1.2,5.7,1.2c3.7,0,6.4-1.9,6.4-5.2c0-2.9-1.7-4.2-4.5-5L5.6,6.9c-2-0.5-2.8-1.5-2.8-3 c0-1.8,1.3-2.4,3.2-2.4c2.1,0,3.1,1.1,4.9,3.4h0.3v-4C9.7,0.3,7.9,0,6.2,0C2.6,0,0,1.8,0,5.1C0,7.9,1.5,9.2,4.3,10l2.1,0.6 c2,0.6,2.9,1.5,2.9,3.1c0,1.8-1.3,2.6-3.4,2.6c-2.4,0-3.7-1.2-5.4-3.7H0.1z M22,1.9l0,9.1c0,4.4,2.5,6.7,7.3,6.7c4.3,0,7-2.3,7-6.9 l0-8.6l2.1-1.6V0.2l-6,0v0.4l2.3,1.6l0,8.4c0,3.9-1.8,5.3-4.8,5.3c-3,0-4.7-1.5-4.7-5.2l0-8.9l1.7-1.3V0.2l-6.7,0v0.4L22,1.9z M60.3,14.6l-3.5-5.4c2.4-0.6,4-1.9,4-4.4c0-3.3-2.6-4.7-6.8-4.7l-8.4,0v0.4l1.7,1.3l0,13.9l-1.7,1.3v0.4l6.8,0v-0.4l-1.9-1.3l0-6 h2.9l4,6.2l-1.5,1.1v0.4l6.9,0v-0.4L60.3,14.6z M53.6,8.3L53.6,8.3l-3,0l0-6.6h3c2.4,0,3.9,1.2,3.9,3.3C57.5,7.1,56,8.3,53.6,8.3z M84.8,14.6l-3.5-5.4c2.4-0.6,4-1.9,4-4.4c0-3.3-2.6-4.7-6.8-4.7l-8.4,0v0.4l1.7,1.3l0,13.9h0l-1.7,1.3v0.4l6.8,0v-0.4L75,15.7l0-6 h2.9l4,6.2L80.4,17v0.4l6.9,0v-0.4L84.8,14.6z M78,8.2L78,8.2l-3,0l0-6.6h3C80.5,1.7,82,2.9,82,5C82,7,80.5,8.2,78,8.2z M96.3,1.9 l0,13.9l-1.7,1.3v0.4l14,0l0-5.1h-0.4l-2.4,3.6l-6.3,0l0-6.7h4.8l1.5,2.1h0.4l0-5.8h-0.4l-1.5,2.2h-4.8l0-6.1l5.8,0l2.4,3.4h0.4V0.2 l-13.5,0v0.4L96.3,1.9z M118.8,15.4l-2.2,1.7l0,0v0.4l6.1,0V17l-2.3-1.6l0-12L132,17.5h0.7l0-15.3l2.2-1.7V0.2l-6,0v0.4l2.3,1.6 l0,9.2l-9.1-11.2l-5,0v0.4l1.7,1.3L118.8,15.4z M149.9,0.1l-7.4,0v0.4l1.7,1.3l0,13.9l-1.7,1.3v0.4l7.7,0c5.7,0,9.8-3,9.8-8.7 C160,3.3,156.1,0.1,149.9,0.1z M149.9,15.9L149.9,15.9l-2.4,0l0-14.3h2.2c4.3,0,6.8,2.6,6.8,7.1C156.5,13.6,154,15.9,149.9,15.9z M170,1.8l0,13.9h0l-1.7,1.3v0.4l14,0l0-5.1h-0.4l-2.4,3.6l-6.3,0l0-6.7h4.8l1.5,2.1h0.4l0-5.8h-0.4L178,7.7h-4.8l0-6.1l5.8,0 l2.4,3.4h0.4V0.1l-13.5,0v0.4L170,1.8z M205.5,14.5L202,9.1c2.4-0.6,4-1.9,4-4.4c0-3.3-2.6-4.7-6.8-4.7l-8.4,0v0.4l1.7,1.3l0,13.9 l-1.7,1.3v0.4l6.8,0V17l-1.9-1.3l0-6h2.9l4,6.2l-1.5,1.1v0.4l6.9,0V17L205.5,14.5z M198.7,8.2L198.7,8.2l-3,0l0-6.6h3 c2.4,0,3.9,1.2,3.9,3.3C202.7,7,201.2,8.2,198.7,8.2z M79,29.4c-1.6,1.1-3.3,3-3.3,5.3h0c0,2.3,1.7,4.2,3.3,5.3l0.5-0.5 c-1-1.1-1.9-2.7-1.9-4.8c0-2.1,0.9-3.7,1.9-4.8L79,29.4z M92.3,37.9v-2.4l-2.4-3.8l-1.2-1v-0.3l3.9,0v0.3L92,31.3l2,3.1l1.9-3 L95,30.7v-0.3h3v0.3l-1.2,1l-2.4,3.7v2.5l1,0.7V39l-4.1,0v-0.4L92.3,37.9z M102.3,31.4l0,6.5l-0.8,0.7V39l3.7,0v-0.4l-0.8-0.7l0-6.5 l0.8-0.7v-0.4l-3.7,0v0.4L102.3,31.4z M108.7,38.6l1.2-0.9l0-6.3l-0.9-0.7v-0.4h3l4.1,4.9v-3.6l-1.2-0.9v-0.4h3.3v0.4l-1.2,0.9 l0,7.4h-0.4l-5.8-6.8l0,5.4l1.3,0.9V39h-3.4L108.7,38.6L108.7,38.6z M127.3,29.9c1.1,1.1,2,2.7,2,4.8v0c0,2-0.9,3.6-1.9,4.8l0.5,0.5 c1.6-1.1,3.3-3,3.3-5.3c0-2.3-1.7-4.2-3.3-5.3L127.3,29.9z"/>
</svg>
