<svg class="lt-brand-logo" xmlns="http://www.w3.org/2000/svg" width="111" height="36" viewBox="0 0 111 36">
  <path d="M58.82,4.67c-2.03,1.24-4.72,8.14-8.4,10.3-2.02,1.18-3.07-.56-1.24-7.24.6-2.2,1.22-3.56-1.21-3.26-2.75.34-4.02,6.64-8.07,9.86-3.41,2.7-2.55-3.56-1.08-6.48,1.66-3.31-.69-4.2-2.74-2.6-1.64,1.28-4.37,9.12-9.56,12.01-4.37-1.65-8.85-2.83-10.63-3.82-11.85-6.58,17.54-12.12,6.9-3.65,6.31-1.41,13.08-8.72,2.15-8.93-.87-.02-11.19.12-16.3,5.27-10.95,11,18.75,14.58,19.77,19.85.7,3.58-9.15,6.73-17.43,4.4-8.25-2.32-6.14-6.33-1.48-8.37-3.94-.11-16.87,6.84-3.79,12.29,1.86.78,8.79,1.95,13.4,1.67,7-.42,13.72-2.42,16.61-6.71,3.32-4.93-.81-8.31-6.22-10.76,1.47-.77,3.5-2.19,4.61-3.81,0,0-.09,4.66,2.8,4.47,2.9-.19,6.15-3.39,8.26-6.03-.34,2.82.94,5.88,3.74,5.71,5.09-.3,11.64-8.63,12.92-12.85.61-2.04-1.98-1.95-3.02-1.31ZM104.38,16.79c-2.49-2.99-.55-8.39-.4-10.02.13-1.55-1.46-2.76-3.93-2-2.47.76-8.2,6.74-8.38,7.08.02-.15.31-3.14.3-4.83-.03-1.69-1.77-2.47-3.43-1.62-2.69,1.36-4.72,4.93-7.13,6.86,0,0,2.04-4.32,2.69-6.08.66-1.76-3.3-3.41-4.95-1.29-5.59,7.22-9.86,13.55-9.27,2.21.14-2.7-2.26-3.69-4.14-.58-.9,1.49-3.04,8.37-8.56,11.54,0,0,5.57-.84,8.43-6.26-.56,2.02.82,13.3,12.12-.73-.32.82-1.79,4.42-2.05,5.26-.63,2.03,1.28,3.41,3.8,2.56,2.52-.86,4.68-5.76,7.67-8.06-.35,3.06.18,8.03,2.5,8.04,2.33.02,8.6-7.97,8.6-7.97-.19,4.27,2.46,9.05,6.44,9.26,3.49.18,6.04-2.44,6.04-2.44,0,0-3.88,2.07-6.37-.92ZM69.83.81c.09-1.01-1.85-1.3-2.42.5-.57,1.8,2.33.52,2.42-.5Z"/>
</svg>