<svg class="lt-brand-logo" xmlns="http://www.w3.org/2000/svg" width="40" height="40" viewBox="0 0 40 40">
  <title>Tennis Mark</title>
  <path fill-rule="evenodd" clip-rule="evenodd" d="M11.7,35.2c-0.9,0.6-1.9,1.1-3,1.4l0,0C3.4,32.9,0.1,26.9,0,20.4 C-0.2,9.3,8.6,0.2,19.6,0c11-0.2,20.2,8.6,20.4,19.6c-2.8-4.7-7.6-5.7-9-5.9c-3.5-0.5-7.1,0.5-9.9,2.6c-2.8,2.2-4.5,5.4-4.9,9.3 C15.8,28.7,14.8,32.9,11.7,35.2z M30.5,17.3c1.1,0.2,4.7,0.9,6.6,4.5v0c0.8,1.6,1.2,3.5,1.1,5.7c-0.1,0.7-0.3,1.5-0.6,2.1 c-4.7,8.7-15.3,12.7-24.6,9.1c0.3-0.2,0.7-0.4,1-0.6c3.2-2.4,5.3-6.6,5.9-12c0.3-3,1.5-5.3,3.5-6.9C25.3,17.6,27.9,16.9,30.5,17.3z"/>
</svg>
