<svg class="lt-brand-logo" xmlns="http://www.w3.org/2000/svg" width="182" height="36" viewBox="0 0 182 36">
  <path d="M158.4,34.7c-1.9-.9-3.5-2.2-4.6-3.9-1.2-1.7-1.8-3.7-1.8-6h7.8c.1,1.7.7,2.9,1.7,3.8,1.1.9,2.5,1.3,4.4,1.3,2,0,3.5-.3,4.5-1.1,1-.8,1.5-1.8,1.5-3.1,0-1-.3-1.8-.9-2.4-.7-.6-1.8-1.1-3.3-1.7l-3.6-1.1c-2.8-.8-4.9-2.1-6.2-3.7s-2-3.6-2-5.9c0-2.1.6-3.9,1.8-5.6,1.2-1.7,2.8-2.9,4.8-3.9S166.9,0,169.6,0C171.9,0,174.1.4,176,1.3c1.8.8,3.3,2.1,4.4,3.8,1.1,1.7,1.6,3.6,1.7,5.8h-7.5c-.1-1.5-.7-2.6-1.8-3.5-1.1-.8-2.4-1.2-4.1-1.2-1.6,0-3,.3-3.9,1.1-1,.7-1.5,1.8-1.5,2.9,0,1,.3,1.7.9,2.2.6.6,1.7,1.1,3.3,1.7l3.6,1.1c2.8.9,4.9,2.1,6.3,3.7,1.3,1.5,2,3.5,2,5.8,0,2.1-.6,4-1.8,5.8s-2.9,3.1-5,4.1c-2.2,1-4.7,1.5-7.5,1.5-2.6-.1-4.8-.5-6.7-1.4h0ZM151.9.5h-7.4l-7.5,35h7.4L151.9.5ZM136.4.5h-6.9l-5.6,25.8h-.1L115.1.5h-9.6l-7.5,35h6.9l5.7-26.3h.1l8.9,26.3h9.3L136.4.5ZM97.4.5h-6.9l-5.6,25.8h-.1L76.1.5h-9.6l-7.5,35h6.9l5.7-26.3h.1l8.9,26.3h9.3L97.4.5h0ZM59.7.5h-24l-7.6,35h24.3l1.4-6.6h-16.8l1.8-8.1h15.2l1.4-6.4h-15.3l1.6-7.4h16.6l1.4-6.5h0ZM30.4.5H1.5L0,7.1h10.8l-6,28.4h7.4l6.1-28.4h10.7l1.4-6.6Z"/>
</svg>