<svg class="lt-brand-logo" xmlns="http://www.w3.org/2000/svg" width="269" height="36" viewBox="0 0 269 36">
  <title>Ultra Fit</title>
  <path d="M106.3,7.4l7.9,6.3l1.2-6.2h7.7c4.2,0,6.2,0.7,5.5,4.4c-0.8,3.5-3.4,4.5-8.1,4.5h-16.5l-4,19.2h9.4l2.6-12.1h4.6 c3.1,0,3.8,1,4.5,2.7l2.5,9.4h9.9l-2.9-9.5c-0.6-2-1.2-3.1-1.7-3.8c4-1.3,7.3-4.2,8.6-10.2c1.8-8.2-1.9-11.8-11.4-11.8h-18.6 L106.3,7.4L106.3,7.4z M187.1,6l7.9,6.2l0.8-3.8h18.1l1.7-8.3L188.1,0L187.1,6L187.1,6z M210.4,14.9h-25.5l-4.4,20.6h9.5l2.8-13.3 h15.9L210.4,14.9L210.4,14.9z M232.3,0.1H223l-7.6,35.4h9.5L232.3,0.1z M269,0.1h-30.3L237,8.5h10.4l-5.7,27h9.4l5.7-27h10.4 L269,0.1L269,0.1z M157.6,0.1v0.4h-0.3l-20.7,35h10.2l3.6-6.7h14.1l0.8,6.7h10.1l-5.6-35.4H157.6z M155,21.1h-0.2L162,8.8h0.2 l1.5,12.3H155z M100.6,0.1H70.2l-1.6,8.4H79l-5.7,27h9.4l5.7-27h10.4L100.6,0.1L100.6,0.1z M55.3,0.2L46,0.1l-7.5,35.4h25.3l1.8-8.5 H49.6L55.3,0.2L55.3,0.2z M23.5,19.4L23.4,20c-1.2,5.9-2.8,7.8-8.4,7.8c-6,0-6.3-1.5-5-7.8l4.3-19.8H4.7L0.6,20.9 C-1.7,31.8,2.9,36,13.1,36c10.2,0,17.1-4,19.4-15L37,0.1h-9.4L23.5,19.4L23.5,19.4z"/>
</svg>