<svg class="lt-brand-logo" xmlns="http://www.w3.org/2000/svg" width="269" height="64" viewBox="0 0 269 64">
  <title>Ultra Fit</title>
  <path d="M55,15.3c0.6,0.3,0.9,0.9,0.9,1.6v30.2c0,0.6-0.3,1.2-0.9,1.6L28.9,63.8c-0.6,0.3-1.2,0.3-1.8,0L0.9,48.7 C0.3,48.3,0,47.7,0,47.1V16.9c0-0.6,0.3-1.2,0.9-1.6L27,0.2c0.6-0.3,1.2-0.3,1.8,0L55,15.3L55,15.3z M31.9,25.5l4.8,3.7l0.4-2.3h10 l0.8-4.5H32.5L31.9,25.5L31.9,25.5z M45.7,30.6H30.9l-2.1,11.5h5.5l1.4-7.5H45L45.7,30.6L45.7,30.6z M21,33.4 C20.2,37,19.3,38,16.3,38c-3,0-3.5-1-2.7-4.5L16,22.3h-5.6L8,34c-1.3,6.2,1.4,8.5,7.2,8.5s9.9-2.3,11.2-8.4l2.5-11.8h-5.6L21,33.4 L21,33.4z M150.3,24.5l5.7,4.6l0.9-4.5h5.6c3,0,4.5,0.5,4,3.2c-0.6,2.5-2.5,3.2-5.9,3.2h-11.9l-2.9,13.9h6.8l1.9-8.8h3.4 c2.3,0,2.8,0.7,3.2,1.9l1.8,6.8h7.2l-2.1-6.9c-0.5-1.4-0.8-2.3-1.2-2.8c2.9-1,5.3-3,6.3-7.4c1.3-5.9-1.4-8.5-8.3-8.5h-13.5 L150.3,24.5L150.3,24.5z M208.9,23.5l5.7,4.5l0.6-2.8h13.1l1.2-6l-19.9-0.1L208.9,23.5L208.9,23.5z M225.8,29.9h-18.5l-3.2,14.9h6.9 l2.1-9.6h11.6L225.8,29.9L225.8,29.9z M241.7,19.2h-6.8l-5.5,25.6h6.9L241.7,19.2z M268.3,19.2h-21.9l-1.2,6.1h7.6l-4.1,19.6h6.8 l4.1-19.6h7.6L268.3,19.2L268.3,19.2z M187.5,19.2v0.3h-0.2l-15,25.4h7.4l2.6-4.8h10.2l0.6,4.8h7.3l-4.1-25.6H187.5z M185.6,34.5 h-0.1l5.2-8.9h0.1l1.1,8.9H185.6z M146.2,19.2h-22l-1.2,6.1h7.6l-4.1,19.6h6.8l4.1-19.6h7.5L146.2,19.2L146.2,19.2z M113.4,19.3 l-6.8-0.1l-5.4,25.6h18.3l1.3-6.1h-11.5L113.4,19.3L113.4,19.3z M90.4,33.2l-0.1,0.4c-0.9,4.3-2,5.6-6.1,5.6c-4.3,0-4.6-1.1-3.6-5.7 l3.1-14.3h-6.9l-3,15.1c-1.6,7.9,1.7,10.9,9.1,10.9c7.4,0,12.4-2.9,14.1-10.8l3.2-15.2h-6.8L90.4,33.2L90.4,33.2z"/>
</svg>