<?xml version="1.0" encoding="UTF-8"?>
<svg id="Layer_1" xmlns="http://www.w3.org/2000/svg" version="1.1" viewBox="0 0 212 24">
  <!-- Generator: Adobe Illustrator 29.6.1, SVG Export Plug-In . SVG Version: 2.1.1 Build 9)  -->
  <path d="M200.41.33h4.93l-4.06,18.93h10l-.97,4.39h-14.93L200.41.33ZM182.44.33h4.93l-4.06,18.93h10l-.97,4.39h-14.93L182.44.33ZM164.12.33h7.07l2.9,23.32h-5.06l-.56-5.63h-9.03l-3.03,5.63h-5.43L164.12.33ZM168.05,13.83l-.97-9.9h-.07l-5.33,9.9h6.37ZM149.22,1.83c1.37,1,2.04,2.43,2.04,4.3s-.5,2.76-1.47,3.77c-.97,1-2.24,1.63-3.8,1.89l-.03.07c1.27.23,2.27.77,3,1.56.74.84,1.1,1.86,1.1,3.13s-.36,2.6-1.13,3.67c-.77,1.1-1.84,1.94-3.2,2.53-1.37.59-3,.9-4.83.9h-11.23L134.73.33h9c2.3,0,4.13.5,5.5,1.5h-.01ZM143.93,18.96c.74-.64,1.1-1.43,1.1-2.43s-.3-1.6-.9-2.1c-.6-.49-1.47-.74-2.6-.74h-4.73l-1.37,6.23h5.59c1.2,0,2.17-.33,2.9-.97ZM145.19,9.13c.7-.64,1.03-1.4,1.03-2.37s-.3-1.56-.87-2.04c-.57-.43-1.37-.67-2.4-.67h-4.1l-1.3,6h5.03c1.07,0,1.94-.3,2.6-.94h0ZM114.93,15.03L109.44.33h5.16l3.57,9.87h.07L126.03.33h5.8l-11.97,14.8-1.86,8.53h-4.93l1.86-8.63ZM91.5.33h16l-.94,4.36h-11.07l-1.07,4.97h10.2l-.94,4.26h-10.2l-1.17,5.36h11.26l-.97,4.36h-16.16L91.5.33ZM72.21.33h4.93l-4.06,18.93h10.66l-.97,4.39h-15.59L72.21.33ZM52.92.33h4.93l-4.06,18.93h10.66l-.97,4.39h-15.59L52.92.33ZM27.09,22.66c-1.63-.9-2.93-2.14-3.83-3.73-.9-1.56-1.37-3.37-1.37-5.4s.59-4.77,1.8-6.83c1.2-2.07,2.83-3.7,4.9-4.9,2.06-1.2,4.29-1.79,6.72-1.79s3.96.43,5.59,1.33c1.63.9,2.93,2.14,3.83,3.7.9,1.6,1.36,3.4,1.36,5.43s-.6,4.77-1.83,6.83c-1.2,2.07-2.83,3.7-4.87,4.9-2.04,1.2-4.29,1.8-6.73,1.8s-3.96-.43-5.59-1.33h.02ZM37.15,18.43c1.23-.77,2.17-1.83,2.86-3.2.7-1.37,1.07-2.86,1.07-4.57s-.56-3.5-1.7-4.6c-1.1-1.1-2.57-1.66-4.39-1.66s-2.9.4-4.13,1.17c-1.23.77-2.17,1.83-2.86,3.2-.7,1.37-1.03,2.86-1.03,4.54s.56,3.53,1.66,4.63c1.1,1.1,2.6,1.66,4.44,1.66s2.86-.4,4.1-1.17h-.01ZM22.66.33h-5.43L7.07,19.32h-.07L5.1.33H0l2.67,23.32h7.13L22.66.33Z"/>
</svg>