<svg class="lt-brand-logo" xmlns="http://www.w3.org/2000/svg" width="202" height="32" viewBox="0 0 202 32">
  <title>Warrior</title>
  <path d="M53.8,3.9L43.4,31.6h-3.9L51.4,0.4h5.1l11.9,31.1h-4.1L53.8,3.9L53.8,3.9z M177.5,31.6V0.4h12c6,0,10.5,2.8,10.5,9.1 c0,5.2-3.2,8-7.8,8.8l9.2,13.2H197l-8.9-12.8h-6.9v12.8H177.5z M196.1,9.6c0-3.7-2.4-5.7-6.9-5.7h-8v11.5h8 C193.7,15.3,196.1,13.3,196.1,9.6z M140.7,16c0-9.5,5.9-16,15.2-16c9.3,0,15.2,6.5,15.2,16s-5.9,16-15.2,16 C146.7,32,140.7,25.5,140.7,16z M167.3,16c0-7.6-4.1-12.6-11.3-12.6s-11.4,5-11.4,12.6s4.1,12.6,11.4,12.6 C163.2,28.6,167.3,23.6,167.3,16z M130.7,0.4v31.1h3.7V0.4H130.7z M101.8,31.6V0.4h12c6,0,10.5,2.8,10.5,9.1c0,5.2-3.2,8-7.8,8.8 l9.2,13.2h-4.4l-8.9-12.8h-6.9v12.8H101.8z M120.4,9.6c0-3.7-2.4-5.7-6.9-5.7h-8v11.5h8C118,15.3,120.4,13.3,120.4,9.6z M72.9,31.6 V0.4h12c6,0,10.5,2.8,10.5,9.1c0,5.2-3.2,8-7.8,8.8l9.2,13.2h-4.4l-8.9-12.8h-6.9v12.8H72.9z M91.5,9.6c0-3.7-2.4-5.7-6.9-5.7h-8 v11.5h8C89.1,15.3,91.5,13.3,91.5,9.6z M47.3,31.6l1.3-3.4h16l1.2,3.4H47.3z M39.8,0.4H36l-6.7,27.7h-0.1L22.7,0.4h-5.5l-6.4,27.7 h-0.1L3.9,0.4H0l7.8,31.1h5.7l6.4-27.1H20l6.4,27.1H32L39.8,0.4z"/>
</svg>
