<svg class="lt-brand-logo" xmlns="http://www.w3.org/2000/svg" width="180" height="32" viewBox="0 0 180 32">
  <title>Extreme</title>
  <path d="M86.3,9.3c0-6.5-4.7-9.3-10.8-9.3H63.5v10l3.8,2.1V3.5h7.8c4.7,0,7.1,2.1,7.1,5.9c0,3.8-2.5,5.9-7.1,5.9H63.5V32h3.8V18.8 h6.7L83.3,32h4.5l-9.5-13.6C83,17.6,86.3,14.6,86.3,9.3L86.3,9.3z M159.1,32V0h20.4v3.5h-16.6v10.3H178v3.5h-15.1v11.2h16.9V32 L159.1,32L159.1,32z M120.1,32V0h6.1l9.3,20.8h0.1L144.9,0h6v32h-3.7V3.8h-0.1l-9.5,20.9h-4.4l-9.4-20.9h-0.1V32H120.1L120.1,32z M93.2,32V0h20.4v3.5H97v10.3h15.1v3.5H97v11.2h16.9V32L93.2,32L93.2,32z M58.3,0H31.6v3.5h11.4V32h3.8V3.5h11.4V0z M28.8,0h-4.5 L15,12.9h-0.1L5.5,0H0.8L12,15.4L0,32h4.6l10.2-14.2h0.1L25.1,32h4.7L17.7,15.4L28.8,0z"/>
</svg>
