<?xml version="1.0" encoding="utf-8"?>
<!-- Generator: Adobe Illustrator 26.0.3, SVG Export Plug-In . SVG Version: 6.00 Build 0)  -->
<svg version="1.1" id="Layer_1" xmlns="http://www.w3.org/2000/svg" xmlns:xlink="http://www.w3.org/1999/xlink" x="0px" y="0px"
	 width="250px" height="75px" viewBox="0 0 250 75" enable-background="new 0 0 250 75" xml:space="preserve">
<path fill-rule="evenodd" clip-rule="evenodd" fill="#0078AA" d="M13,27.4c1.3-7.7,7.5-13.9,15.3-15.2c5.9-1,11.4,0.8,15.4,4.3
	c0.5,0.5,0.5,1.3,0,1.8L19,42.7c-0.5,0.5-1.3,0.5-1.8,0C13.8,38.7,12,33.2,13,27.4 M63.6,1.5L63,0.8c-0.5-0.5-1.3-0.5-1.7,0
	l-6.9,6.9c-0.7,0.7-1.8,0.7-2.5,0C45.2,2,36.3-1.1,26.6,0.4C13.6,2.3,3.1,12.8,1.1,25.8c-1.5,9.8,1.8,18.9,7.8,25.4
	c0.5,0.5,0.5,1.2,0,1.7l-8.5,8.4c-0.5,0.5-0.5,1.3,0,1.7L1,63.6c0.5,0.5,1.3,0.5,1.7,0l17.3-17.2c0.4-0.4,1-0.5,1.5-0.2
	c3.7,2.3,8.2,3.3,13,2.5c7.8-1.3,14-7.5,15.3-15.2c0.8-4.8-0.3-9.2-2.5-12.9c-0.3-0.5-0.3-1.1,0.2-1.5l16.1-16
	C64.1,2.7,64.1,2,63.6,1.5"/>
<g>
	<path fill="#0078AA" d="M85.3,48c-3.4-1.9-5.9-4.5-7.7-7.8c-1.8-3.4-2.7-7.3-2.7-11.7c0-4.4,0.9-8.4,2.7-11.7
		c1.8-3.4,4.4-6,7.7-7.8c3.4-1.9,7.3-2.8,11.8-2.8c2.8,0,5.6,0.4,8.2,1.3c2.7,0.9,4.8,2,6.5,3.5l-3.5,8c-3.6-2.5-7.2-3.8-11-3.8
		c-3.5,0-6.2,1.1-8.1,3.3c-1.9,2.2-2.8,5.5-2.8,9.9s0.9,7.7,2.8,10c1.9,2.2,4.6,3.4,8.1,3.4c3.7,0,7.4-1.3,11-3.8l3.5,8
		c-1.7,1.4-3.9,2.6-6.5,3.5c-2.7,0.9-5.4,1.3-8.2,1.3C92.6,50.8,88.7,49.8,85.3,48z"/>
	<path fill="#0078AA" d="M129.1,48c-3.3-1.8-5.8-4.4-7.6-7.8c-1.8-3.4-2.7-7.3-2.7-11.8s0.9-8.5,2.7-11.8c1.8-3.4,4.3-5.9,7.6-7.8
		c3.3-1.8,7.1-2.7,11.6-2.7c4.4,0,8.3,0.9,11.6,2.7c3.3,1.8,5.8,4.4,7.5,7.8c1.8,3.4,2.6,7.3,2.6,11.8s-0.9,8.5-2.7,11.8
		c-1.8,3.4-4.3,6-7.6,7.8c-3.3,1.8-7.1,2.7-11.5,2.7C136.3,50.8,132.4,49.8,129.1,48z M148.4,38.6c1.9-2.3,2.8-5.7,2.8-10.2
		c0-4.4-0.9-7.8-2.8-10.1s-4.4-3.5-7.7-3.5c-3.3,0-5.9,1.1-7.7,3.4c-1.9,2.3-2.8,5.7-2.8,10.2s0.9,7.9,2.8,10.2s4.4,3.5,7.7,3.5
		S146.6,40.9,148.4,38.6z"/>
	<path fill="#0078AA" d="M211.5,50.2H199l-7.5-13.9c-0.9-1.6-2.5-2.4-4.5-2.4h-3.5v16.3h-11.2V6.7H193c5.3,0,9.2,1.1,11.9,3.4
		c2.7,2.3,4,5.6,4,9.9c0,3.3-0.9,6.1-2.7,8.4s-4.4,3.8-7.7,4.6c2.5,0.5,4.5,2.2,6,4.9L211.5,50.2z M196.7,24.2
		c1.1-0.8,1.6-2.1,1.6-3.8c0-1.8-0.5-3.1-1.6-3.9c-1.1-0.8-2.9-1.2-5.4-1.2h-7.9v10.1h7.9C193.8,25.4,195.6,25,196.7,24.2z"/>
	<path fill="#0078AA" d="M219,6.7h31v8.8h-19.9v8.3h18.7v8.7h-18.7v9H250v8.8h-31V6.7z"/>
</g>
<g>
	<path fill="#999999" d="M28.5,63.6H34c1.2,0,2.2,0.3,2.9,1s1,1.5,1,2.6c0,1.1-0.3,2-1,2.6s-1.7,1-2.9,1h-2.5v4.1h-2.9V63.6z
		 M33.6,68.6c0.5,0,0.9-0.1,1.2-0.3c0.3-0.2,0.4-0.6,0.4-1c0-0.5-0.1-0.8-0.4-1c-0.3-0.2-0.7-0.3-1.2-0.3h-2.1v2.8H33.6z"/>
	<path fill="#999999" d="M52.7,74.9h-3.2l-2-3.6c-0.2-0.4-0.6-0.6-1.2-0.6h-0.9v4.2h-2.9V63.6h5.4c1.4,0,2.4,0.3,3.1,0.9
		c0.7,0.6,1,1.4,1,2.6c0,0.9-0.2,1.6-0.7,2.2c-0.5,0.6-1.1,1-2,1.2c0.7,0.1,1.2,0.6,1.6,1.3L52.7,74.9z M48.8,68.1
		c0.3-0.2,0.4-0.5,0.4-1c0-0.5-0.1-0.8-0.4-1s-0.7-0.3-1.4-0.3h-2v2.6h2C48.1,68.4,48.6,68.3,48.8,68.1z"/>
	<path fill="#999999" d="M59.3,74.3c-0.8-0.5-1.5-1.1-2-2s-0.7-1.9-0.7-3.1c0-1.2,0.2-2.2,0.7-3.1s1.1-1.5,2-2
		c0.8-0.5,1.8-0.7,3-0.7c1.2,0,2.2,0.2,3,0.7c0.8,0.5,1.5,1.1,2,2S68,68,68,69.2c0,1.2-0.2,2.2-0.7,3.1c-0.5,0.9-1.1,1.5-2,2
		c-0.8,0.5-1.8,0.7-3,0.7C61.2,75,60.2,74.8,59.3,74.3z M64.3,71.8c0.5-0.6,0.7-1.5,0.7-2.6c0-1.2-0.2-2-0.7-2.6
		c-0.5-0.6-1.1-0.9-2-0.9c-0.9,0-1.5,0.3-2,0.9c-0.5,0.6-0.7,1.5-0.7,2.6c0,1.2,0.2,2,0.7,2.6c0.5,0.6,1.1,0.9,2,0.9
		S63.8,72.4,64.3,71.8z"/>
	<path fill="#999999" d="M72.9,63.6h4.6c1.2,0,2.3,0.2,3.2,0.7c0.9,0.4,1.6,1.1,2.1,1.9c0.5,0.8,0.7,1.9,0.7,3c0,1.2-0.2,2.2-0.7,3
		c-0.5,0.8-1.2,1.5-2.1,1.9c-0.9,0.4-2,0.7-3.2,0.7h-4.6V63.6z M77.3,72.5c1.1,0,1.9-0.3,2.5-0.8s0.8-1.4,0.8-2.5
		c0-1.1-0.3-1.9-0.8-2.5c-0.5-0.5-1.4-0.8-2.5-0.8h-1.4v6.5H77.3z"/>
	<path fill="#999999" d="M89.7,73.8c-0.8-0.8-1.3-2-1.3-3.6v-6.5h2.9v6.6c0,0.8,0.2,1.4,0.5,1.9s0.9,0.7,1.6,0.7s1.2-0.2,1.6-0.7
		c0.4-0.4,0.5-1.1,0.5-1.9v-6.6h2.9v6.5c0,1.6-0.4,2.8-1.3,3.6C96.3,74.6,95,75,93.4,75C91.8,75,90.5,74.6,89.7,73.8z"/>
	<path fill="#999999" d="M106,74.3c-0.9-0.5-1.5-1.2-2-2c-0.5-0.9-0.7-1.9-0.7-3c0-1.2,0.2-2.2,0.7-3c0.5-0.9,1.1-1.5,2-2
		c0.9-0.5,1.9-0.7,3.1-0.7c0.7,0,1.4,0.1,2.1,0.3c0.7,0.2,1.3,0.5,1.7,0.9l-0.9,2.1c-0.9-0.7-1.9-1-2.8-1c-0.9,0-1.6,0.3-2.1,0.9
		c-0.5,0.6-0.7,1.4-0.7,2.6c0,1.1,0.2,2,0.7,2.6c0.5,0.6,1.2,0.9,2.1,0.9c1,0,1.9-0.3,2.8-1l0.9,2.1c-0.4,0.4-1,0.7-1.7,0.9
		c-0.7,0.2-1.4,0.3-2.1,0.3C107.9,75,106.9,74.8,106,74.3z"/>
	<path fill="#999999" d="M120,66h-3.4v-2.4h9.7V66H123v8.9h-3V66z"/>
	<path fill="#999999" d="M138.6,63.6h2.9v8.9h4.8v2.4h-7.7V63.6z"/>
	<path fill="#999999" d="M158.6,72.5h-5l-1,2.3h-3l5.3-11.3h2.3l5.3,11.3h-2.9L158.6,72.5z M157.6,70.3l-1.6-3.6l-1.6,3.6H157.6z"/>
	<path fill="#999999" d="M176.4,63.6v11.3h-2.2l-5.2-6.4v6.4h-2.7V63.6h2.1l5.2,6.4v-6.4H176.4z"/>
	<path fill="#999999" d="M191.6,68.5v5.6c-0.6,0.3-1.3,0.5-2,0.6c-0.7,0.1-1.5,0.2-2.3,0.2c-1.2,0-2.3-0.2-3.2-0.7s-1.6-1.1-2.1-2
		c-0.5-0.9-0.7-1.9-0.7-3.1c0-1.2,0.2-2.2,0.7-3.1c0.5-0.9,1.2-1.5,2-2c0.9-0.5,1.9-0.7,3.1-0.7c0.8,0,1.6,0.1,2.3,0.3
		c0.7,0.2,1.3,0.5,1.8,0.9l-0.9,2.1c-0.5-0.3-1-0.6-1.5-0.7c-0.5-0.1-1-0.2-1.5-0.2c-1,0-1.8,0.3-2.3,0.8c-0.5,0.6-0.7,1.4-0.7,2.6
		c0,1.2,0.3,2.1,0.8,2.7s1.3,0.9,2.4,0.9c0.5,0,1-0.1,1.5-0.2v-2.1h-2v-2H191.6z"/>
	<path fill="#999999" d="M198,73.8c-0.8-0.8-1.3-2-1.3-3.6v-6.5h2.9v6.6c0,0.8,0.2,1.4,0.5,1.9s0.9,0.7,1.6,0.7s1.2-0.2,1.6-0.7
		c0.4-0.4,0.5-1.1,0.5-1.9v-6.6h2.9v6.5c0,1.6-0.4,2.8-1.3,3.6c-0.9,0.8-2.1,1.3-3.7,1.3C200.1,75,198.8,74.6,198,73.8z"/>
	<path fill="#999999" d="M219.4,72.5h-5l-1,2.3h-3l5.3-11.3h2.3l5.3,11.3h-2.9L219.4,72.5z M218.4,70.3l-1.6-3.6l-1.6,3.6H218.4z"/>
	<path fill="#999999" d="M236.9,68.5v5.6c-0.6,0.3-1.3,0.5-2,0.6c-0.7,0.1-1.5,0.2-2.3,0.2c-1.2,0-2.3-0.2-3.2-0.7s-1.6-1.1-2.1-2
		c-0.5-0.9-0.7-1.9-0.7-3.1c0-1.2,0.2-2.2,0.7-3.1c0.5-0.9,1.2-1.5,2-2c0.9-0.5,1.9-0.7,3.1-0.7c0.8,0,1.6,0.1,2.3,0.3
		c0.7,0.2,1.3,0.5,1.8,0.9l-0.9,2.1c-0.5-0.3-1-0.6-1.5-0.7c-0.5-0.1-1-0.2-1.5-0.2c-1,0-1.8,0.3-2.3,0.8c-0.5,0.6-0.7,1.4-0.7,2.6
		c0,1.2,0.3,2.1,0.8,2.7s1.3,0.9,2.4,0.9c0.5,0,1-0.1,1.5-0.2v-2.1h-2v-2H236.9z"/>
	<path fill="#999999" d="M242,63.6h8v2.3h-5.2V68h4.8v2.3h-4.8v2.3h5.2v2.3h-8V63.6z"/>
</g>
</svg>
