<svg xmlns="http://www.w3.org/2000/svg" width="17" height="17" viewBox="0 0 17 17" version="1.1">
  <title>
    icon-star-outline-hover
  </title>
  <desc>
    Outline Star Icon - Hover State
  </desc>
  <g stroke="none" stroke-width="1" fill="none" fill-rule="evenodd">
    <g transform="translate(-523.000000, -407.000000)" fill="#00CBED">
      <g transform="translate(202.000000, 132.000000)">
        <g transform="translate(321.000000, 275.000000)">
          <path d="M16.14 7.19L16.14 7.19 10.95 7.19C10.52 7.19 10.14 6.91 10 6.51L8.32 1.56C8.33 1.59 8.39 1.63 8.41 1.63 8.46 1.63 8.49 1.6 8.51 1.56L6.9 6.49C6.77 6.91 6.39 7.19 5.95 7.19L0.9 7.19C0.94 7.19 0.98 7.16 1 7.12 1.01 7.08 0.99 7.03 0.96 7L5.16 10.02C5.51 10.27 5.66 10.72 5.53 11.13L4 15.96C4.01 15.92 4 15.88 3.97 15.85 3.95 15.84 3.93 15.83 3.91 15.83 3.88 15.83 3.86 15.84 3.85 15.85L7.98 12.91C8.33 12.67 8.8 12.67 9.15 12.92L13.11 15.78C13.08 15.76 13.03 15.76 13 15.78 12.96 15.81 12.95 15.85 12.96 15.89L11.51 11.14C11.38 10.73 11.53 10.29 11.88 10.04L16.09 7C16.05 7.03 16.04 7.07 16.05 7.12 16.06 7.16 16.1 7.19 16.14 7.19L16.14 7.19ZM16.14 6.19L16.14 6.19C16.53 6.19 16.88 6.44 17 6.81 17.12 7.18 16.99 7.59 16.67 7.82L12.47 10.85 13.92 15.6C14.03 15.97 13.89 16.37 13.58 16.6 13.26 16.82 12.84 16.82 12.53 16.59L8.56 13.73 4.43 16.67C4.27 16.78 4.09 16.83 3.91 16.83 3.72 16.83 3.53 16.77 3.38 16.66 3.06 16.43 2.93 16.03 3.05 15.66L4.57 10.83 0.38 7.82C0.06 7.59-0.08 7.18 0.04 6.81 0.16 6.44 0.51 6.19 0.9 6.19L5.95 6.19 7.56 1.25C7.68 0.88 8.02 0.63 8.41 0.63 8.82 0.61 9.14 0.87 9.26 1.24L10.95 6.19 16.14 6.19Z"/>
        </g>
      </g>
    </g>
  </g>
</svg>