<svg xmlns="http://www.w3.org/2000/svg" width="20" height="20" viewBox="0 0 20 20" version="1.1">
  <title>
    icon-account
  </title>
  <desc>
    Account Icon
  </desc>
  <g stroke="none" stroke-width="1" fill="none" fill-rule="evenodd">
    <g transform="translate(-1391.000000, -10.000000)" stroke="#999999">
      <g transform="translate(1037.000000, 11.000000)">
        <g transform="translate(355.000000, 0.000000)">
          <path d="M9 0C4.03 0 0 4.03 0 9 0 13.97 4.03 18 9 18 13.97 18 18 13.97 18 9 18 4.03 13.97 0 9 0ZM3 15.75L3 14.6C3 12.94 4.44 11.63 6.21 11.63L11.79 11.63C13.56 11.63 15 12.94 15 14.6L15 15.75M11.25 7.23C11.25 8.42 10.18 9.38 9 9.38 7.82 9.38 6.75 8.42 6.75 7.23L6.75 5.52C6.75 4.33 7.82 3.38 9 3.38 10.18 3.38 11.25 4.33 11.25 5.52L11.25 7.23 11.25 7.23Z"/>
        </g>
      </g>
    </g>
  </g>
</svg>