<svg xmlns="http://www.w3.org/2000/svg" width="21" height="17" viewBox="0 0 21 17" version="1.1">
  <title>
    icon-club
  </title>
  <desc>
    Club Icon
  </desc>
  <g stroke="none" stroke-width="1" fill="none" fill-rule="evenodd">
    <g transform="translate(-14.000000, -14.000000)" fill="#FFFFFF">
      <path d="M30 20L34 20 34 19 34 31 34 30 15 30 15 31 15 19 15 20 19 20 19 19 15 19 14 19 14 31 15 31 34 31 35 31 35 19 34 19 30 19 30 20 30 20ZM19.92 31L19.92 16 19.92 17C21.07 15.65 22.73 15.03 24.5 15 26.27 15.03 27.93 15.65 29.08 17L29.08 16 29.08 31 30 31 30 16C28.31 14.7 26.46 14 24.5 14 22.54 14 20.69 14.7 19 16L19 16 19 31 19.92 31 19.92 31ZM27 30L27 23C27 21.14 25.88 20 25 20 23.12 20 22 21.14 22 23L22 30 23 30 23 23C22.92 21.67 23.62 20.96 25 21 25.38 20.96 26.08 21.67 26 23L26 30 27 30 27 30Z"/>
    </g>
  </g>
</svg>