<svg xmlns="http://www.w3.org/2000/svg" width="17" height="17" viewBox="0 0 17 17" version="1.1">
  <title>
    icon-star-outline
  </title>
  <desc>
    Outline Star Icon
  </desc>
  <g stroke="none" stroke-width="1" fill="none" fill-rule="evenodd">
    <g transform="translate(-523.000000, -287.000000)" fill="#BCBCBC">
      <g transform="translate(202.000000, 132.000000)">
        <g transform="translate(321.000000, 155.000000)">
          <path d="M16.1 7.12L16.1 7.12 10.92 7.12C10.49 7.12 10.11 6.85 9.97 6.44L8.29 1.56C8.3 1.59 8.37 1.63 8.39 1.63 8.43 1.63 8.47 1.6 8.49 1.56L6.89 6.43C6.75 6.84 6.37 7.12 5.94 7.12L0.9 7.12C0.94 7.12 0.98 7.09 0.99 7.04 1.01 6.99 0.99 6.94 0.95 6.91L5.14 9.89C5.49 10.14 5.65 10.59 5.51 11.01L3.99 15.78C4.01 15.73 3.99 15.68 3.95 15.65 3.94 15.64 3.91 15.63 3.89 15.63 3.88 15.63 3.86 15.64 3.84 15.65L7.96 12.75C8.31 12.5 8.77 12.51 9.12 12.75L13.07 15.58C13.04 15.56 13 15.56 12.96 15.58 12.93 15.61 12.91 15.66 12.92 15.71L11.48 11.02C11.35 10.61 11.5 10.16 11.85 9.91L16.05 6.91C16.01 6.94 15.99 6.99 16.01 7.04 16.02 7.09 16.06 7.12 16.1 7.12L16.1 7.12ZM16.1 6.12L16.1 6.12C16.49 6.12 16.84 6.37 16.96 6.73 17.08 7.1 16.94 7.5 16.63 7.73L12.43 10.72 13.88 15.42C13.99 15.78 13.86 16.18 13.54 16.4 13.23 16.62 12.81 16.62 12.5 16.4L8.54 13.57 4.41 16.47C4.26 16.58 4.08 16.63 3.89 16.63 3.71 16.63 3.52 16.57 3.37 16.46 3.05 16.24 2.92 15.84 3.04 15.47L4.56 10.7 0.37 7.73C0.06 7.5-0.08 7.1 0.04 6.73 0.16 6.37 0.51 6.12 0.9 6.12L5.94 6.12 7.54 1.25C7.66 0.88 8 0.63 8.38 0.63 8.8 0.61 9.12 0.87 9.24 1.23L10.92 6.12 16.1 6.12Z"/>
        </g>
      </g>
    </g>
  </g>
</svg>