<svg xmlns="http://www.w3.org/2000/svg" width="17" height="16" viewBox="0 0 17 16" version="1.1">
  <title>
    icon-star-solid
  </title>
  <desc>
    Star Icon Solid
  </desc>
  <g stroke="none" stroke-width="1" fill="none" fill-rule="evenodd">
    <g transform="translate(-523.000000, -163.000000)" fill="#00CBED">
      <g transform="translate(202.000000, 132.000000)">
        <g transform="translate(321.000000, 31.000000)">
          <path d="M16.1 5.49L10.92 5.49 9.24 0.6C9.12 0.24 8.8-0.02 8.38 0 8 0 7.66 0.25 7.54 0.61L5.94 5.49 0.9 5.49C0.51 5.49 0.16 5.73 0.04 6.1 -0.08 6.47 0.06 6.87 0.37 7.1L4.56 10.07 3.04 14.84C2.92 15.21 3.05 15.6 3.37 15.83 3.52 15.94 3.71 16 3.89 16 4.08 16 4.26 15.94 4.41 15.84L8.54 12.94 12.5 15.77C12.81 15.99 13.23 15.99 13.54 15.77 13.86 15.54 13.99 15.15 13.88 14.78L12.43 10.09 16.63 7.1C16.94 6.87 17.08 6.47 16.96 6.1 16.84 5.73 16.49 5.49 16.1 5.49Z"/>
        </g>
      </g>
    </g>
  </g>
</svg>