<svg xmlns="http://www.w3.org/2000/svg" width="20" height="12" viewBox="0 0 20 12" version="1.1">
  <title>
    icon-input-password
  </title>
  <desc>
    Password Icon
  </desc>
  <g stroke="none" stroke-width="1" fill="none" fill-rule="evenodd">
    <g transform="translate(0.000000, -4.000000)" fill="#999999">
      <path d="M6 5C8.12 5 10.01 6.34 10.72 8.33L10.95 9 11.66 9 17.99 9C18.55 9 19 9.45 19 10 19 10.55 18.55 11 17.99 11L11.66 11 10.95 11 10.72 11.67C10.01 13.66 8.12 15 6 15 3.24 15 1 12.76 1 10 1 7.24 3.24 5 6 5L6 5ZM5 12C6.1 12 7 11.1 7 10 7 8.9 6.1 8 5 8 3.9 8 3 8.9 3 10 3 11.1 3.9 12 5 12L5 12ZM6 4C2.69 4 0 6.69 0 10 0 13.31 2.69 16 6 16 8.61 16 10.84 14.33 11.66 12L17.99 12C19.1 12 20 11.1 20 10 20 8.89 19.1 8 17.99 8L11.66 8C10.84 5.67 8.61 4 6 4L6 4 6 4ZM5 11C4.45 11 4 10.55 4 10 4 9.45 4.45 9 5 9 5.55 9 6 9.45 6 10 6 10.55 5.55 11 5 11L5 11 5 11Z"/>
    </g>
  </g>
</svg>