<svg xmlns="http://www.w3.org/2000/svg" width="18" height="16" viewBox="0 0 18 16" version="1.1">
  <title>
    error
  </title>
  <desc>
    Error Icon
  </desc>
  <g stroke="none" stroke-width="1" fill="none" fill-rule="evenodd">
    <g transform="translate(-1.000000, -2.000000)" fill="#ffb700">
      <path d="M18.5 14.47L12.07 3.49C11.51 2.53 10.77 2 10 2 9.23 2 8.49 2.53 7.93 3.49L1.5 14.47C0.94 15.43 0.85 16.32 1.23 16.98 1.62 17.64 2.45 18 3.57 18L16.43 18C17.55 18 18.38 17.64 18.77 16.98 19.15 16.32 19.06 15.43 18.5 14.47L18.5 14.47ZM11.03 6.67L10.73 12.67 9.27 12.67 8.97 6.67 11.03 6.67 11.03 6.67ZM10.01 16C9.36 16 8.81 15.52 8.81 14.83 8.81 14.15 9.36 13.67 10.01 13.67 10.64 13.67 11.19 14.15 11.19 14.83 11.19 15.52 10.64 16 10.01 16L10.01 16Z"/>
    </g>
  </g>
</svg>