<svg xmlns="http://www.w3.org/2000/svg" width="18" height="18" viewBox="0 0 18 18" version="1.1">
  <title>
    icon-input-username
  </title>
  <desc>
    User Icon
  </desc>
  <g stroke="none" stroke-width="1" fill="none" fill-rule="evenodd">
    <g transform="translate(-1.000000, -1.000000)" fill="#999999">
      <path d="M10 1C5.03 1 1 5.03 1 10 1 14.97 5.03 19 10 19 14.97 19 19 14.97 19 10 19 5.03 14.97 1 10 1L10 1ZM4.79 16.13L4.79 15.31C4.79 14.01 5.92 12.96 7.36 12.96L12.65 12.96C14.08 12.96 15.21 14.01 15.21 15.31L15.21 16.13C13.81 17.33 11.99 18.05 10 18.05 8.01 18.05 6.19 17.33 4.79 16.13L4.79 16.13ZM16.15 15.2C16.08 13.41 14.54 12.01 12.64 12.01L7.35 12.01C5.46 12.01 3.92 13.41 3.85 15.2 2.67 13.79 1.95 11.98 1.95 10 1.95 5.55 5.55 1.95 10 1.95 14.45 1.95 18.05 5.55 18.05 10 18.05 11.98 17.33 13.79 16.15 15.2L16.15 15.2ZM10 4.2C8.6 4.2 7.4 5.33 7.4 6.7L7.4 8.32C7.4 9.7 8.61 10.83 10 10.83 11.4 10.83 12.61 9.7 12.61 8.32L12.61 6.7C12.61 5.33 11.4 4.2 10 4.2L10 4.2ZM11.66 8.32C11.66 9.16 10.89 9.88 10 9.88 9.11 9.88 8.34 9.16 8.34 8.32L8.34 6.7C8.34 5.87 9.11 5.14 10 5.14 10.89 5.14 11.66 5.87 11.66 6.7L11.66 8.32 11.66 8.32Z"/>
    </g>
  </g>
</svg>