<svg id="Layer_1" data-name="Layer 1" xmlns="http://www.w3.org/2000/svg" viewBox="0 0 21.99 21.99"><defs><style>.cls-1{fill:#bcbcbc;}</style></defs><title>icon-search-dk</title><path class="cls-1" d="M20.25,22.5a2,2,0,0,1-1.37-.56l-5.19-5.2.79-.79-1.65-1.64a7.69,7.69,0,1,1,.78-11.56h0a7.6,7.6,0,0,1,2.26,5.43,7.69,7.69,0,0,1-1.55,4.64L16,14.47l.78-.78,5.19,5.19a2,2,0,0,1,0,2.76l-.28.28A1.92,1.92,0,0,1,20.25,22.5Zm-5.14-5.76,4.47,4.49a1,1,0,0,0,1.36,0l.28-.28a1,1,0,0,0,0-1.36l-4.48-4.47Zm-1.48-3,1.52,1.5.07-.06-1.51-1.52ZM8.18,1.5a6.67,6.67,0,1,0,4.73,2h0A6.66,6.66,0,0,0,8.18,1.5Z" transform="translate(-0.5 -0.5)"/></svg>