<svg xmlns="http://www.w3.org/2000/svg" width="36" height="37" viewBox="0 0 36 37">
  <path fill="#707070" fill-rule="evenodd" d="M30.0597,28.2637 L29.5537,28.4627 L29.4447,28.9957 L28.8857,31.7517 L26.0757,31.8257 L25.5317,31.8407 L25.2487,32.3037 L23.7827,34.7017 L21.1187,33.8077 L20.6037,33.6347 L20.1777,33.9727 L17.9757,35.7227 L15.7737,33.9727 L15.3487,33.6347 L14.8337,33.8077 L12.1697,34.7017 L10.7037,32.3047 L10.4207,31.8407 L9.8767,31.8267 L7.0667,31.7527 L6.5077,28.9967 L6.3987,28.4637 L5.8927,28.2647 L3.2757,27.2377 L3.6907,24.4577 L3.7707,23.9207 L3.3647,23.5607 L1.2587,21.6987 L2.6037,19.2277 L2.8647,18.7497 L2.6037,18.2717 L1.2587,15.8027 L3.3637,13.9397 L3.7707,13.5797 L3.6907,13.0427 L3.2747,10.2637 L5.8917,9.2367 L6.3987,9.0377 L6.5067,8.5047 L7.0657,5.7487 L9.8767,5.6737 L10.4197,5.6597 L10.7027,5.1957 L12.1687,2.7977 L14.8327,3.6927 L15.3477,3.8657 L15.7737,3.5277 L17.9757,1.7777 L20.1777,3.5267 L20.6027,3.8657 L21.1177,3.6927 L23.7817,2.7977 L25.2477,5.1957 L25.5307,5.6587 L26.0747,5.6737 L28.8847,5.7477 L29.4437,8.5037 L29.5527,9.0367 L30.0587,9.2357 L32.6757,10.2627 L32.2607,13.0427 L32.1807,13.5787 L32.5877,13.9387 L34.6927,15.8017 L33.3477,18.2717 L33.0867,18.7497 L33.3477,19.2287 L34.6927,21.6977 L32.5877,23.5607 L32.1807,23.9197 L32.2607,24.4567 L32.6767,27.2367 L30.0597,28.2637 Z M35.9517,21.9187 L34.2257,18.7497 L35.9517,15.5807 L33.2497,13.1897 L33.7827,9.6227 L30.4247,8.3047 L29.7067,4.7687 L26.1007,4.6737 L24.2187,1.5957 L20.7997,2.7447 L17.9757,0.4997 L15.1517,2.7447 L11.7317,1.5967 L9.8497,4.6747 L6.2437,4.7697 L5.5267,8.3057 L2.1687,9.6237 L2.7017,13.1907 L-0.0003,15.5817 L1.7257,18.7497 L-0.0003,21.9197 L2.7017,24.3097 L2.1687,27.8777 L5.5277,29.1957 L6.2447,32.7307 L9.8507,32.8257 L11.7327,35.9037 L15.1517,34.7557 L17.9757,36.9997 L20.7997,34.7557 L24.2197,35.9037 L26.1017,32.8257 L29.7077,32.7297 L30.4247,29.1947 L33.7827,27.8767 L33.2497,24.3097 L35.9517,21.9187 Z M15.9757,14.75 C15.9757,13.434 17.2527,12.411 18.6327,12.855 C19.4637,13.123 19.9757,13.966 19.9757,14.839 L19.9757,16.75 L15.9757,16.75 L15.9757,14.75 Z M21.9757,14.75 C21.9757,12.271 19.6907,10.3 17.1227,10.84 C15.2477,11.234 13.9757,13 13.9757,14.916 L13.9757,16.75 L11.9757,16.75 L11.9757,25.75 L23.9757,25.75 L23.9757,16.75 L21.9757,16.75 L21.9757,14.75 Z M19.8005,32.6338 C10.6555,33.7968 2.9295,26.0708 4.0915,16.9248 C4.8845,10.6918 9.9175,5.6588 16.1515,4.8658 C25.2965,3.7038 33.0215,11.4298 31.8595,20.5738 C31.0675,26.8078 26.0345,31.8418 19.8005,32.6338 M19.9255,3.8728 C10.1135,2.6368 1.8625,10.8878 3.0985,20.6998 C3.9415,27.3858 9.3405,32.7848 16.0255,33.6268 C25.8375,34.8638 34.0895,26.6118 32.8525,16.7998 C32.0095,10.1148 26.6115,4.7158 19.9255,3.8728"/>
</svg>
