<svg xmlns="http://www.w3.org/2000/svg" width="155px" height="55px" viewBox="0 0 155 55">
<g>
	<path fill="#007ECD" d="M123.3,30h28.4c1.8,0,3.3,1.5,3.3,3.3v18.4c0,1.8-1.5,3.3-3.3,3.3h-28.4c-1.8,0-3.3-1.5-3.3-3.3V33.3
		C120,31.5,121.5,30,123.3,30z"/>
	<path fill="#FFFFFF" d="M150.7,47h-1.5v-0.8h1.3c0,0,0.5,0.1,0.5-0.3c0-0.3-0.7-0.3-0.7-0.3s-1.2,0.1-1.2-1c0-1.1,1.1-1,1.1-1h1.7
		v0.8h-1.3c0,0-0.5-0.1-0.5,0.2c0,0.3,0.6,0.2,0.6,0.2s1.3-0.1,1.3,0.9c0,1.1-0.9,1.2-1.1,1.2C150.8,47,150.7,47,150.7,47z
		 M143.1,47v-3.4h2.7v0.8h-1.8v0.5h1.8v0.8h-1.8v0.6h1.8V47H143.1L143.1,47z M147.7,47h-1.5v-0.8h1.3c0,0,0.5,0.1,0.5-0.3
		c0-0.3-0.7-0.3-0.7-0.3s-1.2,0.1-1.2-1c0-1.1,1.1-1,1.1-1h1.7v0.8h-1.3c0,0-0.5-0.1-0.5,0.2c0,0.3,0.6,0.2,0.6,0.2s1.3-0.1,1.3,0.9
		c0,1.1-0.9,1.2-1.2,1.2C147.7,47,147.7,47,147.7,47L147.7,47z M136.1,47h-0.8l-0.9-1l-0.9,1h-3.2v-3.4h3.1l1,1.1l1-1.1h0.7v0h2.1
		c0,0,1.1-0.1,1.1,1c0,1-0.4,1.3-1.5,1.3h-0.8V47L136.1,47L136.1,47z M135,45.3l1.1,1.2v-2.3C136,44.2,135,45.3,135,45.3z
		 M131.1,46.3h1.8l0.9-0.9l-0.9-0.9h-1.8v0.5h1.8v0.8h-1.8L131.1,46.3L131.1,46.3z M136.9,45h0.9c0.3,0,0.5-0.1,0.5-0.3
		c0-0.2-0.2-0.3-0.5-0.3h-0.9V45L136.9,45z M141.8,47v-0.7c0,0,0-0.5-0.6-0.5h-0.8V47h-0.9v-3.4h2.1c0,0,1.1-0.1,1.1,1
		c0,0.6-0.5,0.8-0.5,0.8s0.4,0.2,0.4,0.8V47C142.7,47,141.8,47,141.8,47z M140.4,45h0.9c0.3,0,0.5-0.1,0.5-0.3
		c0-0.2-0.2-0.3-0.5-0.3h-0.9V45z M139.7,42.4h0.9V39h-0.9V42.4z M133.1,42.4V39h2.7v0.8h-1.8v0.5h1.8v0.8h-1.8v0.6h1.8v0.7H133.1z
		 M131.7,42.4v-2.3l-1.1,2.3h-0.7l-1.1-2.3v2.3h-1.7l-0.3-0.7h-1.6l-0.3,0.7H124l1.4-3.4h1.2l1.3,3.1V39h1.4l0.9,2.1l0.9-2.1h1.4
		v3.4H131.7z M125.6,40.8h0.8l-0.4-1L125.6,40.8z M148.7,42.4l-1.4-2.2v2.2h-1.7l-0.3-0.7h-1.6l-0.3,0.7h-1.4c0,0-1.2-0.2-1.2-1.6
		c0-1.9,1.3-1.8,1.4-1.8l1.1,0v0.8l-0.9,0c0,0-0.6,0-0.6,0.7c0,0.1,0,0.2,0,0.2c0,1.1,1,0.8,1,0.8l1.1-2.5h1.2l1.3,3v-3h1.2l1.4,2.2
		V39h0.9v3.4C149.9,42.4,148.7,42.4,148.7,42.4z M144.1,40.8h0.8l-0.4-1L144.1,40.8z M138.5,42.4v-0.7c0,0,0-0.5-0.6-0.5h-0.8v1.2
		h-0.9V39h2.1c0,0,1.1-0.1,1.1,1c0,0.6-0.5,0.8-0.5,0.8s0.4,0.2,0.4,0.8v0.8H138.5L138.5,42.4z M137.1,40.4h0.9
		c0.3,0,0.5-0.1,0.5-0.3c0-0.2-0.2-0.3-0.5-0.3h-0.9V40.4z"/>
</g>
<g>
	<path fill="#353A48" d="M43.3,30h28.4c1.8,0,3.3,1.5,3.3,3.3v18.4c0,1.8-1.5,3.3-3.3,3.3H43.3c-1.8,0-3.3-1.5-3.3-3.3V33.3
		C40,31.5,41.5,30,43.3,30z"/>
	<path fill="#FF5E00" d="M57.7,37.4c1.2-1.1,2.8-1.7,4.4-1.6c3.8,0,6.8,3.1,6.8,6.9c0,3.8-3.1,6.9-6.8,6.9c-1.7,0-3.2-0.6-4.4-1.7
		c-1.2,1.1-2.8,1.7-4.4,1.7c-3.8,0-6.8-3.1-6.8-6.9c0-3.8,3.1-6.9,6.8-6.9C55,35.7,56.5,36.3,57.7,37.4z"/>
	<path fill="#ED0006" d="M57.7,37.4c-1.5,1.3-2.4,3.2-2.4,5.3c0,2.1,0.9,4,2.4,5.3c-1.2,1.1-2.8,1.6-4.4,1.6c-3.8,0-6.8-3.1-6.8-6.9
		c0-3.8,3.1-6.9,6.8-6.9C55,35.7,56.5,36.3,57.7,37.4z"/>
	<path fill="#F9A000" d="M57.7,47.9c1.5-1.3,2.4-3.2,2.4-5.3c0-2.1-0.9-4-2.4-5.3c1.2-1.1,2.8-1.7,4.4-1.6c3.8,0,6.8,3.1,6.8,6.9
		c0,3.8-3.1,6.9-6.8,6.9C60.4,49.5,58.9,48.9,57.7,47.9L57.7,47.9z"/>
</g>
<g>
	<path fill="#FFA200" d="M83.4,30h28.3c1.9,0,3.4,1.5,3.4,3.4v18.3c0,1.9-1.5,3.4-3.4,3.4H83.4c-1.9,0-3.4-1.5-3.4-3.4V33.4
		C80,31.5,81.5,30,83.4,30z"/>
	<path fill="#FFFFFF" d="M109.9,42.3h-0.3v-1.4h0.3c0.6,0,0.8,0.3,0.8,0.7C110.7,42.1,110.5,42.3,109.9,42.3L109.9,42.3z
		 M111.7,41.5c0-0.9-0.6-1.4-1.6-1.4h-1.3v4.6h0.9v-1.9h0.1l1.2,1.9h1.1l-1.4-1.9C111.3,42.8,111.7,42.2,111.7,41.5z M105.6,44.8
		h2.5V44h-1.6v-1.2h1.6V42h-1.6v-1h1.6v-0.8h-2.5L105.6,44.8L105.6,44.8z M102.9,43.3l-1.2-3.1h-1l2,4.7h0.5l2-4.7h-1
		C104.2,40.2,103,43.3,102.9,43.3z M92.2,42.5c0,1.3,1.1,2.4,2.4,2.4c0.4,0,0.8-0.1,1.2-0.3v-1c-0.3,0.3-0.6,0.5-1.1,0.5
		c-0.8,0-1.5-0.6-1.5-1.5v-0.1c-0.1-0.8,0.6-1.6,1.5-1.6c0.4,0,0.8,0.2,1.1,0.5v-1c-0.3-0.2-0.7-0.3-1.1-0.3
		C93.3,40.1,92.2,41.2,92.2,42.5z M90.6,42c-0.5-0.2-0.7-0.3-0.7-0.6c0.1-0.3,0.3-0.6,0.6-0.5c0.3,0,0.5,0.2,0.7,0.4l0.5-0.6
		c-0.4-0.3-0.8-0.5-1.3-0.5c-0.7,0-1.4,0.5-1.4,1.2v0.1c0,0.6,0.3,1,1.1,1.3c0.2,0.1,0.4,0.2,0.6,0.3c0.2,0.1,0.3,0.3,0.3,0.5
		c0,0.4-0.3,0.7-0.6,0.7h-0.1c-0.4,0-0.8-0.3-1-0.6L88.8,44c0.3,0.6,1,0.9,1.6,0.9c0.8,0.1,1.5-0.6,1.6-1.4c0,0,0,0,0,0v-0.2
		C91.9,42.7,91.6,42.4,90.6,42L90.6,42z M87.5,44.8h0.9v-4.6h-0.9V44.8L87.5,44.8z M85.7,43.7c-0.3,0.3-0.8,0.4-1.2,0.4h-0.3V41h0.3
		c0.4-0.1,0.9,0.1,1.2,0.4c0.3,0.3,0.5,0.7,0.5,1.1C86.2,42.9,86,43.4,85.7,43.7z M84.6,40.2h-1.3v4.6h1.3c0.6,0.1,1.2-0.2,1.6-0.5
		c0.5-0.5,0.8-1.1,0.8-1.8c0.1-1.3-1-2.3-2.2-2.3H84.6z M98.5,40.1c-1.3,0-2.4,1-2.4,2.4c0,1.3,1.1,2.4,2.4,2.5
		c1.4,0.1,2.4-1,2.5-2.4C100.9,41.2,99.8,40.1,98.5,40.1L98.5,40.1z"/>
</g>
<g>
	<path fill="#224DBA" d="M3.3,30h28.4c1.8,0,3.3,1.5,3.3,3.3v18.4c0,1.8-1.5,3.3-3.3,3.3H3.3C1.5,55,0,53.5,0,51.7V33.3
		C0,31.5,1.5,30,3.3,30z"/>
	<path fill="#FFFFFF" d="M11.9,46.7H9.9l-1.5-6c-0.1-0.3-0.2-0.5-0.5-0.6c-0.6-0.3-1.2-0.5-1.9-0.6v-0.2h3.3c0.5,0,0.8,0.3,0.9,0.8
		l0.8,4.3l2.1-5.1h2C15,39.2,11.9,46.7,11.9,46.7z M16.1,46.7h-1.9l1.6-7.5h1.9L16.1,46.7z M20.2,41.3c0.1-0.4,0.4-0.6,0.8-0.6
		c0.6-0.1,1.3,0.1,1.9,0.3l0.3-1.6c-0.6-0.2-1.2-0.3-1.8-0.3c-1.9,0-3.2,1-3.2,2.5c0,1.1,1,1.7,1.7,2c0.7,0.3,1,0.6,1,0.9
		c0,0.5-0.6,0.8-1.1,0.8c-0.7,0-1.4-0.2-2-0.5l-0.3,1.6c0.7,0.3,1.4,0.4,2.1,0.4c2.1,0.1,3.4-1,3.4-2.5
		C22.9,42.2,20.2,42.1,20.2,41.3z M29.7,46.7l-1.5-7.5h-1.7c-0.4,0-0.7,0.2-0.8,0.6l-2.8,6.9h2l0.4-1.1h2.5l0.2,1.1
		C27.9,46.7,29.7,46.7,29.7,46.7z M26.8,41.2l0.6,2.8h-1.6C25.8,44,26.8,41.2,26.8,41.2z"/>
</g>
<path fill="#CCCCCC" d="M123.3,0h28.4c1.8,0,3.3,1.5,3.3,3.3v18.4c0,1.8-1.5,3.3-3.3,3.3h-28.4c-1.8,0-3.3-1.5-3.3-3.3V3.3
	C120,1.5,121.5,0,123.3,0z"/>
<path fill="#FFFFFF" d="M150.7,17h-1.5v-0.8h1.3c0,0,0.5,0.1,0.5-0.3c0-0.3-0.7-0.3-0.7-0.3s-1.2,0.1-1.2-1c0-1.1,1.1-1,1.1-1h1.7
	v0.8h-1.3c0,0-0.5-0.1-0.5,0.2c0,0.3,0.6,0.2,0.6,0.2s1.3-0.1,1.3,0.9c0,1.1-0.9,1.2-1.1,1.2C150.8,17,150.7,17,150.7,17z M143.1,17
	v-3.4h2.7v0.8h-1.8v0.5h1.8v0.8h-1.8v0.6h1.8V17H143.1L143.1,17z M147.7,17h-1.5v-0.8h1.3c0,0,0.5,0.1,0.5-0.3
	c0-0.3-0.7-0.3-0.7-0.3s-1.2,0.1-1.2-1c0-1.1,1.1-1,1.1-1h1.7v0.8h-1.3c0,0-0.5-0.1-0.5,0.2c0,0.3,0.6,0.2,0.6,0.2s1.3-0.1,1.3,0.9
	c0,1.1-0.9,1.2-1.2,1.2C147.7,17,147.7,17,147.7,17L147.7,17z M136.1,17h-0.8l-0.9-1l-0.9,1h-3.2v-3.4h3.1l1,1.1l1-1.1h0.7v0h2.1
	c0,0,1.1-0.1,1.1,1c0,1-0.4,1.3-1.5,1.3h-0.8V17L136.1,17L136.1,17z M135,15.3l1.1,1.2v-2.3C136,14.2,135,15.3,135,15.3z
	 M131.1,16.3h1.8l0.9-0.9l-0.9-0.9h-1.8v0.5h1.8v0.8h-1.8L131.1,16.3L131.1,16.3z M136.9,15h0.9c0.3,0,0.5-0.1,0.5-0.3
	c0-0.2-0.2-0.3-0.5-0.3h-0.9V15L136.9,15z M141.8,17v-0.7c0,0,0-0.5-0.6-0.5h-0.8V17h-0.9v-3.4h2.1c0,0,1.1-0.1,1.1,1
	c0,0.6-0.5,0.8-0.5,0.8s0.4,0.2,0.4,0.8V17C142.7,17,141.8,17,141.8,17z M140.4,15h0.9c0.3,0,0.5-0.1,0.5-0.3c0-0.2-0.2-0.3-0.5-0.3
	h-0.9V15z M139.7,12.4h0.9V9h-0.9V12.4z M133.1,12.4V9h2.7v0.8h-1.8v0.5h1.8v0.8h-1.8v0.6h1.8v0.7H133.1z M131.7,12.4v-2.3l-1.1,2.3
	h-0.7l-1.1-2.3v2.3h-1.7l-0.3-0.7h-1.6l-0.3,0.7H124l1.4-3.4h1.2l1.3,3.1V9h1.4l0.9,2.1l0.9-2.1h1.4v3.4H131.7z M125.6,10.8h0.8
	l-0.4-1L125.6,10.8z M148.7,12.4l-1.4-2.2v2.2h-1.7l-0.3-0.7h-1.6l-0.3,0.7h-1.4c0,0-1.2-0.2-1.2-1.6c0-1.9,1.3-1.8,1.4-1.8l1.1,0
	v0.8l-0.9,0c0,0-0.6,0-0.6,0.7c0,0.1,0,0.2,0,0.2c0,1.1,1,0.8,1,0.8l1.1-2.5h1.2l1.3,3V9h1.2l1.4,2.2V9h0.9v3.4
	C149.9,12.4,148.7,12.4,148.7,12.4z M144.1,10.8h0.8l-0.4-1L144.1,10.8z M138.5,12.4v-0.7c0,0,0-0.5-0.6-0.5h-0.8v1.2h-0.9V9h2.1
	c0,0,1.1-0.1,1.1,1c0,0.6-0.5,0.8-0.5,0.8s0.4,0.2,0.4,0.8v0.8L138.5,12.4L138.5,12.4z M137.1,10.4h0.9c0.3,0,0.5-0.1,0.5-0.3
	c0-0.2-0.2-0.3-0.5-0.3h-0.9V10.4z"/>
<path fill="#CCCCCC" d="M43.3,0h28.4C73.5,0,75,1.5,75,3.3v18.4c0,1.8-1.5,3.3-3.3,3.3H43.3c-1.8,0-3.3-1.5-3.3-3.3V3.3
	C40,1.5,41.5,0,43.3,0z"/>
<path fill="#DADADA" d="M57.7,7.4c1.2-1.1,2.8-1.7,4.4-1.6c3.8,0,6.8,3.1,6.8,6.9c0,3.8-3.1,6.9-6.8,6.9c-1.7,0-3.2-0.6-4.4-1.6
	c-1.2,1.1-2.8,1.7-4.4,1.6c-3.8,0-6.8-3.1-6.8-6.9c0-3.8,3.1-6.9,6.8-6.9C55,5.7,56.5,6.3,57.7,7.4z"/>
<path fill="#C7C7C7" d="M57.7,7.4c-1.5,1.3-2.4,3.2-2.4,5.3c0,2.1,0.9,4,2.4,5.3c-1.2,1.1-2.8,1.6-4.4,1.6c-3.8,0-6.8-3.1-6.8-6.9
	c0-3.8,3.1-6.9,6.8-6.9C55,5.7,56.5,6.3,57.7,7.4z"/>
<path fill="#E5E5E5" d="M57.7,17.9c1.5-1.3,2.4-3.2,2.4-5.2c0-2.1-0.9-4-2.4-5.3c1.2-1.1,2.8-1.6,4.4-1.6c3.8,0,6.8,3.1,6.8,6.9
	c0,3.8-3.1,6.9-6.8,6.9C60.4,19.5,58.9,18.9,57.7,17.9L57.7,17.9z"/>
<path fill="#CCCCCC" d="M83.4,0h28.3c1.9,0,3.4,1.5,3.4,3.4v18.3c0,1.9-1.5,3.4-3.4,3.4H83.4c-1.9,0-3.4-1.5-3.4-3.4V3.4
	C80,1.5,81.5,0,83.4,0z"/>
<path fill="#FFFFFF" d="M109.9,12.3h-0.3v-1.4h0.3c0.6,0,0.8,0.3,0.8,0.7C110.7,12.1,110.5,12.3,109.9,12.3L109.9,12.3z M111.7,11.5
	c0-0.9-0.6-1.4-1.6-1.4h-1.3v4.6h0.9v-1.9h0.1l1.2,1.9h1.1l-1.4-1.9C111.3,12.8,111.7,12.2,111.7,11.5z M105.6,14.8h2.5V14h-1.6
	v-1.2h1.6V12h-1.6v-1h1.6v-0.8h-2.5L105.6,14.8L105.6,14.8z M102.9,13.3l-1.2-3.1h-1l2,4.7h0.5l2-4.7h-1
	C104.2,10.2,103,13.3,102.9,13.3z M92.2,12.5c0,1.3,1.1,2.4,2.4,2.4c0.4,0,0.8-0.1,1.2-0.3v-1c-0.3,0.3-0.6,0.5-1.1,0.5
	c-0.8,0-1.5-0.6-1.5-1.5v-0.1c-0.1-0.8,0.6-1.6,1.5-1.6c0.4,0,0.8,0.2,1.1,0.5v-1c-0.3-0.2-0.7-0.3-1.1-0.3
	C93.3,10.1,92.2,11.2,92.2,12.5z M90.6,12c-0.5-0.2-0.7-0.3-0.7-0.6c0.1-0.3,0.3-0.6,0.6-0.5c0.3,0,0.5,0.2,0.7,0.4l0.5-0.6
	c-0.4-0.3-0.8-0.5-1.3-0.5c-0.7,0-1.4,0.5-1.4,1.2v0.1c0,0.6,0.3,1,1.1,1.3c0.2,0.1,0.4,0.2,0.6,0.3c0.2,0.1,0.3,0.3,0.3,0.5
	c0,0.4-0.3,0.7-0.6,0.7h-0.1c-0.4,0-0.8-0.3-1-0.6L88.8,14c0.3,0.6,1,0.9,1.6,0.9c0.8,0.1,1.5-0.6,1.6-1.4c0,0,0,0,0,0v-0.2
	C91.9,12.7,91.6,12.4,90.6,12L90.6,12z M87.5,14.8h0.9v-4.6h-0.9V14.8L87.5,14.8z M85.7,13.7c-0.3,0.3-0.8,0.4-1.2,0.4h-0.3V11h0.3
	c0.4-0.1,0.9,0.1,1.2,0.4c0.3,0.3,0.5,0.7,0.5,1.1C86.2,12.9,86,13.4,85.7,13.7z M84.6,10.2h-1.3v4.6h1.3c0.6,0.1,1.2-0.2,1.6-0.5
	c0.5-0.5,0.8-1.1,0.8-1.8c0.1-1.3-1-2.3-2.2-2.3H84.6z M98.5,10.1c-1.3,0-2.4,1-2.4,2.4c0,1.3,1.1,2.4,2.4,2.4
	c1.4,0.1,2.4-1,2.5-2.4C100.9,11.2,99.8,10.1,98.5,10.1L98.5,10.1z"/>
<path fill="#CCCCCC" d="M3.3,0h28.4C33.5,0,35,1.5,35,3.3v18.4c0,1.8-1.5,3.3-3.3,3.3H3.3C1.5,25,0,23.5,0,21.7V3.3
	C0,1.5,1.5,0,3.3,0z"/>
<path fill="#FFFFFF" d="M11.9,16.7H9.9l-1.5-6c-0.1-0.3-0.2-0.5-0.5-0.6C7.3,9.7,6.7,9.5,6,9.4V9.2h3.3c0.5,0,0.8,0.3,0.9,0.8
	l0.8,4.3L13,9.2h2C15,9.2,11.9,16.7,11.9,16.7z M16.1,16.7h-1.9l1.6-7.5h1.9L16.1,16.7z M20.2,11.3c0.1-0.4,0.4-0.6,0.8-0.6
	c0.6-0.1,1.3,0.1,1.9,0.3l0.3-1.6C22.7,9.1,22.1,9,21.5,9c-1.9,0-3.2,1-3.2,2.5c0,1.1,1,1.7,1.7,2c0.7,0.3,1,0.6,1,0.9
	c0,0.5-0.6,0.8-1.1,0.8c-0.7,0-1.4-0.2-2-0.5l-0.3,1.6c0.7,0.3,1.4,0.4,2.1,0.4c2.1,0.1,3.4-1,3.4-2.5
	C22.9,12.2,20.2,12.1,20.2,11.3z M29.7,16.7l-1.5-7.5h-1.7c-0.4,0-0.7,0.2-0.8,0.6l-2.8,6.9h2l0.4-1.1h2.5l0.2,1.1
	C27.9,16.7,29.7,16.7,29.7,16.7z M26.8,11.2l0.6,2.8h-1.6C25.8,14,26.8,11.2,26.8,11.2z"/>
</svg>
