<svg xmlns="http://www.w3.org/2000/svg" width="14" height="16" viewBox="0 0 14 16" version="1.1">
  <title>
    icon-settings
  </title>
  <desc>
    Settings Icon
  </desc>
  <g stroke="none" stroke-width="1" fill="none" fill-rule="evenodd">
    <g transform="translate(-222.000000, -500.000000)" fill="#FFFFFF">
      <g transform="translate(202.000000, 132.000000)">
        <g transform="translate(20.000000, 368.000000)">
          <path d="M12.27 13.26C11.57 12.76 10.62 12.68 9.82 13.14 9.03 13.6 8.63 14.48 8.7 15.34 8.15 15.48 7.59 15.55 7 15.55 6.41 15.55 5.85 15.48 5.3 15.34 5.37 14.48 4.97 13.6 4.18 13.14 3.38 12.67 2.43 12.75 1.73 13.26 0.94 12.42 0.35 11.41 0.01 10.27 0.8 9.91 1.35 9.11 1.35 8.17 1.35 7.23 0.8 6.42 0 6.06 0.33 4.92 0.92 3.9 1.7 3.07 2.4 3.59 3.37 3.68 4.18 3.2 4.99 2.73 5.4 1.83 5.3 0.94 5.85 0.81 6.41 0.73 7 0.73 7.59 0.73 8.16 0.81 8.7 0.94 8.6 1.83 9.02 2.73 9.82 3.2 10.63 3.68 11.6 3.59 12.3 3.07 13.08 3.9 13.67 4.92 14 6.06 13.2 6.42 12.65 7.23 12.65 8.17 12.65 9.11 13.2 9.91 13.99 10.27 13.65 11.41 13.06 12.42 12.27 13.26ZM10.71 8.14C10.71 6.1 9.05 4.44 7 4.44 4.95 4.44 3.29 6.1 3.29 8.14 3.29 10.19 4.95 11.85 7 11.85 9.05 11.85 10.71 10.19 10.71 8.14L10.71 8.14Z"/>
        </g>
      </g>
    </g>
  </g>
</svg>