<svg xmlns="http://www.w3.org/2000/svg" width="47" height="81" viewBox="0 0 47 81" version="1.1" xml:space="preserve" style="clip-rule:evenodd;fill-rule:evenodd;stroke-linejoin:round;stroke-miterlimit:1.41">
	<title>iso pattern</title>
  <path d="M38.47 76.22l0-8.43 -6.79-3.92 0 16.36c2.23-1.4 4.53-2.67 6.79-4.01ZM7.79 75.92l7.29-4.21 0-7.84 -14.09 8.13 6.79 3.92ZM30.68 71.13l0-16.27 -6.79 3.92 0 8.42 6.79 3.92ZM1 70.85l13.59-7.85 -6.79-3.92 -6.8 3.93 0 7.85ZM22.88 66.63l0-7.84 -7.29-4.21 -6.79 3.92 14.09 8.13ZM1 61.85l13.59-7.85 -6.82-3.94 -6.77 3.94 0 7.85ZM22.88 57.63l0-7.84 -7.41-4.21 -6.71 3.91 14.12 8.15ZM31.29 45.51l-7.41 4.28 0 7.85 14.07-8.12c-2.26-1.27-4.44-2.67-6.67-4ZM1 52.84l5.77-3.36 -5.77-3.33 0 6.69ZM38.98 48.92l6.79-3.92 -14.09-8.22 0 7.79c2.48 1.36 4.87 2.89 7.3 4.35ZM7.76 48.91l7.27-4.23 0.03-7.79 -14.06 8.12 6.76 3.91ZM22.88 48.64l0-7.85 -6.82-3.94 -0.03 7.89 6.85 3.9ZM30.68 36.2l-6.79-3.96 0 16.4 6.79-3.92 0-8.51ZM1 28.14l0 15.71 6.3-3.64 0-8.54c-2.14-1.1-4.21-2.34-6.3-3.53ZM8.29 23.37l0 16.27 6.77-3.91 0.03-8.42c-2.31-1.23-4.54-2.61-6.8-3.94ZM16.06 35.7l6.82 3.94 0-16.26 -6.79 3.92 -0.03 8.4ZM38.47 23.37l-13.97 8.07 6.76 3.94 7.22-4.17 0-7.84ZM23.88 30.63l14.09-8.13 -6.79-3.92 -7.3 4.22 0 7.84ZM7.29 30.51l0-16.14 -6.3 3.64 0 8.96c2.13 1.12 4.2 2.36 6.3 3.55ZM15.6 26.43l7.29-4.21 0-7.78 -13.95 8.11c2.26 1.23 4.44 2.59 6.66 3.88ZM8.29 21.77l21.9-12.74 -6.83-3.94 -15.07 8.7 0 7.98ZM23.88 21.64l14.08-8.14 -6.77-3.9 -7.31 4.26 0 7.78ZM1 9.01l0 7.84 13.57-7.83c-2.29-1.25-4.5-2.62-6.76-3.93 -2.22 1.39-4.53 2.63-6.81 3.92ZM24.37 4.51l6.83 3.94 6.78-3.94 -6.8-3.92 -6.81 3.93ZM0 81l0-81 1 0 0 7.8c2.07-1.24 4.2-2.38 6.29-3.59 -0.04-1.4-0.03-2.81 0.01-4.21l1 0c0.04 1.4 0.04 2.8 0.01 4.2 2.48 1.32 4.86 2.81 7.29 4.22l6.78-3.91 -7.82-4.51 2 0 6.31 3.64c-0.02-1.21-0.01-2.43 0.02-3.64l1 0c0.04 1.21 0.04 2.42 0.02 3.62l6.27-3.62 2 0 6.27 3.62c-0.02-1.21-0.01-2.41 0.02-3.62l1 0c0.04 1.41 0.04 2.81 0.01 4.22l7.52 4.34 0 1.16 -8.03-4.63 -6.78 3.94 6.96 4.01c0.05 0.02 0.09 0.04 0.13 0.07l7.72 4.45 0 1.15 -8.03-4.63 -6.79 3.92 14.82 8.56 0 1.16 -7.53-4.35 0 8.13c0 0.04 0 0.05-0.01 0.1 -0.02 0.13-0.1 0.23-0.2 0.31 -2.27 1.46-4.66 2.72-7 4.05l14.74 8.6 0 0.88 -15.32 8.85 0 7.85 15.32-8.85 0 1.16 -14.82 8.56 6.79 3.92 8.03-4.64 0 1.16 -7.53 4.35 0 8.41c2.56 1.36 5.02 2.91 7.53 4.36l0 0.44 -1.29 0c-2.11-1.15-4.16-2.41-6.24-3.63l0 3.63 -1 0 0-3.59c-1.99 1.25-4.05 2.4-6.08 3.59l-1.72 0 0-8.71 -6.79-3.92 0 12.63 -1 0 0-13.21 -6.79-3.92 0 8.13c0 0.05 0 0.07-0.01 0.12 -0.02 0.1-0.07 0.18-0.14 0.25 -0.04 0.04-0.05 0.04-0.09 0.07l-7.04 4.07 7.79 4.5 -2 0 -6.29-3.63 0 3.63 -1 0 0-4.21 -6.3-3.64 0 7.85 -1 0Z" fill="#393939"/>
</svg>