<?xml version="1.0" encoding="UTF-8" standalone="no"?>
<svg width="157px" height="34px" viewBox="0 0 157 34" version="1.1" xmlns="http://www.w3.org/2000/svg" xmlns:xlink="http://www.w3.org/1999/xlink" xmlns:sketch="http://www.bohemiancoding.com/sketch/ns">
    <!-- Generator: Sketch 3.3 (11970) - http://www.bohemiancoding.com/sketch -->
    <title>life_time_logo</title>
    <desc>Created with Sketch.</desc>
    <defs></defs>
    <g id="Page-1" stroke="none" stroke-width="1" fill="none" fill-rule="evenodd" sketch:type="MSPage">
        <g id="style-guide-elements" sketch:type="MSArtboardGroup" transform="translate(-20.000000, -20.000000)" fill="#878A86">
            <g id="life_time_logo" sketch:type="MSLayerGroup" transform="translate(20.000000, 20.000000)">
                <g id="Fill-1-+-Fill-2" transform="translate(147.000000, 0.000000)" sketch:type="MSShapeGroup">
                    <path d="M0.8412462,3.16530934 C0.8412462,3.87084787 1.38504988,4.14666315 2.05815326,4.14666315 C2.79670463,4.14666315 3.07233116,3.80024322 3.07233116,3.4538233 C3.07233116,3.10029211 2.87119829,2.95908282 2.67645059,2.88847817 C2.33963285,2.76657086 1.90224868,2.68377548 1.24510823,2.51056552 C0.424081734,2.29824363 0.181445259,1.82280514 0.181445259,1.34889049 C0.181445259,0.430522124 1.07004814,0.000290925673 1.93736712,0.000290925673 C2.93771048,0.000290925673 3.77842458,0.507730084 3.77842458,1.46368654 L2.93771048,1.46368654 C2.89780317,0.873452 2.4811708,0.655542692 1.90224868,0.655542692 C1.51275329,0.655542692 1.02215936,0.790148675 1.02215936,1.25187259 C1.02215936,1.57289516 1.2514934,1.75270844 1.59256792,1.84261508 C1.66759367,1.86191707 2.73072454,2.12503367 2.97868199,2.19563832 C3.61187805,2.37545159 3.91410945,2.88847817 3.91410945,3.36391666 C3.91410945,4.39047776 2.95793019,4.80140697 2.00334721,4.80140697 C0.909886782,4.80140697 0.0202197063,4.30057112 0,3.16530934 L0.8412462,3.16530934" id="Fill-1"></path>
                    <path d="M4.96819467,0.000290925673 L6.15051538,0.000290925673 L7.47543824,3.58893723 L7.48820858,3.58893723 L8.7785451,0.000290925673 L9.94969177,0.000290925673 L9.94969177,4.58349766 L9.14888498,4.58349766 L9.14888498,1.04716991 L9.13558255,1.04716991 L7.80640291,4.58349766 L7.11307982,4.58349766 L5.7807076,1.04716991 L5.76793726,1.04716991 L5.76793726,4.58349766 L4.96819467,4.58349766 L4.96819467,0.000290925673" id="Fill-2"></path>
                </g>
                <path d="M28,34 L37,34 L37,21 L43,21 L43,12.986257 L37,12.986257 L37,8 L44,8 L44,0 L28,0 L28,34 Z" id="Fill-3" sketch:type="MSShapeGroup"></path>
                <path d="M45,34 L61,34 L61,26 L54,26 L54,21 L60,21 L60,12.986257 L54,12.986257 L54,8 L61,8 L61,0 L45,0 L45,34 Z" id="Fill-4" sketch:type="MSShapeGroup"></path>
                <path d="M0,0 L8.9716647,0 L8.9716647,26 L17,26 L17,34 L0,34 L0,0 Z" id="Fill-5" sketch:type="MSShapeGroup"></path>
                <path d="M18,0 L27,0 L27,34 L18,34 L18,0 Z" id="Fill-6" sketch:type="MSShapeGroup"></path>
                <path d="M128,34.000238 L144,34.000238 L144,26 L137,26 L137,21 L143,21 L143,12.9864951 L137,12.9864951 L137,8 L144,8 L144,0.000238030096 L128,0.000238030096 L128,34.000238 Z" id="Fill-7" sketch:type="MSShapeGroup"></path>
                <path d="M67,8 L72,8 L72,34 L81,34 L81,8 L86,8 L86,0 L67,0 L67,8 Z" id="Fill-8" sketch:type="MSShapeGroup"></path>
                <path d="M87,0 L96,0 L96,34 L87,34 L87,0 Z" id="Fill-9" sketch:type="MSShapeGroup"></path>
                <path d="M112,17.0001181 L109.65625,0 L97,0 L97,34 L105,34 L105,15.1112423 L108.71875,34 L115.28125,34 L119,15.1117145 L119,34 L127,34 L127,0 L114.34375,0 L112,17.0001181 Z" id="Fill-10" sketch:type="MSShapeGroup"></path>
            </g>
        </g>
    </g>
</svg>