<svg xmlns="http://www.w3.org/2000/svg" width="150px" height="45px" viewBox="0 0 150 45" version="1.1">
  <title>
    Life Time Fitness Logo
  </title>
  <desc>
    Life Time Fiteness Logo - Reversed
  </desc>
  <g fill="#FFFFFF" fill-rule="evenodd">
    <path d="M146.49 39.9C146.49 40.19 146.7 40.3 146.96 40.3 147.24 40.3 147.35 40.16 147.35 40.02 147.35 39.88 147.27 39.82 147.2 39.79 147.07 39.74 146.9 39.71 146.64 39.64 146.33 39.55 146.23 39.36 146.23 39.17 146.23 38.8 146.58 38.62 146.91 38.62 147.3 38.62 147.62 38.83 147.62 39.22L147.3 39.22C147.28 38.98 147.12 38.89 146.9 38.89 146.75 38.89 146.56 38.94 146.56 39.13 146.56 39.26 146.65 39.33 146.78 39.37 146.81 39.38 147.22 39.48 147.31 39.51 147.56 39.58 147.67 39.79 147.67 39.98 147.67 40.4 147.3 40.56 146.94 40.56 146.51 40.56 146.17 40.36 146.16 39.9L146.49 39.9M148.08 38.67L148.53 38.67 149.05 40.12 149.05 40.12 149.55 38.67 150 38.67 150 40.52 149.69 40.52 149.69 39.09 149.69 39.09 149.17 40.52 148.91 40.52 148.39 39.09 148.39 39.09 148.39 40.52 148.08 40.52 148.08 38.67M34 30L42 30 42 18 47 18 47 11 42 11 42 7 48 7 48 0 34 0 34 30ZM49 0L49 30 63 30 63 23 57 23 57 18 62 18 62 11 57 11 57 7 63 7 63 0 49 0M9 0L17 0 17 23 24 23 24 30 9 30 9 0ZM25 0L33 0 33 30 25 30 25 0ZM123 30L137 30 137 23 131.03 23 131.03 18 136 18 136 11 131.03 11 131.03 7 137 7 137 0 123 0 123 30ZM68 7L73 7 73 30 80 30 80 7 85 7 85 0 68 0 68 7ZM86 0L94 0 94 30 86 30 86 0ZM108 15L105.97 0 95 0 95 30 102 30 102 13.33 105.16 30 110.84 30 114 13.33 114 30 121 30 121 0 110.03 0 108 15ZM0.14 38.63L4.91 38.63 4.91 39.52 3.03 39.52 3.03 44.52 2 44.52 2 39.52 0.14 39.52 0.14 38.63M5.36 38.63L6.4 38.63 6.4 40.98 9.08 40.98 9.08 38.63 10.11 38.63 10.11 44.52 9.08 44.52 9.08 41.87 6.4 41.87 6.4 44.52 5.36 44.52 5.36 38.63M11.14 38.63L15.39 38.63 15.39 39.52 12.18 39.52 12.18 41.06 15.15 41.06 15.15 41.91 12.18 41.91 12.18 43.63 15.45 43.63 15.45 44.52 11.14 44.52 11.14 38.63M18.2 38.63L19.24 38.63 19.24 40.98 21.92 40.98 21.92 38.63 22.95 38.63 22.95 44.52 21.92 44.52 21.92 41.87 19.24 41.87 19.24 44.52 18.2 44.52 18.2 38.63M23.99 38.63L28.23 38.63 28.23 39.52 25.02 39.52 25.02 41.06 27.99 41.06 27.99 41.91 25.02 41.91 25.02 43.63 28.29 43.63 28.29 44.52 23.99 44.52 23.99 38.63M30.56 38.63L31.65 38.63 33.92 44.52 32.82 44.52 32.27 42.96 29.91 42.96 29.36 44.52 28.3 44.52 30.56 38.63 30.56 38.63ZM30.19 42.18L31.99 42.18 31.11 39.65 31.09 39.65 30.19 42.18 30.19 42.18ZM34.28 38.63L35.31 38.63 35.31 43.63 38.31 43.63 38.31 44.52 34.28 44.52 34.28 38.63M37.49 38.63L42.27 38.63 42.27 39.52 40.39 39.52 40.39 44.52 39.36 44.52 39.36 39.52 37.49 39.52 37.49 38.63M42.72 38.63L43.75 38.63 43.75 40.98 46.44 40.98 46.44 38.63 47.47 38.63 47.47 44.52 46.44 44.52 46.44 41.87 43.75 41.87 43.75 44.52 42.72 44.52 42.72 38.63M50.04 42.21L47.83 38.63 49.02 38.63 50.58 41.27 52.12 38.63 53.27 38.63 51.07 42.21 51.07 44.52 50.04 44.52 50.04 42.21M55.16 38.63L56.21 38.63 57.27 43.14 57.29 43.14 58.48 38.63 59.53 38.63 60.69 43.14 60.71 43.14 61.8 38.63 62.85 38.63 61.23 44.52 60.18 44.52 59 40.02 58.98 40.02 57.77 44.52 56.71 44.52 55.16 38.63M64.7 38.63L65.79 38.63 68.06 44.52 66.96 44.52 66.4 42.96 64.05 42.96 63.5 44.52 62.43 44.52 64.7 38.63 64.7 38.63ZM64.33 42.18L66.13 42.18 65.25 39.65 65.22 39.65 64.33 42.18 64.33 42.18ZM69.35 42.21L67.13 38.63 68.33 38.63 69.89 41.27 71.43 38.63 72.58 38.63 70.38 42.21 70.38 44.52 69.35 44.52 69.35 42.21M80.38 41.58C80.38 43.26 79.32 44.67 77.56 44.67 75.79 44.67 74.73 43.26 74.73 41.58 74.73 39.89 75.79 38.49 77.56 38.49 79.32 38.49 80.38 39.89 80.38 41.58L80.38 41.58ZM75.76 41.58C75.76 42.71 76.29 43.82 77.56 43.82 78.82 43.82 79.34 42.71 79.34 41.58 79.34 40.45 78.82 39.33 77.56 39.33 76.29 39.33 75.76 40.45 75.76 41.58L75.76 41.58ZM81.11 38.63L85.18 38.63 85.18 39.52 82.15 39.52 82.15 41.06 84.81 41.06 84.81 41.91 82.15 41.91 82.15 44.52 81.11 44.52 81.11 38.63M87.89 38.63L88.92 38.63 88.92 43.63 91.92 43.63 91.92 44.52 87.89 44.52 87.89 38.63M92.43 38.63L93.46 38.63 93.46 44.53 92.43 44.53 92.43 38.63ZM94.52 38.63L98.59 38.63 98.59 39.52 95.55 39.52 95.55 41.06 98.22 41.06 98.22 41.91 95.55 41.91 95.55 44.52 94.52 44.52 94.52 38.63M99.21 38.63L103.45 38.63 103.45 39.52 100.24 39.52 100.24 41.06 103.21 41.06 103.21 41.91 100.24 41.91 100.24 43.63 103.51 43.63 103.51 44.52 99.21 44.52 99.21 38.63M110.27 40.5C110.1 39.83 109.66 39.33 108.8 39.33 107.54 39.33 107.01 40.45 107.01 41.58 107.01 42.71 107.54 43.82 108.8 43.82 109.72 43.82 110.22 43.14 110.3 42.28L111.31 42.28C111.23 43.69 110.23 44.67 108.8 44.67 107.03 44.67 105.98 43.26 105.98 41.58 105.98 39.89 107.03 38.49 108.8 38.49 110.13 38.5 111.18 39.23 111.3 40.5L110.27 40.5M117.38 41.58C117.38 43.26 116.33 44.67 114.56 44.67 112.79 44.67 111.73 43.26 111.73 41.58 111.73 39.89 112.79 38.49 114.56 38.49 116.33 38.49 117.38 39.89 117.38 41.58L117.38 41.58ZM112.77 41.58C112.77 42.71 113.29 43.82 114.56 43.82 115.82 43.82 116.35 42.71 116.35 41.58 116.35 40.45 115.82 39.33 114.56 39.33 113.29 39.33 112.77 40.45 112.77 41.58L112.77 41.58ZM118.1 38.63L119.55 38.63 121.18 43.24 121.2 43.24 122.78 38.63 124.22 38.63 124.22 44.52 123.23 44.52 123.23 39.97 123.22 39.97 121.58 44.52 120.73 44.52 119.1 39.97 119.08 39.97 119.08 44.52 118.1 44.52 118.1 38.63M125.25 38.63L127.85 38.63C129.54 38.63 129.86 39.72 129.86 40.46 129.86 41.18 129.54 42.27 127.85 42.26L126.28 42.26 126.28 44.52 125.25 44.52 125.25 38.63 125.25 38.63ZM126.28 41.42L127.8 41.42C128.26 41.42 128.83 41.19 128.83 40.45 128.83 39.67 128.36 39.47 127.81 39.47L126.28 39.47 126.28 41.42 126.28 41.42ZM131.52 38.63L132.62 38.63 134.89 44.52 133.78 44.52 133.23 42.96 130.87 42.96 130.32 44.52 129.26 44.52 131.52 38.63 131.52 38.63ZM131.16 42.18L132.96 42.18 132.07 39.65 132.05 39.65 131.16 42.18 131.16 42.18ZM135.2 38.63L136.29 38.63 138.98 42.97 139 42.97 139 38.63 139.98 38.63 139.98 44.52 138.89 44.52 136.21 40.19 136.18 40.19 136.18 44.52 135.2 44.52 135.2 38.63M142.53 42.21L140.32 38.63 141.52 38.63 143.08 41.27 144.62 38.63 145.77 38.63 143.57 42.21 143.57 44.52 142.53 44.52 142.53 42.21"/>
</g>
</svg>