<svg xmlns="http://www.w3.org/2000/svg" width="126px" height="28px" viewBox="0 0 126 28">
	<path fill="#A2AAAD" d="M7,21h7v7H0V0h7V21z M15,28h7V0h-7V28z M56,7h4v21h7V7h4V0H56V7z M23,28h7V17h6v-6h-6V7h7V0H23V28z M38,28 h14v-7h-7v-4h6v-6h-6V7h7V0H38V28z M106,28h14v-7h-7v-4h6v-6h-6V7h7V0h-14V28z M72,28h7V0h-7V28z M92.5,14L90.4,0H80v28h7V12.6 L89.8,28h5.5L98,12.6V28h7V0H94.6L92.5,14z M126,2.5c0,1.4-1.1,2.5-2.5,2.5S121,3.9,121,2.5c0-1.4,1.1-2.5,2.5-2.5S126,1.1,126,2.5z M125.6,2.5c0-1.1-1-2.1-2.1-2.1s-2.1,1-2.1,2.1c0,1.1,0.9,2.1,2.1,2.1S125.6,3.6,125.6,2.5z M123.9,2.7l0.8,1.3h-0.5l-0.8-1.3H123 V4h-0.5V1h1.1c0.3,0,0.6,0.1,0.8,0.2c0.2,0.1,0.3,0.3,0.3,0.6c0,0.3-0.1,0.5-0.2,0.6C124.3,2.6,124.1,2.6,123.9,2.7z M123.8,2.3 c0.1,0,0.2,0,0.2-0.1c0.1,0,0.1-0.1,0.2-0.1c0-0.1,0.1-0.2,0.1-0.3c0-0.1,0-0.2-0.1-0.2c0-0.1-0.1-0.1-0.1-0.1 c-0.1,0-0.1-0.1-0.2-0.1c-0.1,0-0.2,0-0.2,0H123v0.9h0.5C123.6,2.3,123.7,2.3,123.8,2.3z"/>
</svg>