<svg xmlns="http://www.w3.org/2000/svg" width="85px" height="30px" viewBox="0 0 85 30"><path fill="#888888" d="M16,0v18.7h4.9v-7.4h3.5V7.1h-3.5V4.5h3.9V0H16z M25.6,0v18.7h8.8V14h-3.9v-2.7H34V7.1h-3.5V4.5h3.9V0H25.6z M0,18.7V0h4.9v14h4.4v4.7H0z M10.1,0h4.9v18.7h-4.9V0z M72.3,0v18.7h8.8V14h-3.9v-2.7h3.5V7.1h-3.5V4.5h3.9V0H72.3z M37.5,0v4.5 h2.9v14.2h4.9V4.5h2.9V0H37.5z M49,0h4.9v18.7H49V0z M64.4,0l-1.3,9.3L61.8,0h-7v18.7h4.7V8.3l1.8,10.4h3.6l1.8-10.4v10.4h4.7V0 H64.4z M83,0c0.6,0,1.2,0.5,1.2,1.2c0,0.7-0.6,1.2-1.2,1.2c-0.6,0-1.2-0.5-1.2-1.2C81.8,0.5,82.4,0,83,0z M83,2.1 c0.5,0,0.9-0.4,0.9-0.9c0-0.5-0.4-0.9-0.9-0.9s-0.9,0.4-0.9,0.9C82.1,1.7,82.5,2.1,83,2.1z M82.6,0.5h0.5c0.3,0,0.5,0.1,0.5,0.4 c0,0.2-0.2,0.3-0.3,0.4l0.4,0.6h-0.3L83,1.3h-0.2v0.6h-0.3L82.6,0.5L82.6,0.5z M82.8,1.1h0.2c0.2,0,0.3,0,0.3-0.2 c0-0.2-0.2-0.2-0.3-0.2h-0.2V1.1z M0,24.7h0.9v2.1h2.4v-2.1h0.9v5.2H3.3v-2.3H0.9v2.3H0V24.7z M5.3,24.7H9v0.8H6.2v1.4h2.6v0.7H6.2 v1.5h2.9v0.8H5.3L5.3,24.7L5.3,24.7z M11.5,24.7h1l2,5.2h-1L13,28.5H11l-0.5,1.4H9.5L11.5,24.7z M11.2,27.8h1.6L12,25.6h0L11.2,27.8 z M15.1,24.7H16v4.4h2.6v0.8h-3.6V24.7z M18.1,24.7h4.2v0.8h-1.7v4.4h-0.9v-4.4h-1.7V24.7z M23.1,24.7H24v2.1h2.4v-2.1h0.9v5.2h-0.9 v-2.3H24v2.3h-0.9V24.7z M29.7,27.8l-2-3.2h1.1l1.4,2.3l1.4-2.3h1l-1.9,3.2v2h-0.9V27.8z M35.6,24.7h0.9l0.9,4h0l1.1-4h0.9l1,4h0 l1-4h0.9l-1.4,5.2H40l-1-4h0l-1.1,4h-0.9L35.6,24.7z M44.2,24.7h1l2,5.2h-1l-0.5-1.4h-2.1l-0.5,1.4h-0.9L44.2,24.7z M43.9,27.8h1.6 l-0.8-2.2h0L43.9,27.8z M48.6,27.8l-2-3.2h1.1l1.4,2.3l1.4-2.3h1l-1.9,3.2v2h-0.9V27.8z M56.6,24.6c0.4,0,0.7,0.1,1.1,0.2 c0.3,0.2,0.6,0.3,0.8,0.6c0.2,0.2,0.4,0.5,0.5,0.9c0.1,0.3,0.2,0.7,0.2,1.1c0,0.4-0.1,0.7-0.2,1.1c-0.1,0.3-0.3,0.6-0.5,0.9 c-0.2,0.2-0.5,0.5-0.8,0.6C57.3,29.9,57,30,56.6,30c-0.4,0-0.7-0.1-1.1-0.2c-0.3-0.2-0.6-0.3-0.8-0.6c-0.2-0.2-0.4-0.5-0.5-0.9 c-0.1-0.3-0.2-0.7-0.2-1.1c0-0.4,0.1-0.7,0.2-1.1c0.1-0.3,0.3-0.6,0.5-0.9c0.2-0.2,0.5-0.5,0.8-0.6C55.8,24.6,56.2,24.6,56.6,24.6z M56.6,25.3c-0.3,0-0.5,0.1-0.7,0.2c-0.2,0.1-0.4,0.3-0.5,0.5c-0.1,0.2-0.2,0.4-0.3,0.6C55,26.8,55,27,55,27.3c0,0.2,0,0.5,0.1,0.7 c0.1,0.2,0.2,0.5,0.3,0.6c0.1,0.2,0.3,0.3,0.5,0.5c0.2,0.1,0.4,0.2,0.7,0.2c0.3,0,0.5-0.1,0.7-0.2c0.2-0.1,0.4-0.3,0.5-0.5 c0.1-0.2,0.2-0.4,0.3-0.6c0.1-0.2,0.1-0.5,0.1-0.7c0-0.2,0-0.5-0.1-0.7c-0.1-0.2-0.2-0.5-0.3-0.6c-0.1-0.2-0.3-0.3-0.5-0.5 C57.1,25.4,56.8,25.3,56.6,25.3z M60,24.7h3.6v0.8h-2.7v1.4h2.4v0.7h-2.4v2.3H60L60,24.7L60,24.7z M66.9,24.7h0.9v4.4h2.6v0.8h-3.6 L66.9,24.7L66.9,24.7z M71.1,24.7H72v5.2h-0.9V24.7z M73.2,24.7h3.6v0.8h-2.7v1.4h2.4v0.7h-2.4v2.3h-0.9L73.2,24.7L73.2,24.7z M77.4,24.7h3.7v0.8h-2.8v1.4h2.6v0.7h-2.6v1.5h2.9v0.8h-3.8L77.4,24.7L77.4,24.7z"/></svg>