<?xml version="1.0" encoding="utf-8"?>
<!-- Generator: Adobe Illustrator 26.0.1, SVG Export Plug-In . SVG Version: 6.00 Build 0)  -->
<svg version="1.1" id="Layer_1" xmlns="http://www.w3.org/2000/svg" xmlns:xlink="http://www.w3.org/1999/xlink" x="0px" y="0px"
	 width="160px" height="26px" viewBox="0 0 160 26" enable-background="new 0 0 160 26" xml:space="preserve">
<path fill="#FFFFFF" d="M116,1h-3.4L110,11.4h2.9l0.2-1.3h1.9l0.2,1.3h2.9L116,1z M114.7,7.9L114.7,7.9l-1.2,0l0.4-2.4
	c0.1-0.7,0.2-1.3,0.3-2h0c0.1,0.7,0.1,1.3,0.2,2L114.7,7.9L114.7,7.9L114.7,7.9z M119,11.4V3.5h-1.6V1h6v2.5h-1.6v7.9H119z
	 M128.3,11.4V7.2H127v4.2h-2.8V1h2.8v3.7h1.3V1h2.8v10.4H128.3z M132,11.4V1h2.8v8h2.1v2.5C137,11.4,132,11.4,132,11.4z M137.7,1
	h5.2v2.5h-2.4v1.5h2.2v2.5h-2.2V9h2.4v2.5h-5.2V1z M145.3,11.4V3.5h-1.6V1h6v2.5h-1.6v7.9H145.3z M150.4,11.4V1h2.8v10.4H150.4z
	 M159.9,4.1c-0.4-0.4-0.7-0.6-1.3-0.6c-1.5,0-1.8,1.6-1.8,2.8c0,1.2,0.4,2.8,1.8,2.8c0.6,0,1-0.2,1.5-0.7l-0.2,2.9
	c-0.6,0.2-1.1,0.4-1.7,0.4c-2.3,0-4.3-1.8-4.3-5.3c0-4.7,3.2-5.5,4.6-5.5c0.5,0,1,0.1,1.4,0.2L159.9,4.1L159.9,4.1z M114.5,25h3.2
	l-2.2-4.5c1.2-0.5,1.7-1.5,1.7-2.7c0-2.9-1.8-3.6-4.4-3.6H110V25h2.9v-2.9c0-0.5,0-1.1,0-1.6l0,0L114.5,25z M112.9,16.5
	c0.8,0,1.4,0.4,1.4,1.3c0,0.7-0.4,1.4-1.2,1.4l-0.2,0V16.5z M118.2,14.2h5.4v2.6h-2.5v1.5h2.3v2.6h-2.3v1.7h2.5V25h-5.4V14.2z
	 M124.7,21.4c0.4,0.6,1.1,1.2,1.9,1.2c0.4,0,0.9-0.2,0.9-0.7c0-0.3-0.1-0.4-0.2-0.6c-0.1-0.2-0.3-0.3-0.5-0.4
	c-0.6-0.4-1.1-0.9-1.4-1.4c-0.4-0.5-0.6-1.1-0.6-1.9c0-1.3,0.8-3.6,3.3-3.6c0.7,0,1.5,0.2,2.1,0.5v3.3c-0.3-0.5-1-1.2-1.7-1.2
	c-0.3,0-0.8,0.2-0.8,0.7c0,0.2,0.1,0.4,0.3,0.6c0.2,0.2,0.4,0.3,0.5,0.4c0.6,0.4,1.1,0.8,1.4,1.3c0.3,0.5,0.5,1.1,0.5,1.9
	c0,2-1.4,3.6-3.4,3.6c-0.7,0-1.5-0.2-2.2-0.4L124.7,21.4L124.7,21.4z M135.1,14c-3,0-4.1,3-4.1,5.6c0,2.6,1.2,5.6,4.1,5.6
	s4.1-3,4.1-5.6C139.2,16.9,138.1,14,135.1,14z M135.1,22.5c-1.1,0-1.1-2.2-1.1-2.9c0-0.7,0-2.9,1.1-2.9s1.1,2.2,1.1,2.9
	C136.3,20.3,136.2,22.5,135.1,22.5z M144.8,25h3.2l-2.2-4.5c1.2-0.5,1.7-1.5,1.7-2.7c0-2.9-1.8-3.6-4.4-3.6h-2.8V25h2.9v-2.9
	c0-0.5,0-1.1,0-1.6l0,0L144.8,25z M143.1,16.5c0.8,0,1.4,0.4,1.4,1.3c0,0.7-0.4,1.4-1.2,1.4l-0.2,0V16.5z M149.3,25v-8.2h-1.6v-2.6
	h6.2v2.6h-1.7V25H149.3z M154.4,21.4c0.4,0.6,1.1,1.2,1.9,1.2c0.4,0,0.9-0.2,0.9-0.7c0-0.3-0.1-0.4-0.2-0.6
	c-0.1-0.2-0.3-0.3-0.5-0.4c-0.6-0.4-1.1-0.9-1.4-1.4c-0.4-0.5-0.6-1.1-0.6-1.9c0-1.3,0.8-3.6,3.3-3.6c0.7,0,1.5,0.2,2.1,0.5v3.3
	c-0.3-0.5-1-1.2-1.7-1.2c-0.3,0-0.8,0.2-0.8,0.7c0,0.2,0.1,0.4,0.3,0.6c0.2,0.2,0.4,0.3,0.5,0.4c0.6,0.4,1.1,0.8,1.4,1.3
	c0.3,0.5,0.5,1.1,0.5,1.9c0,2-1.4,3.6-3.4,3.6c-0.7,0-1.5-0.2-2.2-0.4V21.4z M19,25h-6V1h6V25z M6,19.5V1H0v18.5V25h6h6v-5.5H6z
	 M31.5,6.5V1H26h-6v5.5v4v5V25h6v-9.5h4.5v-5H26v-4H31.5z M44,6.5V1h-5.5h-6v5.5v4v5v4V25h6H44v-5.5h-5.5v-4H43v-5h-4.5v-4H44z
	 M68,25h-6V1h6V25z M61,1h-4h-6h-4v5.5h4V25h6V6.5h4V1z M103,6.5V1h-5.5h-6v5.5v4v5v4V25h6h5.5v-5.5h-5.5v-4h4.5v-5h-4.5v-4H103z
	 M81.5,1l-1.8,12L78,1h-9v24h6V12l2.5,13H82l2.5-13v13h6V1H81.5z M105.5,1c-0.8,0-1.5,0.6-1.5,1.5c0,0.9,0.7,1.5,1.5,1.5
	s1.5-0.6,1.5-1.5C107,1.6,106.3,1,105.5,1z M105.5,3.7c-0.6,0-1.1-0.5-1.1-1.2c0-0.7,0.5-1.2,1.1-1.2c0.6,0,1.1,0.5,1.1,1.2
	C106.6,3.2,106.1,3.7,105.5,3.7z M105.7,2.6c0.2,0,0.4-0.1,0.4-0.4c0-0.4-0.2-0.5-0.6-0.5h-0.6v1.7h0.3V2.6h0.2l0.4,0.7h0.3
	L105.7,2.6z M105.2,2.4V1.9h0.3c0.1,0,0.3,0,0.3,0.2c0,0.2-0.1,0.2-0.3,0.2H105.2z"/>
</svg>
