<?xml version="1.0" encoding="utf-8"?>
<!-- Generator: Adobe Illustrator 26.0.1, SVG Export Plug-In . SVG Version: 6.00 Build 0)  -->
<svg version="1.1" id="Layer_1" xmlns="http://www.w3.org/2000/svg" xmlns:xlink="http://www.w3.org/1999/xlink" x="0px" y="0px"
	 width="362px" height="26px" viewBox="0 0 362 26" style="enable-background:new 0 0 362 26;" xml:space="preserve">
<style type="text/css">
	.st0{fill:#FFFFFF;}
</style>
<path class="st0" d="M131,25.6l-0.5-3.2h-4.6l-0.6,3.2h-7l6-25.1h8.3l5.3,25.1H131z M129.7,17l-0.7-5.8c-0.2-1.6-0.3-3.2-0.5-4.7
	h-0.1c-0.2,1.6-0.4,3.2-0.6,4.7l-0.9,5.8L129.7,17L129.7,17z M139.9,25.6v-19h-3.7V0.4h14.4v6.1h-3.9v19H139.9z M162.4,25.6V15.4
	h-3.2v10.2h-6.8V0.4h6.8v9h3.2v-9h6.8v25.1H162.4z M171.4,25.6V0.4h6.8v19.2h5.1v5.9C183.3,25.6,171.4,25.6,171.4,25.6z M185.1,0.4
	h12.6v5.9h-5.8v3.5h5.2v5.9h-5.2v3.8h5.8v5.9h-12.6V0.4z M203.2,25.6v-19h-3.7V0.4h14.4v6.1H210v19H203.2z M215.6,25.6V0.4h6.8v25.1
	H215.6z M238.4,7.8c-1-0.9-1.8-1.5-3.2-1.5c-3.5,0-4.4,3.9-4.4,6.7c0,2.9,0.9,6.7,4.3,6.7c1.5,0,2.5-0.6,3.6-1.6l-0.4,7
	c-1.4,0.6-2.6,0.9-4.1,0.9c-5.6,0-10.3-4.2-10.3-12.8c0-11.3,7.7-13.2,11-13.2c1.2,0,2.4,0.2,3.5,0.6L238.4,7.8L238.4,7.8z
	 M256,25.6l-3.8-10.5l-0.1,0.1c0,1.2,0.1,2.5,0.1,3.7v6.7h-6.8V0.4h6.6c5.9,0,10.2,1.7,10.2,8.4c0,2.8-1.2,5.2-3.9,6.3l5.1,10.5H256
	z M252.7,12.1c1.8,0,2.8-1.6,2.8-3.2c0-2.2-1.3-3.1-3.2-3V12L252.7,12.1z M264.6,0.4h12.6v5.9h-5.8v3.5h5.2v5.9h-5.2v3.8h5.8v5.9
	h-12.6V0.4z M279.6,17.1c0.9,1.4,2.6,2.8,4.3,2.8c0.9,0,2-0.6,2-1.7c0-0.6-0.2-1-0.5-1.4c-0.3-0.4-0.7-0.7-1.1-1
	c-1.3-1-2.5-2-3.4-3.2c-0.8-1.2-1.4-2.6-1.4-4.4c0-2.9,1.9-8.3,7.7-8.3c1.6,0,3.4,0.5,4.8,1.3v7.6c-0.8-1.3-2.4-2.7-4-2.7
	c-0.8,0-1.8,0.6-1.8,1.5c0,0.5,0.3,1,0.7,1.4c0.4,0.4,0.9,0.7,1.2,1c1.4,1,2.6,1.9,3.3,3.1c0.8,1.1,1.2,2.5,1.2,4.4
	c0,4.7-3.3,8.4-8,8.4c-1.7,0-3.5-0.4-5.1-1L279.6,17.1L279.6,17.1z M303.8,0c6.9,0,9.6,6.9,9.6,13s-2.7,13-9.6,13
	c-6.9,0-9.6-6.9-9.6-13S296.9,0,303.8,0z M303.8,19.7c2.6,0,2.7-5.1,2.7-6.7s-0.1-6.7-2.7-6.7c-2.6,0-2.7,5.1-2.7,6.7
	S301.2,19.7,303.8,19.7z M326.2,25.6l-3.8-10.5l-0.1,0.1c0,1.2,0.1,2.5,0.1,3.7v6.7h-6.8V0.4h6.6c5.9,0,10.2,1.7,10.2,8.4
	c0,2.8-1.2,5.2-3.9,6.3l5.1,10.5H326.2z M322.9,12.1c1.8,0,2.8-1.6,2.8-3.2c0-2.2-1.3-3.1-3.2-3V12L322.9,12.1z M336.7,25.6v-19H333
	V0.4h14.4v6.1h-3.9v19H336.7z M348.5,17.1c0.9,1.4,2.6,2.8,4.3,2.8c0.9,0,2-0.6,2-1.7c0-0.6-0.2-1-0.5-1.4c-0.3-0.4-0.7-0.7-1.1-1
	c-1.3-1-2.5-2-3.4-3.2c-0.8-1.2-1.4-2.6-1.4-4.4c0-2.9,1.9-8.3,7.7-8.3c1.6,0,3.4,0.5,4.8,1.3v7.6c-0.8-1.3-2.4-2.7-4-2.7
	c-0.8,0-1.8,0.6-1.8,1.5c0,0.5,0.3,1,0.7,1.4c0.4,0.4,0.9,0.7,1.2,1c1.4,1,2.6,1.9,3.3,3.1c0.8,1.1,1.2,2.5,1.2,4.4
	c0,4.7-3.3,8.4-8,8.4c-1.7,0-3.5-0.4-5.1-1V17.1z M21.8,0.1v25.5h6.7V15.5h4.8V9.8h-4.8V6.3h5.3V0.1H21.8z M34.9,0.1v25.5h12v-6.4
	h-5.3v-3.7h4.8V9.8h-4.8V6.3h5.3V0.1H34.9z M12.7,25.6v-6.4h-6V0.1H0v25.5L12.7,25.6L12.7,25.6z M13.8,0.1v25.5h6.7V0.1H13.8z
	 M98.6,0.1v25.5h12v-6.4h-5.3v-3.7h4.8V9.8h-4.8V6.3h5.3V0.1H98.6z M51.1,0.1v6.2H55v19.3h6.7V6.3h3.9V0.1H51.1z M66.7,0.1v25.5h6.7
	V0.1H66.7z M87.8,0.1L86,12.8L84.2,0.1h-9.6v25.5H81V11.4l2.5,14.2h5L91,11.4l0,14.2h6.4V0.1H87.8z M113.2,0.1
	c0.9,0,1.7,0.6,1.7,1.6c0,1-0.8,1.6-1.7,1.6c-0.9,0-1.7-0.6-1.7-1.6C111.5,0.7,112.3,0.1,113.2,0.1z M113.2,3c0.7,0,1.2-0.5,1.2-1.3
	c0-0.7-0.6-1.3-1.2-1.3c-0.7,0-1.2,0.5-1.2,1.3C111.9,2.4,112.5,3,113.2,3z M112.5,0.8h0.7c0.5,0,0.7,0.1,0.7,0.5
	c0,0.3-0.2,0.5-0.5,0.5l0.5,0.8h-0.4l-0.4-0.8h-0.2v0.8h-0.4V0.8z M112.9,1.5h0.3c0.2,0,0.4,0,0.4-0.3c0-0.2-0.2-0.2-0.4-0.2h-0.3
	V1.5z"/>
</svg>
