<svg xmlns="http://www.w3.org/2000/svg" width="218px" height="25px" viewBox="0 0 218 25">
	<path fill="#444444" d="M157,0h5v9h10V0h5v24h-5V14h-10v10h-5V0z M197,24h-4.7v-2.2h-0.1c-0.6,1-1.4,1.8-2.4,2.2 c-0.9,0.4-2,0.7-3,0.7c-1.3,0-2.4-0.2-3.2-0.5c-0.8-0.3-1.5-0.8-2-1.4s-0.8-1.4-1-2.3c-0.2-0.9-0.3-1.9-0.3-3V6.7h4.8v9.9 c0,1.5,0.2,2.5,0.7,3.2c0.5,0.7,1.3,1.1,2.4,1.1c1.3,0,2.3-0.4,2.9-1.2c0.6-0.8,0.9-2.1,0.9-3.9V6.7h4.9V24z M213.1,15.5 c0-0.7-0.1-1.4-0.2-2.1c-0.1-0.6-0.4-1.2-0.7-1.8c-0.3-0.5-0.8-0.9-1.3-1.2c-0.5-0.3-1.1-0.5-1.9-0.5c-0.7,0-1.3,0.2-1.8,0.5 c-0.5,0.3-1,0.7-1.3,1.2c-0.4,0.6-0.6,1.2-0.7,1.8c-0.2,0.7-0.2,1.4-0.2,2.1c0,0.7,0.1,1.4,0.2,2.1c0.2,0.7,0.4,1.3,0.7,1.8 c0.3,0.5,0.8,0.9,1.3,1.2c0.5,0.3,1.1,0.5,1.8,0.5c0.7,0,1.3-0.2,1.9-0.5s0.9-0.7,1.3-1.2s0.6-1.1,0.7-1.8 C213,16.9,213.1,16.2,213.1,15.5L213.1,15.5z M200,0h5v8.8h0.1c0.6-0.9,1.4-1.6,2.4-2c1-0.4,2.1-0.6,3.1-0.6c0.9,0,1.8,0.2,2.6,0.5 c0.9,0.4,1.6,0.9,2.3,1.7c0.7,0.7,1.3,1.7,1.7,2.9c0.4,1.2,0.6,2.6,0.6,4.2c0,1.6-0.2,3-0.6,4.2c-0.4,1.2-1,2.1-1.7,2.9 c-0.7,0.7-1.5,1.3-2.3,1.7c-0.8,0.4-1.7,0.5-2.6,0.5c-1.3,0-2.4-0.2-3.5-0.6c-1-0.4-1.8-1.1-2.3-2.1h-0.1v2H200V0z M105.6,15.7h2.7 l2,5.9h0l1.9-5.9h2.7v8.6h-1.8v-6.1h0l-2.1,6.1h-1.5l-2.1-6h0v6h-1.8C105.6,24.3,105.6,15.7,105.6,15.7z M120.5,20.5 c-0.1-0.4-0.2-0.8-0.4-1c-0.2-0.2-0.5-0.3-0.9-0.3c-0.3,0-0.5,0-0.7,0.1c-0.3,0.2-0.6,0.4-0.7,0.8c0,0.2-0.1,0.3-0.1,0.4 C117.7,20.5,120.5,20.5,120.5,20.5z M117.7,21.6c0,0.6,0.2,1,0.4,1.2s0.6,0.4,1.1,0.4c0.3,0,0.6-0.1,0.9-0.3 c0.2-0.2,0.4-0.4,0.5-0.5h1.5c-0.2,0.7-0.6,1.3-1.1,1.6c-0.5,0.3-1.1,0.5-1.8,0.5c-0.5,0-0.9-0.1-1.3-0.2c-0.4-0.1-0.7-0.4-1-0.7 c-0.3-0.3-0.5-0.6-0.6-1c-0.1-0.4-0.2-0.8-0.2-1.3c0-0.5,0.1-0.9,0.2-1.3s0.4-0.7,0.6-1c0.3-0.3,0.6-0.5,1-0.7 c0.4-0.2,0.8-0.3,1.3-0.3c0.5,0,1,0.1,1.4,0.3s0.7,0.5,1,0.8s0.4,0.7,0.5,1.2s0.2,0.9,0.1,1.4C122.2,21.6,117.7,21.6,117.7,21.6z M123.2,18.1h1.6v0.8h0c0.2-0.3,0.5-0.6,0.8-0.7c0.3-0.2,0.7-0.3,1.1-0.3c0.4,0,0.8,0.1,1.1,0.2s0.6,0.4,0.7,0.8 c0.2-0.3,0.4-0.5,0.8-0.7s0.7-0.3,1.1-0.3c0.3,0,0.6,0,0.9,0.1s0.5,0.2,0.7,0.4s0.4,0.4,0.5,0.7s0.2,0.6,0.2,1v4.2H131v-3.5 c0-0.2,0-0.4,0-0.6c0-0.2-0.1-0.3-0.1-0.5c-0.1-0.1-0.2-0.2-0.3-0.3c-0.1-0.1-0.3-0.1-0.6-0.1s-0.4,0-0.6,0.1 c-0.1,0.1-0.3,0.2-0.3,0.4c-0.1,0.1-0.1,0.3-0.2,0.5c0,0.2,0,0.4,0,0.6v3.5h-1.7v-3.5c0-0.2,0-0.4,0-0.5c0-0.2,0-0.3-0.1-0.5 c-0.1-0.2-0.2-0.3-0.3-0.4c-0.1-0.1-0.3-0.1-0.6-0.1c-0.1,0-0.2,0-0.3,0.1c-0.1,0-0.3,0.1-0.4,0.2s-0.2,0.2-0.3,0.4 s-0.1,0.4-0.1,0.7v3.6h-1.7L123.2,18.1L123.2,18.1z M138.6,21.2c0-0.3,0-0.5-0.1-0.8c-0.1-0.2-0.1-0.4-0.3-0.6 c-0.1-0.2-0.3-0.3-0.4-0.4c-0.2-0.1-0.4-0.2-0.7-0.2c-0.4,0-0.9,0.2-1.1,0.6c-0.1,0.2-0.2,0.4-0.3,0.6c-0.1,0.2-0.1,0.5-0.1,0.8 c0,0.3,0,0.5,0.1,0.7s0.1,0.5,0.3,0.6c0.2,0.4,0.7,0.6,1.1,0.6c0.3,0,0.5-0.1,0.7-0.2c0.2-0.1,0.3-0.3,0.4-0.4s0.2-0.4,0.3-0.6 C138.6,21.7,138.6,21.4,138.6,21.2z M134.1,15.7h1.7v3.1h0c0.2-0.3,0.5-0.6,0.8-0.7c0.4-0.1,0.7-0.2,1.1-0.2c0.7,0,1.3,0.3,1.7,0.8 c0.2,0.3,0.4,0.6,0.6,1s0.2,0.9,0.2,1.5s-0.1,1.1-0.2,1.5c-0.2,0.4-0.4,0.8-0.6,1c-0.4,0.5-1.1,0.8-1.7,0.8c-0.5,0-0.9-0.1-1.2-0.2 c-0.4-0.1-0.6-0.4-0.8-0.7h0v0.8h-1.6C134.1,24.3,134.1,15.7,134.1,15.7z M145.6,20.5c-0.1-0.4-0.2-0.8-0.4-1 c-0.2-0.2-0.5-0.3-0.9-0.3c-0.3,0-0.5,0-0.7,0.1c-0.3,0.2-0.6,0.4-0.7,0.8c0,0.2-0.1,0.3-0.1,0.4H145.6L145.6,20.5z M142.8,21.6 c0,0.6,0.2,1,0.4,1.2s0.6,0.4,1.1,0.4c0.3,0,0.6-0.1,0.9-0.3c0.2-0.2,0.4-0.4,0.5-0.5h1.5c-0.2,0.7-0.6,1.3-1.1,1.6 c-0.5,0.3-1.1,0.5-1.8,0.5c-0.5,0-0.9-0.1-1.3-0.2c-0.4-0.1-0.7-0.4-1-0.7c-0.3-0.3-0.5-0.6-0.6-1c-0.1-0.4-0.2-0.8-0.2-1.3 c0-0.5,0.1-0.9,0.2-1.3s0.4-0.7,0.6-1c0.3-0.3,0.6-0.5,1-0.7c0.4-0.2,0.8-0.3,1.3-0.3c0.5,0,1,0.1,1.4,0.3s0.7,0.5,1,0.8 s0.4,0.7,0.5,1.2s0.2,0.9,0.1,1.4L142.8,21.6L142.8,21.6z M148.3,18.1h1.6v1.2h0c0.2-0.4,0.4-0.7,0.8-1c0.2-0.1,0.4-0.2,0.6-0.3 c0.2-0.1,0.4-0.1,0.6-0.1c0.1,0,0.2,0,0.4,0.1v1.6c-0.2,0-0.4-0.1-0.6-0.1c-0.3,0-0.6,0.1-0.8,0.2s-0.4,0.2-0.5,0.4 s-0.2,0.4-0.3,0.6s-0.1,0.5-0.1,0.8v2.8h-1.7L148.3,18.1L148.3,18.1z M108.9,2.8H105V0.4h10.5v2.4h-3.9v10.5h-2.8 C108.9,13.3,108.9,2.8,108.9,2.8z M123,7.6c-0.1-0.6-0.3-1.1-0.6-1.5s-0.8-0.5-1.4-0.5c-0.4,0-0.7,0.1-1,0.2 c-0.5,0.2-0.8,0.7-1,1.2c-0.1,0.2-0.1,0.4-0.1,0.6H123z M118.8,9.2c0,0.8,0.2,1.4,0.6,1.8c0.4,0.4,0.9,0.6,1.7,0.6 c0.5,0,1-0.1,1.3-0.4s0.6-0.5,0.7-0.8h2.2c-0.4,1.1-0.9,1.9-1.7,2.4c-0.7,0.5-1.6,0.7-2.7,0.7c-0.7,0-1.4-0.1-2-0.4 c-0.6-0.2-1.1-0.6-1.5-1c-0.4-0.4-0.7-1-0.9-1.5c-0.2-0.6-0.3-1.3-0.3-2c0-0.7,0.1-1.3,0.3-1.9c0.2-0.6,0.6-1.1,1-1.6 s0.9-0.8,1.5-1c0.6-0.3,1.3-0.4,1.9-0.4c0.8,0,1.5,0.2,2.1,0.5c0.6,0.3,1.1,0.7,1.4,1.2c0.4,0.5,0.7,1.1,0.8,1.8s0.2,1.4,0.2,2.1 C125.6,9.2,118.8,9.2,118.8,9.2z M127,6.8c0-0.6,0.2-1.1,0.4-1.5s0.6-0.7,1-1c0.4-0.2,0.9-0.4,1.4-0.5c0.5-0.1,1-0.2,1.5-0.2 c0.5,0,0.9,0,1.4,0.1s0.9,0.2,1.3,0.4s0.7,0.5,1,0.8s0.4,0.8,0.4,1.4v4.8c0,0.4,0,0.8,0.1,1.2s0.1,0.7,0.3,0.9h-2.6 c-0.1-0.3-0.2-0.6-0.2-0.9c-0.4,0.4-0.9,0.7-1.4,0.9c-0.5,0.2-1.1,0.3-1.7,0.3c-0.4,0-0.9-0.1-1.2-0.2c-0.4-0.1-0.7-0.3-1-0.5 c-0.3-0.2-0.5-0.5-0.7-0.9c-0.2-0.3-0.2-0.8-0.2-1.2c0-0.5,0.1-1,0.3-1.3s0.4-0.6,0.7-0.8s0.6-0.4,1-0.5c0.4-0.1,0.8-0.2,1.1-0.2 c0.4-0.1,0.8-0.1,1.1-0.1c0.3,0,0.7-0.1,1-0.2c0.3-0.1,0.5-0.2,0.7-0.3s0.2-0.3,0.2-0.6c0-0.3,0-0.5-0.1-0.7 c-0.1-0.2-0.2-0.3-0.4-0.4c-0.1-0.1-0.3-0.2-0.5-0.2c-0.2,0-0.4,0-0.6,0c-0.5,0-0.9,0.1-1.2,0.3c-0.3,0.2-0.5,0.6-0.5,1.1 C129.5,6.8,127,6.8,127,6.8z M132.9,8.7c-0.1,0.1-0.3,0.2-0.4,0.2c-0.2,0.1-0.3,0.1-0.5,0.1c-0.2,0-0.4,0.1-0.6,0.1 c-0.2,0-0.4,0.1-0.6,0.1c-0.2,0-0.4,0.1-0.6,0.1c-0.2,0.1-0.3,0.1-0.5,0.2c-0.1,0.1-0.3,0.2-0.3,0.4c-0.1,0.2-0.1,0.4-0.1,0.6 c0,0.2,0,0.4,0.1,0.6c0.1,0.2,0.2,0.3,0.3,0.4c0.1,0.1,0.3,0.2,0.5,0.2s0.4,0.1,0.6,0.1c0.5,0,0.9-0.1,1.2-0.3s0.5-0.4,0.6-0.6 c0.1-0.2,0.2-0.5,0.2-0.7s0-0.4,0-0.6L132.9,8.7L132.9,8.7z M137.5,4h2.4v1.3h0c0.3-0.5,0.7-0.8,1.2-1.1c0.5-0.3,1-0.4,1.6-0.4 c0.6,0,1.1,0.1,1.6,0.3c0.5,0.2,0.9,0.6,1.1,1.2c0.3-0.4,0.7-0.8,1.1-1.1c0.5-0.3,1-0.5,1.7-0.5c0.5,0,0.9,0.1,1.4,0.2 s0.8,0.3,1.1,0.6s0.5,0.6,0.7,1c0.2,0.4,0.3,0.9,0.3,1.5v6.2h-2.6V8c0-0.3,0-0.6,0-0.9c0-0.3-0.1-0.5-0.2-0.7 c-0.1-0.2-0.3-0.4-0.5-0.5c-0.2-0.1-0.5-0.2-0.9-0.2s-0.7,0.1-0.9,0.2c-0.2,0.1-0.4,0.3-0.5,0.5C146,6.7,146,7,145.9,7.2 c0,0.3-0.1,0.6-0.1,0.9v5.2h-2.6V8.1c0-0.3,0-0.5,0-0.8c0-0.3-0.1-0.5-0.2-0.7c-0.1-0.2-0.2-0.4-0.4-0.5c-0.2-0.1-0.5-0.2-0.9-0.2 c-0.1,0-0.3,0-0.5,0.1s-0.4,0.2-0.6,0.3s-0.3,0.4-0.5,0.6c-0.1,0.3-0.2,0.7-0.2,1.1v5.4h-2.6L137.5,4L137.5,4z"/>
	<path fill="#A2AAAD" d="M10,17v5H0V2h5v15H10z M11,2v20h5V2H11z M27,7V2H17v20h5v-8h4v-4h-4V7H27z M38,7V2H28v20h10v-5h-5v-3h4v-4 h-4V7H38z M88,7V2H78v20h10v-5h-5v-3h4v-4h-4V7H88z M41,2v5h3v15h5V7h3V2H41z M53,2v20h5V2H53z M72,2h-2.5L68,12L66.5,2H59v20h5V11 l2,11h4l2-11v11h5V2H72z M91.5,2C90.1,2,89,3.1,89,4.5S90.1,7,91.5,7S94,5.9,94,4.5S92.9,2,91.5,2z M91.5,6.6c-1.2,0-2.1-1-2.1-2.1 s1-2.1,2.1-2.1s2.1,1,2.1,2.1S92.7,6.6,91.5,6.6z M91.9,4.7c0.2,0,0.4-0.1,0.5-0.2s0.2-0.3,0.2-0.6s-0.1-0.5-0.3-0.6 C92.3,3.1,92,3,91.7,3h-1.1v3H91V4.7h0.5L92.3,6h0.5L91.9,4.7z M91.5,4.3H91V3.4h0.8c0.1,0,0.1,0,0.2,0.1c0.1,0,0.1,0.1,0.1,0.1 c0,0.1,0.1,0.1,0.1,0.2s0,0.2-0.1,0.3c0,0.1-0.1,0.1-0.2,0.1s-0.2,0.1-0.2,0.1S91.5,4.3,91.5,4.3z"/>
</svg>