<svg xmlns="http://www.w3.org/2000/svg" width="150px" height="28px" viewBox="0 0 150 28">
<path fill="#444444" d="M66.4,6.4c2.4,0,3.1,0.1,3.1,0.6c0.1,1.6-9.6,7.4-12.5,7.6c-0.5,0-1.3-0.2-1.3-1
	C55.7,11.1,61.1,6.5,66.4,6.4 M136.7,3.9c0,1.1-3.5,2.9-8.3,4.2c0.5-2.9,3.8-5,6.8-5.1C136.4,3.1,136.6,3.2,136.7,3.9 M150,12.1
	c-0.1-0.6-0.6-1-1.1-1l-0.3,0.1c-2.9,0.9-10,2.7-13.2,2.8c-3.6,0.1-5.8-0.8-6.6-2.8c5.7-1.4,12.9-3.8,12.8-7.9
	c0-2.1-2.3-3.3-5.2-3.3c-4.5,0.2-12.3,4.7-12.9,9.7c-3.3,1.3-12.8,4.6-16.3,4.6c0,0-1.7,0-2.3-0.3c-0.6-0.3-0.9-0.8-0.9-1.5
	c0-1.5,1.3-4.1,3.5-7l0.5-0.7l-2.1,0.5c-2,0.5-4.1,1.1-5.9,1.1c-0.9,0-1.8-0.2-2.6-0.6c0.5-0.7,0.4-2.1,0.1-2.9
	c-0.2-0.5-0.6-0.8-1.2-0.8c-0.6,0-1.2,0.3-1.5,0.8c-0.7,0.9-0.9,2.4-0.6,3.3c-3.1,2.7-11.8,5-11.8,5c-2,0.5-8.2,2.1-11.5,2.3
	c-0.5,0-0.8-0.1-0.9-0.3c-0.5-0.7,0.9-2.6,2-4.1c1.1-1.5,1.9-2.7,1.9-3.4c0-1.8-4-2.6-6.7-2.6s-8.1,1.5-12.6,2.9
	C53,6.3,44.9,9.1,43.7,9.5c-5.2,1.8-13.8,4.7-17.4,4.8c0,0-1.7,0-2.3-0.3c-0.6-0.3-0.9-0.8-0.9-1.5c0-1.5,1.3-4.1,3.5-7l0.5-0.7
	L25,5.3c-2,0.5-4.1,1.1-5.9,1.1c-0.9,0-1.8-0.2-2.6-0.6c0.5-0.7,0.4-2.1,0.1-2.9c-0.2-0.5-0.6-0.8-1.1-0.9c-0.6,0-1.2,0.3-1.5,0.8
	c-0.7,0.9-0.9,2.4-0.6,3.2c-2.9,2.5-9.6,4.5-11.8,5c-1.1,0.2-1.6,1.1-1.5,1.8c0.1,0.7,0.9,1.2,1.7,1c2.5-0.7,9.7-3.2,13-6.1
	c1.4,0.8,3.5,0.9,4.1,0.9l1-0.1C19.1,10,19,11.9,19,12.5c0,3,2.7,4.5,5.4,4.5c6.9,0,16.2-3.2,21.1-4.9l1.9-0.7
	c1.9-0.6,3.5-1.2,4.8-1.8c-0.9,1.3-1.8,3.1-1.8,4.3c0.1,2.9,2.9,3.9,5.5,3.9h0c2.6-0.1,6.3-1.9,8.1-3.2c0,0.7,0.1,1.4,0.6,1.8
	c0.5,0.4,2.2,0.5,2.3,0.5c4.7-0.1,13.4-2.4,15.5-3.1c0,0,10-3.5,13-6.1c1.4,0.8,3.5,0.9,4.1,0.9l1-0.1c-0.8,1.4-0.8,3.2-0.8,3.8
	c0,3.1,2.8,4.4,5.4,4.5c5.1,0.3,17.6-4.2,18.6-4.5c1.4,2.9,5.6,4.4,9,4.5c3.8,0.1,13.4-2.1,16-3C149.6,13.8,150.2,12.9,150,12.1
	 M81.9,25.3L81,24.8c-0.3-0.2-0.6-0.3-0.6-0.7c0-0.4,0.4-0.6,0.7-0.6s0.7,0.3,0.8,0.7l0.5-0.2c-0.2-0.7-0.6-1.1-1.4-1.1
	s-1.3,0.4-1.3,1.1s0.6,1,1.3,1.3s0.9,0.3,0.9,0.8c0,0.5-0.4,0.7-0.8,0.7s-0.9-0.4-1-0.9l-0.5,0.2c0.1,0.8,0.7,1.3,1.5,1.3
	c0.8,0,1.4-0.5,1.4-1.3C82.5,25.8,82.3,25.4,81.9,25.3 M84.6,23.9h1.3l0,3.9h0.5v-3.9h1.3v-0.5h-3.1V23.9z M90.1,27.8H93v-0.5h-2.3
	v-1.6h1.8v-0.5h-1.8v-1.3H93v-0.5h-2.9V27.8z M95.7,25.8l0.6-2l0.6,2H95.7z M96,23.2l-1.4,4.3l0.6,0.2l0.4-1.3h1.6l0.4,1.3l0.5-0.2
	l-1.4-4.3H96L96,23.2z M102.9,23.7l-0.4-0.3l-1.5,2l-0.2-0.1v-1.8h-0.5v4.6h0.5v-2.2l0.2,0.1l1.8,2.1l0.4-0.4l-1.7-2L102.9,23.7
	L102.9,23.7z M111.4,27.1c-0.4,0-0.8-0.3-0.8-0.7c0,0,0-0.1,0-0.1c0-0.4,0.2-0.6,0.5-0.8l0.9,1.3C111.9,27,111.6,27.1,111.4,27.1
	 M110.8,23.9c0-0.3,0.2-0.5,0.5-0.6c0,0,0.1,0,0.1,0c0.3,0,0.6,0.2,0.6,0.5c0,0,0,0.1,0,0.1c0,0.4-0.3,0.5-0.5,0.8l-0.2,0.1
	C110.9,24.4,110.8,24.2,110.8,23.9 M112.6,25.5c0,0.3-0.1,0.6-0.3,0.8l-0.8-1.1c0.7-0.4,0.9-0.8,0.9-1.3c0-0.6-0.4-1.1-1-1.1
	c0,0-0.1,0-0.1,0c-0.6,0-1.1,0.4-1.1,1c0,0,0,0.1,0,0.1c0,0.4,0.5,1.2,0.5,1.2c-0.4,0.3-0.8,0.6-0.8,1.2c0,0.7,0.6,1.3,1.3,1.3
	c0,0,0,0,0.1,0c0.4,0,0.7-0.1,1-0.4l0.3,0.4l0.4-0.3l-0.3-0.5c0.2-0.4,0.4-0.8,0.4-1.2L112.6,25.5z M122.6,25.3l-0.9-0.4
	c-0.3-0.2-0.6-0.3-0.6-0.7c0-0.4,0.4-0.6,0.7-0.6s0.7,0.3,0.8,0.7l0.5-0.2c-0.2-0.7-0.6-1.1-1.4-1.1s-1.3,0.4-1.3,1.1s0.6,1,1.3,1.3
	s0.9,0.3,0.9,0.8c0,0.5-0.4,0.7-0.8,0.7s-0.9-0.4-1-0.9l-0.5,0.2c0.1,0.8,0.7,1.3,1.5,1.3s1.4-0.5,1.4-1.3
	C123.2,25.8,122.9,25.4,122.6,25.3 M127.6,26.1c0,0.6-0.2,0.9-0.9,0.9c-0.7,0-0.8-0.3-0.8-0.9l0.1-3h-0.5v3.4c0,0.6,0.3,1.1,1.3,1.1
	s1.3-0.6,1.3-1.1v-3.4h-0.5L127.6,26.1L127.6,26.1z M132.7,25.3l-0.9-0.4c-0.3-0.2-0.6-0.3-0.6-0.7c0-0.4,0.4-0.6,0.7-0.6
	c0.4,0,0.7,0.3,0.8,0.7l0.5-0.2c-0.2-0.7-0.6-1.1-1.4-1.1c-0.8,0-1.3,0.4-1.3,1.1s0.6,1,1.3,1.3s0.9,0.3,0.9,0.8
	c0,0.5-0.4,0.7-0.8,0.7s-0.9-0.4-1-0.9l-0.5,0.2c0.1,0.8,0.7,1.3,1.5,1.3c0.8,0,1.4-0.5,1.4-1.3C133.3,25.8,133.1,25.4,132.7,25.3
	 M137.5,24.9h-1.8v-1.8h-0.5l0,4.6h0.5v-2.2h1.8v2.2h0.5v-4.6h-0.5V24.9z M140.4,23.6h0.7V27h-0.7v0.5h1.8V27h-0.6v-3.4h0.6v-0.5
	h-1.8V23.6z"/>
</svg>
