<?xml version="1.0" encoding="utf-8"?>
<svg viewBox="0 0 479 407" xmlns="http://www.w3.org/2000/svg">
  <defs>
    <clipPath id="clip-Alpha">
      <rect width="362" height="407"/>
    </clipPath>
    <clipPath id="clip-path">
      <rect id="Rectangle_63" data-name="Rectangle 63" width="358.179" height="59.781" fill="#f37d40"/>
    </clipPath>
  </defs>
  <g id="Alpha" clip-path="url(#clip-Alpha)" transform="matrix(1, 0, 0, 1, 62, 0)">
    <g id="Group_15329" data-name="Group 15329" transform="translate(-1973.512 -1795)">
      <g id="Group_81" data-name="Group 81" transform="translate(1973.512 2137.762)">
        <g id="Group_80" data-name="Group 80" transform="translate(0 0)" clip-path="url(#clip-path)">
          <path id="Path_84" data-name="Path 84" d="M41.348,21.842c-1.1-2.052-2.916-2.057-4.036-.016l-4.109,7.5c-1.115,2.036-.13,3.708,2.2,3.708H38c2.323,0,3.583.542,4.682,2.588l4.474,8.39c1.1,2.052.1,3.729-2.229,3.729H27.36a7.758,7.758,0,0,0-6.218,3.744L18.72,56.042A7.75,7.75,0,0,1,12.5,59.781H2.632C.3,59.781-.664,58.125.481,56.1L30.141,3.682A8.05,8.05,0,0,1,36.453,0h6.692a8.1,8.1,0,0,1,6.338,3.677L79.559,56.11c1.161,2.021.2,3.672-2.125,3.672H65.956a7.8,7.8,0,0,1-6.234-3.729Z" transform="translate(-0.002 0.001)" fill="#f37d40"/>
          <path id="Path_85" data-name="Path 85" d="M94.751,21.842c-1.1-2.052-2.916-2.057-4.036-.016l-4.109,7.5c-1.12,2.036-.13,3.708,2.2,3.708H91.4c2.323,0,3.583.542,4.682,2.588l4.474,8.39c1.1,2.052.1,3.729-2.224,3.729H80.762a7.741,7.741,0,0,0-6.213,3.744l-2.427,4.557A7.758,7.758,0,0,1,65.9,59.781H56.035c-2.328,0-3.3-1.656-2.146-3.682L83.543,3.682A8.052,8.052,0,0,1,89.861,0h6.687a8.1,8.1,0,0,1,6.338,3.677L132.962,56.11c1.161,2.021.2,3.672-2.125,3.672H119.364a7.819,7.819,0,0,1-6.239-3.729Z" transform="translate(224.723 0.001)" fill="#f37d40"/>
          <path id="Path_86" data-name="Path 86" d="M27.429,59.781a7.361,7.361,0,0,1-6.25-3.536c-1.62-2.859-2.172-3.781-4.927-8.6a7.644,7.644,0,0,1-.917-3.994V4.239A4.248,4.248,0,0,1,19.565,0h9.119a4.252,4.252,0,0,1,4.234,4.239V40.413a4.246,4.246,0,0,0,4.229,4.234h24.7a7.715,7.715,0,0,1,6.593,3.812l4.734,8.2a2.034,2.034,0,0,1-1.562,3.125Z" transform="translate(64.534 0.001)" fill="#f37d40"/>
          <path id="Path_87" data-name="Path 87" d="M49.928,55.547a4.248,4.248,0,0,0,4.234,4.234H55.6a7.364,7.364,0,0,0,6.25-3.64c1.12-1.963,2.8-5.01,4.776-8.317a6.98,6.98,0,0,0,.984-3.755V4.234A4.248,4.248,0,0,0,63.38,0H54.162a4.248,4.248,0,0,0-4.234,4.234Z" transform="translate(210.096 0.001)" fill="#f37d40"/>
          <path id="Path_88" data-name="Path 88" d="M87.245,31.893a4.246,4.246,0,0,1-4.229,4.234H61.647a4.247,4.247,0,0,0-4.234,4.234V55.547a4.248,4.248,0,0,1-4.234,4.234H44.065a4.244,4.244,0,0,1-4.234-4.234V4.234A4.244,4.244,0,0,1,44.065,0h9.114a4.248,4.248,0,0,1,4.234,4.234V17.082a4.247,4.247,0,0,0,4.234,4.234H83.016a4.246,4.246,0,0,1,4.229,4.234Z" transform="translate(167.608 0.001)" fill="#f37d40"/>
          <path id="Path_89" data-name="Path 89" d="M90.57,12.207C90.57,5.765,86.044.443,77.659.073A3.913,3.913,0,0,0,76.842,0H30.647a4.243,4.243,0,0,0-4.229,4.234v39.83a5.571,5.571,0,0,0,1.026,3.531c.792,1.427,4.6,8.187,4.869,8.635a7.315,7.315,0,0,0,6.567,3.552h.672a4.248,4.248,0,0,0,4.234-4.234V18.4a4.248,4.248,0,0,1,4.234-4.234H69.347a4.067,4.067,0,0,1,4.161,4.088c0,.458.01.917.01.917s-.005.557-.005.922a4.031,4.031,0,0,1-3.984,4.088H53.322a4.251,4.251,0,0,0-4.234,4.234v5.708a4.251,4.251,0,0,0,4.234,4.234H76.758v.005l.073-.005h.005a4.073,4.073,0,0,0,.771-.062c8.416-.354,12.957-5.682,12.957-12.14V12.327l.005-.12" transform="translate(111.167 0.001)" fill="#f37d40"/>
        </g>
      </g>
      <g id="Group_15108" data-name="Group 15108" transform="translate(1996.366 1769.749)">
        <path id="Path_15195" data-name="Path 15195" d="M99.315,0,0,57.339V172.018l99.315,57.339,99.315-57.339V57.339Z" transform="translate(198.629 0) rotate(60)" fill="#fff"/>
        <g id="Group_15105" data-name="Group 15105" transform="translate(43.497 27.065)">
          <path id="Path_13" data-name="Path 13" d="M602,144.95,515.621,95.089c-6.9-3.986-18.191-3.986-25.088,0l-86.34,49.854c-6.9,3.985-12.544,13.754-12.544,21.725v99.726c0,7.973,5.645,17.744,12.544,21.725l86.34,49.863c6.9,3.983,18.185,3.983,25.088,0L602,288.114c6.9-3.975,12.546-13.747,12.546-21.72V166.668C614.542,158.7,608.895,148.928,602,144.95ZM576.488,268.782h-22.44a15.285,15.285,0,0,1-12.195-7.291L505.934,194.6c-2.156-4.007-5.707-4.024-7.9-.032l-8.027,14.66c-2.189,3.986-.257,7.257,4.3,7.257h5.074c4.547,0,7.005,1.054,9.159,5.06l8.744,16.4c2.158,4.008.192,7.291-4.354,7.291h-34.35a15.162,15.162,0,0,0-12.156,7.314l-4.738,8.911a15.148,15.148,0,0,1-12.155,7.315h-19.3c-4.558,0-6.443-3.24-4.2-7.2L484.018,159.1a15.73,15.73,0,0,1,12.349-7.2h13.076a15.857,15.857,0,0,1,12.4,7.178l58.8,102.525C582.907,265.547,581.035,268.782,576.488,268.782Z" transform="translate(-391.649 -92.1)" fill="#f37d40"/>
          <g id="Group_8" data-name="Group 8" transform="translate(214.386 198.497)">
            <path id="Path_14" data-name="Path 14" d="M822.185,488.016A3.184,3.184,0,1,1,819,484.832,3.141,3.141,0,0,1,822.185,488.016Zm-5.872,0A2.688,2.688,0,1,0,819,485.285,2.665,2.665,0,0,0,816.313,488.016Zm1.986,1.84h-.453v-3.68h1.413c.829,0,1.2.36,1.2,1.019a.99.99,0,0,1-.924,1.027l1.1,1.635H820.1l-1.036-1.635H818.3Zm.6-2.02c.557,0,1.1-.017,1.1-.642,0-.514-.428-.634-.873-.634H818.3v1.276Z" transform="translate(-815.817 -484.832)" fill="#f37d40"/>
          </g>
        </g>
      </g>
    </g>
  </g>
</svg>