<?xml version="1.0" encoding="utf-8"?>
<svg viewBox="0 0 479 446" xmlns="http://www.w3.org/2000/svg">
  <defs>
    <clipPath id="clip-GTX">
      <rect width="261" height="446"/>
    </clipPath>
    <clipPath id="clip-path">
      <rect id="Rectangle_64" data-name="Rectangle 64" width="260.018" height="96.331" fill="#90999d"/>
    </clipPath>
  </defs>
  <g id="GTX" clip-path="url(#clip-GTX)" transform="matrix(0.997225, 0, 0, 0.997225, 111, 0.005552)">
    <g id="Group_15328" data-name="Group 15328" transform="translate(-420.658 -91.469)">
      <g id="Group_86" data-name="Group 86" transform="translate(420.658 93.469)">
        <g id="Group_85" data-name="Group 85" transform="translate(0 0)">
          <path id="Path_90" data-name="Path 90" d="M10.126,10.677V17.09H48.783V61.423h6.412V10.677Z" transform="translate(33.103 34.906)" fill="#90999d"/>
          <g id="Group_84" data-name="Group 84" transform="translate(0 0)">
            <g id="Group_83" data-name="Group 83" clip-path="url(#clip-path)">
              <path id="Path_91" data-name="Path 91" d="M44.8,89.112A41.258,41.258,0,1,1,80.1,22.191l1.844,2.634,5.213-4.167-2.109-2.374A47.648,47.648,0,0,0,0,48.049,47.949,47.949,0,0,0,44.6,95.657l1.58.107,19.582.034V89.206H46.179Z" transform="translate(0 0.534)" fill="#90999d"/>
              <path id="Path_92" data-name="Path 92" d="M21.783.292V6.7H56.7V94.958h6.412V6.7H97.883V.292Z" transform="translate(71.209 0.956)" fill="#90999d"/>
              <path id="Path_93" data-name="Path 93" d="M73.142,30.1H65.15L42.417,0h7.992Zm48.211,64.01h-7.988l-31.544-41.7-31.412,41.7H42.421L78.563,46.165l2.053-2.877L113.365,0h7.988L85.881,47.053Z" transform="translate(138.665 0.001)" fill="#90999d"/>
            </g>
          </g>
        </g>
      </g>
      <path id="Path_15196" data-name="Path 15196" d="M113.964,0,0,65.8V197.391l113.964,65.8,113.964-65.8V65.8Z" transform="translate(435.725 272.505)" fill="#fff"/>
      <g id="Group_21" data-name="Group 21" transform="translate(435.725 268.989)">
        <path id="Path_26" data-name="Path 26" d="M94.858,72.077,33.645,153.341l58.183,33.6,62.589-36.132Z" transform="translate(23.639 79.767)" fill="#90999d"/>
        <path id="Path_27" data-name="Path 27" d="M116.343,134.034l5.594-7.828,66.45-87.84L121.92,0,58.478,36.631,111.7,107.125H91.624l-47.13-62.42L6.454,66.67V200.027l41.9,24.2Z" transform="translate(-6.454)" fill="#90999d"/>
        <path id="Path_28" data-name="Path 28" d="M136.218,22.442l-68.67,91.1,63.386,84.091,38.877-22.443V41.833Z" transform="translate(61.158 24.837)" fill="#90999d"/>
      </g>
    </g>
  </g>
</svg>