<?xml version="1.0" encoding="utf-8"?>
<svg viewBox="0 0 479 407" xmlns="http://www.w3.org/2000/svg">
  <defs>
    <clipPath id="clip-UltraFit">
      <rect width="479" height="407"/>
    </clipPath>
    <clipPath id="clip-path">
      <rect id="Rectangle_62" data-name="Rectangle 62" width="478.36" height="59.967" fill="#303032"/>
    </clipPath>
    <clipPath id="clip-path-2">
      <rect id="Rectangle_1785" data-name="Rectangle 1785" width="224.028" height="258.689" fill="#43b0a2"/>
    </clipPath>
  </defs>
  <g id="UltraFit" clip-path="url(#clip-UltraFit)">
    <g id="Group_15330" data-name="Group 15330" transform="translate(-668.31 -1789.513)">
      <g id="Group_78" data-name="Group 78" transform="translate(668.31 2137.573)">
        <g id="Group_77" data-name="Group 77" transform="translate(0 0)">
          <g id="Group_76" data-name="Group 76" transform="translate(0 0)" clip-path="url(#clip-path)">
            <path id="Path_75" data-name="Path 75" d="M75.183,0H42.273L40.5,8.359,56.147,20.51l1.97-9.285h11.9c6.908,0,9.491,2.3,8.205,8.347-1.41,6.618-5.114,8.252-12.6,8.252H54.59l.012-.047H36.368L29.732,59.006H47.96l4.407-20.723h6.713c4.029,0,5.185,1.345,6.406,5.085l4.347,15.638H88.638L84.132,43.657c-1.08-3.935-2.572-5.952-4.725-7.1,8.105-2.5,14.446-7.48,16.529-17.266C98.625,6.624,93.027,0,75.183,0" transform="translate(145.654 -0.001)" fill="#303032"/>
            <path id="Path_76" data-name="Path 76" d="M40.28,33C37.9,44.229,35.207,47.4,26.86,47.4S17.21,44.041,19.557,33L26.571,0H8.344L.923,34.921C-2.87,52.765,5.1,59.967,23.71,59.967c19.378,0,30.6-7.2,34.391-25.046L65.528,0H47.294Z" transform="translate(0.003 -0.001)" fill="#303032"/>
            <path id="Path_77" data-name="Path 77" d="M23.959,0,11.418,59.006H56.893l2.731-12.859H32.377L42.187,0Z" transform="translate(55.936 0)" fill="#303032"/>
            <path id="Path_78" data-name="Path 78" d="M23.3,0,20.566,12.86H38.41L28.6,59.006H46.828L56.644,12.86H74.488L77.219,0Z" transform="translate(100.75 0)" fill="#303032"/>
            <path id="Path_79" data-name="Path 79" d="M75.887,0l-34.8,59.006H58.738l6.288-11.514H86.611L88,59.006h19.284L97.954,0ZM71.309,35.983l6.4-11.609c2.607-4.607,5.474-10.848,5.474-10.848s.206,6.241.761,10.848l1.374,11.609Z" transform="translate(201.262 -0.001)" fill="#303032"/>
            <path id="Path_80" data-name="Path 80" d="M74.22,0,71.489,12.86H89.333l-9.81,46.146H97.756l9.81-46.146H125.41L128.142,0Z" transform="translate(350.216 0)" fill="#43b0a2"/>
            <path id="Path_81" data-name="Path 81" d="M77.556,0,65.015,59.006H83.337L95.878,0Z" transform="translate(318.501 0)" fill="#43b0a2"/>
            <path id="Path_82" data-name="Path 82" d="M58.192,0,56.569,7.639,72.3,19.85l1.51-7.09h30.8L107.312,0Z" transform="translate(277.129 0)" fill="#43b0a2"/>
            <path id="Path_83" data-name="Path 83" d="M88.419,4.294l.012.006H61.874l-7.155,33.67H73.04l4.837-22.74h27.341l2.33-10.936Z" transform="translate(268.06 21.036)" fill="#43b0a2"/>
          </g>
        </g>
      </g>
      <g id="Group_15107" data-name="Group 15107" transform="translate(793.405 1788.512)">
        <path id="Path_15197" data-name="Path 15197" d="M112.013,0,0,64.671V194.012l112.013,64.671,112.013-64.671V64.671Z" transform="translate(0 0.128)" fill="#fff"/>
        <g id="Group_15106" data-name="Group 15106" transform="translate(0 0)">
          <g id="Group_14835" data-name="Group 14835" transform="translate(0 0)" clip-path="url(#clip-path-2)">
            <path id="Path_14711" data-name="Path 14711" d="M112,0,0,64.667V194.015l17.659,10.2-.91-10.005h9.178L71.27,144.251l2.337-6.5A12.412,12.412,0,0,1,78.92,131.3l11.62-5.747,22.579-27.791-12.1-15.384L74.875,70.031l-5.411-.982a8.015,8.015,0,0,1-2.976-1.2L58.32,62.417a8.323,8.323,0,0,1,6.823-4.688l3.312-.275L76.3,64.342l26.733,10.612,28.391,17.631,9.175-11.6a7.588,7.588,0,0,1,11.819-.1l5.83,7.112L148.1,100.582l-3.955-1.434-9.5,4.667,11.4-.675,10.388,4.974,13.177-15.98,2.622-11.945a11.3,11.3,0,0,1,1.64-4.183l.535-.827,8.575,8.04L175.575,94.4l-13.654,24.237-21.542-4.88-25.964,17.732-10.341.726,29.958,16.558a5.531,5.531,0,0,1,1.5,8.459L107.56,189.529l8.163,6.169a5.226,5.226,0,0,1,.48,7.929L91.927,192.281l26.982-35.008L79.455,147.43l7.1,8.131L30.244,202.11l-2.821,7.741L112,258.689l112.032-64.67V64.667Z" transform="translate(0 -0.001)" fill="#43b0a2"/>
            <path id="Path_14712" data-name="Path 14712" d="M61.87,58.24a.89.89,0,0,0-1.011-.834c-.459,0-.914.166-.914.7,0,.5.65.578,1.308.726s1.3.379,1.3,1.178c0,.871-.852,1.217-1.6,1.217-.914,0-1.687-.444-1.687-1.441h.516c0,.686.571.986,1.188.986.491,0,1.037-.155,1.037-.744,0-.56-.654-.657-1.3-.8S59.4,58.89,59.4,58.143c0-.831.737-1.2,1.481-1.2a1.318,1.318,0,0,1,1.506,1.293Z" transform="translate(154.825 148.748)" fill="#43b0a2"/>
            <path id="Path_14713" data-name="Path 14713" d="M60.341,56.974h.744l1.286,3.431,1.293-3.431h.744v4.082h-.517v-3.4H63.88l-1.275,3.4h-.462l-1.275-3.4h-.011v3.4h-.516Z" transform="translate(157.614 148.818)" fill="#43b0a2"/>
          </g>
        </g>
      </g>
    </g>
  </g>
</svg>