<svg xmlns="http://www.w3.org/2000/svg" width="16" height="16" fill="currentColor" class="lti lti-8-circle" viewBox="0 0 16 16">
  <path d="M5.71 9.39c0-.83.49-1.33 1.14-1.57V7.8c-.49-.21-.89-.63-.89-1.35 0-.97.79-1.7 2.02-1.7s2.01.73 2.01 1.7c0 .72-.41 1.14-.9 1.35v.02c.67.23 1.15.73 1.15 1.55 0 1.04-.76 1.86-2.26 1.86s-2.27-.81-2.27-1.85Zm3.56-.06c0-.62-.48-1.1-1.3-1.1s-1.31.48-1.31 1.1.46 1.11 1.31 1.11 1.3-.48 1.3-1.11M9.05 6.5c0-.55-.4-.94-1.07-.94s-1.08.39-1.08.94c0 .58.43.95 1.08.95s1.07-.36 1.07-.95M8 16c-4.41 0-8-3.59-8-8s3.59-8 8-8 8 3.59 8 8-3.59 8-8 8M8 1C4.14 1 1 4.14 1 8s3.14 7 7 7 7-3.14 7-7-3.14-7-7-7"/>
</svg>