<svg xmlns="http://www.w3.org/2000/svg" width="16" height="16" fill="currentColor" class="lti lti-8-circle-fill" viewBox="0 0 16 16">
  <path d="M7.98 8.23c-.83 0-1.31.48-1.31 1.1s.46 1.11 1.31 1.11 1.3-.48 1.3-1.11-.48-1.1-1.3-1.1m0-.79c.64 0 1.07-.36 1.07-.95 0-.55-.4-.94-1.07-.94s-1.08.39-1.08.94c0 .58.43.95 1.08.95M8 0C3.59 0 0 3.59 0 8s3.59 8 8 8 8-3.59 8-8-3.59-8-8-8m-.02 11.24c-1.51 0-2.27-.81-2.27-1.85 0-.83.49-1.33 1.14-1.57V7.8c-.49-.21-.89-.63-.89-1.35 0-.97.79-1.7 2.02-1.7s2.01.73 2.01 1.7c0 .72-.41 1.14-.9 1.35v.02c.67.23 1.15.73 1.15 1.55 0 1.04-.76 1.86-2.26 1.86Z"/>
</svg>