<svg xmlns="http://www.w3.org/2000/svg" width="16" height="16" fill="currentColor" class="lti lti-airplane-circle-fill" viewBox="0 0 16 16">
  <path d="M8 0C3.59 0 0 3.59 0 8s3.59 8 8 8 8-3.59 8-8-3.59-8-8-8m3.41 8.86H9.84c-.19 0-.25.03-.37.16l-2.6 2.83c-.09.1-.21.15-.34.15h-.45c-.15 0-.24-.14-.18-.29l1.3-2.87-1.82-.2-.68 1.24c-.07.11-.17.17-.33.17H4.2c-.14 0-.23-.09-.23-.23V6.2c0-.14.1-.23.23-.23h.17c.16 0 .26.06.33.17l.68 1.24 1.82-.21L5.9 4.3c-.07-.15.02-.29.18-.29h.45c.13 0 .25.05.34.16L9.47 7c.12.13.18.15.37.15h1.57c.8 0 1.44.37 1.44.86s-.64.85-1.44.85"/>
</svg>