<svg xmlns="http://www.w3.org/2000/svg" width="16" height="16" fill="currentColor" class="lti lti-airplane-circle" viewBox="0 0 16 16">
  <path d="M8 16c-4.41 0-8-3.59-8-8s3.59-8 8-8 8 3.59 8 8-3.59 8-8 8M8 1C4.14 1 1 4.14 1 8s3.14 7 7 7 7-3.14 7-7-3.14-7-7-7m4.85 7c0-.49-.64-.86-1.44-.86H9.84c-.19 0-.25-.02-.37-.15l-2.6-2.83A.43.43 0 0 0 6.53 4h-.45c-.15 0-.24.14-.18.29l1.3 2.87-1.82.21-.68-1.24c-.07-.12-.17-.17-.33-.17H4.2c-.14 0-.23.09-.23.23v3.62c0 .14.1.23.23.23h.17c.16 0 .26-.06.33-.17l.68-1.24 1.82.2-1.3 2.87c-.07.15.02.29.18.29h.45c.13 0 .25-.05.34-.15l2.6-2.83c.12-.13.18-.16.37-.16h1.57c.8 0 1.44-.37 1.44-.85"/>
</svg>