<svg xmlns="http://www.w3.org/2000/svg" width="16" height="16" fill="currentColor" class="lti lti-award" viewBox="0 0 16 16">
  <path d="m6.8 8.17 1.21-.92 1.2.92c.26.19.52 0 .42-.31l-.49-1.49 1.22-.91c.23-.16.16-.51-.16-.51H8.7l-.46-1.48c-.09-.3-.42-.3-.51 0l-.46 1.5h-1.5c-.31-.01-.39.32-.15.5l1.22.91-.48 1.49c-.1.3.16.5.42.31Zm8.1 4.87-2.26-3.91c.69-.95 1.11-2.12 1.11-3.38C13.75 2.58 11.17 0 8 0S2.25 2.58 2.25 5.75c0 1.26.42 2.43 1.11 3.38L1.1 13.04a.5.5 0 0 0 .55.74l2.49-.59.73 2.45c.06.19.22.33.42.35h.06c.18 0 .34-.09.43-.25L8 11.9l2.22 3.84c.09.16.26.25.43.25h.06c.2-.02.36-.16.42-.35l.73-2.45 2.49.59a.503.503 0 0 0 .55-.74M8 1c2.62 0 4.75 2.13 4.75 4.75S10.62 10.5 8 10.5 3.25 8.37 3.25 5.75 5.38 1 8 1M5.5 14.25l-.54-1.79c-.08-.25-.34-.41-.59-.34l-1.82.43 1.51-2.62c.83.78 1.89 1.32 3.07 1.5zm6.13-2.14a.493.493 0 0 0-.59.34l-.54 1.79-1.63-2.82c1.18-.18 2.24-.72 3.07-1.5l1.51 2.62z"/>
</svg>