<svg xmlns="http://www.w3.org/2000/svg" width="16" height="16" fill="currentColor" class="lti lti-award-fill" viewBox="0 0 16 16">
  <path d="m7.67 12.48-1.89 3.27c-.09.16-.26.25-.43.25h-.06a.49.49 0 0 1-.42-.35l-.73-2.45-2.49.59c-.19.04-.4-.03-.52-.19a.5.5 0 0 1-.03-.55l1.72-2.98a6.74 6.74 0 0 0 4.85 2.42Zm7.23.56-1.72-2.98a6.73 6.73 0 0 1-4.85 2.41l1.89 3.27c.09.16.26.25.43.25h.06c.2-.02.36-.16.42-.35l.73-2.45 2.49.59a.503.503 0 0 0 .55-.74m-1.15-7.29c0 .29-.03.57-.07.84 0 .05-.01.1-.02.15-.05.27-.11.54-.2.8 0 .01 0 .02-.01.04-.19.56-.46 1.08-.8 1.55-1.05 1.43-2.73 2.37-4.64 2.37s-3.59-.94-4.64-2.37c-.34-.47-.61-.99-.8-1.55 0-.01 0-.02-.01-.03-.09-.26-.15-.53-.2-.8 0-.05-.02-.1-.02-.15-.04-.28-.07-.55-.07-.84 0-.4.04-.78.12-1.16A5.71 5.71 0 0 1 6.84.12a5.75 5.75 0 0 1 6.91 5.63m-3.54-.79h-1.5l-.46-1.48c-.09-.3-.42-.3-.51 0l-.46 1.5h-1.5c-.31-.01-.39.32-.15.5l1.22.91-.48 1.49c-.1.3.16.5.42.31L8 7.27l1.2.92c.26.19.52 0 .42-.31l-.49-1.49 1.22-.91c.23-.16.16-.51-.16-.51Z"/>
</svg>