<svg xmlns="http://www.w3.org/2000/svg" width="16" height="16" fill="currentColor" class="lti lti-backward-15" viewBox="0 0 16 16">
  <path d="M6.08 11.64c.33 0 .52-.22.52-.53V6.58c0-.35-.23-.56-.59-.56-.3 0-.51.13-.74.3l-.84.6c-.15.1-.24.22-.24.39 0 .21.16.37.36.37.11 0 .19-.03.27-.09l.73-.53h.01v4.05c0 .31.19.53.51.53Zm3.64.04c1.16 0 1.87-.82 1.87-1.94 0-.96-.56-1.78-1.54-1.78-.49 0-.9.22-1.1.59h-.03l.13-1.63h1.88c.24 0 .41-.16.41-.4s-.16-.4-.41-.4H8.78c-.39 0-.56.19-.59.57l-.16 2.08c-.02.32.15.56.47.56.24 0 .34-.09.49-.27a.91.91 0 0 1 .73-.37c.59 0 .87.51.87 1.08 0 .61-.32 1.12-.88 1.12-.44 0-.74-.28-.89-.65-.1-.2-.24-.31-.44-.31-.26 0-.42.16-.42.42 0 .09.01.17.04.25.19.69 1 1.09 1.72 1.09ZM3.76 2.87c.22-.16.54-.11.7.11s.11.54-.11.7a6.26 6.26 0 0 0-2.6 5.07C1.75 12.2 4.55 15 8 15s6.25-2.8 6.25-6.25c0-2.96-2.07-5.45-4.85-6.09v.93c0 .37-.26.52-.58.32L6.31 2.36c-.32-.2-.32-.52 0-.72L8.82.1c.32-.2.58-.05.58.32v1.22c3.33.66 5.85 3.59 5.85 7.11C15.25 12.75 12 16 8 16S.75 12.75.75 8.75c0-2.32 1.13-4.52 3.01-5.88"/>
</svg>