<svg xmlns="http://www.w3.org/2000/svg" width="16" height="16" fill="currentColor" class="lti lti-bag" viewBox="0 0 16 16">
  <path d="M14.59 5.45C14.52 4.65 13.8 4 13 4h-1.75v-.75C11.25 1.46 9.79 0 8 0S4.75 1.46 4.75 3.25V4H3c-.8 0-1.52.65-1.59 1.45l-.64 7.02c-.08.94.21 1.82.82 2.49S3.06 16 4 16h8c.94 0 1.8-.37 2.41-1.04s.9-1.56.82-2.49zm-8.84-2.2C5.75 2.01 6.76 1 8 1s2.25 1.01 2.25 2.25V4h-4.5zm7.92 11.04c-.42.46-1.01.71-1.67.71H4c-.66 0-1.25-.25-1.67-.71s-.62-1.07-.56-1.73l.64-7.02c.03-.29.3-.54.59-.54h1.75v2.25h1V5h4.5v2.25h1V5H13c.29 0 .57.25.59.54l.64 7.02c.06.65-.14 1.27-.56 1.73"/>
</svg>