<svg xmlns="http://www.w3.org/2000/svg" width="16" height="16" fill="currentColor" class="lti lti-barbell" viewBox="0 0 16 16">
  <path d="m15.15.15-2.02 2.02L11.54.58a1.25 1.25 0 0 0-1.77 0l-.71.71a1.25 1.25 0 0 0 0 1.77l1.59 1.59-6.01 6.01-1.59-1.59a1.25 1.25 0 0 0-1.77 0l-.71.71a1.25 1.25 0 0 0 0 1.77l1.59 1.59-2.01 2.01c-.2.2-.2.51 0 .71a.485.485 0 0 0 .7 0l2.02-2.02 1.59 1.59c.49.49 1.28.49 1.77 0l.71-.71c.49-.49.49-1.28 0-1.77l-1.59-1.59 6.01-6.01 1.59 1.59c.49.49 1.28.49 1.77 0l.71-.71c.49-.49.49-1.28 0-1.77l-1.59-1.59L15.86.85c.2-.2.2-.51 0-.71s-.51-.2-.71 0Zm-9.8 14.74-4.24-4.24 1.06-1.06 4.24 4.24zm8.48-8.48L9.59 2.17l1.06-1.06 4.24 4.24z"/>
</svg>