<svg xmlns="http://www.w3.org/2000/svg" width="16" height="16" fill="currentColor" class="lti lti-basketball-hoop" viewBox="0 0 16 16">
  <path d="M15.5 0H.5C.22 0 0 .22 0 .5v11c0 .28.22.5.5.5h4.55c.12.85.15 1.77.07 2.84a.505.505 0 0 0 .55.54l1.11-.11.93.65c.09.06.18.09.28.09s.2-.03.28-.09l.93-.65 1.11.11c.16.02.29-.04.4-.14s.16-.25.15-.4c-.08-1.07-.04-2 .07-2.84h4.55c.28 0 .5-.22.5-.5V.5c0-.28-.22-.5-.5-.5ZM8 7.66c1.52 0 2.52.27 2.89.47-.37.2-1.37.47-2.89.47s-2.52-.27-2.89-.47c.37-.2 1.37-.47 2.89-.47m-2-.83V4.75h4v2.08c-.9-.16-1.81-.17-2-.17s-1.1.01-2 .17m3.84 7.49-.71-.07a.47.47 0 0 0-.33.09l-.8.55-.8-.55c-.1-.07-.22-.1-.33-.09l-.71.07c.08-2.02-.25-3.59-.71-5.02 1.05.28 2.32.29 2.55.29s1.51-.01 2.55-.29c-.46 1.44-.79 3-.71 5.02M15 11h-3.87c.19-.87.46-1.68.76-2.5.06-.12.11-.24.11-.38 0-.49-.43-.81-1-1.03V4.25c0-.28-.22-.5-.5-.5h-5c-.28 0-.5.22-.5.5v2.84c-.57.22-1 .54-1 1.03 0 .14.04.26.11.38.3.82.57 1.62.76 2.5H1V1h14zm-7.31-.46c0 .28-.22.5-.5.5s-.5-.22-.5-.5.22-.5.5-.5.5.22.5.5m0 2.69c0 .28-.22.5-.5.5s-.5-.22-.5-.5.22-.5.5-.5.5.22.5.5m1.62-2.69c0 .28-.22.5-.5.5s-.5-.22-.5-.5.22-.5.5-.5.5.22.5.5m0 2.69c0 .28-.22.5-.5.5s-.5-.22-.5-.5.22-.5.5-.5.5.22.5.5m-.81-1.3c0 .28-.22.5-.5.5s-.5-.22-.5-.5.22-.5.5-.5.5.22.5.5"/>
</svg>