<svg xmlns="http://www.w3.org/2000/svg" width="16" height="16" fill="currentColor" class="lti lti-bicycle-framed" viewBox="0 0 16 16">
  <path d="M3.75 12.5a2.5 2.5 0 0 1 0-5 2.5 2.5 0 0 1 0 5m0-4c-.83 0-1.5.67-1.5 1.5s.67 1.5 1.5 1.5 1.5-.67 1.5-1.5-.67-1.5-1.5-1.5m8-1h-.04l-1.57-3h2.61c.28 0 .5.22.5.5s-.22.5-.5.5h-.6c-.28 0-.5.22-.5.5s.22.5.5.5h.6c.83 0 1.5-.67 1.5-1.5s-.67-1.5-1.5-1.5H9.31a.504.504 0 0 0-.45.73l.45.87H5.64l-.31-.6h.57c.28 0 .5-.22.5-.5s-.22-.5-.5-.5H3.1c-.28 0-.5.22-.5.5s.22.5.5.5h1.1l.7 1.33 2.4 4.6c.09.17.26.27.44.27s.36-.1.44-.27l1.96-3.75.55 1.06C9.84 8.14 9.24 9 9.24 10a2.5 2.5 0 0 0 5 0 2.5 2.5 0 0 0-2.5-2.5Zm-4 1.62L6.17 6.1h3.15L7.74 9.12Zm4 2.38c-.83 0-1.5-.67-1.5-1.5s.67-1.5 1.5-1.5 1.5.67 1.5 1.5-.67 1.5-1.5 1.5M1 6.5v-4h14v2c0 .28.22.5.5.5s.5-.22.5-.5V2c0-.28-.22-.5-.5-.5H.5c-.28 0-.5.22-.5.5v4.5c0 .28.22.5.5.5s.5-.22.5-.5M11.75 14c0-.28-.22-.5-.5-.5h-6.5c-.28 0-.5.22-.5.5s.22.5.5.5h6.5c.28 0 .5-.22.5-.5"/>
</svg>