<svg xmlns="http://www.w3.org/2000/svg" width="16" height="16" fill="currentColor" class="lti lti-bicycle" viewBox="0 0 16 16">
  <path d="M3 13.5c-1.65 0-3-1.35-3-3s1.35-3 3-3 3 1.35 3 3-1.35 3-3 3m0-5c-1.1 0-2 .9-2 2s.9 2 2 2 2-.9 2-2-.9-2-2-2m10-1s-.08.01-.12.01L10.79 3.5h3.47c.41 0 .75.34.75.75s-.34.75-.75.75h-.75c-.28 0-.5.22-.5.5s.22.5.5.5h.75c.96 0 1.75-.79 1.75-1.75s-.79-1.75-1.75-1.75H9.97a.504.504 0 0 0-.45.73l.66 1.27H5.31l-.52-1h.92c.28 0 .5-.22.5-.5s-.22-.5-.5-.5h-3.5c-.28 0-.5.22-.5.5s.22.5.5.5h1.45l.9 1.73 3 5.75c.09.17.26.27.44.27s.36-.1.44-.27L11 6.08l.86 1.65A3 3 0 0 0 10 10.5c0 1.65 1.35 3 3 3s3-1.35 3-3-1.35-3-3-3M8 9.67 5.82 5.5h4.35zm5 2.83c-1.1 0-2-.9-2-2s.9-2 2-2 2 .9 2 2-.9 2-2 2"/>
</svg>