<svg xmlns="http://www.w3.org/2000/svg" width="16" height="16" fill="currentColor" class="lti lti-bicycle-mountain" viewBox="0 0 16 16">
  <path d="M3 10c-1.65 0-3 1.35-3 3s1.35 3 3 3 3-1.35 3-3-1.35-3-3-3m0 5c-1.1 0-2-.9-2-2s.9-2 2-2 2 .9 2 2-.9 2-2 2m10-5s-.08.01-.12.01l-2.19-4.19 2.19-.58c.27-.07.43-.34.35-.61a.485.485 0 0 0-.61-.35l-2.79.75a.498.498 0 0 0-.32.71l.66 1.27H5.3l-.52-1h.92c.28 0 .5-.22.5-.5s-.22-.5-.5-.5H2.2c-.28 0-.5.22-.5.5s.22.5.5.5h1.45l.9 1.73 3 5.75c.09.17.26.27.44.27s.36-.1.44-.27l2.56-4.9.86 1.65a3 3 0 0 0-1.86 2.77c0 1.65 1.35 3 3 3s3-1.35 3-3-1.35-3-3-3Zm-5 2.17L5.82 8h4.35zM13 15c-1.1 0-2-.9-2-2s.9-2 2-2 2 .9 2 2-.9 2-2 2m2.94-11.76a.51.51 0 0 1-.68.2L11 1.07 6.74 3.44c-.24.14-.55.05-.68-.19a.503.503 0 0 1 .19-.68l.71-.4-1.97-1.09L.74 3.44Q.62 3.5.5 3.5a.49.49 0 0 1-.44-.26.503.503 0 0 1 .19-.68L4.76.06a.53.53 0 0 1 .49 0l2.76 1.53L10.76.06a.53.53 0 0 1 .49 0l4.5 2.5c.24.13.33.44.19.68"/>
</svg>