<svg xmlns="http://www.w3.org/2000/svg" width="16" height="16" fill="currentColor" class="lti lti-bicycle-ground" viewBox="0 0 16 16">
  <path d="M3 7c-1.65 0-3 1.35-3 3s1.35 3 3 3 3-1.35 3-3-1.35-3-3-3m0 5c-1.1 0-2-.9-2-2s.9-2 2-2 2 .9 2 2-.9 2-2 2m10-5s-.08.01-.12.01L10.79 3h2.47c.41 0 .75.34.75.75 0 .28.22.5.5.5s.5-.22.5-.5c0-.96-.79-1.75-1.75-1.75H9.97a.504.504 0 0 0-.45.73L10.18 4H5.31l-.52-1h.92c.28 0 .5-.22.5-.5s-.22-.5-.5-.5h-3.5c-.28 0-.5.22-.5.5s.22.5.5.5h1.45l.9 1.73 3 5.75c.09.17.26.27.44.27s.36-.1.44-.27L11 5.58l.86 1.65A3 3 0 0 0 10 10c0 1.65 1.35 3 3 3s3-1.35 3-3-1.35-3-3-3M8 9.17 5.82 5h4.35zM13 12c-1.1 0-2-.9-2-2s.9-2 2-2 2 .9 2 2-.9 2-2 2m2.5 3h-5c-.18 0-.34-.09-.43-.25l-.82-1.39-.82 1.39c-.09.15-.22.23-.43.25-.18 0-.34-.1-.43-.25L7 13.76l-.57.99c-.09.16-.25.25-.43.25H.5c-.28 0-.5-.22-.5-.5s.22-.5.5-.5h5.21l.86-1.5c.18-.31.69-.31.87 0l.57 1 .81-1.38c.18-.3.68-.3.86 0L10.79 14h4.71c.28 0 .5.22.5.5s-.22.5-.5.5"/>
</svg>