<svg xmlns="http://www.w3.org/2000/svg" width="16" height="16" fill="currentColor" class="lti lti-boot" viewBox="0 0 16 16">
  <path d="M15.91 10.79s0-.02-.01-.04c0-.04-.02-.07-.03-.1s-.02-.06-.04-.08c-.02-.03-.04-.05-.06-.08s-.05-.05-.07-.07c-.01 0-.02-.02-.03-.03-.55-.34-1.2-.65-1.83-.96-.51-.25-1-.48-1.34-.69-.14-.09-.27-.19-.4-.28l1.07-.42c.26-.1.38-.39.28-.65a.5.5 0 0 0-.65-.28l-1.45.58c-.21-.3-.38-.63-.5-1.02l1.38-.55c.26-.1.38-.39.28-.65a.5.5 0 0 0-.65-.28l-1.21.48c-.04-.35-.06-.72-.06-1.13l1.24-.49c.26-.1.38-.39.28-.65a.5.5 0 0 0-.65-.28l-.83.33c0-.09 0-.16.01-.25.11-1.35.07-2.23-.15-2.85V.33c-.01-.03-.03-.05-.05-.08s-.03-.06-.05-.08-.05-.04-.08-.06a.2.2 0 0 0-.08-.05l-.09-.03c-.03 0-.06-.02-.09-.02h-.19C9.18.22 8.32.37 8 .42l-.21.04c-.62.11-1.66.29-2.1 1.32-.13.31-.29.82-.4 1.21-1.14-.27-2.68-.14-3.36 1-.59.99-.71 4.17-.73 5.3C.77 9.6 0 10.34 0 11.65c0 1.17 1.04 2.27 2.43 2.55l1.92.41c.45.1.93-.03 1.29-.33l.43-.36 1.59 1.24c.37.29.82.47 1.29.52l3.05.3h.24c.82 0 1.65-.28 2.31-.79l.37-.3A3.64 3.64 0 0 0 16 12.06l-.09-1.29ZM2.78 4.51c.47-.79 1.85-.75 2.66-.42l.53.21.14-.55c.08-.31.32-1.19.49-1.57.21-.49.72-.62 1.44-.74l.12-.02c.27-.04.88-.15 1.49-.3.07.47.07 1.13 0 2.01-.02.26-.03.49-.04.74l-1.65.66c-.26.1-.38.39-.28.65.08.2.27.32.46.32.06 0 .12-.01.18-.04l1.28-.51c.01.4.04.77.1 1.12l-1.33.53c-.26.1-.38.39-.28.65.08.2.27.32.46.32.06 0 .12-.01.18-.04l1.19-.47c.12.38.28.72.47 1.03l-1.09.43c-.26.1-.38.39-.28.65.08.2.27.32.46.32.06 0 .12-.01.18-.04l1.38-.55c.27.26.57.51.92.72.39.24.89.48 1.43.74.14.07.27.13.41.2-.46.14-.89.36-1.26.68l-.28.24c-.68.58-1.24.87-2.4.59l-2.71-1.21-1.65-.89c-.65-.37-1.41-.56-2.18-.56H2.17c.03-1.63.21-4.24.59-4.88Zm11.45 9.68-.28.23c-.5.38-1.1.59-1.71.59h-.16l-3.03-.3c-.28-.03-.55-.13-.78-.31l-1.59-1.24c-.18-.14-.4-.21-.61-.21-.23 0-.46.08-.65.24l-.43.36c-.12.1-.28.14-.43.11l-1.93-.41c-.8-.16-1.63-.8-1.63-1.57 0-.59.24-1.01.47-1.27h1.88c.6 0 1.19.15 1.7.44l1.69.91 2.82 1.26.12.03c1.53.36 2.51-.17 3.26-.81l.28-.24c.4-.34.89-.55 1.42-.59l.31-.03.05.78c.05.77-.23 1.52-.77 2.04Z"/>
</svg>