<svg xmlns="http://www.w3.org/2000/svg" width="16" height="16" fill="currentColor" class="lti lti-card-fill" viewBox="0 0 16 16">
  <path d="M13 2H3C1.35 2 0 3.35 0 5v6c0 1.65 1.35 3 3 3h10c1.65 0 3-1.35 3-3V5c0-1.65-1.35-3-3-3m-7.5 9H3V8.5h2.5zm0-3.5H3V5h2.5zM7 11c-.28 0-.5-.22-.5-.5s.22-.5.5-.5.5.22.5.5-.22.5-.5.5m0-1.5c-.28 0-.5-.22-.5-.5s.22-.5.5-.5.5.22.5.5-.22.5-.5.5M8.5 11c-.28 0-.5-.22-.5-.5s.22-.5.5-.5.5.22.5.5-.22.5-.5.5m0-1.5c-.28 0-.5-.22-.5-.5s.22-.5.5-.5.5.22.5.5-.22.5-.5.5m.5-2H6.5V5H9z"/>
</svg>