<svg xmlns="http://www.w3.org/2000/svg" width="16" height="16" fill="currentColor" class="lti lti-card" viewBox="0 0 16 16">
  <path d="M13 14H3c-1.65 0-3-1.35-3-3V5c0-1.65 1.35-3 3-3h10c1.65 0 3 1.35 3 3v6c0 1.65-1.35 3-3 3M3 3c-1.1 0-2 .9-2 2v6c0 1.1.9 2 2 2h10c1.1 0 2-.9 2-2V5c0-1.1-.9-2-2-2zm2.5 2H3v2.5h2.5zM9 5H6.5v2.5H9zM3 8.5h2.5V11H3zM8 9c0-.28.22-.5.5-.5s.5.22.5.5-.22.5-.5.5S8 9.28 8 9M6.5 9c0-.28.22-.5.5-.5s.5.22.5.5-.22.5-.5.5-.5-.22-.5-.5M8 10.5c0-.28.22-.5.5-.5s.5.22.5.5-.22.5-.5.5-.5-.22-.5-.5m-1.5 0c0-.28.22-.5.5-.5s.5.22.5.5-.22.5-.5.5-.5-.22-.5-.5"/>
</svg>