<svg xmlns="http://www.w3.org/2000/svg" width="16" height="16" fill="currentColor" class="lti lti-card-text-heart" viewBox="0 0 16 16">
  <path d="M12.5 16h-9C1.57 16 0 14.43 0 12.5v-9C0 1.57 1.57 0 3.5 0h9C14.43 0 16 1.57 16 3.5v9c0 1.93-1.57 3.5-3.5 3.5m-9-15A2.5 2.5 0 0 0 1 3.5v9A2.5 2.5 0 0 0 3.5 15h9a2.5 2.5 0 0 0 2.5-2.5v-9A2.5 2.5 0 0 0 12.5 1zM13 9.5c0-.28-.22-.5-.5-.5h-9c-.28 0-.5.22-.5.5s.22.5.5.5h9c.28 0 .5-.22.5-.5M11 12c0-.28-.22-.5-.5-.5h-7c-.28 0-.5.22-.5.5s.22.5.5.5h7c.28 0 .5-.22.5-.5M4.22 3.5C3.52 3.5 3 4.04 3 4.77c0 1.09 1.2 2.05 2.04 2.62.09.06.17.1.22.1.06 0 .13-.05.2-.1.86-.52 2.03-1.53 2.03-2.62 0-.74-.52-1.27-1.24-1.27-.44 0-.8.26-1.01.65-.21-.39-.56-.65-1.03-.65Z"/>
</svg>