<svg xmlns="http://www.w3.org/2000/svg" width="16" height="16" fill="currentColor" class="lti lti-card-text" viewBox="0 0 16 16">
  <path d="M12.5 16h-9C1.57 16 0 14.43 0 12.5v-9C0 1.57 1.57 0 3.5 0h9C14.43 0 16 1.57 16 3.5v9c0 1.93-1.57 3.5-3.5 3.5m-9-15A2.5 2.5 0 0 0 1 3.5v9A2.5 2.5 0 0 0 3.5 15h9a2.5 2.5 0 0 0 2.5-2.5v-9A2.5 2.5 0 0 0 12.5 1zM13 7c0-.28-.22-.5-.5-.5h-9c-.28 0-.5.22-.5.5s.22.5.5.5h9c.28 0 .5-.22.5-.5m-3 2.5c0-.28-.22-.5-.5-.5h-6c-.28 0-.5.22-.5.5s.22.5.5.5h6c.28 0 .5-.22.5-.5m3-5c0-.28-.22-.5-.5-.5h-9c-.28 0-.5.22-.5.5s.22.5.5.5h9c.28 0 .5-.22.5-.5"/>
</svg>