<svg xmlns="http://www.w3.org/2000/svg" width="16" height="16" fill="currentColor" class="lti lti-card-text-edit" viewBox="0 0 16 16">
  <path d="M6.5 7.5h-3c-.28 0-.5-.22-.5-.5s.22-.5.5-.5h3c.28 0 .5.22.5.5s-.22.5-.5.5m5.5 2c0-.28-.22-.5-.5-.5h-8c-.28 0-.5.22-.5.5s.22.5.5.5h8c.28 0 .5-.22.5-.5m-5-5c0-.28-.22-.5-.5-.5h-3c-.28 0-.5.22-.5.5s.22.5.5.5h3c.28 0 .5-.22.5-.5M9 12c0-.28-.22-.5-.5-.5h-5c-.28 0-.5.22-.5.5s.22.5.5.5h5c.28 0 .5-.22.5-.5m7 .5v-7c0-.28-.22-.5-.5-.5s-.5.22-.5.5v7a2.5 2.5 0 0 1-2.5 2.5h-9A2.5 2.5 0 0 1 1 12.5v-9A2.5 2.5 0 0 1 3.5 1h7c.28 0 .5-.22.5-.5s-.22-.5-.5-.5h-7C1.57 0 0 1.57 0 3.5v9C0 14.43 1.57 16 3.5 16h9c1.93 0 3.5-1.57 3.5-3.5M9.85 6.85l5-5c.2-.2.2-.51 0-.71s-.51-.2-.71 0l-5 5v.71z"/>
</svg>