<svg xmlns="http://www.w3.org/2000/svg" width="16" height="16" fill="currentColor" class="lti lti-card-edit" viewBox="0 0 16 16">
  <path d="M16 12.5v-7c0-.28-.22-.5-.5-.5s-.5.22-.5.5v7a2.5 2.5 0 0 1-2.5 2.5h-9A2.5 2.5 0 0 1 1 12.5v-9A2.5 2.5 0 0 1 3.5 1h7c.28 0 .5-.22.5-.5s-.22-.5-.5-.5h-7C1.57 0 0 1.57 0 3.5v9C0 14.43 1.57 16 3.5 16h9c1.93 0 3.5-1.57 3.5-3.5M14.5 1c.13 0 .26.05.36.15.2.2.2.51 0 .71l-5 5h-.71v-.71l4.99-5c.1-.1.23-.15.35-.15m.01-1c-.4 0-.78.16-1.06.44l-5 5-.29.29v2.12h2.12l.29-.29 5-5c.59-.59.59-1.54 0-2.12C15.27.15 14.9 0 14.5 0"/>
</svg>