<svg xmlns="http://www.w3.org/2000/svg" width="16" height="16" fill="currentColor" class="lti lti-chart" viewBox="0 0 16 16">
  <path d="M13.5 0h-2.33c-.83 0-1.5.67-1.5 1.5v3.43c-.16-.06-.32-.09-.5-.09H6.84c-.83 0-1.5.67-1.5 1.5v2.59c-.16-.06-.32-.09-.5-.09H2.51c-.83 0-1.5.67-1.5 1.5v2.67c0 1.65 1.35 3 3 3h8c1.65 0 3-1.35 3-3V1.5c0-.83-.67-1.5-1.5-1.5ZM5.33 15H4c-1.1 0-2-.9-2-2v-2.67c0-.28.22-.5.5-.5h2.33c.28 0 .5.22.5.5zm1-4.67v-4c0-.28.22-.5.5-.5h2.33c.28 0 .5.22.5.5V15H6.33zM12 15h-1.33V1.5c0-.28.22-.5.5-.5h2.33c.28 0 .5.22.5.5V13c0 1.1-.9 2-2 2"/>
</svg>