<svg xmlns="http://www.w3.org/2000/svg" width="16" height="16" fill="currentColor" class="lti lti-climbing-holds" viewBox="0 0 16 16">
  <path d="M8.85 8.9h.12c.66.11 1.03 1.03 1.08 1.14.43 1.08-.14 2.35-.93 2.91-.79.57-1.41.75-2.56.75-.25 0-.52 0-.81-.02-1.57-.09-3.02-.82-3.23-1.64-.27-1.06-.02-1.77.25-2.18.31-.49.8-.82 1.38-.93h.07c.19 0 .4.21.62.45.29.31.65.7 1.19.76h.19c.72 0 1.25-.41 1.7-.77.33-.25.63-.49.94-.49m-.01-.98c-.66 0-1.17.4-1.58.73-.41.32-.7.53-1.05.53h-.09c-.16-.02-.36-.23-.55-.44-.29-.32-.72-.78-1.35-.78-.08 0-.17 0-.26.02-.86.17-1.58.66-2.04 1.38-.37.58-.73 1.56-.37 2.96.36 1.42 2.35 2.28 4.14 2.38.31.02.6.02.86.02 1.38 0 2.19-.26 3.14-.94 1.11-.79 1.89-2.54 1.27-4.09-.14-.37-.7-1.57-1.84-1.76-.1-.02-.19-.02-.28-.02Zm3.09-5.27c.73 0 1.46.24 1.95.64.64.52.81 1.25.94 1.78.44 1.81-.09 3.87-.66 4.54-.11.13-.17.15-.17.15h-.03c-.68-.06-.7-.23-.8-.84-.08-.48-.19-1.15-.75-1.86-.51-.66-.94-1.01-1.29-1.3-.45-.37-.68-.56-.85-1.22-.07-.27-.22-.84.04-1.25.19-.3.58-.51 1.11-.6.16-.03.33-.04.49-.04m.02-1c-.22 0-.44.02-.65.05-.82.14-1.46.5-1.8 1.06-.5.78-.25 1.7-.16 2.05.25.96.68 1.31 1.18 1.73.32.26.69.57 1.13 1.14.41.52.48.98.55 1.42.1.65.24 1.54 1.75 1.66h.07c.25 0 .58-.1.93-.5.82-.97 1.37-3.39.87-5.43-.14-.59-.38-1.58-1.28-2.32-.68-.55-1.64-.87-2.59-.87Zm-6.77.65c.92 0 1.89.27 1.94.8.03.23 0 .27-.29.44-.33.19-.69.44-.89.98-.14.36-.07.73 0 1.02l.02.09c.13.61.07.73-.21.89-.11.06-.2.07-.25.07-.26 0-.62-.25-.92-.46-.44-.31-.95-.65-1.56-.65-.67 0-1.07.27-1.37.46-.08.05-.22.15-.28.15-.02 0-.08-.02-.17-.08-.25-.18-.3-1.14.12-1.94.65-1.25 1.77-1.77 3.86-1.77m0-1c-1.66 0-3.68.27-4.75 2.31C-.14 4.67-.2 6.21.6 6.8c.28.2.53.27.76.27.36 0 .64-.19.84-.32.23-.15.43-.29.81-.29.3 0 .64.23 1 .48.4.28.9.63 1.48.63.23 0 .48-.06.74-.2 1-.56.8-1.48.7-1.98-.04-.2-.1-.43-.06-.54.09-.23.22-.33.46-.47.33-.2.87-.54.78-1.42-.14-1.24-1.61-1.69-2.94-1.69ZM4.05 3.55c-.28 0-.5.22-.5.5s.22.5.5.5.5-.22.5-.5-.22-.5-.5-.5m8.54.57c-.28 0-.5.22-.5.5s.22.5.5.5.5-.22.5-.5-.22-.5-.5-.5m-6.06 7.24c-.28 0-.5.22-.5.5s.22.5.5.5.5-.22.5-.5-.22-.5-.5-.5"/>
</svg>