<svg xmlns="http://www.w3.org/2000/svg" width="16" height="16" fill="currentColor" class="lti lti-clipboard-data" viewBox="0 0 16 16">
  <path d="M12 1h-1.09c-.21-.58-.76-1-1.41-1h-3c-.65 0-1.2.42-1.41 1H4C2.35 1 1 2.35 1 4v9c0 1.65 1.35 3 3 3h8c1.65 0 3-1.35 3-3V4c0-1.65-1.35-3-3-3M6.5 1h3c.28 0 .5.22.5.5s-.22.5-.5.5h-3c-.28 0-.5-.22-.5-.5s.22-.5.5-.5M14 13c0 1.1-.9 2-2 2H4c-1.1 0-2-.9-2-2V4c0-1.1.9-2 2-2h1.09c.21.58.76 1 1.41 1h3c.65 0 1.2-.42 1.41-1H12c1.1 0 2 .9 2 2zm-1.75-2.5h-8.5c-.28 0-.5-.22-.5-.5s.22-.5.5-.5h8.5c.28 0 .5.22.5.5s-.22.5-.5.5m-3 2.5h-5.5c-.28 0-.5-.22-.5-.5s.22-.5.5-.5h5.5c.28 0 .5.22.5.5s-.22.5-.5.5m3.5-7.89c0 .55-.45 1-1 1-.18 0-.35-.06-.49-.15L9 7.23c0 .55-.45.99-1 .99-.47 0-.84-.33-.95-.76l-2.11-.62c-.18.17-.42.28-.68.28-.55 0-1-.45-1-1s.45-1 1-1c.47 0 .84.33.95.76l2.11.62c.18-.17.42-.28.68-.28.18 0 .35.06.49.15l2.26-1.27c0-.55.45-.99 1-.99s1 .45 1 1"/>
</svg>