<svg xmlns="http://www.w3.org/2000/svg" width="16" height="16" fill="currentColor" class="lti lti-club" viewBox="0 0 16 16">
  <path d="M14.5 5.5h-1.75V2.78c0-.21-.13-.39-.32-.47a12.4 12.4 0 0 0-8.85.01c-.19.07-.32.26-.32.47V5.5H1.51C.68 5.5.01 6.17.01 7v6c0 .83.67 1.5 1.5 1.5h13c.83 0 1.5-.67 1.5-1.5V7c0-.83-.67-1.5-1.5-1.5Zm-11.25 8H1.5c-.28 0-.5-.22-.5-.5V7c0-.28.22-.5.5-.5h1.75zm3.5 0V10a1.25 1.25 0 0 1 2.5 0v3.5zm5 0h-1.5V10c0-1.24-1.01-2.25-2.25-2.25S5.75 8.76 5.75 10v3.5h-1.5V3.14c2.44-.85 5.05-.86 7.5 0v10.37ZM15 13c0 .28-.22.5-.5.5h-1.75v-7h1.75c.28 0 .5.22.5.5z"/>
</svg>