<svg xmlns="http://www.w3.org/2000/svg" width="16" height="16" fill="currentColor" class="lti lti-copy" viewBox="0 0 16 16">
  <path d="M13.5 4H12V2.5A2.5 2.5 0 0 0 9.5 0h-7A2.5 2.5 0 0 0 0 2.5v7A2.5 2.5 0 0 0 2.5 12H4v1.5A2.5 2.5 0 0 0 6.5 16h7a2.5 2.5 0 0 0 2.5-2.5v-7A2.5 2.5 0 0 0 13.5 4M4 6.5V11H2.5C1.67 11 1 10.33 1 9.5v-7C1 1.67 1.67 1 2.5 1h7c.83 0 1.5.67 1.5 1.5V4H6.5A2.5 2.5 0 0 0 4 6.5m11 7c0 .83-.67 1.5-1.5 1.5h-7c-.83 0-1.5-.67-1.5-1.5v-7C5 5.67 5.67 5 6.5 5h7c.83 0 1.5.67 1.5 1.5z"/>
</svg>