<svg xmlns="http://www.w3.org/2000/svg" width="16" height="16" fill="currentColor" class="lti lti-currency-dollar-circle" viewBox="0 0 16 16">
  <path fill-rule="evenodd" d="M7.42 11.43v1.07h1.2v-1.04c.48-.09.89-.27 1.23-.57.37-.33.55-.8.55-1.4 0-.49-.15-.92-.46-1.3s-.75-.64-1.33-.81c-.6-.17-1.01-.33-1.24-.48-.21-.14-.31-.31-.31-.54 0-.2.08-.37.24-.5s.4-.21.74-.21c.29 0 .51.06.66.17.16.11.28.29.38.53l.04.11 1.11-.48-.04-.1c-.13-.35-.33-.65-.61-.89-.26-.23-.58-.38-.97-.46V3.49h-1.2v1.04c-.35.06-.69.23-1.01.51-.37.32-.55.76-.55 1.32 0 .46.14.86.42 1.19s.78.6 1.49.82c.32.11.58.2.79.3.2.09.34.18.41.25.15.14.23.33.23.59 0 .29-.1.48-.3.61q-.315.21-.78.21c-.37 0-.66-.1-.87-.28q-.33-.27-.51-.84l-.04-.12-1.11.45.03.1c.15.52.39.93.72 1.22.31.27.67.46 1.08.56ZM8 16c-4.41 0-8-3.59-8-8s3.59-8 8-8 8 3.59 8 8-3.59 8-8 8M8 1C4.14 1 1 4.14 1 8s3.14 7 7 7 7-3.14 7-7-3.14-7-7-7"/>
</svg>