<svg xmlns="http://www.w3.org/2000/svg" width="16" height="16" fill="currentColor" class="lti lti-currency-dollar-circle-fill" viewBox="0 0 16 16">
  <path fill-rule="evenodd" d="M8 0C3.59 0 0 3.59 0 8s3.59 8 8 8 8-3.59 8-8-3.59-8-8-8m1.85 10.89q-.51.45-1.23.57v1.04h-1.2v-1.07c-.41-.11-.77-.29-1.08-.56-.33-.29-.57-.7-.72-1.22l-.03-.1L6.7 9.1l.04.12c.12.38.29.65.51.84.21.18.5.28.87.28q.48 0 .78-.21c.19-.13.3-.32.3-.61 0-.26-.08-.45-.23-.59-.08-.07-.21-.15-.41-.25-.2-.09-.46-.19-.79-.3-.7-.22-1.21-.49-1.49-.82s-.42-.73-.42-1.19c0-.55.18-1 .55-1.32.32-.28.66-.45 1.01-.51V3.5h1.2v1.04c.38.08.71.23.97.46.28.24.48.54.61.89l.04.1-1.11.48-.04-.11c-.09-.24-.22-.42-.38-.53-.15-.11-.37-.17-.66-.17-.34 0-.58.08-.74.21-.16.14-.24.3-.24.5 0 .23.1.4.31.54.23.15.64.3 1.24.48.58.17 1.02.44 1.33.81s.46.81.46 1.3c0 .6-.18 1.07-.55 1.4Z"/>
</svg>