<svg xmlns="http://www.w3.org/2000/svg" width="16" height="16" fill="currentColor" class="lti lti-dumbbell" viewBox="0 0 16 16">
  <path d="m11.18.58-.71.71-.71-.71C9.18 0 8.22 0 7.64.58l-.71.71c-.58.58-.58 1.54 0 2.12l1.41 1.41L4.8 8.36 3.39 6.95c-.58-.58-1.54-.58-2.12 0l-.71.71c-.58.58-.58 1.54 0 2.12l.71.71-.71.71c-.58.58-.58 1.54 0 2.12l2.12 2.12c.58.58 1.54.58 2.12 0l.71-.71.71.71c.58.58 1.54.58 2.12 0l.71-.71c.58-.58.58-1.54 0-2.12L7.64 11.2l3.54-3.54 1.41 1.41c.58.58 1.54.58 2.12 0l.71-.71c.58-.58.58-1.54 0-2.12l-.71-.71.71-.71c.58-.58.58-1.54 0-2.12L13.3.58c-.58-.58-1.54-.58-2.12 0M4.82 14.01l-.71.71c-.2.2-.51.19-.71 0L1.28 12.6a.513.513 0 0 1 0-.71l.71-.71zm-.71-4.95 2.83 2.83 1.41 1.41c.19.19.2.51 0 .71l-.71.71c-.2.2-.51.19-.71 0L1.28 9.06a.513.513 0 0 1 0-.71l.71-.71c.2-.2.51-.19.71 0l1.41 1.41Zm2.83 1.41L5.53 9.06l3.54-3.54 1.41 1.41zm7.78-3.53c.19.19.19.51 0 .71l-.71.71c-.19.19-.51.19-.71 0l-1.41-1.41-2.83-2.83-1.41-1.41a.513.513 0 0 1 0-.71l.71-.71c.19-.19.51-.19.71 0l5.66 5.66h-.01Zm0-3.54c.19.19.19.51 0 .71l-.71.71-2.83-2.83.71-.71c.19-.19.51-.19.71 0z"/>
</svg>