<svg xmlns="http://www.w3.org/2000/svg" width="16" height="16" fill="currentColor" class="lti lti-ebike" viewBox="0 0 16 16">
  <path d="M3 10c-1.65 0-3 1.35-3 3s1.35 3 3 3 3-1.35 3-3-1.35-3-3-3m0 5c-1.1 0-2-.9-2-2s.9-2 2-2 2 .9 2 2-.9 2-2 2m10-5s-.08.01-.12.01L10.79 6h1.72c.28 0 .5-.22.5-.5s-.22-.5-.5-.5H9.97c-.28 0-.5.23-.5.5 0 .08.02.16.05.23L10.18 7H5.31l-.52-1h.92c.28 0 .5-.22.5-.5s-.22-.5-.5-.5h-3.5c-.28 0-.5.22-.5.5s.22.5.5.5h1.45l.9 1.73 3 5.75c.09.17.26.27.44.27s.36-.1.44-.27L11 8.58l.86 1.65A3.01 3.01 0 0 0 10 13c0 1.65 1.35 3 3 3s3-1.35 3-3-1.35-3-3-3m-5 2.17L5.82 8h4.35zM13 15c-1.1 0-2-.9-2-2s.9-2 2-2 2 .9 2 2-.9 2-2 2M8 5c-.28 0-.5-.22-.5-.49a.5.5 0 0 1 .1-.31L8.5 3h-2c-.19 0-.36-.11-.45-.28a.49.49 0 0 1 .05-.52l1.5-2c.17-.22.48-.27.7-.1s.27.48.1.7L7.5 2h2c.19 0 .36.11.45.28s.07.37-.05.52l-1.5 2c-.1.13-.25.2-.4.2"/>
</svg>