<svg xmlns="http://www.w3.org/2000/svg" width="16" height="16" fill="currentColor" class="lti lti-elliptical" viewBox="0 0 16 16">
  <path d="m15.74 5.31-1.08-.59c-1.32-.77-1.68-1.86-1.04-3.15l.42-.85a.5.5 0 1 0-.9-.44l-.42.85c-.88 1.78-.36 3.41 1.44 4.47l.68.37-1.86 4.05c-.29-.19-.61-.32-.96-.41l1.29-2.8c.11-.24.02-.52-.21-.65l-1.08-.59c-1.32-.77-1.68-1.86-1.04-3.15l.42-.85a.5.5 0 1 0-.9-.44l-.42.85c-.88 1.78-.36 3.41 1.44 4.47l.68.37-2.35 5.1c-3.78-.45-7.2 1.67-8.58 3.08H.5c-.28 0-.5.22-.5.5s.22.5.5.5H4c.28 0 .5-.22.5-.5S4.28 15 4 15H2.82c1.35-1.02 3.8-2.35 6.6-2.12l-1.11 2.41c-.07.15-.06.33.03.48.09.14.25.23.42.23h5.73c.28 0 .5-.22.5-.5s-.22-.5-.5-.5h-.91c.56-.58.91-1.38.91-2.25 0-.77-.28-1.48-.74-2.03l2.19-4.76c.11-.24.02-.52-.21-.65ZM9.55 15l.91-1.97c.31.07.61.15.93.26a.501.501 0 0 0 .34-.94c-.28-.1-.56-.18-.83-.25l.72-1.56c1.07.17 1.9 1.09 1.9 2.21 0 1.24-1.01 2.25-2.25 2.25h-1.7Z"/>
</svg>