<svg xmlns="http://www.w3.org/2000/svg" width="16" height="16" fill="currentColor" class="lti lti-exclamation-triangle" viewBox="0 0 16 16">
  <path d="M13.55 16H2.45c-.99 0-1.76-.37-2.16-1.03s-.38-1.51.08-2.38l5.8-11.21C6.63.49 7.28 0 8 0s1.37.49 1.83 1.38l5.81 11.22c.45.87.48 1.72.08 2.38-.41.67-1.17 1.03-2.16 1.03ZM8 1c-.32 0-.67.3-.94.83L1.25 13.05c-.28.55-.32 1.04-.11 1.4.22.36.68.55 1.31.55h11.11c.63 0 1.09-.2 1.31-.55.21-.35.18-.85-.11-1.4L8.94 1.83C8.67 1.3 8.32 1 8 1m.75 10.5h-1.5V13h1.5zm0-6.5h-1.5v5.5h1.5z"/>
</svg>