<svg xmlns="http://www.w3.org/2000/svg" width="16" height="16" fill="currentColor" class="lti lti-eye-slash" viewBox="0 0 16 16">
  <path d="m2.35 1.65 12 12-.71.71L1.65 2.35l.71-.71m5.3 3.89c.11-.02.23-.03.34-.03A2.5 2.5 0 0 1 10.5 8c0 .12-.02.23-.03.34l.82.82c.13-.37.21-.75.21-1.16 0-1.93-1.57-3.5-3.5-3.5-.41 0-.8.08-1.16.21zm.68 4.94c-.11.02-.23.03-.34.03A2.5 2.5 0 0 1 5.5 8c0-.12.02-.23.03-.34l-.82-.82c-.13.37-.21.75-.21 1.16 0 1.93 1.57 3.5 3.5 3.5.41 0 .8-.08 1.16-.21zM6.02 3.9c.64-.18 1.3-.28 1.98-.28 2.09 0 4.05.87 5.53 2.45l1.24 1.32c.31.33.31.89 0 1.22l-1.23 1.32c-.24.26-.5.49-.77.71l.71.71c.27-.23.54-.47.79-.74l1.23-1.32c.67-.71.67-1.88 0-2.59l-1.23-1.32C12.6 3.6 10.38 2.62 8.01 2.62c-.96 0-1.89.17-2.78.48l.8.8Zm3.96 8.2c-.64.18-1.3.28-1.98.28-2.09 0-4.05-.87-5.53-2.45L1.24 8.61a.916.916 0 0 1 0-1.22l1.23-1.32c.24-.26.5-.49.77-.71l-.71-.71c-.27.23-.54.47-.79.74L.51 6.71c-.67.71-.67 1.88 0 2.59l1.23 1.32C3.41 12.4 5.63 13.38 8 13.38c.96 0 1.89-.17 2.77-.48l-.8-.8Z"/>
</svg>