<svg xmlns="http://www.w3.org/2000/svg" width="16" height="16" fill="currentColor" class="lti lti-eye" viewBox="0 0 16 16">
  <path d="M8 13.38c-2.36 0-4.59-.98-6.26-2.76L.51 9.3a1.92 1.92 0 0 1 0-2.59l1.23-1.32C3.41 3.61 5.64 2.63 8 2.63s4.59.98 6.26 2.76 1.23 1.32 1.23 1.32c.67.73.67 1.86 0 2.59l-1.23 1.32c-1.67 1.78-3.9 2.76-6.26 2.76m0-9.75c-2.09 0-4.05.87-5.53 2.44L1.24 7.39a.93.93 0 0 0 0 1.23l1.23 1.32c1.48 1.58 3.44 2.44 5.53 2.44s4.05-.87 5.53-2.45l1.23-1.32a.93.93 0 0 0 0-1.23l-1.23-1.32C12.05 4.48 10.08 3.62 8 3.62Zm0 7.87c-1.93 0-3.5-1.57-3.5-3.5S6.07 4.5 8 4.5s3.5 1.57 3.5 3.5-1.57 3.5-3.5 3.5m0-6a2.5 2.5 0 0 0 0 5 2.5 2.5 0 0 0 0-5"/>
</svg>