<svg xmlns="http://www.w3.org/2000/svg" width="16" height="16" fill="currentColor" class="lti lti-file-earmark-text" viewBox="0 0 16 16">
  <path d="M11.5 8h-7c-.28 0-.5-.22-.5-.5s.22-.5.5-.5h7c.28 0 .5.22.5.5s-.22.5-.5.5m.5 2c0-.28-.22-.5-.5-.5h-7c-.28 0-.5.22-.5.5s.22.5.5.5h7c.28 0 .5-.22.5-.5m-2 2.5c0-.28-.22-.5-.5-.5h-5c-.28 0-.5.22-.5.5s.22.5.5.5h5c.28 0 .5-.22.5-.5m5-6.59v6.59c0 1.93-1.57 3.5-3.5 3.5h-7C2.57 16 1 14.43 1 12.5v-9C1 1.57 2.57 0 4.5 0h4.59c.39 0 .78.16 1.06.44l4.41 4.41c.28.28.44.66.44 1.06M10 4.5c0 .28.22.5.5.5h2.79L10 1.71zm4 8V6h-3.5C9.67 6 9 5.33 9 4.5V1H4.5A2.5 2.5 0 0 0 2 3.5v9A2.5 2.5 0 0 0 4.5 15h7a2.5 2.5 0 0 0 2.5-2.5"/>
</svg>