<svg xmlns="http://www.w3.org/2000/svg" width="16" height="16" fill="currentColor" class="lti lti-file-earmark-text-fill" viewBox="0 0 16 16">
  <path d="M14.56 4.85 10.15.44C9.87.16 9.48 0 9.09 0H4.5C2.57 0 1 1.57 1 3.5v9C1 14.43 2.57 16 4.5 16h7c1.93 0 3.5-1.57 3.5-3.5V5.91c0-.4-.16-.78-.44-1.06M9.5 13h-5c-.28 0-.5-.22-.5-.5s.22-.5.5-.5h5c.28 0 .5.22.5.5s-.22.5-.5.5m2-2.5h-7c-.28 0-.5-.22-.5-.5s.22-.5.5-.5h7c.28 0 .5.22.5.5s-.22.5-.5.5m0-2.5h-7c-.28 0-.5-.22-.5-.5s.22-.5.5-.5h7c.28 0 .5.22.5.5s-.22.5-.5.5m-1-3c-.28 0-.5-.22-.5-.5V1.71L13.29 5z"/>
</svg>