<svg xmlns="http://www.w3.org/2000/svg" width="16" height="16" fill="currentColor" class="lti lti-fire" viewBox="0 0 16 16">
  <path d="M8 13.5c1.93 0 3.5-1.39 3.5-3.11 0-.81-.09-1.43-.19-1.86-.08-.38-.53-.48-.82-.22l-.88.81c-.54.49-1.4.38-1.79-.23L6.19 6.34c-.24-.37-.78-.34-.94.07-.34.89-.77 2.34-.77 3.99s1.57 3.11 3.5 3.11ZM8 16c-3.86 0-7-2.82-7-6.29 0-2 .71-4.09 2.12-6.21C4.11 2 5.22.84 5.98.13c.1-.1.24-.15.39-.13.14.01.27.09.36.2l2.1 2.89a.818.818 0 0 0 1.26.07l1.23-1.34c.1-.12.27-.17.41-.16.16.02.29.1.38.24.67 1.1 1.24 2.18 1.69 3.2.81 1.82 1.22 3.37 1.22 4.61 0 3.47-3.14 6.29-7 6.29ZM6.25 1.26c-.62.62-1.51 1.6-2.3 2.8C2.65 6.01 2 7.91 2 9.71 2 12.63 4.69 15 8 15s6-2.37 6-5.29c0-1.08-.39-2.53-1.13-4.2-.36-.81-.79-1.65-1.3-2.52l-.78.85c-.37.4-.89.62-1.43.58-.54-.03-1.04-.3-1.35-.74z"/>
</svg>