<svg xmlns="http://www.w3.org/2000/svg" width="16" height="16" fill="currentColor" class="lti lti-flame" viewBox="0 0 16 16">
  <path d="M10.92 1.97C9.91 1.13 8.91.51 8.25.14L8.01 0l-.24.14c-.66.37-1.66.99-2.67 1.83C2.41 4.19 1 6.84 1 9.65c0 1.76.83 3.46 2.29 4.67C4.6 15.41 6.27 16.01 8 16.01s3.41-.6 4.71-1.69C14.17 13.11 15 11.41 15 9.65c0-2.8-1.41-5.46-4.08-7.68M9.47 14.21c-.83 1.02-2.11 1.02-2.94 0-.49-.6-.78-1.45-.78-2.34 0-1.55.52-2.96 1.54-4.2.25-.31.5-.56.71-.76.21.2.46.45.71.76 1.02 1.24 1.54 2.66 1.54 4.2 0 .88-.28 1.74-.78 2.34m2.6-.67c-.47.4-1.01.7-1.58.94.48-.74.76-1.64.76-2.61 0-1.76-.61-3.43-1.76-4.84-.44-.54-.88-.93-1.17-1.17L8 5.6l-.32.26c-.29.24-.73.63-1.17 1.17-1.15 1.41-1.76 3.08-1.76 4.84 0 .97.28 1.87.76 2.61-.57-.24-1.11-.54-1.58-.93C2.69 12.52 2 11.14 2 9.65c0-2.53 1.25-4.86 3.72-6.91.84-.7 1.67-1.23 2.28-1.59.61.36 1.44.89 2.28 1.59C12.75 4.79 14 7.12 14 9.65c0 1.48-.68 2.87-1.93 3.9Z"/>
</svg>