<svg xmlns="http://www.w3.org/2000/svg" width="16" height="16" fill="currentColor" class="lti lti-footsteps" viewBox="0 0 16 16">
  <path d="M6.44 7.66H3.05l-.15-.25c-.63-1.06-.9-2.09-.91-3.43 0-1.26.72-2.56 1.45-3.29.32-.32.8-.7 1.3-.7s.99.38 1.3.7c.73.73 1.45 2.03 1.45 3.29 0 1.34-.28 2.36-.91 3.43l-.15.25Zm-2.81-1h2.23c.44-.82.63-1.64.63-2.68 0-.96-.59-2.01-1.16-2.58C5 1.07 4.79 1 4.74 1s-.27.07-.59.4c-.56.57-1.16 1.61-1.16 2.58 0 1.04.2 1.86.63 2.68ZM4.75 12a1.2 1.2 0 0 1-.85-.37c-.55-.55-.75-1.63-.75-2.39v-.5h3.19v.5c0 .76-.19 1.83-.75 2.39a1.2 1.2 0 0 1-.85.37Zm-.56-2.25c.07.52.23.98.42 1.18.15.15.13.15.29 0 .2-.2.36-.66.42-1.18zm7.5 2.66-3.21-1.19-.06-.26c-.28-1.22-.23-2.28.17-3.53.36-1.16 1.43-2.13 2.33-2.57.42-.2 1.02-.41 1.51-.23 1.06.39 1.98 2.93 1.4 4.68-.41 1.26-.99 2.12-1.91 2.91l-.22.19Zm-2.35-1.93 2.14.79c.65-.61 1.08-1.3 1.39-2.27.44-1.34-.36-3.27-.79-3.43-.06-.02-.3-.03-.73.19-.68.34-1.54 1.1-1.82 1.97-.31.99-.37 1.82-.2 2.75ZM9.25 16c-.18 0-.36-.04-.53-.13-1.06-.52-.95-2.17-.62-3.15l.18-.54 2.99 1.48-.14.41c-.22.66-.73 1.54-1.41 1.83-.16.07-.32.1-.48.1Zm-.33-2.39c-.1.62-.03 1.23.25 1.37.05.03.1.03.18 0 .22-.09.49-.42.69-.82l-1.11-.55Z"/>
</svg>