<svg xmlns="http://www.w3.org/2000/svg" width="16" height="16" fill="currentColor" class="lti lti-fruit" viewBox="0 0 16 16">
  <path d="M12.67 4.43c-1.15-.42-2.36-.14-3.33.08-.17.04-.32.07-.47.1q-.03-.255-.09-.51c.14.02.28.05.42.05.39 0 .78-.08 1.16-.25.89-.39 1.55-1.2 1.8-2.21l.11-.46-.45-.14C11.06.86 9.29.6 8.09 2.61c-.48-.62-1.18-1.13-2.08-1.5a.497.497 0 1 0-.38.92c1.35.55 2.1 1.43 2.24 2.61-.26-.07-.58-.21-.91-.36-.91-.41-2.04-.92-3.18-.49C.96 4.86.8 8.3 1.12 9.97c.16.85 1.08 5.08 3.77 5.08 1.08 0 1.62-.18 2.05-.32.55-.18.97-.18 1.52 0 .44.14.98.32 2.05.32 2.31 0 3.64-3.37 4.22-5.38.74-2.55-.03-4.51-2.06-5.25Zm-1.66-2.48c-.23.48-.59.84-1.05 1.04-.34.15-.69.19-1.02.14.62-1.02 1.39-1.25 2.07-1.18m2.76 7.45c-.32 1.09-1.49 4.66-3.26 4.66-.92 0-1.36-.14-1.75-.27-.31-.1-.62-.2-1.07-.2s-.76.1-1.07.2c-.39.12-.83.27-1.75.27-1.94 0-2.71-3.83-2.79-4.27-.26-1.39-.17-4.23 2.03-5.05.75-.28 1.6.1 2.42.47.57.26 1.11.5 1.62.5.42 0 .89-.11 1.39-.22.89-.2 1.89-.43 2.77-.11 2.13.77 1.72 3.07 1.44 4.03Z"/>
</svg>