<svg xmlns="http://www.w3.org/2000/svg" width="16" height="16" fill="currentColor" class="lti lti-gear-fill" viewBox="0 0 16 16">
  <path d="m14.63 9.52-.51-.29c.08-.41.13-.82.13-1.23s-.04-.81-.13-1.23l.5-.29c.35-.2.59-.52.7-.91.1-.39.05-.79-.15-1.14l-.5-.87c-.2-.35-.52-.59-.91-.7-.39-.1-.79-.05-1.14.15l-.5.29c-.62-.54-1.34-.96-2.13-1.22V1.5c0-.83-.67-1.5-1.5-1.5h-1c-.83 0-1.5.67-1.5 1.5v.58c-.78.26-1.51.68-2.13 1.22l-.5-.29c-.35-.2-.75-.25-1.14-.15s-.71.35-.91.7l-.5.87c-.41.72-.17 1.64.55 2.05l.51.29c-.08.41-.13.82-.13 1.23s.04.81.13 1.23l-.51.29c-.72.41-.96 1.33-.55 2.05l.5.87c.41.72 1.33.96 2.05.55l.5-.29c.62.54 1.34.96 2.13 1.22v.58c0 .83.67 1.5 1.5 1.5h1c.83 0 1.5-.67 1.5-1.5v-.58c.79-.26 1.51-.68 2.13-1.22l.5.29c.35.2.75.25 1.14.15s.71-.35.91-.7l.5-.87c.2-.35.25-.75.15-1.14s-.35-.71-.7-.91ZM8 11c-1.66 0-3-1.34-3-3s1.34-3 3-3 3 1.34 3 3-1.34 3-3 3"/>
</svg>