<svg xmlns="http://www.w3.org/2000/svg" width="16" height="16" fill="currentColor" class="lti lti-gear" viewBox="0 0 16 16">
  <path d="M8 11.5c-1.93 0-3.5-1.57-3.5-3.5S6.07 4.5 8 4.5s3.5 1.57 3.5 3.5-1.57 3.5-3.5 3.5m0-6a2.5 2.5 0 0 0 0 5 2.5 2.5 0 0 0 0-5M8.5 16h-1c-.83 0-1.5-.67-1.5-1.5v-.58c-.78-.26-1.51-.68-2.13-1.22l-.5.29c-.72.42-1.63.17-2.05-.55l-.5-.87c-.41-.72-.17-1.64.55-2.05l.51-.29c-.08-.41-.13-.82-.13-1.23s.04-.81.13-1.23l-.51-.29C.65 6.07.41 5.15.82 4.43l.5-.87c.2-.35.52-.59.91-.7.39-.1.79-.05 1.14.15l.5.29c.62-.54 1.34-.96 2.13-1.22V1.5C6 .67 6.67 0 7.5 0h1c.83 0 1.5.67 1.5 1.5v.58c.79.26 1.51.68 2.13 1.22l.5-.29c.35-.2.75-.25 1.14-.15s.71.35.91.7l.5.87c.2.35.25.75.15 1.14s-.35.71-.7.91l-.5.29c.08.41.13.82.13 1.23s-.04.81-.13 1.23l.51.29c.35.2.59.52.7.91.1.39.05.79-.15 1.14l-.5.87c-.2.35-.52.59-.91.7-.39.1-.79.05-1.14-.15l-.5-.29c-.62.54-1.34.96-2.13 1.22v.58c0 .83-.67 1.5-1.5 1.5Zm-4.48-4.55.27.27c.64.64 1.45 1.1 2.33 1.34l.37.1v1.34c0 .28.22.5.5.5h1c.28 0 .5-.22.5-.5v-1.34l.37-.1c.88-.24 1.69-.7 2.33-1.34l.27-.27 1.15.67c.12.07.25.08.38.05.13-.04.24-.12.3-.23l.5-.87c.07-.12.08-.25.05-.38a.5.5 0 0 0-.23-.3l-1.16-.67.1-.37c.12-.45.18-.91.18-1.35s-.06-.89-.18-1.35l-.1-.37 1.16-.67c.12-.07.2-.17.23-.3s.02-.26-.05-.38l-.5-.87a.46.46 0 0 0-.3-.23.5.5 0 0 0-.38.05l-1.15.67-.27-.27a5.25 5.25 0 0 0-2.33-1.34l-.37-.1V1.5c0-.28-.22-.5-.5-.5h-1c-.28 0-.5.22-.5.5v1.34l-.37.1c-.88.24-1.69.7-2.33 1.34l-.27.27-1.15-.67a.49.49 0 0 0-.68.18l-.5.87c-.14.24-.06.55.18.68l1.16.67-.1.37c-.12.45-.18.9-.18 1.34s.06.89.18 1.35l.1.37-1.16.67c-.24.14-.32.45-.18.68l.5.87c.14.24.44.32.68.18l1.15-.67Z"/>
</svg>