<svg xmlns="http://www.w3.org/2000/svg" width="16" height="16" fill="currentColor" class="lti lti-gift" viewBox="0 0 16 16">
  <path d="M13.5 4h-1.51c.32-.42.51-.94.51-1.5A2.5 2.5 0 0 0 8 1a2.5 2.5 0 0 0-4.5 1.5c0 .56.2 1.08.51 1.5H2.5C1.67 4 1 4.67 1 5.5V8c0 .65.42 1.2 1 1.41v3.09C2 14.43 3.57 16 5.5 16h5c1.93 0 3.5-1.57 3.5-3.5V9.41c.58-.21 1-.76 1-1.41V5.5c0-.83-.67-1.5-1.5-1.5M10 1c.83 0 1.5.67 1.5 1.5S10.83 4 10 4H8.5V2.5c0-.83.67-1.5 1.5-1.5M4.5 2.5C4.5 1.67 5.17 1 6 1s1.5.67 1.5 1.5V4H6c-.83 0-1.5-.67-1.5-1.5m6 12.5h-5A2.5 2.5 0 0 1 3 12.5v-3h10v3a2.5 2.5 0 0 1-2.5 2.5M14 8c0 .28-.22.5-.5.5h-11c-.28 0-.5-.22-.5-.5V5.5c0-.28.22-.5.5-.5h11c.28 0 .5.22.5.5z"/>
</svg>