<svg xmlns="http://www.w3.org/2000/svg" width="16" height="16" fill="currentColor" class="lti lti-golf-club" viewBox="0 0 16 16">
  <path d="m13.65 1.93-3.2 3.2c-.29.29-.29.77 0 1.07l.18.18-5.99 5.99-1.73-1.44c-.56-.47-1.22-.66-1.75-.5-.35.1-.82.39-1.07 1.19-.16.51-.1 1.04.19 1.49.31.48.84.84 1.36.9l2.21.29c.15.02.31-.03.42-.14l7.07-7.07.18.18c.29.29.77.29 1.07 0l3.2-3.2c.29-.29.29-.77 0-1.07l-1.07-1.07a.767.767 0 0 0-1.07 0M3.74 13.26l-1.96-.25c-.2-.03-.48-.19-.65-.45a.73.73 0 0 1-.08-.64c.07-.21.19-.48.4-.54s.54.06.83.31l1.66 1.38-.19.19Zm11.15-9.74-2.84 2.84-.71-.71 2.84-2.84z"/>
</svg>