<svg xmlns="http://www.w3.org/2000/svg" width="16" height="16" fill="currentColor" class="lti lti-hand-thumbs-down-fill" viewBox="0 0 16 16">
  <path d="M12.03 10.04h.71C14 10.04 15 9 15 7.73V2.31C15 1.05 14 0 12.74 0h-.71zM1 8.71v.31c0 .79.43 1.52 1.13 1.88.29.15.6.22.92.22h2.5l-.19.78c-.1.41-.15.84-.15 1.26v.61c0 .41.09.81.27 1.17.31.64.96 1.06 1.67 1.06H8c.28 0 .53-.17.63-.43l.65-1.66c.25-.65.57-1.28.95-1.86l.8-1.23V0H4.25C3.4 0 2.61.44 2.14 1.16l-.04.06a2.48 2.48 0 0 0-.28 2.12c.1.31.06.66-.12.94l-.09.14c-.43.66-.53 1.5-.29 2.25.1.3.08.63-.06.91-.17.35-.26.74-.26 1.14Z"/>
</svg>