<svg xmlns="http://www.w3.org/2000/svg" width="16" height="16" fill="currentColor" class="lti lti-hand-thumbs-down" viewBox="0 0 16 16">
  <path d="M1 8.71v.31c0 .79.43 1.52 1.13 1.88.29.15.6.22.92.22h2.5l-.19.78c-.1.41-.15.84-.15 1.26v.61c0 .41.09.81.27 1.17.31.64.96 1.06 1.67 1.06H8c.28 0 .53-.17.63-.43l.65-1.66c.25-.65.57-1.28.95-1.86l1.3-2h1.21C14 10.05 15 9.01 15 7.74V2.31C15 1.05 14 0 12.74 0H4.25C3.4 0 2.61.44 2.14 1.16l-.04.06a2.48 2.48 0 0 0-.28 2.12c.1.31.06.66-.12.94l-.09.14c-.43.66-.53 1.5-.29 2.25.1.3.08.63-.06.91-.17.35-.26.74-.26 1.14Zm13-6.4v5.42c0 .72-.56 1.31-1.26 1.31h-.99V1h.99c.69 0 1.26.59 1.26 1.31M2 8.71c0-.24.06-.48.16-.7.25-.51.29-1.11.11-1.66-.15-.47-.09-.99.18-1.4l.09-.14c.35-.53.43-1.18.23-1.79-.14-.42-.08-.89.16-1.26l.04-.07c.28-.44.76-.7 1.27-.7h6.5v8.39l-.07.1-1.3 2c-.42.64-.77 1.33-1.04 2.04l-.57 1.46h-.63a.86.86 0 0 1-.77-.49c-.11-.23-.17-.48-.17-.74v-.61c0-.35.04-.69.12-1.03l.19-.78.3-1.24H3.03c-.16 0-.32-.04-.47-.11-.36-.18-.59-.57-.59-.99v-.31Z"/>
</svg>