<svg xmlns="http://www.w3.org/2000/svg" width="16" height="16" fill="currentColor" class="lti lti-hand-thumbs-up-fill" viewBox="0 0 16 16">
  <path d="M3.97 5.96h-.71C2 5.96 1 7 1 8.27v5.42C1 14.96 2 16 3.26 16h.71zM15 7.29v-.31c0-.79-.43-1.52-1.13-1.88-.29-.15-.6-.22-.92-.22h-2.5l.19-.78c.1-.41.15-.84.15-1.26v-.61c0-.41-.09-.81-.27-1.17A1.87 1.87 0 0 0 8.85 0H8c-.28 0-.53.17-.63.43l-.65 1.66c-.25.65-.57 1.28-.95 1.86l-.8 1.23v10.81h6.78c.85 0 1.64-.44 2.11-1.16l.04-.06c.41-.62.51-1.41.28-2.12-.1-.31-.06-.66.12-.94l.09-.14c.43-.66.53-1.5.29-2.25-.1-.3-.08-.63.06-.91.17-.35.26-.74.26-1.14Z"/>
</svg>