<svg xmlns="http://www.w3.org/2000/svg" width="16" height="16" fill="currentColor" class="lti lti-hand-thumbs-up" viewBox="0 0 16 16">
  <path d="M15 7.29v-.31c0-.79-.43-1.52-1.13-1.88-.29-.15-.6-.22-.92-.22h-2.5l.19-.78c.1-.41.15-.84.15-1.26v-.61c0-.41-.09-.81-.27-1.17A1.87 1.87 0 0 0 8.85 0H8c-.28 0-.53.17-.63.43l-.65 1.66c-.25.65-.57 1.28-.95 1.86l-1.3 2H3.26C2 5.95 1 6.99 1 8.26v5.42c0 1.27 1 2.31 2.26 2.31h8.49c.85 0 1.64-.44 2.11-1.16l.04-.06c.41-.62.51-1.41.28-2.12-.1-.31-.06-.66.12-.94l.09-.14c.43-.66.53-1.5.29-2.25-.1-.3-.08-.63.06-.91.17-.35.26-.74.26-1.14Zm-13 6.4V8.27c0-.72.56-1.31 1.26-1.31h.99V15h-.99C2.57 15 2 14.41 2 13.69m12-6.4c0 .24-.06.48-.16.7-.25.51-.29 1.11-.11 1.66.15.47.09.99-.18 1.4l-.09.14c-.35.53-.43 1.18-.23 1.79.14.42.08.89-.16 1.26l-.04.07c-.28.44-.76.7-1.27.7h-6.5v-8.4l.07-.1 1.3-2c.42-.64.77-1.33 1.04-2.04l.57-1.46h.63c.33 0 .62.19.77.49.11.23.17.48.17.74v.61c0 .35-.04.69-.12 1.03l-.19.78-.3 1.24h3.77c.16 0 .32.04.47.11.36.18.59.57.59.99v.31Z"/>
</svg>