<svg xmlns="http://www.w3.org/2000/svg" width="16" height="16" fill="currentColor" class="lti lti-heart-pulse-fill" viewBox="0 0 16 16">
  <path d="M5.36 6.5c.15 0 .29.07.39.18l1.26 1.54 2.61-3.05A.46.46 0 0 1 9.98 5c.13-.02.28.05.37.15l1.33 1.35h4.19c.33-1.46-.06-3.05-1.19-4.18C13.83 1.47 12.7 1 11.5 1s-2.33.47-3.18 1.32c-.11.11-.22.23-.32.35-.1-.12-.21-.24-.32-.35a4.487 4.487 0 0 0-6.35-.01l-.01.01A4.43 4.43 0 0 0 .13 6.5h5.24Zm6.12 1c-.13 0-.26-.05-.36-.15l-1.1-1.11-2.65 3.09c-.09.11-.23.17-.38.17s-.29-.07-.38-.18L5.13 7.5H.49c.21.42.47.83.83 1.18l6.33 6.33c.09.09.22.15.35.15s.26-.05.35-.15l6.33-6.33c.35-.35.62-.76.83-1.18z"/>
</svg>