<svg xmlns="http://www.w3.org/2000/svg" width="16" height="16" fill="currentColor" class="lti lti-heart-pulse" viewBox="0 0 16 16">
  <path d="M14.68 2.32C13.83 1.47 12.7 1 11.5 1s-2.33.47-3.18 1.32c-.11.11-.22.23-.32.35-.1-.12-.21-.24-.32-.35a4.49 4.49 0 0 0-6.36 0C.44 3.2 0 4.35 0 5.5h1c0-.9.34-1.79 1.02-2.48C2.7 2.34 3.6 2 4.5 2s1.79.34 2.48 1.02c.22.22.42.48.57.75 0 .01.01.03.02.04.18.3.68.3.86 0 .01-.02.02-.04.03-.05.15-.27.34-.52.57-.74 1.32-1.32 3.63-1.32 4.95 0 .94.94 1.22 2.28.86 3.48h-3.15l-1.33-1.35c-.1-.1-.24-.17-.37-.15-.14 0-.27.07-.36.17L7.02 8.22 5.76 6.68a.5.5 0 0 0-.39-.18H.76c-.28 0-.5.22-.5.5s.22.5.5.5h4.36L6.6 9.32a.5.5 0 0 0 .76.01l2.65-3.09 1.1 1.11c.09.1.22.15.36.15h2.88c-.12.17-.24.33-.39.48l-5.97 5.98-5.45-5.45H1.16c.05.06.09.13.15.18l6.33 6.33c.09.09.22.15.35.15s.26-.05.35-.15l6.33-6.33a4.51 4.51 0 0 0 0-6.36Z"/>
</svg>