<svg xmlns="http://www.w3.org/2000/svg" width="16" height="16" fill="currentColor" class="lti lti-kettlebell" viewBox="0 0 16 16">
  <path d="M10.35 1c1.16 0 2.22.55 2.89 1.5.68.96.84 2.15.44 3.25l-1.49 4.11-.1.27.06.28c.07.33.11.62.11.9 0 1.26-.56 2.45-1.53 3.27-.18.16-.38.29-.6.42H5.82a4.26 4.26 0 0 1-2.12-3.7c0-.32.04-.65.11-.97l.07-.29-.1-.28-1.45-4.01c-.4-1.1-.24-2.27.42-3.23.67-.96 1.72-1.51 2.89-1.51l4.69-.02h.02m0-.99h-.02l-4.7.02c-1.5 0-2.85.72-3.7 1.94a4.44 4.44 0 0 0-.54 4.14l1.45 4.01a5.25 5.25 0 0 0 2.59 5.81c.09.05.18.07.28.07h4.53c.1 0 .19-.02.28-.07.3-.16.59-.35.86-.58a5.27 5.27 0 0 0 1.88-4.03c0-.38-.05-.74-.13-1.11l1.49-4.11c.51-1.42.3-2.93-.56-4.16A4.5 4.5 0 0 0 10.35 0m-.52 3.57c.36 0 .68.17.89.47.2.28.25.65.13.99l-.44 1.23c-.03.09-.1.21-.25.28-.05.02-.09.04-.14.04h-.11a.8.8 0 0 1-.22-.03c-.54-.2-1.12-.3-1.72-.3s-1.17.1-1.72.3c-.07.03-.14.04-.22.04s-.17-.02-.24-.05a.55.55 0 0 1-.26-.28l-.44-1.23c-.12-.33-.07-.69.13-.98.21-.29.54-.47.89-.47h3.71m.01-1.01H6.12c-.68 0-1.31.34-1.7.89-.39.56-.49 1.26-.26 1.9l.44 1.22c.14.38.42.68.78.85q.315.15.66.15c.19 0 .37-.03.55-.1.44-.16.91-.24 1.38-.24s.94.08 1.37.24c.18.06.37.1.56.1.23 0 .46-.04.66-.14.37-.17.64-.47.78-.85l.44-1.23c.23-.64.14-1.35-.26-1.9-.39-.56-1.02-.89-1.7-.89Z"/>
</svg>