<svg xmlns="http://www.w3.org/2000/svg" width="16" height="16" fill="currentColor" class="lti lti-laic" viewBox="0 0 16 16">
  <path d="M4.5 8c0 1.24-1.01 2.25-2.25 2.25S0 9.24 0 8s1.01-2.25 2.25-2.25S4.5 6.76 4.5 8m9.25-2.25c-1.24 0-2.25 1.01-2.25 2.25s1.01 2.25 2.25 2.25S16 9.24 16 8s-1.01-2.25-2.25-2.25m-8.62-5C3.89.75 2.88 1.76 2.88 3s1.01 2.25 2.25 2.25S7.38 4.24 7.38 3 6.37.75 5.13.75m0 10c-1.24 0-2.25 1.01-2.25 2.25s1.01 2.25 2.25 2.25S7.38 14.24 7.38 13s-1.01-2.25-2.25-2.25m5.74-10C9.63.75 8.62 1.76 8.62 3s1.01 2.25 2.25 2.25S13.12 4.24 13.12 3 12.11.75 10.87.75m0 10c-1.24 0-2.25 1.01-2.25 2.25s1.01 2.25 2.25 2.25 2.25-1.01 2.25-2.25-1.01-2.25-2.25-2.25"/>
</svg>