<svg xmlns="http://www.w3.org/2000/svg" width="16" height="16" fill="currentColor" class="lti lti-link-45deg" viewBox="0 0 16 16">
  <path d="m9.41 10.83-2.83 2.83a3 3 0 0 1-4.24 0 3 3 0 0 1 0-4.24l1.41-1.41c.2-.2.51-.2.71 0s.2.51 0 .71l-1.41 1.41c-.78.78-.78 2.05 0 2.83s2.05.78 2.83 0l2.83-2.83c.78-.78.78-2.05 0-2.83-.2-.2-.2-.51 0-.71s.51-.2.71 0a3 3 0 0 1 0 4.24zm4.25-4.24L12.25 8c-.2.2-.51.2-.71 0s-.2-.51 0-.71l1.41-1.41c.78-.78.78-2.05 0-2.83s-2.05-.78-2.83 0L7.29 5.88c-.78.78-.78 2.05 0 2.83.2.2.2.51 0 .71s-.51.2-.71 0a3 3 0 0 1 0-4.24l2.83-2.83a3 3 0 0 1 4.24 0 3 3 0 0 1 0 4.24z"/>
</svg>