<svg xmlns="http://www.w3.org/2000/svg" width="16" height="16" fill="currentColor" class="lti lti-location" viewBox="0 0 16 16">
  <path d="M8 9.33c-1.56 0-2.83-1.27-2.83-2.83S6.44 3.67 8 3.67s2.83 1.27 2.83 2.83S9.56 9.33 8 9.33m0-4.66a1.83 1.83 0 1 0 .002 3.662A1.83 1.83 0 0 0 8 4.67m0 11.02-4.6-4.6c-1.23-1.23-1.9-2.86-1.9-4.6s.68-3.37 1.9-4.6S6.26-.01 8-.01s3.37.68 4.6 1.9 1.9 2.86 1.9 4.6-.68 3.37-1.9 4.6zM8 1c-1.47 0-2.85.57-3.89 1.61S2.5 5.03 2.5 6.5s.57 2.85 1.61 3.89L8 14.28l3.89-3.89c1.04-1.04 1.61-2.42 1.61-3.89s-.57-2.85-1.61-3.89S9.47 1 8 1"/>
</svg>