<svg xmlns="http://www.w3.org/2000/svg" width="16" height="16" fill="currentColor" class="lti lti-lotus" viewBox="0 0 16 16">
  <path d="M15.72 10.41a6.14 6.14 0 0 0-3.08-1.32 6.1 6.1 0 0 0 1.24-3.14.762.762 0 0 0-.83-.83 6.1 6.1 0 0 0-3.12 1.25c-.15-1.12-.6-2.18-1.34-3.09-.29-.35-.89-.35-1.18 0-.75.91-1.19 1.97-1.34 3.09a6.15 6.15 0 0 0-3.11-1.25.78.78 0 0 0-.61.22c-.16.16-.24.39-.22.61.12 1.17.55 2.24 1.24 3.14-1.12.15-2.17.58-3.08 1.32-.18.14-.28.36-.28.59s.1.45.28.59c1.13.92 2.48 1.41 3.9 1.41s2.71-.49 3.82-1.38c1.11.88 2.44 1.38 3.82 1.38s2.77-.49 3.91-1.41c.17-.14.27-.36.27-.59s-.1-.44-.28-.59ZM11.41 9c-.63.63-1.42 1.07-2.29 1.3.49-.82.76-1.74.84-2.68.01-.01.02-.03.04-.04.77-.77 1.75-1.26 2.85-1.44-.17 1.1-.67 2.08-1.44 2.85ZM8 4.14c.66.9 1 1.94 1 3.03s-.35 2.14-1 3.03c-.66-.9-1-1.94-1-3.03s.34-2.13 1-3.03M6 7.58s.02.03.04.04c.07.95.34 1.86.83 2.68-.87-.23-1.65-.67-2.29-1.31a5.16 5.16 0 0 1-1.44-2.85c1.1.17 2.08.67 2.85 1.44ZM1.15 11c.92-.67 2.03-.99 3.13-.96.71.6 1.53 1.04 2.44 1.27-1.73.98-3.92.89-5.56-.3Zm8.14.3c.91-.23 1.74-.67 2.44-1.27 1.1-.02 2.2.29 3.12.97-1.64 1.19-3.83 1.28-5.57.3Z"/>
</svg>