<svg xmlns="http://www.w3.org/2000/svg" width="16" height="16" fill="currentColor" class="lti lti-lt-mark" viewBox="0 0 16 16">
  <path d="M11.27 8.26c-.75 0-1.39.6-1.39 1.35S10.52 11 11.27 11s1.39-.6 1.39-1.39-.6-1.35-1.39-1.35m0-3.26c-.75 0-1.39.6-1.39 1.35s.64 1.39 1.39 1.39 1.39-.64 1.39-1.39S12.06 5 11.27 5m3.34 0c-.75 0-1.39.6-1.39 1.35s.64 1.39 1.39 1.39S16 7.1 16 6.35 15.4 5 14.61 5M7.92 5c-.75 0-1.39.6-1.39 1.35s.64 1.39 1.39 1.39 1.39-.64 1.39-1.39S8.67 5 7.92 5m-5.22.11H0v5.78h9.13V8.41H2.7V5.1Z"/>
</svg>