<svg xmlns="http://www.w3.org/2000/svg" width="16" height="16" fill="currentColor" class="lti lti-mic-mute-fill" viewBox="0 0 16 16">
  <path d="m13.07 9.2-.74-.74A4.9 4.9 0 0 0 13 6h1c0 1.18-.34 2.27-.93 3.2M8.5 11.97V15H10c.28 0 .5.22.5.5s-.22.5-.5.5H6c-.28 0-.5-.22-.5-.5s.22-.5.5-.5h1.5v-3.03C4.43 11.71 2 9.14 2 6h1c0 2.76 2.24 5 5 5 1.14 0 2.17-.39 3.01-1.03L9.93 8.89c-.55.38-1.21.62-1.93.62-1.93 0-3.5-1.57-3.5-3.5V3.47L2.15 1.1l.71-.71 1.88 1.88.81.81 4.43 4.43.71.71 1.06 1.06.72.72 2.39 2.39-.71.71-2.42-2.42c-.9.72-2.01 1.19-3.23 1.29M8 0C6.87 0 5.88.54 5.24 1.37l5.98 5.98c.18-.42.27-.87.27-1.36v-2.5c0-1.93-1.57-3.5-3.5-3.5Z"/>
</svg>