<svg xmlns="http://www.w3.org/2000/svg" width="16" height="16" fill="currentColor" class="lti lti-people" viewBox="0 0 16 16">
  <path d="M11.25 7.75c-1.45 0-2.62-1.18-2.62-2.62s1.18-2.62 2.62-2.62 2.62 1.18 2.62 2.62-1.18 2.62-2.62 2.62m0-4.25a1.62 1.62 0 1 0 0 3.24 1.62 1.62 0 0 0 0-3.24m4.25 10H7c-.28 0-.5-.22-.5-.5 0-2.62 2.13-4.75 4.75-4.75S16 10.38 16 13c0 .28-.22.5-.5.5m-7.97-1h7.43c-.25-1.83-1.82-3.25-3.72-3.25s-3.47 1.42-3.72 3.25ZM4.75 7.75c-1.45 0-2.62-1.18-2.62-2.62s1.18-2.62 2.62-2.62 2.62 1.18 2.62 2.62-1.18 2.62-2.62 2.62m0-4.25a1.62 1.62 0 1 0 0 3.24 1.62 1.62 0 0 0 0-3.24M5.5 13c0-.17.01-.33.03-.5h-4.5a3.76 3.76 0 0 1 3.72-3.25c.65 0 1.25.18 1.79.47.19-.28.41-.54.65-.78-.71-.43-1.54-.69-2.43-.69C2.14 8.25.01 10.38.01 13c0 .28.22.5.5.5H5.6c-.06-.16-.09-.32-.09-.5Z"/>
</svg>