<svg xmlns="http://www.w3.org/2000/svg" width="16" height="16" fill="currentColor" class="lti lti-pilates" viewBox="0 0 16 16">
  <path d="M14.5 7.5h-2.25l3.6-3.65c.09-.09.14-.21.14-.35 0-.28-.22-.5-.5-.5-.14 0-.26.06-.36.15s-4.3 4.35-4.3 4.35H3.99v-1c0-.83-.67-1.5-1.5-1.5h-1c-.83 0-1.5.67-1.5 1.5v5c0 .83.67 1.5 1.5 1.5h1c.83 0 1.5-.67 1.5-1.5h8c0 .83.67 1.5 1.5 1.5h1c.83 0 1.5-.67 1.5-1.5V9c0-.83-.67-1.5-1.5-1.5ZM3 7.5v4c0 .28-.22.5-.5.5h-1c-.28 0-.5-.22-.5-.5v-5c0-.28.22-.5.5-.5h1c.28 0 .5.22.5.5zM12 9v1.5H4v-2h8zm1-.5h1.5c.28 0 .5.22.5.5v2.5c0 .28-.22.5-.5.5h-1c-.28 0-.5-.22-.5-.5z"/>
</svg>