<svg xmlns="http://www.w3.org/2000/svg" width="16" height="16" fill="currentColor" class="lti lti-playlist" viewBox="0 0 16 16">
  <path d="M11.5 9.5 8 7.5v4zm2-5H12V4a2.5 2.5 0 0 0-2.5-2.5h-7A2.5 2.5 0 0 0 0 4v4a2.5 2.5 0 0 0 2.5 2.5H3V12a2.5 2.5 0 0 0 2.5 2.5h8A2.5 2.5 0 0 0 16 12V7a2.5 2.5 0 0 0-2.5-2.5M3 7v2.5h-.5C1.67 9.5 1 8.83 1 8V4c0-.83.67-1.5 1.5-1.5h7c.83 0 1.5.67 1.5 1.5v.5H5.5A2.5 2.5 0 0 0 3 7m12 5c0 .83-.67 1.5-1.5 1.5h-8c-.83 0-1.5-.67-1.5-1.5V7c0-.83.67-1.5 1.5-1.5h8c.83 0 1.5.67 1.5 1.5z"/>
</svg>