<svg xmlns="http://www.w3.org/2000/svg" width="16" height="16" fill="currentColor" class="lti lti-podium-circle" viewBox="0 0 16 16">
  <path d="M8 16c-4.41 0-8-3.59-8-8s3.59-8 8-8 8 3.59 8 8-3.59 8-8 8M8 1C4.14 1 1 4.14 1 8s3.14 7 7 7 7-3.14 7-7-3.14-7-7-7m0 1.25C4.83 2.25 2.25 4.83 2.25 8S4.83 13.75 8 13.75s5.75-2.58 5.75-5.75S11.17 2.25 8 2.25M6.25 12.41c-.56-.22-1.07-.55-1.5-.96V8c0-.41.34-.75.75-.75s.75.34.75.75zm2.5.26c-.25.04-.49.08-.75.08s-.5-.04-.75-.08V5c0-.41.34-.75.75-.75s.75.34.75.75zm2.5-1.22c-.43.41-.94.74-1.5.96V6.5c0-.41.34-.75.75-.75s.75.34.75.75z"/>
</svg>