<svg xmlns="http://www.w3.org/2000/svg" width="16" height="16" fill="currentColor" class="lti lti-question-circle" viewBox="0 0 16 16">
  <path d="M8 15c-3.87 0-7-3.13-7-7s3.13-7 7-7 7 3.13 7 7-3.13 7-7 7m0 1c4.42 0 8-3.58 8-8s-3.58-8-8-8-8 3.58-8 8 3.58 8 8 8M5.26 5.79c0 .13.1.24.23.25h.83c.14 0 .25-.11.27-.25.09-.66.54-1.13 1.34-1.13.69 0 1.31.34 1.31 1.17 0 .64-.37.93-.97 1.37-.67.49-1.21 1.06-1.17 1.99v.22c0 .14.12.25.25.25h.81c.14 0 .25-.11.25-.25v-.1c0-.72.27-.93 1.01-1.49.61-.46 1.24-.98 1.24-2.06 0-1.51-1.28-2.24-2.67-2.24-1.27 0-2.65.59-2.75 2.29m1.57 5.74c0 .53.43.93 1.01.93s1.03-.39 1.03-.93-.42-.94-1.03-.94-1.01.39-1.01.94"/>
</svg>