<svg xmlns="http://www.w3.org/2000/svg" width="16" height="16" fill="currentColor" class="lti lti-question-circle-fill" viewBox="0 0 16 16">
  <path d="M8 0C3.58 0 0 3.58 0 8s3.58 8 8 8 8-3.58 8-8-3.58-8-8-8m-.18 12.48c-.58 0-1.01-.4-1.01-.93s.4-.94 1.01-.94 1.03.4 1.03.94-.45.93-1.03.93m1.6-4.66c-.74.56-1.01.77-1.01 1.49v.1c0 .14-.11.25-.25.25h-.81c-.13 0-.25-.11-.25-.25v-.22c-.04-.93.5-1.5 1.17-1.99.6-.44.97-.73.97-1.37 0-.83-.62-1.17-1.31-1.17-.8 0-1.25.47-1.34 1.13-.02.14-.13.25-.27.25h-.83c-.13 0-.23-.12-.23-.25l-.02.02c.1-1.7 1.48-2.29 2.75-2.29 1.39 0 2.67.73 2.67 2.24 0 1.08-.63 1.6-1.24 2.06"/>
</svg>