<svg xmlns="http://www.w3.org/2000/svg" width="16" height="16" fill="currentColor" class="lti lti-racquet-racquetball" viewBox="0 0 16 16">
  <path d="M15.95 4.33c-.15-.84-.63-1.46-1-1.83L13.5 1.05c-.35-.35-.69-.59-1.04-.74-1.28-.56-2.7-.33-3.61.57a9.4 9.4 0 0 0-2.38 4.03L5.55 8.1c-.11.38-.28.73-.51 1.03a.47.47 0 0 0-.55.1l-2.84 2.86-.87.45s-.09.05-.12.09l-.49.49c-.19.19-.19.51 0 .7l2.04 2.04c.19.19.51.19.7 0l.49-.49s.07-.08.09-.12l.45-.87 2.86-2.84a.5.5 0 0 0 .15-.35c0-.07-.02-.14-.05-.21q.45-.345 1.02-.51l3.18-.92a9.4 9.4 0 0 0 3.88-2.25l.16-.15c.71-.71 1.01-1.73.82-2.8ZM2.53 14.8 1.2 13.47l.96-.54s.09-.05.12-.09l2.54-2.56.89.89-2.56 2.55s-.07.08-.09.12l-.45.87-.09.09Zm11.8-8.29-.06.06c-.96.93-2.16 1.62-3.46 2l-3.18.92c-.51.15-.97.38-1.39.71-.01 0-.02.02-.03.03l-.44-.44s.04-.03.06-.05q.465-.615.69-1.38l.92-3.18c.4-1.37 1.13-2.61 2.13-3.6.62-.62 1.6-.76 2.51-.36.24.1.48.27.74.53l1.45 1.45c.27.27.62.72.72 1.3.13.75-.07 1.45-.53 1.91l-.1.09Zm-.54-.85-.71-.71.62-.62c.19-.19.19-.51 0-.7s-.51-.19-.7 0l-.62.62-.64-.64.62-.62c.19-.19.19-.51 0-.7s-.51-.19-.7 0l-.62.62-.71-.71c-.19-.19-.51-.19-.7 0s-.19.51 0 .7l.71.71-.62.62-.46-.46c-.19-.19-.51-.19-.7 0s-.19.51 0 .7l.46.46L7.8 6.15c-.19.19-.19.51 0 .7s.51.19.7 0l1.22-1.22.64.64-1.22 1.22c-.19.19-.19.51 0 .7s.51.19.7 0l1.22-1.22.46.46c.19.19.51.19.7 0s.19-.51 0-.7l-.46-.46.62-.62.71.71c.19.19.51.19.7 0s.19-.51 0-.7m-2.73-.09-.64-.64.62-.62.64.64z"/>
</svg>