<svg xmlns="http://www.w3.org/2000/svg" width="16" height="16" fill="currentColor" class="lti lti-racquet-pickleball" viewBox="0 0 16 16">
  <path d="M14.97 2.67 13.31 1C11.98-.33 9.66-.33 8.33 1L4.52 4.82c-.65.65-.89 1.61-.63 2.49l.21.73c.13.45.13.93 0 1.38l-.06.2-2.57 2.59-.66.26a.6.6 0 0 0-.17.11l-.5.5c-.09.09-.15.22-.15.36s.05.26.15.36l2.06 2.06a.51.51 0 0 0 .72 0l.5-.5s.09-.11.11-.17l.26-.66 2.59-2.58.2-.06c.45-.13.93-.12 1.38 0l.72.21c.88.26 1.83.02 2.49-.64l3.81-3.82c.67-.67 1.03-1.55 1.03-2.5s-.37-1.83-1.03-2.49ZM3 13.88s-.09.11-.11.17l-.26.66-.07.07-1.35-1.35.73-.33a.6.6 0 0 0 .17-.11l2-2.01.9.9zm11.26-6.94-3.81 3.82c-.39.39-.96.53-1.49.38l-.72-.21c-.63-.19-1.3-.19-1.93-.01l-.33.09c-.08.02-.16.07-.22.13l-.03.03-.9-.91.03-.03c.06-.06.11-.14.13-.22l.09-.33c.17-.63.17-1.3-.02-1.93l-.21-.73c-.16-.53 0-1.1.38-1.49l3.81-3.82c.98-.98 2.58-.98 3.56 0l1.66 1.67c.48.48.74 1.11.74 1.78s-.26 1.31-.74 1.78"/>
</svg>