<svg xmlns="http://www.w3.org/2000/svg" width="16" height="16" fill="currentColor" class="lti lti-racquet-tennis" viewBox="0 0 16 16">
  <path d="M15.98 4.6c.13-1.35-.27-2.57-1.14-3.43C13.97.3 12.76-.11 11.4.02c-1.31.13-2.58.76-3.59 1.76-.88.88-1.42 1.95-1.65 3.02h-.01L4.17 9.6l-2.79 2.79s-.1.08-.16.11l-.91.38c-.16.06-.27.2-.3.37s.02.34.14.45l2.15 2.15q.15.15.36.15h.1c.16-.03.3-.15.37-.3l.38-.91c.02-.06.06-.11.11-.16l2.79-2.79 4.71-1.95c1.1-.21 2.2-.77 3.11-1.68 1.01-1.01 1.63-2.29 1.76-3.59V4.6ZM5.19 9.77l1.05-2.55c.19.59.5 1.14.95 1.59s.99.75 1.57.94L6.21 10.8 5.18 9.77zm-2.3 4.14c-.14.14-.25.31-.33.49l-.09.21-1.08-1.08.21-.09c.18-.08.35-.19.49-.33l2.5-2.5.8.8zm5.01-5.8c-1.37-1.37-1.09-3.89.62-5.61.84-.84 1.9-1.37 2.98-1.47.13 0 .26-.02.39-.02.88 0 1.66.3 2.23.87.65.65.95 1.58.85 2.62-.11 1.08-.63 2.14-1.47 2.98-1.72 1.72-4.23 2-5.6.62Zm5.47-4.68-.85.85-.8-.8.85-.85c.2-.2.2-.52 0-.71s-.51-.2-.71 0l-.85.85-.49-.49c-.2-.2-.51-.2-.71 0s-.2.52 0 .71l.49.49-.8.8-.49-.49c-.2-.2-.51-.2-.71 0s-.2.52 0 .71l.49.49-.85.85c-.2.2-.2.52 0 .71.2.2.52.2.72 0l.85-.85.8.8-.85.85c-.2.2-.2.52 0 .71.2.2.52.2.72 0l.85-.85.49.49c.2.2.52.2.72 0s.2-.52 0-.71l-.49-.49.8-.8.49.49c.2.2.52.2.72 0s.2-.52 0-.71l-.49-.49.85-.85c.2-.2.2-.52 0-.71s-.51-.2-.71 0zm-2.36 2.36-.8-.8.8-.8.8.8z"/>
</svg>