<svg xmlns="http://www.w3.org/2000/svg" width="16" height="16" fill="currentColor" class="lti lti-racquet-squash" viewBox="0 0 16 16">
  <path fill-rule="evenodd" d="M7.74 9.68c2.25-.53 5.23-1.46 6.68-2.91l.71-.71a2.976 2.976 0 0 0 0-4.19L14.12.86C13.57.31 12.83 0 12.04 0s-1.53.31-2.09.87l-.71.71C7.79 3.02 6.86 6.01 6.33 8.26l-.22.93-1.18 1.18c-.47.1-1.79.43-2.4 1.04L.15 13.78c-.19.19-.19.51 0 .71l1.36 1.36c.19.19.51.19.71 0l2.37-2.37c.61-.61.94-1.93 1.04-2.4L6.81 9.9zm2.2-7.4.71-.71c.37-.37.86-.57 1.39-.57.52 0 1.02.2 1.39.57l1.01 1.01c.76.76.76 2.01 0 2.78l-.71.71c-1.28 1.28-4.08 2.15-6.2 2.64l-.29.07.07-.29c.5-2.13 1.36-4.93 2.64-6.2ZM1.86 14.8l-.66-.66 2.01-2.01c.24-.24.76-.45 1.26-.6-.15.5-.37 1.03-.6 1.26zm7-7.66c-.19-.19-.19-.51 0-.71s.51-.19.71 0 .19.51 0 .71-.51.19-.71 0m2.49-.57c-.19.19-.51.19-.71 0s-.19-.51 0-.71.51-.19.71 0 .19.51 0 .71m-.13-2.5c.19-.19.51-.19.71 0s.19.51 0 .71-.51.19-.71 0-.19-.51 0-.71m1.79-.57c.19-.19.51-.19.71 0s.19.51 0 .71-.51.19-.71 0-.19-.51 0-.71m-.04 1.62c.19.19.19.51 0 .71s-.51.19-.71 0-.19-.51 0-.71.51-.19.71 0m-2.83.24c-.19.19-.51.19-.71 0s-.19-.51 0-.71.51-.19.71 0 .19.51 0 .71m1.66-3.07c.19-.19.51-.19.71 0s.19.51 0 .71-.51.19-.71 0-.19-.51 0-.71m-1.63 1.43c-.19-.19-.19-.51 0-.71s.51-.19.71 0 .19.51 0 .71-.51.19-.71 0"/>
</svg>