<svg xmlns="http://www.w3.org/2000/svg" width="16" height="16" fill="currentColor" class="lti lti-rowing-machine" viewBox="0 0 16 16">
  <path d="M15.5 13h-.9l-.79-2.16c1.26-.4 2.19-1.57 2.19-2.96a3.12 3.12 0 0 0-2.89-3.1l1.92-1.76c.2-.19.22-.5.03-.71s-.5-.22-.71-.03l-3.6 3.3s-.02.03-.03.04c-.46.43-.79 1-.92 1.64H3V6.1h1.5c.28 0 .5-.22.5-.5s-.22-.5-.5-.5h-4c-.28 0-.5.22-.5.5s.22.5.5.5H2v1.16H.75c-.41 0-.75.34-.75.75v2.25c0 .41.34.75.75.75h1.38l-.73 2H.5c-.28 0-.5.22-.5.5s.22.5.5.5H3c.28 0 .5-.22.5-.5s-.22-.5-.5-.5h-.54l.73-2h5.77l-.85.78c-.2.19-.22.5-.03.71.1.11.23.16.37.16.12 0 .24-.04.34-.13l1.65-1.52h2.37l.73 2H13c-.28 0-.5.22-.5.5s.22.5.5.5h2.5c.28 0 .5-.22.5-.5s-.22-.5-.5-.5ZM15 7.88c0 1.17-.95 2.12-2.12 2.12h-1.34l.85-.78c.2-.19.22-.5.03-.71s-.5-.22-.71-.03l-.96.88V7.87a2.121 2.121 0 0 1 4.24 0ZM1 8.25h8.75V10H1z"/>
</svg>