<svg xmlns="http://www.w3.org/2000/svg" width="16" height="16" fill="currentColor" class="lti lti-shield-check" viewBox="0 0 16 16">
  <path d="M8 16q-.09 0-.18-.03C3.37 14.24.5 10.15.5 5.52v-1.6c0-.27.21-.49.48-.5 2.22-.11 4.31-1 5.87-2.51l.8-.77c.19-.19.5-.19.69 0l.8.77a9.12 9.12 0 0 0 5.87 2.51c.27.01.48.23.48.5v1.6c0 4.62-2.87 8.72-7.32 10.44q-.09.03-.18.03ZM1.5 4.38v1.14c0 4.14 2.54 7.83 6.5 9.44 3.96-1.61 6.5-5.3 6.5-9.44V4.38c-2.28-.21-4.41-1.18-6.04-2.75L8 1.19l-.46.44A10.02 10.02 0 0 1 1.5 4.38m9.22 2.34L10.03 6 7.35 8.56 5.97 7.24l-.69.72 2.07 1.99z"/>
</svg>