<svg xmlns="http://www.w3.org/2000/svg" width="16" height="16" fill="currentColor" class="lti lti-shoe" viewBox="0 0 16 16">
  <path d="M14.57 7.47c-.78-.26-2.68-.91-3.34-1.24l.66-.35c.24-.13.33-.43.2-.68a.506.506 0 0 0-.68-.2l-1.07.57c-.21-.17-.45-.34-.7-.53l.62-.33c.24-.13.33-.43.2-.68a.506.506 0 0 0-.68-.2l-1.05.57c-.29-.2-.59-.4-.89-.6-.15-.1-.29-.19-.42-.28-.61-.42-1.14-.77-2.11-.77-1.2 0-2.32.48-2.59 1.12-.12.28-.07.57.13.79l.22.22c.14.13.56.53.54.67 0 0-.03.11-.34.25-.23.11-.85-.14-1.31-.33-.52-.21-1-.4-1.46-.4-.28 0-.5.22-.5.5V13c0 .28.22.5.5.5H13c1.65 0 3-1.35 3-3V9.35c0-.86-.55-1.58-1.43-1.88M1.58 6.4c.73.3 1.49.6 2.12.3.53-.26.83-.59.9-1 .1-.66-.46-1.19-.83-1.54.24-.17.79-.4 1.55-.4.67 0 1 .23 1.55.6.14.09.28.19.44.29.15.09.29.19.44.29l-1.21.65c-.24.13-.33.43-.2.68.09.17.26.26.44.26q.12 0 .24-.06l1.66-.89c.25.18.49.36.71.53l-1.22.66c-.24.13-.33.43-.2.68.09.17.26.26.44.26q.12 0 .24-.06l1.61-.86c.05.04.11.09.15.13.33.27 1.3.65 3.85 1.52.07.02.16.06.24.11-.23.1-.39.25-.61.44-.79.7-1.7 1.04-2.78 1.04H1V6.19c.18.06.38.14.58.22ZM13 12.5H1v-1.49h10.1c1.34 0 2.46-.42 3.51-1.36a.84.84 0 0 1 .39-.23v1.08c0 1.1-.9 2-2 2"/>
</svg>