<svg xmlns="http://www.w3.org/2000/svg" width="16" height="16" fill="currentColor" class="lti lti-shoe-run-ground" viewBox="0 0 16 16">
  <path d="m15.54 11.35-2.19-2.87c-.2-.26-.36-.55-.5-.85h.9c.28 0 .5-.22.5-.5s-.22-.5-.5-.5h-1.33l-.48-1.16h.85c.28 0 .5-.22.5-.5s-.22-.5-.5-.5h-1.26l-.94-2.28c-.23-.57-.78-.94-1.4-.94h-1.9c-.71-.01-1.27.47-1.42 1.28-.08.4-.17.45-.17.45s-.21.08-.91-.41l-.65-.44a1.223 1.223 0 0 0-1.88.76l-.49 2.29c-.06.29-.17.56-.32.8L.48 7.56c-.32.53-.3 1.2.06 1.67.74.97 1.67 1.81 2.69 2.42l3.22 1.93c.1.06.21.1.31.16h-1.7l-1.69-1.06a.514.514 0 0 0-.62.07l-.94.92-.6-1.6a.49.49 0 0 0-.64-.29c-.26.1-.39.38-.29.64l.86 2.32c.06.16.19.28.36.31.04 0 .07.01.11.01a.5.5 0 0 0 .35-.14l1.2-1.18 1.48.92c.08.05.17.08.27.08h8.04c.44 0 .86-.19 1.14-.52l1.41-1.62c.31-.36.33-.89.04-1.27ZM2.75 5.39l.49-2.3c.02-.1.09-.14.13-.16.02 0 .05-.02.09-.02s.08 0 .12.04l.64.43c.49.34 1.22.77 1.86.51.54-.22.7-.79.78-1.19.08-.43.3-.46.4-.46H9.2c.21 0 .4.12.48.32l.78 1.9H9.22c-.28 0-.5.22-.5.5s.22.5.5.5h1.65l.48 1.16h-1.17c-.28 0-.5.22-.5.5s.22.5.5.5h1.58l.08.19q.285.675.72 1.26l1.76 2.31h-3.18c-.98 0-1.97-.32-2.69-.86l-.27-.22c-.85-.71-1.55-1.57-2.33-2.51-.23-.28-.47-.57-.71-.85-.48-.57-1.21-1.03-2.4-1.49 0-.03.02-.05.02-.08Zm10.59 8.18c-.1.11-.24.18-.39.18h-2.38a7.24 7.24 0 0 1-3.62-1.01l-3.22-1.93a8.6 8.6 0 0 1-2.41-2.17.48.48 0 0 1 0-.54l.97-1.58s.03-.07.05-.1c1 .39 1.65.77 2.01 1.2.24.28.47.56.73.88.78.94 1.51 1.83 2.43 2.6l.29.24c.92.69 2.1 1.07 3.31 1.07h3.23l-1.03 1.18Zm1.4-1.6v-.02z"/>
</svg>