<svg xmlns="http://www.w3.org/2000/svg" width="16" height="16" fill="currentColor" class="lti lti-shuffle" viewBox="0 0 16 16">
  <path d="M13.03 6.47a.485.485 0 0 0 .7 0l2.12-2.12s.01-.03.02-.04c.03-.04.06-.08.08-.12s.02-.08.03-.12c0-.02.01-.04.01-.06 0-.06-.01-.13-.03-.18a.45.45 0 0 0-.11-.17l-2.12-2.12c-.2-.2-.51-.2-.71 0s-.2.51 0 .71l1.3 1.3C10.39 3.79 8.49 5.48 7 7.23 5.52 5.4 3.97 3.52.5 3.52c-.28 0-.5.22-.5.5s.22.5.5.5c3.02 0 4.29 1.57 5.76 3.38.03.04.06.08.1.12-.03.04-.06.08-.1.12C4.79 9.95 3.52 11.52.5 11.52c-.28 0-.5.22-.5.5s.22.5.5.5c3.48 0 5.02-1.88 6.51-3.71 1.5 1.75 3.41 3.45 7.31 3.69l-1.3 1.3c-.2.2-.2.51 0 .71a.485.485 0 0 0 .7 0l2.12-2.12c.05-.05.08-.1.11-.16.02-.06.04-.13.04-.19 0-.02-.01-.04-.01-.07 0-.04 0-.08-.03-.12-.02-.05-.05-.09-.08-.13 0-.01-.01-.02-.02-.03l-2.12-2.12c-.2-.2-.51-.2-.71 0s-.2.51 0 .71l1.23 1.23c-3.54-.25-5.2-1.79-6.61-3.46 1.41-1.67 3.09-3.21 6.61-3.46l-1.23 1.23c-.2.2-.2.51 0 .71Z"/>
</svg>