<svg xmlns="http://www.w3.org/2000/svg" width="16" height="16" fill="currentColor" class="lti lti-skis" viewBox="0 0 16 16">
  <path d="m14.68 15.25-4.17-7.2 1.62-2.8c.5-.86.56-1.92.17-2.82L11.49.56a.89.89 0 0 0-.77-.54.87.87 0 0 0-.83.45S8 3.73 8 3.73L6.11.45A.89.89 0 0 0 5.28 0a.89.89 0 0 0-.77.54l-.8 1.87c-.4.91-.33 1.96.17 2.82l1.62 2.8-4.18 7.22c-.09.16-.09.35 0 .5s.25.25.43.25h3.86c.18 0 .34-.09.43-.25l1.95-3.37 1.95 3.37c.09.15.25.25.43.25h3.86c.18 0 .34-.1.43-.25.09-.16.09-.35 0-.5ZM4.73 4.74c-.34-.59-.38-1.31-.11-1.93l.73-1.69 2.08 3.59-1.35 2.34-1.34-2.31ZM5.33 15H2.62l8.04-13.88.73 1.69c.27.62.23 1.34-.12 1.92L5.33 14.99Zm5.34 0-2.1-3.62.39-.67.57.99a.495.495 0 0 0 .68.18c.24-.14.32-.44.18-.68l-.86-1.48.39-.67 3.45 5.96h-2.71ZM7.8 9.39 6.46 11.7a.495.495 0 0 1-.68.18.493.493 0 0 1-.18-.68l1.34-2.31c.14-.24.44-.32.68-.18s.32.44.18.68"/>
</svg>