<svg xmlns="http://www.w3.org/2000/svg" width="16" height="16" fill="currentColor" class="lti lti-sleep" viewBox="0 0 16 16">
  <path d="M8.44 16C4.2 16 .75 12.55.75 8.31a7.7 7.7 0 0 1 4.01-6.75c.19-.11.44-.07.59.09.16.16.19.4.09.59a6.696 6.696 0 0 0 5.88 9.89c1.12 0 2.22-.28 3.2-.82.2-.1.44-.07.59.08s.19.4.08.59a7.7 7.7 0 0 1-6.75 4.01ZM3.9 3.4a6.7 6.7 0 0 0-2.15 4.91c0 3.69 3 6.69 6.69 6.69 1.89 0 3.66-.79 4.91-2.15-.66.18-1.35.28-2.04.28-4.24 0-7.69-3.45-7.69-7.69 0-.69.09-1.38.27-2.04Zm7.64.35c0-.28-.22-.5-.5-.5H9.56L11.44.8c.12-.15.14-.35.05-.53s-.26-.28-.45-.28h-2.5c-.28 0-.5.22-.5.5s.22.5.5.5h1.48L8.14 3.44c-.12.15-.14.35-.05.53a.5.5 0 0 0 .45.28h2.5c.28 0 .5-.22.5-.5m3.71 3c0-.28-.22-.5-.5-.5h-1.1l1.5-1.95c.12-.15.14-.35.05-.53s-.26-.28-.45-.28h-2.12c-.28 0-.5.22-.5.5s.22.5.5.5h1.1l-1.5 1.95c-.12.15-.14.35-.05.53s.26.28.45.28h2.12c.28 0 .5-.22.5-.5m-3.54 2.5c0-.28-.22-.5-.5-.5h-.91l1.3-1.7c.12-.15.14-.35.05-.53a.5.5 0 0 0-.45-.28H9.28c-.28 0-.5.22-.5.5s.22.5.5.5h.91l-1.3 1.7c-.12.15-.14.35-.05.53a.5.5 0 0 0 .45.28h1.92c.28 0 .5-.22.5-.5"/>
</svg>