<svg xmlns="http://www.w3.org/2000/svg" width="16" height="16" fill="currentColor" class="lti lti-snowboard" viewBox="0 0 16 16">
  <path d="m5.74 14.73.35-.47c.57-.76 1.11-1.49 1.75-2.13l4.29-4.29c.64-.64 1.36-1.18 2.13-1.75l.47-.35c.12-.09.23-.18.34-.3.42-.42.71-.94.84-1.5.27-1.07-.05-2.22-.83-3.01l-.01-.01c-.78-.78-1.94-1.1-3-.83-.57.13-1.09.42-1.5.84-.11.1-.21.22-.3.34l-.35.46c-.57.77-1.11 1.49-1.75 2.13L3.88 8.15c-.64.64-1.36 1.18-2.13 1.75l-.47.35c-.12.09-.23.18-.34.3-.42.42-.71.94-.84 1.5-.26 1.07.05 2.21.84 3l.01.01c.61.61 1.42.94 2.26.94.25 0 .5-.03.74-.09.58-.14 1.08-.42 1.5-.85.11-.1.21-.22.3-.34Zm6.57-13.67c.71-.18 1.51.04 2.04.58l.15.15c.44.53.6 1.24.43 1.93-.09.38-.29.73-.6 1.04-.05.06-.12.11-.2.17l-.47.35c-.68.5-1.29.99-1.87 1.52.21-.41.16-.93-.19-1.27l-1.15-1.15c-.34-.34-.83-.4-1.24-.21.52-.57 1-1.17 1.49-1.84l.34-.45c.07-.09.13-.17.22-.25.28-.28.63-.48 1.04-.57Zm-4.44 9.62c.15-.39.07-.86-.24-1.18L6.48 8.35c-.31-.31-.77-.39-1.16-.25L8.1 5.32c-.14.39-.07.85.25 1.16L9.5 7.63c.32.32.78.4 1.18.24l-2.8 2.8Zm-.95-.33-.55.55s-.1.04-.14 0L5.08 9.75s-.04-.1 0-.14l.55-.55s.1-.04.14 0l1.15 1.15s.04.1 0 .14m2.13-4.71.55-.55s.1-.04.14 0l1.15 1.15s.04.1 0 .14l-.55.55s-.1.04-.14 0L9.05 5.78s-.04-.1 0-.14m-5.33 9.3a2.2 2.2 0 0 1-2.08-.59c-.53-.53-.75-1.32-.57-2.07.09-.38.28-.72.6-1.04.05-.06.12-.11.2-.17l.47-.35.05-.04c.62-.47 1.21-.93 1.77-1.44-.19.41-.13.91.21 1.24l1.15 1.15c.35.35.87.4 1.28.18-.54.59-1.02 1.21-1.52 1.87l-.34.45c-.07.09-.13.17-.22.25-.3.3-.63.49-1.02.58Z"/>
</svg>