<svg xmlns="http://www.w3.org/2000/svg" width="16" height="16" fill="currentColor" class="lti lti-stack" viewBox="0 0 16 16">
  <path d="M12.5 16h-9C1.57 16 0 14.43 0 12.5v-4C0 6.57 1.57 5 3.5 5h9C14.43 5 16 6.57 16 8.5v4c0 1.93-1.57 3.5-3.5 3.5m-9-10A2.5 2.5 0 0 0 1 8.5v4A2.5 2.5 0 0 0 3.5 15h9a2.5 2.5 0 0 0 2.5-2.5v-4A2.5 2.5 0 0 0 12.5 6zm1.18-4.47c.19-.31.52-.53.92-.53h4.8c.39 0 .71.21.91.51h1.1a2.09 2.09 0 0 0-2-1.51h-4.8C4.65 0 3.85.65 3.6 1.53h1.1Zm-1.59 2.5c.34-.33.8-.53 1.31-.53h7.2c.5 0 .95.2 1.28.51h1.24a2.88 2.88 0 0 0-2.53-1.51h-7.2c-1.1 0-2.05.63-2.54 1.54h1.23Z"/>
</svg>