<svg xmlns="http://www.w3.org/2000/svg" width="16" height="16" fill="currentColor" class="lti lti-star2" viewBox="0 0 16 16">
  <path d="M8 15c-.23 0-.44-.16-.49-.39l-.39-1.73a5.34 5.34 0 0 0-4-4l-1.73-.4C1.16 8.43 1 8.23 1 7.99s.16-.44.39-.49l1.73-.39a5.34 5.34 0 0 0 4-4l.4-1.73c.05-.23.25-.39.49-.39.23 0 .44.16.49.39l.39 1.73a5.34 5.34 0 0 0 4 4l1.73.4c.23.05.39.25.39.49s-.16.44-.39.49l-1.73.39a5.34 5.34 0 0 0-4 4l-.39 1.73c-.05.23-.25.39-.49.39ZM3.7 8c2.06.6 3.7 2.23 4.3 4.3.6-2.06 2.23-3.7 4.3-4.3-2.06-.6-3.7-2.23-4.3-4.3C7.4 5.76 5.77 7.4 3.7 8"/>
</svg>