<svg xmlns="http://www.w3.org/2000/svg" width="16" height="16" fill="currentColor" class="lti lti-star-half" viewBox="0 0 16 16">
  <path d="M5.35 5.12 7.54.79C7.63.61 7.81.5 8 .5c.18 0 .37.1.47.29l2.18 4.33 4.9.7c.25.04.44.25.45.51a.58.58 0 0 1-.17.45l-3.52 3.36.83 4.73c.08.44-.36.79-.75.59L8 13.2l-4.39 2.26s-.1.04-.15.05c-.34.06-.67-.25-.6-.64l.83-4.73L.17 6.76a.54.54 0 0 1-.17-.4q0-.165.09-.3c.08-.13.22-.22.37-.24l4.9-.7ZM8 12.03c.08 0 .16.02.23.06l3.69 1.89-.69-3.96a.61.61 0 0 1 .16-.51l2.91-2.77-4.05-.58a.51.51 0 0 1-.39-.29L8.01 2.21v9.8Z"/>
</svg>