<svg xmlns="http://www.w3.org/2000/svg" width="16" height="16" fill="currentColor" class="lti lti-star" viewBox="0 0 16 16">
  <path d="M2.87 14.85c-.08.44.36.79.75.59l4.39-2.26 4.39 2.26c.39.2.82-.15.75-.59l-.83-4.73 3.52-3.36c.33-.31.16-.89-.28-.95l-4.9-.7L8.47.79a.5.5 0 0 0-.68-.24c-.11.05-.19.14-.24.24L5.37 5.12l-4.91.7c-.44.06-.61.64-.28.95l3.52 3.36-.83 4.73Zm4.9-2.77-3.69 1.89.69-3.96a.6.6 0 0 0-.16-.51L1.7 6.73l4.05-.58a.51.51 0 0 0 .39-.29L7.98 2.2l1.85 3.66c.08.15.22.26.39.29l4.05.57-2.91 2.77c-.14.13-.2.32-.16.51l.69 3.96-3.69-1.89a.47.47 0 0 0-.46 0Z"/>
</svg>