<svg xmlns="http://www.w3.org/2000/svg" width="16" height="16" fill="currentColor" class="lti lti-stationary-bike" viewBox="0 0 16 16">
  <path d="M15.5 15h-.91l-.53-1.38c.73-.71 1.19-1.69 1.19-2.78 0-2.14-1.74-3.87-3.88-3.87-.08 0-.16.02-.24.02L9.99 2.5h.48c1.62 0 2.77-.64 3.24-1.81.1-.26-.02-.55-.28-.65s-.55.02-.65.28c-.39.98-1.47 1.19-2.31 1.19H9.35c-.15 0-.3.07-.4.19-.09.12-.13.28-.09.43l1.29 5.06a3.84 3.84 0 0 0-2.29 2.05l-3.98.02-1.02-3.98h1.73c.28 0 .5-.22.5-.5s-.22-.5-.5-.5H2.22c-.15 0-.3.07-.4.19-.09.12-.13.28-.09.43l1.14 4.46c-.94.27-1.63 1.13-1.63 2.15 0 .86.49 1.59 1.19 1.97l-1.19 1.53H.48c-.28 0-.5.22-.5.5s.22.5.5.5h2.5c.28 0 .5-.22.5-.5s-.22-.5-.5-.5H2.5l.97-1.25c.12 0 .24 0 .36-.03l4.31-.71c.7 1.03 1.87 1.7 3.2 1.7.67 0 1.29-.19 1.85-.49l.3.78h-.52c-.28 0-.5.22-.5.5s.22.5.5.5h2.5c.28 0 .5-.22.5-.5s-.22-.5-.5-.5ZM3.7 12.73c-.73.12-1.45-.48-1.45-1.23 0-.69.56-1.25 1.25-1.25l4.07-.02c-.03.2-.06.4-.06.61 0 .43.09.84.22 1.23l-4.02.66Zm4.8-1.89c0-.21.03-.41.07-.61h2.81c.34-.01.62.27.62.61 0 .31-.22.57-.52.62l-2.76.45c-.13-.33-.21-.69-.21-1.07Zm.81 1.99 2.33-.38a1.622 1.622 0 0 0-.27-3.22H9c.52-.75 1.39-1.25 2.38-1.25 1.58 0 2.88 1.29 2.88 2.87s-1.29 2.87-2.88 2.87c-.81 0-1.55-.34-2.07-.89"/>
</svg>