<svg xmlns="http://www.w3.org/2000/svg" width="16" height="16" fill="currentColor" class="lti lti-telephone" viewBox="0 0 16 16">
  <path d="M11.11 16c-2.82 0-5.92-1.48-7.77-3.34C.97 10.29-.79 5.9.36 2.65.85 1.27 2.62 0 4.06 0h.01c1.09 0 1.89.93 2.08 1.43.02.04.54 1.36.88 2.57.04.15.01.3-.07.42L5.01 7.18c.35 1.06.66 1.66 1.4 2.4s1.34 1.05 2.41 1.4l2.76-1.95c.12-.09.28-.11.42-.07 1.07.3 2.24.75 2.57.88.5.19 1.44.99 1.43 2.09 0 1.45-1.27 3.21-2.65 3.7-.7.25-1.46.36-2.24.36Zm-7.06-4.05c2.1 2.1 6.13 3.75 8.97 2.74.99-.35 1.98-1.72 1.98-2.76 0-.6-.59-1.07-.78-1.14s-.01 0-.02 0c-.21-.08-1.26-.49-2.25-.78l-2.77 1.96c-.13.09-.29.11-.44.07-1.32-.42-2.11-.79-3.04-1.72S4.4 8.6 3.98 7.28a.5.5 0 0 1 .07-.44l1.96-2.77c-.33-1.09-.78-2.24-.79-2.26-.07-.2-.55-.79-1.14-.79-1.04 0-2.41.99-2.76 1.98-1.01 2.84.64 6.87 2.74 8.97Z"/>
</svg>