<svg xmlns="http://www.w3.org/2000/svg" width="16" height="16" fill="currentColor" class="lti lti-ticket-detailed-fill" viewBox="0 0 16 16">
  <path d="M15.5 6.5h.5V4c0-.83-.67-1.5-1.5-1.5h-13C.67 2.5 0 3.17 0 4v2.5h.5C1.33 6.5 2 7.17 2 8S1.33 9.5.5 9.5H0V12c0 .83.67 1.5 1.5 1.5h13c.83 0 1.5-.67 1.5-1.5V9.5h-.5c-.83 0-1.5-.67-1.5-1.5s.67-1.5 1.5-1.5M9.43 8.18l-1.52.5c-.08.03-.14.11-.14.2v1.6c0 .2-.25.28-.37.12l-.95-1.3c-.05-.07-.15-.1-.23-.07l-1.52.5a.206.206 0 0 1-.23-.32l.94-1.3a.21.21 0 0 0 0-.24l-.95-1.3c-.12-.16.04-.38.23-.32l1.53.49c.08.03.18 0 .23-.08l.94-1.3c.12-.16.37-.08.37.12v1.6c0 .09.06.17.15.19l1.53.49c.19.06.19.33 0 .39ZM12 12.5h-1v-9h1z"/>
</svg>