<svg xmlns="http://www.w3.org/2000/svg" width="16" height="16" fill="currentColor" class="lti lti-unlock" viewBox="0 0 16 16">
  <path d="M8 8.74c.91 0 1.64.73 1.64 1.64 0 .65-.38 1.22-.94 1.48l.12 1.39H7.18l.12-1.39c-.55-.26-.94-.83-.94-1.48 0-.91.73-1.64 1.64-1.64m4-2.63V4.5C12 2.02 10.21 0 8 0S4 2.02 4 4.5h1C5 2.57 6.35 1 8 1s3 1.57 3 3.5V6H4.75c-1.65 0-3 1.35-3 3v4c0 1.65 1.35 3 3 3h6.5c1.65 0 3-1.35 3-3V9c0-1.39-.96-2.56-2.25-2.89M13.25 13c0 1.1-.9 2-2 2h-6.5c-1.1 0-2-.9-2-2V9c0-1.1.9-2 2-2h6.5c1.1 0 2 .9 2 2z"/>
</svg>