<svg xmlns="http://www.w3.org/2000/svg" width="16" height="16" fill="currentColor" class="lti lti-volume-off" viewBox="0 0 16 16">
  <path d="M14.35 13.65 8.5 7.8l-1-1-1.6-1.6-.71-.71-2.84-2.84-.71.71L4.38 5.1l-.55.41H2.5c-.83 0-1.5.67-1.5 1.5v2c0 .83.67 1.5 1.5 1.5h1.33l4.67 3.5V9.22l5.15 5.15.71-.71ZM7.5 12 4.17 9.5H2.5c-.28 0-.5-.22-.5-.5V7c0-.28.22-.5.5-.5h1.67l.93-.7 2.4 2.4v3.79Zm-.79-7.41L6 3.88 8.5 2v4.38l-1-1V4zM14 8c0-1.61-.63-3.12-1.76-4.25l.71-.71A6.93 6.93 0 0 1 15.01 8c0 1.36-.39 2.66-1.11 3.77l-.73-.73c.54-.91.83-1.96.83-3.04m-2.5 0c0-.94-.37-1.82-1.03-2.48l.71-.71c.85.85 1.32 1.98 1.32 3.19 0 .68-.17 1.33-.45 1.93l-.76-.76c.13-.37.21-.76.21-1.17"/>
</svg>