<svg xmlns="http://www.w3.org/2000/svg" width="16" height="16" fill="currentColor" class="lti lti-volume" viewBox="0 0 16 16">
  <path d="m8.5 14-4.67-3.5H2.5C1.67 10.5 1 9.83 1 9V7c0-.83.67-1.5 1.5-1.5h1.33L8.5 2zm-6-7.5c-.28 0-.5.22-.5.5v2c0 .28.22.5.5.5h1.67L7.5 12V4L4.17 6.5zm10 1.5c0-1.2-.47-2.34-1.32-3.19l-.71.71c.66.66 1.03 1.54 1.03 2.48s-.36 1.81-1.03 2.47l.71.71c.85-.85 1.32-1.98 1.32-3.18M15 8c0-1.88-.73-3.64-2.06-4.96l-.71.71c1.14 1.13 1.76 2.64 1.76 4.25s-.62 3.11-1.76 4.24l.71.71A6.96 6.96 0 0 0 14.99 8Z"/>
</svg>