<svg xmlns="http://www.w3.org/2000/svg" width="16" height="16" fill="currentColor" class="lti lti-water" viewBox="0 0 16 16">
  <path d="M13.76 13.74c-.88 0-1.69-.45-2.26-1.2-.57.76-1.38 1.2-2.26 1.2s-1.7-.45-2.27-1.22c-.57.76-1.38 1.2-2.25 1.2-.8 0-1.55-.37-2.12-1.04a.506.506 0 0 1 .06-.71c.21-.18.53-.15.7.06.38.44.86.69 1.36.69.74 0 1.43-.54 1.8-1.4.08-.19.26-.31.46-.31.17-.03.38.12.46.31.36.88 1.05 1.42 1.81 1.42s1.43-.54 1.8-1.4c.08-.19.26-.31.46-.31s.38.12.46.31c.36.86 1.05 1.4 1.8 1.4.5 0 .99-.24 1.36-.69.18-.21.5-.24.71-.06s.24.5.06.71c-.57.67-1.33 1.04-2.12 1.04Zm-.35-5.41c.18-.21.16-.53-.05-.71a.507.507 0 0 0-.71.06c-.38.44-.86.69-1.36.69-.74 0-1.43-.54-1.8-1.4a.5.5 0 0 0-.46-.31c-.2 0-.38.12-.46.31-.36.86-1.05 1.4-1.8 1.4s-1.44-.54-1.8-1.42a.5.5 0 0 0-.46-.31c-.2 0-.38.12-.46.31-.36.86-1.05 1.4-1.8 1.4-.5 0-.98-.24-1.36-.69a.506.506 0 0 0-.71-.06c-.21.18-.23.49-.06.71.57.67 1.33 1.04 2.12 1.04.88 0 1.69-.44 2.25-1.2.57.77 1.39 1.22 2.27 1.22s1.69-.45 2.26-1.2c.57.76 1.38 1.2 2.26 1.2.8 0 1.55-.37 2.12-1.04Zm2.47-4.38c.18-.21.15-.53-.06-.7a.507.507 0 0 0-.71.06c-.38.44-.86.69-1.36.69-.74 0-1.43-.54-1.8-1.4a.5.5 0 0 0-.46-.31c-.2 0-.38.12-.46.31-.36.86-1.05 1.4-1.8 1.4s-1.44-.54-1.81-1.42a.5.5 0 0 0-.46-.31c-.2 0-.38.12-.46.31-.36.86-1.05 1.4-1.8 1.4-.5 0-.99-.24-1.36-.69a.494.494 0 0 0-.7-.06c-.21.18-.24.49-.06.7.57.67 1.32 1.04 2.12 1.04.88 0 1.69-.44 2.25-1.2.57.77 1.39 1.22 2.27 1.22s1.69-.45 2.26-1.2c.57.76 1.38 1.2 2.26 1.2.8 0 1.55-.37 2.12-1.04Z"/>
</svg>