<svg xmlns="http://www.w3.org/2000/svg" width="16" height="16" fill="currentColor" class="lti lti-yoga-mat" viewBox="0 0 16 16">
  <path fill-rule="evenodd" d="M4 9.72c0 .55-.45 1-1 1s-1-.45-1-1 .45-1 1-1 1 .45 1 1m11.91-3.33L10.7 13.6c-.09.13-.25.21-.41.21h-.07l-7.66-1.12h-.04c-.18-.03-.37-.07-.55-.14-.02 0-.03-.02-.05-.02-.16-.06-.31-.13-.46-.22-.05-.03-.1-.07-.15-.11-.09-.06-.17-.11-.25-.18-.02-.01-.03-.03-.04-.04-.07-.06-.13-.14-.2-.21s-.14-.15-.21-.23c-.05-.07-.09-.14-.13-.21-.06-.09-.12-.18-.17-.28-.04-.09-.07-.18-.1-.27s-.07-.17-.1-.26c-.03-.11-.04-.22-.06-.32-.01-.08-.03-.16-.04-.25v-.3c0-.1 0-.2.01-.3v-.06c.01-.08.04-.16.06-.23.02-.09.04-.19.07-.28.03-.1.08-.2.13-.3.04-.08.07-.16.11-.23.06-.11.13-.2.21-.3.04-.05.07-.11.11-.16L4.42 3.4c.52-.61 1.24-.99 2.04-1.05.8-.07 1.58.18 2.19.7.54.45.86 1.06.99 1.7l5.93.87c.17.03.32.14.39.3s.05.35-.06.49Zm-13 .33c.17 0 .35 0 .52.02a2.99 2.99 0 0 1 2.52 2.57l2.28-2.7A2 2 0 0 0 6.7 3.32h-.17c-.53.04-1.02.29-1.36.7L2.9 6.71Zm-.32 4.95.15.03c.07 0 .14 0 .22.01h.18c.06 0 .13-.02.19-.03l.19-.03c.07-.02.13-.04.19-.07.06-.02.11-.04.17-.07.07-.03.13-.08.19-.12.05-.03.1-.06.14-.09.05-.04.1-.09.15-.13.05-.05.1-.09.15-.14.25-.29.42-.64.47-1.02.16-1.09-.6-2.11-1.69-2.27-.1-.01-.2-.02-.29-.02-.43 0-.84.14-1.19.4-.16.12-.29.26-.4.42-.05.07-.1.13-.14.2-.03.05-.05.1-.07.15-.03.07-.06.13-.09.2-.02.06-.03.12-.04.18-.02.07-.03.13-.04.2v.39c0 .06.02.11.03.17.01.07.02.14.04.21s.05.13.07.19c.02.05.04.11.06.16.04.07.08.14.12.2.03.04.05.08.08.12.04.06.1.11.15.16.04.04.08.09.12.13.05.04.11.08.16.12s.1.08.16.11c.06.04.13.06.19.09.05.02.11.05.16.07.07.03.15.04.23.06Zm12.02-5.2-4.94-.72c-.08.54-.29 1.06-.67 1.51l-3.71 4.39-.03.03c-.11.12-.23.23-.36.34l5.16.76 4.55-6.3Z"/>
</svg>