<svg xmlns="http://www.w3.org/2000/svg" width="160" height="22" viewBox="0 0 160 22">
	<path fill="#A2AAAD" d="M154.78 10.656L159.603 21H153.8L150 11.823V21h-5V1h5v8.515L153.402 1h5.698zM135 12.724c.007.962 0 8.276 0 8.276h-5V1h5c4.71 0 8.355 1.38 8.355 6.658 0 2.202-.958 4.165-3.112 5.013L144.286 21h-5.88L135 12.724zm.667-2.636c1.41 0 2.168-1.224 2.168-2.5 0-1.719-1.373-2.447-2.835-2.37v4.844l.667.026zM121.01.5c5.756 0 8.01 5.613 8.01 10.625 0 5.013-2.254 10.625-8.01 10.625-5.757 0-8.01-5.612-8.01-10.625C113 6.113 115.253.5 121.01.5zm-.001 16.072c2.141 0 2.225-4.168 2.225-5.448 0-1.28-.084-5.448-2.225-5.448s-2.225 4.168-2.225 5.448c0 1.28.084 5.448 2.225 5.448zM104.307 21l-1.455-8.117c-.291-1.618-.37-3.023-.555-4.403h-.054c-.132 1.38-.184 2.785-.422 4.403L100.683 21h-5.239L91 1h5.317l1.19 8.064c.212 1.486.371 2.945.556 4.43h.054c.158-1.485.184-2.944.45-4.43L99.967 1h4.63l1.375 8.064c.24 1.458.398 2.89.61 4.35h.052c.16-1.247.212-2.786.45-4.35L108.275 1h5.265l-4.021 20h-5.212M10 16v5H0V1h5v15zM11 1v20h5V1zM27 6V1H17v20h5v-8h4V9h-4V6zM38 6V1H28v20h10v-5h-5v-3h4V9h-4V6zM88 6V1H78v20h10v-5h-5v-3h4V9h-4V6zM41 1v5h3v15h5V6h3V1zM53 1v20h5V1zM72 1h-2.5L68 11 66.5 1H59v20h5V10l2 11h4l2-11v11h5V1z"/>
</svg>
